<?xml version="1.0" encoding="UTF-8"?>
<svg width="18px" height="18px" viewBox="0 0 18 18" version="1.1" xmlns="http://www.w3.org/2000/svg" xmlns:xlink="http://www.w3.org/1999/xlink">
    <!-- Generator: Sketch 50.2 (55047) - http://www.bohemiancoding.com/sketch -->
    <title>button_icon-close</title>
    <desc>Created with Sketch.</desc>
    <defs></defs>
    <g id="atoms" stroke="none" stroke-width="1" fill="none" fill-rule="evenodd" fill-opacity="0.5">
        <g id="atom/button-label/icon/close" transform="translate(-16.000000, 0.000000)" fill="#000000">
            <path d="M26.4142136,9 L29.944907,12.5306934 C30.3381046,12.923891 30.3429944,13.5565005 29.9497475,13.9497475 C29.5592232,14.3402718 28.9244789,14.3386924 28.5306934,13.944907 L25,10.4142136 L21.4693066,13.944907 C21.076109,14.3381046 20.4434995,14.3429944 20.0502525,13.9497475 C19.6597282,13.5592232 19.6613076,12.9244789 20.055093,12.5306934 L23.5857864,9 L20.055093,5.46930658 C19.6618954,5.07610896 19.6570056,4.44349949 20.0502525,4.05025253 C20.4407768,3.65972824 21.0755211,3.66130757 21.4693066,4.05509301 L25,7.58578644 L28.5306934,4.05509301 C28.923891,3.6618954 29.5565005,3.65700558 29.9497475,4.05025253 C30.3402718,4.44077682 30.3386924,5.07552113 29.944907,5.46930658 L26.4142136,9 Z" id="Combined-Shape"></path>
        </g>
    </g>
</svg>