<svg xmlns="http://www.w3.org/2000/svg" width="18" height="18" viewBox="0 0 18 18">
  <path fill-opacity=".5" fill-rule="evenodd" d="M10,8 L10,3.00684547 C10,2.44994876 9.55228475,2 9,2 C8.44386482,2 8,2.45078007 8,3.00684547 L8,8 L3.00684547,8 C2.44994876,8 2,8.44771525 2,9 C2,9.55613518 2.45078007,10 3.00684547,10 L8,10 L8,14.9931545 C8,15.5500512 8.44771525,16 9,16 C9.55613518,16 10,15.5492199 10,14.9931545 L10,10 L14.9931545,10 C15.5500512,10 16,9.55228475 16,9 C16,8.44386482 15.5492199,8 14.9931545,8 L10,8 Z"/>
</svg>
