<svg xmlns="http://www.w3.org/2000/svg" width="18" height="18" viewBox="0 0 18 18">
  <path fill-opacity=".5" fill-rule="evenodd" d="M8,3.40688318 L6.70836081,4.70394094 C6.3167163,5.09646269 5.68543411,5.10016999 5.29227265,4.7061279 C4.90183327,4.31481397 4.90259371,3.6796066 5.29445472,3.28686787 L8.27410969,0.296059059 C8.48244477,0.08725733 8.75859018,-0.0115214894 9.03063093,0.00106754185 C9.28209784,0.00499823739 9.53265195,0.103332662 9.72494763,0.296059059 L12.7046026,3.28686787 C13.0962471,3.67938961 13.0999461,4.3120858 12.7067847,4.7061279 C12.3163453,5.09744182 11.6825575,5.09667967 11.2906965,4.70394094 L10,3.40782982 L10,11.0044225 C10,11.5542648 9.55613518,12 9,12 C8.44771525,12 8,11.555163 8,11.0044225 L8,3.40688318 Z M6,7 L6,9 L4.50964952,9 C4.22765279,9 4,9.22282734 4,9.49769878 L4,13.5023012 C4,13.7851562 4.22817786,14 4.50964952,14 L13.4903505,14 C13.7723472,14 14,13.7771727 14,13.5023012 L14,9.49769878 C14,9.21484375 13.7718221,9 13.4903505,9 L12,9 L12,7 L13.9941413,7 C15.1019465,7 16,7.89585781 16,8.9973917 L16,14.0026083 C16,15.1057373 15.1029399,16 13.9941413,16 L4.00585866,16 C2.89805351,16 2,15.1041422 2,14.0026083 L2,8.9973917 C2,7.89426273 2.89706013,7 4.00585866,7 L6,7 Z"/>
</svg>
