<svg xmlns="http://www.w3.org/2000/svg" width="18" height="18" viewBox="0 0 18 18">
  <path fill-opacity=".5" fill-rule="evenodd" d="M13,1.95174263 C13,2.48078906 12.810547,2.93833587 12.4316354,3.32439678 C12.0527238,3.71045769 11.5916024,3.90348525 11.0482574,3.90348525 C10.5192109,3.90348525 10.0616641,3.71045769 9.67560322,3.32439678 C9.28954231,2.93833587 9.09651475,2.48078906 9.09651475,1.95174263 C9.09651475,1.42269619 9.28954231,0.965149383 9.67560322,0.579088472 C10.0616641,0.19302756 10.5192109,0 11.0482574,0 C11.5916024,0 12.0527238,0.19302756 12.4316354,0.579088472 C12.810547,0.965149383 13,1.42269619 13,1.95174263 Z M11.3485255,13.0187668 C11.3485255,13.2475436 10.8087632,13.7837313 9.72922252,14.6273458 C8.64968182,15.4709604 7.67382027,15.8927614 6.80160858,15.8927614 C6.20106938,15.8927614 5.76497008,15.7390543 5.49329759,15.4316354 C5.22162509,15.1242165 5.08579088,14.7774818 5.08579088,14.3914209 C5.08579088,14.1483455 5.12153673,13.9231467 5.19302949,13.7158177 C5.26452225,13.5084887 5.34316311,13.2975882 5.42895442,13.0831099 L7.46648794,8.85790885 C7.58087635,8.61483346 7.6630918,8.41823131 7.71313673,8.26809651 C7.76318166,8.11796172 7.78820375,7.98570209 7.78820375,7.87131367 C7.78820375,7.75692525 7.76675625,7.67470981 7.72386059,7.62466488 C7.68096493,7.57461995 7.62377158,7.54959786 7.55227882,7.54959786 C7.36639764,7.54959786 7.00536461,7.83199003 6.4691689,8.39678284 C5.93297319,8.96157566 5.61483517,9.24396783 5.51474531,9.24396783 C5.40035689,9.24396783 5.28597019,9.16532697 5.17158177,9.0080429 C5.05719335,8.85075882 5,8.75067046 5,8.7077748 C5,8.56478928 5.13583421,8.33244129 5.4075067,8.01072386 C5.6791792,7.68900643 6.0223393,7.34942091 6.43699732,6.9919571 C6.80875968,6.6630904 7.25558273,6.35567614 7.77747989,6.06970509 C8.29937705,5.78373405 8.76049845,5.64075067 9.16085791,5.64075067 C9.80429276,5.64075067 10.2868617,5.82305448 10.6085791,6.18766756 C10.9302965,6.55228064 11.0911528,6.99195453 11.0911528,7.50670241 C11.0911528,7.7211807 11.0697053,7.9499541 11.0268097,8.19302949 C10.983914,8.43610488 10.8909748,8.68632579 10.7479893,8.94369973 L9.11796247,12.5254692 C8.9892755,12.8257388 8.8963363,13.0688105 8.83914209,13.2546917 C8.78194788,13.4405729 8.75335121,13.5692579 8.75335121,13.6407507 C8.75335121,13.726542 8.77479871,13.7801608 8.81769437,13.8016086 C8.86059003,13.8230564 8.90348504,13.8337802 8.9463807,13.8337802 C9.26094885,13.8337802 9.62913105,13.6085813 10.0509383,13.1581769 C10.4727456,12.7077725 10.7408395,12.4825737 10.8552279,12.4825737 C10.9553177,12.4825737 11.0625553,12.55764 11.1769437,12.7077748 C11.2913321,12.8579096 11.3485255,12.9615725 11.3485255,13.0187668 Z"/>
</svg>
