<svg xmlns="http://www.w3.org/2000/svg" width="18" height="18" viewBox="0 0 18 18">
  <path fill-opacity=".5" fill-rule="evenodd" d="M27,8 L26,8 L26,6 L25,6 L25,4 L26,4 L26,3 L25,3 L25,2 L26,2 L26,1 L33,1 L33,9 L32,9 L32,8 L31,8 L31,9 L30,9 L30,8 L28,8 L28,11 L27,11 L27,10 L26,10 L26,9 L27,9 L27,8 Z M20,8 L20,10 L21,10 L21,9 L22,9 L22,10 L24,10 L24,9 L25,9 L25,11 L24,11 L24,13 L26,13 L26,14 L24,14 L24,15 L25,15 L25,16 L24,16 L24,17 L17,17 L17,10 L19,10 L19,8 L18,8 L18,9 L17,9 L17,1 L25,1 L25,2 L24,2 L24,6 L25,6 L25,7 L24,7 L24,9 L22,9 L22,8 L20,8 Z M29,11 L29,9 L30,9 L30,11 L29,11 Z M33,10 L33,17 L28,17 L28,15 L27,15 L27,13 L28,13 L28,11 L29,11 L29,12 L32,12 L32,11 L31,11 L31,9 L32,9 L32,10 L33,10 Z M27,15 L27,17 L25,17 L25,16 L26,16 L26,15 L27,15 Z M20,4 L21,4 L21,5 L20,5 L20,4 Z M25,8 L26,8 L26,9 L25,9 L25,8 Z M25,11 L26,11 L26,12 L25,12 L25,11 Z M26,12 L27,12 L27,13 L26,13 L26,12 Z M29,4 L30,4 L30,5 L29,5 L29,4 Z M20,13 L21,13 L21,14 L20,14 L20,13 Z M19,12 L19,15 L22,15 L22,12 L19,12 Z M19,3 L19,6 L22,6 L22,3 L19,3 Z M28,3 L28,6 L31,6 L31,3 L28,3 Z" transform="translate(-16)"/>
</svg>
