<svg xmlns="http://www.w3.org/2000/svg" width="18" height="18" viewBox="0 0 18 18">
  <path fill-opacity=".5" fill-rule="evenodd" d="M11.0950711,8 L4.4955775,8 C3.94483697,8 3.5,8.44771525 3.5,9 C3.5,9.55613518 3.94573523,10 4.4955775,10 L11.0941263,10 L7.79605906,13.2906965 C7.40332033,13.6825575 7.40255818,14.3163453 7.7938721,14.7067847 C8.1879142,15.0999461 8.82061039,15.0962471 9.21313213,14.7046026 L14.2039409,9.72494763 C14.3855225,9.54377184 14.4833133,9.31088062 14.4973035,9.07423543 C14.4990907,9.04972518 14.5,9.02496946 14.5,9 C14.5,8.99738175 14.4999901,8.99476598 14.4999704,8.99215274 C14.5019676,8.732715 14.4029032,8.47262733 14.2039409,8.27410969 L9.21313213,3.29445472 C8.8203934,2.90259371 8.18518603,2.90183327 7.7938721,3.29227265 C7.39983001,3.68543411 7.40353731,4.3167163 7.79605906,4.70836081 L11.0950711,8 Z"/>
</svg>
