<svg xmlns="http://www.w3.org/2000/svg" xmlns:xlink="http://www.w3.org/1999/xlink" width="16" height="16" viewBox="0 0 16 16">
  <defs>
    <path id="favorite-mini-a" d="M15.7108022,6.88463813 L13.0765485,9.92368356 L13.3985012,13.9424799 C13.4506477,14.5934027 12.9652436,15.1633531 12.3143208,15.2154996 C12.1283796,15.2303957 11.9415521,15.2010864 11.769105,15.1299668 L7.99936824,13.5752748 L4.23075075,15.1299254 C3.62709012,15.3789508 2.93585153,15.0914621 2.68682616,14.4878015 C2.61571383,14.3154186 2.58638227,14.1286602 2.60122671,13.9427773 L2.92218793,9.92368356 L0.288799103,6.88446905 C-0.138820582,6.39094984 -0.085398468,5.64421924 0.408120734,5.21659955 C0.551518251,5.09234988 0.722711705,5.00443494 0.907241396,4.96028041 L4.86143233,4.01411583 L6.99388959,0.561251142 C7.33701813,0.00565902683 8.06557518,-0.166576726 8.62116729,0.17655182 C8.77763282,0.273183481 8.90940123,0.404980073 9.00599944,0.561466258 L11.1373041,4.01411583 L15.0924403,4.96026371 C15.7275294,5.11218978 16.1192105,5.7501917 15.9672845,6.38528088 C15.9231176,6.56990962 15.8351441,6.74118927 15.7108022,6.88463813 Z"/>
  </defs>
  <g fill="none" fill-rule="evenodd">
    <use fill="#FFE6B3" xlink:href="#favorite-mini-a"/>
    <path stroke="#B38F6B" d="M15.3329831,6.55714345 C15.4047437,6.47435586 15.4555152,6.37550648 15.4810049,6.26895305 C15.5686849,5.90242867 15.3426368,5.53422328 14.9761124,5.44654329 L10.82025,4.45237764 L8.58053356,0.824104388 C8.52478455,0.733792659 8.448738,0.657729854 8.3584382,0.60196153 C8.03779338,0.403934257 7.61732657,0.50333542 7.41929929,0.82398024 L5.17843459,4.45237774 L1.02359747,5.44655324 C0.917101196,5.47203582 0.818301568,5.52277352 0.735543606,5.59448083 C0.450722473,5.84126986 0.419891358,6.27222504 0.666680385,6.55704618 L3.43728118,9.75461809 L3.09963993,13.9825801 C3.09107286,14.0898574 3.10800077,14.1976399 3.14904131,14.297126 C3.29275951,14.6455122 3.69168899,14.8114285 4.04007524,14.6677103 L7.99934247,13.0344117 L11.9597364,14.6677335 C12.0592596,14.7087782 12.167082,14.7256933 12.2743929,14.7170964 C12.6500552,14.6870015 12.9301929,14.3580702 12.900098,13.9824078 L12.5614025,9.75461817 L15.3329831,6.55714345 Z"/>
  </g>
</svg>
