<svg xmlns="http://www.w3.org/2000/svg" width="60" height="60" viewBox="0 0 60 60">
  <g fill="none" fill-rule="evenodd" stroke="#000">
    <rect width="59" height="59" x=".5" y=".5" stroke-opacity=".25" rx="12"/>
    <path fill="#fff" fill-opacity=".6" stroke-opacity=".6" stroke-width=".5" d="m11 15.75c2.6233526 0 4.75-2.1266474 4.75-4.75 0-2.62335256-2.1266474-4.75-4.75-4.75-2.62335256 0-4.75 2.12664744-4.75 4.75 0 2.6233526 2.12664744 4.75 4.75 4.75zm38 0c2.6233526 0 4.75-2.1266474 4.75-4.75 0-2.62335256-2.1266474-4.75-4.75-4.75s-4.75 2.12664744-4.75 4.75c0 2.6233526 2.1266474 4.75 4.75 4.75zm0 38c2.6233526 0 4.75-2.1266474 4.75-4.75s-2.1266474-4.75-4.75-4.75-4.75 2.1266474-4.75 4.75 2.1266474 4.75 4.75 4.75zm-38 0c2.6233526 0 4.75-2.1266474 4.75-4.75s-2.1266474-4.75-4.75-4.75c-2.62335256 0-4.75 2.1266474-4.75 4.75s2.12664744 4.75 4.75 4.75z"/>
  </g>
</svg>
