<svg xmlns="http://www.w3.org/2000/svg" width="8" height="14" viewBox="0 0 8 14">
  <path fill-opacity=".5" fill-rule="evenodd" d="M7.5,4.5 L7.5,4.5 L7.5,4.5 C7.77614237,4.22385763 7.77614237,3.77614237 7.5,3.5 L4.70710678,0.707106781 L4.70710678,0.707106781 C4.31658249,0.316582489 3.68341751,0.316582489 3.29289322,0.707106781 L0.5,3.5 L0.5,3.5 C0.223857625,3.77614237 0.223857625,4.22385763 0.5,4.5 L0.5,4.5 L0.5,4.5 C0.776142375,4.77614237 1.22385763,4.77614237 1.5,4.5 L4,2 L6.5,4.5 L6.5,4.5 C6.77614237,4.77614237 7.22385763,4.77614237 7.5,4.5 Z M0.5,9.5 L0.5,9.5 L0.5,9.5 C0.223857625,9.77614237 0.223857625,10.2238576 0.5,10.5 L3.29289322,13.2928932 L3.29289322,13.2928932 C3.68341751,13.6834175 4.31658249,13.6834175 4.70710678,13.2928932 L7.5,10.5 L7.5,10.5 C7.77614237,10.2238576 7.77614237,9.77614237 7.5,9.5 L7.5,9.5 L7.5,9.5 C7.22385763,9.22385763 6.77614237,9.22385763 6.5,9.5 L4,12 L1.5,9.5 L1.5,9.5 C1.22385763,9.22385763 0.776142375,9.22385763 0.5,9.5 Z"/>
</svg>
