<svg width="365" height="68" viewBox="0 0 365 68" fill="none" xmlns="http://www.w3.org/2000/svg">
<path fill-rule="evenodd" clip-rule="evenodd" d="M359.824 48.5972L359.821 0H344.916L344.1 6.02096L348.179 7.43329L348.281 7.47096C348.876 7.71167 349.143 8.21574 349.143 8.91994V20.2185L348.94 20.0709C346.165 18.0673 342.885 16.6506 338.686 16.6506C330.455 16.6506 322.965 22.2999 322.965 37.2408C322.965 51.4383 328.601 57.0133 337.352 57.0133C342.765 57.0133 346.399 54.932 349.513 51.8843L350.032 51.9587L350.774 56.1213H364.567V50.249L360.804 49.6995C360.039 49.5804 359.867 49.4233 359.83 48.7709L359.824 48.5972ZM323.178 16.933C321.717 16.5724 318.382 16.2895 316.686 16.2895C311.803 16.2895 308.447 19.2406 305.929 23.0998H305.472L304.556 17.0462H291.13L290.3 23.1142L290.333 23.189L294.41 24.6132L294.511 24.6461C295.193 24.889 295.402 25.4078 295.402 26.2023L295.401 48.4807C295.391 49.5232 295.215 49.7406 294.181 49.887L290.749 50.341V56.4703H315.694V50.4167L308.038 49.8038C307.033 49.7238 306.928 49.4899 306.921 48.4285L306.921 28.2454L307.135 28.0652C308.342 27.0716 310.547 25.5969 312.414 25.5969C313.024 25.5969 313.253 25.7483 313.405 26.4293L314.168 30.4398L323.322 30.7425V16.9705L323.178 16.933ZM157.258 16.8325C161.966 16.8325 166.575 17.6728 169.351 18.4325L169.589 18.4984L169.813 17.3755H189.008V23.622L184.759 24.0735L190.829 45.2213H191.36L198.112 18.3539H209.569L216.094 45.2213H216.549L222.239 24.0735L217.915 23.622L218.901 17.3755H234.834L234.833 21.5879C234.489 22.2632 234.169 22.9529 233.875 23.6559L232.103 23.9983C231.081 24.143 230.621 24.4965 230.317 25.3932L230.282 25.5035L220.95 56.5854H208.962L203.044 31.3736H202.589L196.595 56.5854H182.938L173.379 25.4282C173.088 24.5627 172.727 24.3884 171.896 24.1767L171.785 24.1488L171.116 24.0064L171.159 24.1766V29.8823L163.075 29.3578L162.32 25.4574C162.245 24.8574 162.093 24.5578 161.565 24.4076L161.324 24.3386C160.303 24.0635 158.613 23.8076 156.73 23.8076C152.952 23.8076 150.837 25.2325 150.837 27.6325C150.837 30.2551 153.86 31.1321 157.608 31.9848L160.139 32.5561L160.489 32.6387C166.216 34.0057 172.293 36.3158 172.293 44.6567C172.293 53.8069 164.814 57.5563 155.219 57.5563C148.526 57.5563 141.976 55.8504 140.379 54.93L140.26 54.8567V43.9819L148.344 44.5819L149.1 48.8567L149.124 49.0395C149.208 49.5872 149.392 49.846 150.006 49.9812L150.184 50.0373L150.385 50.0959L150.611 50.1563L150.871 50.2198C151.961 50.4748 153.655 50.7314 155.824 50.7314C159.827 50.7314 162.093 49.6069 162.093 46.8318C162.093 43.8809 159.169 42.9622 155.408 42.2901L153.687 41.9826L152.954 41.8447C147.062 40.7067 140.563 38.6465 140.563 29.9578C140.563 20.6582 148.57 16.8325 157.258 16.8325ZM87.5859 16.8325L87.3779 16.8329C80.4896 16.8619 71.4308 18.3594 71.4308 28.3819L82.0255 29.2831L82.0266 29.0926C82.0756 25.0858 83.6898 24.3537 86.7535 24.2678L87.0497 24.2614L87.5103 24.2582C91.4609 24.2582 92.3314 25.9831 92.5048 28.6568L92.5196 28.9228L92.5347 29.333L92.5405 29.6136L92.5443 30.0385L92.5445 34.308L83.6241 34.9261C74.42 35.5766 69.8535 39.032 69.8535 46.4567C69.8535 51.1072 71.3574 57.5563 80.8232 57.5563C86.8344 57.5563 90.5915 55.3065 93.4458 52.5314L93.8208 52.6061L94.5732 56.6559H108.399V55.141L108.504 55.1873C110.701 56.1357 116.647 57.5563 122.726 57.5563C132.269 57.5563 139.707 53.8061 139.707 44.6567C139.707 35.8823 133.019 33.7819 127.084 32.4325L125.296 32.0287C121.479 31.1613 118.368 30.3003 118.368 27.6325C118.368 25.2325 120.472 23.8076 124.229 23.8076C126.258 23.8076 128.061 24.108 129.038 24.4076C129.563 24.5578 129.714 24.8574 129.788 25.4574L130.54 29.3578L138.58 29.8823V19.0076L138.355 18.9228C136.086 18.0941 130.49 16.8325 124.754 16.8325C116.114 16.8325 108.151 20.6582 108.151 29.9578C108.151 38.1223 113.858 40.434 119.409 41.6274L119.923 41.7351L120.451 41.8403L121.179 41.9782L123.285 42.3582C126.846 43.0257 129.563 43.9793 129.563 46.8318C129.563 49.6069 127.309 50.7314 123.328 50.7314C121.171 50.7314 119.486 50.4748 118.402 50.2198L118.144 50.1563L117.919 50.0959L117.718 50.0373L117.542 49.9812C116.866 49.8318 116.714 49.5314 116.641 48.8567L115.889 44.5819L107.849 43.9819V50.6399L104.792 50.1314L104.589 50.1024C103.877 49.992 103.67 49.8478 103.612 49.2854L103.599 49.1213L103.593 48.9424L103.59 48.7412L103.59 30.4076L103.589 30.0949C103.498 19.8475 98.8921 16.8325 87.5859 16.8325ZM52.9668 2.17194C66.9884 2.17194 71.2311 9.52227 71.2311 18.1466C71.2311 31.0654 63.4333 36.34 50.8488 36.4442L50.466 36.4458H44.9336L44.9348 48.6583L44.9391 48.8483L44.9487 49.0231C44.9969 49.6504 45.1923 49.802 45.946 49.9173L46.147 49.9457L56.9837 50.5457V56.4703H27.2764L27.2763 56.4529L27.2433 56.4703H0.879889V50.5715L7.33826 50.0478C8.32033 49.9783 8.51617 49.7138 8.53792 48.7686L8.54014 48.5554V22.7687C8.54014 21.6991 7.72949 21.8756 2.08338 23.7735L0 17.65L12.9042 10.3167H19.8816L19.8819 48.6646L19.8844 48.8663L19.8909 49.0472C19.9294 49.7873 20.1185 49.9716 20.9816 50.0403L21.0843 50.0478L27.2433 50.5715L27.2763 50.5876L27.2764 50.5457L32.0507 50.0204C33.0401 49.8809 33.239 49.6757 33.2611 48.734L33.2634 48.5207V10.197C33.2634 9.10993 33.1208 8.79229 32.1537 8.70483L32.0507 8.69659L27.2764 8.17205V2.17194H52.9668ZM92.3323 40.1399V46.3097L92.1731 46.4248C90.451 47.6567 87.9742 48.9854 85.4975 48.9854C83.0189 48.9854 81.2161 47.8708 81.2161 44.8966C81.2161 41.9232 82.7936 40.8086 87.2239 40.5117L92.3323 40.1399ZM341.967 25.2795C336.526 25.2795 334.358 30.3335 334.312 36.8911L334.311 37.1055C334.311 44.3657 336.392 48.4075 341.075 48.4075C343.53 48.4075 346.195 46.9949 348.185 45.336L348.359 45.1891V27.5249C346.501 26.2525 344.122 25.2795 341.967 25.2795ZM44.777 10.4072H49.2095C54.5409 10.4072 58.9735 11.6699 58.9735 18.8061C58.9735 26.3205 54.5851 28.0045 50.1109 28.276L49.6957 28.2973L49.4133 28.3075L48.9774 28.3172L48.6819 28.32L44.777 28.3203V10.4072Z" fill="white"/>
<path fill-rule="evenodd" clip-rule="evenodd" d="M262 4C279.673 4 294 18.327 294 36C294 53.6736 279.673 68 262 68C244.327 68 230 53.6736 230 36C230 18.327 244.327 4 262 4ZM262 10.5C247.917 10.5 236.5 21.9169 236.5 36C236.5 50.0837 247.917 61.5 262 61.5C276.083 61.5 287.5 50.0837 287.5 36C287.5 21.9169 276.083 10.5 262 10.5ZM262 17C272.493 17 281 25.5067 281 36C281 46.4938 272.493 55 262 55C251.507 55 243 46.4938 243 36C243 25.5067 251.507 17 262 17ZM265.065 22.5H258.935C258.171 22.5 257.546 23.1652 257.502 24.004L257.5 24.0979V30.5049C257.509 30.7427 257.589 30.9832 257.733 31.174L257.79 31.2431L258.687 32.2418C259.04 32.636 259.059 33.2621 258.742 33.6806L258.687 33.7484L257.79 34.7471C257.631 34.9247 257.533 35.1585 257.514 35.4067L257.51 35.5004L257.5 47.9021C257.5 48.7531 258.097 49.4487 258.85 49.4973L258.935 49.5H265.065C265.829 49.5 266.454 48.8348 266.498 47.996L266.5 47.9021V41.9802C266.5 41.7291 266.42 41.4871 266.277 41.2961L266.22 41.227L265.323 40.2283C264.969 39.8341 264.951 39.208 265.267 38.7895L265.323 38.7217L266.22 37.723C266.379 37.5454 266.477 37.3116 266.496 37.0634L266.5 36.9697V24.0979C266.5 23.2154 265.858 22.5 265.065 22.5Z" fill="white"/>
</svg>
