<svg xmlns="http://www.w3.org/2000/svg" width="18" height="18" viewBox="0 0 18 18">
  <path fill="#B3B3B3" fill-rule="evenodd" d="M18,8.31303368 C18,7.86675913 17.6379871,7.50474622 17.1909323,7.50474622 L16.9685753,7.50474622 C16.4505223,7.50474622 15.9987864,7.17004031 15.8310433,6.68007455 C15.7303975,6.38437866 15.6102466,6.09726496 15.4729314,5.82029388 C15.2412119,5.35295392 15.3215725,4.79355034 15.6906073,4.42451563 L15.8497681,4.26535477 C16.164969,3.94937367 16.164969,3.43756231 15.8497681,3.12158121 L14.8784188,2.15101209 C14.5624377,1.83503099 14.0506263,1.83503099 13.7346452,2.15101209 L13.5637814,2.32109575 C13.1970873,2.68857007 12.6400243,2.77049109 12.1734645,2.54189242 C11.8996142,2.40769798 11.6164015,2.28988774 11.3246066,2.19080231 C10.8323003,2.02383945 10.4952538,1.57132331 10.4952538,1.05170994 L10.4952538,0.809067661 C10.4952538,0.362012917 10.1332409,0 9.68696632,0 L8.31303368,0 C7.86675913,0 7.50474622,0.362012917 7.50474622,0.809067661 L7.50474622,1.07589615 C7.50474622,1.59238871 7.17160071,2.04334446 6.68319535,2.21264791 C6.39842226,2.31095314 6.12145117,2.42720298 5.85384249,2.55983702 C5.38572234,2.7915565 4.82631876,2.71119587 4.45728404,2.34216115 L4.26535477,2.15101209 C3.94937367,1.83503099 3.43756231,1.83503099 3.12158121,2.15101209 L2.15101209,3.12158121 C1.83503099,3.43756231 1.83503099,3.94937367 2.15101209,4.26535477 L2.35386416,4.46898704 C2.72133848,4.83646136 2.8024793,5.39352434 2.57388063,5.86008409 C2.44514759,6.12457197 2.33123835,6.39764206 2.23449352,6.67851415 C2.06675047,7.16926011 1.61501452,7.50474622 1.09618135,7.50474622 L0.809067661,7.50474622 C0.362793117,7.50474622 0,7.86675913 0,8.31303368 L0,9.68696632 C0,10.1332409 0.362793117,10.4952538 0.809067661,10.4952538 L1.09618135,10.4952538 C1.61501452,10.4952538 2.06675047,10.8307399 2.23449352,11.3214858 C2.33123835,11.6023579 2.44514759,11.875428 2.57388063,12.1399159 C2.8024793,12.6064757 2.72133848,13.1635386 2.35386416,13.531013 L2.15101209,13.7346452 C1.83503099,14.0506263 1.83503099,14.5624377 2.15101209,14.8784188 L3.12158121,15.8497681 C3.43756231,16.164969 3.94937367,16.164969 4.26535477,15.8497681 L4.45728404,15.6578388 C4.82631876,15.2888041 5.38572234,15.2084435 5.85384249,15.440163 C6.12145117,15.572797 6.39842226,15.6890469 6.68319535,15.7873521 C7.17160071,15.9566555 7.50474622,16.4076113 7.50474622,16.9241039 L7.50474622,17.1909323 C7.50474622,17.6379871 7.86675913,18 8.31303368,18 L9.68696632,18 C10.1332409,18 10.4952538,17.6379871 10.4952538,17.1909323 L10.4952538,16.9482901 C10.4952538,16.4286767 10.8323003,15.9761605 11.3246066,15.8091977 C11.6164015,15.7101123 11.8996142,15.592302 12.1734645,15.4581076 C12.6400243,15.2295089 13.1970873,15.3114299 13.5637814,15.6789043 L13.7346452,15.8497681 C14.0506263,16.164969 14.5624377,16.164969 14.8784188,15.8497681 L15.8497681,14.8784188 C16.164969,14.5624377 16.164969,14.0506263 15.8497681,13.7346452 L15.6906073,13.5754844 C15.3215725,13.2064497 15.2412119,12.6470461 15.4729314,12.1797061 C15.6102466,11.902735 15.7303975,11.6156213 15.8310433,11.3199254 C15.9987864,10.8299597 16.4505223,10.4952538 16.9685753,10.4952538 L17.1909323,10.4952538 C17.6379871,10.4952538 18,10.1332409 18,9.68696632 L18,8.31303368 Z M5.10161066,8.08468632 C5.4278541,6.61387424 6.6146821,5.42769215 8.08479144,5.10144173 C11.0028578,4.45498257 13.5450058,6.99718492 12.8985604,9.91531368 C12.572317,11.3854545 11.3861603,12.5723078 9.91537965,12.8985583 C6.9973133,13.5450174 4.45449403,11.0028151 5.10161066,8.08468632 Z"/>
</svg>
