<svg xmlns="http://www.w3.org/2000/svg" width="18" height="18" viewBox="0 0 18 18">
  <g fill="none" fill-rule="evenodd">
    <path fill="#9A8CFF" d="M9,0 C4.0291875,0 0,4.0291875 0,9 C0,13.9708125 4.0291875,18 9,18 C13.97025,18 18,13.9708125 18,9 C18,4.0291875 13.97025,0 9,0 Z"/>
    <path fill="#FFF" d="M7.76132075,9.02653846 C7.76132075,8.0916836 8.41165457,7.63103048 8.91295356,7.29231495 C9.25166909,7.06198839 9.52264151,6.87230769 9.52264151,6.58778665 C9.52264151,6.28971698 9.30586357,6.05939042 8.72327286,6.05939042 C8.20842525,6.05939042 7.68002903,6.33036284 7.30066763,6.76391872 L6,5.27357039 C6.74517417,4.43355588 7.86970972,4 8.98069666,4 C10.7691147,4 11.8801016,4.86711176 11.8801016,6.16777939 C11.8801016,7.29231495 11.1891219,7.80716255 10.5929826,8.25426705 C10.1594267,8.56588534 9.78006531,8.83685776 9.78006531,9.27041364 C9.78006531,9.5007402 9.87490566,9.70396952 9.98329463,9.81235849 L8.18132801,10.2730116 C7.92390421,9.96139332 7.76132075,9.54138607 7.76132075,9.02653846 Z M7.73422351,12.0614296 C7.73422351,11.3704499 8.31681422,10.7878592 9.0077939,10.7878592 C9.69877358,10.7878592 10.2813643,11.3704499 10.2813643,12.0614296 C10.2813643,12.7524093 9.69877358,13.335 9.0077939,13.335 C8.31681422,13.335 7.73422351,12.7524093 7.73422351,12.0614296 Z"/>
  </g>
</svg>
