<svg xmlns="http://www.w3.org/2000/svg" width="18" height="18" viewBox="0 0 18 18">
  <g fill="none" fill-rule="evenodd">
    <path fill="#B3B3B3" d="M13,7 L11,7 L11,4 C11,2.8954305 10.1045695,2 9,2 C7.8954305,2 7,2.8954305 7,4 L7,7 L5,7 L5,4 C5,1.790861 6.790861,4.05812251e-16 9,0 C11.209139,-4.05812251e-16 13,1.790861 13,4 L13,7 Z"/>
    <path fill="#CD9D41" d="M3.86666667,7 L14.1333333,7 C15.1642649,7 16,7.81402773 16,8.81818182 L16,15.1818182 C16,16.1859723 15.1642649,17 14.1333333,17 L3.86666667,17 C2.83573513,17 2,16.1859723 2,15.1818182 L2,8.81818182 C2,7.81402773 2.83573513,7 3.86666667,7 Z"/>
  </g>
</svg>
