<?xml version="1.0" encoding="UTF-8"?>
<svg width="22px" height="22px" viewBox="0 0 22 22" version="1.1" xmlns="http://www.w3.org/2000/svg" xmlns:xlink="http://www.w3.org/1999/xlink">
    <defs></defs>
    <g id="Page-1" stroke="none" stroke-width="1" fill="none" fill-rule="evenodd">
        <g id="B5X---Setup-Completed" transform="translate(-589.000000, -199.000000)" fill="#7F7F7F">
            <g id="content" transform="translate(180.000000, 76.000000)">
                <g id="toolbar-icon" transform="translate(409.000000, 123.000000)">
                    <path d="M22,11 C22,17.07475 17.07475,22 11,22 C4.92525,22 1.13686838e-13,17.07475 1.13686838e-13,11 C1.13686838e-13,4.92525 4.92525,0 11,0 C17.07475,0 22,4.92525 22,11 Z M11,1 C5.47666667,1 1,5.47666667 1,11 C1,16.5233333 5.47666667,21 11,21 C16.5233333,21 21,16.5233333 21,11 C21,5.47666667 16.5233333,1 11,1 Z M11,2.5 C15.6948333,2.5 19.5,6.30516667 19.5,11 C19.5,15.6948333 15.6948333,19.5 11,19.5 C6.30516667,19.5 2.5,15.6948333 2.5,11 C2.5,6.30516667 6.30516667,2.5 11,2.5 Z M11,5 C7.686,5 5,7.68616518 5,11.000369 C5,14.3145728 7.686,17.000738 11,17.000738 C14.314,17.000738 17,14.3145728 17,11.000369 C17,7.68616518 14.314,5 11,5 Z M9.5,7 L12.5,7 L12.5,15 L9.5,15 L9.5,7 Z" id="icon"></path>
                </g>
            </g>
        </g>
    </g>
</svg>