<svg xmlns="http://www.w3.org/2000/svg" xmlns:xlink="http://www.w3.org/1999/xlink" width="32" height="32" viewBox="0 0 32 32">
  <defs>
    <path id="app_icon-toolbar-a" d="M0,15 C0,6.71571924 6.71571924,0 15,0 C23.2842808,0 30,6.71571924 30,15 C30,23.2845394 23.2842808,30 15,30 C6.71571924,30 0,23.2845394 0,15 Z M3,15 C3,21.6276119 8.37263807,27 15,27 C21.6273619,27 27,21.6276119 27,15 C27,8.37263807 21.6273619,3 15,3 C8.37263807,3 3,8.37263807 3,15 Z"/>
    <path id="app_icon-toolbar-b" d="M15,5.76897436 C20.0979487,5.76897436 24.2307692,9.90179487 24.2307692,14.9997436 C24.2307692,20.0979487 20.0979487,24.2305128 15,24.2305128 C9.90205128,24.2305128 5.76923077,20.0979487 5.76923077,14.9997436 C5.76923077,9.90179487 9.90205128,5.76897436 15,5.76897436 L15,5.76897436 Z"/>
    <path id="app_icon-toolbar-d" d="M18,16.4289694 L17.0004375,17.2856225 L18,18.1424898 L18,22 L14,22 L14,10 L18,10 L18,16.4289694 Z M14,13.8575102 L14,15.5714592 L14.9998125,14.7143775 L14,13.8575102 Z"/>
    <filter id="app_icon-toolbar-c" width="112.5%" height="108.3%" x="-6.2%" y="-2.1%" filterUnits="objectBoundingBox">
      <feOffset dy=".5" in="SourceAlpha" result="shadowOffsetOuter1"/>
      <feColorMatrix in="shadowOffsetOuter1" values="0 0 0 0 1   0 0 0 0 1   0 0 0 0 1  0 0 0 0.5 0"/>
    </filter>
  </defs>
  <g fill="none" fill-rule="evenodd">
    <path fill="#198CFF" d="M16,3.69205128 C22.7974359,3.69205128 28.3079487,9.2025641 28.3079487,16 C28.3079487,22.7976923 22.7974359,28.3079487 16,28.3079487 C9.2025641,28.3079487 3.69205128,22.7976923 3.69205128,16 C3.69205128,9.2025641 9.2025641,3.69205128 16,3.69205128"/>
    <g transform="translate(1 1)">
      <use fill="#FFF" xlink:href="#app_icon-toolbar-a"/>
      <path stroke="#000" stroke-opacity=".25" d="M-0.5,15 C-0.5,6.43957686 6.43957686,-0.5 15,-0.5 C23.5604231,-0.5 30.5,6.43957686 30.5,15 C30.5,23.5605938 23.5605111,30.5 15,30.5 C6.43948887,30.5 -0.5,23.5605938 -0.5,15 Z M3.5,15 C3.5,21.3513816 8.64869249,26.5 15,26.5 C21.3513075,26.5 26.5,21.3513816 26.5,15 C26.5,8.64878044 21.3512196,3.5 15,3.5 C8.64878044,3.5 3.5,8.64878044 3.5,15 Z"/>
      <g>
        <use fill="#F3F3F3" xlink:href="#app_icon-toolbar-b"/>
        <path stroke="#000" stroke-opacity=".25" stroke-width=".5" d="M15,5.51897436 C20.2360199,5.51897436 24.4807692,9.76372368 24.4807692,14.9997436 C24.4807692,20.2359324 20.2361074,24.4805128 15,24.4805128 C9.76389261,24.4805128 5.51923077,20.2359324 5.51923077,14.9997436 C5.51923077,9.76372368 9.76398009,5.51897436 15,5.51897436 Z"/>
      </g>
    </g>
    <use fill="#000" filter="url(#app_icon-toolbar-c)" xlink:href="#app_icon-toolbar-d"/>
    <use fill="#4C4C4C" xlink:href="#app_icon-toolbar-d"/>
    <polygon fill="#7F7F7F" points="17.5 21.5 14.5 21.5 14.5 16.01 15.25 15.34 15.25 14.89 14.5 14.23 14.5 11.5 17.5 11.5 17.5 16.827 16.739 17.495 16.739 17.952 17.5 18.631"/>
  </g>
</svg>
