<svg xmlns="http://www.w3.org/2000/svg" xmlns:xlink="http://www.w3.org/1999/xlink" width="172" height="242" viewBox="0 0 172 242">
  <defs>
    <path id="party-a" d="M128.119509,61.9322541 C128.119509,61.9322541 133.06314,56.30291 136.373088,56.30291 C140.493022,56.30291 143.154498,61.9322541 147.274433,61.9322541 C149.81863,61.9322541 157.345816,54.9994413 159.890014,54.9994413 C162.864543,54.9994413 167.496873,61.9322541 170.471403,61.9322541"/>
    <path id="party-b" d="M156.510966,107.456522 L162.57431,125.698073 C163.581845,128.645718 158.250219,135.185489 146.593014,145.865379 C134.935809,156.545268 129.100832,160.147785 126.633116,158.758903 L107.691085,149.195484 C110.17793,150.43212 118.736841,145.769202 134.228334,132.27599 C149.516423,118.959944 157.426533,110.698906 156.510966,107.456522 Z"/>
    <path id="party-c" d="M139.145666,61.0112916 L146.788912,80.6639428 L146.706778,80.7403789 C146.756893,80.8400608 146.801764,80.9432378 146.841454,81.0497118 C148.521349,85.556236 138.831207,97.2510792 119.088486,115.338612 C100.184487,132.65774 89.5749966,138.989558 85.3689851,137.823415 L85.2515483,137.932705 L64.4755059,126.715266 C69.0828162,129.0462 82.257659,121.36623 106.218911,100.495791 C130.180163,79.6253525 141.309231,66.6443286 139.145666,61.0112916 Z"/>
    <path id="party-d" d="M3.34066799,4.69826604 C3.34066799,4.69826604 16.0915499,5.99917377 21.6577553,9.58581987 C27.2239607,13.172466 29.4431014,16.4197448 29.4431014,29.0328954 C29.4431014,41.6460459 42.1105569,42.4212649 55.5455348,38.2789888"/>
    <path id="party-e" d="M7.51849734,79.3513893 C13.3002105,79.3513893 18.9088984,90.5254916 24.6906116,90.5254916 C28.2610138,90.5254916 38.0039522,76.5276102 41.5743545,76.5276102 C45.7486634,76.5276102 50.7928362,85.3148099 54.9671451,85.3148099"/>
    <path id="party-f" d="M74.4009083,33.4576849 C80.4849144,33.4576849 84.7105932,26.4038032 93.140361,26.4038032 C96.8974393,26.4038032 98.3328289,39.7328993 106.097697,39.7328993 C113.862564,39.7328993 119.420368,37.238564 119.420368,37.238564"/>
  </defs>
  <g fill="none" fill-rule="evenodd" transform="matrix(-1 0 0 1 174 0)">
    <path fill="#000" fill-opacity=".05" d="M121.162162,234 C150.433254,234 174.162162,228.049512 174.162162,221 C174.162162,213.820298 150.433254,208 121.162162,208 C91.8910704,208 68.1621622,213.820298 68.1621622,221 C68.1621622,228.179702 91.8910704,234 121.162162,234 Z"/>
    <path fill="#000" fill-opacity=".03" d="M71.1621622,207.377358 C78.3418639,207.377358 84.1621622,206.24786 84.1621622,204.188679 C84.1621622,202.42762 78.3418639,201 71.1621622,201 C63.9824604,201 58.1621622,202.42762 58.1621622,204.188679 C58.1621622,205.949738 63.9824604,207.377358 71.1621622,207.377358 Z"/>
    <path fill="#000" fill-opacity=".04" d="M51.1621622,221.377358 C58.3418639,221.377358 64.1621622,219.922572 64.1621622,218.188679 C64.1621622,216.42762 58.3418639,215 51.1621622,215 C43.9824604,215 38.1621622,216.42762 38.1621622,218.188679 C38.1621622,219.949738 43.9824604,221.377358 51.1621622,221.377358 Z"/>
    <path fill="#000" fill-opacity=".03" d="M41.1621622 241.377358C48.3418639 241.377358 54.1621622 239.990545 54.1621622 238.188679 54.1621622 236.42762 48.3418639 235 41.1621622 235 33.9824604 235 28.1621622 236.42762 28.1621622 238.188679 28.1621622 239.949738 33.9824604 241.377358 41.1621622 241.377358zM25.1621622 205.377358C37.8647114 205.377358 48.1621622 204.058121 48.1621622 202.188679 48.1621622 200.42762 37.8647114 199 25.1621622 199 12.4596129 199 2.16216216 200.42762 2.16216216 202.188679 2.16216216 203.949738 12.4596129 205.377358 25.1621622 205.377358z"/>
    <g stroke-linecap="round" transform="rotate(-75 149.295 58.466)">
      <use stroke="#4CA6FF" stroke-width="9" xlink:href="#party-a"/>
      <use stroke="#9CF" stroke-width="3" xlink:href="#party-a"/>
    </g>
    <path fill="#F2C585" d="M39.9679445,113.729867 C49.2150574,120.702151 150.093457,170.521946 155.639411,173.627164 C161.357211,176.8286 175.974293,164.696843 173.612014,157.14886 C171.249736,149.600876 133.820207,40.2498944 129.798459,34.8779561 C129.796869,34.8783595 129.79528,34.8787631 129.793691,34.8791668 C125.771037,29.5060177 111.272568,31.0036423 75.1644072,61.6910895 C39.0562463,92.3785367 35.8780896,108.845756 39.3721774,113.207823 C39.5381141,113.414981 39.7368475,113.588989 39.9679445,113.729867 Z"/>
    <path fill="#FFF" fill-opacity=".6" d="M50.4764569,105.948057 C47.9547796,102.439843 56.675359,91.6147593 69.959399,79.6800654 C83.2434391,67.7453715 93.7698826,61.2041604 95.8796453,64.2429265 C97.2861537,66.2687706 103.227138,85.1732786 113.702597,120.956451 L99.3482369,133.228991 C68.4481685,117.380511 52.1575752,108.286867 50.4764569,105.948057 Z"/>
    <path fill="#F2C585" d="M39.9679445,113.729867 C49.2150574,120.702151 150.093457,170.521946 155.639411,173.627164 C161.357211,176.8286 175.974293,164.696843 173.612014,157.14886 C171.249736,149.600876 133.820207,40.2498944 129.798459,34.8779561 L129.793691,34.8791668 C133.812153,40.2524907 117.962623,57.5337501 89.4334105,82.3829181 C62.2570286,106.05376 44.6030007,116.555432 39.9679445,113.729867 L39.9679445,113.729867 Z"/>
    <use fill="#D2CCFF" xlink:href="#party-b"/>
    <path stroke="#7369BF" stroke-width="2" d="M156.622556,110.96258 C154.225288,115.345267 147.241479,122.267581 134.885132,133.030057 C124.036085,142.479661 116.000884,148.155816 111.180712,149.837279 L127.12359,157.887447 C129.03196,158.961517 134.946959,155.178825 145.917491,145.128039 C157.350764,134.653307 162.411067,128.312277 161.625359,126.013497 L156.622556,110.96258 Z"/>
    <use fill="#D2CCFF" xlink:href="#party-c"/>
    <path stroke="#7369BF" stroke-width="2" d="M139.81574,65.4930732 C137.278551,72.6424438 126.476095,84.1777672 106.875709,101.249858 C88.3429398,117.392045 75.7528879,126.159148 68.6101769,127.811217 L85.0954192,136.711959 L85.0971713,136.710329 L85.6361623,136.859767 C89.6371949,137.969078 100.894125,130.651369 118.412964,114.601273 C138.004444,96.6523005 147.323959,85.2070386 145.90444,81.3990021 C145.877244,81.3260452 145.84686,81.2562392 145.813335,81.1895541 L145.4764,80.5193655 L145.611,80.3941022 L139.81574,65.4930732 Z"/>
    <path fill="#FFF" fill-opacity=".5" d="M127.016973,57.391814 C131.741412,67.7405844 160.369051,142.691468 162.436463,148.357391 C164.503875,154.023314 159.327817,157.089958 155.341024,150.880695 C151.35423,144.671433 102.755767,94.2836138 96.3829181,87.229413 C93.2280833,83.7372795 104.121612,77.4666782 111.880173,70.1935177 C119.794108,62.7747044 124.631336,52.1661311 127.016973,57.391814 Z"/>
    <g stroke="#BF8B43" stroke-width="4" transform="translate(38.162 32)">
      <path d="M90.0295932,4.07658125 C88.4173045,1.92301152 84.2316702,1.69508657 77.1068291,4.61305056 C67.81502,8.41849185 54.897407,17.1071468 38.2974318,31.2150617 C22.0108702,45.056614 11.4040246,56.872067 5.99042568,66.316106 C2.02039595,73.2418345 1.32913905,78.1574535 2.77097856,79.9574657 C2.84422402,80.0489063 3.00873417,80.1273572 3.38852508,80.1644653 C3.99216009,80.2234445 4.85679948,80.1111781 5.94921775,79.8019623 C8.39299784,79.1102349 11.7283276,77.5100834 15.8170773,75.0386628 C24.5010427,69.7896914 36.1936547,60.8633349 49.9576525,48.8747848 C64.6225743,36.1015229 75.3972972,25.7956245 82.1476695,18.0151101 C88.6870364,10.4778017 91.1267134,5.54202905 90.0295932,4.07658125 Z"/>
      <path d="M90.1011564,4.17217054 L90.030499,4.07779186 C88.4176991,1.92353904 84.231949,1.69533314 77.1069061,4.61321675 C67.8151706,8.41841529 54.8975863,17.1069943 38.2974318,31.2150617 C22.0108702,45.056614 11.4040246,56.872067 5.99042568,66.316106 C2.02039595,73.2418345 1.32913905,78.1574535 2.77097856,79.9574657 C2.79052485,79.9818675 2.81297072,80.0015321 2.84681208,80.022162 L3.00986218,80.1329353 C6.73989078,82.9453608 26.5384963,93.3832373 58.4275749,109.5669 C59.055708,109.885676 59.6884737,110.206655 60.3259685,110.529886 C72.1357387,116.51783 116.841367,138.978973 118.454332,139.882083 C122.79269,142.31116 135.291412,131.338694 133.541147,125.746224 C127.53305,106.549072 93.4496351,9.3637548 90.1011564,4.17217054 Z"/>
    </g>
    <g transform="translate(0 5)">
      <ellipse cx="29.162" cy="106.066" fill="#FFF" stroke="#D2CCFF" stroke-width="4" rx="5" ry="4.985"/>
      <ellipse cx="43.919" cy="134.445" fill="#FAD9D2" stroke="#FA937F" stroke-width="4" rx="5" ry="4.985"/>
      <ellipse cx="43.919" cy="12.985" fill="#FAD9D2" stroke="#FA937F" stroke-width="4" rx="5" ry="4.985"/>
      <ellipse cx="68.892" cy="134.445" fill="#9CF" stroke="#4CA6FF" stroke-width="3" rx="5" ry="4.985"/>
      <g stroke-linecap="round" transform="rotate(10 29.443 22.612)">
        <use stroke="#968DD9" stroke-width="9" xlink:href="#party-d"/>
        <use stroke="#D2CCFF" stroke-width="3" xlink:href="#party-d"/>
      </g>
      <g stroke-linecap="round" transform="rotate(15 31.243 83.527)">
        <use stroke="#8BBF86" stroke-width="9" xlink:href="#party-e"/>
        <use stroke="#CBF2AA" stroke-width="3" xlink:href="#party-e"/>
      </g>
      <g stroke-linecap="round" transform="rotate(-102 96.91 33.068)">
        <use stroke="#C76" stroke-width="9" xlink:href="#party-f"/>
        <use stroke="#FA937F" stroke-width="3" xlink:href="#party-f"/>
      </g>
      <ellipse cx="79.108" cy="35.688" stroke="#D2CCFF" stroke-width="4" rx="5" ry="4.985"/>
      <ellipse cx="74.568" cy="74.283" fill="#9CF" stroke="#4CA6FF" stroke-width="3" rx="5" ry="4.985"/>
      <ellipse cx="134.73" cy="20.931" fill="#F9E7CE" stroke="#F2C585" stroke-width="4" rx="5" ry="4.985"/>
      <ellipse cx="32.568" cy="157.148" fill="#F9E7CE" stroke="#F2C585" stroke-width="4" rx="5" ry="4.985"/>
      <ellipse cx="43.568" cy="57.148" fill="#F9E7CE" stroke="#F2C585" stroke-width="4" rx="5" ry="4.985"/>
    </g>
  </g>
</svg>
