<svg xmlns="http://www.w3.org/2000/svg" width="16" height="16" viewBox="0 0 16 16">
  <g fill="none" fill-rule="evenodd">
    <g transform="translate(2 2)">
      <path fill="#D9C398" stroke="#807357" d="M7.5,0.5 C7.5,-0.0510643379 7.93757254,-0.5 8.49047852,-0.5 L11.5095215,-0.5 C12.0581886,-0.5 12.5,-0.0418544904 12.5,0.503422737 L12.5,6.49657726 C12.5,7.04911326 12.0487822,7.5 11.4996527,7.5 L0.500347316,7.5 C-0.0484822441,7.5 -0.5,7.05189486 -0.5,6.50899482 L-0.5,1.49100518 C-0.5,0.942737247 -0.0445587046,0.5 0.500435829,0.5 L7.5,0.5 Z"/>
      <rect width="12.5" height="6.5" x="-.25" y="1.75" fill="#E6CFA1" stroke="#807355" stroke-width=".5" rx=".5"/>
    </g>
    <g transform="translate(0 7)">
      <path fill="#A67553" stroke="#402D1F" d="M0.5,1.50167562 L0.5,5.49832438 C0.5,6.05195232 0.949345823,6.5 1.50524116,6.5 L14.4947588,6.5 C15.054299,6.5 15.5,6.05396507 15.5,5.49832438 L15.5,1.50167562 C15.5,0.948047677 15.0506542,0.5 14.4947588,0.5 L1.50524116,0.5 C0.945700962,0.5 0.5,0.946034932 0.5,1.50167562 Z"/>
      <rect width="4.5" height="1" x="5.75" y="3.25" fill="#A67553" stroke="#FFE6B3" stroke-linejoin="square" stroke-width=".5" rx=".5"/>
      <rect width="6" height="2" x="5" y="2.5" stroke="#725138" rx="1"/>
    </g>
  </g>
</svg>