<svg xmlns="http://www.w3.org/2000/svg" width="18" height="18" viewBox="0 0 18 18">
  <g fill="#FFF" fill-rule="evenodd">
    <path d="M10 2L4 2 4 2C3.44771525 2 3 2.44771525 3 3L3 5 15 5 15 2 15 2C15 1.44771525 14.5522847 1 14 1L11 1 11 1C10.4477153 1 10 1.44771525 10 2L10 2zM2.25 6L15.75 6C16.9926407 6 18 7.00735931 18 8.25L18 13.75C18 14.9926407 16.9926407 16 15.75 16L2.25 16C1.00735931 16 1.52179594e-16 14.9926407 0 13.75L0 8.25 0 8.25C-1.52179594e-16 7.00735931 1.00735931 6 2.25 6L2.25 6zM7 8C6.44771525 8 6 8.44771525 6 9 6 9.55228475 6.44771525 10 7 10L11 10C11.5522847 10 12 9.55228475 12 9 12 8.44771525 11.5522847 8 11 8L7 8z"/>
  </g>
</svg>
