<svg xmlns="http://www.w3.org/2000/svg" xmlns:xlink="http://www.w3.org/1999/xlink" width="32" height="32" viewBox="0 0 32 32">
  <defs>
    <path id="type-unknown-32-a" d="M31.4462891,8.16943359 C31.7520952,8.62814275 31.5476379,9 31.0072136,9 L0,9 L6,0 L26,0 L31.4462891,8.16943359 Z"/>
    <path id="type-unknown-32-d" d="M0.996954043,1.51716304 C0.996954043,0.964639637 1.4358718,0.516730924 2.00002459,0.516730924 L22.9938835,0.516730924 C23.5478641,0.516730924 23.996954,0.967544553 23.996954,1.51716304 L23.996954,11.0162988 C23.996954,11.5688222 23.5580363,12.0167309 22.9938835,12.0167309 L2.00002459,12.0167309 C1.44604403,12.0167309 0.996954043,11.5659173 0.996954043,11.0162988 L0.996954043,1.51716304 Z"/>
    <filter id="type-unknown-32-c" width="108.7%" height="113%" x="-6.5%" y="-8.7%" filterUnits="objectBoundingBox">
      <feOffset dx="-1" dy="-.5" in="SourceAlpha" result="shadowOffsetOuter1"/>
      <feComposite in="shadowOffsetOuter1" in2="SourceAlpha" operator="out" result="shadowOffsetOuter1"/>
      <feColorMatrix in="shadowOffsetOuter1" values="0 0 0 0 0   0 0 0 0 0   0 0 0 0 0  0 0 0 0.6 0"/>
    </filter>
    <rect id="type-unknown-32-e" width="8" height="2" x="12" y="6" rx="1"/>
  </defs>
  <g fill="none" fill-rule="evenodd">
    <g transform="translate(0 9)">
      <mask id="type-unknown-32-b" fill="#fff">
        <use xlink:href="#type-unknown-32-a"/>
      </mask>
      <path stroke="#402D1E" d="M25.7324081,0.5 L6.26759188,0.5 L0.934258546,8.5 L31.0072136,8.5 C31.1510133,8.5 31.1130413,8.57094976 31.0302639,8.44678369 L25.7324081,0.5 Z"/>
      <polygon fill="#332114" fill-opacity=".5" points="2.133 1 7 1 7 10 2.133 10" mask="url(#type-unknown-32-b)"/>
      <rect width="4.867" height="9" x="25" y="1" fill="#332114" fill-opacity=".5" mask="url(#type-unknown-32-b)"/>
    </g>
    <g transform="rotate(10 -14.425 32.594)">
      <path fill="#D9C398" fill-rule="nonzero" stroke="#807357" d="M14.8344756,0.944444444 C14.8656558,0.143506052 15.5311779,-0.5 16.3356161,-0.5 L21.9977172,-0.5 C22.8268632,-0.5 23.5,0.17080417 23.5,0.998502329 L23.5,12.0014977 C23.5,12.832344 22.8339877,13.5 21.9969294,13.5 L1.00307055,13.5 C0.169678438,13.5 -0.5,12.8340175 -0.5,11.9947349 L-0.5,2.44970956 C-0.5,1.61610608 0.168470592,0.944444444 1.00606283,0.944444444 L14.8344756,0.944444444 Z"/>
      <path fill="#E6CFA1" stroke="#807355" stroke-width=".5" d="M0.25,3.55598767 L0.25,13.0551234 C0.25,13.4676387 0.588129824,13.8055556 1.00307055,13.8055556 L21.9969294,13.8055556 C22.4192513,13.8055556 22.75,13.4733497 22.75,13.0551234 L22.75,3.55598767 C22.75,3.14347237 22.4118702,2.80555556 21.9969294,2.80555556 L1.00307055,2.80555556 C0.580748743,2.80555556 0.25,3.13776138 0.25,3.55598767 Z"/>
    </g>
    <g transform="rotate(-5 140.47 -45.26)">
      <use fill="#000" filter="url(#type-unknown-32-c)" xlink:href="#type-unknown-32-d"/>
      <path fill="#EDEFF2" stroke="#737680" stroke-linejoin="square" stroke-width=".5" d="M1.24695404,1.51716304 L1.24695404,11.0162988 C1.24695404,11.4288141 1.58508387,11.7667309 2.00002459,11.7667309 L22.9938835,11.7667309 C23.4162053,11.7667309 23.746954,11.4345251 23.746954,11.0162988 L23.746954,1.51716304 C23.746954,1.10464774 23.4088242,0.766730924 22.9938835,0.766730924 L2.00002459,0.766730924 C1.57770279,0.766730924 1.24695404,1.09893674 1.24695404,1.51716304 Z"/>
      <path stroke="#737680" stroke-linecap="round" stroke-opacity=".6" stroke-width=".51" d="M20.255 2.5L20.255 10.5M18.255 2.5L18.255 10.5M19.255 2.5L19.255 10.5M16.255 2.5L16.255 10.5M17.255 2.5L17.255 10.5M14.255 2.5L14.255 10.5M15.255 2.5L15.255 10.5M12.255 2.5L12.255 10.5M13.255 2.5L13.255 10.5M8.255 2.5L8.255 10.5M7.255 2.5L7.255 10.5M6.255 2.5L6.255 10.5M5.255 2.5L5.255 10.5"/>
    </g>
    <g transform="translate(0 15)">
      <rect width="31" height="13" x=".5" y=".5" fill="#805332" stroke="#402D1F" rx="3"/>
      <rect width="28" height="10" x="2" y="2" fill="#A67553" rx="2"/>
      <use fill="#B39B6B" xlink:href="#type-unknown-32-e"/>
      <rect width="8.5" height="2.5" x="11.75" y="5.75" stroke="#402D1E" stroke-opacity=".5" stroke-width=".5" rx="1.25"/>
      <rect width="7.5" height="1.5" x="12.25" y="6.25" stroke="#FFE6B3" stroke-linejoin="square" stroke-width=".5" rx=".75"/>
    </g>
  </g>
</svg>