<svg xmlns="http://www.w3.org/2000/svg" xmlns:xlink="http://www.w3.org/1999/xlink" width="60" height="60" viewBox="0 0 60 60">
  <defs>
    <path id="001-large-unmasked-a" d="M26,32.0644804 C23.036563,30.5917778 21,27.5337213 21,24 C21,19.0294373 25.0294373,15 30,15 C34.9705627,15 39,19.0294373 39,24 C39,27.5337213 36.963437,30.5917778 34,32.0644804 L34,46 L26,46 L26,32.0644804 Z"/>
    <path id="001-large-unmasked-b" d="M12,16 C9.790861,16 8,14.209139 8,12 C8,9.790861 9.790861,8 12,8 C14.209139,8 16,9.790861 16,12 C16,14.209139 14.209139,16 12,16 Z M48,16 C45.790861,16 44,14.209139 44,12 C44,9.790861 45.790861,8 48,8 C50.209139,8 52,9.790861 52,12 C52,14.209139 50.209139,16 48,16 Z M48,52 C45.790861,52 44,50.209139 44,48 C44,45.790861 45.790861,44 48,44 C50.209139,44 52,45.790861 52,48 C52,50.209139 50.209139,52 48,52 Z M12,52 C9.790861,52 8,50.209139 8,48 C8,45.790861 9.790861,44 12,44 C14.209139,44 16,45.790861 16,48 C16,50.209139 14.209139,52 12,52 Z"/>
  </defs>
  <g fill="none" fill-rule="evenodd">
    <rect width="60" height="60" fill="#EDEFF2"/>
    <use fill="#B8BDCC" xlink:href="#001-large-unmasked-a"/>
    <path stroke="#5C5E66" d="M26.5,45.5 L33.5,45.5 L33.5,31.7546208 L33.7774837,31.6167232 C36.6468385,30.1907754 38.5,27.2615248 38.5,24 C38.5,19.3055796 34.6944204,15.5 30,15.5 C25.3055796,15.5 21.5,19.3055796 21.5,24 C21.5,27.2615248 23.3531615,30.1907754 26.2225163,31.6167232 L26.5,31.7546208 L26.5,45.5 Z"/>
    <g>
      <use fill="#D4D6D9" xlink:href="#001-large-unmasked-b"/>
      <path stroke="#707173" stroke-width=".5" d="M12,15.75 C14.0710678,15.75 15.75,14.0710678 15.75,12 C15.75,9.92893219 14.0710678,8.25 12,8.25 C9.92893219,8.25 8.25,9.92893219 8.25,12 C8.25,14.0710678 9.92893219,15.75 12,15.75 Z M48,15.75 C50.0710678,15.75 51.75,14.0710678 51.75,12 C51.75,9.92893219 50.0710678,8.25 48,8.25 C45.9289322,8.25 44.25,9.92893219 44.25,12 C44.25,14.0710678 45.9289322,15.75 48,15.75 Z M48,51.75 C50.0710678,51.75 51.75,50.0710678 51.75,48 C51.75,45.9289322 50.0710678,44.25 48,44.25 C45.9289322,44.25 44.25,45.9289322 44.25,48 C44.25,50.0710678 45.9289322,51.75 48,51.75 Z M12,51.75 C14.0710678,51.75 15.75,50.0710678 15.75,48 C15.75,45.9289322 14.0710678,44.25 12,44.25 C9.92893219,44.25 8.25,45.9289322 8.25,48 C8.25,50.0710678 9.92893219,51.75 12,51.75 Z"/>
    </g>
  </g>
</svg>
