<svg xmlns="http://www.w3.org/2000/svg" width="18" height="18" viewBox="0 0 18 18">
  <path fill="#FFF" fill-rule="evenodd" d="M7.85714286,9.58985153 L7.85714286,13.5714286 L10.1428571,13.5714286 L10.1428571,9.58985153 C10.9895534,9.16907936 11.5714286,8.29534893 11.5714286,7.28571429 C11.5714286,5.8655535 10.4201608,4.71428571 9,4.71428571 C7.57983921,4.71428571 6.42857143,5.8655535 6.42857143,7.28571429 C6.42857143,8.29534893 7.01044658,9.16907936 7.85714286,9.58985153 Z M4.5999999,1 L13.4000001,1 C15.3882251,1 17,2.61177486 17,4.5999999 L17,13.4000001 C17,15.3882251 15.3882251,17 13.4000001,17 L4.5999999,17 C2.61177486,17 1,15.3882251 1,13.4000001 L1,4.5999999 L1,4.5999999 C1,2.61177486 2.61177486,1 4.5999999,1 L4.5999999,1 Z"/>
</svg>
