<svg xmlns="http://www.w3.org/2000/svg" width="18" height="18" viewBox="0 0 18 18">
  <path fill="#FFF" fill-rule="evenodd" d="M2.25,2 L15.75,2 C16.9926407,2 18,3.00735931 18,4.25 L18,5 L0,5 L0,4.25 L0,4.25 C-1.52179594e-16,3.00735931 1.00735931,2 2.25,2 L2.25,2 Z M0,8 L18,8 L18,13.75 C18,14.9926407 16.9926407,16 15.75,16 L2.25,16 C1.00735931,16 1.52179594e-16,14.9926407 0,13.75 L0,8 Z M9,11.5 C9,12.3342028 9.67093534,13 10.498576,13 L13.501424,13 C14.3349702,13 15,12.3284271 15,11.5 C15,10.6657972 14.3290647,10 13.501424,10 L10.498576,10 C9.66502976,10 9,10.6715729 9,11.5 Z"/>
</svg>
