<svg xmlns="http://www.w3.org/2000/svg" xmlns:xlink="http://www.w3.org/1999/xlink" width="16" height="16" viewBox="0 0 16 16">
  <defs>
    <rect id="002-mastercard-mini-a" width="16" height="12" y="2" rx="2"/>
  </defs>
  <g fill="none" fill-rule="evenodd">
    <use fill="#EDEFF2" xlink:href="#002-mastercard-mini-a"/>
    <rect width="15" height="11" x=".5" y="2.5" stroke="#000" stroke-opacity=".4" rx="2"/>
    <path fill="#FF8066" d="M5.5,4.25 C3.42881647,4.25 1.75,5.92892857 1.75,8 C1.75,10.0705357 3.42881647,11.75 5.5,11.75 C7.57118353,11.75 9.25,10.0705357 9.25,8 C9.25,5.92892857 7.57118353,4.25 5.5,4.25 L5.5,4.25 Z"/>
    <path fill="#FFD580" d="M10.5,4.25 C8.42868876,4.25 6.75,5.92892857 6.75,8 C6.75,10.0705357 8.42868876,11.75 10.5,11.75 C12.5707756,11.75 14.25,10.0705357 14.25,8 C14.25,5.92892857 12.5707756,4.25 10.5,4.25 L10.5,4.25 Z"/>
    <path stroke="#000" stroke-opacity=".4" stroke-width=".5" d="M8.16670137,5.3910864 L7.99997601,5.54030717 L7.83324927,5.39108796 C7.19585763,4.82062711 6.37322302,4.5 5.5,4.5 C3.56692753,4.5 2,6.06695988 2,8 C2,9.93269495 3.56711805,11.5 5.5,11.5 C6.37317155,11.5 7.19580882,11.1792986 7.83323834,10.6087365 L7.99997601,10.4594899 L8.1667123,10.608738 C8.80413152,11.1793016 9.62677454,11.5 10.5,11.5 C12.4326191,11.5 14,9.93254985 14,8 C14,6.06710497 12.4328096,4.5 10.5,4.5 C9.62672308,4.5 8.80408271,4.82062409 8.16670137,5.3910864 Z"/>
    <path fill="#FF8066" d="M7.99997445,5.20480131 C8.76718984,5.89145346 9.25,6.88933863 9.25,8 C9.25,9.11037409 8.76718984,10.1082801 7.99997445,10.7950133 C7.23277344,10.1082801 6.75,9.11037409 6.75,8 C6.75,6.88933863 7.23277344,5.89145346 7.99997445,5.20480131 Z" opacity=".5"/>
  </g>
</svg>
