<svg xmlns="http://www.w3.org/2000/svg" xmlns:xlink="http://www.w3.org/1999/xlink" width="64" height="64" viewBox="0 0 64 64">
  <defs>
    <rect id="002-mastercard-large-a" width="64" height="48" y="8" rx="8"/>
  </defs>
  <g fill="none" fill-rule="evenodd">
    <use fill="#EDEFF2" xlink:href="#002-mastercard-large-a"/>
    <rect width="63" height="47" x=".5" y="8.5" stroke="#000" stroke-opacity=".4" rx="8"/>
    <path fill="#FF8066" d="M22,17 C13.7152659,17 7,23.7157143 7,32 C7,40.2821429 13.7152659,47 22,47 C30.2847341,47 37,40.2821429 37,32 C37,23.7157143 30.2847341,17 22,17 L22,17 Z"/>
    <path fill="#FFD580" d="M42,17 C33.714755,17 27,23.7157143 27,32 C27,40.2821429 33.714755,47 42,47 C50.2831024,47 57,40.2821429 57,32 C57,23.7157143 50.2831024,17 42,17 L42,17 Z"/>
    <path stroke="#000" stroke-opacity=".4" stroke-width=".5" d="M32.1666247,21.0054903 C34.8523855,18.6017091 38.3205294,17.25 42,17.25 C50.145443,17.25 56.75,23.8541972 56.75,32 C56.75,40.1444055 50.1446974,46.75 42,46.75 C38.3207068,46.75 34.8525429,45.3979743 32.1666357,42.9937781 L31.9998994,42.8445299 L31.8331617,42.9937765 C29.1472159,45.3979623 25.679078,46.75 22,46.75 C13.8542386,46.75 7.25,40.1449733 7.25,32 C7.25,23.8536294 13.8534931,17.25 22,17.25 C25.6792554,17.25 29.1473733,18.6017211 31.8331726,21.0054919 L31.9998994,21.1547111 L32.1666247,21.0054903 Z"/>
    <path fill="#FF8066" d="M31.9998978,20.8192052 C35.0687593,23.5658138 37,27.5573545 37,32 C37,36.4414963 35.0687593,40.4331204 31.9998978,43.1800534 C28.9310937,40.4331204 27,36.4414963 27,32 C27,27.5573545 28.9310937,23.5658138 31.9998978,20.8192052 Z" opacity=".5"/>
  </g>
</svg>
