<svg xmlns="http://www.w3.org/2000/svg" xmlns:xlink="http://www.w3.org/1999/xlink" width="16" height="16" viewBox="0 0 16 16">
  <defs>
    <rect id="002-discover-mini-a" width="16" height="12" rx="2"/>
    <path id="002-discover-mini-c" d="M4,12 L14.7368421,12 C15.4341053,12 16,11.4026667 16,10.6666667 L16,8 L4,12 L4,12 Z"/>
  </defs>
  <g fill="none" fill-rule="evenodd" transform="translate(0 2)">
    <mask id="002-discover-mini-b" fill="#fff">
      <use xlink:href="#002-discover-mini-a"/>
    </mask>
    <use fill="#EDEFF2" xlink:href="#002-discover-mini-a"/>
    <g mask="url(#002-discover-mini-b)">
      <use fill="#FFBF80" xlink:href="#002-discover-mini-c"/>
      <path stroke="#CC8F52" stroke-width=".5" d="M2.45943058,12.25 L16.25,7.65314353 L16.25,10.6666667 C16.25,11.5378056 15.5752896,12.25 14.7368421,12.25 L2.45943058,12.25 Z"/>
    </g>
    <path fill="#000" fill-opacity=".5" d="M3.28524468,3.99959681 L1.998,3.9991976 L1.998,7.998 L3.28524468,7.99161277 C3.9155832,7.99161277 4.2721037,7.85428743 4.67190373,7.53612375 C5.14669304,7.15847904 5.42779574,6.58442715 5.42779574,5.99560479 C5.42779574,4.81516567 4.60205656,3.99959681 3.28524468,3.99959681 L3.28524468,3.99959681 Z M4.14183659,7.00199202 C3.88515898,7.22474651 3.28524468,7.19320958 3.28524468,7.19320958 L2.85673447,7.19320958 L2.85673447,4.798 L3.28524468,4.798 C3.28524468,4.798 3.87273218,4.76646307 4.14183659,4.99999601 C4.42293929,5.23951697 4.57077532,5.61197206 4.57077532,5.99560479 C4.57077532,6.37963673 4.42293929,6.76366866 4.14183659,7.00199202 Z M5.85159234,3.9991976 L6.70732724,3.9991976 L6.70732724,7.998 L5.85159234,7.998 L5.85159234,3.9991976 Z M8.89101528,5.53332934 C9.85216369,5.84390818 10.137123,6.12015569 10.137123,6.73013573 C10.137123,7.47145309 9.5209253,7.98961677 8.64462191,7.98961677 C8.00099957,7.98961677 7.53349493,7.76486627 7.14526468,7.25947705 L7.68947265,6.79320958 C7.88444479,7.12654291 8.20882702,7.30458683 8.61119811,7.30458683 C8.9882871,7.30458683 9.26767576,7.07504591 9.26767576,6.76406786 C9.26767576,6.60279042 9.18283074,6.46586427 9.01399771,6.36805988 C8.9295812,6.32055489 8.76117669,6.25229142 8.42993829,6.14929741 C7.63762291,5.89540519 7.36509042,5.62514571 7.36509042,5.09580439 C7.36509042,4.46985629 7.95000686,3.998 8.7153261,3.998 C9.18925839,3.998 9.62419626,4.14131337 9.98800143,4.42434731 L9.54663591,4.93492615 C9.32552464,4.71696208 9.11769719,4.62514571 8.86444765,4.62514571 C8.50064248,4.62514571 8.23496615,4.80877844 8.23496615,5.05069461 C8.23496615,5.25668263 8.3840877,5.36686228 8.89101528,5.53332934 Z M10.5699183,5.99560479 C10.5699183,4.63592415 11.8421651,3.99959681 12.7124694,3.99959681 C13.5827736,3.99959681 13.998,4.3987984 13.998,4.3987984 L13.998,5.1972016 C13.998,5.1972016 13.556206,4.798 12.7124694,4.798 C12.256963,4.798 11.4269387,5.26227146 11.4269387,5.99560479 C11.4269387,6.76965669 12.2809596,7.19320958 12.7124694,7.19320958 C13.5613481,7.19320958 13.998,6.79400798 13.998,6.79400798 L13.998,7.59241118 C13.998,7.59241118 13.5544919,7.99161277 12.7124694,7.99161277 C11.8738749,7.99161277 10.5699183,7.35528543 10.5699183,5.99560479 Z" mask="url(#002-discover-mini-b)"/>
    <rect width="15" height="11" x=".5" y=".5" stroke="#000" stroke-opacity=".4" mask="url(#002-discover-mini-b)" rx="2"/>
  </g>
</svg>
