<svg xmlns="http://www.w3.org/2000/svg" xmlns:xlink="http://www.w3.org/1999/xlink" width="64" height="64" viewBox="0 0 64 64">
  <defs>
    <rect id="002-amex-large-a" width="64" height="48" rx="8"/>
  </defs>
  <g fill="none" fill-rule="evenodd" transform="translate(0 8)">
    <mask id="002-amex-large-b" fill="#fff">
      <use xlink:href="#002-amex-large-a"/>
    </mask>
    <use fill="#6DC6F2" xlink:href="#002-amex-large-a"/>
    <rect width="63" height="47" x=".5" y=".5" stroke="#000" stroke-opacity=".4" rx="8"/>
    <g mask="url(#002-amex-large-b)">
      <g transform="translate(4 16)">
        <polygon fill="#000" fill-opacity=".4" stroke="#000" stroke-linecap="square" stroke-opacity=".4" points="6.322 0 0 15.977 7.57 15.977 8.506 13.43 10.652 13.43 11.588 15.977 19.918 15.977 19.918 14.035 20.658 15.977 24.968 15.977 25.71 13.992 25.71 15.977 43.032 15.977 45.138 13.494 47.108 15.977 56.002 16 49.664 8.033 56.002 0 47.244 0 45.196 2.44 43.284 0 24.442 0 22.824 4.126 21.164 0 13.616 0 13.616 1.88 12.778 0"/>
        <path fill="#FFF" d="M6.322,0 L0,15.9771526 L7.57,15.9771526 L8.506,13.429673 L10.652,13.429673 L11.588,15.9771526 L19.918,15.9771526 L19.918,14.0351278 L20.658,15.9771526 L24.968,15.9771526 L25.71,13.9917178 L25.71,15.9771526 L43.032,15.9771526 L45.138,13.4936456 L47.108,15.9771526 L56.002,16 L49.664,8.03312866 L56.002,0 L47.244,0 L45.196,2.4400971 L43.284,0 L24.442,0 L22.824,4.12623162 L21.164,0 L13.616,0 L13.616,1.880337 L12.778,0 L6.322,0 L6.322,0 Z M7.784,2.26874197 L11.47,2.26874197 L15.664,13.1052406 L15.664,2.26874197 L19.702,2.26874197 L22.94,10.0414108 L25.924,2.26874197 L29.942,2.26874197 L29.942,13.7335428 L27.504,13.7335428 L27.484,4.7499643 L23.914,13.7335428 L21.73,13.7335428 L18.142,4.7499643 L18.142,13.7335428 L13.11,13.7335428 L12.154,11.1632158 L7.004,11.1632158 L6.048,13.7335428 L3.356,13.7335428 L7.784,2.26874197 L7.784,2.26874197 Z M32.186,2.26874197 L42.134,2.26874197 L45.176,6.02484649 L48.316,2.26874197 L51.36,2.26874197 L46.738,8.03312866 L51.36,13.7335428 L48.18,13.7335428 L45.138,9.93402827 L41.978,13.7335428 L32.186,13.7335428 L32.186,2.26874197 L32.186,2.26874197 Z M9.58,4.21076681 L7.882,8.78937598 L11.276,8.78937598 L9.58,4.21076681 L9.58,4.21076681 Z M34.644,4.64258175 L34.644,6.73768385 L40.066,6.73768385 L40.066,9.06811367 L34.644,9.06811367 L34.644,11.3574182 L40.73,11.3574182 L43.558,7.98971869 L40.846,4.64258175 L34.644,4.64258175 L34.644,4.64258175 Z"/>
      </g>
    </g>
  </g>
</svg>
