<svg xmlns="http://www.w3.org/2000/svg" xmlns:xlink="http://www.w3.org/1999/xlink" width="64" height="64" viewBox="0 0 64 64">
  <defs>
    <rect id="002-discover-large-a" width="64" height="48" rx="8"/>
    <path id="002-discover-large-c" d="M16,48 L58.9473684,48 C61.7364211,48 64,45.6106667 64,42.6666667 L64,32 L16,48 L16,48 Z"/>
  </defs>
  <g fill="none" fill-rule="evenodd" transform="translate(0 8)">
    <mask id="002-discover-large-b" fill="#fff">
      <use xlink:href="#002-discover-large-a"/>
    </mask>
    <use fill="#EDEFF2" xlink:href="#002-discover-large-a"/>
    <g mask="url(#002-discover-large-b)">
      <use fill="#FFBF80" xlink:href="#002-discover-large-c"/>
      <path stroke="#CC8F52" stroke-width=".5" d="M14.4594306,48.25 L64.25,31.6531435 L64.25,42.6666667 C64.25,45.7458056 61.8776053,48.25 58.9473684,48.25 L14.4594306,48.25 Z"/>
    </g>
    <path fill="#000" fill-opacity=".5" d="M13.1409787,15.9983872 L7.992,15.9967904 L7.992,31.992 L13.1409787,31.9664511 C15.6623328,31.9664511 17.0884148,31.4171497 18.6876149,30.144495 C20.5867722,28.6339162 21.711183,26.3377086 21.711183,23.9824192 C21.711183,19.2606627 18.4082263,15.9983872 13.1409787,15.9983872 L13.1409787,15.9983872 Z M16.5673464,28.0079681 C15.5406359,28.898986 13.1409787,28.7728383 13.1409787,28.7728383 L11.4269379,28.7728383 L11.4269379,19.192 L13.1409787,19.192 C13.1409787,19.192 15.4909287,19.0658523 16.5673464,19.999984 C17.6917572,20.9580679 18.2831013,22.4478882 18.2831013,23.9824192 C18.2831013,25.5185469 17.6917572,27.0546747 16.5673464,28.0079681 Z M23.4063694,15.9967904 L26.829309,15.9967904 L26.829309,31.992 L23.4063694,31.992 L23.4063694,15.9967904 Z M35.5640611,22.1333174 C39.4086548,23.3756327 40.5484919,24.4806228 40.5484919,26.9205429 C40.5484919,29.8858124 38.0837012,31.9584671 34.5784876,31.9584671 C32.0039983,31.9584671 30.1339797,31.0594651 28.5810587,29.0379082 L30.7578906,27.1728383 C31.5377792,28.5061717 32.8353081,29.2183473 34.4447925,29.2183473 C35.9531484,29.2183473 37.070703,28.3001836 37.070703,27.0562715 C37.070703,26.4111617 36.731323,25.8634571 36.0559909,25.4722395 C35.7183248,25.2822196 35.0447068,25.0091657 33.7197532,24.5971896 C30.5504916,23.5816208 29.4603617,22.5005828 29.4603617,20.3832176 C29.4603617,17.8794251 31.8000274,15.992 34.8613044,15.992 C36.7570336,15.992 38.496785,16.5652535 39.9520057,17.6973892 L38.1865436,19.7397046 C37.3020986,18.8678483 36.4707887,18.5005828 35.4577906,18.5005828 C34.0025699,18.5005828 32.9398646,19.2351138 32.9398646,20.2027784 C32.9398646,21.0267305 33.5363508,21.4674491 35.5640611,22.1333174 Z M42.2796732,23.9824192 C42.2796732,18.5436966 47.3686605,15.9983872 50.8498774,15.9983872 C54.3310944,15.9983872 55.992,17.5951936 55.992,17.5951936 L55.992,20.7888064 C55.992,20.7888064 54.2248239,19.192 50.8498774,19.192 C49.027852,19.192 45.7077549,21.0490858 45.7077549,23.9824192 C45.7077549,27.0786267 49.1238383,28.7728383 50.8498774,28.7728383 C54.2453924,28.7728383 55.992,27.1760319 55.992,27.1760319 L55.992,30.3696447 C55.992,30.3696447 54.2179677,31.9664511 50.8498774,31.9664511 C47.4954995,31.9664511 42.2796732,29.4211417 42.2796732,23.9824192 Z" mask="url(#002-discover-large-b)"/>
    <rect width="63" height="47" x=".5" y=".5" stroke="#000" stroke-opacity=".4" mask="url(#002-discover-large-b)" rx="8"/>
  </g>
</svg>
