<svg xmlns="http://www.w3.org/2000/svg" xmlns:xlink="http://www.w3.org/1999/xlink" width="32" height="32" viewBox="0 0 32 32">
  <defs>
    <rect id="002-discover-medium-a" width="32" height="24" rx="4"/>
    <path id="002-discover-medium-c" d="M8,24 L29.4736842,24 C30.8682105,24 32,22.8053333 32,21.3333333 L32,16 L8,24 L8,24 Z"/>
  </defs>
  <g fill="none" fill-rule="evenodd" transform="translate(0 4)">
    <mask id="002-discover-medium-b" fill="#fff">
      <use xlink:href="#002-discover-medium-a"/>
    </mask>
    <use fill="#EDEFF2" xlink:href="#002-discover-medium-a"/>
    <g mask="url(#002-discover-medium-b)">
      <use fill="#FFBF80" xlink:href="#002-discover-medium-c"/>
      <path stroke="#CC8F52" stroke-width=".5" d="M6.45943058,24.25 L32.25,15.6531435 L32.25,21.3333333 C32.25,22.9404723 31.0093948,24.25 29.4736842,24.25 L6.45943058,24.25 Z"/>
    </g>
    <path fill="#000" fill-opacity=".5" d="M6.57048936,7.99919361 L3.996,7.99839521 L3.996,15.996 L6.57048936,15.9832255 C7.8311664,15.9832255 8.5442074,15.7085749 9.34380746,15.0722475 C10.2933861,14.3169581 10.8555915,13.1688543 10.8555915,11.9912096 C10.8555915,9.63033134 9.20411313,7.99919361 6.57048936,7.99919361 L6.57048936,7.99919361 Z M8.28367319,14.003984 C7.77031795,14.449493 6.57048936,14.3864192 6.57048936,14.3864192 L5.71346893,14.3864192 L5.71346893,9.596 L6.57048936,9.596 C6.57048936,9.596 7.74546436,9.53292615 8.28367319,9.99999202 C8.84587859,10.4790339 9.14155064,11.2239441 9.14155064,11.9912096 C9.14155064,12.7592735 8.84587859,13.5273373 8.28367319,14.003984 Z M11.7031847,7.99839521 L13.4146545,7.99839521 L13.4146545,15.996 L11.7031847,15.996 L11.7031847,7.99839521 Z M17.7820306,11.0666587 C19.7043274,11.6878164 20.274246,12.2403114 20.274246,13.4602715 C20.274246,14.9429062 19.0418506,15.9792335 17.2892438,15.9792335 C16.0019991,15.9792335 15.0669899,15.5297325 14.2905294,14.5189541 L15.3789453,13.5864192 C15.7688896,14.2530858 16.417654,14.6091737 17.2223962,14.6091737 C17.9765742,14.6091737 18.5353515,14.1500918 18.5353515,13.5281357 C18.5353515,13.2055808 18.3656615,12.9317285 18.0279954,12.7361198 C17.8591624,12.6411098 17.5223534,12.5045828 16.8598766,12.2985948 C15.2752458,11.7908104 14.7301808,11.2502914 14.7301808,10.1916088 C14.7301808,8.93971257 15.9000137,7.996 17.4306522,7.996 C18.3785168,7.996 19.2483925,8.28262675 19.9760029,8.84869461 L19.0932718,9.8698523 C18.6510493,9.43392415 18.2353944,9.25029142 17.7288953,9.25029142 C17.001285,9.25029142 16.4699323,9.61755689 16.4699323,10.1013892 C16.4699323,10.5133653 16.7681754,10.7337246 17.7820306,11.0666587 Z M21.1398366,11.9912096 C21.1398366,9.2718483 23.6843302,7.99919361 25.4249387,7.99919361 C27.1655472,7.99919361 27.996,8.79759681 27.996,8.79759681 L27.996,10.3944032 C27.996,10.3944032 27.1124119,9.596 25.4249387,9.596 C24.513926,9.596 22.8538774,10.5245429 22.8538774,11.9912096 C22.8538774,13.5393134 24.5619192,14.3864192 25.4249387,14.3864192 C27.1226962,14.3864192 27.996,13.588016 27.996,13.588016 L27.996,15.1848224 C27.996,15.1848224 27.1089839,15.9832255 25.4249387,15.9832255 C23.7477498,15.9832255 21.1398366,14.7105709 21.1398366,11.9912096 Z" mask="url(#002-discover-medium-b)"/>
    <rect width="31" height="23" x=".5" y=".5" stroke="#000" stroke-opacity=".4" mask="url(#002-discover-medium-b)" rx="4"/>
  </g>
</svg>
