<svg xmlns="http://www.w3.org/2000/svg" xmlns:xlink="http://www.w3.org/1999/xlink" width="64" height="64" viewBox="0 0 64 64">
  <defs>
    <rect id="004-large-a" width="64" height="48" y="8" rx="8"/>
    <path id="004-large-b" d="M36,46 C36,44.8954305 36.8945138,44 37.9940603,44 L50.0059397,44 C51.1072288,44 52,44.8877296 52,46 C52,47.1045695 51.1054862,48 50.0059397,48 L37.9940603,48 C36.8927712,48 36,47.1122704 36,46 Z M36,40 C36,38.8954305 36.8867064,38 37.9981014,38 L42.0018986,38 C43.1054196,38 44,38.8877296 44,40 C44,41.1045695 43.1132936,42 42.0018986,42 L37.9981014,42 C36.8945804,42 36,41.1122704 36,40 Z M36,34 C36,32.8954305 36.9019504,32 38.0085302,32 L45.9914698,32 C47.1007504,32 48,32.8877296 48,34 C48,35.1045695 47.0980496,36 45.9914698,36 L38.0085302,36 C36.8992496,36 36,35.1122704 36,34 Z M36,26 C36,24.8954305 36.8982124,24 37.9907951,24 L54.0092049,24 C55.1086907,24 56,24.8877296 56,26 C56,27.1045695 55.1017876,28 54.0092049,28 L37.9907951,28 C36.8913093,28 36,27.1122704 36,26 Z"/>
    <rect id="004-large-c" width="20" height="32" rx="4"/>
    <path id="004-large-e" d="M7.27606174,19.9105128 C4.70234293,22.0598421 0.137237528,21.8138596 0.137237528,25.3899705 L0,32.6159662 L19.9579633,32.6159662 L20,25.3824786 C20,23.6768335 19.441571,22.8527298 18.0856807,22.1185282 C17.1926065,21.6348875 13.6928435,20.3558618 13.0128377,19.7502704 C12.3324198,19.144679 12.2912073,18.2335865 12.2858497,17.6413139 C12.7235261,17.1181329 12.7948237,16.8209561 12.9980012,15.685108 L13.1570813,15.7100809 C13.3606709,15.7421293 13.5086237,15.6613838 13.6005275,15.514044 C13.7282862,15.3105154 13.6557522,15.1902295 13.6557522,14.961728 C13.6557522,14.6042002 13.7402378,14.2799695 13.8778874,14.0423112 C14.0938408,13.668551 14.2224237,13.0554678 13.687898,12.8956416 C13.3672649,12.7999124 13.4789507,12.5489353 13.7385893,12.0286678 C13.9739125,11.5579297 14.5245111,11.0751214 14.5245111,10.4990812 C14.5245111,9.9729867 14.3938676,9.96299756 14.3398792,9.57134016 C14.292897,9.22796359 14.302788,9.20090968 14.1535989,8.88042488 C14.1086773,8.86710603 13.9388819,8.9848946 13.9446517,9.01860794 C13.9446517,8.46878921 13.7736199,8.47794591 13.5234602,8.14539091 C13.5205753,8.14913683 13.5531332,8.30355224 13.5531332,8.30396845 C13.6388551,8.57325893 13.3355313,8.79843071 13.2864885,8.71518791 C13.1855179,8.54454016 13.0363288,8.29689281 12.9419522,8.1245802 C12.7375384,7.75248486 12.379402,7.40785965 11.9833502,7.23596326 C11.6639535,7.09694777 11.4459395,7.07946678 11.1788827,6.98873212 C10.8648437,6.88259755 10.3060026,6.71444708 9.89346576,6.64993391 C9.22376311,6.54421554 9.35069752,6.68905802 8.87592986,7.03160217 C8.60433967,7.22805519 8.15512374,7.29797915 7.9976921,7.26260095 C7.99357085,7.23471461 8.19015434,7.02119682 8.21240907,6.99289426 C8.13039626,6.94794315 7.38321416,7.22680655 7.39928702,7.31920606 C7.39928702,7.09944506 7.65109522,7.01453739 7.82171485,6.82599244 C7.81099961,6.8160033 7.71208968,6.81766816 7.70096231,6.82224651 C7.17467906,7.04117509 6.7234025,6.98540241 6.42584846,7.61679909 C6.17321602,8.15288276 6.11757918,8.33643314 6.40936347,8.83339269 C6.54701313,9.06730498 6.23585897,9.3320171 6.09697294,9.38987085 C5.74707907,9.53637819 5.51711348,9.73199878 5.42603392,9.15595856 C5.40501556,9.16428284 5.0604793,9.49017843 5.13919512,9.61962099 C5.39883369,10.0470728 5.45282202,10.088278 5.22780193,10.5332108 C5.06666117,10.8520307 4.96857549,10.9677382 5.17010447,11.2266233 C5.39965794,11.5213029 5.77304292,11.6886209 5.92305632,11.8925658 C6.17486451,12.2346937 6.43903645,12.9688953 6.06565147,13.1112405 C5.66176925,13.2652397 5.66218138,13.6652213 5.88349234,14.0722787 C6.01083888,14.3070234 6.08873045,14.6191839 6.08873045,14.961728 C6.08873045,15.078268 6.08419708,15.09783 6.11098518,15.2131213 C6.16002802,15.531525 6.32941128,15.7279781 6.65622617,15.7017566 L6.74854211,15.6688757 C6.84003379,16.8559181 7.16561231,17.4190556 7.66345896,17.8889613 C7.64202848,18.4383638 7.74299903,19.376094 7.27606174,19.9105128 Z"/>
    <rect id="004-large-f" width="12" height="20" x="28" rx="6"/>
  </defs>
  <g fill="none" fill-rule="evenodd">
    <use fill="#EDEFF2" xlink:href="#004-large-a"/>
    <rect width="63" height="47" x=".5" y="8.5" stroke="#000" stroke-opacity=".4" rx="8"/>
    <use fill="#B8BDCC" xlink:href="#004-large-b"/>
    <path stroke="#5C5E66" stroke-width=".5" d="M36.25,46 C36.25,46.9715569 37.028201,47.75 37.9940603,47.75 L50.0059397,47.75 C50.967884,47.75 51.75,46.9660276 51.75,46 C51.75,45.0284431 50.971799,44.25 50.0059397,44.25 L37.9940603,44.25 C37.032116,44.25 36.25,45.0339724 36.25,46 Z M36.25,40 C36.25,40.9714435 37.0298916,41.75 37.9981014,41.75 L42.0018986,41.75 C42.9722969,41.75 43.75,40.9694331 43.75,40 C43.75,39.0285565 42.9701084,38.25 42.0018986,38.25 L37.9981014,38.25 C37.0277031,38.25 36.25,39.0305669 36.25,40 Z M36.25,34 C36.25,34.9711508 37.0342569,35.75 38.0085302,35.75 L45.9914698,35.75 C46.9612005,35.75 47.75,34.9652794 47.75,34 C47.75,33.0288492 46.9657431,32.25 45.9914698,32.25 L38.0085302,32.25 C37.0387995,32.25 36.25,33.0347206 36.25,34 Z M36.25,26 C36.25,26.9716485 37.0268353,27.75 37.9907951,27.75 L54.0092049,27.75 C54.9659761,27.75 55.75,26.964233 55.75,26 C55.75,25.0283515 54.9731647,24.25 54.0092049,24.25 L37.9907951,24.25 C37.0340239,24.25 36.25,25.035767 36.25,26 Z"/>
    <g transform="translate(8 16)">
      <mask id="004-large-d" fill="#fff">
        <use xlink:href="#004-large-c"/>
      </mask>
      <use fill="#79BF73" xlink:href="#004-large-c"/>
      <rect width="19.5" height="31.5" x=".25" y=".25" stroke="#395936" stroke-width=".5" rx="4"/>
      <g mask="url(#004-large-d)">
        <use fill="#395936" xlink:href="#004-large-e"/>
        <path stroke="#EDEFF2" stroke-width=".5" d="M7.09988946,19.7318758 C7.26413239,19.5354201 7.35451802,19.249011 7.38983159,18.8616531 C7.40639891,18.6799245 7.40988587,18.5291139 7.40975584,18.2135276 C7.40971447,18.1131347 7.40989514,18.0464698 7.41068179,17.9917392 C6.90216295,17.4806926 6.6306898,16.8892034 6.52416799,15.9510601 C6.15911134,15.9201368 5.92672149,15.6584984 5.86747208,15.2697019 C5.85155307,15.2011893 5.84371614,15.1547622 5.84040989,15.1051873 C5.8384115,15.0752228 5.83818309,15.0508709 5.83859005,15.0001646 C5.83869625,14.9819423 5.83869625,14.9819423 5.83873045,14.961728 C5.83873045,14.6686615 5.77432666,14.3953301 5.66385527,14.191692 C5.35783008,13.6288198 5.43032597,13.0859314 5.9765962,12.87764 C6.06253043,12.8448794 5.96345139,12.369204 5.72166898,12.040698 C5.70354451,12.0160575 5.67421675,11.9863566 5.63176451,11.9504538 C5.57965866,11.9063866 5.33816626,11.7273746 5.33149111,11.7222364 C5.17968891,11.6053862 5.0675903,11.5018348 4.97283065,11.380191 C4.85851077,11.2333352 4.80282398,11.0972359 4.80717343,10.9472138 C4.81158806,10.7949438 4.77910191,10.8667532 5.00470966,10.4203842 C5.1035767,10.2248941 5.12567638,10.1513666 5.11758482,10.1042798 C5.10909142,10.0548546 5.09301705,10.0251574 4.92559031,9.74951704 C4.75594679,9.47055035 5.12821361,9.00501684 5.33397866,8.92352399 L5.62421397,8.80857687 L5.67296634,9.11691529 C5.69819195,9.27645671 5.71185948,9.29921599 5.68089301,9.2946699 C5.68832352,9.29576075 5.71272474,9.28660727 5.93372295,9.18815737 C5.96613857,9.17381893 5.96613857,9.17381893 6.00084094,9.15909252 C6.10023209,9.11769058 6.20522208,8.97942181 6.1937767,8.95997208 C5.87609711,8.41890833 5.88893545,8.1696699 6.19970263,7.51022488 C6.41689703,7.04934785 6.67142954,6.88073628 7.19962108,6.72519063 C7.44761448,6.65215975 7.49571897,6.63685738 7.60583709,6.59105137 C7.70065304,6.55203936 7.89646669,6.55389449 7.99218716,6.64312858 L8.10794655,6.75104367 C8.20336429,6.74058158 8.28314514,6.74657557 8.33256861,6.77366451 L8.58198587,6.91036978 C8.63748758,6.88611796 8.68839761,6.85870499 8.72965367,6.82886274 C8.84898193,6.74276758 9.0943981,6.51970567 9.11555863,6.50376436 C9.31269124,6.35525433 9.50741508,6.33589671 9.93209172,6.40293586 C10.3002152,6.46050361 10.8173301,6.60264787 11.259307,6.75202148 C11.3273789,6.77514943 11.3921892,6.7934513 11.491118,6.81854095 C11.5095803,6.8232113 11.5095803,6.8232113 11.5282992,6.82791762 C11.7846187,6.89232903 11.9022644,6.92801783 12.0828855,7.00663226 C12.521767,7.19711776 12.9253211,7.57508195 13.1612183,8.00448697 C13.1911093,8.05906196 13.2280795,8.12402074 13.273482,8.20200765 C13.2753776,8.18226244 13.2890633,8.1304315 13.3253909,7.99285059 L13.5257993,7.73262588 L13.7232456,7.99510522 C13.7813429,8.07233803 13.9932126,8.30227574 13.9574443,8.26124563 C14.0554528,8.37367213 14.1190823,8.48664896 14.1555195,8.63124319 C14.1798443,8.63130083 14.2031057,8.63434626 14.2246639,8.64073807 L14.380245,8.77491868 C14.4604667,8.94724921 14.4984166,9.0428971 14.5246537,9.14494801 C14.5381714,9.19752566 14.5479284,9.24949428 14.5580227,9.31858553 C14.5635223,9.35622807 14.5712437,9.41468485 14.5875374,9.53720152 C14.6018696,9.64117463 14.6196184,9.70750482 14.6563546,9.81108651 C14.6629613,9.82964119 14.6629613,9.82964119 14.6698797,9.84901763 C14.745387,10.0610316 14.7745111,10.2135302 14.7745111,10.4990812 C14.7745111,10.8771481 14.6322977,11.1614564 14.282689,11.6510302 C14.0689931,11.9502787 14.0233651,12.0181093 13.9622812,12.1403008 C13.8106067,12.4442285 13.7551487,12.5739635 13.7430458,12.6572908 C13.740434,12.6752722 13.7193355,12.644123 13.7595164,12.6561196 C14.4253035,12.8551936 14.4496353,13.5524788 14.0942211,14.1676099 C13.9756282,14.3723657 13.9057522,14.6557813 13.9057522,14.961728 C13.9057522,15.0023363 13.9082458,15.0373551 13.9146514,15.0986387 C13.9253768,15.2012513 13.9276444,15.2307976 13.9258862,15.2877568 C13.9220234,15.4129019 13.8871877,15.5276051 13.8126458,15.6463537 C13.6772986,15.8633417 13.4593589,15.9799619 13.2010899,15.9658741 C13.0128786,16.9829672 12.904941,17.2755845 12.5371346,17.7294832 C12.5542361,18.5925533 12.7064088,19.1428618 13.1791037,19.5635738 C13.4240962,19.7817563 14.1362182,20.135005 15.3022041,20.63672 C15.4251462,20.6896211 15.5541716,20.7446623 15.6931908,20.8035596 C15.9075058,20.894357 16.9160207,21.3169443 17.1642661,21.4227601 C17.6745678,21.6402786 18.00057,21.7881316 18.2047215,21.898689 C19.685316,22.7004166 20.25,23.6339767 20.2499958,25.3839315 L20.2065147,32.8659662 L-0.254793133,32.8659662 L-0.249954924,32.611219 L-0.112762472,25.3899705 C-0.112762472,23.3903004 0.910489988,22.5415774 3.69853093,21.4507963 C3.89106523,21.3756441 3.89106523,21.3756441 4.08430771,21.3003144 C4.23725297,21.2405954 4.35590132,21.1939046 4.47090013,21.1480346 C5.68843239,20.6623929 6.45263593,20.2684569 7.09988946,19.7318758 Z"/>
      </g>
    </g>
    <g>
      <use fill="#EDEFF2" fill-opacity=".7" xlink:href="#004-large-f"/>
      <rect width="11" height="19" x="28.5" y=".5" stroke="#000" stroke-opacity=".3" rx="5.5"/>
    </g>
  </g>
</svg>
