<svg xmlns="http://www.w3.org/2000/svg" xmlns:xlink="http://www.w3.org/1999/xlink" width="32" height="32" viewBox="0 0 32 32">
  <defs>
    <rect id="004-medium-a" width="32" height="24" y="4" rx="4"/>
    <path id="004-medium-b" d="M18,23 C18,22.4477153 18.4530363,22 18.9970301,22 L25.0029699,22 C25.5536144,22 26,22.4438648 26,23 C26,23.5522847 25.5469637,24 25.0029699,24 L18.9970301,24 C18.4463856,24 18,23.5561352 18,23 Z M18,20 C18,19.4477153 18.4433532,19 19.0093689,19 L20.9906311,19 C21.5480902,19 22,19.4438648 22,20 C22,20.5522847 21.5566468,21 20.9906311,21 L19.0093689,21 C18.4519098,21 18,20.5561352 18,20 Z M18,17 C18,16.4477153 18.4509752,16 18.990778,16 L23.009222,16 C23.5564136,16 24,16.4438648 24,17 C24,17.5522847 23.5490248,18 23.009222,18 L18.990778,18 C18.4435864,18 18,17.5561352 18,17 Z M18,13 C18,12.4477153 18.4556644,12 18.9953976,12 L27.0046024,12 C27.5543453,12 28,12.4438648 28,13 C28,13.5522847 27.5443356,14 27.0046024,14 L18.9953976,14 C18.4456547,14 18,13.5561352 18,13 Z"/>
    <rect id="004-medium-c" width="10" height="16" rx="2"/>
    <path id="004-medium-e" d="M3.63803087,9.95525641 C2.35117146,11.029921 0.068618764,10.9069298 0.068618764,12.6949852 L0,16.3079831 L9.97898164,16.3079831 L10,12.6912393 C10,11.8384168 9.72078551,11.4263649 9.04284036,11.0592641 C8.59630324,10.8174438 6.84642173,10.1779309 6.50641884,9.87513521 C6.1662099,9.5723395 6.14560366,9.11679325 6.14292485,8.82065697 C6.36176307,8.55906645 6.39741186,8.41047804 6.4990006,7.842554 L6.57854067,7.85504043 C6.68033547,7.87106467 6.75431185,7.8306919 6.80026376,7.75702202 C6.86414309,7.65525769 6.82787612,7.59511477 6.82787612,7.48086401 C6.82787612,7.30210009 6.8701189,7.13998473 6.93894372,7.02115562 C7.0469204,6.83427552 7.11121185,6.52773389 6.84394898,6.4478208 C6.68363247,6.39995619 6.73947537,6.27446766 6.86929465,6.01433389 C6.98695625,5.77896486 7.26225556,5.53756072 7.26225556,5.24954062 C7.26225556,4.98649335 7.19693379,4.98149878 7.16993962,4.78567008 C7.14644852,4.6139818 7.15139401,4.60045484 7.07679944,4.44021244 C7.05433864,4.43355301 6.96944095,4.4924473 6.97232583,4.50930397 C6.97232583,4.2343946 6.88680995,4.23897296 6.7617301,4.07269545 C6.76028766,4.07456842 6.77656659,4.15177612 6.77656659,4.15198423 C6.81942756,4.28662946 6.66776567,4.39921536 6.64324425,4.35759395 C6.59275897,4.27227008 6.5181644,4.14844641 6.47097612,4.0622901 C6.36876919,3.87624243 6.189701,3.70392982 5.99167508,3.61798163 C5.83197676,3.54847389 5.72296977,3.53973339 5.58944136,3.49436606 C5.43242185,3.44129877 5.1530013,3.35722354 4.94673288,3.32496695 C4.61188156,3.27210777 4.67534876,3.34452901 4.43796493,3.51580108 C4.30216984,3.6140276 4.07756187,3.64898957 3.99884605,3.63130048 C3.99678543,3.61735731 4.09507717,3.51059841 4.10620454,3.49644713 C4.06519813,3.47397157 3.69160708,3.61340327 3.69964351,3.65960303 C3.69964351,3.54972253 3.82554761,3.5072687 3.91085743,3.41299622 C3.9054998,3.40800165 3.85604484,3.40883408 3.85048116,3.41112326 C3.58733953,3.52058755 3.36170125,3.49270121 3.21292423,3.80839955 C3.08660801,4.07644138 3.05878959,4.16821657 3.20468174,4.41669635 C3.27350656,4.53365249 3.11792949,4.66600855 3.04848647,4.69493542 C2.87353953,4.76818909 2.75855674,4.86599939 2.71301696,4.57797928 C2.70250778,4.58214142 2.53023965,4.74508921 2.56959756,4.8098105 C2.69941684,5.0235364 2.72641101,5.04413899 2.61390097,5.26660539 C2.53333059,5.42601536 2.48428775,5.48386911 2.58505224,5.61331167 C2.69982897,5.76065144 2.88652146,5.84431046 2.96152816,5.9462829 C3.08743226,6.11734686 3.21951823,6.48444763 3.03282573,6.55562023 C2.83088463,6.63261983 2.83109069,6.83261067 2.94174617,7.03613933 C3.00541944,7.15351168 3.04436522,7.30959194 3.04436522,7.48086401 C3.04436522,7.53913398 3.04209854,7.54891501 3.05549259,7.60656065 C3.08001401,7.76576252 3.16470564,7.86398903 3.32811309,7.85087829 L3.37427105,7.83443783 C3.4200169,8.42795903 3.58280616,8.70952782 3.83172948,8.94448064 C3.82101424,9.2191819 3.87149952,9.688047 3.63803087,9.95525641 Z"/>
    <rect id="004-medium-f" width="6" height="10" x="14" rx="3"/>
  </defs>
  <g fill="none" fill-rule="evenodd">
    <use fill="#EDEFF2" xlink:href="#004-medium-a"/>
    <rect width="31" height="23" x=".5" y="4.5" stroke="#000" stroke-opacity=".4" rx="4"/>
    <use fill="#B8BDCC" xlink:href="#004-medium-b"/>
    <path stroke="#5C5E66" stroke-width=".5" d="M18.25,23 C18.25,23.4167516 18.5831448,23.75 18.9970301,23.75 L25.0029699,23.75 C25.4112802,23.75 25.75,23.4118294 25.75,23 C25.75,22.5832484 25.4168552,22.25 25.0029699,22.25 L18.9970301,22.25 C18.5887198,22.25 18.25,22.5881706 18.25,23 Z M18.25,20 C18.25,20.4160588 18.5879687,20.75 19.0093689,20.75 L20.9906311,20.75 C21.4158132,20.75 21.75,20.416965 21.75,20 C21.75,19.5839412 21.4120313,19.25 20.9906311,19.25 L19.0093689,19.25 C18.5841868,19.25 18.25,19.583035 18.25,20 Z M18.25,17 C18.25,17.4171023 18.5807073,17.75 18.990778,17.75 L23.009222,17.75 C23.413274,17.75 23.75,17.4118816 23.75,17 C23.75,16.5828977 23.4192927,16.25 23.009222,16.25 L18.990778,16.25 C18.586726,16.25 18.25,16.5881184 18.25,17 Z M18.25,13 C18.25,13.4168432 18.5825079,13.75 18.9953976,13.75 L27.0046024,13.75 C27.4098506,13.75 27.75,13.4106351 27.75,13 C27.75,12.5831568 27.4174921,12.25 27.0046024,12.25 L18.9953976,12.25 C18.5901494,12.25 18.25,12.5893649 18.25,13 Z"/>
    <g transform="translate(4 8)">
      <mask id="004-medium-d" fill="#fff">
        <use xlink:href="#004-medium-c"/>
      </mask>
      <use fill="#79BF73" xlink:href="#004-medium-c"/>
      <rect width="9.5" height="15.5" x=".25" y=".25" stroke="#395936" stroke-width=".5" rx="2"/>
      <g mask="url(#004-medium-d)">
        <use fill="#395936" xlink:href="#004-medium-e"/>
        <path stroke="#EDEFF2" stroke-width=".5" d="M3.77179124,3.56217106 L3.91085743,3.41299622 L3.87538772,3.38089868 C3.87182592,3.38498843 3.86781929,3.38958961 3.86330019,3.39477931 L3.85730172,3.40179676 C3.83528647,3.42788387 3.83528647,3.42788387 3.81289195,3.45673119 C3.79398695,3.46945166 3.78965447,3.47236682 3.77179124,3.56217106 Z M2.86525073,4.24879452 C2.83380929,4.08757253 2.87679032,3.935219 2.9867784,3.70182533 C3.11351783,3.4328898 3.26950408,3.32955885 3.56449897,3.24268663 C3.68354624,3.20762873 3.70571009,3.20057826 3.75535593,3.17992812 C3.84306283,3.14384112 3.99026195,3.14523568 4.08132973,3.23013236 L4.1027053,3.25005943 C4.15164822,3.25101237 4.194337,3.25966338 4.22636407,3.27721738 L4.29172018,3.31303897 C4.34409338,3.27524268 4.46547405,3.16491876 4.48256537,3.152043 C4.61482025,3.05240866 4.7428291,3.03968322 4.98535883,3.07796891 C5.17788224,3.10807603 5.44251353,3.18081774 5.66986567,3.25765542 C5.7001542,3.26794618 5.72974956,3.27630366 5.7762878,3.28810637 C5.78532735,3.29039309 5.78532735,3.29039309 5.79461411,3.29272798 C5.9290022,3.32649883 5.99306165,3.3459318 6.09121046,3.38865063 C6.30039632,3.47944251 6.49293264,3.64424423 6.62640338,3.83868565 L6.76406923,3.65993043 L6.96151551,3.92240976 C6.98614721,3.95515443 7.08704618,4.06465795 7.07294555,4.04848299 C7.12235189,4.10515748 7.15809351,4.16315382 7.18220341,4.23014122 L7.30344551,4.33470624 C7.34654499,4.42729157 7.36790995,4.48113926 7.38338977,4.54134889 C7.39141293,4.57255542 7.3952198,4.59283188 7.40269824,4.64122199 C7.40959785,4.69135333 7.40959785,4.69135333 7.41759776,4.75153144 C7.42345076,4.79399194 7.43023425,4.81934305 7.44598742,4.86376084 L7.45269488,4.88257125 C7.49502119,5.00141781 7.51225556,5.09165957 7.51225556,5.24954062 C7.51225556,5.47358124 7.43272759,5.63257097 7.24306971,5.89815792 C7.14097998,6.04111904 7.11926379,6.07340233 7.09298655,6.12596693 C7.06606102,6.17992069 7.04572095,6.22201371 7.03074492,6.25461686 C7.35282514,6.42348551 7.34680656,6.81496632 7.15527738,7.14645427 C7.10748846,7.22896395 7.07787612,7.34907099 7.07787612,7.48086401 C7.07787612,7.49582233 7.07854174,7.50517019 7.0816484,7.53632468 C7.08660078,7.57999083 7.08900693,7.61134272 7.08788361,7.64773494 C7.08526836,7.73246074 7.06128671,7.81142492 7.01238201,7.88933169 C6.94080576,8.00408241 6.83247581,8.07850839 6.70536717,8.10117898 C6.62199031,8.53138228 6.55996619,8.69471443 6.39471282,8.90693684 C6.40686176,9.27992149 6.47734227,9.51457811 6.67268485,9.68843862 C6.78046341,9.78442277 7.13368305,9.95963764 7.70050885,10.2035386 C7.79752451,10.2451513 7.79752451,10.2451513 7.89535764,10.2866831 C8.00215869,10.3319308 8.50658907,10.5432969 8.63114778,10.5963907 C8.88991738,10.7066924 9.05521743,10.7816616 9.16188119,10.8394249 C9.94224242,11.261983 10.25,11.7707811 10.2499958,12.6926921 L10.227533,16.5579831 L-0.254793133,16.5579831 L-0.249954924,16.3032359 L-0.181381236,12.6949852 C-0.181381236,11.6252707 0.365484857,11.17168 1.80372248,10.6089901 C1.99677533,10.5338076 2.09588844,10.4951079 2.18913898,10.4579127 C2.78061132,10.2219899 3.15143518,10.0315372 3.46066952,9.77754304 C3.51954439,9.70190931 3.55542289,9.58411458 3.57043202,9.41947794 C3.57825897,9.33362342 3.5799414,9.26085844 3.57987793,9.10681529 C3.57986291,9.08344337 3.57987561,9.06350503 3.57993603,9.04596966 C3.34535204,8.79596557 3.21046642,8.50508985 3.14969327,8.08149283 C2.96389869,8.02685912 2.8430397,7.86833351 2.81197949,7.66314129 C2.80262095,7.6228638 2.79764956,7.5934125 2.79548201,7.56091168 C2.79405232,7.52573785 2.79405232,7.52573785 2.79429729,7.49932889 C2.79434914,7.49041469 2.79434914,7.49041469 2.79436522,7.48086401 C2.79436522,7.35446623 2.7669897,7.23828375 2.7221091,7.15555271 C2.53754221,6.81607879 2.58526328,6.45871762 2.94377047,6.3220198 C2.86877732,6.35060937 2.83723096,6.19915627 2.76014082,6.09441507 C2.75769306,6.09108732 2.74953114,6.08282153 2.73516342,6.07067042 C2.71272205,6.05169123 2.59575531,5.96498684 2.58949924,5.96017121 C2.50596069,5.89586719 2.44283125,5.83755115 2.38777841,5.76687937 C2.31423733,5.67240813 2.27551433,5.57776858 2.27863922,5.46998442 C2.28169558,5.36456381 2.25971941,5.41314135 2.39080869,5.15377881 C2.42880176,5.07865503 2.43371027,5.06232399 2.43559815,5.07331004 C2.4354262,5.0723094 2.42633453,5.05551268 2.35599275,4.93970655 C2.21664315,4.71055604 2.45641419,4.41071343 2.6209617,4.34554471 L2.86525073,4.24879452 Z"/>
      </g>
    </g>
    <g>
      <use fill="#EDEFF2" fill-opacity=".7" xlink:href="#004-medium-f"/>
      <rect width="5" height="9" x="14.5" y=".5" stroke="#000" stroke-opacity=".3" rx="2.5"/>
    </g>
  </g>
</svg>
