<svg xmlns="http://www.w3.org/2000/svg" xmlns:xlink="http://www.w3.org/1999/xlink" width="16" height="16" viewBox="0 0 16 16">
  <defs>
    <path id="005-mini-a" d="M4,16 L1,16 L0,15 L0,12 L5.1635112,6.8364888 C5.05670195,6.40863241 5,5.96093793 5,5.5 C5,2.46243388 7.46243388,0 10.5,0 C13.5375661,0 16,2.46243388 16,5.5 C16,8.53756612 13.5375661,11 10.5,11 C10.0390621,11 9.59136759,10.9432981 9.1635112,10.8364888 L8,12 L6,12 L6,13 L6,14 L4,14 L4,15 L4,16 Z"/>
    <circle id="005-mini-c" cx="10.5" cy="5.5" r="3"/>
  </defs>
  <g fill="none" fill-rule="evenodd">
    <mask id="005-mini-b" fill="#fff">
      <use xlink:href="#005-mini-a"/>
    </mask>
    <use fill="#EDEFF2" xlink:href="#005-mini-a"/>
    <path stroke="#898B8C" d="M3.5,15.5 L3.5,13.5 L5.5,13.5 L5.5,11.5 L7.79289322,11.5 L9.01005683,10.2828364 L9.28461377,10.3513763 C9.67866564,10.4497466 10.0858222,10.5 10.5,10.5 C13.2614237,10.5 15.5,8.26142375 15.5,5.5 C15.5,2.73857625 13.2614237,0.5 10.5,0.5 C7.73857625,0.5 5.5,2.73857625 5.5,5.5 C5.5,5.91417778 5.55025338,6.32133436 5.64862373,6.71538623 L5.71716361,6.98994317 L0.5,12.2071068 L0.5,14.7928932 L1.20710678,15.5 L3.5,15.5 Z"/>
    <g mask="url(#005-mini-b)">
      <use fill="#B8BDCC" xlink:href="#005-mini-c"/>
      <circle cx="10.5" cy="5.5" r="2.75" stroke="#5C5E66" stroke-width=".5"/>
    </g>
  </g>
</svg>
