<svg xmlns="http://www.w3.org/2000/svg" xmlns:xlink="http://www.w3.org/1999/xlink" width="64" height="64" viewBox="0 0 64 64">
  <defs>
    <circle id="005-large-a" cx="42" cy="22" r="16"/>
    <path id="005-large-b" d="M32,48 L26,42 L4,64 L16,64 L16,60 L20,56 L24,56 L24,52 L28,48 L32,48 Z"/>
    <polygon id="005-large-c" points="0 56 24 32 26 34 0 60"/>
  </defs>
  <g fill="none" fill-rule="evenodd">
    <path fill="#EDEFF2" d="M20.6540448,27.3459552 L0,48 L0,60 L4,64 L16,64 L16,60 L20,56 L24,56 L24,52 L28,48 L32,48 L36.6540448,43.3459552 C38.3654704,43.7731922 40.1562483,44 42,44 C54.1502645,44 64,34.1502645 64,22 C64,9.8497355 54.1502645,0 42,0 C29.8497355,0 20,9.8497355 20,22 C20,23.8437517 20.2268078,25.6345296 20.6540448,27.3459552 Z"/>
    <path fill="#000" fill-opacity=".4" d="M21.7651229,27.6368145 L1,48.3999023 L1,59.5989583 L4.40180122,63 L15,63 L15,59.5989583 L19.5997721,55 L23,55 L23,51.5998806 L27.5766059,47 L31.5956489,47 L36.3622814,42.2346257 C38.156317,42.7334064 40.0470253,43 42,43 C53.5979797,43 63,33.5979797 63,22 C63,10.4020203 53.5979797,1 42,1 C30.4020203,1 21,10.4020203 21,22 C21,23.9526466 21.266504,25.8430478 21.7651229,27.6368145 Z M20.6540448,27.3459552 C20.2268078,25.6345296 20,23.8437517 20,22 C20,9.8497355 29.8497355,0 42,0 C54.1502645,0 64,9.8497355 64,22 C64,34.1502645 54.1502645,44 42,44 C40.1562483,44 38.3654704,43.7731922 36.6540448,43.3459552 L32,48 L28,48 L24,52 L24,56 L20,56 L16,60 L16,64 L4,64 L0,60 L0,48 L20.6540448,27.3459552 Z"/>
    <use fill="#B8BDCC" xlink:href="#005-large-a"/>
    <circle cx="42" cy="22" r="15.75" stroke="#5C5E66" stroke-width=".5"/>
    <path fill="#000" fill-opacity=".4" d="M36.5924062,12.9939922 C36.7515793,13.1977245 36.7149258,13.4962434 36.5079075,13.6579839 C36.3008892,13.8197243 36.0023702,13.7830708 35.8431971,13.5793385 C35.6814567,13.3723202 35.7181102,13.0738012 35.9251285,12.9120608 C36.1321468,12.7503203 36.4306658,12.7869738 36.5924062,12.9939922 Z M39.4046677,12.8602109 L38.9449656,13.0236449 L38.2255767,11.00017 L37.9551538,11.5964148 L37.5887986,11.4124375 L38.0721884,10.3819971 L38.4729543,10.2395162 L39.4046677,12.8602109 Z M40.4199068,12.6364634 L39.9435071,12.7417248 L39.3434272,10.0258392 L40.5364624,9.7622359 C41.1065134,9.63628209 41.5104815,9.95699991 41.6121442,10.4171125 C41.7138069,10.877225 41.4785036,11.339191 40.9125245,11.4642452 L40.195889,11.6225871 L40.4199068,12.6364634 Z M40.7547098,11.0592453 C41.0234481,10.999867 41.181108,10.7856676 41.1235291,10.5250729 C41.0659502,10.2644782 40.832718,10.136647 40.5639797,10.1960253 L39.9124929,10.3399725 L40.103223,11.2031925 L40.7547098,11.0592453 Z M44.5161175,12.6438558 L43.9640128,12.5911993 L43.8112827,12.0404507 L42.5410268,11.9193014 L42.286943,12.4312505 L41.7348383,12.3785941 L43.086517,9.7134976 L43.6925867,9.7713009 L44.5161175,12.6438558 Z M43.7150733,11.5998158 L43.3428341,10.2322365 L42.7187942,11.5047967 L43.7150733,11.5998158 Z M45.8807161,13.2261052 C45.3841951,13.0974834 45.0698891,12.8308351 44.8975999,12.5148229 L45.2541025,12.2194857 C45.3885537,12.4653892 45.6342349,12.7142605 46.0096532,12.811511 C46.3971818,12.9118987 46.5997267,12.761908 46.6457377,12.5842907 C46.7921364,12.0191448 45.1308619,11.9635633 45.3881054,10.9705213 C45.5031329,10.5264781 45.9835832,10.2847872 46.5729496,10.4374601 C46.9927723,10.5462135 47.2973516,10.7672657 47.4848881,11.0743048 L47.1234491,11.3554403 C46.9679145,11.0911523 46.7064017,10.9200251 46.4238287,10.8468257 C46.1452926,10.7746721 45.933167,10.861874 45.8808818,11.0637118 C45.7512143,11.5642696 47.3979951,11.659173 47.1376145,12.6643253 C47.0215412,13.1124052 46.6073322,13.4143321 45.8807161,13.2261052 Z M48.0149589,14.5322937 C47.5896653,14.2455848 47.382164,13.8894489 47.3250123,13.5340885 L47.7595479,13.3744109 C47.8043835,13.6510613 47.9531043,13.9675707 48.2746678,14.1843506 C48.6066043,14.4081234 48.8475513,14.3341896 48.9501138,14.182052 C49.2764491,13.6979779 47.7286206,13.0920494 48.3020384,12.2414621 C48.5584448,11.8611182 49.0919711,11.7933198 49.5967912,12.1336409 C49.9563891,12.3760615 50.1699116,12.6859658 50.2444293,13.0379461 L49.8099712,13.1825888 C49.7513825,12.8815796 49.561831,12.6330968 49.319794,12.4699292 C49.0812146,12.3090925 48.8521551,12.3206331 48.7356068,12.4935167 C48.4465669,12.922268 49.9676281,13.5604423 49.3872174,14.4214026 C49.1284801,14.8052042 48.6373399,14.9518677 48.0149589,14.5322937 Z M50.5782705,17.6683344 L50.298148,17.2287517 L51.7370179,15.6690233 L49.717734,16.3179364 L49.4376114,15.8783537 L51.3551973,13.7119374 L51.6487657,14.17262 L50.1325293,15.78165 L52.2493485,15.1150853 L52.4577597,15.4421348 L50.9594511,17.079298 L53.0561015,16.3810833 L53.3496699,16.841766 L50.5782705,17.6683344 Z M51.3716455,19.6212147 C51.1151434,18.8276388 51.5136199,18.0809213 52.303228,17.8257018 C53.092836,17.5704823 53.8529804,17.9427068 54.1094824,18.7362828 C54.3659844,19.5298587 53.9675079,20.2765762 53.1778999,20.5317957 C52.3882918,20.7870152 51.6281475,20.4147907 51.3716455,19.6212147 Z M51.7843049,19.4878337 C51.9561613,20.0195295 52.4803991,20.231354 53.0239986,20.0556501 C53.571566,19.8786637 53.8686792,19.4013597 53.6968229,18.8696638 C53.523684,18.3340001 53.0046966,18.124861 52.4571292,18.3018474 C51.9135297,18.4775512 51.6111661,18.9521699 51.7843049,19.4878337 Z M51.6456473,23.3057123 L51.6552197,22.7428437 L52.7038937,22.1434285 L52.7121188,21.6597784 L51.6739389,21.6421228 L51.6822349,21.1543033 L54.4632228,21.2015977 L54.4424473,22.4232311 C54.4330877,22.9735916 54.0684216,23.3260618 53.5555858,23.3173403 C53.0594275,23.3089025 52.7981168,22.9791515 52.7495871,22.644678 L51.6456473,23.3057123 Z M53.1302217,22.3341853 C53.1255419,22.6093655 53.2972531,22.8124747 53.5640945,22.8170127 C53.8309359,22.8215507 54.0094541,22.6243976 54.0141339,22.3492174 L54.0254789,21.6821139 L53.1415667,21.6670818 L53.1302217,22.3341853 Z M51.2729194,24.7331022 L51.5254646,23.7302524 L54.2226455,24.4094767 L53.9701004,25.4123266 C53.7582883,26.2534265 53.0566667,26.683066 52.2640918,26.4834738 C51.4715169,26.2838817 51.0611074,25.5742021 51.2729194,24.7331022 Z M51.6894256,24.83799 C51.5417682,25.4243336 51.8767786,25.8699146 52.3862911,25.9982239 C52.9079347,26.1295881 53.4018634,25.9099575 53.5535942,25.3074389 L53.686995,24.7777077 L51.8228265,24.3082588 L51.6894256,24.83799 Z M50.3021926,28.713247 C50.0841619,28.5743027 50.0191069,28.2806619 50.1602923,28.0591145 C50.3014777,27.8375672 50.5951185,27.7725122 50.8131492,27.9114566 C51.0346966,28.0526419 51.0997515,28.3462827 50.9585661,28.5678301 C50.8173808,28.7893775 50.52374,28.8544324 50.3021926,28.713247 Z M46.2752622,30.8660943 L46.6749928,30.5863585 L47.8584907,32.2775262 L47.3753754,30.096223 L47.5462004,29.9766778 L49.4266643,31.1801009 L48.2431665,29.4889332 L48.642897,29.2091973 L50.2376305,31.4880031 L49.6739079,31.8825024 L48.0059142,30.8154125 L48.4337183,32.7504008 L47.8699957,33.1449001 L46.2752622,30.8660943 Z M43.9897881,31.4553339 L44.4071649,31.3230114 L44.4726961,31.5297123 C44.5641279,31.3213689 44.7577439,31.1593715 45.012145,31.0787178 C45.3261714,30.9791609 45.7467392,31.0776777 45.8815822,31.5030045 C46.021466,31.9442314 45.7256593,32.2392413 45.411633,32.3387982 C45.1532569,32.4207121 44.9041914,32.4078088 44.713397,32.2889406 L44.8041324,32.5751418 C44.8747044,32.7977428 45.1004025,32.8749235 45.3667287,32.7904891 C45.5813796,32.7224376 45.7430011,32.5837071 45.858283,32.3678024 L46.1212044,32.6037895 C45.9653948,32.8850374 45.718649,33.0726278 45.4125727,33.1696643 C44.9872458,33.3045072 44.5568846,33.2440916 44.3930567,32.7273394 L43.9897881,31.4553339 Z M44.9399048,31.4165878 C44.757054,31.4745577 44.5996018,31.5988426 44.5457885,31.7602633 L44.6377842,32.0504396 C44.7747716,32.15137 44.975071,32.1622356 45.1579218,32.1042658 C45.3924478,32.0299131 45.5245013,31.8393131 45.4577099,31.6286372 C45.3921788,31.4219363 45.1744308,31.3422352 44.9399048,31.4165878 Z M41.6526165,31.6823328 L42.0891241,31.6480728 L42.110659,31.922449 C42.2488142,31.7108301 42.4718297,31.5678417 42.7295771,31.547612 C43.2450718,31.5071526 43.6540492,31.8682388 43.7059286,32.5292361 C43.7568291,33.1777616 43.4146557,33.6145344 42.8950038,33.6553201 C42.6455709,33.6748972 42.4036309,33.5767672 42.2248589,33.3774744 L42.3067566,34.4209354 L41.870249,34.4551954 L41.6526165,31.6823328 Z M42.6352052,31.9440216 C42.4273444,31.9603358 42.2244624,32.0933784 42.1364355,32.250869 L42.1990824,33.0490544 C42.3106018,33.1908832 42.5320821,33.2948019 42.7399428,33.2784877 C43.0849917,33.251406 43.283463,32.9555794 43.2527921,32.5648012 C43.2224476,32.1781802 42.980254,31.9169399 42.6352052,31.9440216 Z M40.1439205,31.3551687 C40.746687,31.4028573 41.1624265,31.8582352 41.1121068,32.4942577 C41.0660627,33.0762392 40.6048834,33.5124348 40.0104309,33.465404 C39.4076644,33.4177154 39.0575689,32.9257008 39.1075597,32.2938353 L39.1157819,32.18991 L40.6663467,32.3125848 C40.6570994,32.006492 40.448197,31.7389826 40.0699091,31.7090539 C39.8745296,31.6935962 39.6354882,31.7541617 39.4829677,31.8843179 L39.3061244,31.5816976 C39.5207897,31.4062617 39.8238307,31.3298444 40.1439205,31.3551687 Z M39.5154593,32.5310752 C39.5050268,32.7686826 39.6437992,33.0766569 40.0387152,33.1079011 C40.4128461,33.137501 40.6059767,32.8641516 40.6461661,32.6205325 L39.5154593,32.5310752 Z M36.8192517,32.5555241 C36.9493842,32.6216069 37.0061721,32.7860734 36.9382013,32.919924 C36.8702304,33.0537745 36.703934,33.1049563 36.5738015,33.0388735 C36.4399509,32.9709026 36.3868811,32.8083243 36.4548519,32.6744737 C36.5228228,32.5406231 36.6854011,32.4875533 36.8192517,32.5555241 Z M37.6455328,30.440261 L38.0359303,30.6385093 L37.1239881,32.434338 L36.7335906,32.2360897 L37.6455328,30.440261 Z M35.7367467,29.2444129 L36.0931522,29.4987506 L35.3616283,30.5238409 C35.1799585,30.7784163 35.2483868,30.9553209 35.4486527,31.0982345 C35.631947,31.2290368 35.8655991,31.2318421 36.0269979,31.1779632 L36.8433011,30.0340711 L37.1997066,30.2884089 L36.0297529,31.9278745 L35.6733473,31.6735367 L35.8332168,31.4495103 C35.6325519,31.5009828 35.3252123,31.4865759 35.0672426,31.3024838 C34.7142313,31.0505683 34.6733725,30.7345276 34.9131767,30.398488 L35.7367467,29.2444129 Z M33.8753898,26.9651101 C34.4113058,27.5877174 34.3850628,28.4521192 33.737172,29.0097983 C33.0892811,29.5674775 32.2306,29.4647837 31.694684,28.8421764 C31.3274319,28.4155166 31.3228709,27.9627728 31.439687,27.5871197 L31.8729082,27.7644244 C31.7861362,28.0151798 31.8275023,28.3317043 32.0233701,28.5592562 C32.382461,28.9764347 32.9682636,29.0113992 33.4107257,28.6305452 C33.8531877,28.2496911 33.9057946,27.6652087 33.5467037,27.2480302 C33.3508359,27.0204783 33.047153,26.9297458 32.7831159,26.9809532 L32.6722599,26.5261692 C33.063835,26.4697209 33.5081377,26.5384503 33.8753898,26.9651101 Z M32.7244828,24.1709679 L32.8678075,24.5846956 L32.6629138,24.6556755 C32.8736045,24.7415601 33.0406705,24.9308199 33.1280303,25.1829968 C33.2358652,25.4942777 33.148516,25.9173061 32.7269077,26.0633609 C32.2895384,26.2148756 31.9868014,25.926982 31.8789666,25.6157011 C31.7902417,25.359584 31.7965474,25.1102642 31.9103233,24.9163901 L31.6266243,25.0146699 C31.4059695,25.0911098 31.3347904,25.3187718 31.4262453,25.5827695 C31.4999552,25.7955438 31.6429153,25.9534363 31.8617961,26.0629625 L31.6328517,26.3320386 C31.3475778,26.1837287 31.1535214,25.9420352 31.0484165,25.6386349 C30.9023618,25.2170266 30.9513639,24.7852169 31.4635982,24.6077671 L32.7244828,24.1709679 Z M32.7883664,25.1197258 C32.7255765,24.9384737 32.5971671,24.7843668 32.4343785,24.7348453 L32.1467392,24.8344902 C32.0494704,24.9741015 32.0439108,25.1746183 32.1067007,25.3558705 C32.1872356,25.588346 32.3812645,25.7153077 32.5900985,25.6429629 C32.7949922,25.571983 32.8689013,25.3522014 32.7883664,25.1197258 Z M32.4885818,21.9029006 L32.5271434,22.3390492 L31.2726969,22.4499598 C30.9611622,22.4775039 30.8712729,22.6445295 30.8929408,22.8896035 C30.9127725,23.1139085 31.0625877,23.293231 31.2084771,23.3808027 L32.6083065,23.2570383 L32.6468681,23.6931869 L30.6405844,23.8705704 L30.6020228,23.4344218 L30.8761733,23.410183 C30.706577,23.2912172 30.5176554,23.0483719 30.4897441,22.7326834 C30.4515497,22.3006886 30.6650651,22.064125 31.076291,22.0277668 L32.4885818,21.9029006 Z M32.7593887,19.7312245 L32.7011492,20.165184 L32.4862359,20.1363415 C32.6357189,20.3078688 32.6997156,20.552071 32.6642173,20.8165796 C32.620399,21.1430824 32.3519879,21.4815176 31.9097625,21.4221688 C31.4510054,21.3606014 31.3102548,20.9672546 31.3540731,20.6407518 C31.3901261,20.3721103 31.507979,20.1523131 31.696843,20.0304011 L31.3992709,19.9904655 C31.1678258,19.9594044 31.0017912,20.1306615 30.9646288,20.4075689 C30.9346771,20.630748 30.9912669,20.8360898 31.1374219,21.0324147 L30.8118664,21.1696411 C30.6238812,20.908799 30.5593839,20.6056262 30.6020929,20.2873892 C30.6614417,19.8451639 30.8995625,19.4816267 31.4368456,19.5537327 L32.7593887,19.7312245 Z M32.3893862,20.6071931 C32.4149007,20.4170776 32.3696003,20.2216657 32.246525,20.1041711 L31.9448199,20.0636808 C31.7951207,20.1445677 31.6999008,20.3211211 31.6743864,20.5112366 C31.6416613,20.7550805 31.7577764,20.9557887 31.9768226,20.9851858 C32.1917358,21.0140282 32.3566612,20.851037 32.3893862,20.6071931 Z M33.5345866,17.5855453 L33.366662,17.9899138 L33.1124874,17.8843612 C33.2381682,18.1036185 33.2641422,18.3672602 33.1649867,18.6060302 C32.9666757,19.0835703 32.4591348,19.2836905 31.8468053,19.0294045 C31.2460291,18.7799165 31.0125539,18.2765852 31.2124642,17.795194 C31.3084212,17.5641263 31.5058126,17.3932429 31.7645922,17.3246123 L30.7979588,16.9231924 L30.9658834,16.5188238 L33.5345866,17.5855453 Z M32.8548102,18.3417631 C32.9347743,18.1492066 32.9085061,17.9080191 32.8082482,17.7580179 L32.0688314,17.4509556 C31.891808,17.4858086 31.6985618,17.6358369 31.6185977,17.8283934 C31.4858573,18.1480371 31.6591209,18.4592989 32.0211271,18.6096315 C32.3792821,18.7583647 32.7220697,18.6614068 32.8548102,18.3417631 Z M34.8260464,15.7554722 L34.5706168,16.1110961 L34.3944983,15.9845977 C34.4457851,16.206265 34.3874545,16.4518824 34.2317641,16.6686436 C34.0395838,16.9362082 33.6435714,17.1087107 33.2811737,16.8484158 C32.9052284,16.5783903 32.9659383,16.1650542 33.1581186,15.8974895 C33.3162417,15.6773414 33.5235956,15.5387612 33.7476015,15.5199591 L33.5037451,15.3448074 C33.314079,15.2085783 33.0870221,15.2816649 32.9240337,15.5085868 C32.7926699,15.6914791 32.7460727,15.8993164 32.7827635,16.1413051 L32.4309157,16.1093572 C32.3876394,15.79076 32.4732535,15.4928608 32.6605685,15.23207 C32.9208634,14.8696723 33.3019439,14.660774 33.7422402,14.9770202 L34.8260464,15.7554722 Z M34.0876469,16.3546292 C34.1995494,16.1988321 34.251442,16.0050666 34.1980584,15.8435032 L33.9508151,15.6659189 C33.7806637,15.6669265 33.6136167,15.7779814 33.5017142,15.9337786 C33.3581871,16.1336053 33.3663043,16.3653392 33.5458097,16.4942703 C33.7219283,16.6207688 33.9441198,16.554456 34.0876469,16.3546292 Z"/>
    <use fill="#B8BDCC" xlink:href="#005-large-b"/>
    <path stroke="#5C5E66" stroke-width=".5" d="M31.3964466,47.75 L26,42.3535534 L4.60355339,63.75 L15.75,63.75 L15.75,60 L15.8232233,59.8232233 L19.8232233,55.8232233 L20,55.75 L23.75,55.75 L23.75,52 L23.8232233,51.8232233 L27.8232233,47.8232233 L28,47.75 L31.3964466,47.75 Z"/>
    <g>
      <use fill="#B8BDCC" xlink:href="#005-large-c"/>
      <path stroke="#5C5E66" stroke-width=".5" d="M0.25,56.1035534 L0.25,59.3964466 L25.6464466,34 L24,32.3535534 L0.25,56.1035534 Z"/>
    </g>
  </g>
</svg>
