<svg xmlns="http://www.w3.org/2000/svg" width="18" height="18" viewBox="0 0 18 18">
  <path fill="#FFF" fill-rule="evenodd" d="M11,1 L11,3.75 C11,4.44035594 11.5596441,5 12.25,5 L15,5 L16,6 L12.25,6 C11.0073593,6 10,4.99264069 10,3.75 L10,0 L11,1 L11,0 L16,5 L15,5 L16,6 L16,15.75 C16,16.9926407 14.9926407,18 13.75,18 L4.25,18 C3.00735931,18 2,16.9926407 2,15.75 L2,2.25 L2,2.25 C2,1.00735931 3.00735931,6.66102655e-15 4.25,5.32907052e-15 L4.25,3.51733338e-15 L10,0 L11,1 Z M5,14.5 C5,14.7680664 5.22539004,15 5.50342274,15 L11.4965773,15 C11.7670975,15 12,14.7761424 12,14.5 C12,14.2319336 11.77461,14 11.4965773,14 L5.50342274,14 C5.23290253,14 5,14.2238576 5,14.5 Z M5,12.5 C5,12.7680664 5.22282734,13 5.49769878,13 L9.50230122,13 C9.78515625,13 10,12.7761424 10,12.5 C10,12.2319336 9.77717266,12 9.50230122,12 L5.49769878,12 C5.21484375,12 5,12.2238576 5,12.5 Z M5,10.5 C5,10.7680664 5.22405275,11 5.50043583,11 L12.4995642,11 C12.7692032,11 13,10.7761424 13,10.5 C13,10.2319336 12.7759472,10 12.4995642,10 L5.50043583,10 C5.23079681,10 5,10.2238576 5,10.5 Z M5,3.99895656 L5,5.00104344 C5,5.55733967 5.44724809,6 5.99895656,6 L7.00104344,6 C7.55733967,6 8,5.55275191 8,5.00104344 L8,3.99895656 C8,3.44266033 7.55275191,3 7.00104344,3 L5.99895656,3 C5.44266033,3 5,3.44724809 5,3.99895656 Z"/>
</svg>
