<svg xmlns="http://www.w3.org/2000/svg" xmlns:xlink="http://www.w3.org/1999/xlink" width="16" height="16" viewBox="0 0 16 16">
  <defs>
    <path id="006-mini-a" d="M2,0 L8,0 L12,4 L12,14 C12,15.1045695 11.1045695,16 10,16 L2,16 C0.8954305,16 1.3527075e-16,15.1045695 0,14 L0,2 C-1.3527075e-16,0.8954305 0.8954305,2.02906125e-16 2,0 Z"/>
    <path id="006-mini-c" d="M2.5,13 L8.5,13 C8.77614237,13 9,13.2238576 9,13.5 C9,13.7761424 8.77614237,14 8.5,14 L2.5,14 C2.22385763,14 2,13.7761424 2,13.5 C2,13.2238576 2.22385763,13 2.5,13 Z M2.5,11 L6.5,11 C6.77614237,11 7,11.2238576 7,11.5 C7,11.7761424 6.77614237,12 6.5,12 L2.5,12 C2.22385763,12 2,11.7761424 2,11.5 C2,11.2238576 2.22385763,11 2.5,11 Z M2.5,9 L9.5,9 C9.77614237,9 10,9.22385763 10,9.5 C10,9.77614237 9.77614237,10 9.5,10 L2.5,10 C2.22385763,10 2,9.77614237 2,9.5 C2,9.22385763 2.22385763,9 2.5,9 Z M3,2 L5,2 C5.55228475,2 6,2.44771525 6,3 L6,5 C6,5.55228475 5.55228475,6 5,6 L3,6 C2.44771525,6 2,5.55228475 2,5 L2,3 C2,2.44771525 2.44771525,2 3,2 Z"/>
    <path id="006-mini-d" d="M8,0 L12,0 L12,4 L10,4 C8.8954305,4 8,3.1045695 8,2 L8,0 Z"/>
  </defs>
  <g fill="none" fill-rule="evenodd" transform="translate(2)">
    <mask id="006-mini-b" fill="#fff">
      <use xlink:href="#006-mini-a"/>
    </mask>
    <use fill="#EDEFF2" xlink:href="#006-mini-a"/>
    <g mask="url(#006-mini-b)">
      <use fill="#B8BDCC" xlink:href="#006-mini-c"/>
      <path stroke="#5C5E66" stroke-width=".5" d="M2.5,13.25 C2.36192881,13.25 2.25,13.3619288 2.25,13.5 C2.25,13.6380712 2.36192881,13.75 2.5,13.75 L8.5,13.75 C8.63807119,13.75 8.75,13.6380712 8.75,13.5 C8.75,13.3619288 8.63807119,13.25 8.5,13.25 L2.5,13.25 Z M2.5,11.25 C2.36192881,11.25 2.25,11.3619288 2.25,11.5 C2.25,11.6380712 2.36192881,11.75 2.5,11.75 L6.5,11.75 C6.63807119,11.75 6.75,11.6380712 6.75,11.5 C6.75,11.3619288 6.63807119,11.25 6.5,11.25 L2.5,11.25 Z M2.5,9.25 C2.36192881,9.25 2.25,9.36192881 2.25,9.5 C2.25,9.63807119 2.36192881,9.75 2.5,9.75 L9.5,9.75 C9.63807119,9.75 9.75,9.63807119 9.75,9.5 C9.75,9.36192881 9.63807119,9.25 9.5,9.25 L2.5,9.25 Z M3,2.25 C2.58578644,2.25 2.25,2.58578644 2.25,3 L2.25,5 C2.25,5.41421356 2.58578644,5.75 3,5.75 L5,5.75 C5.41421356,5.75 5.75,5.41421356 5.75,5 L5.75,3 C5.75,2.58578644 5.41421356,2.25 5,2.25 L3,2.25 Z"/>
    </g>
    <path fill="#000" fill-opacity=".07" d="M8,0 L12,0 L12,5.5 L10,5.5 C8.8954305,5.5 8,4.6045695 8,3.5 L8,0 Z" mask="url(#006-mini-b)"/>
    <g mask="url(#006-mini-b)">
      <use fill="#D4D6D9" xlink:href="#006-mini-d"/>
      <path stroke="#000" stroke-opacity=".4" d="M7.5,-0.5 L12.5,-0.5 L12.5,4.5 L10,4.5 C8.61928813,4.5 7.5,3.38071187 7.5,2 L7.5,-0.5 Z"/>
    </g>
    <path stroke="#000" stroke-opacity=".4" d="M11.5,4.20710678 L7.79289322,0.5 L2,0.5 C1.17157288,0.5 0.5,1.17157288 0.5,2 L0.5,14 C0.5,14.8284271 1.17157288,15.5 2,15.5 L10,15.5 C10.8284271,15.5 11.5,14.8284271 11.5,14 L11.5,4.20710678 Z" mask="url(#006-mini-b)"/>
  </g>
</svg>
