<svg xmlns="http://www.w3.org/2000/svg" xmlns:xlink="http://www.w3.org/1999/xlink" width="18" height="18" viewBox="0 0 18 18">
  <defs>
    <path id="006-mono-black-a" d="M4.25,0 L10.75,0 L16,5.4 L16,15.75 L16,15.75 C16,16.9926407 14.9926407,18 13.75,18 L4.25,18 L4.25,18 C3.00735931,18 2,16.9926407 2,15.75 L2,2.25 L2,2.25 C2,1.00735931 3.00735931,2.28269391e-16 4.25,0 Z"/>
  </defs>
  <g fill="none" fill-rule="evenodd">
    <use fill="#000" fill-opacity=".2" xlink:href="#006-mono-black-a"/>
    <path stroke="#000" d="M15.5,5.60299373 L10.5387561,0.5 L4.25,0.5 C3.28350169,0.5 2.5,1.28350169 2.5,2.25 L2.5,15.75 C2.5,16.7164983 3.28350169,17.5 4.25,17.5 L13.75,17.5 C14.7164983,17.5 15.5,16.7164983 15.5,15.75 L15.5,5.60299373 Z"/>
    <path fill="#000" d="M10 0L16 6 12.25 6 12.25 6C11.0073593 6 10 4.99264069 10 3.75L10 0zM5 14.5C5 14.2238576 5.23290253 14 5.50342274 14L11.4965773 14C11.77461 14 12 14.2319336 12 14.5 12 14.7761424 11.7670975 15 11.4965773 15L5.50342274 15C5.22539004 15 5 14.7680664 5 14.5zM5 12.5C5 12.2238576 5.21484375 12 5.49769878 12L9.50230122 12C9.77717266 12 10 12.2319336 10 12.5 10 12.7761424 9.78515625 13 9.50230122 13L5.49769878 13C5.22282734 13 5 12.7680664 5 12.5zM5 10.5C5 10.2238576 5.23079681 10 5.50043583 10L12.4995642 10C12.7759472 10 13 10.2319336 13 10.5 13 10.7761424 12.7692032 11 12.4995642 11L5.50043583 11C5.22405275 11 5 10.7680664 5 10.5zM5 3.99895656C5 3.44724809 5.44266033 3 5.99895656 3L7.00104344 3C7.55275191 3 8 3.44266033 8 3.99895656L8 5.00104344C8 5.55275191 7.55733967 6 7.00104344 6L5.99895656 6C5.44724809 6 5 5.55733967 5 5.00104344L5 3.99895656z"/>
  </g>
</svg>
