<svg xmlns="http://www.w3.org/2000/svg" xmlns:xlink="http://www.w3.org/1999/xlink" width="16" height="16" viewBox="0 0 16 16">
  <defs>
    <polygon id="100-mini-a" points="0 0 16 0 16 4 0 4"/>
  </defs>
  <g fill="none" fill-rule="evenodd" transform="translate(-1 -1.5)">
    <g transform="translate(1 8.5)">
      <use fill="#F2C585" xlink:href="#100-mini-a"/>
      <path stroke="#8C674D" d="M0.5,0.5 L0.5,3.5 L15.5,3.5 L15.5,0.5 L0.5,0.5 Z"/>
    </g>
    <g transform="rotate(-30 8.426 -8.242)">
      <path fill="#FF9580" stroke="#99594D" d="M2.15596081,0.230839472 C3.09028606,0.230839472 3.41214727,8.88336082 3.41144297,10.409265 C3.41073868,11.9351692 3.4110953,12.45 3.4110953,12.45 L0.900826323,12.45 C0.900826323,12.45 0.900576131,11.9498237 0.901442746,10.409265 C0.902309361,8.86870634 1.15761391,0.230839472 2.15596081,0.230839472 Z"/>
      <path fill="#99594C" stroke="#99594C" d="M3.65126509,13.0657852 C4.88183426,13.6684809 2.75195188,14.3505587 3.18590279,16.3505587 C0.466546748,16.3505587 -0.644175588,13.8911097 0.673481883,13.0657852 C0.94275232,12.8971257 0.900441112,12.6572535 0.901710452,12.45 C1.60710615,12.45 2.80481737,12.45 3.41144297,12.45 C3.40966989,12.8087782 3.37720893,12.9315608 3.65126509,13.0657852 Z"/>
    </g>
    <g transform="rotate(30 -2.665 15.714)">
      <path fill="#FE9" stroke="#99835A" d="M8.74623479e-14,1.24045728 C9.41002928e-14,0.555371642 0.554831028,1.87e-14 1.25,1.87e-14 L1.25,1.87e-14 C1.94035594,1.87e-14 2.5,0.560614467 2.5,1.24045728 L2.5,11 L1.28349365,13.875 L-7.1e-15,11 L8.74623479e-14,1.24045728 Z"/>
      <polygon fill="#99835A" points="0 11 2.5 11 1.282 13.874"/>
    </g>
  </g>
</svg>
