<svg xmlns="http://www.w3.org/2000/svg" xmlns:xlink="http://www.w3.org/1999/xlink" width="32" height="32" viewBox="0 0 32 32">
  <defs>
    <polygon id="100-medium-a" points="0 0 32 0 32 8 0 8"/>
    <path id="100-medium-c" d="M6.81835846,27.89853 L1.80548477,27.89853 C1.80948762,27.1877912 1.81767165,26.1541544 1.83440432,24.89853 L6.78943892,24.89853 C6.80617158,26.1541544 6.81435561,27.1877912 6.81835846,27.89853 Z"/>
    <filter id="100-medium-b" width="110%" height="150%" x="-5%" y="-25%" filterUnits="objectBoundingBox">
      <feOffset dy=".5" in="SourceAlpha" result="shadowOffsetOuter1"/>
      <feColorMatrix in="shadowOffsetOuter1" result="shadowMatrixOuter1" values="0 0 0 0 0   0 0 0 0 0   0 0 0 0 0  0 0 0 0.4 0"/>
      <feOffset dy="-.5" in="SourceAlpha" result="shadowOffsetOuter2"/>
      <feColorMatrix in="shadowOffsetOuter2" result="shadowMatrixOuter2" values="0 0 0 0 0   0 0 0 0 0   0 0 0 0 0  0 0 0 0.4 0"/>
      <feMerge>
        <feMergeNode in="shadowMatrixOuter1"/>
        <feMergeNode in="shadowMatrixOuter2"/>
      </feMerge>
    </filter>
    <polygon id="100-medium-d" points="0 24 5 24 2.565 29.748"/>
    <filter id="100-medium-e" width="110%" height="108.7%" x="-5%" y="-4.3%" filterUnits="objectBoundingBox">
      <feOffset dy=".5" in="SourceAlpha" result="shadowOffsetInner1"/>
      <feComposite in="shadowOffsetInner1" in2="SourceAlpha" k2="-1" k3="1" operator="arithmetic" result="shadowInnerInner1"/>
      <feColorMatrix in="shadowInnerInner1" values="0 0 0 0 0   0 0 0 0 0   0 0 0 0 0  0 0 0 0.4 0"/>
    </filter>
    <path id="100-medium-f" d="M-7.1e-15,1.99791312 C-7.1e-15,0.894496173 0.893899798,1.87e-14 2.0048815,1.87e-14 L2.9951185,1.87e-14 C4.10238398,1.87e-14 5,0.898260623 5,1.99791312 L5,6 L-7.1e-15,6 L-7.1e-15,1.99791312 Z"/>
    <filter id="100-medium-g" width="110%" height="108.3%" x="-5%" y="-4.2%" filterUnits="objectBoundingBox">
      <feOffset dy="-.5" in="SourceAlpha" result="shadowOffsetInner1"/>
      <feComposite in="shadowOffsetInner1" in2="SourceAlpha" k2="-1" k3="1" operator="arithmetic" result="shadowInnerInner1"/>
      <feColorMatrix in="shadowInnerInner1" values="0 0 0 0 0   0 0 0 0 0   0 0 0 0 0  0 0 0 0.4 0"/>
    </filter>
  </defs>
  <g fill="none" fill-rule="evenodd" transform="translate(-2 -3)">
    <g transform="translate(2 17)">
      <use fill="#F2C585" xlink:href="#100-medium-a"/>
      <path stroke="#8C674D" d="M0.5,0.5 L0.5,7.5 L31.5,7.5 L31.5,0.5 L0.5,0.5 Z"/>
      <path fill="#8C674D" d="M4.5,1 L5,1 L5,4 L4.5,4 L4.5,1 Z M11.5,1 L12,1 L12,4 L11.5,4 L11.5,1 Z M15.5,1 L16,1 L16,4 L15.5,4 L15.5,1 Z M23.5,1 L24,1 L24,4 L23.5,4 L23.5,1 Z M19.5,1 L20,1 L20,4 L19.5,4 L19.5,1 Z M27.5,1 L28,1 L28,4 L27.5,4 L27.5,1 Z"/>
    </g>
    <g transform="rotate(-30 14.945 -15.895)">
      <path fill="#FF9580" d="M4.31192162,0.461678943 C6.18057212,0.461678943 6.82429454,21.7667216 6.82288595,24.8185301 C6.82147736,27.8703385 6.82219059,27.89853 6.82219059,27.89853 L1.80165265,27.89853 C1.80165265,27.89853 1.80115226,27.8996474 1.80288549,24.8185301 C1.80461872,21.7374127 2.31522783,0.461678943 4.31192162,0.461678943 Z"/>
      <path fill="#A67553" d="M7.30253017,29.1301003 C9.76366853,30.3354918 5.39319914,34.3494167 7.00053541,35.89853 C1.56182333,35.89853 -1.28835118,30.7807493 1.34696377,29.1301003 C1.88550464,28.7927812 1.80088222,28.3130369 1.8034209,27.89853 C3.2142123,27.89853 5.60963474,27.89853 6.82288595,27.89853 C6.81933978,28.6160864 6.75441786,28.8616514 7.30253017,29.1301003 Z"/>
      <use fill="#000" filter="url(#100-medium-b)" xlink:href="#100-medium-c"/>
      <use fill="#EDEFF2" xlink:href="#100-medium-c"/>
      <path stroke="#000" d="M6.32347942,27.8958631 C6.32343553,27.8878729 6.32342505,27.8753682 6.32340039,27.8459233 C6.32316595,27.5796846 6.32332881,26.6752358 6.3241859,24.8182993 C6.32527855,22.4509917 6.09659958,16.240579 5.77116487,11.5301382 C5.55465214,8.39626727 5.29705166,5.79503519 5.00022089,3.91630622 C4.83658881,2.88063084 4.66302306,2.0795436 4.48340092,1.54139394 C4.40110236,1.29482668 4.31999457,1.111881 4.24755161,1.00027247 C3.8504554,1.44629666 3.19351845,5.71448206 2.8095021,11.5176998 C2.50271903,16.1537757 2.30566638,22.185934 2.3041853,24.8188113 C2.3030587,26.8215437 2.30276082,27.7018155 2.30291882,27.8792938 C2.30293079,27.8904435 2.30293115,27.8907806 2.30293944,27.8944872 L2.30294823,27.8964533 L2.30417256,28.1917801 C2.30847207,28.7920824 2.13807246,29.2245673 1.61237672,29.5538407 C-0.595295653,30.9366327 1.99542465,34.8464886 6.12425502,35.3458294 C6.00457958,34.6926081 6.28809513,33.8434709 6.89592747,32.4548145 L6.89853982,32.4488463 C7.73028653,30.548621 7.80163008,29.9312927 7.08260588,29.5791363 C6.46094802,29.274667 6.31099937,28.9359655 6.31942444,28.1884318 L6.32347942,27.8958631 Z" opacity=".4"/>
    </g>
    <g transform="rotate(30 -5.33 32.428)">
      <path fill="#FE9" d="M-7.1e-15,2.00494659 C-7.1e-15,0.897645164 0.893899798,1.87e-14 2.0048815,1.87e-14 L2.9951185,1.87e-14 C4.10238398,1.87e-14 5,0.897026226 5,2.00494659 L5,24 L2.5669873,29.75 L-7.1e-15,24 L-7.1e-15,2.00494659 Z"/>
      <path stroke="#FFC499" d="M0.5,23.8934593 L2.55470008,28.4959462 L4.5,23.89857 L4.5,2.00494659 C4.5,1.1734026 3.82647564,0.5 2.9951185,0.5 L2.0048815,0.5 C1.17147279,0.5 0.5,1.17235545 0.5,2.00494659 L0.5,23.8934593 Z"/>
      <use fill="#E6D6B8" xlink:href="#100-medium-d"/>
      <use fill="#000" filter="url(#100-medium-e)" xlink:href="#100-medium-d"/>
      <use fill="#FA937F" xlink:href="#100-medium-f"/>
      <use fill="#000" filter="url(#100-medium-g)" xlink:href="#100-medium-f"/>
      <path stroke="#000" stroke-opacity=".4" d="M0.5,23.8934593 L2.55470008,28.4959462 L4.5,23.89857 L4.5,2.00494659 C4.5,1.1734026 3.82647564,0.5 2.9951185,0.5 L2.0048815,0.5 C1.17147279,0.5 0.5,1.17235545 0.5,2.00494659 L0.5,23.8934593 Z"/>
    </g>
  </g>
</svg>
