<svg xmlns="http://www.w3.org/2000/svg" width="18" height="18" viewBox="0 0 18 18">
  <g fill="#FFF" fill-rule="evenodd" transform="translate(0 -1)">
    <path d="M8.88169536 9L9.22030447 9C9.97086453 10.4013607 10.7477098 11.7930237 11.4406861 13L6.57229428 13 8.88169536 9zM3.32469901 9L0 9 0 13 1.01529794 13 3.32469901 9zM14.6143259 9L18 9 18 13 17.6344393 13C17.4195185 12.8711914 17.1653033 12.8000749 16.8838804 12.7812958 16.5903324 12.2736678 16.2045337 11.6053748 15.7557503 10.8272299 15.5311355 10.4377706 15.1204686 9.78148667 14.6143259 9zM14.8894942 11.3268301C14.0318593 9.83977817 7.94244452.474442046 7.03215144 1 6.05948345 1.56157013 11.5783348 11.2372844 12.4440548 12.7387053 12.9226225 13.5686868 13.3945814 14.3864536 13.720995 14.9518803 13.7896773 15.0933944 13.8237347 15.2524519 13.71625 15.4551239 12.8967296 17.0004022 15.3623226 18.7718094 18.0117329 17.2421716 16.4639439 15.5377118 18.1553739 13.6751193 16.6174404 13.7801209 16.3812819 13.7962445 16.2901552 13.7357001 16.1907473 13.5816409 16.1511887 13.5131301 16.1093538 13.440674 16.0655138 13.3647412 16.0564943 13.3486852 16.0471435 13.3321316 16.0374077 13.3150745 15.7201356 12.7665188 15.3054259 12.0480134 14.8894942 11.3268301zM6.07448472 6.23723145C6.46316108 5.56402424 7.31880551 5.33037443 7.99609375 5.72140698 8.66869275 6.10973219 8.89859634 6.97072664 8.51018117 7.64348145L3.52644197 16.2755709.724038395 18.392337 1.09074553 14.8693209 6.07448472 6.23723145z"/>
  </g>
</svg>
