<svg xmlns="http://www.w3.org/2000/svg" width="18" height="18" viewBox="0 0 18 18">
  <path fill="#FFF" fill-rule="evenodd" d="M9,18 C4.02943725,18 0,13.9705627 0,9 C0,4.02943725 4.02943725,0 9,0 C13.9705627,0 18,4.02943725 18,9 C18,13.9705627 13.9705627,18 9,18 Z M9,16 C12.8659932,16 16,12.8659932 16,9 C16,5.13400675 12.8659932,2 9,2 C5.13400675,2 2,5.13400675 2,9 C2,12.8659932 5.13400675,16 9,16 Z M9,15.5 C5.41014913,15.5 2.5,12.5898509 2.5,9 C2.5,5.41014913 5.41014913,2.5 9,2.5 C12.5898509,2.5 15.5,5.41014913 15.5,9 C15.5,12.5898509 12.5898509,15.5 9,15.5 Z M7.1337822,10 L9.50952148,10 C9.78494263,10 10,10.2238576 10,10.5 C10,10.7680664 9.78040529,11 9.50952148,11 L6,11 C6,12.1045695 6.8954305,13 8,13 L8,14 L10,14 L10,13 C11.1045695,13 12,12.1045695 12,11 L12,10 C12,8.8954305 11.1045695,8 10,8 L10.8662178,8 L8.49047852,8 C8.21505737,8 8,7.77614237 8,7.5 C8,7.23193359 8.21959471,7 8.49047852,7 L12,7 C12,5.8954305 11.1045695,5 10,5 L10,4 L8,4 L8,5 C6.8954305,5 6,5.8954305 6,7 L6,8 C6,9.1045695 6.8954305,10 8,10 L7.1337822,10 Z"/>
</svg>
