<svg xmlns="http://www.w3.org/2000/svg" xmlns:xlink="http://www.w3.org/1999/xlink" width="18" height="18" viewBox="0 0 18 18">
  <defs>
    <circle id="101-mono-black-a" cx="9" cy="9" r="9"/>
    <circle id="101-mono-black-b" cx="9" cy="9" r="7"/>
  </defs>
  <g fill="none" fill-rule="evenodd">
    <use fill="#000" fill-opacity=".1" xlink:href="#101-mono-black-a"/>
    <circle cx="9" cy="9" r="8.5" stroke="#000"/>
    <use fill="#000" fill-opacity=".1" xlink:href="#101-mono-black-b"/>
    <circle cx="9" cy="9" r="6.75" stroke="#000" stroke-width=".5"/>
    <path fill="#000" d="M7.1337822,10 L8,10 C6.8954305,10 6,9.1045695 6,8 L6,7 C6,5.8954305 6.8954305,5 8,5 L8,4 L10,4 L10,5 C11.1045695,5 12,5.8954305 12,7 L8.49047852,7 C8.21959471,7 8,7.23193359 8,7.5 C8,7.77614237 8.21505737,8 8.49047852,8 L10.8662178,8 L10,8 C11.1045695,8 12,8.8954305 12,10 L12,11 C12,12.1045695 11.1045695,13 10,13 L10,14 L8,14 L8,13 C6.8954305,13 6,12.1045695 6,11 L9.50952148,11 C9.78040529,11 10,10.7680664 10,10.5 C10,10.2238576 9.78494263,10 9.50952148,10 L7.1337822,10 L7.1337822,10 Z"/>
  </g>
</svg>
