<svg xmlns="http://www.w3.org/2000/svg" xmlns:xlink="http://www.w3.org/1999/xlink" width="32" height="32" viewBox="0 0 32 32">
  <defs>
    <rect id="103-medium-a" width="32" height="24" rx="4"/>
    <path id="103-medium-c" d="M16,19 C16,18.4477153 16.4556644,18 16.9953976,18 L25.0046024,18 C25.5543453,18 26,18.4438648 26,19 C26,19.5522847 25.5443356,20 25.0046024,20 L16.9953976,20 C16.4456547,20 16,19.5561352 16,19 Z M16,16 C16,15.4477153 16.4509752,15 16.990778,15 L21.009222,15 C21.5564136,15 22,15.4438648 22,16 C22,16.5522847 21.5490248,17 21.009222,17 L16.990778,17 C16.4435864,17 16,16.5561352 16,16 Z M16,13 C16,12.4477153 16.4530363,12 16.9970301,12 L23.0029699,12 C23.5536144,12 24,12.4438648 24,13 C24,13.5522847 23.5469637,14 23.0029699,14 L16.9970301,14 C16.4463856,14 16,13.5561352 16,13 Z M16,9 C16,8.44771525 16.455761,8 17.0024733,8 L26.9975267,8 C27.5511774,8 28,8.44386482 28,9 C28,9.55228475 27.544239,10 26.9975267,10 L17.0024733,10 C16.4488226,10 16,9.55613518 16,9 Z"/>
    <rect id="103-medium-d" width="8" height="12" rx="2"/>
    <path id="103-medium-f" d="M2.91042469,7.57344561 C1.88093717,8.42471289 0.0548950112,8.32728861 0.0548950112,9.74364966 L0,12.6055908 L7.98318531,12.6055908 L8,9.74068243 C8,9.06514151 7.77662841,8.73874545 7.23427229,8.44795624 C6.87704259,8.25640462 5.47713738,7.74983136 5.20513507,7.50997971 C4.93296792,7.27012807 4.91648293,6.9092791 4.91433988,6.67470254 C5.08941046,6.4674905 5.11792949,6.34979011 5.19920048,5.89992404 L5.26283253,5.90981482 C5.34426838,5.922508 5.40344948,5.89052779 5.44021101,5.83217213 C5.49131447,5.75156219 5.46230089,5.70392156 5.46230089,5.61342083 C5.46230089,5.4718177 5.49609512,5.34340228 5.55115498,5.24927494 C5.63753632,5.10124279 5.68896948,4.85842391 5.47515918,4.79512285 C5.34690597,4.75720816 5.39158029,4.65780573 5.49543572,4.45174761 C5.589565,4.26530623 5.80980445,4.0740843 5.80980445,3.84593676 C5.80980445,3.63757079 5.75754703,3.63361448 5.7359517,3.47849393 C5.71715881,3.34249558 5.72111521,3.33178055 5.66143955,3.20484876 C5.64347091,3.19957367 5.57555276,3.24622523 5.57786066,3.25957779 C5.57786066,3.04181558 5.50944796,3.0454422 5.40938408,2.91372985 C5.40823013,2.91521347 5.42125327,2.97637152 5.42125327,2.97653637 C5.45554205,3.08319205 5.33421253,3.172374 5.3145954,3.1394047 C5.27420718,3.07181764 5.21453152,2.97373398 5.17678089,2.90548753 C5.09501535,2.75811477 4.9517608,2.62162187 4.79334006,2.55354027 C4.6655814,2.49848154 4.57837582,2.49155799 4.47155309,2.45562146 C4.34593748,2.4135856 4.12240104,2.34698762 3.95738631,2.32143641 C3.68950524,2.2795654 3.74027901,2.33693198 3.55037194,2.47260064 C3.44173587,2.55040819 3.2620495,2.5781024 3.19907684,2.56409045 C3.19742834,2.55304573 3.27606174,2.46847948 3.28496363,2.45726992 C3.2521585,2.4394665 2.95328566,2.54991365 2.95971481,2.58650957 C2.95971481,2.49947062 3.06043809,2.46584194 3.12868594,2.39116648 C3.12439984,2.38721016 3.08483587,2.38786955 3.08038492,2.38968286 C2.86987162,2.47639211 2.689361,2.45430268 2.57033938,2.70437481 C2.46928641,2.91669709 2.44703167,2.98939439 2.56374539,3.1862211 C2.61880525,3.27886483 2.49434359,3.3837072 2.43878918,3.40662086 C2.29883163,3.46464683 2.20684539,3.54212468 2.17041357,3.31397713 C2.16200622,3.31727406 2.02419172,3.44634887 2.05567805,3.49761612 C2.15953347,3.66691347 2.18112881,3.68323327 2.09112077,3.85945417 C2.02666447,3.98572658 1.9874302,4.03155391 2.06804179,4.13408843 C2.15986317,4.25079974 2.30921717,4.31706803 2.36922253,4.39784281 C2.46994581,4.53334663 2.57561458,4.82413584 2.42626059,4.88051334 C2.2647077,4.94150654 2.26487255,5.09992402 2.35339694,5.26114388 C2.40433555,5.3541173 2.43549218,5.47775217 2.43549218,5.61342083 C2.43549218,5.65957785 2.43367883,5.66732564 2.44439407,5.71298811 C2.46401121,5.83909568 2.53176451,5.91690322 2.66249047,5.9065179 L2.69941684,5.89349502 C2.73601352,6.36363721 2.86624493,6.58667452 3.06538359,6.7727862 C3.05681139,6.99038357 3.09719961,7.36178272 2.91042469,7.57344561 Z"/>
    <path id="103-medium-g" d="M0,3 C0,1.34314575 1.33425951,0 2.99610022,0 L29.0038998,0 C30.6586002,0 32,1.34651712 32,3 L32,6 L0,6 L0,3 Z"/>
    <filter id="103-medium-h" width="101.6%" height="108.3%" x="-.8%" y="-4.2%" filterUnits="objectBoundingBox">
      <feOffset dy="-.5" in="SourceAlpha" result="shadowOffsetInner1"/>
      <feComposite in="shadowOffsetInner1" in2="SourceAlpha" k2="-1" k3="1" operator="arithmetic" result="shadowInnerInner1"/>
      <feColorMatrix in="shadowInnerInner1" values="0 0 0 0 0   0 0 0 0 0   0 0 0 0 0  0 0 0 0.4 0"/>
    </filter>
  </defs>
  <g fill="none" fill-rule="evenodd" transform="translate(0 4)">
    <mask id="103-medium-b" fill="#fff">
      <use xlink:href="#103-medium-a"/>
    </mask>
    <use fill="#EDEFF2" xlink:href="#103-medium-a"/>
    <g mask="url(#103-medium-b)">
      <use fill="#B8BDCC" xlink:href="#103-medium-c"/>
      <path stroke="#5C5E66" stroke-width=".5" d="M16.25,19 C16.25,19.4168432 16.5825079,19.75 16.9953976,19.75 L25.0046024,19.75 C25.4098506,19.75 25.75,19.4106351 25.75,19 C25.75,18.5831568 25.4174921,18.25 25.0046024,18.25 L16.9953976,18.25 C16.5901494,18.25 16.25,18.5893649 16.25,19 Z M16.25,16 C16.25,16.4171023 16.5807073,16.75 16.990778,16.75 L21.009222,16.75 C21.413274,16.75 21.75,16.4118816 21.75,16 C21.75,15.5828977 21.4192927,15.25 21.009222,15.25 L16.990778,15.25 C16.586726,15.25 16.25,15.5881184 16.25,16 Z M16.25,13 C16.25,13.4167516 16.5831448,13.75 16.9970301,13.75 L23.0029699,13.75 C23.4112802,13.75 23.75,13.4118294 23.75,13 C23.75,12.5832484 23.4168552,12.25 23.0029699,12.25 L16.9970301,12.25 C16.5887198,12.25 16.25,12.5881706 16.25,13 Z M16.25,9 C16.25,9.41644606 16.5852706,9.75 17.0024733,9.75 L26.9975267,9.75 C27.4089677,9.75 27.75,9.41142775 27.75,9 C27.75,8.58355394 27.4147294,8.25 26.9975267,8.25 L17.0024733,8.25 C16.5910323,8.25 16.25,8.58857225 16.25,9 Z"/>
    </g>
    <g mask="url(#103-medium-b)">
      <g transform="translate(4 8)">
        <mask id="103-medium-e" fill="#fff">
          <use xlink:href="#103-medium-d"/>
        </mask>
        <g>
          <use fill="#61AAF2" xlink:href="#103-medium-d"/>
          <rect width="7.5" height="11.5" x=".25" y=".25" stroke="#2A5B8C" stroke-width=".5" rx="2"/>
        </g>
        <g mask="url(#103-medium-e)">
          <use fill="#2A5B8C" xlink:href="#103-medium-f"/>
          <path stroke="#EDEFF2" stroke-width=".5" d="M3.05349517,2.34196608 L3.04856274,2.3476796 C2.89635057,2.52472331 2.92984344,2.47929576 2.94941688,2.58650957 L2.95971481,2.58650957 L2.9701035,2.58468449 C2.96648716,2.58156287 2.96282649,2.57829241 2.9591178,2.57486908 L3.12868594,2.39116648 L3.06300945,2.33114302 C3.06019123,2.33434853 3.05703492,2.33793919 3.05349517,2.34196608 Z M2.73310982,7.39550151 C2.77097518,7.3445604 2.79572125,7.26195856 2.80657261,7.1441008 C2.81263336,7.07827438 2.81395245,7.02178594 2.81390235,6.90139776 C2.81389542,6.89162518 2.81389485,6.88259252 2.81390302,6.87418252 C2.63352562,6.6781027 2.52635355,6.44986023 2.47522566,6.12907507 C2.32501127,6.07278861 2.22659058,5.93792867 2.20100552,5.77010213 C2.19150022,5.72734031 2.19150022,5.72734031 2.18650747,5.68045139 C2.1852246,5.64909832 2.1852246,5.64909832 2.18543883,5.62771909 C2.18547976,5.62074373 2.18547976,5.62074373 2.18549218,5.61342083 C2.18549218,5.52203003 2.1656995,5.43885637 2.13425891,5.38147062 C1.97314925,5.08805907 2.01630528,4.76806517 2.33797228,4.64662196 C2.22921427,4.68767547 2.21186843,4.60521852 2.16853803,4.54692579 C2.16932739,4.54798836 2.16546391,4.54411424 2.15677558,4.53683866 C2.14027997,4.52302529 2.04822968,4.45546261 2.04204881,4.45075171 C1.9721088,4.39744524 1.91872252,4.34861501 1.87150762,4.28860159 C1.80569191,4.20488682 1.77001868,4.11855931 1.77293447,4.01897748 C1.77575134,3.92277406 1.75561646,3.96684329 1.86848117,3.74573694 C1.89390284,3.69596551 1.89515593,3.69183743 1.89927141,3.71555064 C1.90090638,3.72497125 1.89312369,3.71073442 1.84264716,3.62845129 C1.70754171,3.40846737 1.92207441,3.14282757 2.07914331,3.0812332 L2.23646234,3.01954073 C2.22372468,2.8954481 2.26153213,2.77147615 2.34460311,2.59693582 C2.45357377,2.36798141 2.58980782,2.27862355 2.83811512,2.20622015 C2.93143754,2.17900847 2.94844425,2.17365178 2.98606237,2.15815909 C3.07185668,2.12320657 3.20836069,2.12448707 3.29825408,2.20746388 L3.30251704,2.21139883 C3.34185236,2.21412438 3.37668479,2.22260413 3.40421033,2.23754231 L3.42878598,2.25087957 C3.47406821,2.21435856 3.54334114,2.15236518 3.5569166,2.14223878 C3.67593258,2.05346074 3.78998091,2.04223474 3.99564092,2.07438058 C4.15289707,2.09873043 4.36693745,2.15698648 4.55126645,2.21867045 C4.57405195,2.22633578 4.58907846,2.23053736 4.63275276,2.24172038 L4.64731236,2.2453559 C4.75722669,2.27270472 4.81048912,2.28870325 4.89204889,2.32385229 C5.04834633,2.3910214 5.19308023,2.50628167 5.30207744,2.6444924 L5.41171468,2.50353314 L5.60845193,2.76249497 C5.6263194,2.78601361 5.70494769,2.8705071 5.69523789,2.85947855 C5.7380665,2.90812397 5.7694117,2.95830321 5.79084109,3.01550709 L5.88768332,3.09848261 C5.9234538,3.17456743 5.94157689,3.21979466 5.9549871,3.27144093 C5.96530323,3.31592986 5.96530323,3.31592986 5.9715817,3.35620846 C5.97722825,3.39682316 5.97722825,3.39682316 5.9835637,3.44402226 C5.98767124,3.47352695 5.99218666,3.49023573 6.00365137,3.52224347 L6.00899345,3.53707711 C6.04484693,3.63675768 6.05980445,3.7143064 6.05980445,3.84593676 C6.05980445,4.03857197 5.99258962,4.1716227 5.83446271,4.39087525 C5.75480953,4.50131922 5.73788989,4.52622431 5.71868325,4.56426668 C5.70807613,4.58531212 5.69880774,4.60397881 5.69076252,4.62044183 C5.937325,4.78038461 5.92491938,5.10478626 5.76694764,5.37550301 C5.73366656,5.43239853 5.71230089,5.51820406 5.71230089,5.61342083 C5.71230089,5.62294117 5.71269789,5.62846159 5.71502096,5.65169438 C5.7191197,5.6870501 5.72128682,5.71500939 5.72028071,5.74728324 C5.71788941,5.82399125 5.6958503,5.89584476 5.65173804,5.96542495 C5.59320334,6.05834358 5.50723863,6.12193242 5.40664234,6.14854093 C5.34329079,6.4636623 5.29148841,6.59770428 5.16645559,6.76053096 C5.1775175,7.03097136 5.23103086,7.19957511 5.37048218,7.32246882 C5.45080075,7.39329374 5.73233327,7.53157321 6.17934704,7.72202616 C6.25681488,7.75492715 6.25681488,7.75492715 6.33497512,7.78778085 C6.42027725,7.82356442 6.82388885,7.99102045 6.92370553,8.03314888 C7.13213703,8.12111908 7.26527244,8.180906 7.3524038,8.22762707 C7.99303137,8.57110542 8.25,8.9917544 8.24999569,9.7421497 L8.23172232,12.8555908 L-0.254841245,12.8555908 L-0.249954024,12.6007964 L-0.195104989,9.74364966 C-0.195104989,8.86642169 0.256687854,8.49537762 1.42554005,8.0425832 C1.58007254,7.98299425 1.65916629,7.95241533 1.73357507,7.92302783 C2.19941204,7.73904706 2.49153387,7.590829 2.73310982,7.39550151 Z"/>
        </g>
      </g>
    </g>
    <g mask="url(#103-medium-b)">
      <use fill="#61AAF2" xlink:href="#103-medium-g"/>
      <use fill="#000" filter="url(#103-medium-h)" xlink:href="#103-medium-g"/>
    </g>
    <rect width="31" height="23" x=".5" y=".5" stroke="#000" stroke-opacity=".4" mask="url(#103-medium-b)" rx="4" style="mix-blend-mode:multiply"/>
  </g>
</svg>
