<svg xmlns="http://www.w3.org/2000/svg" xmlns:xlink="http://www.w3.org/1999/xlink" width="32" height="32" viewBox="0 0 32 32">
  <defs>
    <rect id="104-medium-a" width="32" height="24" y="4" rx="4"/>
  </defs>
  <g fill="none" fill-rule="evenodd">
    <use fill="#C2DAF2" xlink:href="#104-medium-a"/>
    <rect width="31" height="23" x=".5" y="4.5" stroke="#5986B3" rx="4"/>
    <g transform="translate(2.5 5.5)">
      <path fill="#79BF73" d="M26.6853495,5.04554137 C24.7538753,4.90948947 22.6533558,6.70452421 20.3294647,8.66763974 C19.2550753,9.42981381 18.2278421,8.50862908 17.6233601,7.69741963 C17.8911302,7.16511658 18.4001966,6.99221729 19.0705869,7.05032279 C18.773034,5.50641717 16.409984,3.15045179 12.840452,0 C11.771578,0.615918285 10.9285573,1.99797883 9.81969698,4.20428712 C8.18274226,4.17736019 6.61831435,4.65212462 5.09966381,5.43357272 C2.82348048,6.84170988 -0.300963072,9.59250921 0.0233392776,10.7373293 C-0.00451322008,11.5621439 1.91013917,13.5210078 4.12096564,14.8330583 C4.12096549,14.8330582 4.12096549,14.8330582 5.4151416,15.5036808 C6.35992038,15.9200563 7.30166573,16.1643828 8.12069462,16.1059939 C9.58998281,17.3548369 10.3830896,19.1356996 11.015424,20.9576613 C11.8523778,19.7961182 12.246725,18.3706911 12.211151,16.6884661 C11.8413471,16.6221408 11.4828496,16.4818373 11.1411739,16.2352432 L16.3016075,15.5887132 C17.3630358,16.9333595 18.4098485,18.1892886 19.5109873,18.4350323 C19.1839273,16.9903312 19.1588325,15.5459136 19.637013,14.100929 C19.1039548,14.415549 18.5957157,14.3489403 18.1263597,13.9073385 L18.8819621,13.1307089 C19.7031971,12.4311754 19.8115737,12.8518025 20.6438394,13.2599582 C23.0013741,14.5686074 25.1606321,15.7443226 27,15.8044122 C26.0927256,14.4458773 24.7825551,12.6040747 24.2310205,10.8025208 C24.4036508,9.31360282 25.8368135,6.46359897 26.6853495,5.04554137 Z"/>
      <path fill="#CBF2AA" stroke="#41663D" stroke-linejoin="round" stroke-width=".5" d="M5.4151416,15.5036808 C6.35992038,15.9200563 7.30166573,16.1643828 8.12069462,16.1059939 C9.58998281,17.3548369 10.3830896,19.1356996 11.015424,20.9576613 C11.8523778,19.7961182 12.246725,18.3706911 12.211151,16.6884661 C11.8413471,16.6221408 11.4828496,16.4818373 11.1411739,16.2352432 L16.3016075,15.5887132 C17.3630358,16.9333595 18.4098485,18.1892886 19.5109873,18.4350323 C19.1839273,16.9903312 19.1588325,15.5459136 19.637013,14.100929 C19.1039548,14.415549 18.5957157,14.3489403 18.1263597,13.9073385 L18.8819621,13.1307089 C19.1733646,12.8824903 19.8536293,12.6635978 20.0297119,12.6468506 C17.4386422,11.142745 8.04199219,11.3077225 8.04199219,11.3077225 L4.48811825,15.0233112 C4.67973022,15.1226017 4.97134186,15.2737104 5.4151416,15.5036808 Z"/>
      <path fill="#AFD98D" stroke="#41663D" stroke-width=".5" d="M9.79303507,4.2038928 C8.16575244,4.18252562 6.61006735,4.65636826 5.09966381,5.43357272 C2.82348048,6.84170988 -0.300963072,9.59250921 0.0233392776,10.7373293 C-0.00451322008,11.5621439 1.91013917,13.5210078 4.12096564,14.8330583 C4.12096549,14.8330582 4.12096549,14.8330582 5.4151416,15.5036808 C6.35992038,15.9200563 7.30166573,16.1643828 8.12069462,16.1059939 C8.12571301,16.1102593 8.13072351,16.114531 8.13572615,16.1188088 C9.20255712,15.4386369 11.1603133,14.2690722 11.5945587,10.7977664 C12.0329294,7.2934835 11.4671986,6.15576355 9.79303507,4.2038928 L9.79303507,4.2038928 Z"/>
      <path fill="#41663D" d="M6.05738557,9.48379073 C5.23725361,9.48379073 4.57237864,8.93307453 4.57237864,8.25381222 C4.57237864,7.5745499 5.23725361,7.02406203 6.05738557,7.02406203 C6.87834483,7.02406203 7.54294404,7.5745499 7.54294404,8.25381222 C7.54294404,8.93307453 6.87834483,9.48379073 6.05738557,9.48379073 L6.05738557,9.48379073 Z"/>
      <path stroke="#41663D" d="M26.6853495,5.04554137 C24.7538753,4.90948947 22.6533558,6.70452421 20.3294647,8.66763974 C19.2550753,9.42981381 18.2278421,8.50862908 17.6233601,7.69741963 C17.8911302,7.16511658 18.4001966,6.99221729 19.0705869,7.05032279 C18.773034,5.50641717 16.409984,3.15045179 12.840452,0 C11.771578,0.615918285 10.9285573,1.99797883 9.81969698,4.20428712 C8.18274226,4.17736019 6.61831435,4.65212462 5.09966381,5.43357272 C2.82348048,6.84170988 -0.300963072,9.59250921 0.0233392776,10.7373293 C-0.00451322008,11.5621439 1.91013917,13.5210078 4.12096564,14.8330583 C4.12096549,14.8330582 4.12096549,14.8330582 5.4151416,15.5036808 C6.35992038,15.9200563 7.30166573,16.1643828 8.12069462,16.1059939 C9.58998281,17.3548369 10.3830896,19.1356996 11.015424,20.9576613 C11.8523778,19.7961182 12.246725,18.3706911 12.211151,16.6884661 C11.8413471,16.6221408 11.4828496,16.4818373 11.1411739,16.2352432 L16.3016075,15.5887132 C17.3630358,16.9333595 18.4098485,18.1892886 19.5109873,18.4350323 C19.1839273,16.9903312 19.1588325,15.5459136 19.637013,14.100929 C19.1039548,14.415549 18.5957157,14.3489403 18.1263597,13.9073385 L18.8819621,13.1307089 C19.7031971,12.4311754 19.8115737,12.8518025 20.6438394,13.2599582 C23.0013741,14.5686074 25.1606321,15.7443226 27,15.8044122 C26.0927256,14.4458773 24.7825551,12.6040747 24.2310205,10.8025208 C24.4036508,9.31360282 25.8368135,6.46359897 26.6853495,5.04554137 Z"/>
    </g>
  </g>
</svg>
