<svg xmlns="http://www.w3.org/2000/svg" width="18" height="18" viewBox="0 0 18 18">
  <path fill="#FFF" fill-rule="evenodd" d="M17.790233,4.32474974 C17.2245423,5.54022769 16.2691006,7.98308813 16.1540137,9.25930353 C16.5217034,10.8034926 17.3951504,12.3821805 18,13.546639 C16.7737547,13.4951336 15.3342494,12.4873778 13.7625596,11.3656785 C13.2077158,11.0158307 13.1354648,10.6552932 12.5879747,11.2548934 L12.0842398,11.9205759 C12.3971438,12.2990917 12.7359699,12.3561849 13.091342,12.0865106 C12.772555,13.3250688 12.7892849,14.563141 13.0073249,15.8014563 C12.2732323,15.5908188 11.5753572,14.5143081 10.8677383,13.3617542 L7.42744926,13.9159227 C7.65523306,14.1272891 7.89423139,14.2475492 8.14076736,14.3043995 C8.16448334,15.7463067 7.90158518,16.9681013 7.343616,17.9637097 C6.92205972,16.4020282 6.39332187,14.8755745 5.41379641,13.8051376 C4.86777715,13.8551853 4.23994692,13.6457625 3.6100944,13.2888692 C2.74731033,12.7140499 2.74731033,12.7140499 2.74731043,12.71405 C1.27342611,11.5894353 -0.00300881338,9.91040905 0.0155595184,9.20342507 C-0.200642048,8.22215075 1.88232032,5.86432275 3.39977587,4.65734805 C4.41220956,3.98753539 5.45516151,3.58059444 6.54646465,3.60367468 C7.28570487,1.71255328 7.84771863,0.527929958 8.56030135,0 C10.9399893,2.70038725 12.515356,4.71978615 12.7137246,6.04313382 C12.2667978,5.99332911 11.9274201,6.1415285 11.7489068,6.59778826 C12.1518947,7.29311064 12.8367168,8.08269756 13.5529765,7.42940549 C15.1022372,5.74673504 16.5025835,4.20813383 17.790233,4.32474974 Z M4.49981433,8.5 C5.05254363,8.5 5.5,8.05221387 5.5,7.49990718 C5.5,6.94760048 5.05254363,6.5 4.49981433,6.5 C3.94764203,6.5 3.5,6.94760048 3.5,7.49990718 C3.5,8.05221387 3.94764203,8.5 4.49981433,8.5 Z"/>
</svg>
