<svg xmlns="http://www.w3.org/2000/svg" xmlns:xlink="http://www.w3.org/1999/xlink" width="32" height="32" viewBox="0 0 32 32">
  <defs>
    <path id="105-medium-a" d="M3.53852389,19.8593657 L4.06457915,19.2783995 C4.2132964,19.2087291 4.47518662,19.4825766 4.45670359,18.9368722 C4.12372483,18.6340191 3.94600345,18.061584 3.90192855,17.4484842 L3.80553248,17.4635557 C3.58828587,17.4973957 3.54392662,17.3472488 3.51008847,17.1297064 L3.1603328,15.9174408 C3.11284565,15.7530754 3.2988133,15.307469 3.57406816,15.3805519 C3.5496137,15.2568513 3.53681776,14.9679323 3.53681776,14.8374068 L3.53681776,14.3912317 C3.53681776,13.7164237 3.87775845,13.1178267 4.3958518,12.7586685 C4.56077723,12.6022655 4.75356938,12.4754368 4.96598196,12.3867137 C5.11583663,12.3065216 4.95375473,12.3551487 5.45819908,12.1637683 C6.6613017,11.7079246 9.04362118,12.1822523 9.26598616,13.8569021 C9.31375767,14.0269548 9.3396339,14.2061074 9.3396339,14.3912317 L9.3396339,14.8374068 C9.3396339,14.9349454 9.33252504,15.0307778 9.32456313,15.1254728 C9.5432315,15.1590283 9.75109442,15.4488005 9.71611886,15.6754427 L9.52759202,17.1297064 C9.49944096,17.3478175 9.28845014,17.4973957 9.07091918,17.4635557 C8.98134761,17.4496217 9.22902011,18.3456688 8.57728029,18.7679569 C8.57898642,18.903601 8.59491025,19.1254089 8.6256205,19.1581114 C8.6728233,19.2087291 8.81329428,19.1413336 8.93585094,19.2329005 C9.31461073,19.5155634 9.2415317,19.6796444 9.66521946,19.8641999 C10.3752519,20.0925484 12.6227875,20.8993036 13.1144359,21.2251906 C13.5893074,21.1245239 13.5631468,21.3113544 13.6541402,21.7103243 C13.8361119,22.5068025 14.0808473,25.1790568 14.0989354,27 L3.72824959,27 C2.22147895,27 1,25.7858473 1,24.2803029 L1,20.8757766 C1.8614089,20.5798455 2.69913038,20.1846303 3.53852389,19.8593657 Z"/>
    <path id="105-medium-b" d="M19.0694056,27 C18.9432992,25.6462816 18.9731315,23.9983594 19.2918541,23.1890477 C19.3941229,21.7519181 22.5250975,21.86015 23.4598281,20.8016832 C24.066583,20.1138289 23.9508971,19.1725388 23.7588822,18.8770626 C23.4669839,18.5851643 23.2138464,18.2157444 23.0310745,17.7938485 C22.610073,17.7023135 22.6327332,17.9632032 22.7803222,18.190699 C23.0051346,18.538055 22.8316057,18.775092 22.5239049,19.0055694 C22.6887872,18.5285139 22.5364276,18.4026906 22.4228288,18.2977383 C21.8148812,17.7357074 21.9612776,17.4408275 22.3080373,17.0132665 C21.5838075,17.1176224 21.2552355,17.7184141 21.887334,17.9146032 C21.8414174,18.12898 21.0170059,18.1889101 20.9672133,17.5496557 C20.7886156,16.8892321 21.3762883,16.8257241 21.8685499,16.8257241 C21.8685499,16.439011 21.7856616,16.6244663 21.7546529,16.532335 C21.7015805,16.5147435 21.6699756,16.5069914 21.6267425,16.493276 C21.0337029,16.3048391 20.169338,15.8573015 20.2722031,15.1080262 C20.3702976,14.3927412 20.7394193,14.37187 21.2552355,14.37187 C21.2552355,14.314027 21.2594097,14.2573767 21.2671619,14.2025153 C21.2325754,14.1545116 21.203952,14.10293 21.1914293,14.0507521 C21.0280378,13.3733333 21.702475,12.6377734 22.0936605,12.6544703 C22.2391624,12.6607317 22.4019576,12.64642 22.5528264,12.6273378 C22.5420926,12.4883954 22.5605785,12.3267929 22.6625491,12.3035364 C22.6858056,12.1908321 23.0122904,11.9845056 23.1416917,11.9761571 L23.2335249,11.9701939 C23.5862478,11.4424513 23.3012071,10.9481026 24.5033869,11.087045 C24.9539062,11.1392229 25.0367946,11.4982072 25.1023897,11.832146 C25.19631,11.2113776 25.5883899,10.924548 26.2613363,11.0169775 C26.3114271,11.0238351 26.3179866,11.1004622 26.3755315,11.1663554 C26.4411266,11.1741076 26.5171573,11.1872266 26.6086923,11.2063088 C26.7458458,11.8673288 27.1844386,11.2170426 27.5714499,11.6732269 C27.5899358,11.6946944 27.6066327,11.7155656 27.622137,11.7355422 C27.956374,11.6443054 28.4402871,12.0551694 28.5905596,12.1669793 C28.6650995,12.256129 28.6698701,12.4254837 28.6588382,12.5748617 C28.6648014,12.9851294 29.0047034,12.6589427 29.0047034,13.2677848 C29.0121574,13.2740461 29.6803332,13.1601491 29.7575566,14.1279754 C30.4352735,14.5307891 29.6934522,15.0662839 29.7298277,15.4968264 C29.7381762,15.5984989 29.790056,15.6942081 29.9140904,15.7809726 C30.1555997,15.9503273 30.5336662,16.0660132 30.0047309,16.4402036 C29.8437247,16.5541006 29.5339368,16.6074712 29.5947614,16.8585216 C29.6588657,17.1220948 29.9588143,17.2968163 30.2244746,17.1101684 C30.2161261,17.1101684 29.6961357,17.7881835 29.3505686,17.2702801 C29.2232544,17.0797561 29.2068556,16.5728847 29.5571933,16.416649 C29.8004915,16.3081189 29.7074657,16.0257617 29.5551061,15.8561088 C29.439122,15.7273039 29.2936201,15.7270057 29.192544,15.8567052 C29.0863991,15.9923678 28.9841304,16.1927311 28.9841304,16.6363927 C28.9841304,16.7824909 29.5315515,16.9840469 29.0640372,17.2684912 C28.4402871,17.6477503 28.7274149,17.8260498 28.9581905,18.0126977 C29.3112115,18.2980365 28.9960568,18.5064501 28.65854,18.5991778 C28.5079694,18.640622 28.4393927,18.6841533 28.4847129,18.8481411 C28.4158381,18.5794992 28.5285424,18.3731727 28.615605,18.2270745 C28.7408321,18.0162756 28.6212701,17.7693994 28.4158381,17.6474521 C28.3421926,17.6039208 28.2664601,17.5603895 28.2265067,17.5019502 C28.0499961,17.7404779 27.7736021,18.0642793 28.0213728,18.2124647 C28.0517851,18.2309506 28.1245361,18.2926696 28.1895349,18.3382881 C28.049698,18.2890917 27.3722792,18.7211251 27.3248718,17.778046 C27.1379257,18.2157444 26.8752471,18.5970907 26.5717205,18.8952503 C26.4211499,19.0628161 26.2881707,20.199997 26.8287342,20.8004906 C27.72153,21.791794 30.6159001,21.6656772 31,22.9684085 L31,24.2803029 C31,25.7823501 29.7908273,27 28.2717504,27 L19.0694056,27 L19.0694056,27 Z"/>
    <path id="105-medium-c" d="M7.0799776,27.3079831 L7.12351378,25.0382329 C7.12351378,21.8514205 11.2321086,22.0706251 13.5484556,20.1552737 C13.9686991,19.6790322 13.8778256,18.8433842 13.8971131,18.3537901 C13.4490511,17.9350388 13.1560304,17.4332049 13.0736879,16.3753849 L12.9906036,16.4046864 C12.6964702,16.4280534 12.5440252,16.2529864 12.4998867,15.9692444 C12.4757774,15.8665038 12.4798574,15.8490713 12.4798574,15.745218 C12.4798574,15.4399635 12.409755,15.1617851 12.2951431,14.9525949 C12.0959632,14.5898502 12.0955923,14.2334108 12.4590863,14.0961761 C12.7951328,13.9693268 12.5573781,13.315051 12.3307507,13.0101675 C12.1957386,12.8284242 11.8596921,12.6793205 11.653094,12.4167201 C11.4717179,12.1860174 11.5599951,12.0829059 11.7050217,11.798793 C11.9075398,11.402296 11.8589503,11.3655764 11.6252756,10.9846574 C11.5544314,10.8693061 11.864514,10.5788878 11.8834305,10.5714697 C11.9654021,11.0848016 12.1723712,10.9104765 12.4872756,10.7799181 C12.6122731,10.7283623 12.8923118,10.492467 12.7684271,10.2840186 C12.5058213,9.84115851 12.5558944,9.67758958 12.7832636,9.19986445 C13.0510623,8.63720216 13.4572112,8.68690338 13.9308661,8.49180756 C13.9408807,8.48772761 14.0298996,8.48624399 14.0395434,8.4951457 C13.8859857,8.66316549 13.6593583,8.73883003 13.6593583,8.93466766 C13.6448927,8.85232683 14.3173566,8.60382075 14.3911682,8.64387845 C14.3711389,8.66909996 14.1942138,8.85937402 14.1979229,8.88422463 C14.3396114,8.91575152 14.7439057,8.85343955 14.9883369,8.67837258 C15.4156278,8.37311809 15.3013868,8.24404328 15.9041192,8.33825305 C16.2754023,8.39574327 16.7783593,8.54558873 17.0609945,8.6401694 C17.3013456,8.7210266 17.4975582,8.7366046 17.7850151,8.86048674 C18.1414618,9.01367034 18.4637845,9.32077935 18.647757,9.65236807 C18.7326959,9.80592257 18.8669661,10.0266108 18.9578396,10.1786817 C19.0019782,10.2528626 19.2749696,10.0522032 19.1978199,9.81222795 C19.1978199,9.81185705 19.1685178,9.67425144 19.1711142,9.6709133 C19.3962579,9.96726608 19.5501865,9.95910617 19.5501865,10.4490712 C19.5449937,10.4190279 19.6978096,10.3140619 19.738239,10.3259308 C19.8725092,10.6115274 19.8636073,10.6356362 19.9058913,10.9416325 C19.9544808,11.2906537 20.07206,11.2995554 20.07206,11.7683788 C20.07206,12.2817108 19.5765213,12.7119601 19.3647304,13.1314533 C19.1310557,13.595084 19.0305384,13.8187395 19.3191082,13.9040475 C19.8001813,14.0464749 19.6844567,14.5928174 19.4900987,14.9258897 C19.366214,15.1376763 19.290177,15.4266109 19.290177,15.745218 C19.290177,15.9488446 19.3554576,16.0560361 19.2404748,16.2374084 C19.1577613,16.3687086 19.0246038,16.4406641 18.8413732,16.4121045 L18.6982011,16.3898502 C18.5153413,17.4020489 18.4511735,17.6668748 18.0572647,18.1331018 C18.0620866,18.6608991 18.0991778,19.4728093 18.7115539,20.0124755 C19.3235591,20.5521417 22.4733458,21.6919315 23.2771127,22.1229227 C24.4974139,22.7771984 25,23.5115895 25,25.0315566 L24.9866392,27.3079831 L7.0799776,27.3079831 L7.0799776,27.3079831 Z"/>
  </defs>
  <g fill="none" fill-rule="evenodd">
    <rect width="32" height="24" y="4" fill="#8D85CC" rx="4"/>
    <g stroke-linecap="round" stroke-linejoin="round">
      <use fill="#BAB5E0" xlink:href="#105-medium-a"/>
      <path stroke="#000" stroke-opacity=".4" stroke-width=".5" d="M3.39564357,19.6467264 L3.95852157,19.052011 C4.0391328,19.0142465 4.10003362,19.008371 4.18763013,19.0192778 C3.9198166,18.7161673 3.74895415,18.2580763 3.6780067,17.7182394 C3.42481658,17.696468 3.31523165,17.5014119 3.26988593,17.1990082 L2.92015575,15.9868309 C2.84052601,15.7112117 3.01679974,15.3153101 3.29980361,15.17461 C3.29158039,15.0598588 3.28681776,14.9349257 3.28681776,14.8374068 L3.28681776,14.3912317 C3.28681776,13.6510442 3.6536411,12.9689952 4.22382414,12.577267 C4.41199851,12.3988165 4.63073128,12.2558133 4.84802627,12.1662903 C4.87527832,12.1517069 4.88492443,12.145492 4.90183526,12.1330253 C4.90520391,12.1306573 4.90520391,12.1306573 4.90911872,12.1279557 C4.97296171,12.0841637 5.05216713,12.0504248 5.36962141,11.9299863 C6.95211177,11.3303963 9.29146927,12.1495207 9.50666948,13.7892889 C9.56146557,13.9843471 9.5896339,14.1862844 9.5896339,14.3912317 L9.5896339,14.8374068 C9.5896339,14.8790607 9.58863562,14.919256 9.58653444,14.9628025 C9.83416407,15.1144073 10.0068671,15.4304648 9.96404424,15.707583 L9.77553538,17.1617078 C9.74115316,17.4280972 9.54362729,17.6328093 9.29786043,17.6971337 C9.2966178,17.93692 9.27928026,18.101777 9.21887248,18.2970332 C9.14620084,18.5319299 9.02052877,18.7335173 8.83274512,18.8898955 C8.83322394,18.9055099 8.83343896,18.9206484 8.83317047,18.9343153 C8.87795006,18.9389768 8.91721008,18.9482526 8.96426182,18.966081 C9.00703324,18.9822876 9.04761571,19.0043329 9.0853742,19.0325438 C9.25138105,19.1564323 9.29796792,19.2066035 9.46607161,19.4134653 C9.52890045,19.49078 9.56803133,19.5277911 9.63742567,19.5700708 C9.67260581,19.591505 9.71452122,19.6129873 9.74175933,19.6262049 C10.822426,19.9737503 12.5979644,20.6456868 13.1624287,20.9624439 C13.5791438,20.9001466 13.768844,21.0576351 13.855096,21.453664 C13.8570785,21.4627671 13.8873028,21.6083519 13.8978601,21.6546415 C14.0952423,22.5185703 14.3315346,25.2470095 14.3489231,26.9975168 L14.3514311,27.25 L3.72824959,27.25 C2.08242001,27.25 0.75,25.9229366 0.75,24.2803029 L0.75,20.697321 L0.918773798,20.6393399 C1.33657205,20.4958082 1.69276474,20.3534408 2.39983909,20.0561395 C2.88524099,19.8520442 3.0391724,19.7880799 3.28012644,19.6922611 C3.34168782,19.667875 3.35811324,19.6613685 3.39564357,19.6467264 Z"/>
    </g>
    <g stroke-linecap="round" stroke-linejoin="round">
      <use fill="#BAB5E0" xlink:href="#105-medium-b"/>
      <path stroke="#000" stroke-opacity=".4" stroke-width=".5" d="M28.7091492,18.7861151 L28.4847129,18.8481411 L28.2425453,18.9102285 C28.2150524,18.802994 28.2057056,18.7054236 28.2126736,18.6114488 L28.1065666,18.5741191 C28.1486809,18.5889354 28.0945098,18.5981943 28.0469612,18.6087578 C27.9381145,18.6329394 27.8576954,18.6450968 27.7687366,18.6451934 C27.5597031,18.6454203 27.3900971,18.5700967 27.2706364,18.4198691 C27.1198176,18.6602301 26.9462749,18.8774781 26.7576756,19.0623452 C26.6098179,19.2268918 26.6506731,20.2290224 27.0144996,20.6331849 C27.2957309,20.9454461 27.7350888,21.1217383 28.8469402,21.4345224 L28.8724813,21.4417076 C30.4465013,21.884534 31.0250497,22.1693691 31.25,22.9684085 L31.25,24.2803029 C31.25,25.9246726 29.9246472,27.25 28.2717504,27.25 L18.8416121,27.25 L18.8204833,27.0231885 C18.6755153,25.466996 18.7485659,23.8863218 19.0424847,23.1713021 C19.1024765,22.3282688 19.6935855,22.0012483 21.3783755,21.4964015 L21.4332652,21.4799542 C22.5340942,21.1500252 22.9882146,20.9580471 23.2723449,20.6363047 C23.7093784,20.1408569 23.7607045,19.3386672 23.5821055,19.0538393 C23.4194439,18.8911777 23.2700809,18.7084512 23.1373227,18.5099106 C23.1287009,18.7627737 22.9630332,18.9890034 22.6737808,19.2056624 L22.0213271,19.6943705 L22.2876198,18.9239034 C22.3802147,18.6559975 22.366546,18.5894134 22.2874759,18.5133001 C22.2722127,18.4988734 22.2722127,18.4988734 22.2531204,18.4813114 C22.1486347,18.3847172 22.061326,18.292778 21.9904917,18.2039119 C21.6334512,18.501141 20.7716054,18.2486061 20.7258821,17.6149187 C20.614156,17.2017748 20.7347295,16.8854596 21.0494371,16.7190313 C21.1185737,16.6824695 21.1925515,16.65436 21.2738174,16.63313 C20.4621086,16.3105304 19.9265966,15.7873485 20.0245214,15.074059 C20.1150669,14.4138198 20.3761997,14.184034 20.9547598,14.133429 C20.9524577,14.1254609 20.9503361,14.1174429 20.9483987,14.1093704 C20.7635114,13.3428304 21.4771347,12.3779276 22.1044087,12.4047015 C22.165526,12.4073315 22.2336183,12.4058737 22.3096714,12.4006417 C22.3306637,12.269681 22.3855555,12.1647045 22.4918803,12.1036156 C22.6243711,11.9281335 22.8961009,11.7628152 23.0856394,11.7313653 C23.1161602,11.6712764 23.1438045,11.5964134 23.2006632,11.4365096 C23.3880238,10.9095951 23.6943222,10.7418728 24.532149,10.838705 C24.810745,10.8709713 24.9914748,10.9693901 25.117206,11.1454903 C25.3672994,10.8312828 25.7721613,10.6974419 26.2952462,10.7692879 C26.412722,10.7853709 26.4768745,10.8469652 26.5275899,10.9361873 C26.5683464,10.9432249 26.6121378,10.9516525 26.6597127,10.9615704 L26.8201777,10.9950223 L26.8534787,11.1555187 C26.8845807,11.3054169 26.8422207,11.285736 27.0070546,11.2627781 C27.221328,11.2329344 27.3462688,11.2356791 27.5054832,11.310115 C27.5860486,11.347781 27.6600785,11.4019853 27.7268353,11.4721635 C27.8304537,11.4723594 27.9379756,11.4956153 28.0492567,11.5374024 C28.1787217,11.5860177 28.3099154,11.6584109 28.4475336,11.7510268 C28.5450141,11.8166304 28.8940958,12.0812152 28.7823518,12.0066179 C28.902921,12.1508188 28.9268633,12.3400112 28.9088118,12.5712284 C28.9095725,12.6235694 28.8881011,12.5938026 28.9165018,12.6081835 C28.9305213,12.6152471 28.9305213,12.6152471 28.9487713,12.6247357 C29.1037722,12.7068564 29.19758,12.8305322 29.2353741,13.0318812 C29.3268771,13.0493624 29.4191833,13.0830166 29.5135994,13.139817 C29.7682999,13.2930438 29.9366358,13.5733043 29.9934004,13.9845064 C30.3468974,14.2455694 30.36694,14.5777754 30.1742701,14.9910601 C30.1564416,15.029303 30.1417177,15.0591589 30.1096253,15.1229664 C30.0039908,15.3327868 29.9737619,15.4144896 29.9789892,15.4763674 C29.9815471,15.5075192 29.9986478,15.5350272 30.0576255,15.5762834 C30.0795995,15.5916924 30.0968959,15.6027977 30.1452166,15.6328644 C30.1610401,15.6426543 30.1610401,15.6426543 30.1774322,15.65282 C30.3881962,15.7838242 30.4796747,15.865156 30.5143748,16.0366111 C30.5595151,16.2596518 30.4264094,16.4481255 30.1491094,16.6442988 C30.102828,16.6770386 30.0591868,16.700913 29.9842296,16.7378725 L29.9525171,16.7534734 C29.842088,16.8079264 29.8397438,16.8079971 29.8379095,16.8004059 C29.8678528,16.9213243 29.9833842,16.9740196 30.0807548,16.9056088 L30.2244746,17.1101684 L30.2244746,17.3601684 C30.432576,17.2725469 30.432576,17.2725469 30.3568856,17.335846 C30.3107618,17.3854685 30.2623015,17.432792 30.2088294,17.4782167 C30.0224691,17.6365307 29.8286821,17.730203 29.6169132,17.7134022 C29.4548718,17.7005465 29.3111,17.6205445 29.19588,17.4809089 C29.1952277,17.4813075 29.1945744,17.4817059 29.1939202,17.4821039 C29.000357,17.5997963 28.9404832,17.6678572 28.9371151,17.671594 C28.9393694,17.6687089 28.9734453,17.7051086 29.0732065,17.7845504 L29.0862002,17.7948998 C29.1005921,17.8063832 29.1005921,17.8063832 29.1153436,17.818268 C29.3759633,18.028921 29.4422215,18.3020744 29.2650696,18.5311174 C29.2229665,18.5855534 29.16922,18.6337131 29.1059797,18.6760538 L29.81928,19.1766728 L28.7997152,18.8179773 C28.7752947,18.8258134 28.7503342,18.833222 28.7248846,18.8402139 C28.6817723,18.8520804 28.7103633,18.810047 28.7216905,18.7905273 L28.7091492,18.7861151 Z"/>
    </g>
    <g stroke-linecap="round" stroke-linejoin="round">
      <use fill="#FFF" xlink:href="#105-medium-c"/>
      <path stroke="#000" stroke-opacity=".4" stroke-width=".5" d="M14.7248753,8.54053904 C14.7692344,8.52076356 14.8098096,8.49873038 14.8430126,8.47494972 C14.9489273,8.39928481 15.1695416,8.20073978 15.1899099,8.18554643 C15.3738036,8.04837389 15.5545669,8.03058101 15.9423738,8.09119722 C16.2752301,8.14273734 16.741754,8.26971264 17.1407078,8.40321839 C17.2012767,8.42359453 17.2590874,8.43975905 17.3475829,8.46198173 C17.3641638,8.46613483 17.3641638,8.46613483 17.3809974,8.4703255 C17.6128432,8.52801321 17.7196919,8.56010752 17.883724,8.63079876 C18.28386,8.80275793 18.6513665,9.14357152 18.8665192,9.53135942 C18.8863987,9.56729798 18.9098036,9.60836491 18.9372233,9.65550735 C18.9455013,9.62343403 18.9573586,9.57898114 18.9737777,9.51742617 L19.1734448,9.26071658 L19.370182,9.51967841 C19.4215151,9.5872472 19.6111141,9.79098914 19.5797366,9.75535016 C19.6664706,9.85386403 19.7243154,9.9532679 19.7589038,10.077375 C19.7762045,10.0785733 19.7928754,10.0814201 19.8086601,10.086054 L19.9644828,10.2195647 C20.0373755,10.3746096 20.0720835,10.4612255 20.0962511,10.5543011 C20.1087164,10.6023085 20.117681,10.6495864 20.1269062,10.7121068 C20.131891,10.7458899 20.1388741,10.7982369 20.1535033,10.9071608 C20.1660901,10.9975725 20.1815708,11.0548569 20.2140185,11.145446 C20.2199379,11.1619067 20.2199379,11.1619067 20.2261783,11.1792121 C20.2952127,11.3711429 20.32206,11.5103354 20.32206,11.7683788 C20.32206,12.1135238 20.1921598,12.3706594 19.874082,12.8116935 C19.6828227,13.0768861 19.6419912,13.1369885 19.5879779,13.2439723 C19.4701839,13.4776858 19.4175279,13.5947125 19.3992788,13.6671035 C20.0109731,13.854472 20.0317828,14.4936362 19.7058914,15.0521178 C19.6018063,15.2300559 19.540177,15.4775622 19.540177,15.745218 C19.540177,15.7801357 19.5423586,15.810472 19.5480239,15.8641397 C19.5578356,15.9570861 19.5599243,15.984033 19.5582833,16.0366712 C19.5546444,16.1534006 19.5217513,16.2606413 19.4520018,16.3706612 C19.3289656,16.5659703 19.132855,16.6736845 18.9012372,16.6680725 C18.7346138,17.5550826 18.6352067,17.8208019 18.3086368,18.2217155 C18.3249339,18.9773343 18.460705,19.4581852 18.876901,19.8249646 C19.0944335,20.0167848 19.7348684,20.3313452 20.7810423,20.777074 C20.891647,20.8241978 21.0077297,20.8732302 21.1328083,20.9256997 C21.3256243,21.0065845 22.2333205,21.3831822 22.4568238,21.4775135 C22.9167875,21.6716449 23.210625,21.8035981 23.3952442,21.9025935 C24.7361049,22.6215083 25.25,23.4627372 25.2499957,25.0330239 L25.2351762,27.5579831 L6.82513636,27.5579831 L6.83002358,27.3031887 L6.87351378,25.0382329 C6.87351378,23.2402051 7.80169298,22.4779191 10.3203485,21.5022327 C10.4936661,21.4352474 10.4936661,21.4352474 10.6675623,21.3681267 C10.8051644,21.3149275 10.911899,21.2733386 11.0153362,21.2324864 C12.1179136,20.7970271 12.8060813,20.4447342 13.361002,19.9898616 C13.5111526,19.8197033 13.5939239,19.5659784 13.6259722,19.2178991 C13.6407733,19.0571427 13.6438969,18.923377 13.6437803,18.643036 C13.643746,18.560747 13.6438805,18.5038061 13.644453,18.4571461 C13.1916315,18.0031433 12.9472851,17.4768101 12.8494921,16.6520104 C12.5208447,16.6156796 12.3102141,16.3757526 12.2564981,16.0263584 C12.2418382,15.9638858 12.234534,15.921041 12.2314354,15.8750359 C12.2293554,15.8247287 12.2293554,15.8247287 12.2297316,15.7792913 C12.2298269,15.7630995 12.2298269,15.7630995 12.2298574,15.745218 C12.2298574,15.4887994 12.1730365,15.250024 12.0760051,15.0729216 C11.7934371,14.5583112 11.861368,14.0546166 12.370798,13.8622848 C12.4229674,13.8425921 12.3380889,13.439105 12.1300662,13.1592504 C12.1151788,13.1392102 12.0901495,13.1141119 12.0533767,13.0833184 C12.0072166,13.0446641 11.7906406,12.8857027 11.7840407,12.8806723 C11.645837,12.7753371 11.5434816,12.6817168 11.4565599,12.5712332 C11.3499654,12.4356496 11.2973283,12.3082705 11.3014687,12.1668666 C11.3056438,12.0242751 11.274999,12.0913475 11.4823821,11.6850758 C11.5686778,11.5161231 11.587122,11.4553617 11.5812581,11.4215738 C11.5745716,11.3830466 11.5598062,11.3560363 11.4122447,11.1154926 C11.2468454,10.8461829 11.5938738,10.4164835 11.7921603,10.3387257 L12.0813245,10.2253303 L12.1303028,10.5320478 C12.1513537,10.6638754 12.1575757,10.6741342 12.1160849,10.668103 C12.1160187,10.6680934 12.1400176,10.6591795 12.3310153,10.5749319 C12.3603876,10.5620674 12.3603876,10.5620674 12.3919519,10.5488047 C12.4686559,10.5171678 12.5517642,10.4087942 12.5533905,10.4115304 C12.2619992,9.92012639 12.2740758,9.68798515 12.5575273,9.09242546 C12.756953,8.67341929 12.9917333,8.51942353 13.4732372,8.37902282 C13.6955058,8.31421201 13.7384531,8.30068468 13.8365435,8.26028379 C13.9294469,8.22243505 14.1145654,8.22417159 14.2091115,8.3114431 L14.3054967,8.40041223 C14.3916857,8.392395 14.4641498,8.39904269 14.5104149,8.42415083 L14.7248753,8.54053904 Z"/>
    </g>
    <rect width="31" height="23" x=".5" y="4.5" stroke="#544F7A" rx="4"/>
  </g>
</svg>
