<svg xmlns="http://www.w3.org/2000/svg" xmlns:xlink="http://www.w3.org/1999/xlink" width="64" height="64" viewBox="0 0 64 64">
  <defs>
    <path id="106-large-a" d="M8,0 L48,0 L48,0 C52.418278,-8.11624501e-16 56,3.581722 56,8 L56,56 L56,56 C56,60.418278 52.418278,64 48,64 L8,64 L8,0 Z"/>
    <rect id="106-large-b" width="5" height="62" x="9" y="1"/>
    <filter id="106-large-c" width="110%" height="100.8%" x="-5%" y="-.4%" filterUnits="objectBoundingBox">
      <feOffset dx="-.5" in="SourceAlpha" result="shadowOffsetInner1"/>
      <feComposite in="shadowOffsetInner1" in2="SourceAlpha" k2="-1" k3="1" operator="arithmetic" result="shadowInnerInner1"/>
      <feColorMatrix in="shadowInnerInner1" values="0 0 0 0 0   0 0 0 0 0   0 0 0 0 0  0 0 0 0.25 0"/>
    </filter>
    <path id="106-large-d" d="M32,48 C23.163444,48 16,40.836556 16,32 C16,23.163444 23.163444,16 32,16 C40.836556,16 48,23.163444 48,32 C48,40.836556 40.836556,48 32,48 Z M32,44 C38.627417,44 44,38.627417 44,32 C44,25.372583 38.627417,20 32,20 C25.372583,20 20,25.372583 20,32 C20,38.627417 25.372583,44 32,44 Z"/>
  </defs>
  <g fill="none" fill-rule="evenodd">
    <use fill="#82ADD9" xlink:href="#106-large-a"/>
    <path stroke="#455C73" d="M8.5,0.5 L8.5,63.5 L48,63.5 C52.1421356,63.5 55.5,60.1421356 55.5,56 L55.5,8 C55.5,3.85786438 52.1421356,0.5 48,0.5 L8.5,0.5 Z"/>
    <use fill="#455C73" fill-opacity=".5" xlink:href="#106-large-b"/>
    <use fill="#000" filter="url(#106-large-c)" xlink:href="#106-large-b"/>
    <path stroke="#455C73" stroke-width="2" d="M32,38 C39.7319865,38 46,35.3137085 46,32 C46,28.6862915 39.7319865,26 32,26 C24.2680135,26 18,28.6862915 18,32 C18,35.3137085 24.2680135,38 32,38 L32,38 Z M26.1890895,35.5005732 C22.4982619,34.8183703 20,33.5064352 20,32 C20,30.4935648 22.4982619,29.1816297 26.1890895,28.4994268 C26.8552391,22.4614224 29.2043293,18 32,18 C34.7956707,18 37.1447609,22.4614224 37.8109105,28.4994268 C41.5017381,29.1816297 44,30.4935648 44,32 C44,33.5064352 41.5017381,34.8183703 37.8109105,35.5005732 C37.1447609,41.5385776 34.7956707,46 32,46 C29.2043293,46 26.8552391,41.5385776 26.1890895,35.5005732 Z M26.1890895,35.5005732 C27.9107424,35.8187991 29.8918886,36 32,36 C34.1081114,36 36.0892576,35.8187991 37.8109105,35.5005732 C37.9343481,34.3817309 38,33.2087549 38,32 C38,30.7912451 37.9343481,29.6182691 37.8109105,28.4994268 C36.0892576,28.1812009 34.1081114,28 32,28 C29.8918886,28 27.9107424,28.1812009 26.1890895,28.4994268 C26.0656519,29.6182691 26,30.7912451 26,32 C26,33.2087549 26.0656519,34.3817309 26.1890895,35.5005732 Z M32,44 C34.209139,44 36,38.627417 36,32 C36,25.372583 34.209139,20 32,20 C29.790861,20 28,25.372583 28,32 C28,38.627417 29.790861,44 32,44 L32,44 Z"/>
    <g>
      <use fill="#FFF" xlink:href="#106-large-d"/>
      <path stroke="#455C73" stroke-width=".5" d="M32,48.25 C23.0253728,48.25 15.75,40.9746272 15.75,32 C15.75,23.0253728 23.0253728,15.75 32,15.75 C40.9746272,15.75 48.25,23.0253728 48.25,32 C48.25,40.9746272 40.9746272,48.25 32,48.25 Z M32,43.75 C38.4893458,43.75 43.75,38.4893458 43.75,32 C43.75,25.5106542 38.4893458,20.25 32,20.25 C25.5106542,20.25 20.25,25.5106542 20.25,32 C20.25,38.4893458 25.5106542,43.75 32,43.75 Z"/>
    </g>
    <path fill="#FFF" d="M32,38 C39.7319865,38 46,35.3137085 46,32 C46,28.6862915 39.7319865,26 32,26 C24.2680135,26 18,28.6862915 18,32 C18,35.3137085 24.2680135,38 32,38 L32,38 Z M26.1890895,35.5005732 C22.4982619,34.8183703 20,33.5064352 20,32 C20,30.4935648 22.4982619,29.1816297 26.1890895,28.4994268 C26.8552391,22.4614224 29.2043293,18 32,18 C34.7956707,18 37.1447609,22.4614224 37.8109105,28.4994268 C41.5017381,29.1816297 44,30.4935648 44,32 C44,33.5064352 41.5017381,34.8183703 37.8109105,35.5005732 C37.1447609,41.5385776 34.7956707,46 32,46 C29.2043293,46 26.8552391,41.5385776 26.1890895,35.5005732 Z M26.1890895,35.5005732 C27.9107424,35.8187991 29.8918886,36 32,36 C34.1081114,36 36.0892576,35.8187991 37.8109105,35.5005732 C37.9343481,34.3817309 38,33.2087549 38,32 C38,30.7912451 37.9343481,29.6182691 37.8109105,28.4994268 C36.0892576,28.1812009 34.1081114,28 32,28 C29.8918886,28 27.9107424,28.1812009 26.1890895,28.4994268 C26.0656519,29.6182691 26,30.7912451 26,32 C26,33.2087549 26.0656519,34.3817309 26.1890895,35.5005732 Z M32,44 C34.209139,44 36,38.627417 36,32 C36,25.372583 34.209139,20 32,20 C29.790861,20 28,25.372583 28,32 C28,38.627417 29.790861,44 32,44 L32,44 Z"/>
  </g>
</svg>
