<svg xmlns="http://www.w3.org/2000/svg" xmlns:xlink="http://www.w3.org/1999/xlink" width="18" height="18" viewBox="0 0 18 18">
  <defs>
    <path id="106-mono-black-a" d="M2,0 L13.75,0 C14.9926407,-2.28269391e-16 16,1.00735931 16,2.25 L16,15.75 C16,16.9926407 14.9926407,18 13.75,18 L2,18 L2,0 Z M9,12.5 C10.9329966,12.5 12.5,10.9329966 12.5,9 C12.5,7.06700338 10.9329966,5.5 9,5.5 C7.06700338,5.5 5.5,7.06700338 5.5,9 C5.5,10.9329966 7.06700338,12.5 9,12.5 Z"/>
  </defs>
  <g fill="none" fill-rule="evenodd">
    <use fill="#000" fill-opacity=".2" xlink:href="#106-mono-black-a"/>
    <path stroke="#000" d="M2.5,0.5 L2.5,17.5 L13.75,17.5 C14.7164983,17.5 15.5,16.7164983 15.5,15.75 L15.5,2.25 C15.5,1.28350169 14.7164983,0.5 13.75,0.5 L2.5,0.5 Z M9,13 C6.790861,13 5,11.209139 5,9 C5,6.790861 6.790861,5 9,5 C11.209139,5 13,6.790861 13,9 C13,11.209139 11.209139,13 9,13 Z"/>
    <circle cx="9" cy="9" r="4.5" fill="#000" fill-opacity=".1"/>
    <path fill="#000" d="M9,11 C11.209139,11 13,10.1045695 13,9 C13,7.8954305 11.209139,7 9,7 C6.790861,7 5,7.8954305 5,9 C5,10.1045695 6.790861,11 9,11 L9,11 Z M9,10 C10.6568542,10 12,9.55228475 12,9 C12,8.44771525 10.6568542,8 9,8 C7.34314575,8 6,8.44771525 6,9 C6,9.55228475 7.34314575,10 9,10 L9,10 Z"/>
    <path fill="#000" d="M9,13 C7.8954305,13 7,11.209139 7,9 C7,6.790861 7.8954305,5 9,5 C10.1045695,5 11,6.790861 11,9 C11,11.209139 10.1045695,13 9,13 Z M9,12 C9.55228475,12 10,10.6568542 10,9 C10,7.34314575 9.55228475,6 9,6 C8.44771525,6 8,7.34314575 8,9 C8,10.6568542 8.44771525,12 9,12 Z"/>
  </g>
</svg>
