<svg xmlns="http://www.w3.org/2000/svg" xmlns:xlink="http://www.w3.org/1999/xlink" width="32" height="32" viewBox="0 0 32 32">
  <defs>
    <path id="106-medium-a" d="M4,0 L24,0 L24,0 C26.209139,-4.05812251e-16 28,1.790861 28,4 L28,28 L28,28 C28,30.209139 26.209139,32 24,32 L4,32 L4,0 Z"/>
    <rect id="106-medium-b" width="2" height="30" x="5" y="1"/>
    <filter id="106-medium-c" width="125%" height="101.7%" x="-12.5%" y="-.8%" filterUnits="objectBoundingBox">
      <feOffset dx="-.5" in="SourceAlpha" result="shadowOffsetInner1"/>
      <feComposite in="shadowOffsetInner1" in2="SourceAlpha" k2="-1" k3="1" operator="arithmetic" result="shadowInnerInner1"/>
      <feColorMatrix in="shadowInnerInner1" values="0 0 0 0 0   0 0 0 0 0   0 0 0 0 0  0 0 0 0.25 0"/>
    </filter>
    <path id="106-medium-d" d="M16,24 C11.581722,24 8,20.418278 8,16 C8,11.581722 11.581722,8 16,8 C20.418278,8 24,11.581722 24,16 C24,20.418278 20.418278,24 16,24 Z M16,22 C19.3137085,22 22,19.3137085 22,16 C22,12.6862915 19.3137085,10 16,10 C12.6862915,10 10,12.6862915 10,16 C10,19.3137085 12.6862915,22 16,22 Z"/>
  </defs>
  <g fill="none" fill-rule="evenodd">
    <use fill="#82ADD9" xlink:href="#106-medium-a"/>
    <path stroke="#455C73" d="M4.5,0.5 L4.5,31.5 L24,31.5 C25.9329966,31.5 27.5,29.9329966 27.5,28 L27.5,4 C27.5,2.06700338 25.9329966,0.5 24,0.5 L4.5,0.5 Z"/>
    <use fill="#455C73" fill-opacity=".5" xlink:href="#106-medium-b"/>
    <use fill="#000" filter="url(#106-medium-c)" xlink:href="#106-medium-b"/>
    <path stroke="#455C73" stroke-width="2" d="M16,19 C19.8659932,19 23,17.6568542 23,16 C23,14.3431458 19.8659932,13 16,13 C12.1340068,13 9,14.3431458 9,16 C9,17.6568542 12.1340068,19 16,19 L16,19 Z M13.0945447,17.7502866 C11.2491309,17.4091851 10,16.7532176 10,16 C10,15.2467824 11.2491309,14.5908149 13.0945447,14.2497134 C13.4276195,11.2307112 14.6021647,9 16,9 C17.3978353,9 18.5723805,11.2307112 18.9054553,14.2497134 C20.7508691,14.5908149 22,15.2467824 22,16 C22,16.7532176 20.7508691,17.4091851 18.9054553,17.7502866 C18.5723805,20.7692888 17.3978353,23 16,23 C14.6021647,23 13.4276195,20.7692888 13.0945447,17.7502866 Z M13.0945447,17.7502866 C13.9553712,17.9093995 14.9459443,18 16,18 C17.0540557,18 18.0446288,17.9093995 18.9054553,17.7502866 C18.967174,17.1908655 19,16.6043775 19,16 C19,15.3956225 18.967174,14.8091345 18.9054553,14.2497134 C18.0446288,14.0906005 17.0540557,14 16,14 C14.9459443,14 13.9553712,14.0906005 13.0945447,14.2497134 C13.032826,14.8091345 13,15.3956225 13,16 C13,16.6043775 13.032826,17.1908655 13.0945447,17.7502866 Z M16,22 C17.1045695,22 18,19.3137085 18,16 C18,12.6862915 17.1045695,10 16,10 C14.8954305,10 14,12.6862915 14,16 C14,19.3137085 14.8954305,22 16,22 L16,22 Z"/>
    <g>
      <use fill="#FFF" xlink:href="#106-medium-d"/>
      <path stroke="#455C73" stroke-width=".5" d="M16,24.25 C11.4436508,24.25 7.75,20.5563492 7.75,16 C7.75,11.4436508 11.4436508,7.75 16,7.75 C20.5563492,7.75 24.25,11.4436508 24.25,16 C24.25,20.5563492 20.5563492,24.25 16,24.25 Z M16,21.75 C19.1756373,21.75 21.75,19.1756373 21.75,16 C21.75,12.8243627 19.1756373,10.25 16,10.25 C12.8243627,10.25 10.25,12.8243627 10.25,16 C10.25,19.1756373 12.8243627,21.75 16,21.75 Z"/>
    </g>
    <path fill="#FFF" d="M16,19 C19.8659932,19 23,17.6568542 23,16 C23,14.3431458 19.8659932,13 16,13 C12.1340068,13 9,14.3431458 9,16 C9,17.6568542 12.1340068,19 16,19 L16,19 Z M13.0945447,17.7502866 C11.2491309,17.4091851 10,16.7532176 10,16 C10,15.2467824 11.2491309,14.5908149 13.0945447,14.2497134 C13.4276195,11.2307112 14.6021647,9 16,9 C17.3978353,9 18.5723805,11.2307112 18.9054553,14.2497134 C20.7508691,14.5908149 22,15.2467824 22,16 C22,16.7532176 20.7508691,17.4091851 18.9054553,17.7502866 C18.5723805,20.7692888 17.3978353,23 16,23 C14.6021647,23 13.4276195,20.7692888 13.0945447,17.7502866 Z M13.0945447,17.7502866 C13.9553712,17.9093995 14.9459443,18 16,18 C17.0540557,18 18.0446288,17.9093995 18.9054553,17.7502866 C18.967174,17.1908655 19,16.6043775 19,16 C19,15.3956225 18.967174,14.8091345 18.9054553,14.2497134 C18.0446288,14.0906005 17.0540557,14 16,14 C14.9459443,14 13.9553712,14.0906005 13.0945447,14.2497134 C13.032826,14.8091345 13,15.3956225 13,16 C13,16.6043775 13.032826,17.1908655 13.0945447,17.7502866 Z M16,22 C17.1045695,22 18,19.3137085 18,16 C18,12.6862915 17.1045695,10 16,10 C14.8954305,10 14,12.6862915 14,16 C14,19.3137085 14.8954305,22 16,22 L16,22 Z"/>
  </g>
</svg>
