<svg xmlns="http://www.w3.org/2000/svg" width="18" height="18" viewBox="0 0 18 18">
  <path fill="#FFF" d="M2,0 L13.75,0 C14.9926407,-2.28269391e-16 16,1.00735931 16,2.25 L16,15.75 C16,16.9926407 14.9926407,18 13.75,18 L2,18 L2,0 Z M9,14 C11.7614237,14 14,11.7614237 14,9 C14,6.23857625 11.7614237,4 9,4 C6.23857625,4 4,6.23857625 4,9 C4,11.7614237 6.23857625,14 9,14 Z M6.8,9 C6.8,6.46207135 7.48735712,4.4 9,4.4 C10.5126429,4.4 11.2,6.46207135 11.2,9 C11.2,11.5379286 10.5126429,13.6 9,13.6 C7.48735712,13.6 6.8,11.5379286 6.8,9 Z M7.8,9 C7.8,10.9882251 8.3372583,12.6 9,12.6 C9.6627417,12.6 10.2,10.9882251 10.2,9 C10.2,7.0117749 9.6627417,5.4 9,5.4 C8.3372583,5.4 7.8,7.0117749 7.8,9 Z M9,6.8 C11.5379286,6.8 13.6,7.48735712 13.6,9 C13.6,10.5126429 11.5379286,11.2 9,11.2 C6.46207135,11.2 4.4,10.5126429 4.4,9 C4.4,7.48735712 6.46207135,6.8 9,6.8 Z M9,7.8 C7.0117749,7.8 5.4,8.3372583 5.4,9 C5.4,9.6627417 7.0117749,10.2 9,10.2 C10.9882251,10.2 12.6,9.6627417 12.6,9 C12.6,8.3372583 10.9882251,7.8 9,7.8 Z"/>
</svg>
