<svg xmlns="http://www.w3.org/2000/svg" xmlns:xlink="http://www.w3.org/1999/xlink" width="18" height="18" viewBox="0 0 18 18">
  <defs>
    <polygon id="107-mono-black-a" points="15.153 6.451 18 7.875 18 10.125 15.153 11.549 16.159 14.568 14.568 16.159 11.549 15.153 11.549 15.153 10.125 18 7.875 18 6.451 15.153 3.432 16.159 1.841 14.568 2.847 11.549 0 10.125 0 7.875 2.847 6.451 1.841 3.432 3.432 1.841 6.451 2.847 7.875 0 10.125 0 11.549 2.847 14.568 1.841 16.159 3.432 15.153 6.451"/>
  </defs>
  <g fill="none" fill-rule="evenodd">
    <use fill="#000" fill-opacity=".1" xlink:href="#107-mono-black-a"/>
    <path stroke="#000" d="M15.5873948,3.56657948 L14.4334205,2.41260524 L11.2953049,3.45864379 L9.81598301,0.5 L8.18401699,0.5 L6.7046951,3.45864379 L3.56657948,2.41260524 L2.41260524,3.56657948 L3.45864379,6.7046951 L0.5,8.18401699 L0.5,9.81598301 L3.45864379,11.2953049 L2.41260524,14.4334205 L3.56657948,15.5873948 L6.7046951,14.5413562 L8.18401699,17.5 L9.81598301,17.5 L11.2953049,14.5413562 L14.4334205,15.5873948 L15.5873948,14.4334205 L14.5413562,11.2953049 L17.5,9.81598301 L17.5,8.18401699 L14.5413562,6.7046951 L15.5873948,3.56657948 Z"/>
    <path fill="#000" fill-opacity=".1" fill-rule="nonzero" d="M11.8791913,6.50209565 L14.625,7.875 L14.625,10.125 L11.8792267,11.4978866 C12.4604294,10.8287137 12.8125,9.95522925 12.8125,9 C12.8125,8.04510802 12.4605076,7.17145967 11.8791913,6.50209565 Z M11.4979044,11.8791913 L10.125,14.625 L7.875,14.625 L6.50211337,11.8792267 C7.17128632,12.4604294 8.04477075,12.8125 9,12.8125 C9.95489198,12.8125 10.8285403,12.4605076 11.4979044,11.8791913 Z M6.12080871,11.4979044 L3.375,10.125 L3.375,7.875 L6.12077326,6.50211337 C5.53957059,7.17128632 5.1875,8.04477075 5.1875,9 C5.1875,9.95489198 5.53949242,10.8285403 6.12080871,11.4979044 Z M6.50209565,6.12080871 L7.875,3.375 L10.125,3.375 L11.4978866,6.12077326 C10.8287137,5.53957059 9.95522925,5.1875 9,5.1875 C8.04510802,5.1875 7.17145967,5.53949242 6.50209565,6.12080871 Z"/>
    <path fill="#000" fill-rule="nonzero" d="M11.625,6.375 L10.125,3.375 L7.875,3.375 L6.375,6.375 L3.375,7.875 L3.375,10.125 L6.375,11.625 L7.875,14.625 L10.125,14.625 L11.625,11.625 L14.625,10.125 L14.625,7.875 L11.625,6.375 L11.625,6.375 L11.625,6.375 Z M12.5194272,5.9277864 L12.5194272,5.9277864 L12.0722136,5.48057281 L15.0722136,6.98057281 L15.625,7.25696601 L15.625,7.875 L15.625,10.125 L15.625,10.743034 L15.0722136,11.0194272 L12.0722136,12.5194272 L12.5194272,12.0722136 L11.0194272,15.0722136 L10.743034,15.625 L10.125,15.625 L7.875,15.625 L7.25696601,15.625 L6.98057281,15.0722136 L5.48057281,12.0722136 L5.9277864,12.5194272 L2.9277864,11.0194272 L2.375,10.743034 L2.375,10.125 L2.375,7.875 L2.375,7.25696601 L2.9277864,6.98057281 L5.9277864,5.48057281 L5.48057281,5.9277864 L6.98057281,2.9277864 L7.25696601,2.375 L7.875,2.375 L10.125,2.375 L10.743034,2.375 L11.0194272,2.9277864 L12.5194272,5.9277864 Z"/>
    <path fill="#000" fill-rule="nonzero" d="M6.1875,9 L6.1875,9 C6.1875,10.5501402 7.44669914,11.8125 9,11.8125 L9,11.8125 C10.5501402,11.8125 11.8125,10.5533009 11.8125,9 L11.8125,9 C11.8125,7.4498598 10.5533009,6.1875 9,6.1875 L9,6.1875 C7.4498598,6.1875 6.1875,7.44669914 6.1875,9 L6.1875,9 Z M5.1875,9 L5.1875,9 C5.1875,6.89533137 6.89665707,5.1875 9,5.1875 C11.1046686,5.1875 12.8125,6.89665707 12.8125,9 C12.8125,11.1046686 11.1033429,12.8125 9,12.8125 C6.89533137,12.8125 5.1875,11.1033429 5.1875,9 L5.1875,9 Z"/>
  </g>
</svg>
