<svg xmlns="http://www.w3.org/2000/svg" xmlns:xlink="http://www.w3.org/1999/xlink" width="16" height="16" viewBox="0 0 16 16">
  <defs>
    <path id="107-mini-a" d="M12,6.34314575 L12,9.65685425 L12,9.65685425 L9.65685425,12 L6.34314575,12 L6.34314575,12 L4,9.65685425 L4,6.34314575 L6.34314575,4 L9.65685425,4 L12,6.34314575 L12,6.34314575 Z M13.4691816,5.7345908 L16,7 L16,9 L13.4691816,10.2654092 L14.363961,12.9497475 L12.9497475,14.363961 L10.2654092,13.4691816 L10.2654092,13.4691816 L9,16 L7,16 L5.7345908,13.4691816 L3.05025253,14.363961 L1.63603897,12.9497475 L2.53081839,10.2654092 L0,9 L1.11022302e-16,7 L2.53081839,5.7345908 L1.63603897,3.05025253 L3.05025253,1.63603897 L5.7345908,2.53081839 L7,0 L9,0 L10.2654092,2.53081839 L12.9497475,1.63603897 L14.363961,3.05025253 L13.4691816,5.7345908 L13.4691816,5.7345908 Z"/>
    <path id="107-mini-b" d="M12.2083972,6.25682482 L14.5749178,7.85697539 L14.3138654,9.83986511 L11.6138326,10.7729913 L11.6138326,10.7729913 L11.4113218,13.6225335 L9.56356278,14.3879004 L7.40543541,12.5161664 L7.40543541,12.5161664 L4.83640405,13.7655581 L3.24969737,12.5480353 L3.79160283,9.74317518 L1.42508221,8.14302461 L1.68613459,6.16013489 L4.38616742,5.22700873 L4.58867816,2.37746647 L6.43643722,1.61209961 L8.59456459,3.48383355 L11.1635959,2.23444186 L12.7503026,3.45196472 L12.2083972,6.25682482 L12.2083972,6.25682482 Z M10.6670105,6.89528809 L10.2902138,9.75734287 L7.62320334,10.8620548 L5.33298952,9.10471191 L5.70978618,6.24265713 L8.37679666,5.13794521 L10.6670105,6.89528809 L10.6670105,6.89528809 Z"/>
    <path id="107-mini-c" d="M10.3333333,5.66666667 L9,3 L7,3 L5.66666667,5.66666667 L3,7 L3,9 L5.66666667,10.3333333 L7,13 L9,13 L10.3333333,10.3333333 L13,9 L13,7 L10.3333333,5.66666667 L10.3333333,5.66666667 Z M9,7 L7,7 L7,9 L9,9 L9,7 L9,7 Z"/>
    <rect id="107-mini-d" width="5" height="5" x="5.5" y="5.5" rx="2.5"/>
  </defs>
  <g fill="none" fill-rule="evenodd">
    <use fill="#C76" xlink:href="#107-mini-a"/>
    <path stroke="#804A40" stroke-width=".5" d="M12.25,6.34314575 L12.25,9.65685425 L12.1767767,9.83363094 L9.83363094,12.1767767 L9.65685425,12.25 L6.34314575,12.25 L6.16636906,12.1767767 L3.8232233,9.83363094 L3.75,9.65685425 L3.75,6.34314575 L3.8232233,6.16636906 L6.16636906,3.8232233 L6.34314575,3.75 L9.65685425,3.75 L9.83363094,3.8232233 L12.1767767,6.16636906 L12.25,6.34314575 Z M14.0779303,3.11777522 L12.8822248,1.92206967 L10.138769,2.83655494 L8.8454915,0.25 L7.1545085,0.25 L5.86123103,2.83655494 L3.11777522,1.92206967 L1.92206967,3.11777522 L2.83655494,5.86123103 L0.25,7.1545085 L0.25,8.8454915 L2.83655494,10.138769 L1.92206967,12.8822248 L3.11777522,14.0779303 L5.86123103,13.1634451 L7.1545085,15.75 L8.8454915,15.75 L10.138769,13.1634451 L12.8822248,14.0779303 L14.0779303,12.8822248 L13.1634451,10.138769 L15.75,8.8454915 L15.75,7.1545085 L13.1634451,5.86123103 L14.0779303,3.11777522 Z"/>
    <use fill="#FF9580" xlink:href="#107-mini-b"/>
    <path stroke="#99594D" stroke-width=".5" d="M12.4851696,6.14218193 L14.8429464,7.73642028 L14.5415592,10.0256833 L11.8515024,10.9553618 L11.6497399,13.7943756 L9.5164864,14.6779981 L7.36633285,12.8131798 L4.80679353,14.0579553 L2.97492718,12.6523148 L3.51483042,9.85781807 L1.15705359,8.26357972 L1.45844078,5.97431669 L4.14849756,5.04463823 L4.35026006,2.20562443 L6.4835136,1.32200188 L8.63366715,3.18682016 L11.1932065,1.94204471 L13.0250728,3.3476852 L12.4851696,6.14218193 Z M10.4003094,7.00575928 L8.33911699,5.42415069 L5.93880756,6.41839141 L5.59969056,8.99424072 L7.66088301,10.5758493 L10.0611924,9.58160859 L10.4003094,7.00575928 Z"/>
    <g>
      <use fill="#FFBFB3" xlink:href="#107-mini-c"/>
      <path stroke="#99594D" stroke-width=".5" d="M10.5196723,5.48032767 L13.25,6.8454915 L13.25,9.1545085 L10.5196723,10.5196723 L9.1545085,13.25 L6.8454915,13.25 L5.48032767,10.5196723 L2.75,9.1545085 L2.75,6.8454915 L5.48032767,5.48032767 L6.8454915,2.75 L9.1545085,2.75 L10.5196723,5.48032767 Z M8.75,7.25 L7.25,7.25 L7.25,8.75 L8.75,8.75 L8.75,7.25 Z"/>
    </g>
    <g>
      <use fill="#FFBFB3" xlink:href="#107-mini-d"/>
      <rect width="5.5" height="5.5" x="5.25" y="5.25" stroke="#99594D" stroke-width=".5" rx="2.75"/>
    </g>
  </g>
</svg>
