<svg xmlns="http://www.w3.org/2000/svg" width="18" height="18" viewBox="0 0 18 18">
  <g fill="#FFF" fill-rule="evenodd">
    <path fill-rule="nonzero" d="M15.1528293,6.45141465 L18,7.875 L18,10.125 L15.1528293,11.5485853 L16.1594562,14.5684659 L14.5684659,16.1594562 L11.5485853,15.1528293 L11.5485853,15.1528293 L10.125,18 L7.875,18 L6.45141465,15.1528293 L3.4315341,16.1594562 L1.84054384,14.5684659 L2.84717069,11.5485853 L0,10.125 L1.2490009e-16,7.875 L2.84717069,6.45141465 L1.84054384,3.4315341 L3.4315341,1.84054384 L6.45141465,2.84717069 L7.875,0 L10.125,0 L11.5485853,2.84717069 L14.5684659,1.84054384 L16.1594562,3.4315341 L15.1528293,6.45141465 L15.1528293,6.45141465 Z M12.5194272,5.9277864 L11.0194272,2.9277864 L10.743034,2.375 L10.125,2.375 L7.875,2.375 L7.25696601,2.375 L6.98057281,2.9277864 L5.48057281,5.9277864 L5.9277864,5.48057281 L2.9277864,6.98057281 L2.375,7.25696601 L2.375,7.875 L2.375,10.125 L2.375,10.743034 L2.9277864,11.0194272 L5.9277864,12.5194272 L5.48057281,12.0722136 L6.98057281,15.0722136 L7.25696601,15.625 L7.875,15.625 L10.125,15.625 L10.743034,15.625 L11.0194272,15.0722136 L12.5194272,12.0722136 L12.0722136,12.5194272 L15.0722136,11.0194272 L15.625,10.743034 L15.625,10.125 L15.625,7.875 L15.625,7.25696601 L15.0722136,6.98057281 L12.0722136,5.48057281 L12.5194272,5.9277864 Z"/>
    <path d="M11.8791913,6.50209565 L14.625,7.875 L14.625,10.125 L11.8792267,11.4978866 C12.4604294,10.8287137 12.8125,9.95522925 12.8125,9 C12.8125,8.04510802 12.4605076,7.17145967 11.8791913,6.50209565 Z M11.4979044,11.8791913 L10.125,14.625 L7.875,14.625 L6.50211337,11.8792267 C7.17128632,12.4604294 8.04477075,12.8125 9,12.8125 C9.95489198,12.8125 10.8285403,12.4605076 11.4979044,11.8791913 Z M6.12080871,11.4979044 L3.375,10.125 L3.375,7.875 L6.12077326,6.50211337 C5.53957059,7.17128632 5.1875,8.04477075 5.1875,9 C5.1875,9.95489198 5.53949242,10.8285403 6.12080871,11.4979044 Z M6.50209565,6.12080871 L7.875,3.375 L10.125,3.375 L11.4978866,6.12077326 C10.8287137,5.53957059 9.95522925,5.1875 9,5.1875 C8.04510802,5.1875 7.17145967,5.53949242 6.50209565,6.12080871 Z"/>
    <path fill-rule="nonzero" d="M6.1875,9 L6.1875,9 C6.1875,10.5501402 7.44669914,11.8125 9,11.8125 L9,11.8125 C10.5501402,11.8125 11.8125,10.5533009 11.8125,9 L11.8125,9 C11.8125,7.4498598 10.5533009,6.1875 9,6.1875 L9,6.1875 C7.4498598,6.1875 6.1875,7.44669914 6.1875,9 L6.1875,9 Z"/>
  </g>
</svg>
