<svg xmlns="http://www.w3.org/2000/svg" xmlns:xlink="http://www.w3.org/1999/xlink" width="64" height="64" viewBox="0 0 64 64">
  <defs>
    <rect id="108-large-a" width="64" height="48" y="8" rx="8"/>
    <path id="108-large-b" d="M40,30 L36,30 L36,46.3022021 C37.2727133,45.9515696 38.6671346,45.658785 40,45.3274146 L40,30 Z M42,30 L46,30 L46,41 C46,42.9786887 44.2718208,44.0265141 42,44.7667796 L42,30 Z M34,30 L30,30 L30,46.9939944 C30.8126101,47.3292031 31.5041763,47.7288329 32,48.2338867 C32.4794064,47.7164139 33.1736128,47.3083264 34,46.9661502 L34,30 Z M28,30 L24,30 L24,45.3619321 C25.3302558,45.6904418 26.7235835,45.980698 28,46.3314955 L28,30 Z M22,30 L18,30 L18,41 C18,43.0126289 19.7258697,44.0652019 22,44.8041212 L22,30 Z"/>
  </defs>
  <g fill="none" fill-rule="evenodd">
    <use fill="#6CA3D9" xlink:href="#108-large-a"/>
    <rect width="63" height="47" x=".5" y="8.5" stroke="#000" stroke-opacity=".4" rx="8"/>
    <path stroke="#000" stroke-opacity=".4" d="M37.5,19.9650629 L35.3286978,22.0815595 L36.1144968,26.663119 L32,24.5 L27.8855032,26.663119 L28.6713022,22.0815595 L26.5,19.9650629 L24.3286978,22.0815595 L25.1144968,26.663119 L21,24.5 L16.8855032,26.663119 L17.6713022,22.0815595 L14.3426044,18.836881 L18.9427516,18.1684405 L21,14 L23.0572484,18.1684405 L26.5,18.6687016 L29.9427516,18.1684405 L32,14 L34.0572484,18.1684405 L37.5,18.6687016 L40.9427516,18.1684405 L43,14 L45.0572484,18.1684405 L49.6573956,18.836881 L46.3286978,22.0815595 L47.1144968,26.663119 L43,24.5 L38.8855032,26.663119 L39.6713022,22.0815595 L37.5,19.9650629 Z"/>
    <use stroke="#000" stroke-opacity=".4" stroke-width="5" xlink:href="#108-large-b"/>
    <use stroke="#FFF" stroke-width="4" xlink:href="#108-large-b"/>
    <path fill="#FFF" d="M37.5,19.9650629 L35.3286978,22.0815595 L36.1144968,26.663119 L32,24.5 L27.8855032,26.663119 L28.6713022,22.0815595 L26.5,19.9650629 L24.3286978,22.0815595 L25.1144968,26.663119 L21,24.5 L16.8855032,26.663119 L17.6713022,22.0815595 L14.3426044,18.836881 L18.9427516,18.1684405 L21,14 L23.0572484,18.1684405 L26.5,18.6687016 L29.9427516,18.1684405 L32,14 L34.0572484,18.1684405 L37.5,18.6687016 L40.9427516,18.1684405 L43,14 L45.0572484,18.1684405 L49.6573956,18.836881 L46.3286978,22.0815595 L47.1144968,26.663119 L43,24.5 L38.8855032,26.663119 L39.6713022,22.0815595 L37.5,19.9650629 Z"/>
    <path fill="#E6735C" d="M40,30 L36,30 L36,46.3022021 C37.2727133,45.9515696 38.6671346,45.658785 40,45.3274146 L40,30 Z M42,30 L46,30 L46,41 C46,42.9786887 44.2718208,44.0265141 42,44.7667796 L42,30 Z M34,30 L30,30 L30,46.9939944 C30.8126101,47.3292031 31.5041763,47.7288329 32,48.2338867 C32.4794064,47.7164139 33.1736128,47.3083264 34,46.9661502 L34,30 Z M28,30 L24,30 L24,45.3619321 C25.3302558,45.6904418 26.7235835,45.980698 28,46.3314955 L28,30 Z M22,30 L18,30 L18,41 C18,43.0126289 19.7258697,44.0652019 22,44.8041212 L22,30 Z"/>
  </g>
</svg>
