<svg xmlns="http://www.w3.org/2000/svg" xmlns:xlink="http://www.w3.org/1999/xlink" width="32" height="32" viewBox="0 0 32 32">
  <defs>
    <rect id="108-medium-a" width="32" height="24" y="4" rx="4"/>
    <path id="108-medium-b" d="M20,15 L18,15 L18,23.1511011 C18.6363566,22.9757848 19.3335673,22.8293925 20,22.6637073 L20,15 Z M21,15 L23,15 L23,20.5 C23,21.4893444 22.1359104,22.0132571 21,22.3833898 L21,15 Z M17,15 L15,15 L15,23.4969972 C15.406305,23.6646016 15.7520881,23.8644165 16,24.1169434 C16.2397032,23.8582069 16.5868064,23.6541632 17,23.4830751 L17,15 Z M14,15 L12,15 L12,22.680966 C12.6651279,22.8452209 13.3617918,22.990349 14,23.1657477 L14,15 Z M11,15 L9,15 L9,20.5 C9,21.5063145 9.86293485,22.032601 11,22.4020606 L11,15 Z"/>
  </defs>
  <g fill="none" fill-rule="evenodd">
    <use fill="#6CA3D9" xlink:href="#108-medium-a"/>
    <rect width="31" height="23" x=".5" y="4.5" stroke="#000" stroke-opacity=".4" rx="4"/>
    <path stroke="#000" stroke-opacity=".4" d="M18.75,9.98253147 L17.6643489,11.0407797 L18.0572484,13.3315595 L16,12.25 L13.9427516,13.3315595 L14.3356511,11.0407797 L13.25,9.98253147 L12.1643489,11.0407797 L12.5572484,13.3315595 L10.5,12.25 L8.44275162,13.3315595 L8.8356511,11.0407797 L7.17130219,9.41844052 L9.47137581,9.08422026 L10.5,7 L11.5286242,9.08422026 L13.25,9.33435081 L14.9713758,9.08422026 L16,7 L17.0286242,9.08422026 L18.75,9.33435081 L20.4713758,9.08422026 L21.5,7 L22.5286242,9.08422026 L24.8286978,9.41844052 L23.1643489,11.0407797 L23.5572484,13.3315595 L21.5,12.25 L19.4427516,13.3315595 L19.8356511,11.0407797 L18.75,9.98253147 Z"/>
    <use stroke="#000" stroke-opacity=".4" stroke-width="3" xlink:href="#108-medium-b"/>
    <use stroke="#FFF" stroke-width="2" xlink:href="#108-medium-b"/>
    <path fill="#FFF" d="M18.75,9.98253147 L17.6643489,11.0407797 L18.0572484,13.3315595 L16,12.25 L13.9427516,13.3315595 L14.3356511,11.0407797 L13.25,9.98253147 L12.1643489,11.0407797 L12.5572484,13.3315595 L10.5,12.25 L8.44275162,13.3315595 L8.8356511,11.0407797 L7.17130219,9.41844052 L9.47137581,9.08422026 L10.5,7 L11.5286242,9.08422026 L13.25,9.33435081 L14.9713758,9.08422026 L16,7 L17.0286242,9.08422026 L18.75,9.33435081 L20.4713758,9.08422026 L21.5,7 L22.5286242,9.08422026 L24.8286978,9.41844052 L23.1643489,11.0407797 L23.5572484,13.3315595 L21.5,12.25 L19.4427516,13.3315595 L19.8356511,11.0407797 L18.75,9.98253147 Z"/>
    <path fill="#E6735C" d="M20,15 L18,15 L18,23.1511011 C18.6363566,22.9757848 19.3335673,22.8293925 20,22.6637073 L20,15 Z M21,15 L23,15 L23,20.5 C23,21.4893444 22.1359104,22.0132571 21,22.3833898 L21,15 Z M17,15 L15,15 L15,23.4969972 C15.406305,23.6646016 15.7520881,23.8644165 16,24.1169434 C16.2397032,23.8582069 16.5868064,23.6541632 17,23.4830751 L17,15 Z M14,15 L12,15 L12,22.680966 C12.6651279,22.8452209 13.3617918,22.990349 14,23.1657477 L14,15 Z M11,15 L9,15 L9,20.5 C9,21.5063145 9.86293485,22.032601 11,22.4020606 L11,15 Z"/>
  </g>
</svg>
