<svg xmlns="http://www.w3.org/2000/svg" width="18" height="18" viewBox="0 0 18 18">
  <path fill-rule="evenodd" d="M16.0896821,7.92741452 C16.0860828,7.92381524 16.0815837,7.91931614 16.0779844,7.91571686 C12.1655669,3.98260348 5.82273545,3.98260348 1.91031794,7.91571686 L0,5.9955009 C4.9670066,1.0014997 13.0203959,1.0014997 17.9874025,5.9955009 C17.9919016,5.99910018 17.9955009,6.00359928 18,6.00719856 L16.0896821,7.92741452 L16.0896821,7.92741452 Z M12.6685663,11.1357938 C10.6394721,9.09500193 7.34883023,9.09500193 5.31973605,11.1357938 L3.54889022,9.35504992 C6.55608878,6.3316546 11.4322136,6.3316546 14.4394121,9.35504992 C14.4439112,9.35954902 14.4475105,9.3631483 14.4511098,9.3676474 L12.6802639,11.1474914 C12.6766647,11.1438922 12.6730654,11.1393931 12.6685663,11.1357938 Z M10.3636035,12.0742851 C11.1327988,12.84333 11.1327988,14.0899189 10.3636035,14.8589639 C9.59540839,15.6270139 8.34809161,15.6270139 7.57989651,14.8589639 C6.81070116,14.0899189 6.81070116,12.84333 7.57989651,12.0742851 C8.34809161,11.3052401 9.59540839,11.3052401 10.3636035,12.0742851 Z"/>
</svg>
