<svg xmlns="http://www.w3.org/2000/svg" xmlns:xlink="http://www.w3.org/1999/xlink" width="64" height="64" viewBox="0 0 64 64">
  <defs>
    <rect id="109-large-a" width="64" height="40" y="8" rx="8"/>
    <path id="109-large-b" d="M60,45.7453107 L60,56 L4,56 L4,45.7453107 C5.13383348,46.5361852 6.51275186,47 8,47 L56,47 C57.4872481,47 58.8661665,46.5361852 60,45.7453107 Z"/>
    <filter id="109-large-c" width="103.6%" height="136.2%" x="-1.8%" y="-25.1%" filterUnits="objectBoundingBox">
      <feOffset dy="2" in="SourceAlpha" result="shadowOffsetInner1"/>
      <feComposite in="shadowOffsetInner1" in2="SourceAlpha" k2="-1" k3="1" operator="arithmetic" result="shadowInnerInner1"/>
      <feColorMatrix in="shadowInnerInner1" values="0 0 0 0 0   0 0 0 0 0   0 0 0 0 0  0 0 0 0.25 0"/>
    </filter>
    <rect id="109-large-d" width="24" height="24" rx="4"/>
    <path id="109-large-e" d="M4,4 L20,4 L20,16 L18,16 L18,17.9699707 C18,17.9799805 16,18 16,18 L16,20 L8.04296875,20 C8.05729167,20 8,18 8,18 L6,18 L6,16 L4,16 L4,4 Z"/>
    <path id="109-large-f" d="M5,5 L7,5 L7,9 L5,9 L5,5 Z M8,5 L10,5 L10,9 L8,9 L8,5 Z M11,5 L13,5 L13,9 L11,9 L11,5 Z M14,5 L16,5 L16,9 L14,9 L14,5 Z M17,5 L19,5 L19,9 L17,9 L17,5 Z"/>
  </defs>
  <g fill="none" fill-rule="evenodd">
    <use fill="#EDEFF2" xlink:href="#109-large-a"/>
    <rect width="63" height="39" x=".5" y="8.5" stroke="#000" stroke-opacity=".4" rx="8"/>
    <use fill="#B8BDCC" xlink:href="#109-large-b"/>
    <use fill="#000" filter="url(#109-large-c)" xlink:href="#109-large-b"/>
    <path stroke="#5C5E66" d="M59.5,46.6349353 C58.4340148,47.1984635 57.2391828,47.5 56,47.5 L8,47.5 C6.76081718,47.5 5.56598516,47.1984635 4.5,46.6349353 L4.5,55.5 L59.5,55.5 L59.5,46.6349353 Z"/>
    <g transform="translate(34 16)">
      <use fill="#B8BDCC" xlink:href="#109-large-d"/>
      <rect width="23.5" height="23.5" x=".25" y=".25" stroke="#737680" stroke-width=".5" rx="4"/>
      <use fill="#737680" xlink:href="#109-large-e"/>
      <path stroke="#333" stroke-width=".5" d="M4.25,4.25 L4.25,15.75 L6.25,15.75 L6.25,17.75 L8.24294109,17.75 L8.24989749,17.9928415 C8.25556217,18.1905903 8.26405583,18.4980778 8.2725507,18.827576 C8.27467475,18.9103066 8.27467475,18.9103066 8.27677697,18.9937357 C8.28384024,19.2755323 8.28916721,19.5104291 8.29225731,19.6830248 C8.29267907,19.7065822 8.29305791,19.728914 8.29339294,19.75 L15.75,19.75 L15.75,17.7524899 L15.9974977,17.7500125 C16.0599133,17.7493878 16.0599133,17.7493878 16.3097892,17.7467302 C16.6221363,17.7432911 16.7782774,17.7414937 16.9968722,17.7387586 C17.2466429,17.7355639 17.3390721,17.7343149 17.4777282,17.732233 C17.5837987,17.7306404 17.6750575,17.7291278 17.75,17.7277078 L17.75,15.75 L19.75,15.75 L19.75,4.25 L4.25,4.25 Z"/>
      <g>
        <use fill="#F2C585" xlink:href="#109-large-f"/>
        <path stroke="#333" stroke-width=".5" d="M4.75,4.75 L7.25,4.75 L7.25,9.25 L4.75,9.25 L4.75,4.75 Z M7.75,4.75 L10.25,4.75 L10.25,9.25 L7.75,9.25 L7.75,4.75 Z M10.75,4.75 L13.25,4.75 L13.25,9.25 L10.75,9.25 L10.75,4.75 Z M13.75,4.75 L16.25,4.75 L16.25,9.25 L13.75,9.25 L13.75,4.75 Z M16.75,4.75 L19.25,4.75 L19.25,9.25 L16.75,9.25 L16.75,4.75 Z"/>
      </g>
    </g>
    <path fill="#61AAF2" stroke="#2A5B8C" stroke-width=".5" d="M26.665167,25.5390378 C26.6607678,25.5346387 26.6552689,25.5291398 26.6508698,25.5247406 C21.8690262,20.7176021 14.1166767,20.7176021 9.33483303,25.5247406 L7,23.17781 C13.0707858,17.0740308 22.9138172,17.0740308 28.9846031,23.17781 C28.990102,23.1822091 28.9945011,23.187708 29,23.1921072 L26.665167,25.5390378 L26.665167,25.5390378 Z M22.4838032,29.7138028 C20.0037992,27.2195017 15.9819036,27.2195017 13.5018996,29.7138028 L11.3375325,27.5373381 C15.0129974,23.8420772 20.9727055,23.8420772 24.6481704,27.5373381 C24.6536693,27.542837 24.6580684,27.5472361 24.6624675,27.552735 L22.4981004,29.7281 C22.4937013,29.7237008 22.4893021,29.7182019 22.4838032,29.7138028 Z M19.6666265,31.3774317 C20.6067541,32.3173755 20.6067541,33.8409843 19.6666265,34.780928 C18.7277214,35.7196559 17.2032231,35.7196559 16.264318,34.780928 C15.3241903,33.8409843 15.3241903,32.3173755 16.264318,31.3774317 C17.2032231,30.437488 18.7277214,30.437488 19.6666265,31.3774317 Z"/>
  </g>
</svg>
