<svg xmlns="http://www.w3.org/2000/svg" xmlns:xlink="http://www.w3.org/1999/xlink" width="16" height="16" viewBox="0 0 16 16">
  <defs>
    <path id="109-mini-a" d="M14.3019396,7.04659068 C14.2987403,7.04339132 14.2947411,7.03939212 14.2915417,7.03619276 C10.8138372,3.54009198 5.17576485,3.54009198 1.69806039,7.03619276 L0,5.32933413 C4.41511698,0.890221956 11.5736853,0.890221956 15.9888022,5.32933413 C15.9928014,5.33253349 15.9960008,5.33653269 16,5.33973205 L14.3019396,7.04659068 L14.3019396,7.04659068 Z M11.2609478,9.89848336 C9.45730854,8.08444616 6.53229354,8.08444616 4.72865427,9.89848336 L3.15456909,8.31559993 C5.82763447,5.62813742 10.1619676,5.62813742 12.835033,8.31559993 C12.8390322,8.31959913 12.8422316,8.32279849 12.8454309,8.32679769 L11.2713457,9.90888128 C11.2681464,9.90568192 11.264947,9.90168272 11.2609478,9.89848336 L11.2609478,9.89848336 Z"/>
    <path id="109-mini-b" d="M9.21209199,10.7326978 C9.89582119,11.4162933 9.89582119,12.5243724 9.21209199,13.2079679 C8.5292519,13.890679 7.42052588,13.890679 6.73768579,13.2079679 C6.05395659,12.5243724 6.05395659,11.4162933 6.73768579,10.7326978 C7.42052588,10.0491024 8.5292519,10.0491024 9.21209199,10.7326978 Z"/>
  </defs>
  <g fill="none" fill-rule="evenodd">
    <use fill="#499DF2" xlink:href="#109-mini-a"/>
    <path stroke="#2A5B8C" stroke-width=".5" d="M14.2998237,6.69424702 L15.6452521,5.34184751 C11.3757917,1.22291962 4.62826046,1.2193872 0.354549588,5.33125025 L1.70043012,6.68410426 C5.23106835,3.32059564 10.773845,3.32411768 14.2998237,6.69424702 Z M11.2674007,9.5583936 L12.4903149,8.32926535 C9.96475528,5.96038547 6.04004667,5.9569207 3.51039418,8.31887104 L4.73312603,9.54843726 C6.5864195,7.86448261 9.41796312,7.86780139 11.2674007,9.5583936 Z M11.4341582,9.71812304 C11.4355167,9.71948621 11.4368746,9.72085036 11.4382319,9.72221548 L11.4171216,9.70326615 C11.42545,9.71047294 11.4304928,9.71483664 11.4341582,9.71812304 Z"/>
    <g>
      <use fill="#499DF2" xlink:href="#109-mini-b"/>
      <path stroke="#2A5B8C" d="M8.85857318,11.0862858 L8.8583432,11.0860557 C8.37080988,10.5979831 7.5789679,10.5979831 7.0912046,11.0862858 C6.60278365,11.5746112 6.60278365,12.3660545 7.09120579,12.8543811 C7.57879137,13.3418746 8.3709864,13.3418746 8.85857318,12.8543799 C9.34699413,12.3660545 9.34699413,11.5746112 8.85857318,11.0862858 Z"/>
    </g>
  </g>
</svg>
