<svg xmlns="http://www.w3.org/2000/svg" xmlns:xlink="http://www.w3.org/1999/xlink" width="32" height="32" viewBox="0 0 32 32">
  <defs>
    <rect id="109-medium-a" width="32" height="20" y="4" rx="4"/>
    <path id="109-medium-b" d="M30,22.2361065 L30,28 L2,28 L2,22.2361065 C2.53075649,22.7111464 3.23164556,23 4,23 L28,23 C28.7683544,23 29.4692435,22.7111464 30,22.2361065 Z"/>
    <filter id="109-medium-c" width="107.1%" height="134.7%" x="-3.6%" y="-17.3%" filterUnits="objectBoundingBox">
      <feOffset dy="2" in="SourceAlpha" result="shadowOffsetInner1"/>
      <feComposite in="shadowOffsetInner1" in2="SourceAlpha" k2="-1" k3="1" operator="arithmetic" result="shadowInnerInner1"/>
      <feColorMatrix in="shadowInnerInner1" values="0 0 0 0 0   0 0 0 0 0   0 0 0 0 0  0 0 0 0.25 0"/>
    </filter>
  </defs>
  <g fill="none" fill-rule="evenodd">
    <use fill="#EDEFF2" xlink:href="#109-medium-a"/>
    <rect width="31" height="19" x=".5" y="4.5" stroke="#000" stroke-opacity=".4" rx="4"/>
    <use fill="#B8BDCC" xlink:href="#109-medium-b"/>
    <use fill="#000" filter="url(#109-medium-c)" xlink:href="#109-medium-b"/>
    <path stroke="#5C5E66" d="M29.5,23.163146 C29.0382268,23.3823922 28.5280204,23.5 28,23.5 L4,23.5 C3.47197959,23.5 2.9617732,23.3823922 2.5,23.163146 L2.5,27.5 L29.5,27.5 L29.5,23.163146 Z"/>
    <path fill="#61AAF2" stroke="#2A5B8C" stroke-width=".5" d="M21.5141972,13.2157546 C21.5113977,13.2129552 21.5078984,13.2094559 21.505099,13.2066565 C18.4621076,10.1475683 13.5287942,10.1475683 10.4858028,13.2066565 L9,11.7131552 C12.8632274,7.828932 19.1269746,7.828932 22.990202,11.7131552 C22.9937013,11.7159546 22.9965007,11.7194539 23,11.7222533 L21.5141972,13.2157546 L21.5141972,13.2157546 Z M18.8533293,15.8724233 C17.275145,14.2851408 14.7157568,14.2851408 13.1375725,15.8724233 L11.760248,14.4874003 C14.0991802,12.1358706 17.8917217,12.1358706 20.2306539,14.4874003 C20.2341532,14.4908996 20.2369526,14.4936991 20.239752,14.4971984 L18.8624275,15.8815215 C18.8596281,15.878722 18.8568286,15.8752227 18.8533293,15.8724233 Z M17.0605805,16.9310963 C17.6588435,17.5292423 17.6588435,18.4988115 17.0605805,19.0969575 C16.4630954,19.6943298 15.4929601,19.6943298 14.8954751,19.0969575 C14.297212,18.4988115 14.297212,17.5292423 14.8954751,16.9310963 C15.4929601,16.3329502 16.4630954,16.3329502 17.0605805,16.9310963 Z"/>
  </g>
</svg>
