<svg xmlns="http://www.w3.org/2000/svg" width="18" height="18" viewBox="0 0 18 18">
  <g fill="#FFF" fill-rule="evenodd">
    <path d="M4.25 12L13.75 12C14.9926407 12 16 13.0073593 16 14.25L16 15.75C16 16.9926407 14.9926407 18 13.75 18L4.25 18C3.00735931 18 2 16.9926407 2 15.75L2 14.25 2 14.25C2 13.0073593 3.00735931 12 4.25 12L4.25 12zM5 16C5.55228475 16 6 15.5522847 6 15 6 14.4477153 5.55228475 14 5 14 4.44771525 14 4 14.4477153 4 15 4 15.5522847 4.44771525 16 5 16zM5 15.5C4.72385763 15.5 4.5 15.2761424 4.5 15 4.5 14.7238576 4.72385763 14.5 5 14.5 5.27614237 14.5 5.5 14.7238576 5.5 15 5.5 15.2761424 5.27614237 15.5 5 15.5zM13 16C13.5522847 16 14 15.5522847 14 15 14 14.4477153 13.5522847 14 13 14 12.4477153 14 12 14.4477153 12 15 12 15.5522847 12.4477153 16 13 16zM8 15.5C8.27614237 15.5 8.5 15.2761424 8.5 15 8.5 14.7238576 8.27614237 14.5 8 14.5 7.72385763 14.5 7.5 14.7238576 7.5 15 7.5 15.2761424 7.72385763 15.5 8 15.5zM10 15.5C10.2761424 15.5 10.5 15.2761424 10.5 15 10.5 14.7238576 10.2761424 14.5 10 14.5 9.72385763 14.5 9.5 14.7238576 9.5 15 9.5 15.2761424 9.72385763 15.5 10 15.5zM4.25 6L13.75 6C14.9926407 6 16 7.00735931 16 8.25L16 9.75C16 10.9926407 14.9926407 12 13.75 12L4.25 12C3.00735931 12 2 10.9926407 2 9.75L2 8.25 2 8.25C2 7.00735931 3.00735931 6 4.25 6L4.25 6zM5 10C5.55228475 10 6 9.55228475 6 9 6 8.44771525 5.55228475 8 5 8 4.44771525 8 4 8.44771525 4 9 4 9.55228475 4.44771525 10 5 10zM5 9.5C4.72385763 9.5 4.5 9.27614237 4.5 9 4.5 8.72385763 4.72385763 8.5 5 8.5 5.27614237 8.5 5.5 8.72385763 5.5 9 5.5 9.27614237 5.27614237 9.5 5 9.5zM13 10C13.5522847 10 14 9.55228475 14 9 14 8.44771525 13.5522847 8 13 8 12.4477153 8 12 8.44771525 12 9 12 9.55228475 12.4477153 10 13 10zM8 9.5C8.27614237 9.5 8.5 9.27614237 8.5 9 8.5 8.72385763 8.27614237 8.5 8 8.5 7.72385763 8.5 7.5 8.72385763 7.5 9 7.5 9.27614237 7.72385763 9.5 8 9.5zM10 9.5C10.2761424 9.5 10.5 9.27614237 10.5 9 10.5 8.72385763 10.2761424 8.5 10 8.5 9.72385763 8.5 9.5 8.72385763 9.5 9 9.5 9.27614237 9.72385763 9.5 10 9.5zM6 11C5.44771525 11 5 11.4477153 5 12L13 12C13 11.4477153 12.5522847 11 12 11L6 11zM4.25 0L13.75 0C14.9926407-2.28269391e-16 16 1.00735931 16 2.25L16 3.75C16 4.99264069 14.9926407 6 13.75 6L4.25 6C3.00735931 6 2 4.99264069 2 3.75L2 2.25 2 2.25C2 1.00735931 3.00735931 2.28269391e-16 4.25 0L4.25 0zM5 4C5.55228475 4 6 3.55228475 6 3 6 2.44771525 5.55228475 2 5 2 4.44771525 2 4 2.44771525 4 3 4 3.55228475 4.44771525 4 5 4zM5 3.5C4.72385763 3.5 4.5 3.27614237 4.5 3 4.5 2.72385763 4.72385763 2.5 5 2.5 5.27614237 2.5 5.5 2.72385763 5.5 3 5.5 3.27614237 5.27614237 3.5 5 3.5zM13 4C13.5522847 4 14 3.55228475 14 3 14 2.44771525 13.5522847 2 13 2 12.4477153 2 12 2.44771525 12 3 12 3.55228475 12.4477153 4 13 4zM8 3.5C8.27614237 3.5 8.5 3.27614237 8.5 3 8.5 2.72385763 8.27614237 2.5 8 2.5 7.72385763 2.5 7.5 2.72385763 7.5 3 7.5 3.27614237 7.72385763 3.5 8 3.5zM10 3.5C10.2761424 3.5 10.5 3.27614237 10.5 3 10.5 2.72385763 10.2761424 2.5 10 2.5 9.72385763 2.5 9.5 2.72385763 9.5 3 9.5 3.27614237 9.72385763 3.5 10 3.5zM6 5C5.44771525 5 5 5.44771525 5 6L13 6C13 5.44771525 12.5522847 5 12 5L6 5z"/>
  </g>
</svg>
