<svg xmlns="http://www.w3.org/2000/svg" xmlns:xlink="http://www.w3.org/1999/xlink" width="16" height="16" viewBox="0 0 16 16">
  <defs>
    <rect id="110-mini-a" width="12" height="5" rx="2"/>
    <circle id="110-mini-c" cx="2.5" cy="2.5" r="1"/>
    <circle id="110-mini-d" cx="9.5" cy="2.5" r="1"/>
    <rect id="110-mini-e" width="12" height="5" rx="2"/>
    <circle id="110-mini-g" cx="2.5" cy="2.5" r="1"/>
    <circle id="110-mini-h" cx="9.5" cy="2.5" r="1"/>
    <rect id="110-mini-i" width="12" height="5" rx="2"/>
    <circle id="110-mini-k" cx="2.5" cy="2.5" r="1"/>
    <circle id="110-mini-l" cx="9.5" cy="2.5" r="1"/>
    <rect id="110-mini-m" width="9" height="2" x="3.5" y="4"/>
    <rect id="110-mini-n" width="9" height="2" x="3.5" y="9"/>
    <rect id="110-mini-o" width="9" height="2" x="3.5" y="14"/>
  </defs>
  <g fill="none" fill-rule="evenodd">
    <g transform="translate(2 10)">
      <mask id="110-mini-b" fill="#fff">
        <use xlink:href="#110-mini-a"/>
      </mask>
      <use fill="#EDEFF2" xlink:href="#110-mini-a"/>
      <rect width="11" height="4" x=".5" y=".5" stroke="#737680" rx="2"/>
      <g mask="url(#110-mini-b)">
        <use fill="#FFF" xlink:href="#110-mini-c"/>
        <circle cx="2.5" cy="2.5" r="1" stroke="gray" stroke-width=".5"/>
      </g>
      <g mask="url(#110-mini-b)">
        <use fill="#79BF73" xlink:href="#110-mini-d"/>
        <circle cx="9.5" cy="2.5" r="1" stroke="#395936" stroke-width=".5"/>
      </g>
      <path fill="#000" fill-opacity=".4" d="M7.5,3 C7.22385763,3 7,2.77614237 7,2.5 C7,2.22385763 7.22385763,2 7.5,2 C7.77614237,2 8,2.22385763 8,2.5 C8,2.77614237 7.77614237,3 7.5,3 Z M6,3 C5.72385763,3 5.5,2.77614237 5.5,2.5 C5.5,2.22385763 5.72385763,2 6,2 C6.27614237,2 6.5,2.22385763 6.5,2.5 C6.5,2.77614237 6.27614237,3 6,3 Z" mask="url(#110-mini-b)"/>
    </g>
    <g transform="translate(2 5)">
      <mask id="110-mini-f" fill="#fff">
        <use xlink:href="#110-mini-e"/>
      </mask>
      <use fill="#EDEFF2" xlink:href="#110-mini-e"/>
      <rect width="11" height="4" x=".5" y=".5" stroke="#737680" rx="2"/>
      <g mask="url(#110-mini-f)">
        <use fill="#FFF" xlink:href="#110-mini-g"/>
        <circle cx="2.5" cy="2.5" r="1" stroke="gray" stroke-width=".5"/>
      </g>
      <g mask="url(#110-mini-f)">
        <use fill="#79BF73" xlink:href="#110-mini-h"/>
        <circle cx="9.5" cy="2.5" r="1" stroke="#395936" stroke-width=".5"/>
      </g>
      <path fill="#000" fill-opacity=".4" d="M7.5,3 C7.22385763,3 7,2.77614237 7,2.5 C7,2.22385763 7.22385763,2 7.5,2 C7.77614237,2 8,2.22385763 8,2.5 C8,2.77614237 7.77614237,3 7.5,3 Z M6,3 C5.72385763,3 5.5,2.77614237 5.5,2.5 C5.5,2.22385763 5.72385763,2 6,2 C6.27614237,2 6.5,2.22385763 6.5,2.5 C6.5,2.77614237 6.27614237,3 6,3 Z" mask="url(#110-mini-f)"/>
    </g>
    <g transform="translate(2)">
      <mask id="110-mini-j" fill="#fff">
        <use xlink:href="#110-mini-i"/>
      </mask>
      <use fill="#EDEFF2" xlink:href="#110-mini-i"/>
      <rect width="11" height="4" x=".5" y=".5" stroke="#737680" rx="2"/>
      <g mask="url(#110-mini-j)">
        <use fill="#FFF" xlink:href="#110-mini-k"/>
        <circle cx="2.5" cy="2.5" r="1" stroke="gray" stroke-width=".5"/>
      </g>
      <g mask="url(#110-mini-j)">
        <use fill="#79BF73" xlink:href="#110-mini-l"/>
        <circle cx="9.5" cy="2.5" r="1" stroke="#395936" stroke-width=".5"/>
      </g>
      <path fill="#000" fill-opacity=".4" d="M7.5,3 C7.22385763,3 7,2.77614237 7,2.5 C7,2.22385763 7.22385763,2 7.5,2 C7.77614237,2 8,2.22385763 8,2.5 C8,2.77614237 7.77614237,3 7.5,3 Z M6,3 C5.72385763,3 5.5,2.77614237 5.5,2.5 C5.5,2.22385763 5.72385763,2 6,2 C6.27614237,2 6.5,2.22385763 6.5,2.5 C6.5,2.77614237 6.27614237,3 6,3 Z" mask="url(#110-mini-j)"/>
    </g>
    <use fill="#79BF73" xlink:href="#110-mini-m"/>
    <rect width="8" height="1" x="4" y="4.5" stroke="#398033"/>
    <use fill="#79BF73" xlink:href="#110-mini-n"/>
    <rect width="8" height="1" x="4" y="9.5" stroke="#398033"/>
    <g>
      <use fill="#79BF73" xlink:href="#110-mini-o"/>
      <rect width="8" height="1" x="4" y="14.5" stroke="#398033"/>
    </g>
  </g>
</svg>
