<svg xmlns="http://www.w3.org/2000/svg" width="18" height="18" viewBox="0 0 18 18">
  <path fill="#FFF" fill-rule="evenodd" d="M14.5278201,7.28521953 L9,3.6000061 L3.47217986,7.28521953 L0.892981685,5.40943658 C0.619129294,5.61645041 0.399672282,5.88076851 0.246847746,6.17952563 L5.09429775,9.70494382 L0.320947065,14.9087819 C0.117194693,14.5703183 5.19060752e-17,14.1738453 0,13.75 L0,7.20416346 C2.41956421e-16,6.45186878 0.375977555,5.7493483 1.00192456,5.33205029 L1.00192456,5.33205029 L9,0 L16.9980754,5.33205029 L16.9980754,5.33205029 C17.6240224,5.7493483 18,6.45186878 18,7.20416346 L18,13.75 C18,14.1741511 17.8826361,14.5708904 17.6786117,14.9095145 L12.9043151,9.70595267 L17.7531523,6.17952563 L17.7531523,6.17952563 C17.6003277,5.88076851 17.3808707,5.61645041 17.1070183,5.40943658 L14.5278201,7.28521953 Z M17.3720965,15.3092675 C16.9627154,15.7350394 16.3873001,16 15.75,16 L2.25,16 C1.61343689,16 1.0386156,15.7356519 0.629324507,15.3107441 L5.5,10 L12.5,10 L17.3720965,15.3092675 Z"/>
</svg>
