<svg xmlns="http://www.w3.org/2000/svg" xmlns:xlink="http://www.w3.org/1999/xlink" width="64" height="64" viewBox="0 0 64 64">
  <defs>
    <path id="111-large-a" d="M3.2,21.6 L32,0 L60.8,21.6 L60.8,21.6 C62.8144467,23.1108351 64,25.4819416 64,28 L64,48 L64,48 C64,52.418278 60.418278,56 56,56 L8,56 L8,56 C3.581722,56 5.41083001e-16,52.418278 0,48 L0,28 L-3.55271368e-15,28 C-3.8610869e-15,25.4819416 1.18555326,23.1108351 3.2,21.6 Z"/>
    <path id="111-large-b" d="M63.1876179,0.487429273 C63.7152088,1.56699688 64,2.76584819 64,4 L64,24 L64,24 C64,28.418278 60.418278,32 56,32 L8,32 C3.581722,32 3.41083001e-16,28.418278 -2e-16,24 L-2e-16,4 L1.57635684e-15,4 C1.42521683e-15,2.76584819 0.284791242,1.56699688 0.812382122,0.487429273 L20,12 L44,12 L63.1876179,0.487429273 Z"/>
    <polygon id="111-large-d" points=".347 24.97 20.347 36.97 44.347 36.97 64.347 24.97 64.347 .97 .347 .97"/>
    <polygon id="111-large-f" points="6.861 13.124 50.193 5.484 57.139 44.876 13.807 52.516"/>
    <path id="111-large-g" d="M62.6869057,0.60843322 C62.872319,0.890796382 63.0395326,1.1844141 63.1876179,1.48742927 L44,13 L20,13 L0.812382122,1.48742927 C0.96040571,1.18454028 1.1275417,0.891040913 1.31286271,0.60878596 L20.515625,12 L43.4714577,12 L62.6869046,0.608433878 Z"/>
  </defs>
  <g fill="none" fill-rule="evenodd" transform="translate(-1 -1)">
    <g transform="translate(1 1)">
      <use fill="#7A8299" xlink:href="#111-large-a"/>
      <path stroke="#000" stroke-opacity=".25" stroke-width="4.5" d="M32,2.8125 L4.55,23.4 C3.1021164,24.4859127 2.25,26.1901455 2.25,28 L2.25,48 C2.25,51.1756373 4.82436269,53.75 8,53.75 L56,53.75 C59.1756373,53.75 61.75,51.1756373 61.75,48 L61.75,28 C61.75,26.1901455 60.8978836,24.4859127 59.45,23.4 L32,2.8125 Z"/>
      <path stroke="#FFF" stroke-width="4" d="M32,2.5 L4.4,23.2 C2.88916494,24.3331263 2,26.1114562 2,28 L2,48 C2,51.3137085 4.6862915,54 8,54 L56,54 C59.3137085,54 62,51.3137085 62,48 L62,28 C62,26.1114562 61.1108351,24.3331263 59.6,23.2 L32,2.5 Z"/>
      <path stroke="#000" stroke-opacity=".3" d="M32,0.625 L3.5,22 C1.61145618,23.4164079 0.5,25.6393202 0.5,28 L0.5,48 C0.5,52.1421356 3.85786438,55.5 8,55.5 L56,55.5 C60.1421356,55.5 63.5,52.1421356 63.5,48 L63.5,28 C63.5,25.6393202 62.3885438,23.4164079 60.5,22 L32,0.625 Z"/>
    </g>
    <g transform="translate(1 25)">
      <mask id="111-large-c" fill="#fff">
        <use xlink:href="#111-large-b"/>
      </mask>
      <use fill="#EDEFF2" xlink:href="#111-large-b"/>
      <path stroke="#000" stroke-opacity=".25" stroke-width=".5" d="M20,11.75 L44,11.75 L44.1767767,11.8232233 L64.6035534,32.25 L-0.603553391,32.25 L19.8232233,11.8232233 L20,11.75 Z" mask="url(#111-large-c)"/>
      <path stroke="#000" stroke-opacity=".3" d="M32,-23.375 L3.5,-2 C1.61145618,-0.583592135 0.5,1.63932023 0.5,4 L0.5,24 C0.5,28.1421356 3.85786438,31.5 8,31.5 L56,31.5 C60.1421356,31.5 63.5,28.1421356 63.5,24 L63.5,4 C63.5,1.63932023 62.3885438,-0.583592135 60.5,-2 L32,-23.375 Z" mask="url(#111-large-c)"/>
    </g>
    <g transform="translate(.653 .03)">
      <mask id="111-large-e" fill="#fff">
        <use xlink:href="#111-large-d"/>
      </mask>
      <use fill="#666" fill-opacity="0" xlink:href="#111-large-d"/>
      <g mask="url(#111-large-e)">
        <use fill="#61AAF2" xlink:href="#111-large-f"/>
        <path stroke="#000" stroke-opacity=".25" d="M6.28203792,12.7185251 L50.5983868,4.90435707 L57.7179621,45.2814749 L13.4016132,53.0956429 L6.28203792,12.7185251 Z"/>
        <path stroke="#000" stroke-opacity=".4" stroke-width="3.5" d="M8.88856376,14.5436341 L15.2267222,50.4891171 L55.1114362,43.4563659 L48.7732778,7.51088291 L8.88856376,14.5436341 Z"/>
        <path stroke="#FFF" stroke-width="3" d="M8.59894978,14.3408442 L15.0239324,50.7787311 L55.4010502,43.6591558 L48.9760676,7.22126893 L8.59894978,14.3408442 Z"/>
      </g>
      <path stroke="#000" stroke-opacity=".4" d="M30.5522896,40.3695837 C29.0977369,40.3695837 27.7501568,40.1129018 26.5095089,39.5995302 C25.268861,39.0861587 24.1940054,38.3749358 23.28491,37.4658404 C22.3758145,36.5567449 21.6645917,35.4872369 21.1512201,34.2572842 C20.6378486,33.0273316 20.3811667,31.7064891 20.3811667,30.2947174 C20.3811667,28.6048694 20.7341043,26.9952598 21.4399902,25.4658404 C22.1458761,23.936421 23.0816956,22.5941884 24.2474768,21.4391024 C25.413258,20.2840164 26.7661857,19.3642395 28.3063003,18.6797441 C29.846415,17.9952487 31.450677,17.6530062 33.1191346,17.6530062 C34.6592492,17.6530062 36.0549572,17.9096881 37.3063003,18.4230596 C38.5576435,18.9364312 39.621804,19.6369589 40.4988137,20.5246639 C41.3758234,21.4123689 42.0496135,22.4390966 42.5202041,23.6048778 C42.9907947,24.770659 43.2260864,26.0059408 43.2260864,27.3107602 C43.2260864,28.7011414 43.0068373,29.904338 42.5683324,30.9203858 C42.1298276,31.9364337 41.5790309,32.7759975 40.915926,33.4391024 C40.2528211,34.1022073 39.5255556,34.594181 38.7341078,34.9150382 C37.94266,35.2358955 37.1940044,35.3963217 36.4881185,35.3963217 C35.4613754,35.3963217 34.7020247,35.1663774 34.2100437,34.7064821 C33.7180626,34.2465867 33.3972102,33.7278754 33.2474768,33.1503324 L33.2153913,32.9257334 C32.6592387,33.7385717 31.9854487,34.3535388 31.1940009,34.7706532 C30.4025531,35.1877676 29.6111171,35.3963217 28.8196693,35.3963217 C28.0282215,35.3963217 27.3223462,35.2572856 26.7020223,34.9792094 C26.0816983,34.7011331 25.5576394,34.3161102 25.1298298,33.8241291 C24.7020201,33.3321481 24.3758202,32.7492662 24.1512201,32.075466 C23.9266201,31.4016659 23.8143217,30.679748 23.8143217,29.9096906 C23.8143217,28.8615571 24.0121807,27.8722621 24.4079046,26.9417762 C24.8036285,26.0112903 25.333035,25.1931166 25.9961399,24.4872308 C26.6592448,23.7813449 27.4185955,23.2198532 28.2742148,22.8027388 C29.129834,22.3856244 30.0175257,22.1770703 30.9373164,22.1770703 C31.8784976,22.1770703 32.6806286,22.3588867 33.3437335,22.7225249 C34.0068384,23.0861631 34.5202023,23.5567466 34.8838404,24.1342896 L35.2046961,22.5941826 L39.5683324,22.5941826 L37.9961399,29.9738618 C37.9747494,30.0594237 37.9587068,30.1931122 37.9480116,30.3749313 C37.9373163,30.5567504 37.9319688,30.701134 37.9319688,30.8080864 C37.9319688,31.278677 38.0282245,31.615572 38.2207388,31.8187816 C38.4132532,32.0219911 38.65924,32.1235944 38.9587068,32.1235944 C39.279564,32.1235944 39.6004164,32.0273387 39.9212736,31.8348243 C40.2421308,31.64231 40.5415931,31.3481953 40.8196693,30.9524714 C41.0977456,30.5567475 41.3223423,30.0540787 41.4934661,29.44445 C41.66459,28.8348213 41.7501506,28.1235985 41.7501506,27.3107602 C41.7501506,26.0701122 41.5469441,24.9364337 41.1405249,23.9096906 C40.7341058,22.8829475 40.1512239,22.005951 39.3918618,21.2786746 C38.6324998,20.5513982 37.7127229,19.9899065 36.6325035,19.5941826 C35.5522842,19.1984587 34.3383926,19.0005997 32.9907923,19.0005997 C31.4720681,19.0005997 30.0335799,19.3054095 28.6752843,19.9150382 C27.3169887,20.524667 26.1244873,21.3428406 25.0977442,22.3695837 C24.0710011,23.3963268 23.2528275,24.5834807 22.6431987,25.931081 C22.03357,27.2786813 21.7287602,28.701127 21.7287602,30.1984607 C21.7287602,31.4604991 21.9533569,32.6316104 22.402557,33.7118297 C22.8517571,34.792049 23.4774193,35.7278685 24.2795624,36.5193163 C25.0817054,37.3107641 26.02822,37.9310788 27.1191346,38.3802789 C28.2100491,38.829479 29.4078981,39.0540757 30.7127175,39.0540757 C31.760851,39.0540757 32.7661886,38.9043445 33.7287602,38.6048778 C34.6913319,38.3054111 35.6111088,37.8776079 36.4881185,37.3214554 L37.2260864,38.3481933 C36.2207338,38.9899078 35.1565733,39.487229 34.0335731,39.8401719 C32.9105728,40.1931149 31.7501566,40.3695837 30.5522896,40.3695837 L30.5522896,40.3695837 Z M30.6485463,31.9631666 C31.3758227,31.9631666 31.9747472,31.7760027 32.4453378,31.4016693 C32.9159284,31.0273358 33.3009513,30.6476605 33.600418,30.2626318 L34.3063003,26.8615623 C34.1351765,26.5620956 33.873147,26.2733284 33.5202041,25.9952521 C33.1672611,25.7171759 32.680635,25.5781398 32.060311,25.5781398 C31.5041585,25.5781398 30.9961422,25.6904382 30.5362469,25.9150382 C30.0763515,26.1396383 29.6806335,26.4391005 29.3490811,26.813434 C29.0175286,27.1877674 28.7608467,27.6102231 28.5790276,28.0808136 C28.3972085,28.5514042 28.3063003,29.0326828 28.3063003,29.5246639 C28.3063003,30.2733308 28.5148544,30.8669077 28.9319688,31.3054126 C29.3490832,31.7439174 29.92127,31.9631666 30.6485463,31.9631666 L30.6485463,31.9631666 Z" mask="url(#111-large-e)"/>
      <path fill="#FFF" d="M30.5522896,40.3695837 C29.0977369,40.3695837 27.7501568,40.1129018 26.5095089,39.5995302 C25.268861,39.0861587 24.1940054,38.3749358 23.28491,37.4658404 C22.3758145,36.5567449 21.6645917,35.4872369 21.1512201,34.2572842 C20.6378486,33.0273316 20.3811667,31.7064891 20.3811667,30.2947174 C20.3811667,28.6048694 20.7341043,26.9952598 21.4399902,25.4658404 C22.1458761,23.936421 23.0816956,22.5941884 24.2474768,21.4391024 C25.413258,20.2840164 26.7661857,19.3642395 28.3063003,18.6797441 C29.846415,17.9952487 31.450677,17.6530062 33.1191346,17.6530062 C34.6592492,17.6530062 36.0549572,17.9096881 37.3063003,18.4230596 C38.5576435,18.9364312 39.621804,19.6369589 40.4988137,20.5246639 C41.3758234,21.4123689 42.0496135,22.4390966 42.5202041,23.6048778 C42.9907947,24.770659 43.2260864,26.0059408 43.2260864,27.3107602 C43.2260864,28.7011414 43.0068373,29.904338 42.5683324,30.9203858 C42.1298276,31.9364337 41.5790309,32.7759975 40.915926,33.4391024 C40.2528211,34.1022073 39.5255556,34.594181 38.7341078,34.9150382 C37.94266,35.2358955 37.1940044,35.3963217 36.4881185,35.3963217 C35.4613754,35.3963217 34.7020247,35.1663774 34.2100437,34.7064821 C33.7180626,34.2465867 33.3972102,33.7278754 33.2474768,33.1503324 L33.2153913,32.9257334 C32.6592387,33.7385717 31.9854487,34.3535388 31.1940009,34.7706532 C30.4025531,35.1877676 29.6111171,35.3963217 28.8196693,35.3963217 C28.0282215,35.3963217 27.3223462,35.2572856 26.7020223,34.9792094 C26.0816983,34.7011331 25.5576394,34.3161102 25.1298298,33.8241291 C24.7020201,33.3321481 24.3758202,32.7492662 24.1512201,32.075466 C23.9266201,31.4016659 23.8143217,30.679748 23.8143217,29.9096906 C23.8143217,28.8615571 24.0121807,27.8722621 24.4079046,26.9417762 C24.8036285,26.0112903 25.333035,25.1931166 25.9961399,24.4872308 C26.6592448,23.7813449 27.4185955,23.2198532 28.2742148,22.8027388 C29.129834,22.3856244 30.0175257,22.1770703 30.9373164,22.1770703 C31.8784976,22.1770703 32.6806286,22.3588867 33.3437335,22.7225249 C34.0068384,23.0861631 34.5202023,23.5567466 34.8838404,24.1342896 L35.2046961,22.5941826 L39.5683324,22.5941826 L37.9961399,29.9738618 C37.9747494,30.0594237 37.9587068,30.1931122 37.9480116,30.3749313 C37.9373163,30.5567504 37.9319688,30.701134 37.9319688,30.8080864 C37.9319688,31.278677 38.0282245,31.615572 38.2207388,31.8187816 C38.4132532,32.0219911 38.65924,32.1235944 38.9587068,32.1235944 C39.279564,32.1235944 39.6004164,32.0273387 39.9212736,31.8348243 C40.2421308,31.64231 40.5415931,31.3481953 40.8196693,30.9524714 C41.0977456,30.5567475 41.3223423,30.0540787 41.4934661,29.44445 C41.66459,28.8348213 41.7501506,28.1235985 41.7501506,27.3107602 C41.7501506,26.0701122 41.5469441,24.9364337 41.1405249,23.9096906 C40.7341058,22.8829475 40.1512239,22.005951 39.3918618,21.2786746 C38.6324998,20.5513982 37.7127229,19.9899065 36.6325035,19.5941826 C35.5522842,19.1984587 34.3383926,19.0005997 32.9907923,19.0005997 C31.4720681,19.0005997 30.0335799,19.3054095 28.6752843,19.9150382 C27.3169887,20.524667 26.1244873,21.3428406 25.0977442,22.3695837 C24.0710011,23.3963268 23.2528275,24.5834807 22.6431987,25.931081 C22.03357,27.2786813 21.7287602,28.701127 21.7287602,30.1984607 C21.7287602,31.4604991 21.9533569,32.6316104 22.402557,33.7118297 C22.8517571,34.792049 23.4774193,35.7278685 24.2795624,36.5193163 C25.0817054,37.3107641 26.02822,37.9310788 27.1191346,38.3802789 C28.2100491,38.829479 29.4078981,39.0540757 30.7127175,39.0540757 C31.760851,39.0540757 32.7661886,38.9043445 33.7287602,38.6048778 C34.6913319,38.3054111 35.6111088,37.8776079 36.4881185,37.3214554 L37.2260864,38.3481933 C36.2207338,38.9899078 35.1565733,39.487229 34.0335731,39.8401719 C32.9105728,40.1931149 31.7501566,40.3695837 30.5522896,40.3695837 L30.5522896,40.3695837 Z M30.6485463,31.9631666 C31.3758227,31.9631666 31.9747472,31.7760027 32.4453378,31.4016693 C32.9159284,31.0273358 33.3009513,30.6476605 33.600418,30.2626318 L34.3063003,26.8615623 C34.1351765,26.5620956 33.873147,26.2733284 33.5202041,25.9952521 C33.1672611,25.7171759 32.680635,25.5781398 32.060311,25.5781398 C31.5041585,25.5781398 30.9961422,25.6904382 30.5362469,25.9150382 C30.0763515,26.1396383 29.6806335,26.4391005 29.3490811,26.813434 C29.0175286,27.1877674 28.7608467,27.6102231 28.5790276,28.0808136 C28.3972085,28.5514042 28.3063003,29.0326828 28.3063003,29.5246639 C28.3063003,30.2733308 28.5148544,30.8669077 28.9319688,31.3054126 C29.3490832,31.7439174 29.92127,31.9631666 30.6485463,31.9631666 L30.6485463,31.9631666 Z" mask="url(#111-large-e)"/>
    </g>
    <g transform="translate(1 24)">
      <use fill="#000" fill-opacity=".25" xlink:href="#111-large-g"/>
    </g>
  </g>
</svg>
