<svg xmlns="http://www.w3.org/2000/svg" xmlns:xlink="http://www.w3.org/1999/xlink" width="16" height="16" viewBox="0 0 16 16">
  <defs>
    <path id="111-mini-a" d="M1.3,5.9 L8.5,0.5 L15.7,5.9 C16.2036117,6.27770876 16.5,6.87048539 16.5,7.5 L16.5,12.5 C16.5,13.6045695 15.6045695,14.5 14.5,14.5 L2.5,14.5 C1.3954305,14.5 0.5,13.6045695 0.5,12.5 L0.5,7.5 C0.5,6.87048539 0.796388315,6.27770876 1.3,5.9 Z"/>
    <path id="111-mini-b" d="M15.7969045,0.121857318 C15.9288022,0.39174922 16,0.691462048 16,1 L16,6 C16,7.1045695 15.1045695,8 14,8 L2,8 C0.8954305,8 -6.47292498e-17,7.1045695 -2e-16,6 L2.4408921e-16,1 C2.06304208e-16,0.691462048 0.0711978106,0.39174922 0.20309553,0.121857318 L5,3 L11,3 L15.7969045,0.121857318 Z"/>
    <path id="111-mini-d" d="M15.5233535,0.204050984 C15.632001,0.331769096 15.7237809,0.472230408 15.7969045,0.621857318 L11,3.5 L5,3.5 L0.20309553,0.621857318 C0.276196298,0.472276983 0.367941849,0.331856541 0.476545052,0.204170254 L5.12890625,3 L10.8678644,3 L15.5233535,0.204050984 Z M16,1.5 L16,8.5 L-5.55111512e-17,8.5 L-9.43689571e-16,1.5 L-5.55111512e-17,8.5 L16,8.5 L16,1.5 Z"/>
  </defs>
  <g fill="none" fill-rule="evenodd" transform="translate(-.5 -.5)">
    <use fill="#499DF2" xlink:href="#111-mini-a"/>
    <path stroke="#000" stroke-opacity=".4" stroke-width="2.5" d="M8.5,2.0625 L2.05,6.9 C1.86114562,7.04164079 1.75,7.26393202 1.75,7.5 L1.75,12.5 C1.75,12.9142136 2.08578644,13.25 2.5,13.25 L14.5,13.25 C14.9142136,13.25 15.25,12.9142136 15.25,12.5 L15.25,7.5 C15.25,7.26393202 15.1388544,7.04164079 14.95,6.9 L8.5,2.0625 Z"/>
    <path stroke="#FFF" stroke-width="2" d="M8.5,1.75 L1.9,6.7 C1.64819416,6.88885438 1.5,7.1852427 1.5,7.5 L1.5,12.5 C1.5,13.0522847 1.94771525,13.5 2.5,13.5 L14.5,13.5 C15.0522847,13.5 15.5,13.0522847 15.5,12.5 L15.5,7.5 C15.5,7.1852427 15.3518058,6.88885438 15.1,6.7 L8.5,1.75 Z"/>
    <path stroke="#000" stroke-opacity=".3" d="M8.5,1.125 L1.6,6.3 C1.22229124,6.58328157 1,7.02786405 1,7.5 L1,12.5 C1,13.3284271 1.67157288,14 2.5,14 L14.5,14 C15.3284271,14 16,13.3284271 16,12.5 L16,7.5 C16,7.02786405 15.7777088,6.58328157 15.4,6.3 L8.5,1.125 Z"/>
    <g transform="translate(.5 6.5)">
      <mask id="111-mini-c" fill="#fff">
        <use xlink:href="#111-mini-b"/>
      </mask>
      <use fill="#EDEFF2" xlink:href="#111-mini-b"/>
      <path stroke="#000" stroke-opacity=".25" stroke-width=".5" d="M5,2.75 L11,2.75 L11.1767767,2.8232233 L16.6035534,8.25 L-0.603553391,8.25 L4.8232233,2.8232233 L5,2.75 Z" mask="url(#111-mini-c)"/>
      <path stroke="#000" stroke-opacity=".3" d="M8,-5.375 L1.1,-0.2 C0.722291236,0.083281573 0.5,0.527864045 0.5,1 L0.5,6 C0.5,6.82842712 1.17157288,7.5 2,7.5 L14,7.5 C14.8284271,7.5 15.5,6.82842712 15.5,6 L15.5,1 C15.5,0.527864045 15.2777088,0.083281573 14.9,-0.2 L8,-5.375 Z" mask="url(#111-mini-c)"/>
    </g>
    <g transform="translate(.5 6)">
      <use fill="#000" fill-opacity=".4" xlink:href="#111-mini-d"/>
    </g>
  </g>
</svg>
