<svg width="16" height="16" viewBox="0 0 16 16" fill="none" xmlns="http://www.w3.org/2000/svg">
<g clip-path="url(#clip0)">
<mask id="path-1-inside-1" fill="white">
<path fill-rule="evenodd" clip-rule="evenodd" d="M6.49026 4.03893C6.43126 4.01405 6.36512 4 6.29318 4H3.9145C3.64929 4 3.39493 4.10536 3.2074 4.29289L0.292939 7.20735C0.105403 7.39489 4.57764e-05 7.64924 4.57764e-05 7.91446V8.08554C4.57764e-05 8.35076 0.105403 8.60511 0.292939 8.79265L3.2074 11.7071C3.39493 11.8946 3.64929 12 3.9145 12H4.5L5.09996 9.60014L4.9998 9.5L3.50029 8L6.16656 5.33373L6.49026 4.03893ZM9.50966 11.961C9.5687 11.9859 9.63487 12 9.70686 12H12.0855C12.3508 12 12.6051 11.8946 12.7926 11.7071L15.7071 8.79265C15.8946 8.60511 16 8.35076 16 8.08554V7.91446C16 7.64924 15.8946 7.39489 15.7071 7.20735L12.7926 4.29289C12.6051 4.10536 12.3508 4 12.0855 4H11.4996L10.8997 6.39995L12.4998 8L9.83323 10.6665L9.50966 11.961Z"/>
</mask>
<path fill-rule="evenodd" clip-rule="evenodd" d="M6.49026 4.03893C6.43126 4.01405 6.36512 4 6.29318 4H3.9145C3.64929 4 3.39493 4.10536 3.2074 4.29289L0.292939 7.20735C0.105403 7.39489 4.57764e-05 7.64924 4.57764e-05 7.91446V8.08554C4.57764e-05 8.35076 0.105403 8.60511 0.292939 8.79265L3.2074 11.7071C3.39493 11.8946 3.64929 12 3.9145 12H4.5L5.09996 9.60014L4.9998 9.5L3.50029 8L6.16656 5.33373L6.49026 4.03893ZM9.50966 11.961C9.5687 11.9859 9.63487 12 9.70686 12H12.0855C12.3508 12 12.6051 11.8946 12.7926 11.7071L15.7071 8.79265C15.8946 8.60511 16 8.35076 16 8.08554V7.91446C16 7.64924 15.8946 7.39489 15.7071 7.20735L12.7926 4.29289C12.6051 4.10536 12.3508 4 12.0855 4H11.4996L10.8997 6.39995L12.4998 8L9.83323 10.6665L9.50966 11.961Z" fill="#F2C585"/>
<path d="M6.49026 4.03893L6.97533 4.16019L7.07923 3.74463L6.68453 3.57821L6.49026 4.03893ZM3.2074 4.29289L3.56095 4.64645L3.56095 4.64645L3.2074 4.29289ZM0.292939 7.20735L0.646492 7.5609L0.646492 7.5609L0.292939 7.20735ZM0.292939 8.79265L-0.0606147 9.1462L-0.0606144 9.1462L0.292939 8.79265ZM3.2074 11.7071L3.56095 11.3536L3.56095 11.3536L3.2074 11.7071ZM4.5 12V12.5H4.89038L4.98507 12.1213L4.5 12ZM5.09996 9.60014L5.58503 9.72141L5.6537 9.44673L5.45348 9.24655L5.09996 9.60014ZM4.9998 9.5L4.64619 9.8535L4.64628 9.85359L4.9998 9.5ZM3.50029 8L3.14674 7.64645L2.79324 7.99994L3.14668 8.3535L3.50029 8ZM6.16656 5.33373L6.52012 5.68728L6.61805 5.58935L6.65163 5.45499L6.16656 5.33373ZM9.50966 11.961L9.02458 11.8398L8.92074 12.2552L9.31527 12.4217L9.50966 11.961ZM15.7071 8.79265L16.0607 9.1462L16.0607 9.1462L15.7071 8.79265ZM15.7071 7.20735L15.3535 7.5609L15.3535 7.5609L15.7071 7.20735ZM12.7926 4.29289L12.4391 4.64645L12.4391 4.64645L12.7926 4.29289ZM11.4996 4V3.5H11.1092L11.0145 3.87875L11.4996 4ZM10.8997 6.39995L10.4146 6.2787L10.346 6.55333L10.5461 6.7535L10.8997 6.39995ZM12.4998 8L12.8533 8.35355L13.2069 8L12.8533 7.64645L12.4998 8ZM9.83323 10.6665L9.47968 10.313L9.38174 10.4109L9.34815 10.5453L9.83323 10.6665ZM6.68453 3.57821C6.56346 3.52716 6.43122 3.5 6.29318 3.5V4.5C6.29488 4.5 6.29607 4.50008 6.2968 4.50015C6.29753 4.50023 6.29789 4.5003 6.29793 4.50031C6.29797 4.50031 6.29778 4.50028 6.2974 4.50016C6.29703 4.50005 6.29655 4.49988 6.296 4.49965L6.68453 3.57821ZM6.29318 3.5H3.9145V4.5H6.29318V3.5ZM3.9145 3.5C3.51668 3.5 3.13515 3.65804 2.85384 3.93934L3.56095 4.64645C3.65472 4.55268 3.7819 4.5 3.9145 4.5V3.5ZM2.85384 3.93934L-0.0606144 6.8538L0.646492 7.5609L3.56095 4.64645L2.85384 3.93934ZM-0.0606142 6.8538C-0.341919 7.1351 -0.499954 7.51663 -0.499954 7.91446H0.500046C0.500046 7.78185 0.552724 7.65467 0.646492 7.5609L-0.0606142 6.8538ZM-0.499954 7.91446V8.08554H0.500046V7.91446H-0.499954ZM-0.499954 8.08554C-0.499954 8.48337 -0.341919 8.8649 -0.0606147 9.1462L0.646493 8.4391C0.552724 8.34533 0.500046 8.21815 0.500046 8.08554H-0.499954ZM-0.0606144 9.1462L2.85384 12.0607L3.56095 11.3536L0.646492 8.4391L-0.0606144 9.1462ZM2.85384 12.0607C3.13515 12.342 3.51668 12.5 3.9145 12.5V11.5C3.7819 11.5 3.65472 11.4473 3.56095 11.3536L2.85384 12.0607ZM3.9145 12.5H4.5V11.5H3.9145V12.5ZM4.98507 12.1213L5.58503 9.72141L4.61489 9.47887L4.01492 11.8787L4.98507 12.1213ZM5.45348 9.24655L5.35332 9.14641L4.64628 9.85359L4.74644 9.95373L5.45348 9.24655ZM5.35341 9.1465L3.8539 7.6465L3.14668 8.3535L4.64619 9.8535L5.35341 9.1465ZM3.85384 8.35355L6.52012 5.68728L5.81301 4.98017L3.14674 7.64645L3.85384 8.35355ZM6.65163 5.45499L6.97533 4.16019L6.00519 3.91766L5.68149 5.21246L6.65163 5.45499ZM9.31527 12.4217C9.4364 12.4728 9.56873 12.5 9.70686 12.5V11.5C9.70516 11.5 9.70397 11.4999 9.70324 11.4998C9.70252 11.4998 9.70216 11.4997 9.70212 11.4997C9.70208 11.4997 9.70227 11.4997 9.70264 11.4998C9.70301 11.5 9.70349 11.5001 9.70404 11.5004L9.31527 12.4217ZM9.70686 12.5H12.0855V11.5H9.70686V12.5ZM12.0855 12.5C12.4834 12.5 12.8649 12.342 13.1462 12.0607L12.4391 11.3536C12.3453 11.4473 12.2181 11.5 12.0855 11.5V12.5ZM13.1462 12.0607L16.0607 9.1462L15.3535 8.4391L12.4391 11.3536L13.1462 12.0607ZM16.0607 9.1462C16.342 8.8649 16.5 8.48337 16.5 8.08554H15.5C15.5 8.21815 15.4473 8.34533 15.3535 8.4391L16.0607 9.1462ZM16.5 8.08554V7.91446H15.5V8.08554H16.5ZM16.5 7.91446C16.5 7.51663 16.342 7.1351 16.0607 6.8538L15.3535 7.5609C15.4473 7.65467 15.5 7.78185 15.5 7.91446H16.5ZM16.0607 6.8538L13.1462 3.93934L12.4391 4.64645L15.3535 7.5609L16.0607 6.8538ZM13.1462 3.93934C12.8649 3.65804 12.4834 3.5 12.0855 3.5V4.5C12.2181 4.5 12.3453 4.55268 12.4391 4.64645L13.1462 3.93934ZM12.0855 3.5H11.4996V4.5H12.0855V3.5ZM11.0145 3.87875L10.4146 6.2787L11.3848 6.5212L11.9847 4.12125L11.0145 3.87875ZM10.5461 6.7535L12.1462 8.35355L12.8533 7.64645L11.2533 6.04639L10.5461 6.7535ZM12.1462 7.64645L9.47968 10.313L10.1868 11.0201L12.8533 8.35355L12.1462 7.64645ZM9.34815 10.5453L9.02458 11.8398L9.99473 12.0823L10.3183 10.7878L9.34815 10.5453Z" fill="#8C674D" mask="url(#path-1-inside-1)"/>
<path d="M8.39039 2.25H10.3596C10.5223 2.25 10.6416 2.40285 10.6021 2.56063L7.85215 13.5606C7.82432 13.6719 7.72433 13.75 7.60961 13.75H5.64039C5.47775 13.75 5.35841 13.5972 5.39785 13.4394L8.14785 2.43937C8.17568 2.32807 8.27567 2.25 8.39039 2.25Z" fill="#F2C585" stroke="#8C674D" stroke-width="0.5"/>
</g>
<defs>
<clipPath id="clip0">
<rect width="16" height="16" fill="white"/>
</clipPath>
</defs>
</svg>
