<svg width="16" height="16" viewBox="0 0 16 16" fill="none" xmlns="http://www.w3.org/2000/svg">
<path fill-rule="evenodd" clip-rule="evenodd" d="M8.89039 2C8.66095 2 8.46096 2.15615 8.40532 2.37873L5.65532 13.3787C5.57642 13.6943 5.8151 14 6.14039 14H7.10961C7.33905 14 7.53904 13.8439 7.59468 13.6213L10.3447 2.62127C10.4236 2.30569 10.1849 2 9.85961 2H8.89039ZM2.5 8L4.9 10.4L4.5 12H3.91444C3.64923 12 3.39489 11.8947 3.20736 11.7071L0.292918 8.7929C0.105366 8.60536 0 8.35099 0 8.08577V7.91446C0 7.64924 0.105357 7.39489 0.292893 7.20735L3.20735 4.29289C3.39489 4.10536 3.64924 4 3.91446 4H5.29289C5.73835 4 5.96143 4.53857 5.64645 4.85355L2.5 8ZM13.5 8L11.0997 5.59973L11.4996 4H12.0856C12.3508 4 12.6051 4.10535 12.7926 4.29287L15.7071 7.2071C15.8946 7.39464 16 7.64901 16 7.91423V8.08554C16 8.35076 15.8946 8.60511 15.7071 8.79265L12.7926 11.7071C12.6051 11.8946 12.3508 12 12.0855 12H10.7071C10.2617 12 10.0386 11.4614 10.3536 11.1464L13.5 8Z" fill="black"/>
</svg>
