<svg width="64" height="64" viewBox="0 0 64 64" fill="none" xmlns="http://www.w3.org/2000/svg">
<mask id="path-1-inside-1" fill="white">
<path fill-rule="evenodd" clip-rule="evenodd" d="M8 8C5.79086 8 4 9.79086 4 12V32H28V12C28 9.79086 26.2091 8 24 8H8ZM40 8C37.7909 8 36 9.79086 36 12V32H60V12C60 9.79086 58.2091 8 56 8H40Z"/>
</mask>
<g filter="url(#filter0_i)">
<path fill-rule="evenodd" clip-rule="evenodd" d="M8 8C5.79086 8 4 9.79086 4 12V32H28V12C28 9.79086 26.2091 8 24 8H8ZM40 8C37.7909 8 36 9.79086 36 12V32H60V12C60 9.79086 58.2091 8 56 8H40Z" fill="#EDEFF2"/>
</g>
<path d="M4 32H3V33H4V32ZM28 32V33H29V32H28ZM36 32H35V33H36V32ZM60 32V33H61V32H60ZM5 12C5 10.3431 6.34315 9 8 9V7C5.23858 7 3 9.23858 3 12H5ZM5 32V12H3V32H5ZM28 31H4V33H28V31ZM27 12V32H29V12H27ZM24 9C25.6569 9 27 10.3431 27 12H29C29 9.23858 26.7614 7 24 7V9ZM8 9H24V7H8V9ZM37 12C37 10.3431 38.3431 9 40 9V7C37.2386 7 35 9.23858 35 12H37ZM37 32V12H35V32H37ZM60 31H36V33H60V31ZM59 12V32H61V12H59ZM56 9C57.6569 9 59 10.3431 59 12H61C61 9.23858 58.7614 7 56 7V9ZM40 9H56V7H40V9Z" fill="black" fill-opacity="0.4" mask="url(#path-1-inside-1)"/>
<path d="M0 24C0 21.7909 1.79086 20 4 20H60C62.2091 20 64 21.7909 64 24V48C64 52.4183 60.4183 56 56 56H8C3.58172 56 0 52.4183 0 48V24Z" fill="#EDEFF2"/>
<path d="M4 20.5H60C61.933 20.5 63.5 22.067 63.5 24V48C63.5 52.1421 60.1421 55.5 56 55.5H8C3.85786 55.5 0.5 52.1421 0.5 48V24C0.5 22.067 2.067 20.5 4 20.5Z" stroke="black" stroke-opacity="0.4"/>
<mask id="path-5-inside-2" fill="white">
<path fill-rule="evenodd" clip-rule="evenodd" d="M24.1 43.6L18.5 37.9999L26.7929 29.707C27.4229 29.077 26.9767 27.9999 26.0858 27.9999H22.3284C21.798 27.9999 21.2893 28.2106 20.9142 28.5857L12.3536 37.1463C12.1272 37.3727 12 37.6797 12 37.9999C12 38.32 12.1272 38.6271 12.3535 38.8534L20.9142 47.4142C21.2893 47.7893 21.798 48 22.3284 48H23L24.1 43.6ZM39.9 32.3999L45.5 38L37.2071 46.2929C36.5771 46.9229 37.0233 48 37.9142 48H41.6716C42.202 48 42.7107 47.7893 43.0858 47.4142L51.6464 38.8536C51.8728 38.6272 52 38.3201 52 38C52 37.6799 51.8728 37.3728 51.6465 37.1464L43.0858 28.5857C42.7107 28.2106 42.202 27.9999 41.6716 27.9999H41L39.9 32.3999Z"/>
</mask>
<path fill-rule="evenodd" clip-rule="evenodd" d="M24.1 43.6L18.5 37.9999L26.7929 29.707C27.4229 29.077 26.9767 27.9999 26.0858 27.9999H22.3284C21.798 27.9999 21.2893 28.2106 20.9142 28.5857L12.3536 37.1463C12.1272 37.3727 12 37.6797 12 37.9999C12 38.32 12.1272 38.6271 12.3535 38.8534L20.9142 47.4142C21.2893 47.7893 21.798 48 22.3284 48H23L24.1 43.6ZM39.9 32.3999L45.5 38L37.2071 46.2929C36.5771 46.9229 37.0233 48 37.9142 48H41.6716C42.202 48 42.7107 47.7893 43.0858 47.4142L51.6464 38.8536C51.8728 38.6272 52 38.3201 52 38C52 37.6799 51.8728 37.3728 51.6465 37.1464L43.0858 28.5857C42.7107 28.2106 42.202 27.9999 41.6716 27.9999H41L39.9 32.3999Z" fill="#F2C585"/>
<path d="M24.1 43.6L24.5851 43.7212L24.6537 43.4466L24.4536 43.2464L24.1 43.6ZM18.5 37.9999L18.1464 37.6463L17.7929 37.9999L18.1464 38.3534L18.5 37.9999ZM26.7929 29.707L27.1464 30.0605L26.7929 29.707ZM20.9142 28.5857L21.2678 28.9392L21.2678 28.9392L20.9142 28.5857ZM12.3536 37.1463L12 36.7928L12 36.7928L12.3536 37.1463ZM12.3535 38.8534L12.7071 38.4999L12.7071 38.4999L12.3535 38.8534ZM20.9142 47.4142L20.5607 47.7678L20.9142 47.4142ZM23 48V48.5H23.3904L23.4851 48.1213L23 48ZM39.9 32.3999L39.4149 32.2787L39.3463 32.5533L39.5465 32.7535L39.9 32.3999ZM45.5 38L45.8536 38.3536L46.2071 38L45.8536 37.6464L45.5 38ZM43.0858 47.4142L42.7322 47.0607L42.7322 47.0607L43.0858 47.4142ZM51.6464 38.8536L52 39.2071L52 39.2071L51.6464 38.8536ZM51.6465 37.1464L51.2929 37.5L51.2929 37.5L51.6465 37.1464ZM43.0858 28.5857L43.4393 28.2321L43.4393 28.2321L43.0858 28.5857ZM41 27.9999V27.4999H40.6096L40.515 27.8786L41 27.9999ZM24.4536 43.2464L18.8536 37.6463L18.1464 38.3534L23.7465 43.9535L24.4536 43.2464ZM18.8536 38.3534L27.1464 30.0605L26.4393 29.3534L18.1464 37.6463L18.8536 38.3534ZM27.1464 30.0605C28.0914 29.1156 27.4221 27.4999 26.0858 27.4999V28.4999C26.5312 28.4999 26.7543 29.0384 26.4393 29.3534L27.1464 30.0605ZM26.0858 27.4999H22.3284V28.4999H26.0858V27.4999ZM22.3284 27.4999C21.6654 27.4999 21.0295 27.7633 20.5607 28.2321L21.2678 28.9392C21.5491 28.6579 21.9306 28.4999 22.3284 28.4999V27.4999ZM20.5607 28.2321L12 36.7928L12.7071 37.4999L21.2678 28.9392L20.5607 28.2321ZM12 36.7928C11.6799 37.1129 11.5 37.5471 11.5 37.9999H12.5C12.5 37.8123 12.5745 37.6325 12.7071 37.4999L12 36.7928ZM11.5 37.9999C11.5 38.4526 11.6799 38.8868 12 39.207L12.7071 38.4999C12.5745 38.3673 12.5 38.1874 12.5 37.9999H11.5ZM12 39.207L20.5607 47.7678L21.2678 47.0607L12.7071 38.4999L12 39.207ZM20.5607 47.7678C21.0295 48.2366 21.6654 48.5 22.3284 48.5V47.5C21.9306 47.5 21.5491 47.342 21.2678 47.0607L20.5607 47.7678ZM22.3284 48.5H23V47.5H22.3284V48.5ZM23.4851 48.1213L24.5851 43.7212L23.6149 43.4787L22.5149 47.8787L23.4851 48.1213ZM39.5465 32.7535L45.1464 38.3536L45.8536 37.6464L40.2536 32.0464L39.5465 32.7535ZM45.1464 37.6464L36.8536 45.9393L37.5607 46.6464L45.8536 38.3536L45.1464 37.6464ZM36.8536 45.9393C35.9086 46.8843 36.5779 48.5 37.9142 48.5V47.5C37.4688 47.5 37.2457 46.9614 37.5607 46.6464L36.8536 45.9393ZM37.9142 48.5H41.6716V47.5H37.9142V48.5ZM41.6716 48.5C42.3346 48.5 42.9705 48.2366 43.4393 47.7678L42.7322 47.0607C42.4509 47.342 42.0694 47.5 41.6716 47.5V48.5ZM43.4393 47.7678L52 39.2071L51.2929 38.5L42.7322 47.0607L43.4393 47.7678ZM52 39.2071C52.3201 38.887 52.5 38.4528 52.5 38H51.5C51.5 38.1875 51.4255 38.3674 51.2929 38.5L52 39.2071ZM52.5 38C52.5 37.5472 52.3201 37.113 52 36.7929L51.2929 37.5C51.4255 37.6326 51.5 37.8125 51.5 38H52.5ZM52 36.7929L43.4393 28.2321L42.7322 28.9392L51.2929 37.5L52 36.7929ZM43.4393 28.2321C42.9705 27.7633 42.3346 27.4999 41.6716 27.4999V28.4999C42.0694 28.4999 42.4509 28.6579 42.7322 28.9392L43.4393 28.2321ZM41.6716 27.4999H41V28.4999H41.6716V27.4999ZM40.515 27.8786L39.4149 32.2787L40.3851 32.5212L41.4851 28.1211L40.515 27.8786Z" fill="#8C674D" mask="url(#path-5-inside-2)"/>
<path d="M33.7808 24.25H36.7192C37.2072 24.25 37.5652 24.7085 37.4468 25.1819L30.9468 51.1819C30.8634 51.5158 30.5634 51.75 30.2192 51.75H27.2808C26.7928 51.75 26.4348 51.2915 26.5532 50.8181L33.0532 24.8181C33.1366 24.4842 33.4366 24.25 33.7808 24.25Z" fill="#F2C585" stroke="#8C674D" stroke-width="0.5"/>
<defs>
<filter id="filter0_i" x="4" y="8" width="56" height="24" filterUnits="userSpaceOnUse" color-interpolation-filters="sRGB">
<feFlood flood-opacity="0" result="BackgroundImageFix"/>
<feBlend mode="normal" in="SourceGraphic" in2="BackgroundImageFix" result="shape"/>
<feColorMatrix in="SourceAlpha" type="matrix" values="0 0 0 0 0 0 0 0 0 0 0 0 0 0 0 0 0 0 127 0" result="hardAlpha"/>
<feOffset dy="-14"/>
<feComposite in2="hardAlpha" operator="arithmetic" k2="-1" k3="1"/>
<feColorMatrix type="matrix" values="0 0 0 0 0 0 0 0 0 0 0 0 0 0 0 0 0 0 0.1 0"/>
<feBlend mode="normal" in2="shape" result="effect1_innerShadow"/>
</filter>
</defs>
</svg>
