<svg width="64" height="64" viewBox="0 0 64 64" fill="none" xmlns="http://www.w3.org/2000/svg">
<g clip-path="url(#clip0)">
<g filter="url(#filter0_i)">
<rect x="8" y="6" width="47.9506" height="58" rx="4" fill="#B8BDCC"/>
</g>
<rect x="8.5" y="6.5" width="46.9506" height="57" rx="3.5" stroke="#5C5E66"/>
<rect x="13.1921" y="10.4464" width="37.5662" height="48.1539" fill="#F8F8F9" stroke="#656E76" stroke-width="0.5"/>
<path d="M32.3107 52.4726L41.4042 42.904C42.5891 41.8583 43.3247 40.301 43.3247 38.6006C43.3247 35.3334 40.6536 32.6624 37.3865 32.6624C34.9642 32.6624 32.8696 34.1306 31.9482 36.2214C31.0269 34.1306 28.9323 32.6624 26.51 32.6624C23.2428 32.6624 20.5718 35.3334 20.5718 38.6006C20.5718 40.3074 21.3121 41.8601 22.4872 42.9666L31.587 52.4739L31.9495 52.8526L32.3107 52.4726Z" fill="#FFA9A9" stroke="#F25151"/>
<mask id="mask0" mask-type="alpha" maskUnits="userSpaceOnUse" x="19" y="32" width="25" height="22">
<path d="M32.309 52.4411L41.506 42.8552C42.7036 41.8083 43.4482 40.248 43.4482 38.543C43.4482 35.266 40.7449 32.595 37.4482 32.595C34.999 32.595 32.8772 34.0693 31.9482 36.1712C31.0193 34.0693 28.8975 32.595 26.4482 32.595C23.1516 32.595 20.4482 35.266 20.4482 38.543C20.4482 40.2544 21.1976 41.81 22.3854 42.9179L31.5887 52.4424L31.9495 52.8158L32.309 52.4411Z" fill="#FFA9A9" stroke="#C9333C"/>
</mask>
<g mask="url(#mask0)">
<path d="M18.4443 43.5598H30.5258L32.4608 46.5696L35.4517 37.3582L37.4845 43.5598L45.2908 43.6815" stroke="#F8F8F9" stroke-width="1.5"/>
</g>
<path d="M18.425 19.4491H40.2021" stroke="#B9BDC2" stroke-width="1.5" stroke-linecap="round"/>
<path d="M18.6482 24.491H27.7245" stroke="#B9BDC2" stroke-width="1.5" stroke-linecap="round"/>
<path d="M31.9482 24.491H35.5657" stroke="#B9BDC2" stroke-width="1.5" stroke-linecap="round"/>
<rect opacity="0.6" x="17.2905" y="6.20618" width="29.3155" height="8.81398" rx="4" fill="#B8BDCC"/>
<mask id="path-11-inside-1" fill="white">
<path fill-rule="evenodd" clip-rule="evenodd" d="M36.5629 4.06384H42.8733C45.0824 4.06384 46.8733 5.8547 46.8733 8.06384V8.17467C46.8733 10.3838 45.0824 12.1747 42.8733 12.1747H21.0232C18.8141 12.1747 17.0232 10.3838 17.0232 8.17467V8.06384C17.0232 5.8547 18.8141 4.06384 21.0232 4.06384H27.3336C27.7411 1.88602 29.6522 0.237793 31.9482 0.237793C34.2443 0.237793 36.1554 1.88602 36.5629 4.06384Z"/>
</mask>
<path fill-rule="evenodd" clip-rule="evenodd" d="M36.5629 4.06384H42.8733C45.0824 4.06384 46.8733 5.8547 46.8733 8.06384V8.17467C46.8733 10.3838 45.0824 12.1747 42.8733 12.1747H21.0232C18.8141 12.1747 17.0232 10.3838 17.0232 8.17467V8.06384C17.0232 5.8547 18.8141 4.06384 21.0232 4.06384H27.3336C27.7411 1.88602 29.6522 0.237793 31.9482 0.237793C34.2443 0.237793 36.1554 1.88602 36.5629 4.06384Z" fill="#E6E6E8"/>
<path d="M36.5629 4.06384L35.5799 4.24776L35.7326 5.06384H36.5629V4.06384ZM27.3336 4.06384V5.06384H28.1638L28.3165 4.24776L27.3336 4.06384ZM36.5629 5.06384H42.8733V3.06384H36.5629V5.06384ZM42.8733 5.06384C44.5301 5.06384 45.8733 6.40699 45.8733 8.06384H47.8733C47.8733 5.30242 45.6347 3.06384 42.8733 3.06384V5.06384ZM45.8733 8.06384V8.17467H47.8733V8.06384H45.8733ZM45.8733 8.17467C45.8733 9.83152 44.5301 11.1747 42.8733 11.1747V13.1747C45.6347 13.1747 47.8733 10.9361 47.8733 8.17467H45.8733ZM42.8733 11.1747H21.0232V13.1747H42.8733V11.1747ZM21.0232 11.1747C19.3663 11.1747 18.0232 9.83152 18.0232 8.17467H16.0232C16.0232 10.9361 18.2618 13.1747 21.0232 13.1747V11.1747ZM18.0232 8.17467V8.06384H16.0232V8.17467H18.0232ZM18.0232 8.06384C18.0232 6.40699 19.3663 5.06384 21.0232 5.06384V3.06384C18.2618 3.06384 16.0232 5.30242 16.0232 8.06384H18.0232ZM21.0232 5.06384H27.3336V3.06384H21.0232V5.06384ZM28.3165 4.24776C28.6371 2.53439 30.1423 1.23779 31.9482 1.23779V-0.762207C29.162 -0.762207 26.845 1.23765 26.3506 3.87993L28.3165 4.24776ZM31.9482 1.23779C33.7541 1.23779 35.2593 2.53439 35.5799 4.24776L37.5458 3.87993C37.0514 1.23765 34.7344 -0.762207 31.9482 -0.762207V1.23779Z" fill="#656E76" mask="url(#path-11-inside-1)"/>
<circle cx="32.0001" cy="5.10724" r="1.55695" fill="#656E76"/>
</g>
<defs>
<filter id="filter0_i" x="8" y="6" width="47.9506" height="58" filterUnits="userSpaceOnUse" color-interpolation-filters="sRGB">
<feFlood flood-opacity="0" result="BackgroundImageFix"/>
<feBlend mode="normal" in="SourceGraphic" in2="BackgroundImageFix" result="shape"/>
<feColorMatrix in="SourceAlpha" type="matrix" values="0 0 0 0 0 0 0 0 0 0 0 0 0 0 0 0 0 0 127 0" result="hardAlpha"/>
<feOffset dy="-2"/>
<feComposite in2="hardAlpha" operator="arithmetic" k2="-1" k3="1"/>
<feColorMatrix type="matrix" values="0 0 0 0 0 0 0 0 0 0 0 0 0 0 0 0 0 0 0.25 0"/>
<feBlend mode="normal" in2="shape" result="effect1_innerShadow"/>
</filter>
<clipPath id="clip0">
<rect width="64" height="64" fill="white"/>
</clipPath>
</defs>
</svg>
