<svg width="16" height="16" viewBox="0 0 16 16" fill="none" xmlns="http://www.w3.org/2000/svg">
<path d="M8 3.3135C7.25883 2.50367 6.17669 2 5 2C2.84081 2 1 3.69591 1 5.86738C1 6.99414 1.50876 8.00091 2.28619 8.70745L7.29339 13.7076L8.00252 14.4157L8.70912 13.7051L13.7043 8.68133C14.5007 7.99704 15 6.98172 15 5.86738C15 3.69591 13.1592 2 11 2C9.82331 2 8.74117 2.50367 8 3.3135Z" stroke="#262626" stroke-width="2"/>
<mask id="mask0" mask-type="alpha" maskUnits="userSpaceOnUse" x="1" y="2" width="14" height="12">
<path d="M3.16819 7.5709L3.1571 7.55982L3.14542 7.54936C2.62742 7.0852 2.31799 6.44957 2.31799 5.76822C2.31799 4.46253 3.44614 3.34741 4.87758 3.34741C6.30902 3.34741 7.43717 4.46253 7.43717 5.76822H8.01713H8.59709C8.59709 4.46253 9.72524 3.34741 11.1567 3.34741C12.5881 3.34741 13.7163 4.46253 13.7163 5.76822C13.7163 6.45262 13.4051 7.07967 12.9038 7.49889L12.8834 7.51597L12.8646 7.53485L8.01567 12.4116L3.16819 7.5709Z" fill="#FFA9A9" stroke="#F25151" stroke-width="1.15991"/>
</mask>
<g mask="url(#mask0)">
<path d="M0.446289 8.45944L6.46457 8.45943L7.54308 9.93655L9.4822 5.52734L11.0242 8.45944H16.5664" stroke="#262626" stroke-width="1.5"/>
</g>
</svg>
