<svg width="16" height="16" viewBox="0 0 16 16" fill="none" xmlns="http://www.w3.org/2000/svg">
<rect width="16" height="16" fill="black" fill-opacity="0.01"/>
<path fill-rule="evenodd" clip-rule="evenodd" d="M0 5C0 3.34315 1.34315 2 3 2H13C14.6556 2 15.998 3.34116 16 4.99633C15.3694 4.38236 14.5081 4.00416 13.5585 4.00416H3.50377C3.22763 4.00416 3.00377 4.22802 3.00377 4.50416C3.00377 4.78031 3.22763 5.00416 3.50377 5.00416H13.5585C14.7537 5.00416 15.753 5.84289 16 6.96388V8H13.529C12.6846 8 12 8.68457 12 9.52902C12 10.3735 12.6846 11.058 13.529 11.058H15.9994C15.9685 12.6881 14.6375 14 13 14H3C1.34315 14 0 12.6569 0 11V5Z" fill="white"/>
</svg>
