<svg width="16" height="16" viewBox="0 0 16 16" fill="none" xmlns="http://www.w3.org/2000/svg">
<rect width="16" height="16" fill="black" fill-opacity="0.01"/>
<path fill-rule="evenodd" clip-rule="evenodd" d="M0 5C0 3.34315 1.34315 2 3 2H13C14.6569 2 16 3.34315 16 5V5.00276C15.3689 4.38499 14.5049 4.00416 13.5519 4.00416H3.49718C3.22104 4.00416 2.99718 4.22802 2.99718 4.50416C2.99718 4.78031 3.22104 5.00416 3.49718 5.00416H13.5519C14.7581 5.00416 15.7647 5.85831 16 6.99473V8H13.529C12.6846 8 12 8.68457 12 9.52902C12 10.3735 12.6846 11.058 13.529 11.058H15.9994C15.9685 12.6881 14.6375 14 13 14H3C1.34315 14 0 12.6569 0 11V5Z" fill="black"/>
</svg>
