<svg xmlns="http://www.w3.org/2000/svg" width="18" height="18" viewBox="0 0 18 18">
  <g fill="#FFF">
    <path fill-opacity=".7" d="M16.8920102,3.8609795 C17.5851565,4.71943001 18,5.81164691 18,7 C18,9.75912454 15.76367,12 13,12 C12.2660852,12 11.569359,11.8419711 10.9418264,11.5581736 L10,12.5 L10,14 L9,15 L7.5,15 L7,15.5 L7,17 L6,18 L3.5,18 L2.5,17 L4.41421356,17 L6,15.4142136 L6,14 L7.41421356,14 L9,12.4142136 L9,10.9142136 L9.19170651,10.7225071 C9.77100236,10.905408 10.3792716,11 11,11 C14.314526,11 17,8.31283915 17,5 C17,4.6105641 16.9628899,4.22977434 16.8920102,3.8609795 Z"/>
    <path d="M6.02251556,5.47748444 C6.00761846,5.32031681 6,5.16104116 6,5 C6,2.24087546 8.23632996,0 11,0 C13.76367,0 16,2.24087546 16,5 C16,7.75912454 13.76367,10 11,10 C10.2660852,10 9.56935903,9.84197107 8.94182642,9.55817358 L8,10.5 L8,12 L7,13 L5.5,13 L5,13.5 L5,15 L4,16 L1.5,16 L0,14.5 L0,11.5 L6.02251556,5.47748444 Z M11.75,6 C12.7172845,6 13.5,5.21569359 13.5,4.25 C13.5,3.28430641 12.7172845,2.5 11.75,2.5 C10.7827155,2.5 10,3.28430641 10,4.25 C10,5.21569359 10.7827155,6 11.75,6 Z"/>
  </g>
</svg>
