<svg xmlns="http://www.w3.org/2000/svg" xmlns:xlink="http://www.w3.org/1999/xlink" width="32" height="32" viewBox="0 0 32 32">
  <defs>
    <rect id="folder-medium-a" width="32" height="20" y="8" rx="4"/>
    <path id="folder-medium-b" d="M30,9.76389349 L30,6.99420208 C30,5.34331197 28.6584255,4 27.0035095,4 L13.8304373,4 C13.4197777,2.83624024 12.3088652,2 11.002848,2 L4.99715203,2 C3.34162278,2 2,3.34054993 2,4.99420208 L2,9.76389349 C2.53075649,9.28885357 3.23164556,9 4,9 L4,9 L28,9 C28.7683544,9 29.4692435,9.28885357 30,9.76389349 Z"/>
  </defs>
  <g fill="none" fill-rule="evenodd">
    <use fill="#B6D4F2" xlink:href="#folder-medium-a"/>
    <rect width="31" height="19" x=".5" y="8.5" stroke="#000" stroke-opacity=".4" rx="4"/>
    <g>
      <use fill="#91C2F2" xlink:href="#folder-medium-b"/>
      <path stroke="#000" stroke-opacity=".4" d="M29.5,8.83685403 L29.5,6.99420208 C29.5,5.61851463 28.3813433,4.5 27.0035095,4.5 L13.476657,4.5 L13.358932,4.16638154 C13.0096989,3.17669696 12.070014,2.5 11.002848,2.5 L4.99715203,2.5 C3.617747,2.5 2.5,3.61671065 2.5,4.99420208 L2.5,8.83685403 C2.9617732,8.6176078 3.47197959,8.5 4,8.5 L28,8.5 C28.5280204,8.5 29.0382268,8.6176078 29.5,8.83685403 Z"/>
    </g>
  </g>
</svg>
