<svg xmlns="http://www.w3.org/2000/svg" xmlns:xlink="http://www.w3.org/1999/xlink" width="18" height="18" viewBox="0 0 18 18">
  <defs>
    <rect id="folder-mono-black-a" width="18" height="11" y="5" rx="2"/>
    <path id="folder-mono-black-b" d="M7.62111274,2 L14.75,2 C15.9926407,2 17,3.00735931 17,4.25 L17,6 L1,6 L1,5.125 L1,3.25 L1,3.25 C1,2.00735931 2.00735931,1 3.25,1 L3.25,1 L5.75,1 C6.53010403,1 7.21748207,1.39700713 7.62111274,2 Z"/>
  </defs>
  <g fill="none" fill-rule="evenodd">
    <use fill="#000" fill-opacity=".2" xlink:href="#folder-mono-black-a"/>
    <rect width="17" height="10" x=".5" y="5.5" stroke="#000" rx="2"/>
    <g>
      <use fill="#000" fill-opacity=".1" xlink:href="#folder-mono-black-b"/>
      <path stroke="#000" d="M1.5,5.5 L16.5,5.5 L16.5,4.25 C16.5,3.28350169 15.7164983,2.5 14.75,2.5 L7.35412367,2.5 L7.20560844,2.27812979 C6.8823952,1.79527431 6.34162731,1.5 5.75,1.5 L3.25,1.5 C2.28350169,1.5 1.5,2.28350169 1.5,3.25 L1.5,5.5 Z"/>
    </g>
  </g>
</svg>
