<svg xmlns="http://www.w3.org/2000/svg" xmlns:xlink="http://www.w3.org/1999/xlink" width="18" height="18" viewBox="0 0 18 18">
  <defs>
    <circle id="old_passwords-mono-black-a" cx="9" cy="9" r="9"/>
  </defs>
  <g fill="none" fill-rule="evenodd">
    <use fill="#000" fill-opacity=".2" xlink:href="#old_passwords-mono-black-a"/>
    <circle cx="9" cy="9" r="8.5" stroke="#000"/>
    <path fill="#000" d="M10,8.68579874 L10,5 C10,4.44771525 9.55228475,4 9,4 L9,4 L9,4 C8.44771525,4 8,4.44771525 8,5 L8,5 L8,9 C8,9.06208307 8.00565747,9.12284477 8.01648498,9.18179766 C8.03216638,9.41475319 8.12904028,9.64326615 8.30710669,9.82133255 L11.1355338,12.6497597 C11.5260581,13.040284 12.1592231,13.040284 12.5497474,12.6497597 C12.9402717,12.2592354 12.9402717,11.6260704 12.5497474,11.2355461 L12.5497474,11.2355461 L10,8.68579874 Z"/>
  </g>
</svg>
