<svg xmlns="http://www.w3.org/2000/svg" width="18" height="18" viewBox="0 0 18 18">
  <path fill="#FFF" fill-rule="evenodd" d="M13.0334439,10.9121484 L17.5337775,15.4124819 C18.1184318,15.9971363 18.121598,16.941882 17.5317276,17.5317524 C16.9459412,18.1175388 15.9961349,18.1174801 15.4124571,17.5338023 L10.9121177,13.0334628 C9.92035155,13.6463208 8.75147887,14 7.5,14 C3.91014913,14 1,11.0898509 1,7.5 C1,3.91014913 3.91014913,1 7.5,1 C11.0898509,1 14,3.91014913 14,7.5 C14,8.75149176 13.6463136,9.92037563 13.0334439,10.9121484 Z M7.5,12 C9.98528137,12 12,9.98528137 12,7.5 C12,5.01471863 9.98528137,3 7.5,3 C5.01471863,3 3,5.01471863 3,7.5 C3,9.98528137 5.01471863,12 7.5,12 Z"/>
</svg>
