<svg xmlns="http://www.w3.org/2000/svg" width="18" height="18" viewBox="0 0 18 18">
  <g fill="#FFF" fill-rule="evenodd">
    <path fill-rule="nonzero" d="M15,5.49309635 L15,16.5069036 C15,17.3361142 14.3304216,18 13.5044548,18 L4.49554521,18 C3.67955446,18 3,17.331518 3,16.5069036 L3,5.49309635 L15,5.49309635 Z M9,7 C8.44771525,7 8,7.4463114 8,7.99754465 L8,15.0024554 C8,15.553384 8.44386482,16 9,16 C9.55228475,16 10,15.5536886 10,15.0024554 L10,7.99754465 C10,7.44661595 9.55613518,7 9,7 Z M6,7 C5.44771525,7 5,7.4463114 5,7.99754465 L5,15.0024554 C5,15.553384 5.44386482,16 6,16 C6.55228475,16 7,15.5536886 7,15.0024554 L7,7.99754465 C7,7.44661595 6.55613518,7 6,7 Z M12,7 C11.4477153,7 11,7.4463114 11,7.99754465 L11,15.0024554 C11,15.553384 11.4438648,16 12,16 C12.5522847,16 13,15.5536886 13,15.0024554 L13,7.99754465 C13,7.44661595 12.5561352,7 12,7 Z"/>
    <path d="M12.4645556,3 L10.9369913,3 C10.7149699,2.13738639 9.93191971,1.5 9,1.5 C8.06808029,1.5 7.28503014,2.13738639 7.06300874,3 L5.53544443,3 C5.77805926,1.30385293 7.23676405,0 9,0 C10.763236,0 12.2219407,1.30385293 12.4645556,3 Z M2.00087166,3 L15.9991283,3 C16.5553691,3 17,3.44771525 17,4 C17,4.55613518 16.5518945,5 15.9991283,5 L2.00087166,5 C1.44463086,5 1,4.55228475 1,4 C1,3.44386482 1.4481055,3 2.00087166,3 Z"/>
  </g>
</svg>
