<svg xmlns="http://www.w3.org/2000/svg" xmlns:xlink="http://www.w3.org/1999/xlink" width="64" height="64" viewBox="0 0 128 128">
  <defs>
    <radialGradient id="lock-chrome-darkmode-a" cx="50%" cy="50%" r="45.064%" fx="50%" fy="50%">
      <stop offset="0%" stop-color="#EDEDED" stop-opacity="0"/>
      <stop offset="88.013%" stop-color="#EDEDED" stop-opacity=".85"/>
      <stop offset="100%" stop-color="#EDEDED"/>
    </radialGradient>
    <path id="lock-chrome-darkmode-c" d="M64,7 C95.4801663,7 121,32.5197229 121,64 C121,95.4806 95.4801663,121 64,121 C32.5198337,121 7,95.4806 7,64 C7,32.5197229 32.5198337,7 64,7 Z M64,18 C38.5948155,18 18,38.5947779 18,63.9998426 C18,89.4052221 38.5948155,110 64,110 C89.4048696,110 110,89.4052221 110,63.9998426 C110,38.5947779 89.4048696,18 64,18 Z"/>
    <filter id="lock-chrome-darkmode-b" width="119.3%" height="119.3%" x="-9.6%" y="-7.9%" filterUnits="objectBoundingBox">
      <feMorphology in="SourceAlpha" operator="dilate" radius="1" result="shadowSpreadOuter1"/>
      <feOffset dy="2" in="shadowSpreadOuter1" result="shadowOffsetOuter1"/>
      <feGaussianBlur in="shadowOffsetOuter1" result="shadowBlurOuter1" stdDeviation="3"/>
      <feComposite in="shadowBlurOuter1" in2="SourceAlpha" operator="out" result="shadowBlurOuter1"/>
      <feColorMatrix in="shadowBlurOuter1" values="0 0 0 0 0   0 0 0 0 0   0 0 0 0 0  0 0 0 0.25 0"/>
    </filter>
    <linearGradient id="lock-chrome-darkmode-e" x1="50%" x2="50%" y1="0%" y2="100%">
      <stop offset="0%"/>
      <stop offset="100%" stop-opacity="0"/>
    </linearGradient>
    <path id="lock-chrome-darkmode-d" d="M64.0001597,29 C83.3301891,29 99,44.6699158 99,64 C99,83.3300842 83.3301891,99 64.0001597,99 C44.6701304,99 29,83.3300842 29,64 C29,44.6699158 44.6701304,29 64.0001597,29 L64.0001597,29 Z"/>
    <path id="lock-chrome-darkmode-f" d="M63.9998368,48 C72.8363277,48 80,55.1631949 80,64 C80,72.8364786 72.8363277,80 63.9998368,80 C55.1633459,80 48,72.8364786 48,64 C48,55.1631949 55.1633459,48 63.9998368,48 L63.9998368,48 Z"/>
    <filter id="lock-chrome-darkmode-g" width="140.6%" height="140.6%" x="-20.3%" y="-20.3%" filterUnits="objectBoundingBox">
      <feGaussianBlur in="SourceAlpha" result="shadowBlurInner1" stdDeviation="3"/>
      <feOffset dy="6" in="shadowBlurInner1" result="shadowOffsetInner1"/>
      <feComposite in="shadowOffsetInner1" in2="SourceAlpha" k2="-1" k3="1" operator="arithmetic" result="shadowInnerInner1"/>
      <feColorMatrix in="shadowInnerInner1" result="shadowMatrixInner1" values="0 0 0 0 0   0 0 0 0 0   0 0 0 0 0  0 0 0 0.03 0"/>
      <feMorphology in="SourceAlpha" radius="1" result="shadowSpreadInner2"/>
      <feOffset dy="1" in="shadowSpreadInner2" result="shadowOffsetInner2"/>
      <feComposite in="shadowOffsetInner2" in2="SourceAlpha" k2="-1" k3="1" operator="arithmetic" result="shadowInnerInner2"/>
      <feColorMatrix in="shadowInnerInner2" result="shadowMatrixInner2" values="0 0 0 0 0   0 0 0 0 0   0 0 0 0 0  0 0 0 0.07 0"/>
      <feMerge>
        <feMergeNode in="shadowMatrixInner1"/>
        <feMergeNode in="shadowMatrixInner2"/>
      </feMerge>
    </filter>
  </defs>
  <g fill="none" fill-rule="evenodd">
    <path fill="url(#lock-chrome-darkmode-a)" d="M64,7 C95.4801663,7 121,32.5197229 121,64 C121,95.4806 95.4801663,121 64,121 C32.5198337,121 7,95.4806 7,64 C7,32.5197229 32.5198337,7 64,7 Z M64,18 C38.5948155,18 18,38.5947779 18,63.9998426 C18,89.4052221 38.5948155,110 64,110 C89.4048696,110 110,89.4052221 110,63.9998426 C110,38.5947779 89.4048696,18 64,18 Z"/>
    <use fill="#000" filter="url(#lock-chrome-darkmode-b)" xlink:href="#lock-chrome-darkmode-c"/>
    <path stroke="#000" stroke-opacity=".4" d="M64,6.5 C95.7563468,6.5 121.5,32.2436186 121.5,64 C121.5,95.7565932 95.7564579,121.5 64,121.5 C32.2435421,121.5 6.5,95.7565932 6.5,64 C6.5,32.2436186 32.2436532,6.5 64,6.5 Z M64,18.5 C38.8709689,18.5 18.5,38.8709093 18.5,63.9998426 C18.5,89.1290426 38.8709207,109.5 64,109.5 C89.1288737,109.5 109.5,89.1289333 109.5,63.9998426 C109.5,38.8710185 89.1288255,18.5 64,18.5 Z"/>
    <path fill="#000" fill-opacity=".03" d="M118.671757,47.82287 C120.186835,52.9511541 121,58.3806147 121,64 C121,95.4802307 95.4802307,121 64,121 C32.5197693,121 7,95.4802307 7,64 C7,58.3806147 7.81316477,52.9511541 9.32824274,47.82287 C8.45838046,51.7433467 8,55.8181431 8,60 C8,90.927946 33.072054,116 64,116 C94.927946,116 120,90.927946 120,60 C120,55.979367 119.576282,52.0576986 118.771065,48.2772127 Z"/>
    <path fill="#000" fill-opacity=".07" d="M64,13 C91.6142375,13 114,35.3857625 114,63 C114,76.2092999 108.877696,88.2222215 100.511058,97.1607939 C107.67462,88.7759415 112,77.893094 112,66 C112,39.490332 90.509668,18 64,18 C37.490332,18 16,39.490332 16,66 C16,77.893094 20.3253799,88.7759415 27.4888636,97.1612664 C19.1223044,88.2222215 14,76.2092999 14,63 C14,35.3857625 36.3857625,13 64,13 Z"/>
    <use fill="#EDEDED" xlink:href="#lock-chrome-darkmode-d"/>
    <path fill="url(#lock-chrome-darkmode-e)" fill-opacity=".07" stroke="#000" stroke-opacity=".25" stroke-width=".5" d="M64.0001597,28.75 C83.468249,28.75 99.25,44.5318334 99.25,64 C99.25,83.4681666 83.468249,99.25 64.0001597,99.25 C44.5320102,99.25 28.75,83.4681064 28.75,64 C28.75,44.5318936 44.5320102,28.75 64.0001597,28.75 Z"/>
    <use fill="#000" fill-opacity=".03" xlink:href="#lock-chrome-darkmode-f"/>
    <use fill="#000" filter="url(#lock-chrome-darkmode-g)" xlink:href="#lock-chrome-darkmode-f"/>
    <path stroke="#FFF" stroke-opacity=".6" stroke-width=".5" d="M63.9998368,47.75 C72.9745369,47.75 80.25,55.0252618 80.25,64 C80.25,72.9745237 72.974425,80.25 63.9998368,80.25 C55.0253092,80.25 47.75,72.9745844 47.75,64 C47.75,55.0252012 55.0251973,47.75 63.9998368,47.75 Z"/>
  </g>
</svg>