<svg xmlns="http://www.w3.org/2000/svg" width="10" height="32" viewBox="0 0 10 32">
  <g fill="none" fill-rule="evenodd">
    <path fill="#FFF" d="M2.35355339,25.8535534 L4.64644661,28.1464466 C4.84170876,28.3417088 5.15829124,28.3417088 5.35355339,28.1464466 L7.64644661,25.8535534 C7.84170876,25.6582912 8.15829124,25.6582912 8.35355339,25.8535534 L8.64644661,26.1464466 C8.84170876,26.3417088 8.84170876,26.6582912 8.64644661,26.8535534 L5.70710678,29.7928932 C5.31658249,30.1834175 4.68341751,30.1834175 4.29289322,29.7928932 L1.35355339,26.8535534 C1.15829124,26.6582912 1.15829124,26.3417088 1.35355339,26.1464466 L1.64644661,25.8535534 C1.84170876,25.6582912 2.15829124,25.6582912 2.35355339,25.8535534 Z M7.64644661,22.1464466 L5.35355339,19.8535534 C5.15829124,19.6582912 4.84170876,19.6582912 4.64644661,19.8535534 L2.35355339,22.1464466 C2.15829124,22.3417088 1.84170876,22.3417088 1.64644661,22.1464466 L1.35355339,21.8535534 C1.15829124,21.6582912 1.15829124,21.3417088 1.35355339,21.1464466 L4.29289322,18.2071068 C4.68341751,17.8165825 5.31658249,17.8165825 5.70710678,18.2071068 L8.64644661,21.1464466 C8.84170876,21.3417088 8.84170876,21.6582912 8.64644661,21.8535534 L8.35355339,22.1464466 C8.15829124,22.3417088 7.84170876,22.3417088 7.64644661,22.1464466 Z"/>
    <path fill="#000" fill-opacity=".4" d="M2.35355339,9.85355339 L4.64644661,12.1464466 C4.84170876,12.3417088 5.15829124,12.3417088 5.35355339,12.1464466 L7.64644661,9.85355339 C7.84170876,9.65829124 8.15829124,9.65829124 8.35355339,9.85355339 L8.64644661,10.1464466 C8.84170876,10.3417088 8.84170876,10.6582912 8.64644661,10.8535534 L5.70710678,13.7928932 C5.31658249,14.1834175 4.68341751,14.1834175 4.29289322,13.7928932 L1.35355339,10.8535534 C1.15829124,10.6582912 1.15829124,10.3417088 1.35355339,10.1464466 L1.64644661,9.85355339 C1.84170876,9.65829124 2.15829124,9.65829124 2.35355339,9.85355339 Z M7.64644661,6.14644661 L5.35355339,3.85355339 C5.15829124,3.65829124 4.84170876,3.65829124 4.64644661,3.85355339 L2.35355339,6.14644661 C2.15829124,6.34170876 1.84170876,6.34170876 1.64644661,6.14644661 L1.35355339,5.85355339 C1.15829124,5.65829124 1.15829124,5.34170876 1.35355339,5.14644661 L4.29289322,2.20710678 C4.68341751,1.81658249 5.31658249,1.81658249 5.70710678,2.20710678 L8.64644661,5.14644661 C8.84170876,5.34170876 8.84170876,5.65829124 8.64644661,5.85355339 L8.35355339,6.14644661 C8.15829124,6.34170876 7.84170876,6.34170876 7.64644661,6.14644661 Z"/>
  </g>
</svg>
