<?xml version="1.0" encoding="UTF-8"?>
<svg width="18px" height="18px" viewBox="0 0 18 18" version="1.1" xmlns="http://www.w3.org/2000/svg" xmlns:xlink="http://www.w3.org/1999/xlink">
    <!-- Generator: Sketch 45.1 (43504) - http://www.bohemiancoding.com/sketch -->
    <title>button_icon-options</title>
    <desc>Created with Sketch.</desc>
    <defs></defs>
    <g id="symbols/atoms" stroke="none" stroke-width="1" fill="none" fill-rule="evenodd" fill-opacity="0.5">
        <g id="z/button-icon/options" fill="#000000">
            <path d="M9,5.5 C8.17157288,5.5 7.5,4.82842712 7.5,4 C7.5,3.17157288 8.17157288,2.5 9,2.5 C9.82842712,2.5 10.5,3.17157288 10.5,4 C10.5,4.82842712 9.82842712,5.5 9,5.5 Z M9,10.5 C8.17157288,10.5 7.5,9.82842712 7.5,9 C7.5,8.17157288 8.17157288,7.5 9,7.5 C9.82842712,7.5 10.5,8.17157288 10.5,9 C10.5,9.82842712 9.82842712,10.5 9,10.5 Z M9,15.5 C8.17157288,15.5 7.5,14.8284271 7.5,14 C7.5,13.1715729 8.17157288,12.5 9,12.5 C9.82842712,12.5 10.5,13.1715729 10.5,14 C10.5,14.8284271 9.82842712,15.5 9,15.5 Z" id="Combined-Shape"></path>
        </g>
    </g>
</svg>