<svg xmlns="http://www.w3.org/2000/svg" xmlns:xlink="http://www.w3.org/1999/xlink" width="184" height="184" viewBox="0 0 184 184">
  <defs>
    <path id="empty-details-a" d="M2,92 C2,42.2943154 42.2943154,2 92,2 C141.705685,2 182,42.2943154 182,92 C182,141.707236 141.705685,182 92,182 C42.2943154,182 2,141.707236 2,92 Z M20,92 C20,131.765672 52.2358284,164 92,164 C131.764172,164 164,131.765672 164,92 C164,52.2358284 131.764172,20 92,20 C52.2358284,20 20,52.2358284 20,92 Z"/>
    <polygon id="empty-details-b" points="80 79.023 80 56 104 56 104 94.451 98.003 99.714 104 104.977 104 128 80 128 80 89.551 85.999 84.286"/>
  </defs>
  <g fill="none" fill-rule="evenodd">
    <path fill="#000" fill-opacity=".03" d="M92,164 C52.235498,164 20,131.764502 20,92 C20,52.235498 52.235498,20 92,20 C131.764502,20 164,52.235498 164,92 C164,131.764502 131.764502,164 92,164 Z M92,147 C122.375661,147 147,122.375661 147,92 C147,61.6243388 122.375661,37 92,37 C61.6243388,37 37,61.6243388 37,92 C37,122.375661 61.6243388,147 92,147 Z"/>
    <use fill="#FFF" fill-opacity=".2" xlink:href="#empty-details-a"/>
    <path stroke="#000" stroke-opacity=".07" stroke-width="2" d="M1,92 C1,41.7420307 41.7420307,1 92,1 C142.257969,1 183,41.7420307 183,92 C183,142.258988 142.258503,183 92,183 C41.7414974,183 1,142.258988 1,92 Z M21,92 C21,131.212866 52.7875919,163 92,163 C131.212408,163 163,131.212866 163,92 C163,52.7881132 131.211887,21 92,21 C52.7881132,21 21,52.7881132 21,92 Z"/>
    <circle cx="92" cy="92" r="56" stroke="#000" stroke-opacity=".07" stroke-width="2"/>
    <g>
      <use fill="#000" fill-opacity=".07" xlink:href="#empty-details-b"/>
      <path stroke="#000" stroke-opacity=".07" stroke-width="2" d="M81,78.5695862 L87.5149717,84.2861866 L81,90.0039838 L81,127 L103,127 L103,105.430137 L96.4865284,99.7136561 L103,93.9983719 L103,57 L81,57 L81,78.5695862 Z"/>
    </g>
  </g>
</svg>
