<svg width="129" height="28" viewBox="0 0 129 28" xmlns="http://www.w3.org/2000/svg"><g fill="none" fill-rule="evenodd"><path d="M126.895 18.92V1h-5.435l-.295 2.232 1.488.522c.244.085.353.274.353.555V8.5c-1.026-.77-2.245-1.326-3.81-1.326-2.125 0-4.12 1.05-5.096 3.635V7.42c-.487-.137-1.732-.248-2.354-.248-1.733 0-2.92 1.077-3.812 2.48h-.16l-.327-2.206h-4.76l-.174 1.325c.18.365.346.744.494 1.13l.847.306c.27.083.352.273.352.58v8.08c0 .41-.05.495-.43.554l-1.22.163v2.232h8.843v-2.207l-2.676-.222c-.405-.025-.43-.11-.43-.547v-7.31c.404-.36 1.244-.966 1.944-.966.218 0 .295.053.353.3l.27 1.463 2.804.097c-.128.712-.2 1.508-.2 2.39 0 5.266 2.054 7.335 5.25 7.335 1.976 0 3.298-.77 4.433-1.906l.193.026.27 1.547h5.03v-2.18l-1.316-.197c-.404-.052-.43-.11-.43-.522zm-4.062-1.213c-.73.633-1.732 1.188-2.65 1.188-1.707 0-2.464-1.488-2.464-4.164 0-2.453.782-4.358 2.784-4.358.783 0 1.65.36 2.323.83l.006 6.505zM75.61 9.74l1.54.162-2.028 7.746h-.16l-2.33-9.84h-4.08l-2.406 9.84h-.193L63.79 9.902l1.515-.163V7.447h-6.84l-.077.405c-.93-.3-2.765-.686-4.645-.686-3.112 0-5.98 1.403-5.98 4.823 0 3.61 2.977 4.112 5.25 4.523 1.378.248 2.462.58 2.462 1.684 0 1.018-.808 1.435-2.245 1.435-1.027 0-1.758-.163-2.086-.274-.243-.052-.295-.163-.327-.41l-.27-1.574-2.604-.195c-.11-3.036-2.45-3.787-4.537-4.27-1.65-.385-3.137-.633-3.137-1.762 0-.88.756-1.403 2.11-1.403.73 0 1.38.11 1.732.222.193.052.244.163.27.385l.27 1.436 2.893.196v-4c-.757-.3-2.843-.804-4.98-.804-3.11 0-5.98 1.404-5.98 4.823 0 3.61 2.978 4.112 5.25 4.523 1.38.248 2.463.58 2.463 1.684 0 1.018-.808 1.436-2.245 1.436-1.027 0-1.76-.164-2.086-.275-.244-.05-.295-.162-.327-.41l-.27-1.573-2.893-.22v2.368l-.635-.11c-.405-.054-.43-.112-.43-.556v-6.704c0-3.863-1.65-4.992-5.762-4.992-1.72 0-3.844.254-4.992 1.638.032-.346.05-.71.05-1.09 0-3.172-1.513-5.874-6.518-5.874H9.028v2.206l1.707.196c.378.026.43.137.43.555v14.09c0 .41-.052.496-.43.555l-1.502.17-1.957-.17c-.404-.026-.43-.11-.43-.555V5.935h-6.5L.05 8.19l2.356.496c.27.085.353.248.353.58v9.627c0 .41-.052.522-.43.555l-2.324.196v2.173H19.64v-2.18l-3.87-.223c-.403-.052-.43-.11-.43-.555v-4.41h1.978c3.137 0 5.454-.91 6.602-3.03l3.74.327c0-1.66.674-1.848 1.977-1.848 1.675 0 1.81.88 1.81 2.18v1.514l-3.113.222c-3.38.22-5.056 1.488-5.056 4.248 0 1.71.54 4.08 3.946 4.08 2.163 0 3.517-.83 4.543-1.848l.135.026.27 1.488h4.978v-.378c.99.326 2.824.71 4.697.71 2.766 0 5.037-.893 5.82-2.994v2.003c.487.333 2.894.992 5.357.992 3.433 0 6.115-1.377 6.115-4.745 0-3.223-2.407-4-4.544-4.496-1.65-.385-3.137-.633-3.137-1.762 0-.88.756-1.403 2.11-1.403.73 0 1.38.11 1.732.22.193.053.244.164.27.386l.27 1.435 2.893.197v-2.14l.45.097c.326.085.46.138.57.47l3.388 11.415h4.87l2.137-9.236h.16l2.11 9.235h4.274l2.772-9.497c.27-1.782.93-3.44 1.886-4.87h-5.39L75.61 9.74zM16.676 11.5h-1.354V4.858h1.598c1.918 0 3.516.47 3.516 3.113 0 3.12-1.97 3.53-3.76 3.53zm14.758 6.677c-.623.47-1.54.992-2.464.992-.892 0-1.54-.412-1.54-1.515s.57-1.514 2.162-1.625l1.842-.137v2.284z" fill="#5C5E66"/><path d="M91.505 26.806c6.903 0 12.5-5.596 12.5-12.5 0-6.903-5.597-12.5-12.5-12.5-6.904 0-12.5 5.597-12.5 12.5 0 6.904 5.596 12.5 12.5 12.5zm0 1c-7.456 0-13.5-6.044-13.5-13.5 0-7.455 6.044-13.5 13.5-13.5s13.5 6.045 13.5 13.5c0 7.456-6.044 13.5-13.5 13.5z" fill-opacity=".596" fill="#5A636E"/><path d="M91.505 26.806c-6.904 0-12.5-5.596-12.5-12.5 0-6.903 5.596-12.5 12.5-12.5 6.903 0 12.5 5.597 12.5 12.5 0 6.904-5.597 12.5-12.5 12.5z" fill="#FFF"/><path d="M91.505 17.806c1.933 0 3.5-1.567 3.5-3.5s-1.567-3.5-3.5-3.5-3.5 1.567-3.5 3.5 1.567 3.5 3.5 3.5zm0 9c-6.904 0-12.5-5.596-12.5-12.5 0-6.903 5.596-12.5 12.5-12.5 6.903 0 12.5 5.597 12.5 12.5 0 6.904-5.597 12.5-12.5 12.5z" fill="#F2F2F2"/><path d="M91.505 21.806c4.142 0 7.5-3.357 7.5-7.5 0-4.142-3.358-7.5-7.5-7.5-4.142 0-7.5 3.358-7.5 7.5 0 4.143 3.358 7.5 7.5 7.5zm0 5c-6.904 0-12.5-5.596-12.5-12.5 0-6.903 5.596-12.5 12.5-12.5 6.903 0 12.5 5.597 12.5 12.5 0 6.904-5.597 12.5-12.5 12.5z" fill="#1368BF"/><path d="M91.505 22.806c4.694 0 8.5-3.805 8.5-8.5 0-4.694-3.806-8.5-8.5-8.5s-8.5 3.806-8.5 8.5c0 4.695 3.806 8.5 8.5 8.5zm0 4c-6.904 0-12.5-5.596-12.5-12.5 0-6.903 5.596-12.5 12.5-12.5 6.903 0 12.5 5.597 12.5 12.5 0 6.904-5.597 12.5-12.5 12.5z" fill="#1A8CFF"/><path d="M91.505 23.806c5.247 0 9.5-4.253 9.5-9.5 0-5.246-4.253-9.5-9.5-9.5s-9.5 4.254-9.5 9.5c0 5.247 4.253 9.5 9.5 9.5zm0 3c-6.904 0-12.5-5.596-12.5-12.5 0-6.903 5.596-12.5 12.5-12.5 6.903 0 12.5 5.597 12.5 12.5 0 6.904-5.597 12.5-12.5 12.5z" fill="#1368BF"/><path d="M91.505 24.806c5.8 0 10.5-4.7 10.5-10.5s-4.7-10.5-10.5-10.5-10.5 4.7-10.5 10.5 4.7 10.5 10.5 10.5zm0 2c-6.904 0-12.5-5.596-12.5-12.5 0-6.903 5.596-12.5 12.5-12.5 6.903 0 12.5 5.597 12.5 12.5 0 6.904-5.597 12.5-12.5 12.5z" fill="#FFF"/><path d="M90 10h3v9h-3v-9zm3 7l-.445-.297c-.168-.112-.16-.3 0-.406L93 16v1zm-3-3l.445-.297c.168-.112.16-.3 0-.406L90 13v1z" fill="#5A636E"/></g></svg>