<svg xmlns="http://www.w3.org/2000/svg" xmlns:xlink="http://www.w3.org/1999/xlink" width="108" height="108" viewBox="0 0 108 108">
  <defs>
    <path id="lock_chrome-b" d="M54,4 C81.614181,4 104,26.3857218 104,54 C104,81.6145614 81.614181,104 54,104 C26.385819,104 4,81.6145614 4,54 C4,26.3857218 26.385819,4 54,4 Z M54,95 C76.6434708,95 95,76.6437849 95,53.9998597 C95,31.3562151 76.6434708,13 54,13 C31.3562486,13 13,31.3562151 13,53.9998597 C13,76.6437849 31.3562486,95 54,95 Z"/>
    <filter id="lock_chrome-a" width="111%" height="111%" x="-5.5%" y="-4.5%" filterUnits="objectBoundingBox">
      <feMorphology in="SourceAlpha" operator="dilate" radius="2" result="shadowSpreadOuter1"/>
      <feOffset dy="1" in="shadowSpreadOuter1" result="shadowOffsetOuter1"/>
      <feGaussianBlur in="shadowOffsetOuter1" result="shadowBlurOuter1" stdDeviation="1"/>
      <feComposite in="shadowBlurOuter1" in2="SourceAlpha" operator="out" result="shadowBlurOuter1"/>
      <feColorMatrix in="shadowBlurOuter1" values="0 0 0 0 0   0 0 0 0 0   0 0 0 0 0  0 0 0 0.2 0"/>
    </filter>
    <path id="lock_chrome-c" d="M54.0001415,23 C71.1210246,23 85,36.8790683 85,54 C85,71.1209317 71.1210246,85 54.0001415,85 C36.8792583,85 23,71.1209317 23,54 C23,36.8790683 36.8792583,23 54.0001415,23 L54.0001415,23 Z"/>
    <radialGradient id="lock_chrome-d" cy="76.727%" r="62.462%" fx="50%" fy="76.727%" gradientTransform="matrix(0 -1 .97942 0 -.251 1.267)">
      <stop offset="0%" stop-color="#F4F4F4"/>
      <stop offset="100%" stop-color="#D9D9D9"/>
    </radialGradient>
    <path id="lock_chrome-e" d="M53.999847,39 C62.2840572,39 69,45.7154953 69,54 C69,62.2841987 62.2840572,69 53.999847,69 C45.7156368,69 39,62.2841987 39,54 C39,45.7154953 45.7156368,39 53.999847,39 L53.999847,39 Z"/>
  </defs>
  <g fill="none" fill-rule="evenodd">
    <use fill="#000" filter="url(#lock_chrome-a)" xlink:href="#lock_chrome-b"/>
    <use fill="#FFF" xlink:href="#lock_chrome-b"/>
    <path stroke="#000" stroke-opacity=".15" stroke-width="2" d="M54,3 C82.166499,3 105,25.8334703 105,54 C105,82.166716 82.166596,105 54,105 C25.833404,105 3,82.166716 3,54 C3,25.8334703 25.833501,3 54,3 Z M54,94 C76.0913169,94 94,76.0913693 94,53.9998597 C94,31.9085884 76.0912745,14 54,14 C31.9085428,14 14,31.9084904 14,53.9998597 C14,76.0914673 31.9085005,94 54,94 Z"/>
    <use fill="#F2F2F2" xlink:href="#lock_chrome-c"/>
    <path stroke="#000" stroke-opacity=".15" d="M54.0001415,22.5 C71.3971573,22.5 85.5,36.6029163 85.5,54 C85.5,71.3970837 71.3971573,85.5 54.0001415,85.5 C36.603073,85.5 22.5,71.3970311 22.5,54 C22.5,36.6029689 36.603073,22.5 54.0001415,22.5 Z"/>
    <path fill="#000" fill-opacity=".05" d="M4.03926897,52 C4.01317128,52.6634271 4,53.3301754 4,54 C4,81.6142375 26.3857625,104 54,104 C81.6142375,104 104,81.6142375 104,54 C104,53.3301754 103.986829,52.6634271 103.960731,52 C102.910923,78.6870665 80.9444129,100 54,100 C27.0555871,100 5.08907658,78.6870665 4.03926897,52 Z"/>
    <path fill="#000" fill-opacity=".1" d="M21.2132937,83.822782 C13.6399803,75.7700116 9,64.9268685 9,53 C9,28.1471863 29.1471863,8 54,8 C78.8528137,8 99,28.1471863 99,53 C99,64.9268685 94.3600197,75.7700116 86.7867063,83.822782 C93.1568925,76.3234797 97,66.6105428 97,56 C97,32.2517558 77.7482442,13 54,13 C30.2517558,13 11,32.2517558 11,56 C11,66.6105428 14.8431075,76.3234797 21.2132937,83.822782 Z"/>
    <g>
      <use fill="url(#lock_chrome-d)" xlink:href="#lock_chrome-e"/>
      <path stroke="#000" stroke-opacity=".03" d="M53.999847,39.5 C45.9917067,39.5 39.5,45.9917101 39.5,54 C39.5,62.0080911 45.9918139,68.5 53.999847,68.5 C62.0079415,68.5 68.5,62.0080296 68.5,54 C68.5,45.9917716 62.0080488,39.5 53.999847,39.5 Z"/>
    </g>
  </g>
</svg>
