<svg xmlns="http://www.w3.org/2000/svg" xmlns:xlink="http://www.w3.org/1999/xlink" width="14" height="42" viewBox="0 0 14 42">
  <defs>
    <linearGradient id="lock_keyhole-b" x1="50%" x2="50%" y1="100%" y2="0%">
      <stop offset="0%" stop-color="#4D4D4D"/>
      <stop offset="100%" stop-color="#333"/>
    </linearGradient>
    <path id="lock_keyhole-a" d="M0,12.5890522 L0,0.6 L7.77156117e-16,0.6 C7.36574892e-16,0.26862915 0.26862915,1.98563632e-14 0.6,1.92068583e-14 L13.4,2.76434285e-15 L13.4,1.99840144e-15 C13.7313708,2.82047741e-15 14,0.26862915 14,0.6 L14,22.8297399 L14,22.8297399 C14,22.9941463 13.9325373,23.1513507 13.8133755,23.26462 L11.2665944,25.6854637 L11.2665944,25.6854637 C11.0264167,25.9137647 11.0167888,26.2935416 11.2450898,26.5337193 C11.2520751,26.5410681 11.2592456,26.5482386 11.2665944,26.555224 L13.8133755,28.9760677 L13.8133755,28.9760677 C13.9325373,29.089337 14,29.2465414 14,29.4109478 L14,41.4 L14,41.4 C14,41.7313708 13.7313708,42 13.4,42 L0.6,42 L0.6,42 C0.26862915,42 -6.64303059e-16,41.7313708 -9.99200722e-16,41.4 L0,19.1702601 L-1.66533454e-15,19.1702601 C-1.68546852e-15,19.0058537 0.0674627222,18.8486493 0.186624533,18.73538 L2.73340559,16.3145363 L2.73340559,16.3145363 C2.97358325,16.0862353 2.98321121,15.7064584 2.75491025,15.4662807 C2.74792488,15.4589319 2.74075435,15.4517614 2.73340559,15.444776 L0.186624533,13.0239323 L0.186624533,13.0239323 C0.0674627222,12.910663 3.0916721e-16,12.7534586 -2.22044605e-16,12.5890522 Z"/>
  </defs>
  <g fill="none" fill-rule="evenodd">
    <use fill="#606B73" xlink:href="#lock_keyhole-a"/>
    <path stroke="url(#lock_keyhole-b)" stroke-width="2" d="M1,12.4173961 L3.4223647,14.7199758 C3.4515221,14.7481642 3.4515221,14.7481642 3.47971046,14.7773216 C4.08851303,15.4177953 4.06283846,16.4305339 3.4223647,17.0393365 L1,19.3419162 L1,41 L13,41 L13,29.5826039 L10.5776353,27.2800242 C10.5484779,27.2518358 10.5484779,27.2518358 10.5202895,27.2226784 C9.91148697,26.5822047 9.93716154,25.5694661 10.5776353,24.9606635 L13,22.6580838 L13,1 L1,1 L1,12.4173961 Z"/>
  </g>
</svg>
