<svg xmlns="http://www.w3.org/2000/svg" width="72" height="92" xmlns:xlink="http://www.w3.org/1999/xlink"><defs><path id="a" d="M49 33c0-7.18-5.82-13-13-13s-13 5.82-13 13v30h26V33z"/></defs><g fill="none"><use stroke="#B8BDCC" stroke-width="12" xlink:href="#a"/><use stroke="#EDEFF2" stroke-width="8" xlink:href="#a"/></g><rect width="50" height="38" x="11" y="43" fill="#F2C585" stroke="#D9A762" stroke-width="2" rx="5"/><g fill="#000" transform="translate(26.503 58.81)" opacity=".3"><circle id="right-eye" cx="1.997" cy="2.69" r="1.5"/><circle cx="16.997" cy="2.69" r="1.5"/><path d="M14.05 14c.43.1.72-.16.62-.6 0 0-.3-3.42-3.8-4.23-3.5-.8-5.3 2.15-5.3 2.15-.25.34-.12.7.32.8l8.15 1.9z"/></g><path stroke="#000" stroke-width="1.594" d="M44.5 57s1.3 0 2.3.85C47.8 58.7 48 60 48 60" stroke-linecap="round" opacity=".05"/><path stroke="#000" stroke-width="1.594" d="M44.5 56s1.68 0 2.96 1.14S49 60 49 60" stroke-linecap="round" opacity=".1"/><path stroke="#000" stroke-width="1.594" d="M27.5 57s-1.3 0-2.3.85C24.2 58.7 24 60 24 60" stroke-linecap="round" opacity=".05"/><path stroke="#000" stroke-width="1.594" d="M27.5 56s-1.68 0-2.96 1.14S23 60 23 60" stroke-linecap="round" opacity=".1"/></svg>
