<svg xmlns="http://www.w3.org/2000/svg" width="22" height="22"><g fill="#000"><rect x="10" y="0" width="2" height="6" rx="1"/><path d="M8.9 5.3C9.1 5.8 9 6.4 8.5 6.7 8 6.9 7.4 6.8 7.1 6.3L5.1 2.8C4.9 2.4 5 1.8 5.5 1.5 6 1.2 6.6 1.4 6.9 1.8L8.9 5.3 8.9 5.3Z" opacity="0.9"/><path d="M6.3 7.1C6.8 7.4 6.9 8 6.7 8.5 6.4 9 5.8 9.1 5.3 8.9L1.8 6.9C1.4 6.6 1.2 6 1.5 5.5 1.7 5 2.4 4.9 2.8 5.1L6.3 7.1 6.3 7.1Z" opacity="0.8"/><path d="M5 10C5.6 10 6 10.4 6 11 6 11.6 5.5 12 5 12L1 12C0.4 12 0 11.6 0 11 0 10.4 0.5 10 1 10L5 10 5 10Z" opacity="0.7"/><path d="M5.3 13.1C5.8 12.9 6.4 13 6.7 13.5 6.9 14 6.8 14.6 6.3 14.9L2.8 16.9C2.4 17.1 1.8 17 1.5 16.5 1.2 16 1.4 15.4 1.8 15.1L5.3 13.1 5.3 13.1Z" opacity="0.6"/><path d="M7.1 15.7C7.4 15.2 8 15.1 8.5 15.3 9 15.6 9.1 16.2 8.9 16.7L6.9 20.2C6.6 20.6 6 20.8 5.5 20.5 5 20.3 4.9 19.6 5.1 19.2L7.1 15.7 7.1 15.7Z" opacity="0.5"/><rect opacity="0.4" x="10" y="16" width="2" height="6" rx="1"/><path d="M16.9 19.2C17.1 19.6 17 20.2 16.5 20.5 16 20.8 15.4 20.6 15.1 20.2L13.1 16.7C12.9 16.2 13 15.6 13.5 15.3 14 15.1 14.6 15.2 14.9 15.7L16.9 19.2 16.9 19.2Z" opacity="0.3"/><path d="M20.2 15.1C20.6 15.4 20.8 16 20.5 16.5 20.3 17 19.6 17.1 19.2 16.9L15.7 14.9C15.2 14.6 15.1 14 15.3 13.5 15.6 13 16.2 12.9 16.7 13.1L20.2 15.1 20.2 15.1Z" opacity="0.2"/><path d="M21 10C21.6 10 22 10.4 22 11 22 11.6 21.5 12 21 12L17 12C16.4 12 16 11.6 16 11 16 10.4 16.5 10 17 10L21 10 21 10Z" opacity="0.2"/><path d="M19.2 5.1C19.6 4.9 20.2 5 20.5 5.5 20.8 6 20.6 6.6 20.2 6.9L16.7 8.9C16.2 9.1 15.6 9 15.3 8.5 15.1 8 15.2 7.4 15.7 7.1L19.2 5.1 19.2 5.1Z" opacity="0.2"/><path d="M15.1 1.8C15.4 1.4 16 1.2 16.5 1.5 17 1.7 17.1 2.4 16.9 2.8L14.9 6.3C14.6 6.8 14 6.9 13.5 6.7 13 6.4 12.9 5.8 13.1 5.3L15.1 1.8 15.1 1.8Z" opacity="0.2"/></g></svg>
