<svg xmlns="http://www.w3.org/2000/svg" width="57" height="62" viewBox="0 0 57 62">
  <g fill="none" fill-rule="evenodd">
    <rect width="30" height="62" fill="#EDEDED"/>
    <path fill="#F8F8F8" d="M30,53.6533989 C19.204214,51.7602242 11,42.3382105 11,31 C11,19.6617895 19.204214,10.2397758 30,8.34660111 L30,0 L38,0 L38,8.34660111 C48.795786,10.2397758 57,19.6617895 57,31 C57,42.3382105 48.795786,51.7602242 38,53.6533989 L38,62 L30,62 L30,53.6533989 L30,53.6533989 Z"/>
    <path fill="#CCC" fill-rule="nonzero" d="M37 0L38 0 38 8.34660111C48.795786 10.2397758 57 19.6617895 57 31 57 42.3382105 48.795786 51.7602242 38 53.6533989L38 62 37 62 37 52.7971625C47.7310542 51.3339825 56 42.1326491 56 31 56 19.8673509 47.7310542 10.6660175 37 9.20283748L37 8.8817842e-16 37 0zM31 0L30 0 30 8.34660111C19.204214 10.2397758 11 19.6617895 11 31 11 42.3382105 19.204214 51.7602242 30 53.6533989L30 62 31 62 31 52.7971625C20.2689458 51.3339825 12 42.1326491 12 31 12 19.8673509 20.2689458 10.6660175 31 9.20283748L31 4.4408921e-16 31 0z"/>
  </g>
</svg>
