<svg xmlns="http://www.w3.org/2000/svg" xmlns:xlink="http://www.w3.org/1999/xlink" width="16" height="16" viewBox="0 0 16 16">
  <defs>
    <rect id="001-mini-a" width="16" height="16" rx="3.2"/>
    <path id="001-mini-c" d="M6.85714286,8.58985153 C6.01044658,8.16907936 5.42857143,7.29534893 5.42857143,6.28571429 C5.42857143,4.8655535 6.57983921,3.71428571 8,3.71428571 C9.42016079,3.71428571 10.5714286,4.8655535 10.5714286,6.28571429 C10.5714286,7.29534893 9.98955342,8.16907936 9.14285714,8.58985153 L9.14285714,12.5714286 L6.85714286,12.5714286 L6.85714286,8.58985153 Z"/>
  </defs>
  <g fill="none" fill-rule="evenodd">
    <mask id="001-mini-b" fill="#fff">
      <use xlink:href="#001-mini-a"/>
    </mask>
    <use fill="#EDEFF2" xlink:href="#001-mini-a"/>
    <rect width="15" height="15" x=".5" y=".5" stroke="#000" stroke-opacity=".4" rx="3.2"/>
    <g mask="url(#001-mini-b)">
      <use fill="#B8BDCC" xlink:href="#001-mini-c"/>
      <path stroke="#5C5E66" d="M7.35714286,12.0714286 L8.64285714,12.0714286 L8.64285714,8.27999198 L8.92034081,8.14209436 C9.6198664,7.79445979 10.0714286,7.08068562 10.0714286,6.28571429 C10.0714286,5.14169588 9.14401841,4.21428571 8,4.21428571 C6.85598159,4.21428571 5.92857143,5.14169588 5.92857143,6.28571429 C5.92857143,7.08068562 6.3801336,7.79445979 7.07965919,8.14209436 L7.35714286,8.27999198 L7.35714286,12.0714286 Z"/>
    </g>
  </g>
</svg>
