<svg xmlns="http://www.w3.org/2000/svg" xmlns:xlink="http://www.w3.org/1999/xlink" width="30" height="30" viewBox="0 0 30 30">
  <defs>
    <path id="001-medium-unmasked-a" d="M13,16.0322402 C11.5182815,15.2958889 10.5,13.7668606 10.5,12 C10.5,9.51471863 12.5147186,7.5 15,7.5 C17.4852814,7.5 19.5,9.51471863 19.5,12 C19.5,13.7668606 18.4817185,15.2958889 17,16.0322402 L17,23 L13,23 L13,16.0322402 Z"/>
    <path id="001-medium-unmasked-b" d="M6,8 C4.8954305,8 4,7.1045695 4,6 C4,4.8954305 4.8954305,4 6,4 C7.1045695,4 8,4.8954305 8,6 C8,7.1045695 7.1045695,8 6,8 Z M24,8 C22.8954305,8 22,7.1045695 22,6 C22,4.8954305 22.8954305,4 24,4 C25.1045695,4 26,4.8954305 26,6 C26,7.1045695 25.1045695,8 24,8 Z M24,26 C22.8954305,26 22,25.1045695 22,24 C22,22.8954305 22.8954305,22 24,22 C25.1045695,22 26,22.8954305 26,24 C26,25.1045695 25.1045695,26 24,26 Z M6,26 C4.8954305,26 4,25.1045695 4,24 C4,22.8954305 4.8954305,22 6,22 C7.1045695,22 8,22.8954305 8,24 C8,25.1045695 7.1045695,26 6,26 Z"/>
  </defs>
  <g fill="none" fill-rule="evenodd">
    <rect width="30" height="30" fill="#EDEFF2"/>
    <use fill="#B8BDCC" xlink:href="#001-medium-unmasked-a"/>
    <path stroke="#5C5E66" d="M13.5,22.5 L16.5,22.5 L16.5,15.7223806 L16.7774837,15.584483 C18.127958,14.9133545 19,13.5349374 19,12 C19,9.790861 17.209139,8 15,8 C12.790861,8 11,9.790861 11,12 C11,13.5349374 11.872042,14.9133545 13.2225163,15.584483 L13.5,15.7223806 L13.5,22.5 Z"/>
    <g>
      <use fill="#D4D6D9" xlink:href="#001-medium-unmasked-b"/>
      <path stroke="#707173" stroke-width=".5" d="M6,7.75 C6.96649831,7.75 7.75,6.96649831 7.75,6 C7.75,5.03350169 6.96649831,4.25 6,4.25 C5.03350169,4.25 4.25,5.03350169 4.25,6 C4.25,6.96649831 5.03350169,7.75 6,7.75 Z M24,7.75 C24.9664983,7.75 25.75,6.96649831 25.75,6 C25.75,5.03350169 24.9664983,4.25 24,4.25 C23.0335017,4.25 22.25,5.03350169 22.25,6 C22.25,6.96649831 23.0335017,7.75 24,7.75 Z M24,25.75 C24.9664983,25.75 25.75,24.9664983 25.75,24 C25.75,23.0335017 24.9664983,22.25 24,22.25 C23.0335017,22.25 22.25,23.0335017 22.25,24 C22.25,24.9664983 23.0335017,25.75 24,25.75 Z M6,25.75 C6.96649831,25.75 7.75,24.9664983 7.75,24 C7.75,23.0335017 6.96649831,22.25 6,22.25 C5.03350169,22.25 4.25,23.0335017 4.25,24 C4.25,24.9664983 5.03350169,25.75 6,25.75 Z"/>
    </g>
  </g>
</svg>
