<svg xmlns="http://www.w3.org/2000/svg" xmlns:xlink="http://www.w3.org/1999/xlink" width="32" height="32" viewBox="0 0 32 32">
  <defs>
    <rect id="002-amex-medium-a" width="32" height="24" rx="4"/>
  </defs>
  <g fill="none" fill-rule="evenodd" transform="translate(0 4)">
    <mask id="002-amex-medium-b" fill="#fff">
      <use xlink:href="#002-amex-medium-a"/>
    </mask>
    <use fill="#6DC6F2" xlink:href="#002-amex-medium-a"/>
    <rect width="31" height="23" x=".5" y=".5" stroke="#000" stroke-opacity=".4" rx="4"/>
    <g mask="url(#002-amex-medium-b)">
      <g transform="translate(2 8)">
        <polygon fill="#000" fill-opacity=".4" stroke="#000" stroke-linecap="square" stroke-opacity=".4" points="3.161 0 0 7.989 3.785 7.989 4.253 6.715 5.326 6.715 5.794 7.989 9.959 7.989 9.959 7.018 10.329 7.989 12.484 7.989 12.855 6.996 12.855 7.989 21.516 7.989 22.569 6.747 23.554 7.989 28.001 8 24.832 4.017 28.001 0 23.622 0 22.598 1.22 21.642 0 12.221 0 11.412 2.063 10.582 0 6.808 0 6.808 .94 6.389 0"/>
        <path fill="#FFF" d="M3.161,0 L0,7.98857632 L3.785,7.98857632 L4.253,6.7148365 L5.326,6.7148365 L5.794,7.98857632 L9.959,7.98857632 L9.959,7.0175639 L10.329,7.98857632 L12.484,7.98857632 L12.855,6.99585892 L12.855,7.98857632 L21.516,7.98857632 L22.569,6.74682279 L23.554,7.98857632 L28.001,8 L24.832,4.01656433 L28.001,0 L23.622,0 L22.598,1.22004855 L21.642,0 L12.221,0 L11.412,2.06311581 L10.582,0 L6.808,0 L6.808,0.940168499 L6.389,0 L3.161,0 L3.161,0 Z M3.892,1.13437098 L5.735,1.13437098 L7.832,6.55262031 L7.832,1.13437098 L9.851,1.13437098 L11.47,5.02070541 L12.962,1.13437098 L14.971,1.13437098 L14.971,6.86677138 L13.752,6.86677138 L13.742,2.37498215 L11.957,6.86677138 L10.865,6.86677138 L9.071,2.37498215 L9.071,6.86677138 L6.555,6.86677138 L6.077,5.58160788 L3.502,5.58160788 L3.024,6.86677138 L1.678,6.86677138 L3.892,1.13437098 L3.892,1.13437098 Z M16.093,1.13437098 L21.067,1.13437098 L22.588,3.01242325 L24.158,1.13437098 L25.68,1.13437098 L23.369,4.01656433 L25.68,6.86677138 L24.09,6.86677138 L22.569,4.96701414 L20.989,6.86677138 L16.093,6.86677138 L16.093,1.13437098 L16.093,1.13437098 Z M4.79,2.10538341 L3.941,4.39468799 L5.638,4.39468799 L4.79,2.10538341 L4.79,2.10538341 Z M17.322,2.32129088 L17.322,3.36884192 L20.033,3.36884192 L20.033,4.53405683 L17.322,4.53405683 L17.322,5.67870912 L20.365,5.67870912 L21.779,3.99485935 L20.423,2.32129088 L17.322,2.32129088 L17.322,2.32129088 Z"/>
      </g>
    </g>
  </g>
</svg>
