<svg xmlns="http://www.w3.org/2000/svg" xmlns:xlink="http://www.w3.org/1999/xlink" width="64" height="64" viewBox="0 0 64 64">
  <defs>
    <rect id="002-visa-large-a" width="64" height="48" y="8" rx="8"/>
  </defs>
  <g fill="none" fill-rule="evenodd">
    <use fill="#7A8FCC" xlink:href="#002-visa-large-a"/>
    <rect width="63" height="47" x=".5" y="8.5" stroke="#000" stroke-opacity=".4" rx="8"/>
    <g transform="translate(2 23.8)">
      <path stroke="#000" stroke-opacity=".4" d="M5.19599053,2.40079474 C3.80843545,1.66300036 2.22529568,1.06989983 0.455444336,0.658689153 L0.507928614,0.329849571 L7.79274637,0.329849571 C8.77245289,0.364832506 9.56321601,0.662187447 9.83963321,1.66969595 L11.4176605,8.97063433 L11.8935179,11.1710609 L16.3126941,0.336846158 L21.0922624,0.336846158 L13.9858912,16.1946102 L9.20982187,16.2016068 L5.19599053,2.40079474 Z M52.5618353,0.340344452 L56.21824,16.2190983 L52.0264957,16.2190983 C52.0264957,16.2190983 51.6136194,14.3929891 51.4806592,13.8367605 C50.8193573,13.8367605 46.2147367,13.8297639 45.6968918,13.8297639 C45.5219442,14.260054 44.7486758,16.2190983 44.7486758,16.2190983 L40.0075961,16.2190983 L46.7115878,1.65920107 C47.1839463,0.623706219 47.9922042,0.340344452 49.0733803,0.340344452 L52.5618353,0.340344452 Z M46.9950029,10.5833476 L50.7458793,10.5833476 C50.5639338,9.78573669 49.6996927,5.99358662 49.6996927,5.99358662 L49.391785,4.6222556 C49.1643531,5.22046378 48.7689715,6.18249447 48.7934642,6.14051495 C48.7934642,6.14051495 47.3693908,9.66679472 46.9950029,10.5833476 Z M40.9873026,0.718160141 L40.374986,4.16048087 L39.9691076,3.97856961 C39.1363571,3.65672662 38.0656778,3.3453785 36.5891201,3.36986656 C34.8221494,3.36986656 34.0033947,4.07302353 34.0033947,4.73420099 C33.9928979,5.47933749 34.9621075,5.96909857 36.5401348,6.70374019 C39.143355,7.84068555 40.3469944,9.21551486 40.3294997,11.0206343 C40.2945101,14.319525 37.2154325,16.4499857 32.4673548,16.4499857 C30.4414617,16.4289959 28.4925455,16.0441836 27.439361,15.6033987 L28.0726713,12.0456342 L28.6534973,12.2975114 C30.1370529,12.8922213 31.0957657,13.1301052 32.9012249,13.1301052 C34.202835,13.1301052 35.5919188,12.6438424 35.6059147,11.5803612 C35.6129126,10.8842008 35.0215897,10.3874432 33.2651159,9.60732373 C31.5506295,8.84819406 29.2833087,7.57481525 29.3078013,5.29392794 C29.3357929,2.20493485 32.4778517,0.0499860975 36.9390153,0.0499860975 C38.6884912,0.0499860975 40.0915709,0.396317146 40.9873026,0.718160141 Z M20.09856,16.2121017 L22.9187152,0.326351278 L27.4358621,0.326351278 L24.608709,16.2121017 L20.09856,16.2121017 Z"/>
      <path fill="#FFF" d="M5.19599053,2.40079474 C3.80843545,1.66300036 2.22529568,1.06989983 0.455444336,0.658689153 L0.507928614,0.329849571 L7.79274637,0.329849571 C8.77245289,0.364832506 9.56321601,0.662187447 9.83963321,1.66969595 L11.4176605,8.97063433 L11.8935179,11.1710609 L16.3126941,0.336846158 L21.0922624,0.336846158 L13.9858912,16.1946102 L9.20982187,16.2016068 L5.19599053,2.40079474 Z M52.5618353,0.340344452 L56.21824,16.2190983 L52.0264957,16.2190983 C52.0264957,16.2190983 51.6136194,14.3929891 51.4806592,13.8367605 C50.8193573,13.8367605 46.2147367,13.8297639 45.6968918,13.8297639 C45.5219442,14.260054 44.7486758,16.2190983 44.7486758,16.2190983 L40.0075961,16.2190983 L46.7115878,1.65920107 C47.1839463,0.623706219 47.9922042,0.340344452 49.0733803,0.340344452 L52.5618353,0.340344452 Z M46.9950029,10.5833476 L50.7458793,10.5833476 C50.5639338,9.78573669 49.6996927,5.99358662 49.6996927,5.99358662 L49.391785,4.6222556 C49.1643531,5.22046378 48.7689715,6.18249447 48.7934642,6.14051495 C48.7934642,6.14051495 47.3693908,9.66679472 46.9950029,10.5833476 Z M40.9873026,0.718160141 L40.374986,4.16048087 L39.9691076,3.97856961 C39.1363571,3.65672662 38.0656778,3.3453785 36.5891201,3.36986656 C34.8221494,3.36986656 34.0033947,4.07302353 34.0033947,4.73420099 C33.9928979,5.47933749 34.9621075,5.96909857 36.5401348,6.70374019 C39.143355,7.84068555 40.3469944,9.21551486 40.3294997,11.0206343 C40.2945101,14.319525 37.2154325,16.4499857 32.4673548,16.4499857 C30.4414617,16.4289959 28.4925455,16.0441836 27.439361,15.6033987 L28.0726713,12.0456342 L28.6534973,12.2975114 C30.1370529,12.8922213 31.0957657,13.1301052 32.9012249,13.1301052 C34.202835,13.1301052 35.5919188,12.6438424 35.6059147,11.5803612 C35.6129126,10.8842008 35.0215897,10.3874432 33.2651159,9.60732373 C31.5506295,8.84819406 29.2833087,7.57481525 29.3078013,5.29392794 C29.3357929,2.20493485 32.4778517,0.0499860975 36.9390153,0.0499860975 C38.6884912,0.0499860975 40.0915709,0.396317146 40.9873026,0.718160141 Z M20.09856,16.2121017 L22.9187152,0.326351278 L27.4358621,0.326351278 L24.608709,16.2121017 L20.09856,16.2121017 Z"/>
      <path fill="#FFBF00" d="M7.79274637,0.329849571 L0.507928614,0.329849571 L0.455444336,0.658689153 C6.11674843,1.97404748 9.86762482,5.15049791 11.4176605,8.97063433 L9.83963321,1.66969595 C9.56321601,0.662187447 8.77245289,0.364832506 7.79274637,0.329849571 L7.79274637,0.329849571 Z"/>
    </g>
  </g>
</svg>
