<svg xmlns="http://www.w3.org/2000/svg" xmlns:xlink="http://www.w3.org/1999/xlink" width="16" height="16" viewBox="0 0 16 16">
  <defs>
    <rect id="002-amex-mini-a" width="16" height="12" y="2" rx="1.5"/>
  </defs>
  <g fill="none" fill-rule="evenodd">
    <use fill="#6DC6F2" xlink:href="#002-amex-mini-a"/>
    <rect width="15" height="11" x=".5" y="2.5" stroke="#000" stroke-opacity=".4" rx="1.5"/>
    <g transform="translate(1 6)">
      <polygon fill="#000" fill-opacity=".4" stroke="#000" stroke-linecap="square" stroke-opacity=".4" points="1.581 0 0 3.994 1.893 3.994 2.127 3.357 2.663 3.357 2.897 3.994 4.979 3.994 4.979 3.509 5.165 3.994 6.242 3.994 6.428 3.498 6.428 3.994 10.758 3.994 11.284 3.373 11.777 3.994 14.001 4 12.416 2.008 14.001 0 11.811 0 11.299 .61 10.821 0 6.111 0 5.706 1.032 5.291 0 3.404 0 3.404 .47 3.195 0"/>
      <path fill="#FFF" d="M1.5805,0 L0,3.99428816 L1.8925,3.99428816 L2.1265,3.35741825 L2.663,3.35741825 L2.897,3.99428816 L4.9795,3.99428816 L4.9795,3.50878195 L5.1645,3.99428816 L6.242,3.99428816 L6.4275,3.49792946 L6.4275,3.99428816 L10.758,3.99428816 L11.2845,3.3734114 L11.777,3.99428816 L14.0005,4 L12.416,2.00828216 L14.0005,0 L11.811,0 L11.299,0.610024275 L10.821,0 L6.1105,0 L5.706,1.0315579 L5.291,0 L3.404,0 L3.404,0.47008425 L3.1945,0 L1.5805,0 L1.5805,0 Z M1.946,0.567185492 L2.8675,0.567185492 L3.916,3.27631015 L3.916,0.567185492 L4.9255,0.567185492 L5.735,2.51035271 L6.481,0.567185492 L7.4855,0.567185492 L7.4855,3.43338569 L6.876,3.43338569 L6.871,1.18749108 L5.9785,3.43338569 L5.4325,3.43338569 L4.5355,1.18749108 L4.5355,3.43338569 L3.2775,3.43338569 L3.0385,2.79080394 L1.751,2.79080394 L1.512,3.43338569 L0.839,3.43338569 L1.946,0.567185492 L1.946,0.567185492 Z M8.0465,0.567185492 L10.5335,0.567185492 L11.294,1.50621162 L12.079,0.567185492 L12.84,0.567185492 L11.6845,2.00828216 L12.84,3.43338569 L12.045,3.43338569 L11.2845,2.48350707 L10.4945,3.43338569 L8.0465,3.43338569 L8.0465,0.567185492 L8.0465,0.567185492 Z M2.395,1.0526917 L1.9705,2.197344 L2.819,2.197344 L2.395,1.0526917 L2.395,1.0526917 Z M8.661,1.16064544 L8.661,1.68442096 L10.0165,1.68442096 L10.0165,2.26702842 L8.661,2.26702842 L8.661,2.83935456 L10.1825,2.83935456 L10.8895,1.99742967 L10.2115,1.16064544 L8.661,1.16064544 L8.661,1.16064544 Z"/>
    </g>
  </g>
</svg>
