<svg xmlns="http://www.w3.org/2000/svg" xmlns:xlink="http://www.w3.org/1999/xlink" width="16" height="16" viewBox="0 0 16 16">
  <defs>
    <rect id="002-visa-mini-a" width="16" height="12" y="2" rx="2"/>
    <path id="002-visa-mini-b" d="M1.29899763,1.10019868 C0.952108863,0.915750091 0.556323919,0.767474958 0.113861084,0.664672288 L0.126982153,0.582462393 L1.94818659,0.582462393 C2.19311322,0.591208126 2.390804,0.665546862 2.4599083,0.917423988 L2.85441512,2.74265858 L2.97337949,3.29276522 L4.07817353,0.58421154 L5.27306559,0.58421154 L3.49647279,4.54865256 L2.30245547,4.55040171 L1.29899763,1.10019868 Z M13.1404588,0.585086113 L14.05456,4.55477457 L13.0066239,4.55477457 C13.0066239,4.55477457 12.9034048,4.09824728 12.8701648,3.95919012 C12.7048393,3.95919012 11.5536842,3.95744097 11.424223,3.95744097 C11.3804861,4.0650135 11.187169,4.55477457 11.187169,4.55477457 L10.001899,4.55477457 L11.677897,0.914800268 C11.7959866,0.655926555 11.9980511,0.585086113 12.2683451,0.585086113 L13.1404588,0.585086113 Z M11.7487507,3.1458369 L12.6864698,3.1458369 C12.6409835,2.94643417 12.4249232,1.99839666 12.4249232,1.99839666 L12.3479462,1.6555639 C12.2910883,1.80511594 12.1922429,2.04562362 12.198366,2.03512874 C12.198366,2.03512874 11.8423477,2.91669868 11.7487507,3.1458369 Z M10.2468257,0.679540035 L10.0937465,1.54012022 L9.9922769,1.4946424 C9.78408927,1.41418165 9.51641945,1.33634463 9.14728003,1.34246664 C8.70553736,1.34246664 8.50084868,1.51825588 8.50084868,1.68355025 C8.49822446,1.86983437 8.74052688,1.99227464 9.1350337,2.17593505 C9.78583875,2.46017139 10.0867486,2.80387872 10.0823749,3.25515857 C10.0736275,4.07988124 9.30385813,4.61249642 8.11683871,4.61249642 C7.61036543,4.60724898 7.12313638,4.51104591 6.85984026,4.40084966 L7.01816783,3.51140856 L7.16337433,3.57437784 C7.53426323,3.72305531 7.77394143,3.7825263 8.22530622,3.7825263 C8.55070874,3.7825263 8.89797971,3.6609606 8.90147866,3.3950903 C8.90322814,3.22105021 8.75539742,3.09686079 8.31627897,2.90183093 C7.88765736,2.71204851 7.32082716,2.39370381 7.32695033,1.82348198 C7.33394823,1.05123371 8.11946292,0.512496524 9.23475383,0.512496524 C9.67212281,0.512496524 10.0228927,0.599079287 10.2468257,0.679540035 Z M5.02464001,4.55302543 L5.72967881,0.581587819 L6.85896552,0.581587819 L6.15217725,4.55302543 L5.02464001,4.55302543 Z"/>
  </defs>
  <g fill="none" fill-rule="evenodd">
    <use fill="#7A8FCC" xlink:href="#002-visa-mini-a"/>
    <rect width="15" height="11" x=".5" y="2.5" stroke="#000" stroke-opacity=".4" rx="2"/>
    <g transform="translate(.5 5.45)">
      <g stroke-linejoin="round">
        <use fill="#FFF" xlink:href="#002-visa-mini-b"/>
        <path stroke="#000" stroke-opacity=".25" stroke-width=".5" d="M1.08895255,1.27319335 C0.778572094,1.11833501 0.433352356,0.995562665 0.0572826598,0.908185906 L-0.169749952,0.85543671 L-0.0862808966,0.332462393 L0.126982153,0.332462393 L1.9571078,0.332621619 C2.33691039,0.346183445 2.60483266,0.500763011 2.70426567,0.864608503 L3.04700401,2.45032983 L3.91014913,0.33421154 L5.65905368,0.33421154 L3.65850113,4.79841547 L2.11488663,4.80067675 L1.08895255,1.27319335 Z M12.6715128,4.20900604 C12.568231,4.20889744 12.4584352,4.20875049 12.1508099,4.20833875 C12.1421083,4.20832704 12.1421083,4.20832704 12.133408,4.20831532 C11.8032458,4.20786856 11.6979583,4.20772609 11.5934674,4.20761164 C11.5796713,4.24234672 11.5629679,4.2844451 11.542481,4.33610395 C11.5421397,4.33696544 11.5421397,4.33696544 11.5417984,4.33782694 C11.4501719,4.56938666 11.4501719,4.56938666 11.4197093,4.64656224 L11.3572602,4.80477457 L9.61156048,4.80477457 L9.77481455,4.45021529 L11.4504445,0.81104397 C11.6047045,0.472878259 11.8773315,0.335086113 12.2683451,0.335086113 L13.3394337,0.335086113 L14.36867,4.80477457 L12.8068377,4.80477457 L12.7627789,4.60990701 C12.7448578,4.53064393 12.7448578,4.53064393 12.6907122,4.29279432 C12.690148,4.29032433 12.690148,4.29032433 12.6895838,4.2878546 C12.682823,4.2583347 12.6768432,4.23224079 12.6715128,4.20900604 Z M12.1200163,2.8958369 L12.3730577,2.8958369 C12.3596215,2.83689203 12.3420914,2.75998341 12.3161187,2.64603493 L12.3160968,2.64593855 C12.3031157,2.58898373 12.2917998,2.539335 12.2818639,2.49574109 C12.2587051,2.5530226 12.2303103,2.62325357 12.1947592,2.71118467 C12.1944561,2.71193376 12.1944561,2.71193376 12.1941531,2.71268286 C12.1657724,2.78280894 12.1413018,2.84326451 12.1200163,2.89583691 Z M12.1692295,2.00076027 L12.1310213,1.83059216 C12.0905449,1.84999696 12.0419647,1.87657411 11.9824316,1.90914329 L12.1692295,2.00076027 Z M12.434371,2.11683532 C12.4342784,2.11707712 12.434237,2.11718808 12.4341792,2.11734306 C12.4342936,2.11707477 12.4343888,2.11685148 12.434492,2.11658511 Z M10.5299103,0.515606438 L10.283788,1.89925639 L9.99149856,1.76825473 L9.90215309,1.72783267 C9.65958729,1.63408538 9.43531834,1.58772403 9.14728003,1.59246664 C8.86815823,1.59246664 8.75084868,1.66370703 8.75082387,1.68707169 C8.75071547,1.69476667 8.86298777,1.77352173 9.23509335,1.9468323 C9.96791211,2.26688779 10.3378773,2.68862582 10.3323609,3.25781003 C10.3219118,4.24296809 9.42527614,4.86249642 8.11424866,4.862483 C7.60824955,4.85724047 7.08000697,4.76400757 6.76332119,4.63146638 L6.57861916,4.5541638 L6.82746516,3.15621485 L7.11763147,3.28204644 L7.2563956,3.34232819 C7.62469513,3.48996766 7.8316859,3.5325263 8.22530622,3.5325263 C8.48280086,3.5325263 8.65074755,3.44899931 8.65149129,3.3925774 C8.65183598,3.3582879 8.56676374,3.28662955 8.21506335,3.13042533 C7.49292388,2.81068089 7.07040731,2.4314611 7.07696059,1.82121665 C7.08541191,0.888578447 7.99702849,0.262496524 9.23475383,0.262496524 C9.64473676,0.262496524 10.0196623,0.332270552 10.3313612,0.444266293 L10.5299103,0.515606438 Z M4.72634924,4.80302543 L5.52015171,0.331587819 L7.15738569,0.331587819 L6.36161349,4.80302543 L4.72634924,4.80302543 Z"/>
      </g>
      <path fill="#FFBF00" d="M1.94818659,0.582462393 L0.126982153,0.582462393 L0.113861084,0.664672288 C1.52918711,0.99351187 2.46690621,1.78762448 2.85441512,2.74265858 L2.4599083,0.917423988 C2.390804,0.665546862 2.19311322,0.591208126 1.94818659,0.582462393 L1.94818659,0.582462393 Z"/>
    </g>
  </g>
</svg>
