<svg xmlns="http://www.w3.org/2000/svg" xmlns:xlink="http://www.w3.org/1999/xlink" width="32" height="32" viewBox="0 0 32 32">
  <defs>
    <rect id="002-mastercard-medium-a" width="32" height="24" y="4" rx="4"/>
  </defs>
  <g fill="none" fill-rule="evenodd">
    <use fill="#EDEFF2" xlink:href="#002-mastercard-medium-a"/>
    <rect width="31" height="23" x=".5" y="4.5" stroke="#000" stroke-opacity=".4" rx="4"/>
    <path fill="#FF8066" d="M11,8.5 C6.85763293,8.5 3.5,11.8578571 3.5,16 C3.5,20.1410714 6.85763293,23.5 11,23.5 C15.1423671,23.5 18.5,20.1410714 18.5,16 C18.5,11.8578571 15.1423671,8.5 11,8.5 L11,8.5 Z"/>
    <path fill="#FFD580" d="M21,8.5 C16.8573775,8.5 13.5,11.8578571 13.5,16 C13.5,20.1410714 16.8573775,23.5 21,23.5 C25.1415512,23.5 28.5,20.1410714 28.5,16 C28.5,11.8578571 25.1415512,8.5 21,8.5 L21,8.5 Z"/>
    <path stroke="#000" stroke-opacity=".4" stroke-width=".5" d="M16.1666758,10.5958877 L15.9999505,10.7451085 L15.8332237,10.5958893 C14.5130295,9.41432512 12.8085671,8.75 11,8.75 C6.99578271,8.75 3.75,11.9958497 3.75,16 C3.75,20.0034544 6.99615823,23.25 11,23.25 C12.8084737,23.25 14.5129445,22.5855198 15.8332128,21.4037498 L15.9999505,21.2545032 L16.1666868,21.4037514 C17.4869353,22.5855259 19.1914186,23.25 21,23.25 C25.0033119,23.25 28.25,20.0031684 28.25,16 C28.25,11.9961357 25.0036874,8.75 21,8.75 C19.1913252,8.75 17.4868503,9.41431909 16.1666758,10.5958877 Z"/>
    <path fill="#FF8066" d="M15.9999489,10.4096026 C17.5343797,11.7829069 18.5,13.7786773 18.5,16 C18.5,18.2207482 17.5343797,20.2165602 15.9999489,21.5900267 C14.4655469,20.2165602 13.5,18.2207482 13.5,16 C13.5,13.7786773 14.4655469,11.7829069 15.9999489,10.4096026 Z" opacity=".5"/>
  </g>
</svg>
