<svg xmlns="http://www.w3.org/2000/svg" xmlns:xlink="http://www.w3.org/1999/xlink" width="32" height="32" viewBox="0 0 32 32">
  <defs>
    <rect id="002-visa-medium-a" width="32" height="24" y="4" rx="4"/>
  </defs>
  <g fill="none" fill-rule="evenodd">
    <use fill="#7A8FCC" xlink:href="#002-visa-medium-a"/>
    <rect width="31" height="23" x=".5" y="4.5" stroke="#000" stroke-opacity=".4" rx="4"/>
    <g transform="translate(1 11.9)">
      <path stroke="#000" stroke-opacity=".4" d="M2.59799526,1.20039737 C1.90421773,0.831500182 1.11264784,0.534949916 0.227722168,0.329344577 L0.253964307,0.164924786 L3.89637319,0.164924786 C4.38622645,0.182416253 4.78160801,0.331093723 4.9198166,0.834847976 L5.70883025,4.48531716 L5.94675897,5.58553044 L8.15634707,0.168423079 L10.5461312,0.168423079 L6.99294558,8.09730512 L4.60491094,8.10080342 L2.59799526,1.20039737 Z M26.2809177,0.170172226 L28.10912,8.10954915 L26.0132479,8.10954915 C26.0132479,8.10954915 25.8068097,7.19649457 25.7403296,6.91838024 C25.4096787,6.91838024 23.1073683,6.91488194 22.8484459,6.91488194 C22.7609721,7.13002699 22.3743379,8.10954915 22.3743379,8.10954915 L20.003798,8.10954915 L23.3557939,0.829600536 C23.5919732,0.311853109 23.9961021,0.170172226 24.5366902,0.170172226 L26.2809177,0.170172226 Z M23.4975015,5.2916738 L25.3729397,5.2916738 C25.2819669,4.89286835 24.8498464,2.99679331 24.8498464,2.99679331 L24.6958925,2.3111278 C24.5821765,2.61023189 24.3844858,3.09124723 24.3967321,3.07025747 C24.3967321,3.07025747 23.6846954,4.83339736 23.4975015,5.2916738 Z M20.4936513,0.359080071 L20.187493,2.08024043 L19.9845538,1.98928481 C19.5681785,1.82836331 19.0328389,1.67268925 18.2945601,1.68493328 C17.4110747,1.68493328 17.0016974,2.03651177 17.0016974,2.3671005 C16.9964489,2.73966874 17.4810538,2.98454928 18.2700674,3.35187009 C19.5716775,3.92034277 20.1734972,4.60775743 20.1647498,5.51031714 C20.1472551,7.15976248 18.6077163,8.22499283 16.2336774,8.22499283 C15.2207309,8.21449795 14.2462728,8.02209181 13.7196805,7.80169933 L14.0363357,6.02281712 L14.3267487,6.14875569 C15.0685265,6.44611063 15.5478829,6.5650526 16.4506124,6.5650526 C17.1014175,6.5650526 17.7959594,6.32192121 17.8029573,5.79018061 C17.8064563,5.44210041 17.5107948,5.19372158 16.6325579,4.80366186 C15.7753147,4.42409703 14.6416543,3.78740762 14.6539007,2.64696397 C14.6678965,1.10246742 16.2389258,0.0249930488 18.4695077,0.0249930488 C19.3442456,0.0249930488 20.0457855,0.198158573 20.4936513,0.359080071 Z M10.04928,8.10605086 L11.4593576,0.163175639 L13.717931,0.163175639 L12.3043545,8.10605086 L10.04928,8.10605086 Z"/>
      <path fill="#FFF" d="M2.59799526,1.20039737 C1.90421773,0.831500182 1.11264784,0.534949916 0.227722168,0.329344577 L0.253964307,0.164924786 L3.89637319,0.164924786 C4.38622645,0.182416253 4.78160801,0.331093723 4.9198166,0.834847976 L5.70883025,4.48531716 L5.94675897,5.58553044 L8.15634707,0.168423079 L10.5461312,0.168423079 L6.99294558,8.09730512 L4.60491094,8.10080342 L2.59799526,1.20039737 Z M26.2809177,0.170172226 L28.10912,8.10954915 L26.0132479,8.10954915 C26.0132479,8.10954915 25.8068097,7.19649457 25.7403296,6.91838024 C25.4096787,6.91838024 23.1073683,6.91488194 22.8484459,6.91488194 C22.7609721,7.13002699 22.3743379,8.10954915 22.3743379,8.10954915 L20.003798,8.10954915 L23.3557939,0.829600536 C23.5919732,0.311853109 23.9961021,0.170172226 24.5366902,0.170172226 L26.2809177,0.170172226 Z M23.4975015,5.2916738 L25.3729397,5.2916738 C25.2819669,4.89286835 24.8498464,2.99679331 24.8498464,2.99679331 L24.6958925,2.3111278 C24.5821765,2.61023189 24.3844858,3.09124723 24.3967321,3.07025747 C24.3967321,3.07025747 23.6846954,4.83339736 23.4975015,5.2916738 Z M20.4936513,0.359080071 L20.187493,2.08024043 L19.9845538,1.98928481 C19.5681785,1.82836331 19.0328389,1.67268925 18.2945601,1.68493328 C17.4110747,1.68493328 17.0016974,2.03651177 17.0016974,2.3671005 C16.9964489,2.73966874 17.4810538,2.98454928 18.2700674,3.35187009 C19.5716775,3.92034277 20.1734972,4.60775743 20.1647498,5.51031714 C20.1472551,7.15976248 18.6077163,8.22499283 16.2336774,8.22499283 C15.2207309,8.21449795 14.2462728,8.02209181 13.7196805,7.80169933 L14.0363357,6.02281712 L14.3267487,6.14875569 C15.0685265,6.44611063 15.5478829,6.5650526 16.4506124,6.5650526 C17.1014175,6.5650526 17.7959594,6.32192121 17.8029573,5.79018061 C17.8064563,5.44210041 17.5107948,5.19372158 16.6325579,4.80366186 C15.7753147,4.42409703 14.6416543,3.78740762 14.6539007,2.64696397 C14.6678965,1.10246742 16.2389258,0.0249930488 18.4695077,0.0249930488 C19.3442456,0.0249930488 20.0457855,0.198158573 20.4936513,0.359080071 Z M10.04928,8.10605086 L11.4593576,0.163175639 L13.717931,0.163175639 L12.3043545,8.10605086 L10.04928,8.10605086 Z"/>
      <path fill="#FFBF00" d="M3.89637319,0.164924786 L0.253964307,0.164924786 L0.227722168,0.329344577 C3.05837422,0.98702374 4.93381241,2.57524895 5.70883025,4.48531716 L4.9198166,0.834847976 C4.78160801,0.331093723 4.38622645,0.182416253 3.89637319,0.164924786 L3.89637319,0.164924786 Z"/>
    </g>
  </g>
</svg>
