<svg xmlns="http://www.w3.org/2000/svg" xmlns:xlink="http://www.w3.org/1999/xlink" width="64" height="64" viewBox="0 0 64 64">
  <defs>
    <rect id="002-large-a" width="64" height="48" y="8" rx="8"/>
    <rect id="002-large-b" width="20" height="16" rx="3"/>
    <rect id="002-large-d" width="20" height="4" y="6"/>
    <circle id="002-large-e" cx="10" cy="8" r="4"/>
    <path id="002-large-f" d="M8,46 C8,44.8954305 8.89821238,44 9.99079514,44 L26.0092049,44 C27.1086907,44 28,44.8877296 28,46 C28,47.1045695 27.1017876,48 26.0092049,48 L9.99079514,48 C8.89130934,48 8,47.1122704 8,46 Z M8,40 C8,38.8954305 8.90195036,38 10.0085302,38 L17.9914698,38 C19.1007504,38 20,38.8877296 20,40 C20,41.1045695 19.0980496,42 17.9914698,42 L10.0085302,42 C8.8992496,42 8,41.1122704 8,40 Z"/>
    <rect id="002-large-g" width="62" height="12" x="1" y="16"/>
    <filter id="002-large-h" width="100.8%" height="104.2%" x="-.4%" y="-2.1%" filterUnits="objectBoundingBox">
      <feOffset dy=".5" in="SourceAlpha" result="shadowOffsetInner1"/>
      <feComposite in="shadowOffsetInner1" in2="SourceAlpha" k2="-1" k3="1" operator="arithmetic" result="shadowInnerInner1"/>
      <feColorMatrix in="shadowInnerInner1" result="shadowMatrixInner1" values="0 0 0 0 0   0 0 0 0 0   0 0 0 0 0  0 0 0 0.4 0"/>
      <feOffset dy="-.5" in="SourceAlpha" result="shadowOffsetInner2"/>
      <feComposite in="shadowOffsetInner2" in2="SourceAlpha" k2="-1" k3="1" operator="arithmetic" result="shadowInnerInner2"/>
      <feColorMatrix in="shadowInnerInner2" result="shadowMatrixInner2" values="0 0 0 0 0   0 0 0 0 0   0 0 0 0 0  0 0 0 0.4 0"/>
      <feMerge>
        <feMergeNode in="shadowMatrixInner1"/>
        <feMergeNode in="shadowMatrixInner2"/>
      </feMerge>
    </filter>
  </defs>
  <g fill="none" fill-rule="evenodd">
    <use fill="#EDEFF2" xlink:href="#002-large-a"/>
    <rect width="63" height="47" x=".5" y="8.5" stroke="#000" stroke-opacity=".4" rx="8"/>
    <g transform="translate(36 32)">
      <mask id="002-large-c" fill="#fff">
        <use xlink:href="#002-large-b"/>
      </mask>
      <use fill="#F2C585" xlink:href="#002-large-b"/>
      <g mask="url(#002-large-c)">
        <use fill="#F2C585" xlink:href="#002-large-d"/>
        <rect width="20.5" height="4.5" x="-.25" y="5.75" stroke="#8C674D" stroke-width=".5"/>
      </g>
      <g mask="url(#002-large-c)">
        <use fill="#F2C585" xlink:href="#002-large-e"/>
        <circle cx="10" cy="8" r="3.75" stroke="#8C674D" stroke-width=".5"/>
      </g>
      <rect width="19.5" height="15.5" x=".25" y=".25" stroke="#8C674D" stroke-width=".5" mask="url(#002-large-c)" rx="3"/>
    </g>
    <use fill="#B8BDCC" xlink:href="#002-large-f"/>
    <path stroke="#5C5E66" stroke-width=".5" d="M8.25,46 C8.25,46.9716485 9.02683529,47.75 9.99079514,47.75 L26.0092049,47.75 C26.9659761,47.75 27.75,46.964233 27.75,46 C27.75,45.0283515 26.9731647,44.25 26.0092049,44.25 L9.99079514,44.25 C9.03402389,44.25 8.25,45.035767 8.25,46 Z M8.25,40 C8.25,40.9711508 9.03425692,41.75 10.0085302,41.75 L17.9914698,41.75 C18.9612005,41.75 19.75,40.9652794 19.75,40 C19.75,39.0288492 18.9657431,38.25 17.9914698,38.25 L10.0085302,38.25 C9.03879947,38.25 8.25,39.0347206 8.25,40 Z"/>
    <g>
      <use fill="#000" fill-opacity=".4" xlink:href="#002-large-g"/>
      <use fill="#000" filter="url(#002-large-h)" xlink:href="#002-large-g"/>
    </g>
  </g>
</svg>
