<svg xmlns="http://www.w3.org/2000/svg" xmlns:xlink="http://www.w3.org/1999/xlink" width="18" height="18" viewBox="0 0 18 18">
  <defs>
    <rect id="003-mono-black-a" width="14" height="18" x="2" rx="2.25"/>
  </defs>
  <g fill="none" fill-rule="evenodd">
    <use fill="#000" fill-opacity=".2" xlink:href="#003-mono-black-a"/>
    <rect width="13" height="17" x="2.5" y=".5" stroke="#000" rx="2.25"/>
    <rect width="1" height="18" x="5" fill="#000"/>
    <path fill="#000" d="M2 8L16 8 16 9 2 9 2 8zM2 11L16 11 16 12 2 12 2 11zM2 14L16 14 16 15 2 15 2 14zM4.25 0L13.75 0 13.75 0C14.9926407-2.28269391e-16 16 1.00735931 16 2.25L16 5 2 5 2 2.25 2 2.25C2 1.00735931 3.00735931 2.28269391e-16 4.25 0z"/>
  </g>
</svg>
