<svg xmlns="http://www.w3.org/2000/svg" width="18" height="18" viewBox="0 0 18 18">
  <path fill="#FFF" fill-rule="evenodd" d="M3,4 L2,4 L2,2.25 L2,2.25 C2,1.00735931 3.00735931,2.28269391e-16 4.25,0 L4.25,0 L13.75,0 C14.9926407,-2.28269391e-16 16,1.00735931 16,2.25 L16,4 L15,4 L15,2.25 C15,1.55964406 14.4403559,1 13.75,1 L4.25,1 C3.55964406,1 3,1.55964406 3,2.25 L3,4 Z M6,12 L16,12 L16,14 L6,14 L6,12 Z M5,12 L2,12 L2,14 L5,14 L5,12 Z M5,15 L2,15 L2,15.75 C2,16.9926407 3.00735931,18 4.25,18 L13.75,18 C14.9926407,18 16,16.9926407 16,15.75 L16,15 L6,15 L6,18 L5,18 L5,15 Z M6,9 L16,9 L16,11 L6,11 L6,9 Z M5,9 L2,9 L2,11 L5,11 L5,9 Z M6,8 L16,8 L16,5 L2,5 L2,8 L5,8 L5,5 L6,5 L6,8 Z"/>
</svg>
