<svg xmlns="http://www.w3.org/2000/svg" xmlns:xlink="http://www.w3.org/1999/xlink" width="32" height="32" viewBox="0 0 32 32">
  <defs>
    <path id="003-medium-a" d="M8,0 L24,0 L24,0 C26.209139,-4.05812251e-16 28,1.790861 28,4 L28,8 L4,8 L4,4 L4,4 C4,1.790861 5.790861,4.05812251e-16 8,0 Z"/>
  </defs>
  <g fill="none" fill-rule="evenodd">
    <rect width="24" height="32" x="4" fill="#FE9" rx="3"/>
    <path fill="#FA937F" d="M8,6 L8.5,6 L8.5,32 L8,32 L8,6 Z M10,6 L10.5,6 L10.5,32 L10,32 L10,6 Z"/>
    <path fill="#80AAFF" d="M4,11.5 L28,11.5 L28,12 L4,12 L4,11.5 Z M4,15.5 L28,15.5 L28,16 L4,16 L4,15.5 Z M4,19.5 L28,19.5 L28,20 L4,20 L4,19.5 Z M4,23.5 L28,23.5 L28,24 L4,24 L4,23.5 Z M4,27.5 L28,27.5 L28,28 L4,28 L4,27.5 Z" style="mix-blend-mode:multiply"/>
    <rect width="23" height="31" x="4.5" y=".5" stroke="#A67553" rx="3"/>
    <use fill="#A67553" xlink:href="#003-medium-a"/>
    <path stroke="#402D20" d="M4.5,7.5 L27.5,7.5 L27.5,4 C27.5,2.06700338 25.9329966,0.5 24,0.5 L8,0.5 C6.06700338,0.5 4.5,2.06700338 4.5,4 L4.5,7.5 Z"/>
  </g>
</svg>
