<svg xmlns="http://www.w3.org/2000/svg" xmlns:xlink="http://www.w3.org/1999/xlink" width="16" height="16" viewBox="0 0 16 16">
  <defs>
    <rect id="004-mini-a" width="16" height="12" y="2" rx="2"/>
    <path id="004-mini-c" d="M9,11.5 C9,11.2238576 9.21505737,11 9.49047852,11 L12.5095215,11 C12.7804053,11 13,11.2319336 13,11.5 C13,11.7761424 12.7849426,12 12.5095215,12 L9.49047852,12 C9.21959471,12 9,11.7680664 9,11.5 Z M9,9.5 C9,9.22385763 9.2157526,9 9.49538898,9 L11.504611,9 C11.7782068,9 12,9.23193359 12,9.5 C12,9.77614237 11.7842474,10 11.504611,10 L9.49538898,10 C9.2217932,10 9,9.76806641 9,9.5 Z M9,6.5 C9,6.22385763 9.21484375,6 9.49769878,6 L13.5023012,6 C13.7771727,6 14,6.23193359 14,6.5 C14,6.77614237 13.7851562,7 13.5023012,7 L9.49769878,7 C9.22282734,7 9,6.76806641 9,6.5 Z"/>
    <rect id="004-mini-d" width="5" height="8" rx="1"/>
    <rect id="004-mini-e" width="3" height="5" x="7" rx="1.5"/>
  </defs>
  <g fill="none" fill-rule="evenodd">
    <mask id="004-mini-b" fill="#fff">
      <use xlink:href="#004-mini-a"/>
    </mask>
    <use fill="#EDEFF2" xlink:href="#004-mini-a"/>
    <rect width="15" height="11" x=".5" y="2.5" stroke="#000" stroke-opacity=".4" rx="2"/>
    <g mask="url(#004-mini-b)">
      <use fill="#B8BDCC" xlink:href="#004-mini-c"/>
      <path stroke="#5C5E66" stroke-width=".5" d="M9.25,11.5 C9.25,11.6344524 9.36209663,11.75 9.49047852,11.75 L12.5095215,11.75 C12.6438496,11.75 12.75,11.641093 12.75,11.5 C12.75,11.3655476 12.6379034,11.25 12.5095215,11.25 L9.49047852,11.25 C9.35615039,11.25 9.25,11.358907 9.25,11.5 Z M9.25,9.5 C9.25,9.63391086 9.36374947,9.75 9.49538898,9.75 L11.504611,9.75 C11.6430885,9.75 11.75,9.64117678 11.75,9.5 C11.75,9.36608914 11.6362505,9.25 11.504611,9.25 L9.49538898,9.25 C9.35691152,9.25 9.25,9.35882322 9.25,9.5 Z M9.25,6.5 C9.25,6.63365581 9.36453092,6.75 9.49769878,6.75 L13.5023012,6.75 C13.6434384,6.75 13.75,6.64174624 13.75,6.5 C13.75,6.36634419 13.6354691,6.25 13.5023012,6.25 L9.49769878,6.25 C9.35656157,6.25 9.25,6.35825376 9.25,6.5 Z"/>
    </g>
    <g mask="url(#004-mini-b)">
      <g transform="translate(2 4)">
        <g>
          <use fill="#79BF73" xlink:href="#004-mini-d"/>
          <rect width="4.5" height="7.5" x=".25" y=".25" stroke="#395936" stroke-width=".5" rx="1"/>
        </g>
      </g>
    </g>
    <g>
      <use fill="#EDEFF2" fill-opacity=".7" xlink:href="#004-mini-e"/>
      <rect width="2" height="4" x="7.5" y=".5" stroke="#000" stroke-opacity=".3" rx="1"/>
    </g>
  </g>
</svg>
