<svg xmlns="http://www.w3.org/2000/svg" width="18" height="18" viewBox="0 0 18 18">
  <path fill="#FFF" fill-rule="evenodd" d="M7.00000575,2 C7.00261031,0.894979068 7.88936462,2e-16 9,2e-16 C10.1029513,2e-16 10.9973759,0.891282517 10.9999942,2 L15.75,2 C16.9926407,2 18,3.00735931 18,4.25 L18,13.75 C18,14.9926407 16.9926407,16 15.75,16 L2.25,16 C1.00735931,16 1.52179594e-16,14.9926407 0,13.75 L0,4.25 C-1.52179594e-16,3.00735931 1.00735931,2 2.25,2 L2.25,2 L7.00000575,2 Z M9,12.5 C9,12.7680664 9.21959471,13 9.49047852,13 L12.5095215,13 C12.7849426,13 13,12.7761424 13,12.5 C13,12.2319336 12.7804053,12 12.5095215,12 L9.49047852,12 C9.21505737,12 9,12.2238576 9,12.5 Z M9,10.5 C9,10.7680664 9.2217932,11 9.49538898,11 L11.504611,11 C11.7842474,11 12,10.7761424 12,10.5 C12,10.2319336 11.7782068,10 11.504611,10 L9.49538898,10 C9.2157526,10 9,10.2238576 9,10.5 Z M9,6.5 C9,6.76806641 9.21983051,7 9.49100518,7 L14.5089948,7 C14.7721195,7 15,6.77614237 15,6.5 C15,6.23193359 14.7801695,6 14.5089948,6 L9.49100518,6 C9.22788048,6 9,6.22385763 9,6.5 Z M3,5.99703014 L3,12.0029699 C3,12.5469637 3.45190985,13 4.0093689,13 L5.9906311,13 C6.55664682,13 7,12.5536144 7,12.0029699 L7,5.99703014 C7,5.45303631 6.54809015,5 5.9906311,5 L4.0093689,5 C3.44335318,5 3,5.4463856 3,5.99703014 Z M8,1.99895656 L8,3.00104344 C8,3.55733967 8.44771525,4 9,4 C9.55613518,4 10,3.55275191 10,3.00104344 L10,1.99895656 C10,1.44266033 9.55228475,1 9,1 C8.44386482,1 8,1.44724809 8,1.99895656 Z"/>
</svg>
