<svg xmlns="http://www.w3.org/2000/svg" width="18" height="18" viewBox="0 0 18 18">
  <g fill-rule="evenodd">
    <path fill-opacity=".2" d="M8,2 L2.25,2 L2.25,2 C1.00735931,2 -1.52179594e-16,3.00735931 0,4.25 L0,4.25 L0,13.75 C1.52179594e-16,14.9926407 1.00735931,16 2.25,16 L15.75,16 C16.9926407,16 18,14.9926407 18,13.75 L18,4.25 C18,3.00735931 16.9926407,2 15.75,2 L10,2 L10,3.00104344 C10,3.55275191 9.55613518,4 9,4 C8.44771525,4 8,3.55733967 8,3.00104344 L8,2 Z"/>
    <path d="M8,2 L2.25,2 L2.25,2 C1.00735931,2 -1.52179594e-16,3.00735931 0,4.25 L0,4.25 L0,13.75 C1.52179594e-16,14.9926407 1.00735931,16 2.25,16 L15.75,16 C16.9926407,16 18,14.9926407 18,13.75 L18,4.25 C18,3.00735931 16.9926407,2 15.75,2 L10,2 L10,3 L15.75,3 C16.4403559,3 17,3.55964406 17,4.25 L17,13.75 C17,14.4403559 16.4403559,15 15.75,15 L2.25,15 C1.55964406,15 1,14.4403559 1,13.75 L1,4.25 C1,3.55964406 1.55964406,3 2.25,3 L8,3 L8,2 Z"/>
    <path d="M9,12.5 C9,12.2238576 9.21505737,12 9.49047852,12 L12.5095215,12 C12.7804053,12 13,12.2319336 13,12.5 C13,12.7761424 12.7849426,13 12.5095215,13 L9.49047852,13 C9.21959471,13 9,12.7680664 9,12.5 Z M9,10.5 C9,10.2238576 9.2157526,10 9.49538898,10 L11.504611,10 C11.7782068,10 12,10.2319336 12,10.5 C12,10.7761424 11.7842474,11 11.504611,11 L9.49538898,11 C9.2217932,11 9,10.7680664 9,10.5 Z M9,6.5 C9,6.22385763 9.22788048,6 9.49100518,6 L14.5089948,6 C14.7801695,6 15,6.23193359 15,6.5 C15,6.77614237 14.7721195,7 14.5089948,7 L9.49100518,7 C9.21983051,7 9,6.76806641 9,6.5 Z"/>
    <rect width="4" height="8" x="3" y="5" rx="1"/>
    <path d="M7,2.0048815 C7,0.897616023 7.88772964,0 9,0 C10.1045695,0 11,0.893899798 11,2.0048815 L11,2.9951185 C11,4.10238398 10.1122704,5 9,5 C7.8954305,5 7,4.1061002 7,2.9951185 L7,2.0048815 Z M8,1.99895656 L8,3.00104344 C8,3.55733967 8.44771525,4 9,4 C9.55613518,4 10,3.55275191 10,3.00104344 L10,1.99895656 C10,1.44266033 9.55228475,1 9,1 C8.44386482,1 8,1.44724809 8,1.99895656 Z"/>
  </g>
</svg>
