<svg xmlns="http://www.w3.org/2000/svg" xmlns:xlink="http://www.w3.org/1999/xlink" width="32" height="32" viewBox="0 0 32 32">
  <defs>
    <circle id="005-medium-a" cx="21" cy="11" r="8"/>
    <path id="005-medium-b" d="M16,24 L13,21 L2,32 L8,32 L8,30 L10,28 L12,28 L12,26 L14,24 L16,24 Z"/>
    <polygon id="005-medium-c" points="0 28 12 16 13 17 0 30"/>
  </defs>
  <g fill="none" fill-rule="evenodd">
    <path fill="#EDEFF2" d="M10.3270224,13.6729776 L0,24 L0,30 L2,32 L8,32 L8,30 L10,28 L12,28 L12,26 L14,24 L16,24 L18.3270224,21.6729776 C19.1827352,21.8865961 20.0781241,22 21,22 C27.0751322,22 32,17.0751322 32,11 C32,4.92486775 27.0751322,0 21,0 C14.9248678,0 10,4.92486775 10,11 C10,11.9218759 10.1134039,12.8172648 10.3270224,13.6729776 Z"/>
    <path fill="#000" fill-opacity=".4" d="M11.4440782,13.9559462 L1,24.4000244 L1,29.5999756 L2.4000001,31 L7,31 L7,29.5999756 L9.60000038,27 L11,27 L11,25.5999756 L13.6000004,23 L15.6000004,23 L18.0440728,20.5559276 C18.9782847,20.8445777 19.9709919,21 21,21 C26.5228475,21 31,16.5228475 31,11 C31,5.4771525 26.5228475,1 21,1 C15.4771525,1 11,5.4771525 11,11 C11,12.029015 11.1554244,13.0217287 11.4440782,13.9559462 Z M10.3270224,13.6729776 C10.1134039,12.8172648 10,11.9218759 10,11 C10,4.92486775 14.9248678,0 21,0 C27.0751322,0 32,4.92486775 32,11 C32,17.0751322 27.0751322,22 21,22 C20.0781241,22 19.1827352,21.8865961 18.3270224,21.6729776 L16,24 L14,24 L12,26 L12,28 L10,28 L8,30 L8,32 L2,32 L0,30 L0,24 L10.3270224,13.6729776 Z"/>
    <use fill="#B8BDCC" xlink:href="#005-medium-a"/>
    <circle cx="21" cy="11" r="7.75" stroke="#5C5E66" stroke-width=".5"/>
    <use fill="#B8BDCC" xlink:href="#005-medium-b"/>
    <path stroke="#5C5E66" stroke-width=".5" d="M15.3964466,23.75 L13,21.3535534 L2.60355339,31.75 L7.75,31.75 L7.75,30 L7.8232233,29.8232233 L9.8232233,27.8232233 L10,27.75 L11.75,27.75 L11.75,26 L11.8232233,25.8232233 L13.8232233,23.8232233 L14,23.75 L15.3964466,23.75 Z"/>
    <g>
      <use fill="#B8BDCC" xlink:href="#005-medium-c"/>
      <path stroke="#5C5E66" stroke-width=".5" d="M0.25,28.1035534 L0.25,29.3964466 L12.6464466,17 L12,16.3535534 L0.25,28.1035534 Z"/>
    </g>
    <circle cx="21" cy="11" r="4.75" transform="scale(1 -1) rotate(20 83.384 0)"/>
  </g>
</svg>
