<svg xmlns="http://www.w3.org/2000/svg" xmlns:xlink="http://www.w3.org/1999/xlink" width="18" height="18" viewBox="0 0 18 18">
  <defs>
    <path id="005-mono-black-a" d="M5,17.5 L4.5,18 L1.125,18 L0,16.875 L0,13.5 L6.15202043,7.34797957 C6.0525513,6.9146827 6,6.46347836 6,6 C6,2.6862915 8.6862915,0 12,0 C15.3137085,0 18,2.6862915 18,6 C18,9.3137085 15.3137085,12 12,12 C11.5365216,12 11.0853173,11.9474487 10.6520204,11.8479796 L8.5,14 L7,14 L7,15.5 L6.5,16 L5,16 L5,17.5 Z M12,8 C13.1045695,8 14,7.1045695 14,6 C14,4.8954305 13.1045695,4 12,4 C10.8954305,4 10,4.8954305 10,6 C10,7.1045695 10.8954305,8 12,8 Z"/>
  </defs>
  <g fill="none" fill-rule="evenodd">
    <path fill="#000" fill-opacity=".1" d="M5,17.5 L4.5,18 L1.125,18 L0,16.875 L0,13.5 L6.15202043,7.34797957 C6.0525513,6.9146827 6,6.46347836 6,6 C6,2.6862915 8.6862915,0 12,0 C15.3137085,0 18,2.6862915 18,6 C18,9.3137085 15.3137085,12 12,12 C11.5365216,12 11.0853173,11.9474487 10.6520204,11.8479796 L8.5,14 L7,14 L7,15.5 L6.5,16 L5,16 L5,17.5 Z"/>
    <use fill="#000" fill-opacity=".1" xlink:href="#005-mono-black-a"/>
    <path stroke="#000" d="M4.5,17.2928932 L4.5,15.5 L6.29289322,15.5 L6.5,15.2928932 L6.5,13.5 L8.29289322,13.5 L10.4941587,11.2987346 L10.7638922,11.3606555 C11.1659449,11.4529521 11.5797251,11.5 12,11.5 C15.0375661,11.5 17.5,9.03756612 17.5,6 C17.5,2.96243388 15.0375661,0.5 12,0.5 C8.96243388,0.5 6.5,2.96243388 6.5,6 C6.5,6.42027489 6.54704785,6.83405513 6.63934445,7.23610777 L6.70126543,7.50584135 L0.5,13.7071068 L0.5,16.6678932 L1.33210678,17.5 L4.29289322,17.5 L4.5,17.2928932 Z M12,8.5 C10.6192881,8.5 9.5,7.38071187 9.5,6 C9.5,4.61928813 10.6192881,3.5 12,3.5 C13.3807119,3.5 14.5,4.61928813 14.5,6 C14.5,7.38071187 13.3807119,8.5 12,8.5 Z"/>
  </g>
</svg>
