<svg xmlns="http://www.w3.org/2000/svg" width="18" height="18" viewBox="0 0 18 18">
  <path fill="#FFF" d="M-8.60422844e-16,16.5393607 L7.20710678,9.40461615 L6.5,8.70460901 L4.99600361e-16,15.1393464 L0,13.3644545 L6.15202043,7.27420287 C6.0525513,6.84525648 6,6.39858241 6,5.93975757 C6,2.65932005 8.6862915,0 12,0 C15.3137085,0 18,2.65932005 18,5.93975757 C18,9.22019509 15.3137085,11.8795151 12,11.8795151 C11.5365216,11.8795151 11.0853173,11.8274915 10.6520204,11.729021 L8.5,14 L7,14 L7,15.3443737 L6.5,16 L5,16 L5,17.3242929 L4.5,18 L1.125,18 L0,16.7055682 L0,16.5393607 Z M12,9.40963635 C13.9318735,9.40963635 15.5,7.85725445 15.5,5.93975757 C15.5,4.02226068 13.9318735,2.46987878 12,2.46987878 C10.0681265,2.46987878 8.5,4.02226068 8.5,5.93975757 C8.5,7.85725445 10.0681265,9.40963635 12,9.40963635 Z M12,8.40963635 C13.381835,8.40963635 14.5,7.3026982 14.5,5.93975757 C14.5,4.57681693 13.381835,3.46987878 12,3.46987878 C10.618165,3.46987878 9.5,4.57681693 9.5,5.93975757 C9.5,7.3026982 10.618165,8.40963635 12,8.40963635 Z"/>
</svg>
