<svg xmlns="http://www.w3.org/2000/svg" xmlns:xlink="http://www.w3.org/1999/xlink" width="64" height="64" viewBox="0 0 64 64">
  <defs>
    <path id="006-large-a" d="M8,0 L32,0 L48,16 L48,56 L48,56 C48,60.418278 44.418278,64 40,64 L8,64 L8,64 C3.581722,64 -3.47095419e-16,60.418278 -8.8817842e-16,56 L0,8 L0,8 C-5.41083001e-16,3.581722 3.581722,8.11624501e-16 8,0 Z"/>
    <path id="006-large-c" d="M10,52 L34,52 C35.1045695,52 36,52.8954305 36,54 C36,55.1045695 35.1045695,56 34,56 L10,56 C8.8954305,56 8,55.1045695 8,54 C8,52.8954305 8.8954305,52 10,52 L10,52 Z M10,44 L26,44 C27.1045695,44 28,44.8954305 28,46 C28,47.1045695 27.1045695,48 26,48 L10,48 C8.8954305,48 8,47.1045695 8,46 C8,44.8954305 8.8954305,44 10,44 L10,44 Z M10,36 L38,36 C39.1045695,36 40,36.8954305 40,38 C40,39.1045695 39.1045695,40 38,40 L10,40 C8.8954305,40 8,39.1045695 8,38 C8,36.8954305 8.8954305,36 10,36 L10,36 Z M12,8 L20,8 C22.209139,8 24,9.790861 24,12 L24,20 C24,22.209139 22.209139,24 20,24 L12,24 C9.790861,24 8,22.209139 8,20 L8,12 L8,12 C8,9.790861 9.790861,8 12,8 L12,8 Z"/>
    <path id="006-large-d" d="M32,0 L48,0 L48,16 L40,16 L40,16 C35.581722,16 32,12.418278 32,8 L32,0 Z"/>
  </defs>
  <g fill="none" fill-rule="evenodd" transform="translate(8)">
    <mask id="006-large-b" fill="#fff">
      <use xlink:href="#006-large-a"/>
    </mask>
    <use fill="#EDEFF2" xlink:href="#006-large-a"/>
    <g mask="url(#006-large-b)">
      <use fill="#B8BDCC" xlink:href="#006-large-c"/>
      <path stroke="#5C5E66" stroke-width=".5" d="M10,52.25 C9.03350169,52.25 8.25,53.0335017 8.25,54 C8.25,54.9664983 9.03350169,55.75 10,55.75 L34,55.75 C34.9664983,55.75 35.75,54.9664983 35.75,54 C35.75,53.0335017 34.9664983,52.25 34,52.25 L10,52.25 Z M10,44.25 C9.03350169,44.25 8.25,45.0335017 8.25,46 C8.25,46.9664983 9.03350169,47.75 10,47.75 L26,47.75 C26.9664983,47.75 27.75,46.9664983 27.75,46 C27.75,45.0335017 26.9664983,44.25 26,44.25 L10,44.25 Z M10,36.25 C9.03350169,36.25 8.25,37.0335017 8.25,38 C8.25,38.9664983 9.03350169,39.75 10,39.75 L38,39.75 C38.9664983,39.75 39.75,38.9664983 39.75,38 C39.75,37.0335017 38.9664983,36.25 38,36.25 L10,36.25 Z M12,8.25 C9.92893219,8.25 8.25,9.92893219 8.25,12 L8.25,20 C8.25,22.0710678 9.92893219,23.75 12,23.75 L20,23.75 C22.0710678,23.75 23.75,22.0710678 23.75,20 L23.75,12 C23.75,9.92893219 22.0710678,8.25 20,8.25 L12,8.25 Z"/>
    </g>
    <path fill="#000" fill-opacity=".07" d="M32,0 L48,0 L48,21 L40,21 L40,21 C35.581722,21 32,17.418278 32,13 L32,0 Z" mask="url(#006-large-b)"/>
    <g mask="url(#006-large-b)">
      <use fill="#D4D6D9" xlink:href="#006-large-d"/>
      <path stroke="#000" stroke-opacity=".4" d="M31.5,-0.5 L48.5,-0.5 L48.5,16.5 L40,16.5 C35.3055796,16.5 31.5,12.6944204 31.5,8 L31.5,-0.5 Z"/>
    </g>
    <path stroke="#000" stroke-opacity=".4" d="M47.5,16.2071068 L31.7928932,0.5 L8,0.5 C3.85786438,0.5 0.5,3.85786438 0.5,8 L0.5,56 C0.5,60.1421356 3.85786438,63.5 8,63.5 L40,63.5 C44.1421356,63.5 47.5,60.1421356 47.5,56 L47.5,16.2071068 Z" mask="url(#006-large-b)"/>
  </g>
</svg>
