<svg xmlns="http://www.w3.org/2000/svg" xmlns:xlink="http://www.w3.org/1999/xlink" width="32" height="32" viewBox="0 0 32 32">
  <defs>
    <path id="006-medium-a" d="M4,0 L16,0 L24,8 L24,28 L24,28 C24,30.209139 22.209139,32 20,32 L4,32 L4,32 C1.790861,32 -1.73547709e-16,30.209139 -4.4408921e-16,28 L0,4 L0,4 C-2.705415e-16,1.790861 1.790861,4.05812251e-16 4,0 Z"/>
    <path id="006-medium-c" d="M5,26 L17,26 C17.5522847,26 18,26.4477153 18,27 C18,27.5522847 17.5522847,28 17,28 L5,28 C4.44771525,28 4,27.5522847 4,27 C4,26.4477153 4.44771525,26 5,26 L5,26 Z M5,22 L13,22 C13.5522847,22 14,22.4477153 14,23 C14,23.5522847 13.5522847,24 13,24 L5,24 C4.44771525,24 4,23.5522847 4,23 C4,22.4477153 4.44771525,22 5,22 L5,22 Z M5,18 L19,18 C19.5522847,18 20,18.4477153 20,19 C20,19.5522847 19.5522847,20 19,20 L5,20 C4.44771525,20 4,19.5522847 4,19 C4,18.4477153 4.44771525,18 5,18 L5,18 Z M6,4 L10,4 C11.1045695,4 12,4.8954305 12,6 L12,10 C12,11.1045695 11.1045695,12 10,12 L6,12 C4.8954305,12 4,11.1045695 4,10 L4,6 L4,6 C4,4.8954305 4.8954305,4 6,4 L6,4 Z"/>
    <path id="006-medium-d" d="M16,0 L24,0 L24,8 L20,8 L20,8 C17.790861,8 16,6.209139 16,4 L16,0 Z"/>
  </defs>
  <g fill="none" fill-rule="evenodd" transform="translate(4)">
    <mask id="006-medium-b" fill="#fff">
      <use xlink:href="#006-medium-a"/>
    </mask>
    <use fill="#EDEFF2" xlink:href="#006-medium-a"/>
    <g mask="url(#006-medium-b)">
      <use fill="#B8BDCC" xlink:href="#006-medium-c"/>
      <path stroke="#5C5E66" stroke-width=".5" d="M5,26.25 C4.58578644,26.25 4.25,26.5857864 4.25,27 C4.25,27.4142136 4.58578644,27.75 5,27.75 L17,27.75 C17.4142136,27.75 17.75,27.4142136 17.75,27 C17.75,26.5857864 17.4142136,26.25 17,26.25 L5,26.25 Z M5,22.25 C4.58578644,22.25 4.25,22.5857864 4.25,23 C4.25,23.4142136 4.58578644,23.75 5,23.75 L13,23.75 C13.4142136,23.75 13.75,23.4142136 13.75,23 C13.75,22.5857864 13.4142136,22.25 13,22.25 L5,22.25 Z M5,18.25 C4.58578644,18.25 4.25,18.5857864 4.25,19 C4.25,19.4142136 4.58578644,19.75 5,19.75 L19,19.75 C19.4142136,19.75 19.75,19.4142136 19.75,19 C19.75,18.5857864 19.4142136,18.25 19,18.25 L5,18.25 Z M6,4.25 C5.03350169,4.25 4.25,5.03350169 4.25,6 L4.25,10 C4.25,10.9664983 5.03350169,11.75 6,11.75 L10,11.75 C10.9664983,11.75 11.75,10.9664983 11.75,10 L11.75,6 C11.75,5.03350169 10.9664983,4.25 10,4.25 L6,4.25 Z"/>
    </g>
    <path fill="#000" fill-opacity=".07" d="M16,0 L24,0 L24,11 L20,11 L20,11 C17.790861,11 16,9.209139 16,7 L16,0 Z" mask="url(#006-medium-b)"/>
    <g mask="url(#006-medium-b)">
      <use fill="#D4D6D9" xlink:href="#006-medium-d"/>
      <path stroke="#000" stroke-opacity=".4" d="M15.5,-0.5 L24.5,-0.5 L24.5,8.5 L20,8.5 C17.5147186,8.5 15.5,6.48528137 15.5,4 L15.5,-0.5 Z"/>
    </g>
    <path stroke="#000" stroke-opacity=".4" d="M23.5,8.20710678 L15.7928932,0.5 L4,0.5 C2.06700338,0.5 0.5,2.06700338 0.5,4 L0.5,28 C0.5,29.9329966 2.06700338,31.5 4,31.5 L20,31.5 C21.9329966,31.5 23.5,29.9329966 23.5,28 L23.5,8.20710678 Z" mask="url(#006-medium-b)"/>
  </g>
</svg>
