<svg xmlns="http://www.w3.org/2000/svg" xmlns:xlink="http://www.w3.org/1999/xlink" width="32" height="32" viewBox="0 0 32 32">
  <defs>
    <circle id="101-medium-a" cx="16" cy="16" r="15"/>
    <circle id="101-medium-b" cx="16" cy="16" r="11"/>
  </defs>
  <g fill="none" fill-rule="evenodd">
    <use fill="#F2CF9D" xlink:href="#101-medium-a"/>
    <circle cx="16" cy="16" r="14.5" stroke="#8C674D"/>
    <use fill="#FEC" xlink:href="#101-medium-b"/>
    <circle cx="16" cy="16" r="11.25" stroke="#8C674D" stroke-width=".5"/>
    <path fill="#8C674D" fill-rule="nonzero" d="M15.077308,19.5093825 L15.0752248,19.4961352 C15.076251,19.5007357 15.0769563,19.5051625 15.077308,19.5093825 Z M16.557198,12.5548983 C16.4515881,12.5452543 16.3306918,12.5424265 16.1500586,12.5424265 C15.6968586,12.5424265 15.5223091,12.6551564 15.5223091,12.7879451 C15.5223091,12.8531815 15.7715636,13.0129655 16.5923028,13.2701693 C16.6154469,13.2774222 16.6490394,13.2877926 16.6891375,13.3000961 L16.557198,12.5548983 Z M15.0458296,19.3092002 C15.1837283,19.3348754 15.3743094,19.3503324 15.6068883,19.3503324 C16.0906105,19.3503324 16.2949901,19.1918339 16.2949901,18.9237571 C16.2949901,18.7728963 16.0153273,18.599914 15.0437202,18.3190706 C15.0113977,18.3097277 14.9522867,18.292883 14.8829161,18.2731753 L15.0458296,19.3092002 Z M10.3,13.6932288 C10.3,11.458531 11.4502196,9.9240942 13.3980821,9.20173096 L13.3980821,7.3 L18.6807435,7.3 L18.6807435,8.92052971 C19.2397217,9.01379484 19.8440884,9.15426084 20.6594853,9.37664179 L21.1753031,9.51731937 L21.1753031,14.3861961 L19.3298043,14.3006431 C20.7515795,15.0997703 21.5172992,16.2603425 21.5172992,18.0788256 C21.5172992,20.3659874 20.3620862,21.9447318 18.419217,22.6547874 L18.419217,24.693346 L13.1365557,24.693346 L13.1365557,22.9287605 C12.2779621,22.8071479 11.4917392,22.5908054 10.8203647,22.2719025 L10.4207045,22.0820639 L10.4207045,17.3513771 L12.6609717,17.4987631 C11.1222612,16.7400965 10.3,15.5923028 10.3,13.6932288 Z"/>
    <path fill="#F2C585" d="M14.8223091,12.7879451 C14.8223091,12.1441878 15.4258316,11.8424265 16.1500586,11.8424265 C16.3311153,11.8424265 16.5725243,11.8424265 16.8139333,11.8826613 C17.0754597,11.9228962 17.1559294,11.9832484 17.2162816,12.2648923 L17.4375732,13.5121721 L20.4753031,13.652994 L20.4753031,10.0519765 C19.3688452,9.75021522 18.684853,9.6093933 17.9807435,9.52892364 L17.9807435,8 L14.0980821,8 L14.0980821,9.70998039 C12.3076321,10.2129158 11,11.4400782 11,13.6932288 C11,18.2598823 16.9949901,16.9522503 16.9949901,18.9237571 C16.9949901,19.647984 16.411585,20.0503324 15.6068883,20.0503324 C15.20454,20.0503324 14.8826613,20.0100975 14.6613698,19.9296279 C14.5004304,19.889393 14.3998434,19.8089234 14.3797259,19.5675144 L14.1785518,18.3001171 L11.1207045,18.098943 L11.1207045,21.6396083 C11.9254012,22.0218392 12.8910371,22.2230133 13.8365557,22.303483 L13.8365557,23.993346 L17.719217,23.993346 L17.719217,22.1425437 C19.5096671,21.6597257 20.8172992,20.3923284 20.8172992,18.0788256 C20.8172992,13.5322895 14.8223091,14.5582777 14.8223091,12.7879451 Z"/>
  </g>
</svg>
