<svg xmlns="http://www.w3.org/2000/svg" xmlns:xlink="http://www.w3.org/1999/xlink" width="64" height="64" viewBox="0 0 64 64">
  <defs>
    <circle id="101-large-a" cx="32" cy="32" r="30"/>
    <circle id="101-large-b" cx="32" cy="32" r="22"/>
  </defs>
  <g fill="none" fill-rule="evenodd">
    <use fill="#F2CF9D" xlink:href="#101-large-a"/>
    <circle cx="32" cy="32" r="29.5" stroke="#8C674D"/>
    <use fill="#FEC" xlink:href="#101-large-b"/>
    <circle cx="32" cy="32" r="22.25" stroke="#8C674D" stroke-width=".5"/>
    <path fill="#8C674D" fill-rule="nonzero" d="M30.1546159,39.0187651 L30.1504497,38.9922703 C30.152502,39.0014715 30.1539126,39.0103251 30.1546159,39.0187651 Z M33.1143959,25.1097966 C32.9031761,25.0905085 32.6613836,25.084853 32.3001171,25.084853 C31.3937172,25.084853 31.0446182,25.3103128 31.0446182,25.5758902 C31.0446182,25.7063631 31.5431273,26.025931 33.1846057,26.5403385 C33.2308938,26.5548443 33.2980788,26.5755853 33.378275,26.6001921 L33.1143959,25.1097966 Z M30.0916591,38.6184003 C30.3674566,38.6697508 30.7486187,38.7006647 31.2137767,38.7006647 C32.181221,38.7006647 32.5899801,38.3836679 32.5899801,37.8475141 C32.5899801,37.5457927 32.0306546,37.1998279 30.0874404,36.6381411 C30.0227954,36.6194554 29.9045735,36.5857661 29.7658322,36.5463507 L30.0916591,38.6184003 Z M20.6,27.3864576 C20.6,22.917062 22.9004393,19.8481884 26.7961642,18.4034619 L26.7961642,14.6 L37.3614869,14.6 L37.3614869,17.8410594 C38.4794434,18.0275897 39.6881769,18.3085217 41.3189705,18.7532836 L42.3506062,19.0346387 L42.3506062,28.7723921 L38.6596087,28.6012863 C41.503159,30.1995405 43.0345983,32.520685 43.0345983,36.1576511 C43.0345983,40.7319748 40.7241723,43.8894636 36.8384341,45.3095748 L36.8384341,49.3866919 L26.2731114,49.3866919 L26.2731114,45.857521 C24.5559241,45.6142958 22.9834784,45.1816108 21.6407295,44.543805 L20.841409,44.1641278 L20.841409,34.7027542 L25.3219435,34.9975262 C22.2445224,33.4801931 20.6,31.1846055 20.6,27.3864576 Z"/>
    <path fill="#F2C585" d="M29.6446182,25.5758902 C29.6446182,24.2883755 30.8516632,23.684853 32.3001171,23.684853 C32.6622306,23.684853 33.1450486,23.684853 33.6278666,23.7653227 C34.1509194,23.8457924 34.3118588,23.9664969 34.4325633,24.5297845 L34.8751464,27.0243441 L40.9506062,27.305988 L40.9506062,20.1039529 C38.7376904,19.5004304 37.3697061,19.2187866 35.9614869,19.0578473 L35.9614869,16 L28.1961642,16 L28.1961642,19.4199608 C24.6152641,20.4258316 22,22.8801564 22,27.3864576 C22,36.5197646 33.9899801,33.9045005 33.9899801,37.8475141 C33.9899801,39.2959681 32.82317,40.1006647 31.2137767,40.1006647 C30.40908,40.1006647 29.7653227,40.0201951 29.3227395,39.8592557 C29.0008609,39.7787861 28.7996867,39.6178467 28.7594519,39.1350288 L28.3571036,36.6002343 L22.241409,36.197886 L22.241409,43.2792165 C23.8508023,44.0436783 25.7820743,44.4460267 27.6731114,44.606966 L27.6731114,47.9866919 L35.4384341,47.9866919 L35.4384341,44.2850873 C39.0193342,43.3194513 41.6345983,40.7846569 41.6345983,36.1576511 C41.6345983,27.064579 29.6446182,29.1165554 29.6446182,25.5758902 Z"/>
  </g>
</svg>
