<svg xmlns="http://www.w3.org/2000/svg" width="18" height="18" viewBox="0 0 18 18">
  <path fill="#FFF" fill-rule="evenodd" d="M2,14.25 C2,13.0073593 3.00735931,12 4.25,12 L4.25,12 L13.75,12 C14.9926407,12 16,13.0073593 16,14.25 L16,15.75 C16,16.9926407 14.9926407,18 13.75,18 L4.25,18 C3.00735931,18 2,16.9926407 2,15.75 L2,14.25 Z M2,8.25 C2,7.00735931 3.00735931,6 4.25,6 L4.25,6 L13.75,6 C14.9926407,6 16,7.00735931 16,8.25 L16,9.75 C16,10.9926407 14.9926407,12 13.75,12 L4.25,12 C3.00735931,12 2,10.9926407 2,9.75 L2,8.25 Z M2,2.25 L2,2.25 C2,1.00735931 3.00735931,2.28269391e-16 4.25,0 L4.25,0 L13.75,0 C14.9926407,-2.28269391e-16 16,1.00735931 16,2.25 L16,2.25 L16,3.75 C16,4.99264069 14.9926407,6 13.75,6 L4.25,6 C3.00735931,6 2,4.99264069 2,3.75 L2,3.75 L2,2.25 Z M4.5,16 L13.5,16 C13.7761424,16 14,15.7761424 14,15.5 C14,15.2238576 13.7761424,15 13.5,15 L4.5,15 C4.22385763,15 4,15.2238576 4,15.5 C4,15.7761424 4.22385763,16 4.5,16 Z M4.5,10 L13.5,10 C13.7761424,10 14,9.77614237 14,9.5 C14,9.22385763 13.7761424,9 13.5,9 L4.5,9 C4.22385763,9 4,9.22385763 4,9.5 C4,9.77614237 4.22385763,10 4.5,10 Z M4.5,4 L13.5,4 C13.7761424,4 14,3.77614237 14,3.5 C14,3.22385763 13.7761424,3 13.5,3 L4.5,3 C4.22385763,3 4,3.22385763 4,3.5 C4,3.77614237 4.22385763,4 4.5,4 Z"/>
</svg>
