<svg xmlns="http://www.w3.org/2000/svg" xmlns:xlink="http://www.w3.org/1999/xlink" width="18" height="18" viewBox="0 0 18 18">
  <defs>
    <path id="102-mono-black-a" d="M2,8.25 C2,7.00735931 3.00735931,6 4.25,6 L4.25,6 L13.75,6 C14.9926407,6 16,7.00735931 16,8.25 L16,9.75 C16,10.9926407 14.9926407,12 13.75,12 L4.25,12 C3.00735931,12 2,10.9926407 2,9.75 L2,8.25 Z M2,2.25 L2,2.25 C2,1.00735931 3.00735931,2.28269391e-16 4.25,0 L4.25,0 L13.75,0 C14.9926407,-2.28269391e-16 16,1.00735931 16,2.25 L16,2.25 L16,3.75 C16,4.99264069 14.9926407,6 13.75,6 L4.25,6 C3.00735931,6 2,4.99264069 2,3.75 L2,3.75 L2,2.25 Z M2,14.25 C2,13.0073593 3.00735931,12 4.25,12 L4.25,12 L13.75,12 C14.9926407,12 16,13.0073593 16,14.25 L16,15.75 C16,16.9926407 14.9926407,18 13.75,18 L4.25,18 C3.00735931,18 2,16.9926407 2,15.75 L2,14.25 Z"/>
  </defs>
  <g fill="none" fill-rule="evenodd">
    <use fill="#000" fill-opacity=".2" xlink:href="#102-mono-black-a"/>
    <path stroke="#000" d="M2.5,8.25 L2.5,9.75 C2.5,10.7164983 3.28350169,11.5 4.25,11.5 L13.75,11.5 C14.7164983,11.5 15.5,10.7164983 15.5,9.75 L15.5,8.25 C15.5,7.28350169 14.7164983,6.5 13.75,6.5 L4.25,6.5 C3.28350169,6.5 2.5,7.28350169 2.5,8.25 Z M2.5,2.25 L2.5,3.75 C2.5,4.71649831 3.28350169,5.5 4.25,5.5 L13.75,5.5 C14.7164983,5.5 15.5,4.71649831 15.5,3.75 L15.5,2.25 C15.5,1.28350169 14.7164983,0.5 13.75,0.5 L4.25,0.5 C3.28350169,0.5 2.5,1.28350169 2.5,2.25 Z M2.5,14.25 L2.5,15.75 C2.5,16.7164983 3.28350169,17.5 4.25,17.5 L13.75,17.5 C14.7164983,17.5 15.5,16.7164983 15.5,15.75 L15.5,14.25 C15.5,13.2835017 14.7164983,12.5 13.75,12.5 L4.25,12.5 C3.28350169,12.5 2.5,13.2835017 2.5,14.25 Z"/>
    <rect width="10" height="1" x="4" y="3" fill="#000" rx=".5"/>
    <rect width="10" height="1" x="4" y="9" fill="#000" rx=".5"/>
    <rect width="10" height="1" x="4" y="15" fill="#000" rx=".5"/>
  </g>
</svg>
