<svg xmlns="http://www.w3.org/2000/svg" xmlns:xlink="http://www.w3.org/1999/xlink" width="16" height="16" viewBox="0 0 16 16">
  <defs>
    <path id="103-mini-a" d="M2,2 L14,2 C15.1045695,2 16,2.8954305 16,4 L16,5 L0,5 L0,4 C-1.3527075e-16,2.8954305 0.8954305,2 2,2 Z"/>
    <filter id="103-mini-b" width="103.1%" height="116.7%" x="-1.6%" y="-8.3%" filterUnits="objectBoundingBox">
      <feOffset dy="-.5" in="SourceAlpha" result="shadowOffsetInner1"/>
      <feComposite in="shadowOffsetInner1" in2="SourceAlpha" k2="-1" k3="1" operator="arithmetic" result="shadowInnerInner1"/>
      <feColorMatrix in="shadowInnerInner1" values="0 0 0 0 0   0 0 0 0 0   0 0 0 0 0  0 0 0 0.4 0"/>
    </filter>
    <path id="103-mini-c" d="M8,11.5 C8,11.2238576 8.21484375,11 8.49769878,11 L12.5023012,11 C12.7771727,11 13,11.2319336 13,11.5 C13,11.7761424 12.7851562,12 12.5023012,12 L8.49769878,12 C8.22282734,12 8,11.7680664 8,11.5 Z M8,9.5 C8,9.22385763 8.21505737,9 8.49047852,9 L11.5095215,9 C11.7804053,9 12,9.23193359 12,9.5 C12,9.77614237 11.7849426,10 11.5095215,10 L8.49047852,10 C8.21959471,10 8,9.76806641 8,9.5 Z M8,6.5 C8,6.22385763 8.22788048,6 8.49100518,6 L13.5089948,6 C13.7801695,6 14,6.23193359 14,6.5 C14,6.77614237 13.7721195,7 13.5089948,7 L8.49100518,7 C8.21983051,7 8,6.76806641 8,6.5 Z"/>
    <rect id="103-mini-d" width="4" height="6" x="2" y="6" rx="1"/>
  </defs>
  <g fill="none" fill-rule="evenodd">
    <rect width="16" height="12" y="2" fill="#EDEFF2" rx="2"/>
    <use fill="#499DF2" xlink:href="#103-mini-a"/>
    <use fill="#000" filter="url(#103-mini-b)" xlink:href="#103-mini-a"/>
    <use fill="#B8BDCC" xlink:href="#103-mini-c"/>
    <path stroke="#5C5E66" stroke-width=".5" d="M8.25,11.5 C8.25,11.6336558 8.36453092,11.75 8.49769878,11.75 L12.5023012,11.75 C12.6434384,11.75 12.75,11.6417462 12.75,11.5 C12.75,11.3663442 12.6354691,11.25 12.5023012,11.25 L8.49769878,11.25 C8.35656157,11.25 8.25,11.3582538 8.25,11.5 Z M8.25,9.5 C8.25,9.63445236 8.36209663,9.75 8.49047852,9.75 L11.5095215,9.75 C11.6438496,9.75 11.75,9.64109304 11.75,9.5 C11.75,9.36554764 11.6379034,9.25 11.5095215,9.25 L8.49047852,9.25 C8.35615039,9.25 8.25,9.35890696 8.25,9.5 Z M8.25,6.5 C8.25,6.63439433 8.36227335,6.75 8.49100518,6.75 L13.5089948,6.75 C13.6364414,6.75 13.75,6.63565598 13.75,6.5 C13.75,6.36560567 13.6377267,6.25 13.5089948,6.25 L8.49100518,6.25 C8.36355863,6.25 8.25,6.36434402 8.25,6.5 Z"/>
    <g>
      <use fill="#499DF2" xlink:href="#103-mini-d"/>
      <rect width="3.5" height="5.5" x="2.25" y="6.25" stroke="#2A5B8C" stroke-width=".5" rx="1"/>
    </g>
    <rect width="15" height="11" x=".5" y="2.5" stroke="#000" stroke-opacity=".4" rx="2"/>
  </g>
</svg>
