<svg xmlns="http://www.w3.org/2000/svg" width="18" height="18" viewBox="0 0 18 18">
  <path fill="#FFF" fill-rule="evenodd" d="M2.25,2 L15.75,2 C16.9926407,2 18,3.00735931 18,4.25 L18,13.75 C18,14.9926407 16.9926407,16 15.75,16 L2.25,16 C1.00735931,16 1.52179594e-16,14.9926407 0,13.75 L0,4.25 L0,4.25 C-1.52179594e-16,3.00735931 1.00735931,2 2.25,2 L2.25,2 Z M2.25,3 L2.25,3 C1.55964406,3 1,3.55964406 1,4.25 L1,4.25 L1,6 L17,6 L17,4.25 C17,3.55964406 16.4403559,3 15.75,3 L2.25,3 Z M9,12.5 C9,12.7680664 9.21959471,13 9.49047852,13 L12.5095215,13 C12.7849426,13 13,12.7761424 13,12.5 C13,12.2319336 12.7804053,12 12.5095215,12 L9.49047852,12 C9.21505737,12 9,12.2238576 9,12.5 Z M9,10.5 C9,10.7680664 9.2217932,11 9.49538898,11 L11.504611,11 C11.7842474,11 12,10.7761424 12,10.5 C12,10.2319336 11.7782068,10 11.504611,10 L9.49538898,10 C9.2157526,10 9,10.2238576 9,10.5 Z M9,8.5 C9,8.76806641 9.21983051,9 9.49100518,9 L14.5089948,9 C14.7721195,9 15,8.77614237 15,8.5 C15,8.23193359 14.7801695,8 14.5089948,8 L9.49100518,8 C9.22788048,8 9,8.22385763 9,8.5 Z M3,8.99980749 L3,12.0001925 C3,12.5562834 3.45190985,13 4.0093689,13 L5.9906311,13 C6.55664682,13 7,12.5523709 7,12.0001925 L7,8.99980749 C7,8.44371665 6.54809015,8 5.9906311,8 L4.0093689,8 C3.44335318,8 3,8.44762906 3,8.99980749 Z"/>
</svg>
