<svg xmlns="http://www.w3.org/2000/svg" xmlns:xlink="http://www.w3.org/1999/xlink" width="18" height="18" viewBox="0 0 18 18">
  <defs>
    <rect id="103-mono-black-a" width="18" height="14" y="2" rx="2.25"/>
  </defs>
  <g fill="none" fill-rule="evenodd">
    <use fill="#000" fill-opacity=".2" xlink:href="#103-mono-black-a"/>
    <rect width="17" height="13" x=".5" y="2.5" stroke="#000" rx="2.25"/>
    <path fill="#000" d="M3 2L15 2 15 2C16.6568542 2 18 3.34314575 18 5L18 6 0 6 0 5 0 5C-2.02906125e-16 3.34314575 1.34314575 2 3 2zM9 12.5C9 12.2238576 9.21505737 12 9.49047852 12L12.5095215 12C12.7804053 12 13 12.2319336 13 12.5 13 12.7761424 12.7849426 13 12.5095215 13L9.49047852 13C9.21959471 13 9 12.7680664 9 12.5zM9 10.5C9 10.2238576 9.2157526 10 9.49538898 10L11.504611 10C11.7782068 10 12 10.2319336 12 10.5 12 10.7761424 11.7842474 11 11.504611 11L9.49538898 11C9.2217932 11 9 10.7680664 9 10.5zM9 8.5C9 8.22385763 9.22788048 8 9.49100518 8L14.5089948 8C14.7801695 8 15 8.23193359 15 8.5 15 8.77614237 14.7721195 9 14.5089948 9L9.49100518 9C9.21983051 9 9 8.76806641 9 8.5z"/>
    <rect width="4" height="5" x="3" y="8" fill="#000" rx="1"/>
  </g>
</svg>
