<svg xmlns="http://www.w3.org/2000/svg" xmlns:xlink="http://www.w3.org/1999/xlink" width="64" height="64" viewBox="0 0 64 64">
  <defs>
    <rect id="103-large-a" width="64" height="48" rx="6"/>
    <path id="103-large-c" d="M32,38 C32,36.8954305 32.8982124,36 33.9907951,36 L50.0092049,36 C51.1086907,36 52,36.8877296 52,38 C52,39.1045695 51.1017876,40 50.0092049,40 L33.9907951,40 C32.8913093,40 32,39.1122704 32,38 Z M32,32 C32,30.8954305 32.9019504,30 34.0085302,30 L41.9914698,30 C43.1007504,30 44,30.8877296 44,32 C44,33.1045695 43.0980496,34 41.9914698,34 L34.0085302,34 C32.8992496,34 32,33.1122704 32,32 Z M32,26 C32,24.8954305 32.8945138,24 33.9940603,24 L46.0059397,24 C47.1072288,24 48,24.8877296 48,26 C48,27.1045695 47.1054862,28 46.0059397,28 L33.9940603,28 C32.8927712,28 32,27.1122704 32,26 Z M32,18 C32,16.8954305 32.8970262,16 34.0049466,16 L53.9950534,16 C55.1023548,16 56,16.8877296 56,18 C56,19.1045695 55.1029738,20 53.9950534,20 L34.0049466,20 C32.8976452,20 32,19.1122704 32,18 Z"/>
    <rect id="103-large-d" width="16" height="24" rx="4"/>
    <path id="103-large-f" d="M5.82084939,15.1468912 C3.76187434,16.8494258 0.109790022,16.6545772 0.109790022,19.4872993 L0,25.2111816 L15.9663706,25.2111816 L16,19.4813649 C16,18.130283 15.5532568,17.4774909 14.4685446,16.8959125 C13.7540852,16.5128092 10.9542748,15.4996627 10.4102701,15.0199594 C9.86593583,14.5402561 9.83296586,13.8185582 9.82867976,13.3494051 C10.1788209,12.934981 10.235859,12.6995802 10.398401,11.7998481 L10.5256651,11.8196296 C10.6885368,11.845016 10.806899,11.7810556 10.880422,11.6643443 C10.9826289,11.5031244 10.9246018,11.4078431 10.9246018,11.2268417 C10.9246018,10.9436354 10.9921902,10.6868046 11.10231,10.4985499 C11.2750726,10.2024856 11.377939,9.71684781 10.9503184,9.59024571 C10.6938119,9.51441632 10.7831606,9.31561145 10.9908714,8.90349523 C11.17913,8.53061246 11.6196089,8.14816861 11.6196089,7.69187352 C11.6196089,7.27514159 11.5150941,7.26722896 11.4719034,6.95698786 C11.4343176,6.68499115 11.4422304,6.66356111 11.3228791,6.40969751 C11.2869418,6.39914734 11.1511055,6.49245045 11.1557213,6.51915558 C11.1557213,6.08363115 11.0188959,6.0908844 10.8187682,5.82745971 C10.8164603,5.83042694 10.8425065,5.95274304 10.8425065,5.95307273 C10.9110841,6.16638409 10.6684251,6.344748 10.6291908,6.2788094 C10.5484144,6.14363528 10.429063,5.94746795 10.3535618,5.81097506 C10.1900307,5.51622953 9.90352161,5.24324374 9.58668013,5.10708054 C9.33116281,4.99696309 9.15675163,4.98311598 8.94310618,4.91124291 C8.69187496,4.8271712 8.24480208,4.69397524 7.91477261,4.64287282 C7.37901049,4.55913081 7.48055802,4.67386396 7.10074389,4.94520129 C6.88347174,5.10081638 6.52409899,5.1562048 6.39815368,5.12818089 C6.39485668,5.10609146 6.55212347,4.93695896 6.56992726,4.91453984 C6.50431701,4.878933 5.90657133,5.0998273 5.91942962,5.17301914 C5.91942962,4.99894124 6.12087618,4.93168388 6.25737188,4.78233296 C6.24879969,4.77442032 6.16967174,4.7757391 6.16076985,4.77936572 C5.73974325,4.95278423 5.378722,4.90860537 5.14067877,5.40874962 C4.93857281,5.83339418 4.89406334,5.97878879 5.12749078,6.37244221 C5.2376105,6.55772966 4.98868718,6.7674144 4.87757836,6.81324172 C4.59766325,6.92929365 4.41369078,7.08424935 4.34082713,6.62795427 C4.32401245,6.63454813 4.04838344,6.89269773 4.1113561,6.99523225 C4.31906695,7.33382694 4.36225762,7.36646655 4.18224155,7.71890834 C4.05332894,7.97145317 3.97486039,8.06310782 4.13608358,8.26817685 C4.31972635,8.50159948 4.61843434,8.63413606 4.73844505,8.79568562 C4.93989161,9.06669325 5.15122916,9.64827167 4.85252117,9.76102667 C4.5294154,9.88301308 4.5297451,10.199848 4.70679388,10.5222878 C4.8086711,10.7082346 4.87098436,10.9555043 4.87098436,11.2268417 C4.87098436,11.3191557 4.86735766,11.3346513 4.88878815,11.4259762 C4.92802242,11.6781914 5.06352902,11.8338064 5.32498094,11.8130358 L5.39883369,11.78699 C5.47202704,12.7272744 5.73248985,13.173349 6.13076717,13.5455724 C6.11362278,13.9807671 6.19439923,14.7235654 5.82084939,15.1468912 Z"/>
    <path id="103-large-g" d="M8,0 L56,0 L56,0 C60.418278,-8.11624501e-16 64,3.581722 64,8 L64,12 L0,12 L0,8 L0,8 C-5.41083001e-16,3.581722 3.581722,8.11624501e-16 8,0 Z"/>
    <filter id="103-large-h" width="100.8%" height="104.2%" x="-.4%" y="-2.1%" filterUnits="objectBoundingBox">
      <feOffset dy="-.5" in="SourceAlpha" result="shadowOffsetInner1"/>
      <feComposite in="shadowOffsetInner1" in2="SourceAlpha" k2="-1" k3="1" operator="arithmetic" result="shadowInnerInner1"/>
      <feColorMatrix in="shadowInnerInner1" values="0 0 0 0 0   0 0 0 0 0   0 0 0 0 0  0 0 0 0.4 0"/>
    </filter>
  </defs>
  <g fill="none" fill-rule="evenodd" transform="translate(0 8)">
    <mask id="103-large-b" fill="#fff">
      <use xlink:href="#103-large-a"/>
    </mask>
    <use fill="#EDEFF2" xlink:href="#103-large-a"/>
    <g mask="url(#103-large-b)">
      <use fill="#B8BDCC" xlink:href="#103-large-c"/>
      <path stroke="#5C5E66" stroke-width=".5" d="M32.25,38 C32.25,38.9716485 33.0268353,39.75 33.9907951,39.75 L50.0092049,39.75 C50.9659761,39.75 51.75,38.964233 51.75,38 C51.75,37.0283515 50.9731647,36.25 50.0092049,36.25 L33.9907951,36.25 C33.0340239,36.25 32.25,37.035767 32.25,38 Z M32.25,32 C32.25,32.9711508 33.0342569,33.75 34.0085302,33.75 L41.9914698,33.75 C42.9612005,33.75 43.75,32.9652794 43.75,32 C43.75,31.0288492 42.9657431,30.25 41.9914698,30.25 L34.0085302,30.25 C33.0387995,30.25 32.25,31.0347206 32.25,32 Z M32.25,26 C32.25,26.9715569 33.028201,27.75 33.9940603,27.75 L46.0059397,27.75 C46.967884,27.75 47.75,26.9660276 47.75,26 C47.75,25.0284431 46.971799,24.25 46.0059397,24.25 L33.9940603,24.25 C33.032116,24.25 32.25,25.0339724 32.25,26 Z M32.25,18 C32.25,18.9712514 33.0327565,19.75 34.0049466,19.75 L53.9950534,19.75 C54.964815,19.75 55.75,18.9665851 55.75,18 C55.75,17.0287486 54.9672435,16.25 53.9950534,16.25 L34.0049466,16.25 C33.035185,16.25 32.25,17.0334149 32.25,18 Z"/>
    </g>
    <g mask="url(#103-large-b)">
      <g transform="translate(8 16)">
        <mask id="103-large-e" fill="#fff">
          <use xlink:href="#103-large-d"/>
        </mask>
        <g>
          <use fill="#61AAF2" xlink:href="#103-large-d"/>
          <rect width="15.5" height="23.5" x=".25" y=".25" stroke="#2A5B8C" stroke-width=".5" rx="4"/>
        </g>
        <g mask="url(#103-large-e)">
          <use fill="#2A5B8C" xlink:href="#103-large-f"/>
          <path stroke="#EDEFF2" stroke-width=".5" d="M6.86764862,4.79167085 C6.90050259,4.77636734 6.93048922,4.75963409 6.95541961,4.74177844 C7.04793984,4.67568245 7.24375613,4.49945479 7.2633112,4.484868 C7.43422937,4.35737436 7.6016497,4.34089485 7.95302722,4.39581699 C8.25076346,4.44191906 8.66679069,4.55515051 9.02281954,4.6742919 C9.07583171,4.69212588 9.12659945,4.70632111 9.20461689,4.72591256 C9.21931319,4.72959363 9.21931319,4.72959363 9.23426043,4.73331468 C9.44171991,4.78493461 9.53785132,4.81380977 9.68538896,4.87739256 C10.046835,5.03272464 10.3781331,5.33995977 10.572324,5.68996641 C10.5821581,5.70774463 10.5929772,5.72695834 10.604856,5.74775199 C10.609721,5.7259973 10.6152288,5.70152859 10.6214316,5.67397259 L10.8210988,5.417263 L11.017836,5.67622482 C11.0624759,5.73498358 11.2298808,5.91487583 11.2028369,5.88415894 C11.2785317,5.97013428 11.3303762,6.05715156 11.3627004,6.16317838 C11.373189,6.16471441 11.3834101,6.16691727 11.3933002,6.16982073 L11.5491229,6.30333137 C11.6145912,6.44258425 11.6459822,6.5209224 11.6679983,6.60571214 C11.6793647,6.64948742 11.6875077,6.69243211 11.6958413,6.74891021 C11.7003056,6.77916573 11.706545,6.82593724 11.7195154,6.92251619 C11.7304063,7.00074647 11.743694,7.04991575 11.7719451,7.12878863 C11.777181,7.14334854 11.777181,7.14334854 11.7827413,7.15876822 C11.8451395,7.33224892 11.8696089,7.45911273 11.8696089,7.69187352 C11.8696089,8.00651653 11.7522457,8.23883512 11.4661581,8.63551292 C11.29722,8.86975584 11.261171,8.92281878 11.214119,9.0160143 C11.1230899,9.19662382 11.0763228,9.29799824 11.0557584,9.36146168 C11.59681,9.54481237 11.6108598,10.1230786 11.3181026,10.6247779 C11.2281784,10.7785075 11.1746018,10.9936736 11.1746018,11.2268417 C11.1746018,11.2566799 11.1764818,11.2828224 11.1814233,11.3296337 C11.190295,11.4136747 11.1921968,11.4382114 11.1906828,11.4867767 C11.1872934,11.5955019 11.1565711,11.6956651 11.091949,11.7975971 C10.9815726,11.9728099 10.8072627,12.0726314 10.6018784,12.0750737 C10.4564916,12.8442733 10.3660087,13.0849159 10.0801223,13.4377609 C10.0954626,14.0963113 10.2149729,14.514625 10.5756173,14.8324485 C10.765707,15.0000697 11.3343614,15.2793739 12.2607032,15.6740475 C12.358968,15.7159139 12.4163781,15.7401634 12.5732417,15.806099 C12.7445549,15.8779636 13.5514342,16.2127329 13.7502001,16.2966237 C14.1598574,16.4695229 14.4215545,16.5870428 14.5866761,16.6755833 C15.7874902,17.3194108 16.25,18.0765238 16.2499957,19.4828321 L16.2149076,25.4611816 L-0.254841245,25.4611816 L-0.249954024,25.2063872 L-0.140209978,19.4872993 C-0.140209978,17.8734315 0.692691959,17.1893939 2.94138681,16.3182859 C3.2499897,16.1992879 3.40918497,16.1377404 3.558984,16.0785778 C4.52628337,15.6965461 5.1332372,15.3870161 5.64528181,14.9676046 C5.76667679,14.8216508 5.83496827,14.6057191 5.86209227,14.3111226 C5.87514531,14.1693521 5.87790802,14.0510419 5.87780467,13.8026915 C5.87777698,13.7361479 5.87787316,13.6881896 5.87827364,13.6487651 C5.4804799,13.2465592 5.26336863,12.7797297 5.17458032,12.0577548 C4.88187608,12.0160771 4.69345796,11.7960194 4.64539959,11.4830902 C4.63205174,11.426209 4.62532072,11.3867261 4.62244977,11.3441021 C4.62052922,11.2975857 4.62052922,11.2975857 4.62087304,11.25696 C4.62095745,11.2426115 4.62095745,11.2426115 4.62098436,11.2268417 C4.62098436,11.0034286 4.57156907,10.7957736 4.48765584,10.6426145 C4.22937955,10.1722439 4.29235543,9.70528944 4.76423287,9.5271353 C4.78421675,9.51959187 4.71284477,9.18031078 4.53776056,8.9447686 C4.52600854,8.9289489 4.5052124,8.90809548 4.47405644,8.88200559 C4.43382926,8.84831948 4.24215844,8.70763774 4.23564231,8.70267131 C4.11109137,8.60774181 4.01852976,8.52307952 3.9395494,8.42269002 C3.84111067,8.29748013 3.7918664,8.17831137 3.79576184,8.0452719 C3.79966532,7.91195796 3.77112247,7.97442974 3.95960195,7.60519111 C4.0337228,7.4600747 4.04872882,7.41063994 4.04486074,7.38835227 C4.03983855,7.35941463 4.02646971,7.33495905 3.89832521,7.12606742 C3.73898463,6.86662291 4.05951395,6.46973543 4.24955688,6.39521033 L4.53872111,6.28181493 L4.5876994,6.58853238 C4.60470638,6.69503547 4.60406915,6.69398479 4.55162682,6.68636171 C4.54336223,6.68516036 4.56725908,6.67628433 4.72746979,6.60561661 C4.75380932,6.59408031 4.75380932,6.59408031 4.78225463,6.58212836 C4.83701439,6.55954245 4.89946764,6.4781031 4.91245416,6.49995398 C4.64811844,6.05417665 4.65934666,5.83834271 4.9149425,5.30131063 C5.09627713,4.92031482 5.3113482,4.77924663 5.74621281,4.65244539 C5.94269214,4.5951544 5.98045135,4.5832612 6.06644729,4.54784195 C6.15792885,4.51057245 6.33332448,4.51221778 6.42694002,4.59863035 L6.50404789,4.66980538 C6.58100678,4.66414559 6.64614539,4.67146052 6.68917396,4.69481223 L6.86764862,4.79167085 Z"/>
        </g>
      </g>
    </g>
    <g mask="url(#103-large-b)">
      <use fill="#61AAF2" xlink:href="#103-large-g"/>
      <use fill="#000" filter="url(#103-large-h)" xlink:href="#103-large-g"/>
    </g>
    <rect width="63" height="47" x=".5" y=".5" stroke="#000" stroke-opacity=".4" mask="url(#103-large-b)" rx="6" style="mix-blend-mode:multiply"/>
  </g>
</svg>
