<svg xmlns="http://www.w3.org/2000/svg" width="16" height="16" viewBox="0 0 16 16">
  <g fill="none" fill-rule="evenodd" transform="translate(.3 .3)">
    <path fill="#79BF73" d="M14.9519419,3.90708596 C13.8896311,3.81123122 12.7343454,5.07591479 11.4562053,6.45901891 C10.8652911,6.99600519 10.3003129,6.34698867 9.96784783,5.77545474 C10.1151214,5.40042304 10.3951079,5.27860764 10.7638226,5.3195456 C10.6001685,4.23179392 9.30049097,2.57190921 7.33724843,0.352272727 C6.74936771,0.786215155 6.28570636,1.75993963 5.6758332,3.31438411 C4.77550813,3.29541286 3.91507279,3.62990599 3.07981502,4.18047169 C1.82791422,5.17256832 0.109470308,7.11063149 0.287836596,7.91720925 C0.272517722,8.49832865 1.32557651,9.87843731 2.54153104,10.8028365 C2.54153096,10.8028364 2.54153096,10.8028364 3.2533278,11.2753206 C3.77295612,11.568676 4.29091604,11.7408152 4.74138192,11.6996775 C5.54949041,12.5795442 5.98569912,13.8342429 6.33348305,15.1178977 C6.79380761,14.2995378 7.01069859,13.2952597 6.9911329,12.1100556 C6.78774073,12.0633265 6.59056711,11.9644762 6.40264548,11.7907395 L9.24088387,11.3352298 C9.82466945,12.2825942 10.4004164,13.1674533 11.0060428,13.340591 C10.8261598,12.3227334 10.8123576,11.3050755 11.0753569,10.2870182 C10.7821749,10.5086823 10.5026433,10.4617534 10.2444976,10.1506249 L10.6600789,9.60345401 C11.1117582,9.11060085 11.1713653,9.40695177 11.6291114,9.69451602 C12.9257554,10.6165189 14.1133473,11.4448636 15.1249996,11.4871995 C14.6259987,10.5300499 13.905405,9.23241626 13.6020609,7.96313965 C13.6970076,6.91412926 14.4852471,4.906172 14.9519419,3.90708596 Z"/>
    <path fill="#CBF2AA" stroke="#41663D" stroke-linejoin="round" stroke-width=".5" d="M6.60564171,8.34586469 C8.23115369,8.4139927 10.4357882,8.62635552 11.2913413,9.26255382 C11.1944958,9.27435297 10.8203503,9.42857271 10.6600789,9.60345401 L10.2444976,10.1506249 C10.5026433,10.4617534 10.7821749,10.5086823 11.0753569,10.2870182 C10.8123576,11.3050755 10.8261598,12.3227334 11.0060428,13.340591 C10.4004164,13.1674533 9.82466945,12.2825942 9.24088387,11.3352298 L6.40264548,11.7907395 C6.59056711,11.9644762 6.78774073,12.0633265 6.9911329,12.1100556 C7.01069859,13.2952597 6.79380761,14.2995378 6.33348305,15.1178977 C5.98688698,13.8386273 5.55246914,12.5881155 4.74964927,11.7087062 C5.3043895,11.2556427 6.29712224,10.4943815 6.60564171,8.34586469 Z"/>
    <path fill="#41663D" d="M3.60656197,7.03403438 C3.15548941,7.03403438 2.78980818,6.64602978 2.78980818,6.16745861 C2.78980818,5.68888743 3.15548941,5.3010437 3.60656197,5.3010437 C4.05808956,5.3010437 4.42361911,5.68888743 4.42361911,6.16745861 C4.42361911,6.64602978 4.05808956,7.03403438 3.60656197,7.03403438 L3.60656197,7.03403438 Z"/>
    <path stroke="#41663D" stroke-linejoin="round" d="M14.9519419,3.90708596 C13.8896311,3.81123122 12.7343454,5.07591479 11.4562053,6.45901891 C10.8652911,6.99600519 10.3003129,6.34698867 9.96784783,5.77545474 C10.1151214,5.40042304 10.3951079,5.27860764 10.7638226,5.3195456 C10.6001685,4.23179392 9.30049097,2.57190921 7.33724843,0.352272727 C6.74936771,0.786215155 6.28570636,1.75993963 5.6758332,3.31438411 C4.77550813,3.29541286 3.91507279,3.62990599 3.07981502,4.18047169 C1.82791422,5.17256832 0.109470308,7.11063149 0.287836596,7.91720925 C0.272517722,8.49832865 1.32557651,9.87843731 2.54153104,10.8028365 C2.54153096,10.8028364 2.54153096,10.8028364 3.2533278,11.2753206 C3.77295612,11.568676 4.29091604,11.7408152 4.74138192,11.6996775 C5.54949041,12.5795442 5.98569912,13.8342429 6.33348305,15.1178977 C6.79380761,14.2995378 7.01069859,13.2952597 6.9911329,12.1100556 C6.78774073,12.0633265 6.59056711,11.9644762 6.40264548,11.7907395 L9.24088387,11.3352298 C9.82466945,12.2825942 10.4004164,13.1674533 11.0060428,13.340591 C10.8261598,12.3227334 10.8123576,11.3050755 11.0753569,10.2870182 C10.7821749,10.5086823 10.5026433,10.4617534 10.2444976,10.1506249 L10.6600789,9.60345401 C11.1117582,9.11060085 11.1713653,9.40695177 11.6291114,9.69451602 C12.9257554,10.6165189 14.1133473,11.4448636 15.1249996,11.4871995 C14.6259987,10.5300499 13.905405,9.23241626 13.6020609,7.96313965 C13.6970076,6.91412926 14.4852471,4.906172 14.9519419,3.90708596 Z"/>
  </g>
</svg>
