<svg xmlns="http://www.w3.org/2000/svg" width="18" height="18" viewBox="0 0 18 18">
  <g fill-rule="evenodd">
    <path fill-opacity=".2" d="M17.790233,4.32474974 C16.5025835,4.20813383 15.1022372,5.74673504 13.5529765,7.42940549 C12.8367168,8.08269756 12.1518947,7.29311064 11.7489068,6.59778826 C11.9274201,6.1415285 12.2667978,5.99332911 12.7137246,6.04313382 C12.515356,4.71978615 10.9399893,2.70038725 8.56030135,0 C7.84771863,0.527929958 7.28570487,1.71255328 6.54646465,3.60367468 C5.45516151,3.58059444 4.41220956,3.98753539 3.39977587,4.65734805 C1.88232032,5.86432275 -0.200642048,8.22215075 0.0155595184,9.20342507 C-0.00300881338,9.91040905 1.27342611,11.5894353 2.74731043,12.71405 C2.74731033,12.7140499 2.74731033,12.7140499 3.6100944,13.2888692 C4.23994692,13.6457625 4.86777715,13.8551853 5.41379641,13.8051376 C6.39332187,14.8755745 6.92205972,16.4020282 7.343616,17.9637097 C7.90158518,16.9681013 8.16448334,15.7463067 8.14076736,14.3043995 C7.89423139,14.2475492 7.65523306,14.1272891 7.42744926,13.9159227 L10.8677383,13.3617542 C11.5753572,14.5143081 12.2732323,15.5908188 13.0073249,15.8014563 C12.7892849,14.563141 12.772555,13.3250688 13.091342,12.0865106 C12.7359699,12.3561849 12.3971438,12.2990917 12.0842398,11.9205759 L12.5879747,11.2548934 C13.1354648,10.6552932 13.2077158,11.0158307 13.7625596,11.3656785 C15.3342494,12.4873778 16.7737547,13.4951336 18,13.546639 C17.3951504,12.3821805 16.5217034,10.8034926 16.1540137,9.25930353 C16.2691006,7.98308813 17.2245423,5.54022769 17.790233,4.32474974 Z"/>
    <path d="M17.790233,4.32474974 C17.2245423,5.54022769 16.2691006,7.98308813 16.1540137,9.25930353 C16.5217034,10.8034926 17.3951504,12.3821805 18,13.546639 C16.7737547,13.4951336 15.3342494,12.4873778 13.7625596,11.3656785 C13.2077158,11.0158307 13.1354648,10.6552932 12.5879747,11.2548934 L12.0842398,11.9205759 C12.3971438,12.2990917 12.7359699,12.3561849 13.091342,12.0865106 C12.772555,13.3250688 12.7892849,14.563141 13.0073249,15.8014563 C12.2732323,15.5908188 11.5753572,14.5143081 10.8677383,13.3617542 L7.42744926,13.9159227 C7.65523306,14.1272891 7.89423139,14.2475492 8.14076736,14.3043995 C8.16448334,15.7463067 7.90158518,16.9681013 7.343616,17.9637097 C6.92205972,16.4020282 6.39332187,14.8755745 5.41379641,13.8051376 C4.86777715,13.8551853 4.23994692,13.6457625 3.6100944,13.2888692 C2.74731033,12.7140499 2.74731033,12.7140499 2.74731043,12.71405 C1.27342611,11.5894353 -0.00300881338,9.91040905 0.0155595184,9.20342507 C-0.200642048,8.22215075 1.88232032,5.86432275 3.39977587,4.65734805 C4.41220956,3.98753539 5.45516151,3.58059444 6.54646465,3.60367468 C7.28570487,1.71255328 7.84771863,0.527929958 8.56030135,0 C10.9399893,2.70038725 12.515356,4.71978615 12.7137246,6.04313382 C12.2667978,5.99332911 11.9274201,6.1415285 11.7489068,6.59778826 C12.1518947,7.29311064 12.8367168,8.08269756 13.5529765,7.42940549 C15.1022372,5.74673504 16.5025835,4.20813383 17.790233,4.32474974 Z M14.2268609,8.16824226 C13.5470467,8.78829292 12.7022936,8.82273478 11.9876662,8.35724372 C11.5523986,8.07372089 11.19515,7.63658472 10.8837141,7.0992279 L10.6420457,6.68224907 L10.817648,6.23342973 C11.1018942,5.50692896 11.443152,5.4399724 11.4431519,5.39970083 C10.9484259,4.41621509 9.94116172,3.07641602 8.57393011,1.53122139 C8.27431883,2.04372825 7.92610784,2.82097804 7.47783503,3.96774778 L7.22356574,4.61821847 L6.52532014,4.60345111 C5.71754672,4.58636731 4.87595566,4.87976716 4.02227031,5.43997227 C2.52969648,6.62715621 0.919830382,8.6600809 0.992136855,8.98825838 L1.01842219,9.10755964 L1.01521479,9.22968017 C1.00744972,9.52533332 2.14202682,10.9943419 3.3017635,11.881835 C3.30176339,11.8818349 3.30176339,11.8818349 4.10308277,12.4188333 C4.61250107,12.707485 6.01849373,13.0552979 7.26841731,12.9286493 C8.51834089,12.8020007 10.7087063,12.3744808 10.7087063,12.3744808 L11.2868191,11.3171521 L11.849507,10.5806045 C12.3525084,10.0297274 12.8651519,9.77666452 13.5128652,10.0139173 C13.7817007,10.1123899 14.3157729,10.5326206 14.2852043,10.5129673 C14.2905477,10.5163918 14.2905477,10.5163918 14.3434767,10.5517157 C15.8594686,11.633664 15.4335323,11.317152 15.9403979,11.6571707 C15.6632896,11.0334391 15.4478436,10.4587358 15.2857352,9.88997275 C15.2474272,9.75556766 15.2125591,9.62259159 15.1812111,9.49093937 L15.1433907,9.33210494 L15.1580551,9.16948972 C15.2186366,8.49769257 15.4830414,7.51667302 15.8416851,6.4816853 C15.3778683,6.96069336 15.8966552,6.35922122 14.2268609,8.16824226 Z"/>
    <path d="M4.49981433,8.5 C3.94764203,8.5 3.5,8.05221387 3.5,7.49990718 C3.5,6.94760048 3.94764203,6.5 4.49981433,6.5 C5.05254363,6.5 5.5,6.94760048 5.5,7.49990718 C5.5,8.05221387 5.05254363,8.5 4.49981433,8.5 L4.49981433,8.5 Z"/>
  </g>
</svg>
