<svg xmlns="http://www.w3.org/2000/svg" xmlns:xlink="http://www.w3.org/1999/xlink" width="64" height="64" viewBox="0 0 64 64">
  <defs>
    <rect id="104-large-a" width="64" height="48" y="8" rx="8"/>
  </defs>
  <g fill="none" fill-rule="evenodd">
    <use fill="#C2DAF2" xlink:href="#104-large-a"/>
    <rect width="63" height="47" x=".5" y="8.5" stroke="#5986B3" rx="8"/>
    <g transform="translate(5 11)">
      <path fill="#79BF73" d="M53.370699,10.0910827 C49.5077506,9.81897893 45.3067115,13.4090484 40.6589294,17.3352795 C38.5101505,18.8596276 36.4556841,17.0172582 35.2467203,15.3948393 C35.7822604,14.3302332 36.8003933,13.9844346 38.1411739,14.1006456 C37.5460681,11.0128343 32.819968,6.30090358 25.680904,0 C23.5431559,1.23183657 21.8571146,3.99595765 19.639394,8.40857425 C16.3654845,8.35472037 13.2366287,9.30424925 10.1993276,10.8671454 C5.64696096,13.6834198 -0.601926143,19.1850184 0.0466785552,21.4746585 C-0.00902644015,23.1242878 3.82027834,27.0420156 8.24193129,29.6661166 C8.24193098,29.6661164 8.24193098,29.6661164 10.8302832,31.0073616 C12.7198408,31.8401126 14.6033315,32.3287656 16.2413892,32.2119878 C19.1799656,34.7096739 20.7661792,38.2713992 22.030848,41.9153226 C23.7047555,39.5922364 24.49345,36.7413822 24.4223021,33.3769321 C23.6826942,33.2442815 22.9656992,32.9636745 22.2823478,32.4704864 L32.6032149,31.1774264 C34.7260716,33.866719 36.819697,36.3785772 39.0219747,36.8700647 C38.3678546,33.9806624 38.317665,31.0918271 39.274026,28.201858 C38.2079096,28.8310981 37.1914313,28.6978806 36.2527194,27.814677 L37.7639242,26.2614178 C39.4063943,24.8623508 39.6231474,25.703605 41.2876788,26.5199164 C46.0027482,29.1372148 50.3212642,31.4886452 54,31.6088243 C52.1854511,28.8917545 49.5651102,25.2081494 48.462041,21.6050416 C48.8073017,18.6272056 51.673627,12.9271979 53.370699,10.0910827 Z"/>
      <path fill="#CBF2AA" stroke="#41663D" stroke-linejoin="round" stroke-width=".5" d="M10.8302832,31.0073616 C12.7198408,31.8401126 14.6033315,32.3287656 16.2413892,32.2119878 C19.1799656,34.7096739 20.7661792,38.2713992 22.030848,41.9153226 C23.7047555,39.5922364 24.49345,36.7413822 24.4223021,33.3769321 C23.6826942,33.2442815 22.9656992,32.9636745 22.2823478,32.4704864 L32.6032149,31.1774264 C34.7260716,33.866719 36.819697,36.3785772 39.0219747,36.8700647 C38.3678546,33.9806624 38.317665,31.0918271 39.274026,28.201858 C38.2079096,28.8310981 37.1914313,28.6978806 36.2527194,27.814677 L37.7639242,26.2614178 C38.3467293,25.7649806 39.7072585,25.3271955 40.0594238,25.2937012 C34.8772845,22.28549 16.0839844,22.615445 16.0839844,22.615445 L8.9762365,30.0466224 C9.35946044,30.2452033 9.94268372,30.5474209 10.8302832,31.0073616 Z"/>
      <path fill="#AFD98D" stroke="#41663D" stroke-width=".5" d="M19.5860701,8.4077856 C16.3315049,8.36505124 13.2201347,9.31273652 10.1993276,10.8671454 C5.64696096,13.6834198 -0.601926143,19.1850184 0.0466785552,21.4746585 C-0.00902644015,23.1242878 3.82027834,27.0420156 8.24193129,29.6661166 C8.24193098,29.6661164 8.24193098,29.6661164 10.8302832,31.0073616 C12.7198408,31.8401126 14.6033315,32.3287656 16.2413892,32.2119878 C16.251426,32.2205187 16.261447,32.229062 16.2714523,32.2376177 C18.4051142,30.8772737 22.3206266,28.5381443 23.1891174,21.5955328 C24.0658589,14.586967 22.9343973,12.3115271 19.5860701,8.4077856 L19.5860701,8.4077856 Z"/>
      <path fill="#41663D" d="M12.1147711,18.9675815 C10.4745072,18.9675815 9.14475728,17.8661491 9.14475728,16.5076244 C9.14475728,15.1490998 10.4745072,14.0481241 12.1147711,14.0481241 C13.7566897,14.0481241 15.0858881,15.1490998 15.0858881,16.5076244 C15.0858881,17.8661491 13.7566897,18.9675815 12.1147711,18.9675815 L12.1147711,18.9675815 Z"/>
      <path stroke="#41663D" d="M53.370699,10.0910827 C49.5077506,9.81897893 45.3067115,13.4090484 40.6589294,17.3352795 C38.5101505,18.8596276 36.4556841,17.0172582 35.2467203,15.3948393 C35.7822604,14.3302332 36.8003933,13.9844346 38.1411739,14.1006456 C37.5460681,11.0128343 32.819968,6.30090358 25.680904,0 C23.5431559,1.23183657 21.8571146,3.99595765 19.639394,8.40857425 C16.3654845,8.35472037 13.2366287,9.30424925 10.1993276,10.8671454 C5.64696096,13.6834198 -0.601926143,19.1850184 0.0466785552,21.4746585 C-0.00902644015,23.1242878 3.82027834,27.0420156 8.24193129,29.6661166 C8.24193098,29.6661164 8.24193098,29.6661164 10.8302832,31.0073616 C12.7198408,31.8401126 14.6033315,32.3287656 16.2413892,32.2119878 C19.1799656,34.7096739 20.7661792,38.2713992 22.030848,41.9153226 C23.7047555,39.5922364 24.49345,36.7413822 24.4223021,33.3769321 C23.6826942,33.2442815 22.9656992,32.9636745 22.2823478,32.4704864 L32.6032149,31.1774264 C34.7260716,33.866719 36.819697,36.3785772 39.0219747,36.8700647 C38.3678546,33.9806624 38.317665,31.0918271 39.274026,28.201858 C38.2079096,28.8310981 37.1914313,28.6978806 36.2527194,27.814677 L37.7639242,26.2614178 C39.4063943,24.8623508 39.6231474,25.703605 41.2876788,26.5199164 C46.0027482,29.1372148 50.3212642,31.4886452 54,31.6088243 C52.1854511,28.8917545 49.5651102,25.2081494 48.462041,21.6050416 C48.8073017,18.6272056 51.673627,12.9271979 53.370699,10.0910827 Z"/>
    </g>
  </g>
</svg>
