<svg xmlns="http://www.w3.org/2000/svg" width="18" height="18" viewBox="0 0 18 18">
  <path fill="#FFF" fill-rule="evenodd" d="M2.25,2 L15.75,2 C16.9926407,2 18,3.00735931 18,4.25 L18,13.75 C18,14.9926407 16.9926407,16 15.75,16 L2.25,16 C1.00735931,16 1.52179594e-16,14.9926407 0,13.75 L0,4.25 L0,4.25 C-1.52179594e-16,3.00735931 1.00735931,2 2.25,2 L2.25,2 Z M2.28386295,15 L3.28508172,15 C3.32142531,13.3676683 3.30121279,12.6653851 5.45629603,11.920369 C5.52423323,11.8969893 5.58287599,11.8768001 5.63459187,11.8589718 C5.53502015,11.8285416 5.4491178,11.8029611 5.38223528,11.7837659 C5.07833977,11.6656344 5.13075665,11.5606085 4.8590863,11.3796798 C4.77118095,11.3210691 4.67042633,11.3642081 4.63656952,11.3318084 C4.61454219,11.310876 4.60312062,11.1688998 4.60189688,11.0820759 C5.06936568,10.8117751 4.89171937,10.2382277 4.95596574,10.2471467 C5.11199263,10.2688071 5.26332852,10.1730642 5.28352023,10.0334543 L5.41874354,9.10260015 C5.44383021,8.9575296 5.29473785,8.77205045 5.13789513,8.750572 C5.14360592,8.68995909 5.14870484,8.62861809 5.14870484,8.56618497 L5.14870484,8.28059441 C5.14870484,8.16209889 5.13014478,8.04742581 5.09588005,7.9385774 C4.9363859,6.86665716 3.2276365,6.56304653 2.36469563,6.85482581 C2.00287641,6.97732578 2.11913174,6.94620023 2.01164654,6.99753008 C1.85929088,7.05432056 1.72100822,7.13550182 1.60271332,7.23561323 C1.28196196,7.4340428 1.05587579,7.74665426 1,8.10626156 L1,8.82187917 C1.00368992,8.85816394 1.00812296,8.89057229 1,8.91117712 L1,10.1591395 C1.02838949,10.2250092 1.07725272,10.2613318 1.17929917,10.2471467 L1.2484405,10.2374996 C1.28005379,10.6299363 1.40752674,10.9963441 1.64636006,11.1901962 C1.65961725,11.5394941 1.47177311,11.3642081 1.36510375,11.4088032 L1,11.7686319 L1,13.8673062 C1,14.4814853 1.57480502,15 2.28386295,15 Z M17,14 L17,12.900714 C16.5397306,12.7788245 16.1094938,12.6425669 15.8760209,12.4061155 C15.4999745,12.0250898 15.5924823,11.3035248 15.6972277,11.1972008 C15.9083779,11.0080123 16.091112,10.7660402 16.2211622,10.4883114 C16.2541415,11.0867147 16.7253921,10.8125806 16.8226705,10.8437967 C16.7774537,10.8148508 16.726844,10.7756888 16.7056875,10.7639591 C16.5333243,10.6699324 16.7255995,10.4644737 16.8483902,10.3131229 C16.876184,10.3502038 16.9288679,10.3778253 16.9800998,10.4054469 C16.9868712,10.4091132 16.9935085,10.4129576 17,10.416969 L17,6.85728518 C16.8512597,6.75606173 16.6082914,6.60931688 16.4279566,6.65421688 C16.417171,6.64154125 16.4055556,6.62829805 16.3926958,6.61467648 C16.123469,6.32521804 15.8183591,6.73783821 15.7229474,6.31840726 C15.6592705,6.30629919 15.6063792,6.2979749 15.5607476,6.293056 C15.5207162,6.25124533 15.516153,6.20262388 15.481307,6.19827255 C15.0131676,6.13962411 14.7404147,6.32162346 14.6750784,6.71551396 C14.6294468,6.50362282 14.5717849,6.27583984 14.2583784,6.24273185 C13.4220744,6.15457 13.6203647,6.46824457 13.3749908,6.80310825 L13.3111065,6.80689202 C13.2210877,6.8121893 12.9939664,6.94310775 12.9777879,7.01462101 C12.9068514,7.02937772 12.8939916,7.13191789 12.9014586,7.22007974 C12.7965058,7.23218781 12.6832563,7.24126886 12.5820369,7.2372959 C12.4849822,7.23351738 12.3628638,7.29045306 12.2510609,7.3847758 C12.1788076,7.52715427 12.0816618,7.66921556 11.9583678,7.82934168 C11.972208,7.77733082 11.99226,7.72655436 12.0170417,7.67798954 C12.2619793,8.15727096 12.1518989,8.75801851 11.8383551,9.24811861 C11.8652654,9.20615724 11.8684983,9.19431487 11.8684983,9.19843968 C11.8766474,9.23359162 11.8838376,9.31820498 11.880578,9.41357853 C11.8792779,9.45161676 11.876294,9.48940743 11.8716336,9.52690597 C12.0020262,9.58990754 12.1375637,9.6384182 12.2572224,9.6730981 C12.2872979,9.68180077 12.309284,9.68671967 12.3462042,9.69788179 C12.3677755,9.75634105 12.4254374,9.63866579 12.4254374,9.8840433 C12.0829925,9.8840433 11.6741742,9.92434045 11.7984168,10.343393 C11.8330554,10.7490132 12.4065624,10.7109863 12.4385046,10.5749598 C11.9987813,10.4504737 12.2273544,10.0692589 12.7311695,10.0030429 C12.4899439,10.2743392 12.3881024,10.4614467 12.8110249,10.818067 C12.8900507,10.8846614 12.9960406,10.9644989 12.8813392,11.2672006 C13.0953932,11.1209578 13.2161097,10.970553 13.0597175,10.7501483 C12.9570463,10.6057975 12.9412826,10.4402575 13.2341549,10.4983384 C13.3613013,10.7660402 13.5373981,11.0004448 13.740459,11.1856603 C13.84761,11.3360559 13.9205932,11.7501372 13.7274008,12.1333765 C13.830064,12.1764983 13.9154506,12.2147553 13.9896965,12.2510683 C15.2330789,12.8591327 14.8117949,13.6924957 14.8395045,14.9977401 C15.4885877,14.9585317 17,15 17,14 Z M7.62100625,11.3373415 C6.31806111,12.4147266 4.0069765,12.291424 4.0069765,14.084006 L3.9375,15 L14.0412189,15 L14.0625,14.0802506 C14.0625,13.2252691 13.7797953,12.8121741 13.0933759,12.444144 C12.641257,12.2017115 10.869502,11.5605797 10.5252491,11.2570175 C10.1807875,10.9534552 10.1599237,10.4967557 10.1572114,10.1998698 C10.3787851,9.93761705 10.4148795,9.78865249 10.5177381,9.21929074 L10.5982724,9.23180877 C10.7013397,9.24787358 10.7762408,9.20739861 10.8227671,9.13354223 C10.8874449,9.03152028 10.8507246,8.9712251 10.8507246,8.85668513 C10.8507246,8.67746866 10.8934954,8.5149429 10.9631805,8.39581297 C11.0725069,8.20845979 11.137602,7.90114214 10.8669983,7.82102675 C10.7046779,7.77304096 10.7612188,7.64723476 10.8926608,7.38644246 C11.0117932,7.15047758 11.2905338,6.90846233 11.2905338,6.61971309 C11.2905338,6.35599992 11.2243955,6.35099271 11.1970639,6.15466827 C11.1732791,5.98254535 11.1782864,5.96898415 11.1027594,5.80833609 C11.0800179,5.80165981 10.994059,5.86070318 10.9969799,5.87760253 C10.9969799,5.60199722 10.9103951,5.60658717 10.7837517,5.43988873 C10.7822913,5.44176643 10.7987737,5.51916959 10.7987737,5.51937822 C10.8421704,5.65436432 10.6886127,5.76723522 10.6637848,5.72550846 C10.6126685,5.63996858 10.5371415,5.51583145 10.4893633,5.42945704 C10.3858788,5.24293838 10.2045723,5.07018956 10.004071,4.98402379 C9.84237647,4.91434009 9.73200689,4.90557747 9.59680938,4.86009529 C9.43782712,4.80689366 9.15491381,4.72260559 8.94606704,4.69026734 C8.60703007,4.63727435 8.67129062,4.70987892 8.43093949,4.88158457 C8.29344696,4.98005975 8.06603139,5.01511023 7.98633163,4.99737635 C7.98424525,4.98339789 8.08376563,4.87636873 8.09503209,4.86218163 C8.05351311,4.83964917 7.67525217,4.97943384 7.68338906,5.02575056 C7.68338906,4.91559189 7.81086696,4.87303059 7.89724314,4.77851946 C7.89181855,4.77351224 7.8417454,4.77434678 7.83611217,4.77664175 C7.56968127,4.88638315 7.34122252,4.85842622 7.19058578,5.17492375 C7.06269061,5.44364414 7.03452446,5.53565166 7.18224026,5.78476047 C7.2519254,5.90201268 7.0944036,6.03470381 7.02409255,6.06370391 C6.84695878,6.13714302 6.7305387,6.23520093 6.68442967,5.94645169 C6.67378913,5.95062437 6.49936765,6.11398467 6.53921753,6.17886979 C6.67065955,6.39313674 6.69799115,6.41379149 6.58407473,6.63682107 C6.50249722,6.79663459 6.45284134,6.8546348 6.55486539,6.98440505 C6.67107683,7.13211781 6.86010298,7.21598861 6.93604726,7.31821919 C7.06352516,7.48971621 7.1972622,7.8577463 7.00823605,7.92909907 C6.80377068,8.0062936 6.80397932,8.20679072 6.916018,8.41083461 C6.98048718,8.5285041 7.01991979,8.68497948 7.01991979,8.85668513 C7.01991979,8.9151026 7.01762477,8.92490839 7.03118625,8.98269997 C7.05601419,9.14230485 7.14176446,9.24078003 7.3072145,9.22763609 L7.35394944,9.21115402 C7.40026711,9.80617773 7.56509123,10.0884593 7.8171261,10.3240069 C7.80627692,10.5994036 7.85739326,11.0694556 7.62100625,11.3373415 Z"/>
</svg>
