<svg xmlns="http://www.w3.org/2000/svg" xmlns:xlink="http://www.w3.org/1999/xlink" width="18" height="18" viewBox="0 0 18 18">
  <defs>
    <rect id="105-mono-black-a" width="18" height="14" y="2" rx="2.25"/>
  </defs>
  <g fill="none" fill-rule="evenodd">
    <use fill="#000" fill-opacity=".2" xlink:href="#105-mono-black-a"/>
    <rect width="17" height="13" x=".5" y="2.5" stroke="#000" rx="2.25"/>
    <path fill="#000" d="M3.00780127 14L3.00684547 14C2.45078007 14 2 13.5443356 2 13.0046024L2 11.1603129 2.28632577 10.8440997C2.36997923 10.8049101 2.51729247 10.9589493 2.50689577 10.6519906 2.31959522 10.4816357 2.21962694 10.159641 2.19483481 9.81477235L2.14061202 9.82325011C2.060584 9.83571586 2.02226393 9.80379598 2 9.74591043L2 8.64921626C2.00344487 8.64985226 2.00691629 8.65063193 2.01041334 8.65156043 2.00637028 8.63110898 2.00289375 8.60262891 2 8.57074231L2 7.94186622C2.04381954 7.62584769 2.22112339 7.35112852 2.47266664 7.17675102 2.56543719 7.08877432 2.67388278 7.01743322 2.79336486 6.96752644 2.8776581 6.92241838 2.78648704 6.94977114 3.07023698 6.84211965 3.74698221 6.58570756 5.08703691 6.8525169 5.21211722 7.79450741 5.23898869 7.89016208 5.25354407 7.99093539 5.25354407 8.09506781L5.25354407 8.34604134C5.25354407 8.40090681 5.24954534 8.45481253 5.24506676 8.50807843 5.36806772 8.52695343 5.48499061 8.68995026 5.46531686 8.81743649L5.35927051 9.63545984C5.34343554 9.75814735 5.2247532 9.84228507 5.10239204 9.82325011 5.05200803 9.81541218 5.19132381 10.3194387 4.82472016 10.5569758 4.82567986 10.6332756 4.83463702 10.7580425 4.85191153 10.7764377 4.87846311 10.8049101 4.95747803 10.7670002 5.02641615 10.8185065 5.23946853 10.9775044 5.19836158 11.0698 5.43668594 11.1736125 5.48913731 11.190481 5.55650461 11.2129608 5.63459187 11.2397025 5.59403466 11.2553698 5.54804518 11.2731118 5.49476669 11.2936576 3.80468303 11.9483687 3.03630305 12.5655267 3.00780127 14L3.00780127 14zM15.0616362 13.9977401C15.5864777 13.962982 16 13.531623 16 13.0046024L16 12.1387355C15.6278313 12.0306809 15.2799465 11.9098892 15.091163 11.700276 14.787096 11.3624983 14.8618968 10.722834 14.9465928 10.6285783 15.1173265 10.4608635 15.2650832 10.2463562 15.3702404 10.0001509 15.3969071 10.5306329 15.7779551 10.2876141 15.8566134 10.315287 15.8200515 10.2896267 15.7791291 10.2549097 15.7620222 10.2445114 15.6226512 10.1611571 15.7781228 9.97901884 15.87741 9.84484699 15.8998838 9.87771909 15.9424833 9.90220545 15.9839089 9.92669182 15.9893842 9.92994204 15.9947511 9.93335003 16 9.93690615L16 6.78126169 16 6.78126169C15.8797303 6.69152753 15.6832687 6.56143886 15.5374521 6.60124252 15.5287309 6.59000562 15.5193389 6.57826559 15.5089406 6.56619012 15.2912467 6.30958646 15.0445382 6.67537246 14.9673894 6.30354872 14.915901 6.29281498 14.8731337 6.28543552 14.8362364 6.28107494 14.8038675 6.24400997 14.8001778 6.20090726 14.7720017 6.19704982 14.3934693 6.14505823 14.1729244 6.30639988 14.1200942 6.65558211 14.0831969 6.46774152 14.0365722 6.26581289 13.7831551 6.2364628 13.106929 6.1583077 13.2672644 6.43637885 13.0688578 6.73323407L13.0172016 6.73658837C12.9444134 6.74128438 12.7607656 6.85734303 12.7476839 6.92073923 12.6903254 6.93382099 12.6799271 7.02472242 12.6859648 7.10287752 12.6011011 7.11361127 12.5095289 7.12166158 12.427684 7.11813957 12.3492067 7.11478992 12.2504631 7.16526316 12.1600605 7.24887987 12.1016373 7.37509777 12.0230863 7.5010345 11.9233921 7.64298561 11.9345831 7.59687821 11.950797 7.55186509 11.9708352 7.50881259 12.1688889 7.93369352 12.0798792 8.46625365 11.8263512 8.90072528 11.8481105 8.86352671 11.8507246 8.85302849 11.8507246 8.85668513 11.8507246 8.83920964 11.8495088 8.82230386 11.8503899 8.8333616 11.8573139 8.88784717 11.8631278 8.96285655 11.8604921 9.04740479 11.8594409 9.08112552 11.8570281 9.11462678 11.8532598 9.14786908 11.9586938 9.2037197 12.0682879 9.2467242 12.1650426 9.27746778 12.1893613 9.28518266 12.207139 9.28954324 12.2369923 9.29943842 12.2544346 9.35126229 12.3010593 9.24694368 12.3010593 9.46446979 12.0241622 9.46446979 11.6935963 9.50019305 11.7940575 9.87168136 11.8220658 10.2312619 12.2857973 10.1975512 12.3116254 10.0769643 11.95607 9.96660794 12.1408917 9.62866259 12.548271 9.56996241 12.3532186 9.81046545 12.2708707 9.9763354 12.6128412 10.2924778 12.6767405 10.3515134 12.7624428 10.4222891 12.6696965 10.6906328 12.8427782 10.5609892 12.9403882 10.427656 12.8139312 10.2322682 12.7309124 10.1043018 12.7181661 9.95755134 12.9549794 10.0090398 13.0577886 10.2463562 13.2001785 10.4541549 13.3643713 10.6183477 13.4510123 10.7516727 13.5100257 11.118754 13.3538125 11.458494 13.4368249 11.4967213 13.5058675 11.530636 13.5659019 11.5628273 14.5712872 12.1018738 15.0392305 12.8406465 15.0616362 13.9977401L15.0616362 13.9977401z"/>
    <path fill="#000" d="M14.0526999,15.75 L3.975021,15.75 L4.0069765,14.084006 C4.0069765,12.291424 6.31806111,12.4147266 7.62100625,11.3373415 C7.85739326,11.0694556 7.80627692,10.5994036 7.8171261,10.3240069 C7.56509123,10.0884593 7.40026711,9.80617773 7.35394944,9.21115402 L7.3072145,9.22763609 C7.14176446,9.24078003 7.05601419,9.14230485 7.03118625,8.98269997 C7.01762477,8.92490839 7.01991979,8.9151026 7.01991979,8.85668513 C7.01991979,8.68497948 6.98048718,8.5285041 6.916018,8.41083461 C6.80397932,8.20679072 6.80377068,8.0062936 7.00823605,7.92909907 C7.1972622,7.8577463 7.06352516,7.48971621 6.93604726,7.31821919 C6.86010298,7.21598861 6.67107683,7.13211781 6.55486539,6.98440505 C6.45284134,6.8546348 6.50249722,6.79663459 6.58407473,6.63682107 C6.69799115,6.41379149 6.67065955,6.39313674 6.53921753,6.17886979 C6.49936765,6.11398467 6.67378913,5.95062437 6.68442967,5.94645169 C6.7305387,6.23520093 6.84695878,6.13714302 7.02409255,6.06370391 C7.0944036,6.03470381 7.2519254,5.90201268 7.18224026,5.78476047 C7.03452446,5.53565166 7.06269061,5.44364414 7.19058578,5.17492375 C7.34122252,4.85842622 7.56968127,4.88638315 7.83611217,4.77664175 C7.8417454,4.77434678 7.89181855,4.77351224 7.89724314,4.77851946 C7.81086696,4.87303059 7.68338906,4.91559189 7.68338906,5.02575056 C7.67525217,4.97943384 8.05351311,4.83964917 8.09503209,4.86218163 C8.08376563,4.87636873 7.98424525,4.98339789 7.98633163,4.99737635 C8.06603139,5.01511023 8.29344696,4.98005975 8.43093949,4.88158457 C8.67129062,4.70987892 8.60703007,4.63727435 8.94606704,4.69026734 C9.15491381,4.72260559 9.43782712,4.80689366 9.59680938,4.86009529 C9.73200689,4.90557747 9.84237647,4.91434009 10.004071,4.98402379 C10.2045723,5.07018956 10.3858788,5.24293838 10.4893633,5.42945704 C10.5371415,5.51583145 10.6126685,5.63996858 10.6637848,5.72550846 C10.6886127,5.76723522 10.8421704,5.65436432 10.7987737,5.51937822 C10.7987737,5.51916959 10.7822913,5.44176643 10.7837517,5.43988873 C10.9103951,5.60658717 10.9969799,5.60199722 10.9969799,5.87760253 C10.994059,5.86070318 11.0800179,5.80165981 11.1027594,5.80833609 C11.1782864,5.96898415 11.1732791,5.98254535 11.1970639,6.15466827 C11.2243955,6.35099271 11.2905338,6.35599992 11.2905338,6.61971309 C11.2905338,6.90846233 11.0117932,7.15047758 10.8926608,7.38644246 C10.7612188,7.64723476 10.7046779,7.77304096 10.8669983,7.82102675 C11.137602,7.90114214 11.0725069,8.20845979 10.9631805,8.39581297 C10.8934954,8.5149429 10.8507246,8.67746866 10.8507246,8.85668513 C10.8507246,8.9712251 10.8874449,9.03152028 10.8227671,9.13354223 C10.7762408,9.20739861 10.7013397,9.24787358 10.5982724,9.23180877 L10.5177381,9.21929074 C10.4148795,9.78865249 10.3787851,9.93761705 10.1572114,10.1998698 C10.1599237,10.4967557 10.1807875,10.9534552 10.5252491,11.2570175 C10.869502,11.5605797 12.641257,12.2017115 13.0933759,12.444144 C13.7797953,12.8121741 14.0625,13.2252691 14.0625,14.0802506 L14.0526999,15.75 Z"/>
  </g>
</svg>
