<svg xmlns="http://www.w3.org/2000/svg" xmlns:xlink="http://www.w3.org/1999/xlink" width="16" height="16" viewBox="0 0 16 16">
  <defs>
    <rect id="105-mini-a" width="16" height="12" rx="2"/>
    <path id="105-mini-c" d="M2.03228958,7.63919977 L1.76926194,7.92968283 C1.16970111,8.16201241 0.571846412,8.46571864 -0.061268212,8.59411131 C-0.176005131,8.56595876 -0.270126371,8.61785613 -0.303537989,8.88914428 C-0.396806167,9.64570835 -0.5108322,11.2654118 -0.499173678,12.1017414 L7.03080986,12.1017414 C7.10644808,11.3510069 6.941807,9.35735805 6.82707008,8.85516217 C6.78157341,8.65567722 6.7946537,8.56226196 6.55721794,8.6125953 C6.31139374,8.44965179 5.18762595,8.04627418 4.83260973,7.93209997 C4.62076585,7.83982219 4.65730536,7.75778169 4.46792547,7.61645024 C4.40664714,7.57066681 4.33641165,7.60436455 4.31281025,7.5790557 C4.29745513,7.56270447 4.28949321,7.45180051 4.28864015,7.38397847 C4.61451006,7.17283439 4.4906738,6.72481083 4.53545959,6.73177787 C4.64422507,6.74869784 4.74972048,6.67390876 4.76379601,6.56485319 L4.85805943,5.83772133 C4.87554721,5.72440023 4.77161575,5.57951416 4.66228156,5.56273638 C4.66626252,5.51538892 4.66981695,5.46747272 4.66981695,5.41870341 L4.66981695,5.19561583 C4.66981695,5.10305368 4.65687883,5.0134774 4.63299308,4.92845103 C4.52181059,4.09112613 3.33065085,3.85396228 2.72909954,4.08188413 C2.47687737,4.17757435 2.55791831,4.15326078 2.48299098,4.19335683 C2.37678469,4.23771842 2.28038862,4.30113273 2.1979259,4.37933424 C1.93887922,4.55891335 1.76840888,4.85821186 1.76840888,5.19561583 L1.76840888,5.41870341 C1.76840888,5.48396613 1.77480685,5.62842565 1.78703408,5.69027593 C1.64940665,5.6537345 1.55642283,5.87653771 1.5801664,5.95872039 L1.75504423,6.56485319 C1.77196331,6.67362439 1.79414294,6.74869784 1.90276624,6.73177787 L1.95096428,6.72424209 C1.97300173,7.03079201 2.06186241,7.31700954 2.2283518,7.4684361 C2.23759331,7.74128829 2.1066482,7.60436455 2.03228958,7.63919977 Z"/>
    <path id="105-mini-d" d="M14.2952798,4.08348964 C14.2201436,4.02758471 13.978187,3.8221527 13.8110685,3.86777112 C13.8033164,3.85778278 13.7949679,3.84734719 13.7857249,3.83661344 C13.5922193,3.60852129 13.3729229,3.93366441 13.3043462,3.60315442 C13.2585786,3.59361331 13.2205633,3.5870538 13.1877657,3.58317772 C13.1589933,3.55023108 13.1557136,3.51191756 13.1306682,3.50848873 C12.794195,3.46227398 12.598155,3.60568878 12.5511948,3.91607299 C12.5183973,3.74910358 12.4769531,3.56961146 12.2516935,3.54352249 C11.6506036,3.47405129 11.7931239,3.72122565 11.6167624,3.98509695 L11.5708459,3.98807855 C11.5061452,3.99225279 11.3429028,4.09541603 11.3312746,4.15176821 C11.2802893,4.16339643 11.2710463,4.2441977 11.2764132,4.31366891 C11.2009788,4.32321002 11.1195812,4.33036585 11.0468302,4.32723517 C10.8512375,4.3188867 10.5140189,4.68666665 10.5957147,5.02537603 C10.601976,5.051465 10.6162877,5.07725581 10.6335809,5.10125766 C10.6297049,5.12868835 10.6276178,5.15701352 10.6276178,5.18593501 C10.3697096,5.18593501 10.1851488,5.1963706 10.1361015,5.55401312 C10.084669,5.92865074 10.5168514,6.15241957 10.8133712,6.24663802 C10.8349878,6.2534957 10.8507903,6.25737177 10.8773265,6.26616748 C10.8928308,6.31223315 10.934275,6.21950549 10.934275,6.41286204 C10.6881442,6.41286204 10.3943078,6.44461604 10.4836066,6.77482787 C10.508503,7.09445503 10.9207087,7.06448999 10.943667,6.95730159 C10.6276178,6.85920706 10.7919037,6.55881119 11.1540186,6.50663325 C10.9806388,6.72041373 10.9074406,6.86785369 11.2114144,7.14886917 C11.2682138,7.20134528 11.3443936,7.26425696 11.2619524,7.5027847 C11.4158028,7.38754599 11.5025673,7.26902752 11.3901611,7.09534951 C11.3163666,6.9816016 11.3050365,6.85115675 11.5155372,6.89692426 C11.6069232,7.10787222 11.733492,7.29258213 11.8794411,7.43853129 C11.9754485,7.5862694 12.0332915,8.05691444 11.729914,8.40084161 C11.2625488,8.93007502 9.69706143,8.87595904 9.64592705,9.59452384 C9.42364902,10.1589401 9.48238647,11.5391074 9.64175282,12.1980403 L15.5025283,12.1980403 C15.6660689,11.534635 15.7471683,10.1486536 15.5196725,9.59467292 C15.4651093,8.8245265 13.8845649,8.92232287 13.4143671,8.40024529 C13.1440853,8.09999851 13.2105749,7.53140803 13.2858603,7.44762516 C13.4376235,7.29854533 13.5689629,7.10787222 13.6624359,6.88902302 C13.6861396,7.36056254 14.024849,7.14454586 14.0947674,7.16914403 C14.062268,7.14633482 14.0258926,7.11547529 14.0106864,7.10623234 C13.8868011,7.03213966 14.0249981,6.87023897 14.1132533,6.7509751 C14.13323,6.78019475 14.1710963,6.8019604 14.207919,6.82372606 C14.310635,6.88469971 14.370416,7.00813781 14.3078025,7.11353725 C14.2642712,7.18658637 14.207919,7.28974962 14.2423565,7.42407055 C14.2196963,7.34207664 14.2539847,7.32031098 14.32927,7.29958889 C14.4980284,7.25322506 14.6556058,7.14901825 14.4790952,7.00634885 C14.3637075,6.91302488 14.2201436,6.82387514 14.5320186,6.63424559 C14.7657758,6.49202343 14.4920652,6.39124546 14.4920652,6.31819634 C14.4920652,6.09636555 14.5431996,5.9961839 14.596272,5.92835258 C14.6468101,5.86350285 14.719561,5.86365193 14.7775531,5.92805442 C14.8537329,6.01288084 14.9002458,6.15405945 14.7785966,6.20832451 C14.6034278,6.28644234 14.6116272,6.53987806 14.6752843,6.63514007 C14.8480678,6.89409174 15.1080631,6.5550842 15.1122373,6.5550842 C14.9794072,6.64840817 14.8294329,6.56104739 14.7973807,6.42926082 C14.7669684,6.3037356 14.9218623,6.27705031 15.0023655,6.22010181 C15.2668331,6.03300662 15.0777999,5.97516365 14.9570452,5.8904863 C14.895028,5.84710407 14.8690881,5.79924944 14.8649139,5.74841322 C14.8467261,5.53314194 15.2176367,5.26539456 14.8787783,5.06398771 C14.8401666,4.58007457 14.5060787,4.63702306 14.5023517,4.63389239 C14.5023517,4.32947137 14.3324007,4.49256471 14.3294191,4.28743086 C14.334935,4.21274186 14.3325498,4.12806451 14.2952798,4.08348964 Z"/>
    <path id="105-mini-e" d="M6.77422778,8.07763687 C5.61605432,9.03531256 3.56175689,8.92571025 3.56175689,10.5191164 L3.5,13.7388002 L12.4810835,13.7388002 L12.5,10.5157783 C12.5,9.75579476 12.248707,9.3885992 11.6385563,9.06146134 C11.2366729,8.84596576 9.66177955,8.27607084 9.35577696,8.00623774 C9.04958891,7.73640464 9.03104329,7.33044955 9.02863236,7.06655092 C9.22558676,6.83343738 9.25767067,6.70102444 9.34910054,6.1949251 L9.4206866,6.20605224 C9.51230192,6.22033207 9.57888067,6.18435432 9.62023738,6.11870421 C9.67772878,6.02801803 9.6450885,5.97442232 9.6450885,5.872609 C9.6450885,5.71330547 9.68310701,5.56883813 9.74504935,5.46294487 C9.84222836,5.2964087 9.90009067,5.02323746 9.65955408,4.95202377 C9.51526922,4.90936974 9.56552783,4.79754201 9.68236518,4.56572663 C9.78826063,4.35598007 10.03603,4.1408554 10.03603,3.88418942 C10.03603,3.64977771 9.97724041,3.64532685 9.95294566,3.47081624 C9.93180366,3.31781809 9.93625461,3.30576369 9.8691195,3.16296541 C9.84890478,3.15703094 9.77249686,3.20951394 9.77509324,3.22453558 C9.77509324,2.97955309 9.69812895,2.98363304 9.58555709,2.83545665 C9.5842589,2.83712572 9.59890993,2.90592852 9.59890993,2.90611398 C9.6374848,3.02610161 9.5009891,3.12643131 9.47891982,3.08934085 C9.43348307,3.01330541 9.36634796,2.90296129 9.32387851,2.82618403 C9.23189227,2.66038967 9.0707309,2.50683517 8.89250757,2.43024337 C8.74877908,2.3683023 8.65067279,2.3605133 8.53049723,2.3200847 C8.38917967,2.27279436 8.13770117,2.19787163 7.95205959,2.16912653 C7.6506934,2.12202164 7.70781388,2.18655904 7.49416844,2.33918629 C7.37195285,2.42671977 7.16980568,2.45787576 7.09896145,2.44211232 C7.09710688,2.42968701 7.18556945,2.33454998 7.19558408,2.32193922 C7.15867832,2.30191037 6.82244637,2.42616342 6.82967916,2.46733383 C6.82967916,2.36941501 6.94299285,2.33158274 7.01977168,2.24757285 C7.01494982,2.243122 6.97044036,2.2438638 6.96543304,2.24590378 C6.72860558,2.34345169 6.52553113,2.31860108 6.39163181,2.59993222 C6.27794721,2.83879479 6.25291063,2.92057926 6.38421356,3.1420093 C6.44615591,3.2462335 6.30613654,3.36418116 6.24363782,3.38995903 C6.08618558,3.45523824 5.98270107,3.54240082 5.94171526,3.28573484 C5.932257,3.28944388 5.77721569,3.43465304 5.8126378,3.4923287 C5.92947516,3.68278822 5.95376991,3.701148 5.85251087,3.89939651 C5.77999753,4.04145297 5.73585897,4.09300871 5.82654701,4.20836004 C5.92984607,4.33966027 6.09786932,4.4142121 6.16537534,4.50508373 C6.27868903,4.65752552 6.3975664,4.98466338 6.22954316,5.04808807 C6.04779616,5.11670542 6.04798162,5.29492508 6.14757156,5.47629743 C6.2048775,5.58089253 6.2399287,5.71998176 6.2399287,5.872609 C6.2399287,5.92453565 6.23788869,5.9332519 6.24994333,5.98462219 C6.27201261,6.1264932 6.34823508,6.21402669 6.49530178,6.20234319 L6.53684395,6.18769246 C6.57801521,6.71660243 6.72452554,6.96751939 6.94855653,7.17689504 C6.93891282,7.42169208 6.98434956,7.83951612 6.77422778,8.07763687 Z"/>
  </defs>
  <g fill="none" fill-rule="evenodd" transform="translate(0 2)">
    <mask id="105-mini-b" fill="#fff">
      <use xlink:href="#105-mini-a"/>
    </mask>
    <use fill="#8D85CC" xlink:href="#105-mini-a"/>
    <g stroke-linecap="round" stroke-linejoin="round" mask="url(#105-mini-b)">
      <use fill="#BAB5E0" xlink:href="#105-mini-c"/>
      <path stroke="#000" stroke-opacity=".4" stroke-width=".5" d="M4.60969332,5.80954205 L4.60994126,5.80763094 L4.60892863,5.80747555 C4.60611489,5.81417288 4.60312567,5.81088944 4.60969332,5.80954205 Z M1.89084921,7.43896519 C1.81394517,7.30513829 1.76016532,7.1438539 1.72869045,6.9646831 C1.59978016,6.91641516 1.5377035,6.79015465 1.5148417,6.634155 L1.33998935,6.02811047 C1.29127057,5.85948214 1.37019866,5.63789628 1.52077375,5.51918308 C1.51922709,5.48354723 1.51840888,5.44891522 1.51840888,5.41870341 L1.51840888,5.19561583 C1.51840888,4.7840005 1.72233565,4.40483143 2.02589825,4.19793279 C2.13094365,4.09831554 2.25311538,4.01844209 2.36503529,3.97293348 C2.37402883,3.96803609 2.37402883,3.96803609 2.37888689,3.96435312 C2.38110378,3.96279461 2.38110378,3.96279461 2.38385299,3.96089727 C2.42782165,3.93073772 2.4694615,3.91300052 2.64052187,3.84810219 C3.49806574,3.52318728 4.75713108,3.96404813 4.8736764,4.86083787 C4.9041467,4.96930332 4.91981695,5.08164253 4.91981695,5.19561583 L4.91981695,5.41870341 C4.91981695,5.41880993 4.91981694,5.41891642 4.91981691,5.41902289 C5.05071046,5.52919459 5.13120529,5.70675575 5.10598481,5.86986171 L5.01173937,6.59685463 C4.99221989,6.74808922 4.89797669,6.87036214 4.77185095,6.93471623 C4.7674948,7.02441239 4.75560135,7.09899882 4.72885193,7.18546106 C4.70301339,7.26897905 4.66547893,7.34601563 4.61525375,7.41461984 C4.6159734,7.41510298 4.61670492,7.41559415 4.61744873,7.41609357 C4.71127773,7.48611679 4.73969011,7.51671516 4.83004351,7.6279005 C4.85321292,7.65641186 4.86292926,7.66560187 4.88375074,7.67828772 C4.89627899,7.68592077 4.91220295,7.69408206 4.9091496,7.69410491 C5.4373601,7.86397888 6.27611938,8.18005095 6.60583282,8.35266576 C6.85544502,8.33079868 6.99590624,8.45330517 7.04968486,8.70023158 C7.060227,8.75073416 7.060227,8.75073416 7.07079005,8.79947936 C7.20911643,9.40492475 7.35076898,11.4199361 7.27955056,12.1268026 L7.25688746,12.3517414 L-0.745712942,12.3517414 L-0.749149391,12.1052261 C-0.760065101,11.3221825 -0.656893804,9.71218458 -0.551663268,8.85858538 C-0.508605714,8.50897633 -0.333728675,8.3068351 -0.0652470626,8.33956337 C0.270323448,8.26756008 0.565625535,8.15916927 1.15146977,7.91284122 C1.39499104,7.81044861 1.47234601,7.77830473 1.59387335,7.72997763 C1.60690259,7.72481641 1.61593383,7.7212389 1.62342454,7.71827997 L1.84697218,7.47139791 L1.89084921,7.43896519 Z"/>
    </g>
    <g stroke-linecap="round" stroke-linejoin="round" mask="url(#105-mini-b)">
      <use fill="#BAB5E0" xlink:href="#105-mini-d"/>
      <path stroke="#000" stroke-opacity=".4" stroke-width=".5" d="M14.7698406,6.0613128 C14.7836346,6.07316958 14.7982788,6.08452115 14.8137457,6.09534054 C14.8471006,6.11783485 14.8471006,6.11783485 14.8751485,6.13523401 L14.890753,6.14489957 C14.9016738,6.15168759 14.9015583,6.15158491 14.8896393,6.09269214 C14.8737926,6.0143928 14.8872962,5.99527207 14.8579824,6.01600981 C14.8558245,6.01753635 14.8545262,6.01824663 14.8262755,6.03259964 L14.8104117,6.0404038 C14.7964395,6.04729351 14.7829077,6.05425171 14.7698406,6.0613128 Z M15.0337181,6.32473593 C14.9233829,6.37372124 14.8128466,6.49448154 14.8608961,6.4539316 C14.836646,6.47441604 14.8219945,6.48159684 14.8381143,6.48287571 C14.8617938,6.48475435 14.8794194,6.49460053 14.8827024,6.49620421 C14.8802212,6.4859041 14.8872515,6.43360226 14.8804196,6.436649 C14.9468289,6.40702528 14.9972903,6.36871906 15.0337181,6.32473593 Z M14.8827024,6.49620421 C14.8831208,6.4964086 14.8833063,6.4964791 14.8832416,6.49638215 C14.8830785,6.49613808 14.8829382,6.4957932 14.8828184,6.49535713 Z M14.0997795,6.90860053 C14.1075076,6.95608818 14.1215219,6.99402028 14.1440187,7.02915107 L14.1777357,6.93331302 C14.1351239,6.91832166 14.1235928,6.90903715 14.0997795,6.90860053 Z M14.1883053,7.08475554 C14.2178773,7.11594078 14.2555482,7.14783894 14.3030015,7.18562689 L14.3093529,7.19068573 C14.3156102,7.19567897 14.3159016,7.19591146 14.3210865,7.20008897 C14.3058419,7.18375487 14.287138,7.09918574 14.3359057,7.03613293 C14.3411775,7.02931695 14.3093783,7.04579052 14.2630403,7.05852121 C14.2366638,7.06578128 14.2116801,7.07452966 14.1883053,7.08475554 Z M14.3210865,7.20008897 C14.3213397,7.20029298 14.3216046,7.20050639 14.3218824,7.20073023 C14.3214616,7.2003901 14.3210357,7.1999896 14.3206064,7.19953096 Z M14.1085094,7.13008346 C14.0443816,7.17700537 14.0016447,7.24058993 13.9885955,7.32042166 L14.0947674,7.16914403 L14.1085094,7.13008346 Z M13.8813194,7.32016 C13.8816678,7.32036936 13.8820168,7.32057856 13.8823664,7.32078761 C13.8819573,7.3205394 13.881575,7.32030807 13.8812247,7.32009785 Z M13.8934783,6.94706907 C13.8898277,6.94742535 13.8866865,6.94759396 13.8839612,6.94759691 C13.8868752,6.94759375 13.8907641,6.94958774 13.89474,6.95030563 Z M10.7034194,6.68804016 C10.702042,6.68911668 10.7009319,6.69053667 10.700027,6.69101522 C10.7012949,6.69034471 10.7026291,6.68968441 10.7040296,6.68903451 Z M13.0875469,3.75495503 C13.0905031,3.75533351 13.0934884,3.75572964 13.0965029,3.75614325 C13.0934425,3.75572287 13.0904356,3.75526537 13.087481,3.7547719 C13.087503,3.75483295 13.0875249,3.754894 13.0875469,3.75495503 Z M13.0965029,3.75614325 C13.0965519,3.75614997 13.0966009,3.7561567 13.0966499,3.75616343 C13.0966009,3.75615672 13.0965519,3.75615 13.0965029,3.75614327 Z M14.5822412,4.23222822 C14.6456676,4.27736359 14.6910929,4.3370396 14.7189592,4.4140149 C14.7526128,4.426006 14.7866475,4.44198829 14.8212373,4.46279737 C14.9713688,4.55311588 15.0718796,4.70931903 15.1122686,4.92455394 C15.3047833,5.09146752 15.3121828,5.30862935 15.2004285,5.54834654 C15.1828461,5.58512556 15.1828461,5.58512556 15.1664615,5.61769297 C15.146566,5.65721108 15.1336994,5.68461438 15.1256982,5.70222407 C15.1290206,5.70430384 15.1331047,5.70684826 15.1384283,5.7101649 C15.1462637,5.71501255 15.1462637,5.71501255 15.1547038,5.72024678 C15.2915729,5.80532027 15.352597,5.85957572 15.3797034,5.99351003 C15.4150792,6.1683036 15.3218409,6.30032631 15.1467439,6.42419703 C15.1189432,6.44386346 15.0937195,6.45800743 15.0569128,6.47633958 L15.1122373,6.5550842 L15.1122373,6.8050842 C15.3256576,6.71191525 15.3256576,6.71191525 15.2699998,6.75302482 C15.235905,6.78891865 15.2162017,6.80815975 15.1853434,6.83437405 C15.0693222,6.93293459 14.9451823,6.99294109 14.7985707,6.98130956 C14.7896372,6.98060082 14.7807877,6.97961024 14.7720265,6.97834243 C14.8249503,7.08873778 14.8211268,7.21128153 14.746553,7.32116271 L15.7245126,8.00752879 L14.1403867,7.45021373 L14.0001888,7.48615792 C13.9960264,7.46992242 13.9925189,7.45404417 13.9896465,7.43847669 C13.9537625,7.44447227 13.9208095,7.44755721 13.884504,7.44759662 C13.8008012,7.44768749 13.725965,7.42928247 13.6618602,7.39385 C13.6026207,7.47499447 13.5387433,7.54924686 13.4718154,7.61472005 C13.4421322,7.64775362 13.4596259,8.07685559 13.6001326,8.23293965 C13.7179179,8.36372095 13.9280671,8.44804322 14.4573209,8.59693199 C14.4637033,8.59872745 14.4637033,8.59872745 14.4700933,8.6005251 C15.394064,8.86047007 15.7313594,9.04504817 15.7509321,9.49970462 C15.98048,10.0586822 15.9464164,11.4418898 15.7452616,12.2578781 L15.6983834,12.4480403 L9.44500878,12.4480403 L9.39875866,12.2568097 C9.20728428,11.4651195 9.18823666,10.0744449 9.39655766,9.57677826 C9.4322116,9.07575208 9.75317256,8.89818614 10.6533077,8.62846091 C10.667042,8.62434582 10.667042,8.62434582 10.680746,8.62023924 C11.2054589,8.46297777 11.4225643,8.37119707 11.5424309,8.23546308 C11.7235043,8.03018722 11.7452198,7.6907894 11.7026644,7.61530799 C11.6692804,7.58192396 11.6369636,7.54699059 11.6058099,7.51063348 C11.5580242,7.57844064 11.4923727,7.64254749 11.4118283,7.70287773 L10.7593746,8.19158578 L11.0256673,7.42111865 C11.0565569,7.33174556 11.0602632,7.3497997 11.0570494,7.34670615 C11.0514072,7.34137215 11.0514072,7.34137215 11.041706,7.33244227 C11.0157325,7.30843042 10.9915883,7.2847196 10.9692406,7.26126552 C10.6943252,7.36419744 10.2665543,7.19190248 10.2422754,6.8400908 C10.1851485,6.62884517 10.2289504,6.44531179 10.3599008,6.32382987 C10.0375926,6.14121128 9.83964158,5.87534954 9.88841983,5.52004593 C9.93578689,5.17465512 10.0757869,5.01796026 10.3352739,4.96182615 C10.3137464,4.52985366 10.6915894,4.06276024 11.0565415,4.07742337 C11.0791726,4.02460192 11.1152199,3.98052882 11.1692644,3.94874997 C11.2427348,3.86475458 11.3516097,3.794779 11.4519554,3.76058541 C11.4598191,3.74003178 11.4694165,3.71332744 11.4825557,3.67637597 C11.5967829,3.35513454 11.8063389,3.24038629 12.2804555,3.29518251 C12.3990512,3.30891795 12.4901428,3.34188404 12.5613391,3.39437593 C12.711892,3.27525703 12.9186386,3.22701926 13.164578,3.26079916 C13.2459476,3.27193905 13.2986011,3.306242 13.3379118,3.35483967 C13.3436327,3.35599046 13.3494491,3.35718235 13.3553666,3.35841595 L13.5158315,3.39186793 L13.5385175,3.50120474 C13.6395661,3.4909905 13.7128764,3.49843339 13.8056816,3.54182168 C13.8453597,3.56037197 13.882353,3.58457354 13.9162677,3.61387319 C13.9667016,3.61939049 14.0174427,3.63248048 14.068571,3.65167967 C14.1437436,3.67990766 14.2173525,3.72052533 14.2935578,3.77181087 C14.3457107,3.80690933 14.3947997,3.84411611 14.4445146,3.88291804 L14.487072,3.92312829 C14.5639351,4.0150566 14.5852967,4.11756497 14.5822412,4.23222822 Z M15.0569128,6.47633958 C15.0538244,6.47787781 15.0506544,6.47944552 15.0473946,6.48104846 C15.0390736,6.48514194 15.0390736,6.48514194 15.0315409,6.48884763 C15.0264627,6.49135168 15.0360839,6.48013116 15.0420625,6.45520279 L15.0569128,6.47633958 Z M15.0420625,6.45520279 C15.0467978,6.43545845 15.0492479,6.40711473 15.0402993,6.37017994 C15.0352816,6.34954909 14.9957265,6.33140805 14.9685175,6.3505246 L15.0420625,6.45520279 Z M14.7930607,6.08254179 C14.793096,6.08249666 14.7931313,6.0824515 14.7931665,6.08240631 C14.7931311,6.08245162 14.7930956,6.08249695 14.7930602,6.08254229 Z M14.74274,6.27454336 C14.742291,6.28811026 14.7420652,6.30262772 14.7420652,6.31819634 C14.7420652,6.2788544 14.7476118,6.263484 14.7506002,6.25542768 Z M14.7441286,6.23688225 C14.7416088,6.23439184 14.7384168,6.23131931 14.7344227,6.22739759 C14.7370893,6.23001582 14.7397167,6.23261514 14.7423051,6.23519771 Z M14.1529763,6.90050337 C14.1490431,6.89784664 14.1449016,6.89520992 14.1405402,6.89260186 C14.1444182,6.89495905 14.1484655,6.89755927 14.152668,6.90037524 Z M14.0425442,7.42823533 C14.0443265,7.42782959 14.0469108,7.42722121 14.0505899,7.42640384 C14.0486694,7.42683049 14.0467629,7.42725086 14.0448696,7.42766492 Z M10.8376797,6.52543028 C10.8380102,6.52484278 10.8383415,6.52425514 10.8386738,6.52366735 C10.8023675,6.51606167 10.7702152,6.50416502 10.7423058,6.48634155 C10.740933,6.4859152 10.7394,6.48543877 10.7376643,6.48489934 C10.7327934,6.48335164 10.727935,6.48179155 10.7230893,6.48021908 C10.7460946,6.49866874 10.7820583,6.51582219 10.8376797,6.52543028 Z"/>
    </g>
    <g stroke-linecap="round" stroke-linejoin="round" mask="url(#105-mini-b)">
      <use fill="#FFF" xlink:href="#105-mini-e"/>
      <path stroke="#000" stroke-opacity=".4" stroke-width=".5" d="M6.88222923,2.45810187 C6.87199261,2.45047701 6.86135841,2.44157204 6.85020354,2.43127545 L7.01977168,2.24757285 L6.96895824,2.20113312 C6.96593083,2.20457584 6.96255904,2.20841069 6.95879715,2.21268921 L6.95332938,2.21902284 C6.79830947,2.39933235 6.82967768,2.356663 6.84920086,2.46390427 L6.88222923,2.45810187 Z M9.74688151,3.22453558 C9.74694157,3.22446924 9.74700161,3.22440289 9.74706164,3.22433653 C9.74910477,3.22207775 9.75112399,3.21979941 9.75311887,3.21750189 L9.73815803,3.22453558 L9.74688151,3.22453558 Z M9.51089777,3.12833094 C9.51025478,3.12758269 9.5094292,3.12663547 9.50840999,3.12547784 C9.50912872,3.12629419 9.50981661,3.1270793 9.51047498,3.12784187 Z M6.59737669,7.89933713 C6.64544852,7.8367317 6.67561853,7.73753253 6.68851257,7.59748909 C6.69544736,7.52216966 6.69694689,7.45795349 6.69689014,7.32157004 C6.69687935,7.30565927 6.69688333,7.29151358 6.69691014,7.27872823 C6.48974274,7.05700793 6.3686823,6.79884153 6.31259749,6.42931153 C6.14471708,6.37384582 6.03492835,6.22760277 6.00655478,6.04173621 C5.99624466,5.99530603 5.99624466,5.99530603 5.99100026,5.94591829 C5.98963768,5.9126698 5.98963768,5.9126698 5.98986811,5.88888476 C5.98991447,5.88098776 5.98991447,5.88098776 5.9899287,5.872609 C5.9899287,5.76471541 5.96643319,5.66598158 5.92843352,5.59662417 C5.75573039,5.28209868 5.8005228,4.94488602 6.13800773,4.81543241 C6.04685063,4.84116117 6.02238773,4.73178678 5.96469085,4.6541667 C5.96391253,4.65311899 5.95793247,4.64712246 5.94643569,4.63749509 C5.92697363,4.62119763 5.82247078,4.54449507 5.816248,4.53975222 C5.73948162,4.48124288 5.68119842,4.42793364 5.63001284,4.36287321 C5.56011926,4.27397154 5.52274965,4.18353888 5.52578789,4.07977484 C5.52874059,3.97893261 5.50755471,4.02530216 5.62987127,3.78567927 C5.66138034,3.72398972 5.66435254,3.7141983 5.66747008,3.73216141 C5.6682729,3.73678724 5.65979194,3.72127306 5.59960692,3.62316387 C5.46147208,3.39824737 5.68925436,3.11620162 5.85044501,3.0529909 L6.05015023,2.97467674 C6.02884223,2.8329777 6.06954116,2.69494329 6.16589554,2.49249324 C6.28391169,2.24453365 6.43000037,2.14871199 6.70162733,2.06950887 C6.80784437,2.03853727 6.82744514,2.03236352 6.87111048,2.01438001 C6.9576157,1.97913787 7.09898116,1.98046397 7.18933982,2.06387025 L7.20205938,2.07561114 C7.24621617,2.07746575 7.28500029,2.08602253 7.31483079,2.10221161 L7.36057292,2.12703597 C7.4108876,2.08841146 7.50480674,2.00407223 7.52021592,1.992578 C7.64571967,1.8989605 7.76643951,1.88707782 7.9903142,1.92207069 C8.16513037,1.94913957 8.4044191,2.01426754 8.61021059,2.08313369 C8.63677442,2.0920701 8.66289173,2.0993728 8.70423577,2.10975496 C8.71233615,2.11178392 8.71233615,2.11178392 8.72068086,2.11386131 C8.84278834,2.14424402 8.9014094,2.16185212 8.9912164,2.20055539 C9.17402966,2.27911972 9.34280341,2.41824115 9.46458549,2.58378808 L9.58788769,2.42525994 L9.78462494,2.68422176 C9.80583897,2.71214542 9.89556433,2.80856375 9.88368777,2.79507416 C9.92981403,2.84746511 9.96340819,2.90132084 9.98624743,2.96310759 L10.0953633,3.05659927 C10.134846,3.1405801 10.1546275,3.18994619 10.1691135,3.24573539 C10.1802226,3.29362474 10.1802226,3.29362474 10.1871141,3.33780674 C10.1933928,3.38297298 10.1933928,3.38297298 10.2005577,3.43634457 C10.2055131,3.47193995 10.2111251,3.4927063 10.2246881,3.53057218 C10.2275316,3.53847936 10.2275316,3.53847936 10.2307119,3.54729906 C10.2698835,3.65620465 10.28603,3.73991776 10.28603,3.88418942 C10.28603,4.09207561 10.2125466,4.23753482 10.0384246,4.47896552 C9.94761084,4.60488436 9.92830003,4.63330918 9.90561271,4.6782457 C9.88776206,4.71366292 9.87319887,4.74322782 9.86148502,4.76770452 C10.1452273,4.93222469 10.1357877,5.28936777 9.96084201,5.58917294 C9.92048054,5.65817272 9.8950885,5.76014832 9.8950885,5.872609 C9.8950885,5.88466908 9.89561367,5.89197179 9.89832126,5.91894736 C9.90285296,5.95827735 9.90515056,5.9879202 9.90408097,6.02223049 C9.90156491,6.10294064 9.87844039,6.17833286 9.83176442,6.25195703 C9.76658449,6.35542437 9.66946802,6.42418327 9.55575028,6.44891755 C9.48254066,6.81837666 9.42545499,6.96670132 9.28059238,7.15297115 C9.292277,7.47189737 9.35421275,7.67163358 9.52112407,7.81872685 C9.61516403,7.90165129 9.93258678,8.05755886 10.4395166,8.2735394 C10.5267603,8.31059224 10.5267603,8.31059224 10.6147584,8.34758118 C10.710812,8.38787487 11.164832,8.57624507 11.2770174,8.6235938 C11.5106021,8.72218011 11.6598077,8.78918366 11.7566878,8.84113216 C12.4673387,9.22215416 12.75,9.68486114 12.7499957,10.5172456 L12.7296205,13.9888002 L3.24515875,13.9888002 L3.25004598,13.7340058 L3.31175689,10.5191164 C3.31175689,9.54980848 3.81118837,9.13964021 5.11502089,8.6345566 C5.28881219,8.56754151 5.37791863,8.53309153 5.46175119,8.49998214 C5.99045865,8.29117087 6.32197432,8.12274952 6.59737669,7.89933713 Z M9.69271027,2.95974839 C9.69305808,2.96032823 9.69340942,2.96091396 9.69376437,2.96150572 C9.69341742,2.96092263 9.69307036,2.96034171 9.69272318,2.95976295 Z"/>
    </g>
    <rect width="15" height="11" x=".5" y=".5" stroke="#000" stroke-opacity=".4" mask="url(#105-mini-b)" rx="2"/>
  </g>
</svg>
