<svg xmlns="http://www.w3.org/2000/svg" xmlns:xlink="http://www.w3.org/1999/xlink" width="64" height="64" viewBox="0 0 64 64">
  <defs>
    <rect id="105-large-a" width="64" height="48" rx="8"/>
    <path id="105-large-c" d="M8.12915831,30.5567991 L7.07704777,31.7187313 C4.67880446,32.6480497 2.28738565,33.8628746 -0.245072848,34.3764452 C-0.704020525,34.2638351 -1.08050548,34.4714245 -1.21415196,35.5565771 C-1.58722467,38.5828334 -2.0433288,45.0616472 -1.99669471,48.4069657 L28.1232394,48.4069657 C28.4257923,45.4040276 27.767228,37.4294322 27.3082803,35.4206487 C27.1262936,34.6227089 27.1786148,34.2490479 26.2288718,34.4503812 C25.245575,33.7986072 20.7505038,32.1850967 19.3304389,31.7283999 C18.4830634,31.3592888 18.6292215,31.0311268 17.8717019,30.4658009 C17.6265886,30.2826672 17.3456466,30.4174582 17.251241,30.3162228 C17.1898205,30.2508179 17.1579728,29.807202 17.1545606,29.5359139 C18.4580402,28.6913376 17.9626952,26.8992433 18.1418384,26.9271115 C18.5769003,26.9947913 18.9988819,26.695635 19.055184,26.2594128 L19.4322377,23.3508853 C19.5021888,22.8976009 19.086463,22.3180566 18.6491263,22.2509455 C18.6650501,22.0615557 18.6792678,21.8698909 18.6792678,21.6748137 L18.6792678,20.7824633 C18.6792678,20.4122147 18.6275153,20.0539096 18.5319723,19.7138041 C18.0872424,16.3645045 13.3226034,15.4158491 10.9163982,16.3275365 C9.90750947,16.7102974 10.2316733,16.6130431 9.93196393,16.7734273 C9.50713876,16.9508737 9.12155446,17.2045309 8.79170359,17.517337 C7.75551689,18.2356534 7.07363552,19.4328474 7.07363552,20.7824633 L7.07363552,21.6748137 C7.07363552,21.9358645 7.0992274,22.5137026 7.14813632,22.7611037 C6.59762659,22.614938 6.2256913,23.5061509 6.3206656,23.8348816 L7.02017693,26.2594128 C7.08785323,26.6944975 7.17657174,26.9947913 7.61106496,26.9271115 L7.80385711,26.8969684 C7.89200691,28.1231681 8.24744966,29.2680382 8.91340719,29.8737444 C8.95037324,30.9651531 8.4265928,30.4174582 8.12915831,30.5567991 Z"/>
    <path id="105-large-d" d="M57.1811192,16.3339586 C56.8805743,16.1103388 55.912748,15.2886108 55.244274,15.4710845 C55.2132654,15.4311311 55.1798716,15.3893888 55.1428998,15.3464538 C54.3688773,14.4340852 53.4916915,15.7346576 53.2173846,14.4126177 C53.0343146,14.3744532 52.8822532,14.3482152 52.7510629,14.3327109 C52.6359733,14.2009243 52.6228543,14.0476703 52.5226726,14.0339549 C51.1767799,13.8490959 50.39262,14.4227551 50.2047794,15.664292 C50.0735891,14.9964143 49.9078123,14.2784458 49.0067738,14.17409 C46.6024143,13.8962051 47.1724956,14.8849026 46.4670498,15.9403878 L46.2833834,15.9523142 C46.0245808,15.9690111 45.3716112,16.3816641 45.3250983,16.6070728 C45.1211571,16.6535857 45.0841853,16.9767908 45.1056527,17.2546756 C44.8039152,17.2928401 44.4783248,17.3214634 44.187321,17.3089407 C43.40495,17.2755468 42.0560757,18.7466666 42.3828587,20.1015041 C42.4079041,20.20586 42.4651507,20.3090232 42.5343238,20.4050307 C42.5188195,20.5147534 42.510471,20.6280541 42.510471,20.74374 C41.4788386,20.74374 40.7405952,20.7854824 40.5444062,22.2160525 C40.338676,23.714603 42.0674057,24.6096783 43.2534849,24.9865521 C43.3399512,25.0139828 43.4031611,25.0294871 43.5093059,25.0646699 C43.5713231,25.2489326 43.7370999,24.878022 43.7370999,25.6514481 C42.7525767,25.6514481 41.5772313,25.7784642 41.9344265,27.0993115 C42.0340119,28.3778201 43.6828348,28.25796 43.774668,27.8292064 C42.510471,27.4368282 43.1676149,26.2352448 44.6160746,26.026533 C43.9225552,26.8816549 43.6297624,27.4714148 44.8456575,28.5954767 C45.0728552,28.8053811 45.3775744,29.0570279 45.0478098,30.0111388 C45.6632113,29.5501839 46.0102692,29.0761101 45.5606444,28.3813981 C45.2654663,27.9264064 45.2201461,27.404627 46.062149,27.587697 C46.4276927,28.4314889 46.9339678,29.1703285 47.5177644,29.7541252 C47.9017941,30.3450776 48.133166,32.2276578 46.9196562,33.6033665 C45.0501951,35.7203001 38.7882457,35.5038362 38.5837082,38.3780954 C37.6945961,40.6357603 37.9295459,46.1564297 38.5670113,48.7921611 L62.0101132,48.7921611 C62.6642755,46.1385401 62.9886732,40.5946143 62.0786899,38.3786917 C61.860437,35.298106 55.5382595,35.6892915 53.6574683,33.6009812 C52.5763414,32.399994 52.8422998,30.1256321 53.143441,29.7905006 C53.7504941,29.1941813 54.2758514,28.4314889 54.6497437,27.5560921 C54.7445584,29.4422501 56.099396,28.5781834 56.3790697,28.6765761 C56.2490721,28.5853393 56.1035702,28.4619012 56.0427456,28.4249294 C55.5472043,28.1285587 56.0999923,27.4809559 56.4530133,27.0039004 C56.5329201,27.120779 56.6843852,27.2078416 56.8316761,27.2949042 C57.2425401,27.5387988 57.4816642,28.0325512 57.2312101,28.454149 C57.0570848,28.7463455 56.8316761,29.1589985 56.9694259,29.6962822 C56.8787853,29.3683066 57.0159388,29.2812439 57.31708,29.1983555 C57.9921135,29.0129002 58.6224231,28.596073 57.916381,28.0253954 C57.4548298,27.6520995 56.8805743,27.2955006 58.1280743,26.5369824 C59.0631031,25.9680937 57.9682608,25.5649818 57.9682608,25.2727854 C57.9682608,24.3854622 58.1727983,23.9847356 58.385088,23.7134103 C58.5872402,23.4540114 58.8782441,23.4546077 59.1102123,23.7122177 C59.4149315,24.0515234 59.6009831,24.6162378 59.1143865,24.833298 C58.4137113,25.1457694 58.4465089,26.1595122 58.7011372,26.5405603 C59.3922713,27.576367 60.4322522,26.2203368 60.4489492,26.2203368 C59.9176287,26.5936327 59.3177314,26.2441896 59.1895228,25.7170433 C59.0678736,25.2149424 59.6874494,25.1082012 60.0094618,24.8804073 C61.0673323,24.1320265 60.3111994,23.9006546 59.8281808,23.5619452 C59.5801119,23.3884163 59.4763524,23.1969978 59.4596554,22.9936529 C59.3869045,22.1325678 60.870547,21.0615782 59.5151131,20.2559508 C59.3606664,18.3202983 58.0243148,18.5480923 58.0094068,18.5355696 C58.0094068,17.3178855 57.3296028,17.9702588 57.3176764,17.1497234 C57.3397402,16.8509674 57.3301991,16.5122581 57.1811192,16.3339586 Z"/>
    <path id="105-large-e" d="M27.0969111,32.3105475 C22.4642173,36.1412503 14.2470276,35.702841 14.2470276,42.0764657 L14,54.9552007 L49.9243339,54.9552007 L50,42.0631132 C50,39.023179 48.9948278,37.5543968 46.5542253,36.2458454 C44.9466917,35.3838631 38.6471182,33.1042834 37.4231078,32.024951 C36.1983556,30.9456186 36.1241732,29.3217982 36.1145295,28.2662037 C36.9023471,27.3337495 37.0306827,26.8040977 37.3964022,24.7797004 L37.6827464,24.824209 C38.0492077,24.8813283 38.3155227,24.7374173 38.4809495,24.4748168 C38.7109151,24.1120721 38.580354,23.8976893 38.580354,23.490436 C38.580354,22.8532219 38.732428,22.2753525 38.9801974,21.8517795 C39.3689134,21.1856348 39.6003627,20.0929498 38.6382163,19.8080951 C38.0610769,19.637479 38.2621113,19.190168 38.7294607,18.2629065 C39.1530425,17.4239203 40.14412,16.5634216 40.14412,15.5367577 C40.14412,14.5991108 39.9089617,14.5813074 39.8117826,13.8832649 C39.7272147,13.2712723 39.7450184,13.2230547 39.476478,12.6518617 C39.3956191,12.6281238 39.0899874,12.8380558 39.100373,12.8981423 C39.100373,11.9182123 38.7925158,11.9345322 38.3422284,11.3418266 C38.3370356,11.3485029 38.3956397,11.6237141 38.3956397,11.6244559 C38.5499392,12.1044065 38.0039564,12.5057252 37.9156793,12.3573634 C37.7339323,12.0532216 37.4653918,11.6118451 37.295514,11.3047361 C36.9275691,10.6415587 36.2829236,10.0273407 35.5700303,9.72097347 C34.9951163,9.4732092 34.6026912,9.44205321 34.1219889,9.2803388 C33.5567187,9.09117745 32.5508047,8.79148653 31.8082384,8.67650611 C30.6027736,8.48808657 30.8312555,8.74623617 29.9766737,9.35674515 C29.4878114,9.7068791 28.6792227,9.83150304 28.3958458,9.76844926 C28.3884275,9.71874804 28.7422778,9.33819992 28.7823363,9.28775689 C28.6347133,9.2076415 27.2897855,9.70465367 27.3187166,9.86933531 C27.3187166,9.47766005 27.7719714,9.32633097 28.0790867,8.9902914 C28.0597993,8.97248798 27.8817614,8.97545522 27.8617322,8.98361512 C26.9144223,9.37380676 26.1021245,9.27440433 25.5665272,10.3997289 C25.1117888,11.3551792 25.0116425,11.682317 25.5368543,12.5680372 C25.7846236,12.984934 25.2245461,13.4567246 24.9745513,13.5598361 C24.3447423,13.820953 23.9308043,14.1696033 23.7668611,13.1429394 C23.729028,13.1577755 23.1088627,13.7386121 23.2505512,13.9693148 C23.7179006,14.7311529 23.8150796,14.804592 23.4100435,15.597586 C23.1199901,16.1658119 22.9434359,16.3720348 23.3061881,16.8334402 C23.7193843,17.3586411 24.3914773,17.6568484 24.6615014,18.0203349 C25.1147561,18.6301021 25.5902656,19.9386535 24.9181726,20.1923523 C24.1911847,20.4668217 24.1919265,21.1797003 24.5902862,21.9051897 C24.81951,22.3235701 24.9597148,22.879927 24.9597148,23.490436 C24.9597148,23.6981426 24.9515547,23.7330076 24.9997733,23.9384888 C25.0880504,24.5059728 25.3929403,24.8561068 25.9812071,24.8093728 L26.1473758,24.7507699 C26.3120608,26.8664097 26.8981022,27.8700776 27.7942261,28.7075802 C27.7556513,29.6867683 27.9373983,31.3580645 27.0969111,32.3105475 Z"/>
  </defs>
  <g fill="none" fill-rule="evenodd" transform="translate(0 8)">
    <mask id="105-large-b" fill="#fff">
      <use xlink:href="#105-large-a"/>
    </mask>
    <use fill="#8D85CC" xlink:href="#105-large-a"/>
    <g stroke-linecap="round" stroke-linejoin="round" mask="url(#105-large-b)">
      <use fill="#BAB5E0" xlink:href="#105-large-c"/>
      <path stroke="#000" stroke-opacity=".4" stroke-width=".5" d="M8.66536093,29.9824601 C8.07271755,29.3889511 7.70268993,28.3853945 7.57802699,27.1833976 C7.06805175,27.2353453 6.87252636,26.9361694 6.7799744,26.3287146 L6.08048855,23.9042716 C5.94004789,23.4181701 6.32859441,22.6589531 6.86451285,22.5190129 C6.83944116,22.2565284 6.82363552,21.9186804 6.82363552,21.6748137 L6.82363552,20.7824633 C6.82363552,19.3851316 7.51625198,18.0973226 8.61967594,17.3359355 C8.97410823,16.9998183 9.38596309,16.7305558 9.81400824,16.553004 C9.87932833,16.5180491 9.88838845,16.5122117 9.94773199,16.4703697 C9.95340417,16.4663828 9.95340417,16.4663828 9.95965018,16.4620727 C10.0632418,16.3910157 10.2175784,16.3252735 10.8278205,16.0937546 C13.8602038,14.9448145 18.3601457,16.520466 18.7726556,19.646191 C18.8761033,20.0144348 18.9292678,20.3955682 18.9292678,20.7824633 L18.9292678,21.6748137 C18.9292678,21.8004896 18.9244379,21.9202934 18.9139007,22.0711164 C19.3886116,22.2802621 19.7579002,22.8797037 19.6801631,23.3830257 L19.3031274,26.2914142 C19.2395224,26.7842181 18.8253923,27.1473622 18.34526,27.1837265 C18.3453146,27.2037563 18.3454297,27.2265449 18.3455946,27.2526511 C18.3489777,27.7882202 18.3217004,28.1232934 18.1989136,28.5201775 C18.0551115,28.9849893 17.7995542,29.3737699 17.4087209,29.6637345 C17.4194623,29.8939892 17.4454918,30.157874 17.4340776,30.1457212 C17.3989577,30.1080605 17.409872,30.1097805 17.4570922,30.1099289 C17.6258901,30.1104597 17.717935,30.1197126 17.8399417,30.1659423 C17.9039987,30.1902142 17.9645848,30.223126 18.0212251,30.2654443 C18.3315877,30.4970633 18.4145235,30.5863801 18.7381278,30.9845948 C18.8802755,31.1595162 18.9782355,31.2521696 19.1447755,31.353637 C19.2252595,31.4026733 19.3191577,31.4507977 19.4069788,31.4904048 C21.6031862,32.1967113 25.2834102,33.5929841 26.2774378,34.1859292 C27.0358999,34.0469743 27.3150381,34.2677579 27.4659182,34.960529 C27.4694072,34.9765491 27.5302085,35.2694173 27.5520003,35.3649659 C28.0875997,37.7092491 28.6484753,45.6877201 28.3719802,48.4320268 L28.3493171,48.6569657 L-2.24323398,48.6569657 L-2.24667043,48.4104503 C-2.28981927,45.3151474 -1.87927721,38.9085996 -1.46227724,35.5260182 C-1.32901088,34.443952 -0.911069655,33.9868863 -0.242901837,34.120837 C1.21889015,33.8199218 2.43146494,33.3792343 4.89657774,32.3427362 C5.86574088,31.9352353 6.17282519,31.8076303 6.65263264,31.6168279 C6.74740355,31.5791409 6.84019538,31.5426135 6.9314172,31.5071001 L7.94384091,30.3889972 L8.02310073,30.3304105 C8.1586185,30.2669237 8.26364843,30.2699995 8.46628874,30.305459 L8.47485053,30.3069595 C8.59058489,30.3272592 8.61804137,30.3265555 8.61458412,30.3295443 C8.63837728,30.3089749 8.66554256,30.2022059 8.66536093,29.9824601 Z"/>
    </g>
    <g stroke-linecap="round" stroke-linejoin="round" mask="url(#105-large-b)">
      <use fill="#BAB5E0" xlink:href="#105-large-d"/>
      <path stroke="#000" stroke-opacity=".4" stroke-width=".5" d="M46.3253222,15.6990644 C46.428829,15.5308537 46.4812605,15.3944207 46.6368782,14.9567769 C46.9705055,14.0185163 47.4702888,13.7448459 49.0355359,13.92575 C49.6594159,13.9980061 49.9963972,14.2593371 50.2160701,14.7812635 C50.6236272,13.981117 51.4281217,13.6312707 52.5565825,13.7862653 C52.6968215,13.8054647 52.7748489,13.8826283 52.8424598,14.0041358 C52.8297442,13.9812976 52.8664666,14.0508403 52.8938,14.0996056 C53.0040603,14.1159392 53.127234,14.1384494 53.268405,14.1678792 L53.42887,14.2013312 L53.462171,14.3618276 C53.555837,14.8132571 53.6030973,14.8352147 54.0485959,14.7731662 C54.4319545,14.7197725 54.6435334,14.7244205 54.9050863,14.8467017 C55.0605978,14.9194065 55.2031035,15.0309744 55.332342,15.183323 C55.3369688,15.1886961 55.3415669,15.1940767 55.3461471,15.1994769 C55.5519609,15.1798401 55.7739677,15.2199797 56.0106281,15.3088479 C56.2486778,15.3982378 56.4950412,15.534182 56.7554852,15.7094587 C56.8692375,15.7860131 56.9793736,15.865693 57.1004016,15.9574256 C57.1453528,15.9914961 57.3020736,16.112345 57.3303541,16.133387 L57.3729114,16.1735972 C57.5582042,16.3952074 57.5998034,16.7239255 57.56765,17.1460901 C57.5706249,17.3507633 57.5853628,17.3711952 57.7200672,17.4394038 C57.7481136,17.4535416 57.7481136,17.4535416 57.7805024,17.4703822 C58.0611878,17.6190915 58.211323,17.8468948 58.2495304,18.2870826 C58.4638467,18.3025705 58.6784098,18.361557 58.8983235,18.4938563 C59.3598515,18.7715096 59.6633968,19.2993449 59.7523941,20.1099359 C60.4307568,20.5621565 60.4768945,21.115124 60.1219532,21.8764871 C60.0876746,21.950016 60.0560199,22.0142029 59.995953,22.1335131 C59.7614628,22.599278 59.6928861,22.7846275 59.7088169,22.9731939 C59.720303,23.1130788 59.7954448,23.2339508 59.9717159,23.357256 C60.0206442,23.3915662 60.0704747,23.4235604 60.1587934,23.4782633 C60.190593,23.4979377 60.190593,23.4979377 60.222889,23.5179663 C60.5814429,23.7408321 60.73383,23.8763167 60.7837175,24.1228133 C60.8483869,24.4423482 60.6355465,24.7437239 60.1538403,25.0845025 C60.075263,25.1400886 59.9964346,25.1832125 59.8578997,25.2515206 L59.7944697,25.2827248 C59.4678543,25.44378 59.3981055,25.5162424 59.4324414,25.6579624 C59.5312089,26.0640577 59.9579469,26.2597714 60.3052294,26.0157772 L60.4489492,26.2203368 L60.4489492,26.4703368 C60.6559524,26.382995 60.6559524,26.382995 60.6072604,26.4168357 C60.5768528,26.4511046 60.5768528,26.4511046 60.5306572,26.5014885 C60.4446236,26.5940479 60.354501,26.6820564 60.2558016,26.765902 C59.928763,27.0437228 59.5956818,27.2047269 59.2535982,27.1775875 C58.9580288,27.1541383 58.6983246,26.9867697 58.4932749,26.6794604 C58.4791014,26.65825 58.4656171,26.6364014 58.4528239,26.6139706 C58.3956887,26.6608238 58.3306772,26.706351 58.2579574,26.7505951 C57.7859072,27.037616 57.6146333,27.2418245 57.6247801,27.3641744 C57.6319704,27.4508739 57.7224997,27.5511125 57.9906785,27.7646686 L58.0165689,27.7852901 C58.0449307,27.8079206 58.0449307,27.8079206 58.073534,27.8309657 C58.4979298,28.1739951 58.5941826,28.5708032 58.3323866,28.9092844 C58.2034102,29.0760404 57.9939816,29.2138401 57.7329338,29.321338 L58.0088149,29.5149609 L57.6011414,29.3715363 C57.5313881,29.3960956 57.4586626,29.4187211 57.3834246,29.4393916 C57.1587316,29.5012378 57.1708523,29.4866125 57.210393,29.6296876 L56.7272583,29.7583696 C56.6617261,29.5027659 56.6557917,29.2783461 56.7027278,29.0554633 L56.2961015,28.9124071 C56.3088671,28.9168983 56.2458254,28.9276733 56.0397037,28.9734657 C55.8383497,29.018199 55.6926969,29.0402181 55.5372018,29.0403869 C55.0696432,29.0408945 54.726853,28.8180594 54.5444194,28.3416319 C54.201292,28.9607408 53.7902652,29.5053708 53.3293961,29.9575955 C52.9451895,30.3851681 53.0327675,32.5333561 53.8432338,33.4336755 C54.4513569,34.1088965 55.3491324,34.4691286 57.6261788,35.1097033 L57.6772574,35.1240727 C61.0312945,36.0676795 62.2113366,36.7134337 62.3099496,38.2837234 C63.1555193,40.3427911 63.0228935,45.7282895 62.2528465,48.851999 L62.2059683,49.0421611 L38.3702672,49.0421611 L38.3240171,48.8509305 C37.5911062,45.8205597 37.5169261,40.4046436 38.3343388,38.3603498 C38.4430063,36.8333023 39.5744115,36.2073725 42.828511,35.2322826 C42.8834187,35.215831 42.8834187,35.215831 42.9383036,35.1993841 C45.1913647,34.5241201 46.1195152,34.1317471 46.732173,33.4379879 C47.6811265,32.3621963 47.7916738,30.6344229 47.3409878,29.9309019 C46.7527974,29.3427115 46.2537392,28.6171303 45.886729,27.8087669 C45.6979831,27.7790091 45.6300546,27.8015194 45.6211545,27.8271844 C45.5992461,27.8903608 45.6489746,28.058207 45.7705224,28.2455628 C46.2598418,29.0016066 46.0159419,29.5983325 45.1976857,30.2112318 L44.545232,30.6999399 L44.8115247,29.9294727 C45.0275304,29.3045014 44.9791117,29.0686408 44.7483287,28.8464879 C44.7138238,28.8138759 44.7138238,28.8138759 44.6759492,28.7790498 C44.3656418,28.492179 44.1376903,28.2331954 43.9867615,27.9868395 C43.6608577,28.7824467 41.7855997,28.4057033 41.6930953,27.1645744 C41.4989767,26.4467566 41.6940706,25.9349426 42.2157465,25.6590624 C42.535281,25.4900815 42.9325708,25.4202968 43.4787014,25.4048717 C43.4772255,25.3877151 43.4755859,25.372239 43.4738076,25.3584188 C43.4244524,25.3424635 43.3807491,25.31547 43.3447357,25.2747879 C43.3250588,25.2688618 43.3028169,25.2623199 43.2747643,25.2541423 L43.2685571,25.2523242 C43.2257408,25.2397227 43.2257408,25.2397227 43.1777779,25.2248134 C41.3632548,24.648253 40.1012599,23.6058608 40.2967245,22.1820853 C40.4753783,20.8793787 40.9765347,20.531575 42.2719461,20.4967647 C42.2728598,20.4869398 42.2738275,20.4771233 42.2748491,20.4673158 C42.2106923,20.3653041 42.1647313,20.2638868 42.139828,20.1601224 C41.8075874,18.7826576 43.1163896,17.0130026 44.1980692,17.0591718 C44.3865893,17.0672844 44.601527,17.0575823 44.850589,17.0322987 C44.861574,16.7404525 44.9461831,16.5124847 45.1452192,16.4084099 C45.3483672,16.0903244 45.9422798,15.7238011 46.2671838,15.7028396 L46.3253222,15.6990644 Z"/>
    </g>
    <g stroke-linecap="round" stroke-linejoin="round" mask="url(#105-large-b)">
      <use fill="#FFF" xlink:href="#105-large-e"/>
      <path stroke="#000" stroke-opacity=".4" stroke-width=".5" d="M28.9278115,9.50139835 C29.238205,9.44318358 29.6015861,9.31788376 29.8313495,9.1533223 C30.0578141,8.99153707 30.5016111,8.5921357 30.5292977,8.57148329 C30.8299713,8.34720065 31.1308217,8.31758738 31.846493,8.42945027 C32.4954294,8.52993287 33.4164238,8.78060282 34.2017023,9.04338779 C34.3302811,9.08664337 34.4514786,9.12053156 34.6342772,9.16643527 C34.667819,9.17483666 34.667819,9.17483666 34.7016306,9.18325387 C35.152953,9.29555161 35.3562568,9.35661833 35.6687391,9.49128549 C36.4170851,9.81288854 37.1104669,10.4559082 37.5142762,11.1837275 C37.5883966,11.3177239 37.6856156,11.4850812 37.8123831,11.6982623 C37.8248052,11.719144 37.8248052,11.719144 37.8372426,11.740021 C37.8768129,11.8064194 37.9697267,11.9613813 38.0408525,12.0799747 C38.047665,12.0733302 38.0544888,12.0662642 38.0612205,12.058822 C38.15764,11.9522259 38.1966477,11.8223153 38.1456397,11.6244559 C38.1451032,11.6521942 38.1451032,11.6521942 38.123708,11.5436694 L38.1214087,11.5322387 C38.1108266,11.4789808 38.1108266,11.4789808 38.102079,11.4315384 C38.0858075,11.415235 38.0858075,11.415235 38.1448918,11.1883395 L38.344559,10.9316299 L38.5412962,11.1905917 C38.6528673,11.3374508 39.0422136,11.7558399 38.9718344,11.6759022 C39.1647682,11.8950394 39.2735067,12.1117224 39.3210842,12.4308237 C39.404451,12.40271 39.4844478,12.3936509 39.5468991,12.4119849 L39.7027218,12.5454955 C39.8424345,12.8426685 39.9069954,13.003784 39.9505262,13.1714324 C39.9728816,13.2575291 39.989241,13.3438056 40.0064902,13.4607069 C40.0161595,13.526238 40.0534456,13.8057411 40.0593946,13.8487933 C40.0872441,14.0488375 40.1224622,14.1791581 40.1926793,14.3751938 C40.2047506,14.4087615 40.2047506,14.4087615 40.2171111,14.4430383 C40.3458711,14.8010193 40.39412,15.0511708 40.39412,15.5367577 C40.39412,16.1564202 40.151386,16.6369084 39.5453967,17.4771493 C39.1532463,18.0208897 39.0693736,18.1443472 38.9527083,18.3754256 C38.6683954,18.9395268 38.5656051,19.1776207 38.5395081,19.3555269 C38.520502,19.485094 38.5440883,19.5195732 38.7091867,19.5683803 C39.7427371,19.874375 39.7815111,20.9745974 39.1959901,21.9780075 C38.9644579,22.3738223 38.830354,22.9123898 38.830354,23.490436 C38.830354,23.5710691 38.8352499,23.6391492 38.8474293,23.7545242 C38.8657017,23.9276192 38.8694717,23.9762586 38.8666881,24.0655527 C38.8608034,24.2543206 38.808373,24.4252581 38.6924766,24.6080696 C38.4651132,24.9689889 38.0934124,25.1412369 37.6443482,25.0712425 L37.5987226,25.0641506 C37.2365916,27.03588 37.0607947,27.51906 36.3656275,28.3557971 C36.3901666,29.9851826 36.6713891,31.0292612 37.5884549,31.8374401 C38.0529726,32.2470517 39.3394316,32.8789179 41.4640937,33.7841432 C41.6857571,33.8785843 41.9183443,33.9768272 42.168908,34.0819367 C42.5552491,34.2440037 44.3702975,34.9970564 44.8164367,35.185353 C45.7291583,35.5705745 46.3122597,35.832427 46.6723568,36.0255162 C49.2736373,37.4202166 50.25,39.0184894 50.2499957,42.0645804 L50.1728709,55.2052007 L13.7451588,55.2052007 L13.750046,54.9504064 L13.9970276,42.0764657 C13.9970276,38.6209984 15.7827022,37.1544768 20.7310037,35.2375849 C20.8747518,35.1818992 21.3664491,34.9921764 21.4252757,34.9694331 C21.7009938,34.8628361 21.9149798,34.7794569 22.1225063,34.697495 C24.3405764,33.8214755 25.734027,33.1092581 26.9220199,32.13074 C27.2558216,31.7439542 27.4332253,31.1936481 27.5008914,30.4587193 C27.5314252,30.1270886 27.537797,29.8542239 27.5375605,29.2859681 C27.5374641,29.054456 27.5380412,28.9246299 27.5407818,28.8115168 C26.5888654,27.8894856 26.1007989,26.8282415 25.9240909,25.0628517 C25.2690998,25.0830662 24.8612756,24.6744278 24.7563848,23.9956028 C24.729916,23.8828073 24.7174539,23.8097069 24.7123055,23.733271 C24.7091462,23.6863648 24.7088684,23.6570461 24.7094585,23.5601044 C24.7096517,23.5273231 24.7096517,23.5273231 24.7097148,23.490436 C24.7097148,22.9369673 24.586243,22.4181088 24.3711482,22.0255165 C23.8699553,21.1127482 23.9824808,20.2783924 24.8298843,19.9584609 C25.171723,19.8294251 24.9652856,18.8480837 24.4608169,18.1694179 C24.4177114,18.1113925 24.3545836,18.0480908 24.2672586,17.9749652 C24.1677025,17.8915972 23.7269803,17.5681178 23.7196261,17.5625126 C23.4585478,17.3635255 23.2680479,17.189283 23.1096539,16.9879533 C22.9296576,16.7590057 22.8464857,16.5577338 22.8528303,16.3410502 C22.8568174,16.2048797 22.8947383,16.075012 22.9674874,15.9157859 C23.0086191,15.8257609 23.2207942,15.4184559 23.1874039,15.4838688 C23.3832727,15.1003899 23.432661,14.9376885 23.4088341,14.8003986 C23.387169,14.6755653 23.3598347,14.6255629 23.0375203,14.10015 C22.8175919,13.742054 23.4031128,13.0170473 23.6755908,12.9101954 L23.964755,12.7968 L24.0137333,13.1035175 C24.0711798,13.4632654 24.1391343,13.5753097 24.1962074,13.583606 C24.269927,13.5943219 24.2948442,13.5850669 24.7629245,13.3786003 C24.8195917,13.3537823 24.8195917,13.3537823 24.8792276,13.3287228 C25.15343,13.2156268 25.4224333,12.8648451 25.3218176,12.695549 C24.7869263,11.793505 24.8066379,11.4145981 25.340791,10.2922899 C25.7030355,9.53119059 26.1151991,9.26084659 27.016457,8.99805073 C27.4708286,8.86556149 27.5604691,8.83732699 27.7674096,8.75209135 C27.8731093,8.70902942 28.1457339,8.71158682 28.2486549,8.8065888 L28.4314498,8.97531911 L28.3081252,9.11025849 C28.5717651,9.03818177 28.8011405,9.01351887 28.901583,9.06802928 L29.1632841,9.21005509 L28.9781125,9.44322939 C28.9732306,9.44937687 28.9533317,9.47220192 28.9276521,9.50142823 L28.9278115,9.50139835 Z"/>
    </g>
    <rect width="63" height="47" x=".5" y=".5" stroke="#000" stroke-opacity=".4" mask="url(#105-large-b)" rx="8"/>
  </g>
</svg>
