<svg xmlns="http://www.w3.org/2000/svg" xmlns:xlink="http://www.w3.org/1999/xlink" width="16" height="16" viewBox="0 0 16 16">
  <defs>
    <path id="106-mini-a" d="M2,0 L12,0 C13.1045695,-2.02906125e-16 14,0.8954305 14,2 L14,14 C14,15.1045695 13.1045695,16 12,16 L2,16 L2,0 Z"/>
    <path id="106-mini-b" d="M8,12 C5.790861,12 4,10.209139 4,8 C4,5.790861 5.790861,4 8,4 C10.209139,4 12,5.790861 12,8 C12,10.209139 10.209139,12 8,12 Z M8,11 C9.65685425,11 11,9.65685425 11,8 C11,6.34314575 9.65685425,5 8,5 C6.34314575,5 5,6.34314575 5,8 C5,9.65685425 6.34314575,11 8,11 Z"/>
  </defs>
  <g fill="none" fill-rule="evenodd">
    <use fill="#82ADD9" xlink:href="#106-mini-a"/>
    <path stroke="#455C73" d="M2.5,0.5 L2.5,15.5 L12,15.5 C12.8284271,15.5 13.5,14.8284271 13.5,14 L13.5,2 C13.5,1.17157288 12.8284271,0.5 12,0.5 L2.5,0.5 Z"/>
    <path stroke="#455C73" stroke-width=".5" d="M8,9.75 C5.94302859,9.75 4.25,9.02441632 4.25,8 C4.25,6.97558368 5.94302859,6.25 8,6.25 C10.0569714,6.25 11.75,6.97558368 11.75,8 C11.75,9.02441632 10.0569714,9.75 8,9.75 Z M6.32107481,9.08498494 C5.36358018,8.88000672 4.75,8.51048791 4.75,8 C4.75,7.48951209 5.36358018,7.11999328 6.32107481,6.91501506 C6.52966342,5.36189666 7.16717455,4.25 8,4.25 C8.83282545,4.25 9.47033658,5.36189666 9.67892519,6.91501506 C10.6364198,7.11999328 11.25,7.48951209 11.25,8 C11.25,8.51048791 10.6364198,8.88000672 9.67892519,9.08498494 C9.47033658,10.6381033 8.83282545,11.75 8,11.75 C7.16717455,11.75 6.52966342,10.6381033 6.32107481,9.08498494 Z M6.50183272,9.12097911 L6.31915231,9.08721293 L6.2987801,8.9025585 C6.26648774,8.60985942 6.25,8.30737118 6.25,8 C6.25,7.69262882 6.26648774,7.39014058 6.2987801,7.0974415 L6.31915231,6.91278707 L6.50183272,6.87902089 C6.95804987,6.79469491 7.46973233,6.75 8,6.75 C8.53026767,6.75 9.04195013,6.79469491 9.49816728,6.87902089 L9.68084769,6.91278707 L9.7012199,7.0974415 C9.73351226,7.39014058 9.75,7.69262882 9.75,8 C9.75,8.30737118 9.73351226,8.60985942 9.7012199,8.9025585 L9.68084769,9.08721293 L9.49816728,9.12097911 C9.04195013,9.20530509 8.53026767,9.25 8,9.25 C7.46973233,9.25 6.95804987,9.20530509 6.50183272,9.12097911 Z M8,10.75 C8.33980945,10.75 8.75,9.51942836 8.75,8 C8.75,6.48057164 8.33980945,5.25 8,5.25 C7.66019055,5.25 7.25,6.48057164 7.25,8 C7.25,9.51942836 7.66019055,10.75 8,10.75 Z"/>
    <use fill="#FFF" xlink:href="#106-mini-b"/>
    <path stroke="#455C73" stroke-width=".5" d="M8,12.25 C5.65278981,12.25 3.75,10.3472102 3.75,8 C3.75,5.65278981 5.65278981,3.75 8,3.75 C10.3472102,3.75 12.25,5.65278981 12.25,8 C12.25,10.3472102 10.3472102,12.25 8,12.25 Z M8,10.75 C9.51878306,10.75 10.75,9.51878306 10.75,8 C10.75,6.48121694 9.51878306,5.25 8,5.25 C6.48121694,5.25 5.25,6.48121694 5.25,8 C5.25,9.51878306 6.48121694,10.75 8,10.75 Z"/>
    <path fill="#FFF" d="M8,9.5 C9.93299662,9.5 11.5,8.82842712 11.5,8 C11.5,7.17157288 9.93299662,6.5 8,6.5 C6.06700338,6.5 4.5,7.17157288 4.5,8 C4.5,8.82842712 6.06700338,9.5 8,9.5 L8,9.5 Z M6.54727237,8.87514331 C5.62456546,8.70459257 5,8.3766088 5,8 C5,7.6233912 5.62456546,7.29540743 6.54727237,7.12485669 C6.71380977,5.61535559 7.30108233,4.5 8,4.5 C8.69891767,4.5 9.28619023,5.61535559 9.45272763,7.12485669 C10.3754345,7.29540743 11,7.6233912 11,8 C11,8.3766088 10.3754345,8.70459257 9.45272763,8.87514331 C9.28619023,10.3846444 8.69891767,11.5 8,11.5 C7.30108233,11.5 6.71380977,10.3846444 6.54727237,8.87514331 Z M6.54727237,8.87514331 C6.9776856,8.95469977 7.47297215,9 8,9 C8.52702785,9 9.0223144,8.95469977 9.45272763,8.87514331 C9.48358702,8.59543273 9.5,8.30218873 9.5,8 C9.5,7.69781127 9.48358702,7.40456727 9.45272763,7.12485669 C9.0223144,7.04530023 8.52702785,7 8,7 C7.47297215,7 6.9776856,7.04530023 6.54727237,7.12485669 C6.51641298,7.40456727 6.5,7.69781127 6.5,8 C6.5,8.30218873 6.51641298,8.59543273 6.54727237,8.87514331 Z M8,11 C8.55228475,11 9,9.65685425 9,8 C9,6.34314575 8.55228475,5 8,5 C7.44771525,5 7,6.34314575 7,8 C7,9.65685425 7.44771525,11 8,11 L8,11 Z"/>
  </g>
</svg>
