<svg xmlns="http://www.w3.org/2000/svg" width="18" height="18" viewBox="0 0 18 18">
  <g fill="#FFF" fill-rule="evenodd">
    <path d="M12 8L16 8 16 14.0327237C16 15.7082908 13.9399112 16.1667366 12 16.6664387L12 8 12 8zM11 8L7 8 7 16.9566727C7.83290684 17.2077521 8.56625152 17.5153826 9 18 9.41559027 17.5079607 10.1540205 17.1962493 11 16.9406073L11 8zM6 8L2 8 2 14.0327237C2 15.7357206 4.0541721 16.1853568 6 16.6836347L6 8z"/>
    <path fill-rule="nonzero" d="M11.5,3.80425725 L11.2414013,4.06930086 L10.3031711,5.03091397 L10.453535,4.54432612 L10.6750211,5.90214561 L10.854102,7 L9.91642237,6.48166347 L8.75670608,5.84058807 L9.24329392,5.84058807 L8.08357763,6.48166347 L7.14589803,7 L7.3249789,5.90214561 L7.54646501,4.54432612 L7.69682892,5.03091397 L6.75859873,4.06930086 L6.5,3.80425725 L6.24140127,4.06930086 L5.30317108,5.03091397 L5.45353499,4.54432612 L5.6750211,5.90214561 L5.85410197,7 L4.91642237,6.48166347 L3.75670608,5.84058807 L4.24329392,5.84058807 L3.08357763,6.48166347 L2.14589803,7 L2.3249789,5.90214561 L2.54646501,4.54432612 L2.69682892,5.03091397 L1.75859873,4.06930086 L1,3.29179607 L2.04835766,3.13162127 L3.34495989,2.93351808 L2.95130205,3.23424591 L3.5311602,1.99886092 L4,1 L4.4688398,1.99886092 L5.04869795,3.23424591 L4.65504011,2.93351808 L5.95164234,3.13162127 L6.5,3.21540287 L7.04835766,3.13162127 L8.34495989,2.93351808 L7.95130205,3.23424591 L8.5311602,1.99886092 L9,1 L9.4688398,1.99886092 L10.0486979,3.23424591 L9.65504011,2.93351808 L10.9516423,3.13162127 L11.5,3.21540287 L12.0483577,3.13162127 L13.3449599,2.93351808 L12.9513021,3.23424591 L13.5311602,1.99886092 L14,1 L14.4688398,1.99886092 L15.0486979,3.23424591 L14.6550401,2.93351808 L15.9516423,3.13162127 L17,3.29179607 L16.2414013,4.06930086 L15.3031711,5.03091397 L15.453535,4.54432612 L15.6750211,5.90214561 L15.854102,7 L14.9164224,6.48166347 L13.7567061,5.84058807 L14.2432939,5.84058807 L13.0835776,6.48166347 L12.145898,7 L12.3249789,5.90214561 L12.546465,4.54432612 L12.6968289,5.03091397 L11.7585987,4.06930086 L11.5,3.80425725 Z"/>
  </g>
</svg>
