<svg xmlns="http://www.w3.org/2000/svg" xmlns:xlink="http://www.w3.org/1999/xlink" width="16" height="16" viewBox="0 0 16 16">
  <defs>
    <path id="108-mini-a" d="M3.59513357,4.51583404 L2.60928681,5.03412435 L2.79756679,3.93636785 L2,3.15893238 L3.10221019,2.99877186 L3.59513357,2 L4.08805695,2.99877186 L5.19026714,3.15893238 L4.39270036,3.93636785 L4.58098033,5.03412435 L3.59513357,4.51583404 Z M8,4.51583404 L7.01415324,5.03412435 L7.20243321,3.93636785 L6.40486643,3.15893238 L7.50707662,2.99877186 L8,2 L8.49292338,2.99877186 L9.59513357,3.15893238 L8.79756679,3.93636785 L8.98584676,5.03412435 L8,4.51583404 Z M12.4048664,4.51583404 L11.4190197,5.03412435 L11.6072996,3.93636785 L10.8097329,3.15893238 L11.911943,2.99877186 L12.4048664,2 L12.8977898,2.99877186 L14,3.15893238 L13.2024332,3.93636785 L13.3907132,5.03412435 L12.4048664,4.51583404 Z"/>
    <path id="108-mini-b" d="M11,7 L14,7 L14,12.4294513 C14,13.8082321 12.5238824,14.2713025 11,14.6842803 L11,7 Z"/>
    <path id="108-mini-c" d="M10,7 L6,7 L6,14.9742431 C6.82985558,15.216907 7.57931993,15.5064828 8,16 C8.40231349,15.4998637 9.15759266,15.2067405 10,14.959526 L10,7 Z"/>
    <path id="108-mini-d" d="M5,7 L2,7 L2,12.4294513 C2,13.8311368 3.47257853,14.2893981 5,14.7005012 L5,7 Z"/>
  </defs>
  <g fill="none" fill-rule="evenodd">
    <use fill="#61AAF2" xlink:href="#108-mini-a"/>
    <path stroke="#38628C" stroke-width=".5" d="M3.59513357,4.79827797 L2.27725405,5.49112824 L2.52894664,4.02364783 L1.46275971,2.98437243 L2.93619381,2.77026992 L3.59513357,1.43511213 L4.25407333,2.77026992 L5.72750743,2.98437243 L4.6613205,4.02364783 L4.91301309,5.49112824 L3.59513357,4.79827797 Z M8,4.79827797 L6.68212048,5.49112824 L6.93381307,4.02364783 L5.86762614,2.98437243 L7.34106024,2.77026992 L8,1.43511213 L8.65893976,2.77026992 L10.1323739,2.98437243 L9.06618693,4.02364783 L9.31787952,5.49112824 L8,4.79827797 Z M12.4048664,4.79827797 L11.0869869,5.49112824 L11.3386795,4.02364783 L10.2724926,2.98437243 L11.7459267,2.77026992 L12.4048664,1.43511213 L13.0638062,2.77026992 L14.5372403,2.98437243 L13.4710534,4.02364783 L13.7227459,5.49112824 L12.4048664,4.79827797 Z"/>
    <use fill="#E6735C" xlink:href="#108-mini-b"/>
    <path stroke="#804033" d="M11.5,7.5 L11.5,14.0208141 C12.9679338,13.5713389 13.5,13.1627952 13.5,12.4294513 L13.5,7.5 L11.5,7.5 Z"/>
    <g>
      <use fill="#E6735C" xlink:href="#108-mini-c"/>
      <path stroke="#804033" d="M9.5,7.5 L6.5,7.5 L6.5,14.6046333 C7.14244401,14.8120149 7.6238462,15.0303093 7.99295799,15.3109919 C8.35899475,15.0242109 8.84459691,14.8022238 9.5,14.5902179 L9.5,7.5 Z"/>
    </g>
    <g>
      <use fill="#E6735C" xlink:href="#108-mini-d"/>
      <path stroke="#804033" d="M4.5,7.5 L2.5,7.5 L2.5,12.4294513 C2.5,13.180946 3.02736031,13.5899823 4.5,14.0382199 L4.5,7.5 Z"/>
    </g>
  </g>
</svg>
