<svg xmlns="http://www.w3.org/2000/svg" xmlns:xlink="http://www.w3.org/1999/xlink" width="18" height="18" viewBox="0 0 18 18">
  <defs>
    <rect id="110-mono-black-a" width="14" height="6" x=".75" rx="2.25"/>
    <rect id="110-mono-black-b" width="14" height="6" x=".75" rx="2.25"/>
    <rect id="110-mono-black-c" width="14" height="6" x=".75" rx="2.25"/>
  </defs>
  <g fill="none" fill-rule="evenodd">
    <g transform="translate(1.25)">
      <use fill="#000" fill-opacity=".2" xlink:href="#110-mono-black-a"/>
      <rect width="13" height="5" x="1.25" y=".5" stroke="#000" rx="2.25"/>
      <path fill="#000" fill-rule="nonzero" d="M3.75,3.5 L3.75,3.5 C4.02614237,3.5 4.25,3.27614237 4.25,3 C4.25,2.72385763 4.02614237,2.5 3.75,2.5 C3.47385763,2.5 3.25,2.72385763 3.25,3 C3.25,3.27614237 3.47385763,3.5 3.75,3.5 L3.75,3.5 Z M3.75,4 L3.75,4 C3.19771525,4 2.75,3.55228475 2.75,3 C2.75,2.44771525 3.19771525,2 3.75,2 C4.30228475,2 4.75,2.44771525 4.75,3 C4.75,3.55228475 4.30228475,4 3.75,4 L3.75,4 Z"/>
      <circle cx="11.75" cy="3" r="1" fill="#000"/>
      <path fill="#000" d="M6.75,3.5 C6.47385763,3.5 6.25,3.27614237 6.25,3 C6.25,2.72385763 6.47385763,2.5 6.75,2.5 C7.02614237,2.5 7.25,2.72385763 7.25,3 C7.25,3.27614237 7.02614237,3.5 6.75,3.5 Z M8.75,3.5 C8.47385763,3.5 8.25,3.27614237 8.25,3 C8.25,2.72385763 8.47385763,2.5 8.75,2.5 C9.02614237,2.5 9.25,2.72385763 9.25,3 C9.25,3.27614237 9.02614237,3.5 8.75,3.5 Z"/>
    </g>
    <g transform="translate(1.25 6)">
      <use fill="#000" fill-opacity=".2" xlink:href="#110-mono-black-b"/>
      <rect width="13" height="5" x="1.25" y=".5" stroke="#000" rx="2.25"/>
      <path fill="#000" fill-rule="nonzero" d="M3.75,3.5 L3.75,3.5 C4.02614237,3.5 4.25,3.27614237 4.25,3 C4.25,2.72385763 4.02614237,2.5 3.75,2.5 C3.47385763,2.5 3.25,2.72385763 3.25,3 C3.25,3.27614237 3.47385763,3.5 3.75,3.5 L3.75,3.5 Z M3.75,4 L3.75,4 C3.19771525,4 2.75,3.55228475 2.75,3 C2.75,2.44771525 3.19771525,2 3.75,2 C4.30228475,2 4.75,2.44771525 4.75,3 C4.75,3.55228475 4.30228475,4 3.75,4 L3.75,4 Z"/>
      <circle cx="11.75" cy="3" r="1" fill="#000"/>
      <path fill="#000" d="M6.75,3.5 C6.47385763,3.5 6.25,3.27614237 6.25,3 C6.25,2.72385763 6.47385763,2.5 6.75,2.5 C7.02614237,2.5 7.25,2.72385763 7.25,3 C7.25,3.27614237 7.02614237,3.5 6.75,3.5 Z M8.75,3.5 C8.47385763,3.5 8.25,3.27614237 8.25,3 C8.25,2.72385763 8.47385763,2.5 8.75,2.5 C9.02614237,2.5 9.25,2.72385763 9.25,3 C9.25,3.27614237 9.02614237,3.5 8.75,3.5 Z"/>
    </g>
    <g transform="translate(1.25 12)">
      <use fill="#000" fill-opacity=".2" xlink:href="#110-mono-black-c"/>
      <rect width="13" height="5" x="1.25" y=".5" stroke="#000" rx="2.25"/>
      <path fill="#000" fill-rule="nonzero" d="M3.75,3.5 L3.75,3.5 C4.02614237,3.5 4.25,3.27614237 4.25,3 C4.25,2.72385763 4.02614237,2.5 3.75,2.5 C3.47385763,2.5 3.25,2.72385763 3.25,3 C3.25,3.27614237 3.47385763,3.5 3.75,3.5 L3.75,3.5 Z M3.75,4 L3.75,4 C3.19771525,4 2.75,3.55228475 2.75,3 C2.75,2.44771525 3.19771525,2 3.75,2 C4.30228475,2 4.75,2.44771525 4.75,3 C4.75,3.55228475 4.30228475,4 3.75,4 L3.75,4 Z"/>
      <circle cx="11.75" cy="3" r="1" fill="#000"/>
      <path fill="#000" d="M6.75,3.5 C6.47385763,3.5 6.25,3.27614237 6.25,3 C6.25,2.72385763 6.47385763,2.5 6.75,2.5 C7.02614237,2.5 7.25,2.72385763 7.25,3 C7.25,3.27614237 7.02614237,3.5 6.75,3.5 Z M8.75,3.5 C8.47385763,3.5 8.25,3.27614237 8.25,3 C8.25,2.72385763 8.47385763,2.5 8.75,2.5 C9.02614237,2.5 9.25,2.72385763 9.25,3 C9.25,3.27614237 9.02614237,3.5 8.75,3.5 Z"/>
    </g>
  </g>
</svg>
