<svg xmlns="http://www.w3.org/2000/svg" xmlns:xlink="http://www.w3.org/1999/xlink" width="32" height="32" viewBox="0 0 32 32">
  <defs>
    <path id="111-medium-a" d="M1.6,10.8 L16,0 L30.4,10.8 L30.4,10.8 C31.4072234,11.5554175 32,12.7409708 32,14 L32,24 L32,24 C32,26.209139 30.209139,28 28,28 L4,28 L4,28 C1.790861,28 2.705415e-16,26.209139 0,24 L0,14 L-1.77635684e-15,14 C-1.93054345e-15,12.7409708 0.592776629,11.5554175 1.6,10.8 Z"/>
    <path id="111-medium-b" d="M31.5938089,0.243714637 C31.8576044,0.78349844 32,1.3829241 32,2 L32,12 L32,12 C32,14.209139 30.209139,16 28,16 L4,16 C1.790861,16 7.05415004e-17,14.209139 -2e-16,12 L-2e-16,2 L6.8817842e-16,2 C6.12608417e-16,1.3829241 0.142395621,0.78349844 0.406191061,0.243714637 L10,6 L22,6 L31.5938089,0.243714636 Z"/>
    <polygon id="111-medium-d" points=".174 12.985 10.174 18.985 22.174 18.985 32.174 12.985 32.174 .985 .174 .985"/>
    <polygon id="111-medium-f" points="3.431 7.062 25.096 3.242 28.569 22.938 6.904 26.758"/>
    <path id="111-medium-g" d="M31.046707,0.408101969 C31.264002,0.663538191 31.4475619,0.944460815 31.5938089,1.24371464 L22,7 L10,7 L0.406191061,1.24371464 C0.552392596,0.944553965 0.735883698,0.663713081 0.953090105,0.408340509 L10.2578125,6 L21.7357289,6 L31.046707,0.408101969 Z"/>
  </defs>
  <g fill="none" fill-rule="evenodd" transform="translate(-1 -1)">
    <g transform="translate(1 1)">
      <use fill="#7A8299" xlink:href="#111-medium-a"/>
      <path stroke="#000" stroke-opacity=".25" stroke-width="2.5" d="M16,1.5625 L2.35,11.8 C1.65753393,12.3193496 1.25,13.1344174 1.25,14 L1.25,24 C1.25,25.5187831 2.48121694,26.75 4,26.75 L28,26.75 C29.5187831,26.75 30.75,25.5187831 30.75,24 L30.75,14 C30.75,13.1344174 30.3424661,12.3193496 29.65,11.8 L16,1.5625 Z"/>
      <path stroke="#FFF" stroke-width="2" d="M16,1.25 L2.2,11.6 C1.44458247,12.1665631 1,13.0557281 1,14 L1,24 C1,25.6568542 2.34314575,27 4,27 L28,27 C29.6568542,27 31,25.6568542 31,24 L31,14 C31,13.0557281 30.5554175,12.1665631 29.8,11.6 L16,1.25 Z"/>
      <path stroke="#000" stroke-opacity=".3" d="M16,0.625 L1.9,11.2 C1.01867955,11.8609903 0.5,12.8983494 0.5,14 L0.5,24 C0.5,25.9329966 2.06700338,27.5 4,27.5 L28,27.5 C29.9329966,27.5 31.5,25.9329966 31.5,24 L31.5,14 C31.5,12.8983494 30.9813204,11.8609903 30.1,11.2 L16,0.625 Z"/>
    </g>
    <g transform="translate(1 13)">
      <mask id="111-medium-c" fill="#fff">
        <use xlink:href="#111-medium-b"/>
      </mask>
      <use fill="#EDEFF2" xlink:href="#111-medium-b"/>
      <path stroke="#000" stroke-opacity=".25" stroke-width=".5" d="M10,5.75 L22,5.75 L22.1767767,5.8232233 L32.6035534,16.25 L-0.603553391,16.25 L9.8232233,5.8232233 L10,5.75 Z" mask="url(#111-medium-c)"/>
      <path stroke="#000" stroke-opacity=".3" d="M16,-11.375 L1.9,-0.8 C1.01867955,-0.139009663 0.5,0.898349438 0.5,2 L0.5,12 C0.5,13.9329966 2.06700338,15.5 4,15.5 L28,15.5 C29.9329966,15.5 31.5,13.9329966 31.5,12 L31.5,2 C31.5,0.898349438 30.9813204,-0.139009663 30.1,-0.8 L16,-11.375 Z" mask="url(#111-medium-c)"/>
    </g>
    <g transform="translate(.826 .015)">
      <mask id="111-medium-e" fill="#fff">
        <use xlink:href="#111-medium-d"/>
      </mask>
      <use fill="#666" fill-opacity="0" xlink:href="#111-medium-d"/>
      <g mask="url(#111-medium-e)">
        <use fill="#61AAF2" xlink:href="#111-medium-f"/>
        <path stroke="#000" stroke-opacity=".25" d="M2.85140497,6.65647264 L25.5019833,2.66256455 L29.148595,23.3435274 L6.49801671,27.3374354 L2.85140497,6.65647264 Z"/>
        <path stroke="#000" stroke-opacity=".4" stroke-width="2" d="M4.58908887,7.873212 L7.71475607,25.5997516 L27.4109111,22.126788 L24.2852439,4.40024845 L4.58908887,7.873212 Z"/>
        <path stroke="#FFF" stroke-width="1.5" d="M4.29947489,7.67042211 L7.51196618,25.8893655 L27.7005251,22.3295779 L24.4880338,4.11063446 L4.29947489,7.67042211 Z"/>
      </g>
      <path stroke="#000" stroke-opacity=".4" d="M15.2761448,20.6847918 C14.5488685,20.6847918 13.8750784,20.5564509 13.2547544,20.2997651 C12.6344305,20.0430793 12.0970027,19.6874679 11.642455,19.2329202 C11.1879073,18.7783725 10.8322958,18.2436185 10.5756101,17.6286421 C10.3189243,17.0136658 10.1905833,16.3532446 10.1905833,15.6473587 C10.1905833,14.8024347 10.3670521,13.9976299 10.7199951,13.2329202 C11.072938,12.4682105 11.5408478,11.7970942 12.1237384,11.2195512 C12.706629,10.6420082 13.3830928,10.1821198 14.1531502,9.83987206 C14.9232075,9.49762436 15.7253385,9.32650308 16.5595673,9.32650308 C17.3296246,9.32650308 18.0274786,9.45484404 18.6531502,9.71152981 C19.2788217,9.96821559 19.810902,10.3184795 20.2494069,10.762332 C20.6879117,11.2061844 21.0248067,11.7195483 21.260102,12.3024389 C21.4953973,12.8853295 21.6130432,13.5029704 21.6130432,14.1553801 C21.6130432,14.8505707 21.5034186,15.452169 21.2841662,15.9601929 C21.0649138,16.4682168 20.7895155,16.8879987 20.457963,17.2195512 C20.1264105,17.5511037 19.7627778,17.7970905 19.3670539,17.9575191 C18.97133,18.1179477 18.5970022,18.1981608 18.2440593,18.1981608 C17.7306877,18.1981608 17.3510124,18.0831887 17.1050218,17.853241 C16.8590313,17.6232934 16.6986051,17.3639377 16.6237384,17.0751662 L16.6076956,16.9628667 C16.3296194,17.3692859 15.9927243,17.6767694 15.5970004,17.8853266 C15.2012765,18.0938838 14.8055586,18.1981608 14.4098347,18.1981608 C14.0141108,18.1981608 13.6611731,18.1286428 13.3510111,17.9896047 C13.0408492,17.8505666 12.7788197,17.6580551 12.5649149,17.4120646 C12.3510101,17.166074 12.1879101,16.8746331 12.0756101,16.537733 C11.96331,16.2008329 11.9071609,15.839874 11.9071609,15.4548453 C11.9071609,14.9307785 12.0060904,14.4361311 12.2039523,13.9708881 C12.4018143,13.5056451 12.6665175,13.0965583 12.99807,12.7436154 C13.3296224,12.3906724 13.7092978,12.1099266 14.1371074,11.9013694 C14.564917,11.6928122 15.0087628,11.5885352 15.4686582,11.5885352 C15.9392488,11.5885352 16.3403143,11.6794433 16.6718667,11.8612624 C17.0034192,12.0430815 17.2601011,12.2783733 17.4419202,12.5671448 L17.602348,11.7970913 L19.7841662,11.7970913 L18.99807,15.4869309 C18.9873747,15.5297118 18.9793534,15.5965561 18.9740058,15.6874656 C18.9686582,15.7783752 18.9659844,15.850567 18.9659844,15.9040432 C18.9659844,16.1393385 19.0141123,16.307786 19.1103694,16.4093908 C19.2066266,16.5109956 19.32962,16.5617972 19.4793534,16.5617972 C19.639782,16.5617972 19.8002082,16.5136693 19.9606368,16.4174122 C20.1210654,16.321155 20.2707965,16.1740976 20.4098347,15.9762357 C20.5488728,15.7783737 20.6611711,15.5270394 20.7467331,15.222225 C20.832295,14.9174106 20.8750753,14.5617992 20.8750753,14.1553801 C20.8750753,13.5350561 20.773472,12.9682169 20.5702625,12.4548453 C20.3670529,11.9414738 20.075612,11.5029755 19.6959309,11.1393373 C19.3162499,10.7756991 18.8563614,10.4949533 18.3162518,10.2970913 C17.7761421,10.0992294 17.1691963,10.0002999 16.4953962,10.0002999 C15.7360341,10.0002999 15.0167899,10.1527048 14.3376421,10.4575191 C13.6584944,10.7623335 13.0622436,11.1714203 12.5488721,11.6847918 C12.0355005,12.1981634 11.6264137,12.7917403 11.3215994,13.4655405 C11.016785,14.1393407 10.8643801,14.8505635 10.8643801,15.5992303 C10.8643801,16.2302495 10.9766785,16.8158052 11.2012785,17.3559148 C11.4258786,17.8960245 11.7387097,18.3639343 12.1397812,18.7596582 C12.5408527,19.1553821 13.01411,19.4655394 13.5595673,19.6901394 C14.1050246,19.9147395 14.703949,20.0270378 15.3563587,20.0270378 C15.8804255,20.0270378 16.3830943,19.9521723 16.8643801,19.8024389 C17.3456659,19.6527055 17.8055544,19.4388039 18.2440593,19.1607277 L18.6130432,19.6740967 C18.1103669,19.9949539 17.5782867,20.2436145 17.0167865,20.420086 C16.4552864,20.5965574 15.8750783,20.6847918 15.2761448,20.6847918 L15.2761448,20.6847918 Z M15.3242732,16.4815833 C15.6879113,16.4815833 15.9873736,16.3880013 16.2226689,16.2008346 C16.4579642,16.0136679 16.6504756,15.8238302 16.800209,15.6313159 L17.1531502,13.9307812 C17.0675882,13.7810478 16.9365735,13.6366642 16.760102,13.4976261 C16.5836306,13.3585879 16.3403175,13.2890699 16.0301555,13.2890699 C15.7520793,13.2890699 15.4980711,13.3452191 15.2681234,13.4575191 C15.0381758,13.5698191 14.8403168,13.7195503 14.6745405,13.906717 C14.5087643,14.0938837 14.3804234,14.3051115 14.2895138,14.5404068 C14.1986043,14.7757021 14.1531502,15.0163414 14.1531502,15.262332 C14.1531502,15.6366654 14.2574272,15.9334539 14.4659844,16.1527063 C14.6745416,16.3719587 14.960635,16.4815833 15.3242732,16.4815833 L15.3242732,16.4815833 Z" mask="url(#111-medium-e)"/>
      <path fill="#FFF" d="M15.2761448,20.6847918 C14.5488685,20.6847918 13.8750784,20.5564509 13.2547544,20.2997651 C12.6344305,20.0430793 12.0970027,19.6874679 11.642455,19.2329202 C11.1879073,18.7783725 10.8322958,18.2436185 10.5756101,17.6286421 C10.3189243,17.0136658 10.1905833,16.3532446 10.1905833,15.6473587 C10.1905833,14.8024347 10.3670521,13.9976299 10.7199951,13.2329202 C11.072938,12.4682105 11.5408478,11.7970942 12.1237384,11.2195512 C12.706629,10.6420082 13.3830928,10.1821198 14.1531502,9.83987206 C14.9232075,9.49762436 15.7253385,9.32650308 16.5595673,9.32650308 C17.3296246,9.32650308 18.0274786,9.45484404 18.6531502,9.71152981 C19.2788217,9.96821559 19.810902,10.3184795 20.2494069,10.762332 C20.6879117,11.2061844 21.0248067,11.7195483 21.260102,12.3024389 C21.4953973,12.8853295 21.6130432,13.5029704 21.6130432,14.1553801 C21.6130432,14.8505707 21.5034186,15.452169 21.2841662,15.9601929 C21.0649138,16.4682168 20.7895155,16.8879987 20.457963,17.2195512 C20.1264105,17.5511037 19.7627778,17.7970905 19.3670539,17.9575191 C18.97133,18.1179477 18.5970022,18.1981608 18.2440593,18.1981608 C17.7306877,18.1981608 17.3510124,18.0831887 17.1050218,17.853241 C16.8590313,17.6232934 16.6986051,17.3639377 16.6237384,17.0751662 L16.6076956,16.9628667 C16.3296194,17.3692859 15.9927243,17.6767694 15.5970004,17.8853266 C15.2012765,18.0938838 14.8055586,18.1981608 14.4098347,18.1981608 C14.0141108,18.1981608 13.6611731,18.1286428 13.3510111,17.9896047 C13.0408492,17.8505666 12.7788197,17.6580551 12.5649149,17.4120646 C12.3510101,17.166074 12.1879101,16.8746331 12.0756101,16.537733 C11.96331,16.2008329 11.9071609,15.839874 11.9071609,15.4548453 C11.9071609,14.9307785 12.0060904,14.4361311 12.2039523,13.9708881 C12.4018143,13.5056451 12.6665175,13.0965583 12.99807,12.7436154 C13.3296224,12.3906724 13.7092978,12.1099266 14.1371074,11.9013694 C14.564917,11.6928122 15.0087628,11.5885352 15.4686582,11.5885352 C15.9392488,11.5885352 16.3403143,11.6794433 16.6718667,11.8612624 C17.0034192,12.0430815 17.2601011,12.2783733 17.4419202,12.5671448 L17.602348,11.7970913 L19.7841662,11.7970913 L18.99807,15.4869309 C18.9873747,15.5297118 18.9793534,15.5965561 18.9740058,15.6874656 C18.9686582,15.7783752 18.9659844,15.850567 18.9659844,15.9040432 C18.9659844,16.1393385 19.0141123,16.307786 19.1103694,16.4093908 C19.2066266,16.5109956 19.32962,16.5617972 19.4793534,16.5617972 C19.639782,16.5617972 19.8002082,16.5136693 19.9606368,16.4174122 C20.1210654,16.321155 20.2707965,16.1740976 20.4098347,15.9762357 C20.5488728,15.7783737 20.6611711,15.5270394 20.7467331,15.222225 C20.832295,14.9174106 20.8750753,14.5617992 20.8750753,14.1553801 C20.8750753,13.5350561 20.773472,12.9682169 20.5702625,12.4548453 C20.3670529,11.9414738 20.075612,11.5029755 19.6959309,11.1393373 C19.3162499,10.7756991 18.8563614,10.4949533 18.3162518,10.2970913 C17.7761421,10.0992294 17.1691963,10.0002999 16.4953962,10.0002999 C15.7360341,10.0002999 15.0167899,10.1527048 14.3376421,10.4575191 C13.6584944,10.7623335 13.0622436,11.1714203 12.5488721,11.6847918 C12.0355005,12.1981634 11.6264137,12.7917403 11.3215994,13.4655405 C11.016785,14.1393407 10.8643801,14.8505635 10.8643801,15.5992303 C10.8643801,16.2302495 10.9766785,16.8158052 11.2012785,17.3559148 C11.4258786,17.8960245 11.7387097,18.3639343 12.1397812,18.7596582 C12.5408527,19.1553821 13.01411,19.4655394 13.5595673,19.6901394 C14.1050246,19.9147395 14.703949,20.0270378 15.3563587,20.0270378 C15.8804255,20.0270378 16.3830943,19.9521723 16.8643801,19.8024389 C17.3456659,19.6527055 17.8055544,19.4388039 18.2440593,19.1607277 L18.6130432,19.6740967 C18.1103669,19.9949539 17.5782867,20.2436145 17.0167865,20.420086 C16.4552864,20.5965574 15.8750783,20.6847918 15.2761448,20.6847918 L15.2761448,20.6847918 Z M15.3242732,16.4815833 C15.6879113,16.4815833 15.9873736,16.3880013 16.2226689,16.2008346 C16.4579642,16.0136679 16.6504756,15.8238302 16.800209,15.6313159 L17.1531502,13.9307812 C17.0675882,13.7810478 16.9365735,13.6366642 16.760102,13.4976261 C16.5836306,13.3585879 16.3403175,13.2890699 16.0301555,13.2890699 C15.7520793,13.2890699 15.4980711,13.3452191 15.2681234,13.4575191 C15.0381758,13.5698191 14.8403168,13.7195503 14.6745405,13.906717 C14.5087643,14.0938837 14.3804234,14.3051115 14.2895138,14.5404068 C14.1986043,14.7757021 14.1531502,15.0163414 14.1531502,15.262332 C14.1531502,15.6366654 14.2574272,15.9334539 14.4659844,16.1527063 C14.6745416,16.3719587 14.960635,16.4815833 15.3242732,16.4815833 L15.3242732,16.4815833 Z" mask="url(#111-medium-e)"/>
    </g>
    <g transform="translate(1 12)">
      <use fill="#000" fill-opacity=".25" xlink:href="#111-medium-g"/>
    </g>
  </g>
</svg>
