<svg xmlns="http://www.w3.org/2000/svg" xmlns:xlink="http://www.w3.org/1999/xlink" width="18" height="18" viewBox="0 0 18 18">
  <defs>
    <path id="111-mono-black-a" d="M1.00192456,5.33205029 L9,0 L16.9980754,5.33205029 L16.9980754,5.33205029 C17.6240224,5.7493483 18,6.45186878 18,7.20416346 L18,13.75 L18,13.75 C18,14.9926407 16.9926407,16 15.75,16 L2.25,16 L2.25,16 C1.00735931,16 1.52179594e-16,14.9926407 0,13.75 L0,7.20416346 L0,7.20416346 C2.41956421e-16,6.45186878 0.375977555,5.7493483 1.00192456,5.33205029 Z"/>
  </defs>
  <g fill="none" fill-rule="evenodd">
    <use fill="#000" fill-opacity=".1" xlink:href="#111-mono-black-a"/>
    <path stroke="#000" d="M9,0.600925213 L1.27927466,5.74807544 C0.792426987,6.07264055 0.5,6.61904538 0.5,7.20416346 L0.5,13.75 C0.5,14.7164983 1.28350169,15.5 2.25,15.5 L15.75,15.5 C16.7164983,15.5 17.5,14.7164983 17.5,13.75 L17.5,7.20416346 C17.5,6.61904538 17.207573,6.07264055 16.7207253,5.74807544 L9,0.600925213 Z"/>
    <path fill="#000" fill-opacity=".1" d="M17.7531523,6.17952563 C17.9130458,6.49210192 18,6.84237693 18,7.20416346 L18,13.75 C18,14.9926407 16.9926407,16 15.75,16 L2.25,16 C1.00735931,16 2.2755218e-13,14.9926407 2.274e-13,13.75 L2.274e-13,7.20416346 C2.27516359e-13,6.84237693 0.0869542337,6.49210192 0.246847746,6.17952563 L5.5,10 L12.5,10 L17.7531523,6.17952563 Z"/>
    <path fill="#000" d="M17.6786117,14.9095145 C17.5914563,15.0541684 17.4884868,15.1882172 17.3720965,15.3092675 L12.5,10 L5.5,10 L0.629324507,15.3107441 C0.512154566,15.1891035 0.408550416,15.0543044 0.320947065,14.9087819 L5.2822876,9.5 L12.7153524,9.5 L17.6786117,14.9095145 Z"/>
    <path fill="#000" d="M15,8.18181818 L15,7.6000061 L9,3.6000061 L3,7.6000061 L3,8.18181818 L5.5,10 L12.5,10 L15,8.18181818 Z"/>
    <path fill="#000" d="M17.7531523,6.17952563 L12.5,10 L5.5,10 L0.246847746,6.17952563 C0.399672282,5.88076851 0.619129294,5.61645041 0.892981685,5.40943658 L5.82999992,9 L12.1700001,9 L17.1070183,5.40943658 C17.3808707,5.61645041 17.6003277,5.88076851 17.7531523,6.17952563 Z"/>
  </g>
</svg>
