<svg width="32" height="32" viewBox="0 0 32 32" fill="none" xmlns="http://www.w3.org/2000/svg">
<mask id="path-1-inside-1" fill="white">
<path fill-rule="evenodd" clip-rule="evenodd" d="M4 4C2.89543 4 2 4.89543 2 6V16H14V6C14 4.89543 13.1046 4 12 4H4ZM20 4C18.8954 4 18 4.89543 18 6V16H30V6C30 4.89543 29.1046 4 28 4H20Z"/>
</mask>
<g filter="url(#filter0_i)">
<path fill-rule="evenodd" clip-rule="evenodd" d="M4 4C2.89543 4 2 4.89543 2 6V16H14V6C14 4.89543 13.1046 4 12 4H4ZM20 4C18.8954 4 18 4.89543 18 6V16H30V6C30 4.89543 29.1046 4 28 4H20Z" fill="#EDEFF2"/>
</g>
<path d="M2 16H1V17H2V16ZM14 16V17H15V16H14ZM18 16H17V17H18V16ZM30 16V17H31V16H30ZM3 6C3 5.44772 3.44772 5 4 5V3C2.34315 3 1 4.34315 1 6H3ZM3 16V6H1V16H3ZM14 15H2V17H14V15ZM13 6V16H15V6H13ZM12 5C12.5523 5 13 5.44772 13 6H15C15 4.34315 13.6569 3 12 3V5ZM4 5H12V3H4V5ZM19 6C19 5.44772 19.4477 5 20 5V3C18.3431 3 17 4.34315 17 6H19ZM19 16V6H17V16H19ZM30 15H18V17H30V15ZM29 6V16H31V6H29ZM28 5C28.5523 5 29 5.44772 29 6H31C31 4.34315 29.6569 3 28 3V5ZM20 5H28V3H20V5Z" fill="black" fill-opacity="0.4" mask="url(#path-1-inside-1)"/>
<path d="M0 12C0 10.8954 0.895431 10 2 10H30C31.1046 10 32 10.8954 32 12V24C32 26.2091 30.2091 28 28 28H4C1.79086 28 0 26.2091 0 24V12Z" fill="#EDEFF2"/>
<path d="M2 10.5H30C30.8284 10.5 31.5 11.1716 31.5 12V24C31.5 25.933 29.933 27.5 28 27.5H4C2.067 27.5 0.5 25.933 0.5 24V12C0.5 11.1716 1.17157 10.5 2 10.5Z" stroke="black" stroke-opacity="0.4"/>
<mask id="path-5-inside-2" fill="white">
<path fill-rule="evenodd" clip-rule="evenodd" d="M12.0999 21.5999L9.5 18.9999L13.6464 14.8535C13.9614 14.5385 13.7383 13.9999 13.2929 13.9999H10.9142C10.649 13.9999 10.3946 14.1053 10.2071 14.2928L6.29289 18.207C6.10536 18.3946 6 18.6489 6 18.9142V19.0857C6 19.3509 6.10535 19.6053 6.29289 19.7928L10.2071 23.7071C10.3946 23.8946 10.649 24 10.9142 24H11.4999L12.0999 21.5999ZM19.8999 16.3998L22.5001 19L18.3537 23.1464C18.0387 23.4614 18.2618 24 18.7072 24H21.0859C21.3511 24 21.6055 23.8946 21.793 23.7071L25.7072 19.7929C25.8947 19.6054 26.0001 19.351 26.0001 19.0858V18.9142C26.0001 18.649 25.8948 18.3946 25.7072 18.2071L21.793 14.2928C21.6055 14.1053 21.3511 13.9999 21.0859 13.9999H20.4999L19.8999 16.3998Z"/>
</mask>
<path fill-rule="evenodd" clip-rule="evenodd" d="M12.0999 21.5999L9.5 18.9999L13.6464 14.8535C13.9614 14.5385 13.7383 13.9999 13.2929 13.9999H10.9142C10.649 13.9999 10.3946 14.1053 10.2071 14.2928L6.29289 18.207C6.10536 18.3946 6 18.6489 6 18.9142V19.0857C6 19.3509 6.10535 19.6053 6.29289 19.7928L10.2071 23.7071C10.3946 23.8946 10.649 24 10.9142 24H11.4999L12.0999 21.5999ZM19.8999 16.3998L22.5001 19L18.3537 23.1464C18.0387 23.4614 18.2618 24 18.7072 24H21.0859C21.3511 24 21.6055 23.8946 21.793 23.7071L25.7072 19.7929C25.8947 19.6054 26.0001 19.351 26.0001 19.0858V18.9142C26.0001 18.649 25.8948 18.3946 25.7072 18.2071L21.793 14.2928C21.6055 14.1053 21.3511 13.9999 21.0859 13.9999H20.4999L19.8999 16.3998Z" fill="#F2C585"/>
<path d="M12.0999 21.5999L12.676 21.7439L12.7575 21.4178L12.5198 21.1801L12.0999 21.5999ZM9.5 18.9999L9.08015 18.5801L8.66031 18.9999L9.08015 19.4198L9.5 18.9999ZM13.6464 14.8535L14.0663 15.2733L13.6464 14.8535ZM10.2071 14.2928L10.627 14.7127L10.627 14.7127L10.2071 14.2928ZM6.29289 18.207L5.87305 17.7872L5.87305 17.7872L6.29289 18.207ZM6.29289 19.7928L5.87304 20.2127L5.87304 20.2127L6.29289 19.7928ZM10.2071 23.7071L9.78726 24.1269L9.78726 24.1269L10.2071 23.7071ZM11.4999 24V24.5938H11.9635L12.0759 24.144L11.4999 24ZM19.8999 16.3998L19.3239 16.2558L19.2424 16.5819L19.4801 16.8197L19.8999 16.3998ZM22.5001 19L22.92 19.4198L23.3398 19L22.92 18.5802L22.5001 19ZM21.793 23.7071L21.3732 23.2873L21.3732 23.2873L21.793 23.7071ZM25.7072 19.7929L26.1271 20.2127L26.1271 20.2127L25.7072 19.7929ZM25.7072 18.2071L25.2874 18.627L25.2874 18.627L25.7072 18.2071ZM21.793 14.2928L22.2128 13.873L22.2128 13.873L21.793 14.2928ZM20.4999 13.9999V13.4062H20.0363L19.9239 13.8559L20.4999 13.9999ZM12.5198 21.1801L9.91985 18.5801L9.08015 19.4198L11.6801 22.0197L12.5198 21.1801ZM9.91985 19.4198L14.0663 15.2733L13.2266 14.4336L9.08015 18.5801L9.91985 19.4198ZM14.0663 15.2733C14.7553 14.5843 14.2673 13.4062 13.2929 13.4062V14.5937C13.2804 14.5937 13.2586 14.5887 13.2383 14.5744C13.2207 14.562 13.2112 14.5477 13.2063 14.5358C13.2014 14.524 13.198 14.5071 13.2017 14.4859C13.2059 14.4614 13.2177 14.4425 13.2266 14.4336L14.0663 15.2733ZM13.2929 13.4062H10.9142V14.5937H13.2929V13.4062ZM10.9142 13.4062C10.4915 13.4062 10.0861 13.5741 9.78726 13.873L10.627 14.7127C10.7031 14.6365 10.8065 14.5937 10.9142 14.5937V13.4062ZM9.78726 13.873L5.87305 17.7872L6.71274 18.6269L10.627 14.7127L9.78726 13.873ZM5.87305 17.7872C5.57416 18.0861 5.40625 18.4915 5.40625 18.9142H6.59375C6.59375 18.8064 6.63655 18.7031 6.71274 18.6269L5.87305 17.7872ZM5.40625 18.9142V19.0857H6.59375V18.9142H5.40625ZM5.40625 19.0857C5.40625 19.5084 5.57416 19.9138 5.87304 20.2127L6.71274 19.373C6.63655 19.2968 6.59375 19.1935 6.59375 19.0857H5.40625ZM5.87304 20.2127L9.78726 24.1269L10.627 23.2873L6.71274 19.373L5.87304 20.2127ZM9.78726 24.1269C10.0861 24.4258 10.4915 24.5938 10.9142 24.5938V23.4062C10.8065 23.4062 10.7031 23.3634 10.627 23.2873L9.78726 24.1269ZM10.9142 24.5938H11.4999V23.4062H10.9142V24.5938ZM12.0759 24.144L12.676 21.7439L11.5239 21.4559L10.9239 23.856L12.0759 24.144ZM19.4801 16.8197L22.0803 19.4198L22.92 18.5802L20.3198 15.98L19.4801 16.8197ZM22.0803 18.5802L17.9338 22.7266L18.7735 23.5663L22.92 19.4198L22.0803 18.5802ZM17.9338 22.7266C17.2448 23.4156 17.7328 24.5938 18.7072 24.5938V23.4062C18.7197 23.4062 18.7415 23.4113 18.7618 23.4256C18.7794 23.438 18.7889 23.4523 18.7938 23.4641C18.7987 23.476 18.8021 23.4928 18.7984 23.514C18.7942 23.5385 18.7824 23.5574 18.7735 23.5663L17.9338 22.7266ZM18.7072 24.5938H21.0859V23.4062H18.7072V24.5938ZM21.0859 24.5938C21.5086 24.5938 21.914 24.4258 22.2128 24.127L21.3732 23.2873C21.297 23.3634 21.1936 23.4062 21.0859 23.4062V24.5938ZM22.2128 24.127L26.1271 20.2127L25.2874 19.373L21.3732 23.2873L22.2128 24.127ZM26.1271 20.2127C26.4259 19.9139 26.5939 19.5085 26.5939 19.0858H25.4064C25.4064 19.1935 25.3636 19.2969 25.2874 19.373L26.1271 20.2127ZM26.5939 19.0858V18.9142H25.4064V19.0858H26.5939ZM26.5939 18.9142C26.5939 18.4915 26.4259 18.0862 26.1271 17.7873L25.2874 18.627C25.3636 18.7031 25.4064 18.8065 25.4064 18.9142H26.5939ZM26.1271 17.7873L22.2128 13.873L21.3732 14.7127L25.2874 18.627L26.1271 17.7873ZM22.2128 13.873C21.914 13.5741 21.5086 13.4062 21.0859 13.4062V14.5937C21.1936 14.5937 21.297 14.6365 21.3732 14.7127L22.2128 13.873ZM21.0859 13.4062H20.4999V14.5937H21.0859V13.4062ZM19.9239 13.8559L19.3239 16.2558L20.476 16.5438L21.0759 14.1439L19.9239 13.8559Z" fill="#8C674D" mask="url(#path-5-inside-2)"/>
<path d="M16.6404 12.25H18.6096C18.7723 12.25 18.8916 12.4028 18.8521 12.5606L15.6021 25.5606C15.5743 25.6719 15.4743 25.75 15.3596 25.75H13.3904C13.2277 25.75 13.1084 25.5972 13.1479 25.4394L16.3979 12.4394C16.4257 12.3281 16.5257 12.25 16.6404 12.25Z" fill="#F2C585" stroke="#8C674D" stroke-width="0.5"/>
<defs>
<filter id="filter0_i" x="2" y="4" width="28" height="12" filterUnits="userSpaceOnUse" color-interpolation-filters="sRGB">
<feFlood flood-opacity="0" result="BackgroundImageFix"/>
<feBlend mode="normal" in="SourceGraphic" in2="BackgroundImageFix" result="shape"/>
<feColorMatrix in="SourceAlpha" type="matrix" values="0 0 0 0 0 0 0 0 0 0 0 0 0 0 0 0 0 0 127 0" result="hardAlpha"/>
<feOffset dy="-7"/>
<feComposite in2="hardAlpha" operator="arithmetic" k2="-1" k3="1"/>
<feColorMatrix type="matrix" values="0 0 0 0 0 0 0 0 0 0 0 0 0 0 0 0 0 0 0.1 0"/>
<feBlend mode="normal" in2="shape" result="effect1_innerShadow"/>
</filter>
</defs>
</svg>
