<svg width="16" height="16" viewBox="0 0 16 16" fill="none" xmlns="http://www.w3.org/2000/svg">
<path d="M8.42041 14.3275L14.097 8.35428C14.8895 7.65029 15.3791 6.60758 15.3791 5.47157C15.3791 3.28152 13.5896 1.49207 11.3996 1.49207C9.96372 1.49207 8.70008 2.26123 8.00002 3.40818C7.29995 2.26123 6.03631 1.49207 4.60047 1.49207C2.41042 1.49207 0.620972 3.28152 0.620972 5.47157C0.620972 6.6151 1.11602 7.65252 1.89727 8.39067L7.58105 14.3289L8.00151 14.7682L8.42041 14.3275Z" fill="#FFA9A9" stroke="#F25151" stroke-width="1.15991"/>
<mask id="mask0" mask-type="alpha" maskUnits="userSpaceOnUse" x="0" y="0" width="16" height="16">
<path d="M8.42041 14.3275L14.097 8.35428C14.8895 7.65029 15.3791 6.60758 15.3791 5.47157C15.3791 3.28152 13.5896 1.49207 11.3996 1.49207C9.96372 1.49207 8.70008 2.26123 8.00002 3.40818C7.29995 2.26123 6.03631 1.49207 4.60047 1.49207C2.41042 1.49207 0.620972 3.28152 0.620972 5.47157C0.620972 6.6151 1.11602 7.65252 1.89727 8.39067L7.58105 14.3289L8.00151 14.7682L8.42041 14.3275Z" fill="#FFA9A9" stroke="#F25151" stroke-width="1.15991"/>
</mask>
<g mask="url(#mask0)">
<path d="M0.0793457 9.46973H6.36984L7.48933 10.4563L9.48514 5.37965L11.5295 9.54707H16.7112" stroke="#F8F8F9" stroke-width="0.883056"/>
</g>
</svg>
