<svg width="32" height="32" viewBox="0 0 32 32" fill="none" xmlns="http://www.w3.org/2000/svg">
<g clip-path="url(#clip0)">
<rect x="3.36597" y="1.53528" width="25.212" height="29.9647" rx="1.5" fill="#B8BDCC" stroke="#5C5E66"/>
<rect x="5.75488" y="3.25" width="20.4341" height="25.9416" fill="#F8F8F9" stroke="#656E76" stroke-width="0.5"/>
<rect x="8.42822" y="0.5" width="15.0873" height="3.90798" rx="1.53017" fill="#E6E6E8" stroke="#656E76"/>
<path d="M16.3345 26.0744L21.2285 20.9247C21.9118 20.3178 22.3338 19.4188 22.3338 18.4394C22.3338 16.5513 20.7911 15.0085 18.903 15.0085C17.6651 15.0085 16.5756 15.6717 15.9721 16.6605C15.3685 15.6717 14.2791 15.0085 13.0412 15.0085C11.1531 15.0085 9.61035 16.5513 9.61035 18.4394C9.61035 19.4253 10.0371 20.3197 10.7107 20.9561L15.6109 26.0757L15.9734 26.4544L16.3345 26.0744Z" fill="#FFA9A9" stroke="#F25151"/>
<mask id="mask0" mask-type="alpha" maskUnits="userSpaceOnUse" x="9" y="15" width="14" height="13">
<path d="M16.3546 26.3525L21.3641 21.3144C22.0626 20.7213 22.5 19.8371 22.5 18.8674C22.5 16.9931 20.9046 15.5 19 15.5C17.7411 15.5 16.6173 16.1523 16 17.1359C15.3827 16.1523 14.2589 15.5 13 15.5C11.0954 15.5 9.5 16.9931 9.5 18.8674C9.5 19.8432 9.94211 20.7231 10.6309 21.3451L15.6467 26.3538L16.0013 26.7079L16.3546 26.3525Z" fill="#FFA9A9" stroke="#F25151"/>
</mask>
<g mask="url(#mask0)">
<path d="M7.25854 21.5431H14.4416L15.5359 22.6495L17.425 18.4105L19.03 21.5431H23.4738" stroke="#F8F8F9" stroke-width="0.761313"/>
</g>
<path d="M9.34692 7.49854H21.0834" stroke="#B9BDC2" stroke-linecap="round"/>
<path d="M9.34692 10.4575H14.2385" stroke="#B9BDC2" stroke-linecap="round"/>
</g>
<defs>
<clipPath id="clip0">
<rect width="32" height="32" fill="white"/>
</clipPath>
</defs>
</svg>
