<svg width="16" height="16" viewBox="0 0 16 16" fill="none" xmlns="http://www.w3.org/2000/svg">
<path fill-rule="evenodd" clip-rule="evenodd" d="M13.3741 10.2611L8.003 16L2.59351 10.2611H5.66804L6.94816 11.8614L7.73323 12.8429L8.22423 11.6859L10.4541 6.43192L11.8563 9.79942L12.0485 10.2611H12.5486H13.3741ZM14.7963 8.76112C15.5491 7.94728 16 6.84248 16 5.65364C16 3.09143 13.9403 1 11.4171 1C10.0619 1 8.84047 1.60324 8 2.55867C7.15953 1.60324 5.9381 1 4.58294 1C2.05966 1 0 3.09143 0 5.65364C0 6.84451 0.450861 7.93241 1.1767 8.76112H6.02853H6.38902L6.6142 9.04263L7.33444 9.94301L9.77026 4.20363L10.4672 2.56136L11.153 4.20834L13.0488 8.76112H14.7963Z" fill="white"/>
</svg>
