<svg width="16" height="16" viewBox="0 0 16 16" fill="none" xmlns="http://www.w3.org/2000/svg">
<rect width="16" height="16" fill="black" fill-opacity="0.01"/>
<path fill-rule="evenodd" clip-rule="evenodd" d="M0 5C0 3.34315 1.34315 2 3 2H13C14.6558 2 15.9983 3.34145 16 4.99687C15.3699 4.38608 14.5109 4.0101 13.5641 4.0101H3.50932C3.23318 4.0101 3.00932 4.23396 3.00932 4.5101C3.00932 4.78624 3.23318 5.0101 3.50932 5.0101H13.5641C14.7505 5.0101 15.7439 5.83658 16 6.94521V8H13.529C12.6846 8 12 8.68457 12 9.52902C12 10.3735 12.6846 11.058 13.529 11.058H15.9994C15.9685 12.6881 14.6375 14 13 14H3C1.34315 14 0 12.6569 0 11V5Z" fill="#034EA6"/>
</svg>
