<svg xmlns="http://www.w3.org/2000/svg" xmlns:xlink="http://www.w3.org/1999/xlink" width="18" height="18" viewBox="0 0 18 18">
  <defs>
    <path id="duplicates-mono-black-a" d="M6.02251556,5.47748444 C6.00761846,5.32031681 6,5.16104116 6,5 C6,2.24087546 8.23632996,0 11,0 C13.76367,0 16,2.24087546 16,5 C16,7.75912454 13.76367,10 11,10 C10.2660852,10 9.56935903,9.84197107 8.94182642,9.55817358 L8,10.5 L8,12 L7,13 L5.5,13 L5,13.5 L5,15 L4,16 L1.5,16 L0,14.5 L0,11.5 L6.02251556,5.47748444 Z M11.75,5 C12.1645505,5 12.5,4.66386868 12.5,4.25 C12.5,3.83613132 12.1645505,3.5 11.75,3.5 C11.3354495,3.5 11,3.83613132 11,4.25 C11,4.66386868 11.3354495,5 11.75,5 Z"/>
  </defs>
  <g fill="none">
    <path fill="#000" fill-opacity=".2" d="M15.3916589,2.60794825 C16.9463142,3.4563656 18,5.10609176 18,7 C18,9.75912454 15.76367,12 13,12 C12.2660852,12 11.569359,11.8419711 10.9418264,11.5581736 L10,12.5 L10,14 L9,15 L7.5,15 L7,15.5 L7,17 L6,18 L3.5,18 L2,16.5 L2,16 L4,16 L5,15 L5,13.5 L5.5,13 L7,13 L8,12 L8,10.5 L8.94182642,9.55817358 C9.56935903,9.84197107 10.2660852,10 11,10 C13.76367,10 16,7.75912454 16,5 C16,4.13380579 15.7795938,3.31868871 15.3916589,2.60794825 Z"/>
    <path fill="#000" d="M15.9513803,4.30011892 C16.6027828,5.0119124 17,5.95993047 17,7 C17,9.20729964 15.210936,11 13,11 C12.1757921,11 11.4102118,10.7508683 10.774088,10.3239992 L9,12.1095843 L9,13.5981445 L8.59158761,14 L7.105399,14 L6,15.1015625 L6,16.606236 L5.58231027,17 L3.89962333,17 L3,16.1015625 L3,16 L2,16 L2,16.5 L3.5,18 L6,18 L7,17 L7,15.5 L7.5,15 L9,15 L10,14 L10,12.5 L10.9418264,11.5581736 C11.569359,11.8419711 12.2660852,12 13,12 C15.76367,12 18,9.75912454 18,7 C18,5.10609176 16.9463142,3.4563656 15.3916589,2.60794825 C15.6732268,3.12381239 15.86654,3.69466248 15.9513803,4.30011892 Z"/>
    <use fill="#000" fill-opacity=".1" fill-rule="evenodd" xlink:href="#duplicates-mono-black-a"/>
    <path stroke="#000" d="M0.5,11.7071068 L0.5,14.2928932 L1.70710678,15.5 L3.79289322,15.5 L4.5,14.7928932 L4.5,13.2928932 L5.29289322,12.5 L6.79289322,12.5 L7.5,11.7928932 L7.5,10.2928932 L8.83278636,8.96010686 L9.14785834,9.10259609 C9.72444484,9.36335354 10.3520083,9.5 11,9.5 C13.485888,9.5 15.5,7.48462281 15.5,5 C15.5,2.51537719 13.485888,0.5 11,0.5 C8.51411203,0.5 6.5,2.51537719 6.5,5 C6.5,5.14442681 6.50679258,5.28796042 6.52028454,5.43030349 L6.54249355,5.66461323 L0.5,11.7071068 Z M11.75,5.5 C11.0594722,5.5 10.5,4.94017635 10.5,4.25 C10.5,3.55982365 11.0594722,3 11.75,3 C12.4405278,3 13,3.55982365 13,4.25 C13,4.94017635 12.4405278,5.5 11.75,5.5 Z"/>
  </g>
</svg>
