<svg xmlns="http://www.w3.org/2000/svg" xmlns:xlink="http://www.w3.org/1999/xlink" width="32" height="32" viewBox="0 0 32 32">
  <defs>
    <rect id="new_login_icon-a" width="30" height="30" x="1" y="1" rx="6"/>
    <mask id="new_login_icon-b" width="30" height="30" x="0" y="0" fill="#fff">
      <use xlink:href="#new_login_icon-a"/>
    </mask>
    <path id="new_login_icon-c" d="M14,17.0322402 C12.5182815,16.2958889 11.5,14.7668606 11.5,13 C11.5,10.5147186 13.5147186,8.5 16,8.5 C18.4852814,8.5 20.5,10.5147186 20.5,13 C20.5,14.7668606 19.4817185,16.2958889 18,17.0322402 L18,24 L14,24 L14,17.0322402 Z"/>
    <path id="new_login_icon-d" d="M7,9 C5.8954305,9 5,8.1045695 5,7 C5,5.8954305 5.8954305,5 7,5 C8.1045695,5 9,5.8954305 9,7 C9,8.1045695 8.1045695,9 7,9 Z M25,9 C23.8954305,9 23,8.1045695 23,7 C23,5.8954305 23.8954305,5 25,5 C26.1045695,5 27,5.8954305 27,7 C27,8.1045695 26.1045695,9 25,9 Z M25,27 C23.8954305,27 23,26.1045695 23,25 C23,23.8954305 23.8954305,23 25,23 C26.1045695,23 27,23.8954305 27,25 C27,26.1045695 26.1045695,27 25,27 Z M7,27 C5.8954305,27 5,26.1045695 5,25 C5,23.8954305 5.8954305,23 7,23 C8.1045695,23 9,23.8954305 9,25 C9,26.1045695 8.1045695,27 7,27 Z"/>
  </defs>
  <g fill="none" fill-rule="evenodd">
    <use fill="#FFF" fill-opacity=".8" stroke="gray" stroke-dasharray="4.43 2.4" stroke-opacity=".6" stroke-width="2" mask="url(#new_login_icon-b)" xlink:href="#new_login_icon-a"/>
    <use fill="gray" fill-opacity=".4" xlink:href="#new_login_icon-c"/>
    <path stroke="gray" stroke-opacity=".4" d="M14.5,23.5 L17.5,23.5 L17.5,16.7223806 L17.7774837,16.584483 C19.127958,15.9133545 20,14.5349374 20,13 C20,10.790861 18.209139,9 16,9 C13.790861,9 12,10.790861 12,13 C12,14.5349374 12.872042,15.9133545 14.2225163,16.584483 L14.5,16.7223806 L14.5,23.5 Z"/>
    <g>
      <use fill="gray" fill-opacity=".4" xlink:href="#new_login_icon-d"/>
      <path stroke="gray" stroke-opacity=".4" stroke-width=".5" d="M7,8.75 C7.96649831,8.75 8.75,7.96649831 8.75,7 C8.75,6.03350169 7.96649831,5.25 7,5.25 C6.03350169,5.25 5.25,6.03350169 5.25,7 C5.25,7.96649831 6.03350169,8.75 7,8.75 Z M25,8.75 C25.9664983,8.75 26.75,7.96649831 26.75,7 C26.75,6.03350169 25.9664983,5.25 25,5.25 C24.0335017,5.25 23.25,6.03350169 23.25,7 C23.25,7.96649831 24.0335017,8.75 25,8.75 Z M25,26.75 C25.9664983,26.75 26.75,25.9664983 26.75,25 C26.75,24.0335017 25.9664983,23.25 25,23.25 C24.0335017,23.25 23.25,24.0335017 23.25,25 C23.25,25.9664983 24.0335017,26.75 25,26.75 Z M7,26.75 C7.96649831,26.75 8.75,25.9664983 8.75,25 C8.75,24.0335017 7.96649831,23.25 7,23.25 C6.03350169,23.25 5.25,24.0335017 5.25,25 C5.25,25.9664983 6.03350169,26.75 7,26.75 Z"/>
    </g>
  </g>
</svg>
