<svg xmlns="http://www.w3.org/2000/svg" width="18" height="18" viewBox="0 0 18 18">
  <path fill="#FFF" fill-rule="evenodd" d="M10,8.68579874 L10,5 C10,4.44771525 9.55228475,4 9,4 C8.44771525,4 8,4.44771525 8,5 L8,9 C8,9.06208307 8.00565747,9.12284477 8.01648498,9.18179766 C8.03216638,9.41475319 8.12904028,9.64326615 8.30710669,9.82133255 L11.1355338,12.6497597 C11.5260581,13.040284 12.1592231,13.040284 12.5497474,12.6497597 C12.9402717,12.2592354 12.9402717,11.6260704 12.5497474,11.2355461 L10,8.68579874 Z M9,18 C4.02943725,18 0,13.9705627 0,9 C0,4.02943725 4.02943725,0 9,0 C13.9705627,0 18,4.02943725 18,9 C18,13.9705627 13.9705627,18 9,18 Z"/>
</svg>
