<svg xmlns="http://www.w3.org/2000/svg" xmlns:xlink="http://www.w3.org/1999/xlink" width="18" height="18" viewBox="0 0 18 18">
  <defs>
    <path id="tag-mono-black-a" d="M1,8.42875416 L1,3.25 L1,3.25 C1,2.00735931 2.00735931,1 3.25,1 L8.42875416,1 L8.42875416,1 C9.02549127,1 9.59778757,1.23705289 10.0197444,1.65900974 L17.3248698,8.96413509 L17.3248698,8.96413509 C18.2035494,9.84281475 18.2035494,11.2674359 17.3248698,12.1461156 L12.1461156,17.3248698 C11.2674359,18.2035494 9.84281475,18.2035494 8.96413509,17.3248698 L1.65900974,10.0197444 L1.65900974,10.0197444 C1.23705289,9.59778757 1,9.02549127 1,8.42875416 Z M5.5,6.5 C6.05228475,6.5 6.5,6.05228475 6.5,5.5 C6.5,4.94771525 6.05228475,4.5 5.5,4.5 C4.94771525,4.5 4.5,4.94771525 4.5,5.5 C4.5,6.05228475 4.94771525,6.5 5.5,6.5 Z"/>
  </defs>
  <g fill="none" fill-rule="evenodd">
    <use fill="#000" fill-opacity=".2" xlink:href="#tag-mono-black-a"/>
    <path stroke="#000" d="M1.5,8.42875416 C1.5,8.89288302 1.68437447,9.33800237 2.01256313,9.66619103 L9.31768848,16.9713164 C10.001106,17.6547339 11.1091447,17.6547339 11.7925622,16.9713164 L16.9713164,11.7925622 C17.6547339,11.1091447 17.6547339,10.001106 16.9713164,9.31768848 L9.66619103,2.01256313 C9.33800237,1.68437447 8.89288302,1.5 8.42875416,1.5 L3.25,1.5 C2.28350169,1.5 1.5,2.28350169 1.5,3.25 L1.5,8.42875416 Z M5.5,7 C4.67157288,7 4,6.32842712 4,5.5 C4,4.67157288 4.67157288,4 5.5,4 C6.32842712,4 7,4.67157288 7,5.5 C7,6.32842712 6.32842712,7 5.5,7 Z"/>
  </g>
</svg>
