<svg xmlns="http://www.w3.org/2000/svg" width="18" height="18" viewBox="0 0 18 18">
  <path fill="#FFF" fill-rule="evenodd" d="M1,8.42875416 L1,3.25 L1,3.25 C1,2.00735931 2.00735931,1 3.25,1 L8.42875416,1 L8.42875416,1 C9.02549127,1 9.59778757,1.23705289 10.0197444,1.65900974 L17.3248698,8.96413509 L17.3248698,8.96413509 C18.2035494,9.84281475 18.2035494,11.2674359 17.3248698,12.1461156 L12.1461156,17.3248698 C11.2674359,18.2035494 9.84281475,18.2035494 8.96413509,17.3248698 L1.65900974,10.0197444 L1.65900974,10.0197444 C1.23705289,9.59778757 1,9.02549127 1,8.42875416 Z M5.5,7.5 C6.6045695,7.5 7.5,6.6045695 7.5,5.5 C7.5,4.3954305 6.6045695,3.5 5.5,3.5 C4.3954305,3.5 3.5,4.3954305 3.5,5.5 C3.5,6.6045695 4.3954305,7.5 5.5,7.5 Z"/>
</svg>
