<svg xmlns="http://www.w3.org/2000/svg" xmlns:xlink="http://www.w3.org/1999/xlink" width="18" height="18" viewBox="0 0 18 18">
  <defs>
    <rect id="trash-mono-black-a" width="12" height="15" x="3" y="3" rx="2.25"/>
  </defs>
  <g fill="none" fill-rule="evenodd">
    <use fill="#000" fill-opacity=".2" xlink:href="#trash-mono-black-a"/>
    <rect width="11" height="14" x="3.5" y="3.5" stroke="#000" rx="2.25"/>
    <path fill="#000" d="M9 6C9.55613518 6 10 6.44565467 10 6.99539757L10 15.0046024C10 15.5443356 9.55228475 16 9 16 8.44386482 16 8 15.5543453 8 15.0046024L8 6.99539757C8 6.4556644 8.44771525 6 9 6zM6 6C6.55613518 6 7 6.44565467 7 6.99539757L7 15.0046024C7 15.5443356 6.55228475 16 6 16 5.44386482 16 5 15.5543453 5 15.0046024L5 6.99539757C5 6.4556644 5.44771525 6 6 6zM12 6C12.5561352 6 13 6.44565467 13 6.99539757L13 15.0046024C13 15.5443356 12.5522847 16 12 16 11.4438648 16 11 15.5543453 11 15.0046024L11 6.99539757C11 6.4556644 11.4477153 6 12 6zM12.4645556 3L10.9369913 3C10.7149699 2.13738639 9.93191971 1.5 9 1.5 8.06808029 1.5 7.28503014 2.13738639 7.06300874 3L5.53544443 3C5.77805926 1.30385293 7.23676405 0 9 0 10.763236 0 12.2219407 1.30385293 12.4645556 3zM2.00087166 3L15.9991283 3C16.5553691 3 17 3.44771525 17 4 17 4.55613518 16.5518945 5 15.9991283 5L2.00087166 5C1.44463086 5 1 4.55228475 1 4 1 3.44386482 1.4481055 3 2.00087166 3z"/>
  </g>
</svg>
