<?xml version="1.0" encoding="UTF-8"?>
<svg width="30px" height="30px" viewBox="0 0 30 30" version="1.1" xmlns="http://www.w3.org/2000/svg" xmlns:xlink="http://www.w3.org/1999/xlink">
    <title>Page 1</title>
    <g id="Page-1" stroke="none" stroke-width="1" fill="none" fill-rule="evenodd">
        <g id="refresh" transform="translate(15.500000, 14.500000) scale(-1, 1) translate(-15.500000, -14.500000) translate(9.000000, 8.000000)" fill="#797979" fill-rule="nonzero">
            <path d="M8.9375,4.875 C8.489,4.875 8.125,4.511 8.125,4.0625 C8.125,3.6456875 8.438625,3.302 8.8424375,3.2556875 L8.9375,3.25 L10.2659375,3.25 C9.3380625,2.24575 7.960875,1.625 6.5,1.625 C3.807375,1.625 1.625,3.807375 1.625,6.5 C1.625,9.192625 3.807375,11.375 6.5,11.375 C8.905,11.375 10.9403125,9.6224375 11.3140625,7.2735 C11.38475,6.8306875 11.8015625,6.5284375 12.244375,6.599125 C12.6871875,6.6698125 12.9894375,7.086625 12.91875,7.5294375 C12.419875,10.6640625 9.706125,13 6.5,13 C2.910375,13 0,10.089625 0,6.5 C0,2.910375 2.910375,0 6.5,0 C8.3744375,0 10.1456875,0.77675 11.3758125,2.058875 L11.375,0.8125 C11.375,0.3956875 11.688625,0.052 12.0924375,0.0056875 L12.1875,0 C12.6043125,0 12.948,0.313625 12.9943125,0.7174375 L13,0.8125 L13,4.0625 C13,4.4793125 12.686375,4.823 12.2825625,4.8693125 L12.1875,4.875 L8.9375,4.875 Z" id="Path"></path>
        </g>
        <rect id="Rectangle" x="0" y="0" width="30" height="30"></rect>
    </g>
</svg>