<svg xmlns="http://www.w3.org/2000/svg" width="64" height="64"><g fill="none" fill-rule="evenodd"><path fill="#B0B0B0" d="M24 30l5.6 2.5h6.6l3.9-2.5.9 4.4h-3.8l-10.8.6-2.4-2.1z"/><path fill="#828282" d="M28 41h8v14h-8z"/><path fill="#FFF" d="M29 55h6v2h-6z"/><path fill="#E6E6E6" d="M21 32c0-1.1.9-2 2-2h.8c.6 0 1 .4 1 1v2l3.9-1v-2c0-.6.4-1 1-1h4.6c.6 0 1 .4 1 1v2l3.9 1v-2c0-.6.4-1 1-1H40a3 3 0 0 1 3 3v6l-5 2H25.6L21 39v-7z"/><path fill="silver" d="M21 38s3.7-3 11-3c8 0 11 3 11 3l-3.8 2s-.6-2-7.2-2c-6.6 0-7.7 2-7.7 2L21 38z"/><path fill="#939393" fill-rule="nonzero" d="M40.2 34.3l-5.9-1.5V30h-4.6v2.8l-5.9 1.5V31H23a1 1 0 0 0-1 1v6.3l3.8 1.7h12l4.2-1.7V33a2 2 0 0 0-1.8-2v3.3zM40 30h.2-.2zm0 0h.2a3 3 0 0 1 2.8 3v6l-5 2H25.6L21 39v-7c0-1.1.9-2 2-2h.8c.6 0 1 .4 1 1v2l3.9-1v-2c0-.6.4-1 1-1h4.6c.6 0 1 .4 1 1v2l3.9 1v-2c0-.5.3-.9.8-1z"/><path fill="#DEDEDE" d="M30.7 46.7L29.4 57c-3.2-.1-4.3-.6-5-1.1-1-.7-1.5-1.5-1.4-2.7L24.8 39s2-2 7-2c4.8 0 7 2 7 2L41 53.3c.1 1-.4 2-1 2.6-.6.3-2.3 1-5.7 1.1l-1.5-10.2a2 2 0 0 0-1-3.8 2 2 0 0 0-1 3.7z"/><path fill="#FFF" fill-opacity=".3" fill-rule="nonzero" d="M27.8 45a4 4 0 1 1 7.1 2.6l1 7.3a16.6 16.6 0 0 0 2.7-.6h.1c.2-.2.3-.5.3-.7l-2-13.4a11.4 11.4 0 0 0-5.2-1.2 11.3 11.3 0 0 0-5.1 1.1L25 53.5c0 .2 0 .4.5.8.4.2 1 .4 2.1.6l1-7.4a4 4 0 0 1-.8-2.5zm1.6 12c-3.2-.1-4.3-.6-5-1.1-1-.7-1.5-1.5-1.4-2.7L24.8 39s2-2 7-2c4.8 0 7 2 7 2L41 53.3c.1 1-.4 2-1 2.6-.6.3-2.3 1-5.7 1.1l-1.5-10.2a2 2 0 0 0-1-3.8 2 2 0 0 0-1 3.7L29.3 57z"/><path fill="#939393" fill-rule="nonzero" d="M28.8 45a3 3 0 1 1 5 2.3l1.3 8.6c2.3-.1 3.8-.5 4.2-.8.5-.4.8-1 .7-1.7l-2-13.8a6.2 6.2 0 0 0-1.3-.7c-1.3-.6-3-.9-4.9-.9-2 0-3.7.3-5 1-.5.1-.9.4-1 .5L24 53.4c0 .6.2 1.1 1 1.7.5.4 1.5.7 3.5.9l1.2-8.9a3 3 0 0 1-.9-2zm.6 12c-3.2-.1-4.3-.6-5-1.1-1-.7-1.5-1.5-1.4-2.7L24.8 39s2-2 7-2c4.8 0 7 2 7 2L41 53.3c.1 1-.4 2-1 2.6-.6.3-2.3 1-5.7 1.1l-1.5-10.2a2 2 0 0 0-1-3.8 2 2 0 0 0-1 3.7L29.3 57z"/></g></svg>