<svg width="18" height="18" xmlns="http://www.w3.org/2000/svg"><g fill="#FFF" fill-rule="nonzero"><path d="M6 3.5a.5.5 0 0 1-1 0v-2a.5.5 0 0 1 1 0v2zm5 14a.5.5 0 1 1-1 0v-2a.5.5 0 1 1 1 0v2zM3.854 4.146a.5.5 0 1 1-.708.708l-1.5-1.5a.5.5 0 1 1 .708-.708l1.5 1.5zm10.5 11.5a.5.5 0 0 1-.708.708l-1.5-1.5a.5.5 0 0 1 .708-.708l1.5 1.5zM2.5 6a.5.5 0 0 1 0 1h-2a.5.5 0 0 1 0-1h2zm13 6a.5.5 0 1 1 0 1h-2a.5.5 0 1 1 0-1h2zM6.354 10.354L8 12v2l-1 1H5v2l-1 1H1.5L0 16.5v-3l4.75-4.75.896.896-4.5 4.5.708.708zM8.354 8.354l.5-.5-.708-.708-.5.5-.896-.896 1.273-1.273a5 5 0 1 1 2.92 4.08l-.693.693-1.896-1.896zM13.75 6a1.75 1.75 0 1 0 0-3.5 1.75 1.75 0 0 0 0 3.5z"/></g></svg>