<svg xmlns="http://www.w3.org/2000/svg" xmlns:xlink="http://www.w3.org/1999/xlink" width="66" height="85"><defs><path id="a" d="M0 8.992C0 5.682 2.691 3 6.008 3h2.47c1.657 0 3 1.347 3 2.997V12l11.479-3V2.997A3.004 3.004 0 0 1 25.964 0h14.072a3.006 3.006 0 0 1 3.007 2.997V9l11.479 3V5.997a2.996 2.996 0 0 1 3-2.997h-.524C61.97 3 66 7.028 66 11.99V30l-15 6H13.696L0 30V8.992z"/><path id="c" d="M21.01 45.522h-.045l-5 34.36h31.982l-4.948-33.997C42.938 39.863 38.037 35 32 35c-5.915 0-10.74 4.669-10.99 10.522zm-9.694-14.72s5.887-6.023 21.133-6.023c14.345 0 21.133 6.023 21.133 6.023l6.95 42.948c.177 1.09-.311 2.598-1.158 3.31 0 0-5.792 7.164-26.925 7.164-21.133 0-25.79-7.078-25.79-7.078-.762-.786-1.26-2.32-1.113-3.411l5.77-42.933z"/><path id="d" d="M3.081 4h56.84a1 1 0 0 1 .873 1.489l-13.799 24.62a1 1 0 0 1-.588.47C42.26 31.807 37.125 32.42 31 32.42c-6.112 0-11.07-.61-14.876-1.831a1 1 0 0 1-.573-.476L2.202 5.476A1 1 0 0 1 3.082 4z"/></defs><g fill="none" fill-rule="evenodd"><path fill="#CCC" d="M9.758 3.597L25.913 10.5h19.748L57.213 3v12.269H9.758z"/><path fill="#B3B3B3" d="M21 36h24l3.933 41.927s-8.886 1.202-16.74 1.202c-7.854 0-16.74-1.202-16.74-1.202L21 36z" opacity=".8"/><mask id="b" fill="#fff"><use xlink:href="#a"/></mask><use fill="#F2F2F2" xlink:href="#a"/><path stroke="#FFF" stroke-opacity=".309" stroke-width="4" d="M57.378 5.01c.047-.007.096-.01.145-.01V1h-.525v4c.128 0 .255.003.38.01zM64 28.646V30l1.257-1.857-1.257.503zM50.615 34l-.358.143L51 34h-.385zm-36.5 0h-.42l.803.168-.383-.168zM2 28.693l-1.197-.525L2 30v-1.307z"/><path fill="#D9D9D9" d="M.663 29.367S6.873 18 33 18c26.127 0 32.3 11.367 32.3 11.367L53.068 33.67S52.8 27 33 27s-21.324 6.67-21.324 6.67L.663 29.367z" mask="url(#b)"/><path fill="#BFBFBF" fill-rule="nonzero" d="M56.522 5.997v8.593l-15.479-4.046V2.997c0-.546-.451-.997-1.007-.997H25.964c-.557 0-1.007.45-1.007.997v7.547L9.478 14.59V5.997c0-.547-.45-.997-1-.997h-2.47A4 4 0 0 0 2 8.992v19.7L14.115 34h36.5L64 28.646V11.99c0-3.732-2.932-6.784-6.622-6.98a.995.995 0 0 0-.856.986zM56.998 3h.525c-.065 0-.13.002-.193.006A9.17 9.17 0 0 0 56.998 3zm.525-.003C62.25 3.287 66 7.203 66 11.99V30l-15 6H13.696L0 30V8.992C0 5.682 2.691 3 6.008 3h2.47c1.657 0 3 1.347 3 2.997V12l11.479-3V2.997A3.004 3.004 0 0 1 25.964 0h14.072a3.006 3.006 0 0 1 3.007 2.997V9l11.479 3V5.997c0-1.607 1-2.607 3-3z" mask="url(#b)"/><use fill="#F2F2F2" xlink:href="#c"/><path stroke="#FFF" stroke-opacity=".309" stroke-width="4" d="M19.065 44.694c.039-.393.096-.78.169-1.162l.001-.01C20.396 37.512 25.686 33 32 33c7.082 0 12.85 5.667 12.997 12.725l5.262 36.157H13.653l5.412-37.188zm-5.867-12.88l-5.67 42.187c-.066.489.235 1.41.567 1.752l.131.136.104.158c-.012-.02.012.012.079.09.15.17.353.374.617.603.817.706 1.949 1.435 3.447 2.131 4.476 2.081 11.007 3.353 19.976 3.353 8.98 0 15.738-1.291 20.585-3.414 1.641-.718 2.923-1.475 3.885-2.215.319-.245.572-.465.764-.654.095-.093.138-.141.136-.138l.12-.149.147-.124c.274-.23.544-1.02.472-1.46l-6.825-42.174c-.15-.106-.327-.228-.533-.363-.981-.644-2.18-1.294-3.598-1.906-4.116-1.776-9.154-2.848-15.153-2.848-6.392 0-11.506 1.071-15.47 2.838-1.353.604-2.462 1.242-3.342 1.87-.17.122-.316.232-.439.328z"/><path stroke="#BFBFBF" stroke-width="2" d="M20.058 44.815C20.654 38.726 25.79 34 32 34c6.558 0 11.895 5.263 11.998 11.806l5.105 35.076H14.809l5.249-36.067zM12.26 31.29L6.537 73.868c-.106.79.294 2.018.84 2.582l.118.146c.096.146.372.463.877.9.887.768 2.098 1.547 3.68 2.282 4.616 2.146 11.29 3.446 20.397 3.446 9.113 0 16.006-1.317 20.986-3.498 1.715-.75 3.067-1.549 4.094-2.339.592-.455.935-.792 1.067-.955l.134-.136c.55-.464.942-1.608.815-2.387l-6.89-42.571a11.559 11.559 0 0 0-.004-.003c-.247-.19-.548-.405-.903-.638-1.028-.675-2.277-1.353-3.75-1.988-4.239-1.83-9.411-2.93-15.549-2.93-6.53 0-11.784 1.1-15.876 2.925-1.416.63-2.583 1.303-3.517 1.97-.35.25-.614.46-.796.617z"/><path stroke="#BFBFBF" stroke-linecap="round" stroke-width="2" d="M2.5 52.5l20.343-25.552m39.733 26.065L42.182 26.948"/><g transform="translate(1 50)"><path fill="#B3B3B3" d="M4 0h55a4 4 0 0 1 4 4v1H0V4a4 4 0 0 1 4-4z"/><mask id="e" fill="#fff"><use xlink:href="#d"/></mask><use fill="#F2F2F2" xlink:href="#d"/><path stroke="#FFF" stroke-opacity=".309" stroke-width="2" d="M16.43 29.636c3.694 1.185 8.554 1.783 14.57 1.783 6.036 0 11.078-.602 15.123-1.798L59.922 5H3.082L16.43 29.636z"/><path stroke="#BFBFBF" stroke-width="2" d="M3.081 3h56.84a2 2 0 0 1 1.745 2.978l-13.798 24.62a2 2 0 0 1-1.178.94C42.443 32.796 37.215 33.42 31 33.42c-6.208 0-11.265-.622-15.181-1.879a2 2 0 0 1-1.148-.951L1.323 5.953A2 2 0 0 1 3.081 3z"/><path stroke="#DDD" stroke-linecap="square" d="M3.5 8.5h56.01m-53.01 6h50m-47 5h44m-42 5h39m-39 4h39m-39 3h39" mask="url(#e)"/></g></g></svg>