<svg height="128" width="128" xmlns="http://www.w3.org/2000/svg" xmlns:xlink="http://www.w3.org/1999/xlink"><radialGradient id="a" r="41.541%"><stop offset="0" stop-color="#f6f7fb" stop-opacity="0"/><stop offset=".31997" stop-color="#f6f7fb" stop-opacity="0"/><stop offset=".59664" stop-color="#def4ff"/><stop offset="1" stop-color="#f6f7fb" stop-opacity="0"/></radialGradient><g fill="none" fill-rule="evenodd"><circle cx="64" cy="64" fill="url(#a)" r="64"/><path d="m32.197 83.928 3.172-1.832a.73.73 0 0 0 .276-.998l-.774-1.34a.73.73 0 0 0 -1.002-.26l-3.172 1.832a3 3 0 1 0 1.5 2.598zm-1.688 8.48a2.905 2.905 0 0 1 -3.958-1.06l-5.102-8.839a2.905 2.905 0 0 1 1.06-3.958l8.838-5.102a2.905 2.905 0 0 1 3.958 1.06l5.103 8.838a2.905 2.905 0 0 1 -1.06 3.958zm.188-45.881 3.172 1.831a.73.73 0 0 0 1.002-.26l.774-1.34a.73.73 0 0 0 -.276-.998l-3.172-1.832a3 3 0 1 0 -1.5 2.598zm-8.188 2.778a2.905 2.905 0 0 1 -1.06-3.958l5.102-8.838a2.905 2.905 0 0 1 3.958-1.06l8.838 5.102a2.905 2.905 0 0 1 1.06 3.958l-5.102 8.838a2.905 2.905 0 0 1 -3.958 1.06zm73.15-5.377-3.172 1.832a.73.73 0 0 0 -.276.998l.774 1.34a.73.73 0 0 0 1.002.26l3.173-1.831a3 3 0 1 0 -1.5-2.598zm1.688-8.48a2.905 2.905 0 0 1 3.958 1.061l5.103 8.838a2.905 2.905 0 0 1 -1.06 3.958l-8.839 5.103a2.905 2.905 0 0 1 -3.958-1.06l-5.102-8.839a2.905 2.905 0 0 1 1.06-3.958l8.838-5.102zm-31.847 65.954v-3.663a.73.73 0 0 0 -.726-.738h-1.548a.73.73 0 0 0 -.726.738v3.663a3 3 0 1 0 3 0zm6.5 5.702c0 1.6-1.31 2.897-2.897 2.897h-10.206c-1.6 0-2.897-1.31-2.897-2.897v-10.207c0-1.6 1.31-2.897 2.897-2.897h10.206c1.6 0 2.897 1.31 2.897 2.897v10.206zm-9.5-80.504v3.663c0 .41.325.738.726.738h1.548a.73.73 0 0 0 .726-.738v-3.663a3 3 0 1 0 -3 0zm-6.5-5.703c0-1.6 1.31-2.897 2.897-2.897h10.206c1.6 0 2.897 1.31 2.897 2.897v10.206c0 1.6-1.31 2.897-2.897 2.897h-10.206c-1.6 0-2.897-1.31-2.897-2.897zm41.16 60.433-3.173-1.832a.73.73 0 0 0 -1.002.26l-.774 1.34a.73.73 0 0 0 .276.998l3.173 1.832a3 3 0 1 0 1.5-2.598zm8.187-2.779a2.905 2.905 0 0 1 1.06 3.958l-5.102 8.838a2.905 2.905 0 0 1 -3.958 1.06l-8.838-5.102a2.905 2.905 0 0 1 -1.06-3.958l5.102-8.838a2.905 2.905 0 0 1 3.958-1.06z" fill="#39f"/><path d="m32.684 84.224a3.5 3.5 0 1 1 -2-3.464l2.935-1.695a1.23 1.23 0 0 1 1.685.443l.774 1.34a1.23 1.23 0 0 1 -.459 1.681zm-2.425 7.75 8.838-5.102a2.405 2.405 0 0 0 .878-3.275l-5.103-8.838a2.405 2.405 0 0 0 -3.275-.877l-8.838 5.102a2.405 2.405 0 0 0 -.877 3.275l5.102 8.838a2.405 2.405 0 0 0 3.275.878zm.425-44.877a3.5 3.5 0 1 1 2-3.464l2.935 1.694c.592.342.8 1.09.46 1.681l-.775 1.34a1.23 1.23 0 0 1 -1.685.443zm-7.925 1.775 8.838 5.103a2.405 2.405 0 0 0 3.275-.878l5.103-8.838a2.405 2.405 0 0 0 -.878-3.275l-8.838-5.102a2.405 2.405 0 0 0 -3.275.877l-5.102 8.838a2.405 2.405 0 0 0 .877 3.275zm72.413-5.24a3.5 3.5 0 1 1 2 3.464l-2.935 1.695a1.23 1.23 0 0 1 -1.685-.443l-.774-1.34a1.23 1.23 0 0 1 .459-1.68l2.935-1.695zm2.425-7.75-8.838 5.102a2.405 2.405 0 0 0 -.877 3.275l5.102 8.838a2.405 2.405 0 0 0 3.275.878l8.838-5.103a2.405 2.405 0 0 0 .878-3.275l-5.103-8.838a2.405 2.405 0 0 0 -3.275-.877zm-31.597 65.245a3.5 3.5 0 1 1 -4 0v-3.39a1.23 1.23 0 0 1 1.226-1.237h1.548c.68 0 1.226.554 1.226 1.238v3.39zm5.5 5.976v-10.206a2.405 2.405 0 0 0 -2.397-2.397h-10.206a2.405 2.405 0 0 0 -2.397 2.397v10.206a2.405 2.405 0 0 0 2.397 2.397h10.206a2.405 2.405 0 0 0 2.397-2.397zm-9.5-80.23a3.5 3.5 0 1 1 4 0v3.39a1.23 1.23 0 0 1 -1.226 1.237h-1.548a1.23 1.23 0 0 1 -1.226-1.238v-3.39zm-5.5-5.976v10.206a2.405 2.405 0 0 0 2.397 2.397h10.206a2.405 2.405 0 0 0 2.397-2.397v-10.206a2.405 2.405 0 0 0 -2.397-2.397h-10.206a2.405 2.405 0 0 0 -2.397 2.397zm40.672 59.863a3.5 3.5 0 1 1 -2 3.464l-2.935-1.695a1.23 1.23 0 0 1 -.459-1.68l.774-1.34a1.23 1.23 0 0 1 1.685-.444zm7.925-1.776-8.838-5.102a2.405 2.405 0 0 0 -3.275.877l-5.102 8.838a2.405 2.405 0 0 0 .877 3.275l8.838 5.103a2.405 2.405 0 0 0 3.275-.878l5.103-8.838a2.405 2.405 0 0 0 -.878-3.275z" stroke="#525c66" stroke-opacity=".2"/></g></svg>