<svg xmlns="http://www.w3.org/2000/svg" width="16" height="16" viewBox="0 0 16 16">
  <g fill="none" fill-rule="evenodd">
    <path fill="#8173CB" d="M8,11.5555556 C9.22729944,11.5555556 10.2222222,12.5504783 10.2222222,13.7777778 C10.2222222,15.0050772 9.22729944,16 8,16 C6.77270056,16 5.77777778,15.0050772 5.77777778,13.7777778 C5.77777778,12.5504783 6.77270056,11.5555556 8,11.5555556 Z M8,5.33333333 C9.47275933,5.33333333 10.6666667,6.52724067 10.6666667,8 C10.6666667,9.47275933 9.47275933,10.6666667 8,10.6666667 C6.52724067,10.6666667 5.33333333,9.47275933 5.33333333,8 C5.33333333,6.52724067 6.52724067,5.33333333 8,5.33333333 Z M2.22222222,5.77777778 C3.44952167,5.77777778 4.44444444,6.77270056 4.44444444,8 C4.44444444,9.22729944 3.44952167,10.2222222 2.22222222,10.2222222 C0.994922778,10.2222222 0,9.22729944 0,8 C0,6.77270056 0.994922778,5.77777778 2.22222222,5.77777778 Z M13.7777778,5.77777778 C15.0050772,5.77777778 16,6.77270056 16,8 C16,9.22729944 15.0050772,10.2222222 13.7777778,10.2222222 C12.5504783,10.2222222 11.5555556,9.22729944 11.5555556,8 C11.5555556,6.77270056 12.5504783,5.77777778 13.7777778,5.77777778 Z M8,0 C9.22729944,0 10.2222222,0.994922778 10.2222222,2.22222222 C10.2222222,3.44952167 9.22729944,4.44444444 8,4.44444444 C6.77270056,4.44444444 5.77777778,3.44952167 5.77777778,2.22222222 C5.77777778,0.994922778 6.77270056,0 8,0 Z"/>
    <path fill="#B9B1E2" d="M12.7058824,10.8235294 C13.7454772,10.8235294 14.5882353,11.6662875 14.5882353,12.7058824 C14.5882353,13.7454772 13.7454772,14.5882353 12.7058824,14.5882353 C11.6662875,14.5882353 10.8235294,13.7454772 10.8235294,12.7058824 C10.8235294,11.6662875 11.6662875,10.8235294 12.7058824,10.8235294 Z M3.29411765,10.8235294 C4.33371247,10.8235294 5.17647059,11.6662875 5.17647059,12.7058824 C5.17647059,13.7454772 4.33371247,14.5882353 3.29411765,14.5882353 C2.25452282,14.5882353 1.41176471,13.7454772 1.41176471,12.7058824 C1.41176471,11.6662875 2.25452282,10.8235294 3.29411765,10.8235294 Z M3.29411765,1.41176471 C4.33371247,1.41176471 5.17647059,2.25452282 5.17647059,3.29411765 C5.17647059,4.33371247 4.33371247,5.17647059 3.29411765,5.17647059 C2.25452282,5.17647059 1.41176471,4.33371247 1.41176471,3.29411765 C1.41176471,2.25452282 2.25452282,1.41176471 3.29411765,1.41176471 Z M12.7058824,1.41176471 C13.7454772,1.41176471 14.5882353,2.25452282 14.5882353,3.29411765 C14.5882353,4.33371247 13.7454772,5.17647059 12.7058824,5.17647059 C11.6662875,5.17647059 10.8235294,4.33371247 10.8235294,3.29411765 C10.8235294,2.25452282 11.6662875,1.41176471 12.7058824,1.41176471 Z"/>
  </g>
</svg>
