<svg width="20" height="20" viewBox="0 0 20 20" fill="none" xmlns="http://www.w3.org/2000/svg">
<path fill-rule="evenodd" clip-rule="evenodd" d="M17.8752 9.99997C17.8752 14.3492 14.3495 17.875 10.0002 17.875C5.65101 17.875 2.12524 14.3492 2.12524 9.99997C2.12524 5.65071 5.65101 2.125 10.0002 2.125C14.3495 2.125 17.8752 5.65071 17.8752 9.99997Z" fill="url(#paint0_linear)"/>
<g filter="url(#filter0_ddi)">
<circle cx="10" cy="10" r="5" fill="white"/>
<circle cx="10" cy="10" r="5" fill="url(#paint1_linear)"/>
</g>
<path d="M18.75 10C18.75 14.8325 14.8325 18.75 10 18.75C5.16751 18.75 1.25 14.8325 1.25 10C1.25 5.16751 5.16751 1.25 10 1.25C14.8325 1.25 18.75 5.16751 18.75 10Z" fill="black" fill-opacity="0.01"/>
<path d="M17.5 10C17.5 14.1421 14.1421 17.5 10 17.5V20C15.5228 20 20 15.5228 20 10H17.5ZM10 17.5C5.85786 17.5 2.5 14.1421 2.5 10H0C0 15.5228 4.47715 20 10 20V17.5ZM2.5 10C2.5 5.85786 5.85786 2.5 10 2.5V0C4.47715 0 0 4.47715 0 10H2.5ZM10 2.5C14.1421 2.5 17.5 5.85786 17.5 10H20C20 4.47715 15.5228 0 10 0V2.5Z" fill="black" fill-opacity="0.3"/>
<path d="M16.875 10C16.875 13.797 13.797 16.875 10 16.875C6.20304 16.875 3.125 13.797 3.125 10C3.125 6.20304 6.20304 3.125 10 3.125C13.797 3.125 16.875 6.20304 16.875 10Z" fill="black" fill-opacity="0.01"/>
<path d="M16.25 10C16.25 13.4518 13.4518 16.25 10 16.25V17.5C14.1421 17.5 17.5 14.1421 17.5 10H16.25ZM10 16.25C6.54822 16.25 3.75 13.4518 3.75 10H2.5C2.5 14.1421 5.85786 17.5 10 17.5V16.25ZM3.75 10C3.75 6.54822 6.54822 3.75 10 3.75V2.5C5.85786 2.5 2.5 5.85786 2.5 10H3.75ZM10 3.75C13.4518 3.75 16.25 6.54822 16.25 10H17.5C17.5 5.85786 14.1421 2.5 10 2.5V3.75Z" fill="black" fill-opacity="0.3"/>
<path fill-rule="evenodd" clip-rule="evenodd" d="M10 18.75C14.8325 18.75 18.75 14.8325 18.75 10C18.75 5.16751 14.8325 1.25 10 1.25C5.16751 1.25 1.25 5.16751 1.25 10C1.25 14.8325 5.16751 18.75 10 18.75ZM10 16.875C13.797 16.875 16.875 13.797 16.875 10C16.875 6.20304 13.797 3.125 10 3.125C6.20304 3.125 3.125 6.20304 3.125 10C3.125 13.797 6.20304 16.875 10 16.875Z" fill="white"/>
<mask id="mask0" style="mask-type:alpha" maskUnits="userSpaceOnUse" x="8" y="6" width="4" height="8">
<path d="M8.75 6.71875C8.75 6.45987 8.95987 6.25 9.21875 6.25H10.7812C11.0401 6.25 11.25 6.45987 11.25 6.71875V13.2812C11.25 13.5401 11.0401 13.75 10.7812 13.75H9.21875C8.95987 13.75 8.75 13.5401 8.75 13.2812V6.71875Z" fill="black"/>
</mask>
<g mask="url(#mask0)">
<path d="M8.75 6.71875C8.75 6.45987 8.95987 6.25 9.21875 6.25H10.7812C11.0401 6.25 11.25 6.45987 11.25 6.71875V13.2812C11.25 13.5401 11.0401 13.75 10.7812 13.75H9.21875C8.95987 13.75 8.75 13.5401 8.75 13.2812V6.71875Z" fill="#808080" fill-opacity="0.7"/>
<g opacity="0.8" filter="url(#filter1_i)">
<path d="M8.75 6.71869C8.75 6.45981 8.95987 6.24994 9.21875 6.24994H10.7812C11.0401 6.24994 11.25 6.45981 11.25 6.71869V13.2812C11.25 13.5401 11.0401 13.7499 10.7812 13.7499H9.21875C8.95987 13.7499 8.75 13.5401 8.75 13.2812V6.71869Z" fill="black" fill-opacity="0.01"/>
</g>
<path d="M9.21875 6.35417H10.7812V6.14583H9.21875V6.35417ZM11.1458 6.71875V13.2812H11.3542V6.71875H11.1458ZM10.7812 13.6458H9.21875V13.8542H10.7812V13.6458ZM8.85417 13.2812V6.71875H8.64583V13.2812H8.85417ZM9.21875 13.6458C9.0174 13.6458 8.85417 13.4826 8.85417 13.2812H8.64583C8.64583 13.5977 8.90234 13.8542 9.21875 13.8542V13.6458ZM11.1458 13.2812C11.1458 13.4826 10.9826 13.6458 10.7812 13.6458V13.8542C11.0977 13.8542 11.3542 13.5977 11.3542 13.2812H11.1458ZM10.7812 6.35417C10.9826 6.35417 11.1458 6.5174 11.1458 6.71875H11.3542C11.3542 6.40234 11.0977 6.14583 10.7812 6.14583V6.35417ZM9.21875 6.14583C8.90234 6.14583 8.64583 6.40234 8.64583 6.71875H8.85417C8.85417 6.5174 9.0174 6.35417 9.21875 6.35417V6.14583Z" fill="black" fill-opacity="0.5"/>
</g>
<defs>
<filter id="filter0_ddi" x="4.84375" y="4.92188" width="10.3125" height="10.3125" filterUnits="userSpaceOnUse" color-interpolation-filters="sRGB">
<feFlood flood-opacity="0" result="BackgroundImageFix"/>
<feColorMatrix in="SourceAlpha" type="matrix" values="0 0 0 0 0 0 0 0 0 0 0 0 0 0 0 0 0 0 127 0" result="hardAlpha"/>
<feOffset dy="0.078125"/>
<feGaussianBlur stdDeviation="0.078125"/>
<feColorMatrix type="matrix" values="0 0 0 0 0 0 0 0 0 0 0 0 0 0 0 0 0 0 0.1 0"/>
<feBlend mode="normal" in2="BackgroundImageFix" result="effect1_dropShadow"/>
<feColorMatrix in="SourceAlpha" type="matrix" values="0 0 0 0 0 0 0 0 0 0 0 0 0 0 0 0 0 0 127 0" result="hardAlpha"/>
<feMorphology radius="0.078125" operator="dilate" in="SourceAlpha" result="effect2_dropShadow"/>
<feOffset/>
<feColorMatrix type="matrix" values="0 0 0 0 0 0 0 0 0 0 0 0 0 0 0 0 0 0 0.1 0"/>
<feBlend mode="normal" in2="effect1_dropShadow" result="effect2_dropShadow"/>
<feBlend mode="normal" in="SourceGraphic" in2="effect2_dropShadow" result="shape"/>
<feColorMatrix in="SourceAlpha" type="matrix" values="0 0 0 0 0 0 0 0 0 0 0 0 0 0 0 0 0 0 127 0" result="hardAlpha"/>
<feOffset dy="0.078125"/>
<feGaussianBlur stdDeviation="0.0390625"/>
<feComposite in2="hardAlpha" operator="arithmetic" k2="-1" k3="1"/>
<feColorMatrix type="matrix" values="0 0 0 0 1 0 0 0 0 1 0 0 0 0 1 0 0 0 0.65 0"/>
<feBlend mode="normal" in2="shape" result="effect3_innerShadow"/>
</filter>
<filter id="filter1_i" x="8.75" y="6.24994" width="2.5" height="9.16667" filterUnits="userSpaceOnUse" color-interpolation-filters="sRGB">
<feFlood flood-opacity="0" result="BackgroundImageFix"/>
<feBlend mode="normal" in="SourceGraphic" in2="BackgroundImageFix" result="shape"/>
<feColorMatrix in="SourceAlpha" type="matrix" values="0 0 0 0 0 0 0 0 0 0 0 0 0 0 0 0 0 0 127 0" result="hardAlpha"/>
<feOffset dy="1.66667"/>
<feGaussianBlur stdDeviation="2.34375"/>
<feComposite in2="hardAlpha" operator="arithmetic" k2="-1" k3="1"/>
<feColorMatrix type="matrix" values="0 0 0 0 0 0 0 0 0 0 0 0 0 0 0 0 0 0 1 0"/>
<feBlend mode="normal" in2="shape" result="effect1_innerShadow"/>
</filter>
<linearGradient id="paint0_linear" x1="2.12524" y1="2.125" x2="2.12524" y2="17.875" gradientUnits="userSpaceOnUse">
<stop stop-color="#0077FF" stop-opacity="0.998825"/>
<stop offset="1" stop-color="#00B9F9"/>
</linearGradient>
<linearGradient id="paint1_linear" x1="5" y1="5" x2="5" y2="15" gradientUnits="userSpaceOnUse">
<stop stop-opacity="0.1"/>
<stop offset="1" stop-opacity="0"/>
</linearGradient>
</defs>
</svg>
