<svg xmlns="http://www.w3.org/2000/svg" width="18" height="18" viewBox="0 0 18 18">
  <path fill="#FFF" fill-opacity=".75" d="M14.7082062,13.2918411 C15.0987305,13.6823654 15.0987305,14.3155304 14.7082062,14.7060547 C14.3176819,15.096579 13.6845169,15.096579 13.2939926,14.7060547 L9,10.4142136 L4.70965424,14.7060547 C4.31912994,15.096579 3.68596497,15.096579 3.29544067,14.7060547 C2.90491638,14.3155304 2.90491638,13.6823654 3.29544067,13.2918411 L7.58578644,9 L3.29544067,4.71041718 C2.90491638,4.31989288 2.90491638,3.68672791 3.29544067,3.29620361 C3.68596497,2.90567932 4.31912994,2.90567932 4.70965424,3.29620361 L9,7.58578644 L13.2939926,3.29620361 C13.6845169,2.90567932 14.3176819,2.90567932 14.7082062,3.29620361 C15.0987305,3.68672791 15.0987305,4.31989288 14.7082062,4.71041718 L10.4142136,9 L14.7082062,13.2918411 Z"/>
</svg>
