<svg xmlns="http://www.w3.org/2000/svg" width="18" height="18" viewBox="0 0 18 18">
  <path fill-opacity=".5" fill-rule="evenodd" d="M28.7852306,3.15175712 L30.9369877,1 L30.9369877,7 L24.9369877,7 L27.512756,4.42423167 C26.7517791,3.99494513 25.8729884,3.75 24.9369877,3.75 C22.0374927,3.75 19.6869877,6.10050506 19.6869877,9 C19.6869877,11.8994949 22.0374927,14.25 24.9369877,14.25 C27.4945284,14.25 29.6249346,12.4212194 30.0918643,10 L31.8660988,10 C31.3808692,13.3922941 28.4634596,16 24.9369877,16 C21.0709944,16 17.9369877,12.8659932 17.9369877,9 C17.9369877,5.13400675 21.0709944,2 24.9369877,2 C26.3585054,2 27.6810572,2.42372324 28.7852306,3.15175712 Z" transform="translate(-16)"/>
</svg>
