<svg xmlns="http://www.w3.org/2000/svg" xmlns:xlink="http://www.w3.org/1999/xlink" width="20" height="20" viewBox="0 0 20 20">
  <defs>
    <path id="button_icon-unlock-a" d="M13,9 L5,9 C3.8954305,9 3,9.8954305 3,11 L3,15 C3,16.1045695 3.8954305,17 5,17 L15,17 C16.1045695,17 17,16.1045695 17,15 L17,11 C17,9.8954305 16.1045695,9 15,9 L14.9753124,5.5 C14.7244502,2.97333865 12.5926741,1 10,1 C7.40732595,1 5.27554984,2.97333865 5,5.5 L5,8 L7,8 L7,6 C7,4.34314575 8.34314575,3 10,3 C11.6568542,3 13,4.34314575 13,6 L13,9 Z"/>
  </defs>
  <g fill="none" fill-rule="evenodd">
    <use fill="#FFF" xlink:href="#button_icon-unlock-a"/>
    <path stroke="#000" stroke-opacity=".15" d="M12.5,8.5 L12.5,6 C12.5,4.61928813 11.3807119,3.5 10,3.5 C8.61928813,3.5 7.5,4.61928813 7.5,6 L7.5,8.5 L4.5,8.5 L4.5,8 L4.50294709,5.44579295 C4.80834457,2.64544284 7.17201174,0.5 10,0.5 C12.8329253,0.5 15.1949439,2.65139386 15.4752999,5.49647328 L15.4968339,8.54936851 C16.6395311,8.77977868 17.5,9.7894027 17.5,11 L17.5,15 C17.5,16.3807119 16.3807119,17.5 15,17.5 L5,17.5 C3.61928813,17.5 2.5,16.3807119 2.5,15 L2.5,11 C2.5,9.61928813 3.61928813,8.5 5,8.5 L12.5,8.5 Z"/>
  </g>
</svg>
