<svg xmlns="http://www.w3.org/2000/svg" width="18" height="18" viewBox="0 0 18 18">
  <path fill="#FFF" fill-rule="evenodd" d="M7.85992714,4.33266814 C7.85085969,4.27438941 7.84615385,4.21466734 7.84615385,4.15384615 C7.84615385,3.51659452 8.36274837,3 9,3 C9.63725163,3 10.1538462,3.51659452 10.1538462,4.15384615 C10.1538462,4.21782007 10.1486398,4.28057798 10.1386277,4.34171929 C10.2284065,4.37679713 10.3252775,4.41457556 10.4303327,4.45505456 C12.0050037,5.06179398 13.1299775,6.62781717 13.1299775,8.46921834 L13.1299775,9.3701474 C13.1299775,10.2058641 13.6685705,10.7193724 13.6685705,10.7193724 C13.860809,10.9647466 14,11.1907232 14,11.3826137 C14,11.7718817 13.665542,12 13.0537985,12 L4.92497581,12 C3.99888338,12 3.72229234,11.4296752 4.30533925,10.7261438 C4.30533925,10.7261438 4.8473638,10.2058641 4.8473638,9.3701474 L4.8473638,8.46921834 C4.8473638,6.62781717 5.97038878,5.06179398 7.54505982,4.45505456 C7.65921145,4.41107059 7.76370024,4.37027511 7.85992714,4.33266814 Z M10.5384615,13.374483 C10.5384615,14.14878 9.84923077,14.9230769 9,14.9230769 C8.14923077,14.9230769 7.46153846,14.14878 7.46153846,13.374483 L7.46153846,13.3022789 C7.46153846,13.1353349 7.59375,13 7.76781464,13 L10.2321854,13 C10.401337,13 10.5384615,13.135197 10.5384615,13.3022789 L10.5384615,13.374483 Z"/>
</svg>
