<svg xmlns="http://www.w3.org/2000/svg" width="18" height="18" viewBox="0 0 18 18">
  <path fill-opacity=".5" fill-rule="evenodd" d="M28.7489008,11.3346872 L32.7097477,15.2955341 C33.100272,15.6860584 33.100272,16.3192234 32.7097477,16.7097477 C32.3192234,17.100272 31.6860584,17.100272 31.2955341,16.7097477 L27.3346872,12.7489008 C26.2597335,13.5355664 24.9341039,14 23.5,14 C19.9101491,14 17,11.0898509 17,7.5 C17,3.91014913 19.9101491,1 23.5,1 C27.0898509,1 30,3.91014913 30,7.5 C30,8.9341039 29.5355664,10.2597335 28.7489008,11.3346872 Z M23.5,12 C25.9852814,12 28,9.98528137 28,7.5 C28,5.01471863 25.9852814,3 23.5,3 C21.0147186,3 19,5.01471863 19,7.5 C19,9.98528137 21.0147186,12 23.5,12 Z" transform="translate(-16)"/>
</svg>
