<svg width="18" height="16" viewBox="0 0 18 16" fill="none" xmlns="http://www.w3.org/2000/svg">
<path fill-rule="evenodd" clip-rule="evenodd" d="M2.5 0.25C1.11929 0.25 0 1.36929 0 2.75V10C0 11.3807 1.11929 12.5 2.5 12.5H6.5V14.8C6.5 15.2944 7.06446 15.5767 7.46 15.28L11.1667 12.5H15.5C16.8807 12.5 18 11.3807 18 10V2.75C18 1.36929 16.8807 0.25 15.5 0.25H2.5ZM10.2294 5.06997L12.4976 5.61257L10.9837 7.35906L11.1695 9.67757L8.99955 8.78266L6.8302 9.67758L7.01535 7.35906L5.50207 5.61257L7.7697 5.06997L8.99984 3.07812L10.2294 5.06997Z" fill="white"/>
</svg>