<?xml version="1.0" encoding="UTF-8"?>
<svg width="14px" height="14px" viewBox="0 0 14 14" version="1.1" xmlns="http://www.w3.org/2000/svg" xmlns:xlink="http://www.w3.org/1999/xlink">
    <g id="Page-1" stroke="none" stroke-width="1" fill="none" fill-rule="evenodd">
        <g id="buttonIcon-clear" transform="translate(-5.000000, -5.000000)" fill="#949494" fill-rule="nonzero">
            <path d="M18.2222222,13.7768889 L13.7777778,13.7768889 L13.7777778,18.2222222 C13.7777778,19.2035556 12.9813333,20 12,20 C11.0186667,20 10.2222222,19.2035556 10.2222222,18.2222222 L10.2222222,13.7768889 L5.77777778,13.7768889 C4.79644444,13.7768889 4,12.9804444 4,11.9991111 C4,11.0177778 4.79644444,10.2213333 5.77777778,10.2213333 L10.2222222,10.2213333 L10.2222222,5.77777778 C10.2222222,4.79644444 11.0186667,4 12,4 C12.9813333,4 13.7777778,4.79644444 13.7777778,5.77777778 L13.7777778,10.2213333 L18.2222222,10.2213333 C19.2035556,10.2213333 20,11.0177778 20,11.9991111 C20,12.9804444 19.2044444,13.7768889 18.2222222,13.7768889 Z" id="Shape" transform="translate(12.000000, 12.000000) rotate(45.000000) translate(-12.000000, -12.000000) "></path>
        </g>
    </g>
</svg>