<svg xmlns="http://www.w3.org/2000/svg" width="16" height="16" viewBox="0 0 16 16">
  <path fill="#FFF" fill-rule="evenodd" d="M5.34184584,13.6910571 L0.368134659,8.78431639 C-0.106456103,8.36633477 -0.125439733,7.65758334 0.330167398,7.2032555 C0.766790898,6.74892766 1.50715249,6.73075455 1.98174325,7.16690927 L5.62660029,9.65662584 C5.83542023,9.83835698 6.15814195,9.80201075 6.32899462,9.58393339 L13.8998798,0.447566599 C14.2795524,-0.0431074693 15.019914,-0.152146151 15.532472,0.229489235 C16.0450301,0.592951508 16.1589318,1.30170294 15.7602756,1.79237701 L7.06935621,13.5456722 C6.86053627,13.8000957 6.55679819,13.9636538 6.23407647,13.9818269 C6.19610921,14 6.17712558,14 6.13915832,14 C5.83542023,14 5.55066577,13.8909613 5.34184584,13.6910571 Z"/>
</svg>
