<svg xmlns="http://www.w3.org/2000/svg" xmlns:xlink="http://www.w3.org/1999/xlink" width="48" height="48"><defs><circle id="path-1" cx="24" cy="24" r="24"/></defs><g fill-rule="evenodd"><mask id="mask-2" fill="#FFF"><use xlink:href="#path-1"/></mask><use fill="#E6737C" xlink:href="#path-1"/><path d="M48 24C48 10.7 37.3 0 24 0 10.7 0 0 10.7 0 24 0 37.3 10.7 48 24 48 37.3 48 48 37.3 48 24ZM24 47C11.3 47 1 36.7 1 24 1 11.3 11.3 1 24 1 36.7 1 47 11.3 47 24 47 36.7 36.7 47 24 47L24 47Z" fill-opacity="0.4" fill="#000" mask="url(#mask-2)"/><path d="M26 23L26 20 22 20 22 23 19 23 19 27 22 27 22 30 26 30 26 27 29 27 29 23 26 23ZM11 13C9.9 13 9 13.9 9 15L9 33C9 34.1 9.9 35 11 35L37 35C38.1 35 39 34.1 39 33L39 15C39 13.9 38.1 13 37 13L29 13C28.4 13 28 13.4 28 14 28 14.6 27.5 15 27 15L21 15C20.4 15 20 14.6 20 14 20 13.4 19.6 13 19 13L11 13ZM24 33C28.4 33 32 29.4 32 25 32 20.6 28.4 17 24 17 19.6 17 16 20.6 16 25 16 29.4 19.6 33 24 33Z" fill-opacity="0.9" fill="#FFF" mask="url(#mask-2)"/><path d="M26 23L26 20 22 20 22 23 19 23 19 27 22 27 22 30 26 30 26 27 29 27 29 23 26 23ZM27 22L27 19 21 19 21 22 18 22 18 28 21 28 21 31 27 31 27 28 30 28 30 22 27 22ZM11 12C9.3 12 8 13.3 8 15L8 33C8 34.7 9.3 36 11 36L37 36C38.7 36 40 34.7 40 33L40 15C40 13.3 38.7 12 37 12L29 12C27.9 12 27 12.9 27 14L21 14C21 12.9 20.1 12 19 12L11 12ZM11 13C9.9 13 9 13.9 9 15L9 33C9 34.1 9.9 35 11 35L37 35C38.1 35 39 34.1 39 33L39 15C39 13.9 38.1 13 37 13L29 13C28.4 13 28 13.4 28 14 28 14.6 27.5 15 27 15L21 15C20.4 15 20 14.6 20 14 20 13.4 19.6 13 19 13L11 13ZM24 33C28.4 33 32 29.4 32 25 32 20.6 28.4 17 24 17 19.6 17 16 20.6 16 25 16 29.4 19.6 33 24 33ZM24 32C27.9 32 31 28.9 31 25 31 21.1 27.9 18 24 18 20.1 18 17 21.1 17 25 17 28.9 20.1 32 24 32Z" fill-opacity="0.4" fill="#000" mask="url(#mask-2)"/><path d="M29 13L31 13 31 10C31 8.9 30.1 8 29 8L19 8C17.9 8 17 8.9 17 10L17 13 19 13 19 11C19 10.5 19.5 10 20 10L28 10C28.6 10 29 10.4 29 11L29 13Z" fill-opacity="0.6" fill="#000" mask="url(#mask-2)"/></g></svg>