<svg xmlns="http://www.w3.org/2000/svg" width="128" height="128" viewBox="0 0 128 128">
  <path fill-rule="evenodd" d="M0,64 C0,28.6537354 28.6537354,0 64,0 C99.3462646,0 128,28.6537354 128,64 C128,99.3473681 99.3462646,128 64,128 C28.6537354,128 0,99.3473681 0,64 Z M4,64 C4,97.1380596 30.8631904,124 64,124 C97.1368096,124 124,97.1380596 124,64 C124,30.8631904 97.1368096,4 64,4 C30.8631904,4 4,30.8631904 4,64 Z M114,64 C114,91.6150497 91.614008,114 64,114 C36.385992,114 14,91.6150497 14,64 C14,36.385992 36.385992,14 64,14 C91.614008,14 114,36.385992 114,64 Z M102,64 C102,43.0134444 84.9865556,26 64,26 C43.0134444,26 26,43.0134444 26,64 C26,84.9876111 43.0134444,102 64,102 C84.9865556,102 102,84.9876111 102,64 Z M56,53.3786797 L56,39 C56,37.3431458 57.3431458,36 59,36 L69,36 C70.6568542,36 72,37.3431458 72,39 L72,65.3786797 C72,65.7765044 71.8419647,66.1580353 71.5606602,66.4393398 L69.0606602,68.9393398 C68.4748737,69.5251263 68.4748737,70.4748737 69.0606602,71.0606602 L71.5606602,73.5606602 C71.8419647,73.8419647 72,74.2234956 72,74.6213203 L72,89 C72,90.6568542 70.6568542,92 69,92 L59,92 C57.3431458,92 56,90.6568542 56,89 L56,62.6213203 C56,62.2234956 56.1580353,61.8419647 56.4393398,61.5606602 L58.9393398,59.0606602 C59.5251263,58.4748737 59.5251263,57.5251263 58.9393398,56.9393398 L56.4393398,54.4393398 C56.1580353,54.1580353 56,53.7765044 56,53.3786797 Z" opacity=".05"/>
</svg>
