<svg xmlns="http://www.w3.org/2000/svg" width="16" height="16" viewBox="0 0 16 16">
  <path fill="#FFAB00" fill-rule="evenodd" d="M15.7108022,6.88463813 L13.0765485,9.92368356 L13.3985012,13.9424799 C13.4506477,14.5934027 12.9652436,15.1633531 12.3143208,15.2154996 C12.1283796,15.2303957 11.9415521,15.2010864 11.769105,15.1299668 L7.99936824,13.5752748 L4.23075075,15.1299254 C3.62709012,15.3789508 2.93585153,15.0914621 2.68682616,14.4878015 C2.61571383,14.3154186 2.58638227,14.1286602 2.60122671,13.9427773 L2.92218793,9.92368356 L0.288799103,6.88446905 C-0.138820582,6.39094984 -0.085398468,5.64421924 0.408120734,5.21659955 C0.551518251,5.09234988 0.722711705,5.00443494 0.907241396,4.96028041 L4.86143233,4.01411583 L6.99388959,0.561251142 C7.33701813,0.00565902683 8.06557518,-0.166576726 8.62116729,0.17655182 C8.77763282,0.273183481 8.90940123,0.404980073 9.00599944,0.561466258 L11.1373041,4.01411583 L15.0924403,4.96026371 C15.7275294,5.11218978 16.1192105,5.7501917 15.9672845,6.38528088 C15.9231176,6.56990962 15.8351441,6.74118927 15.7108022,6.88463813 Z"/>
</svg>
