<?xml version="1.0" encoding="UTF-8"?>
<svg width="64px" height="64px" viewBox="0 0 64 64" version="1.1" xmlns="http://www.w3.org/2000/svg" xmlns:xlink="http://www.w3.org/1999/xlink">
    <title>favorite-mask</title>
    <g id="↳-01-Login" stroke="none" stroke-width="1" fill="none" fill-rule="evenodd">
        <g id="Favorite-Badge---Mask" transform="translate(-176.000000, -64.000000)" fill="#000000">
            <path d="M240,64 L240.001127,115.155728 C239.858989,115.098983 239.711004,115.051806 239.557752,115.015145 L236.405,114.26 L234.707863,111.510914 C234.447868,111.08973 234.093212,110.734998 233.672084,110.474913 C232.176702,109.551379 230.215784,110.014953 229.292251,111.510335 L227.593,114.261 L224.441817,115.015189 C223.945154,115.134031 223.484385,115.370655 223.098429,115.705074 L222.955719,115.836413 C221.761243,117.003958 221.668959,118.915046 222.777274,120.194161 L224.861,122.6 L224.607574,125.783566 C224.56762,126.283872 224.646566,126.786533 224.837966,127.250504 L224.914268,127.421301 C225.015177,127.630661 225.136521,127.824377 225.274874,128.001024 L176,128 L176,64 L240,64 Z" id="favorite-mask"></path>
        </g>
    </g>
</svg>