<svg width="6" height="6" viewBox="0 0 6 6" fill="none" xmlns="http://www.w3.org/2000/svg">
<path d="M3.23294 0.0662069C3.29161 0.102444 3.34103 0.151868 3.37725 0.21055L4.17649 1.50529L5.65967 1.8601C5.89782 1.91707 6.0447 2.15632 5.98773 2.39448C5.97117 2.46372 5.93818 2.52795 5.89155 2.58174L4.90371 3.72138L5.02444 5.22843C5.04399 5.47253 4.86197 5.68626 4.61787 5.70581C4.54814 5.7114 4.47808 5.70041 4.41341 5.67374L2.99976 5.09073L1.58653 5.67372C1.36016 5.76711 1.10094 5.6593 1.00756 5.43293C0.980893 5.36828 0.969893 5.29825 0.97546 5.22854L1.09582 3.72138L0.1083 2.58168C-0.0520577 2.39661 -0.0320244 2.11658 0.153045 1.95622C0.206819 1.90963 0.271017 1.87666 0.340216 1.86011L1.82304 1.50529L2.62271 0.210469C2.75138 0.00212213 3.02459 -0.0624663 3.23294 0.0662069Z" fill="#FFAA00"/>
</svg>
