<svg xmlns="http://www.w3.org/2000/svg" width="5" height="8" viewBox="0 0 5 8">
  <path fill-opacity=".5" fill-rule="evenodd" d="M1.77325246,7.7791273 L4.7352826,4.6923801 L4.7352826,4.6923801 C5.106572,4.30545746 5.106572,3.69454254 4.7352826,3.3076199 L1.77325246,0.220872696 L1.77325246,0.220872696 C1.49869493,-0.0652451485 1.04417774,-0.074616637 0.758059893,0.19994089 C0.75093952,0.206773571 0.743960768,0.213752323 0.737128087,0.220872696 L0.737128087,0.220872696 L0.737128087,0.220872696 C0.447619495,0.522571123 0.447619495,0.998924926 0.737128087,1.30062335 L3.32743901,4 L0.737128087,6.69937665 L0.737128087,6.69937665 C0.447619495,7.00107507 0.447619495,7.47742888 0.737128087,7.7791273 L0.737128087,7.7791273 L0.737128087,7.7791273 C1.01168561,8.06524515 1.46620281,8.07461664 1.75232065,7.80005911 C1.75944102,7.79322643 1.76641978,7.78624768 1.77325246,7.7791273 Z"/>
</svg>
