<svg width="32" height="32" viewBox="0 0 32 32" fill="none" xmlns="http://www.w3.org/2000/svg">
<path fill-rule="evenodd" clip-rule="evenodd" d="M24.4414 15.3221C23.7726 14.3762 23.2686 13.3215 22.9377 12.2121C22.0528 9.24415 21.9959 6.1147 21.9959 5.85034C21.9959 2.61931 19.3684 0 16.1273 0C12.8862 0 10.2587 2.61931 10.2587 5.85034C10.2587 5.91615 10.2615 5.98126 10.2637 6.04665L10.2586 6.04693C10.2586 6.04693 10.2611 6.06607 10.265 6.10282C10.2698 6.21251 10.2919 9.5943 9.07418 12.903C8.74172 13.8062 8.27189 14.6507 7.72764 15.4453C6.57312 17.1303 5.91477 19.1799 5.96509 21.3859C6.08745 26.7664 10.4887 31.1566 15.886 31.2813C21.6102 31.4135 26.2922 26.8273 26.2922 21.1508C26.2922 18.9807 25.6068 16.9707 24.4414 15.3221Z" fill="#6A788A"/>
<path fill-rule="evenodd" clip-rule="evenodd" d="M22.1946 15.4369C21.7066 14.6413 21.3388 13.7543 21.0973 12.8212C20.4514 10.3253 20.4099 7.6934 20.4099 7.47096C20.4099 4.75371 18.4925 2.55078 16.1271 2.55078C13.7619 2.55078 11.8443 4.75371 11.8443 7.47096C11.8443 7.52643 11.8464 7.58106 11.8479 7.63612L11.8441 7.6364C11.8441 7.6364 11.8461 7.65246 11.8489 7.68334C11.8524 7.77556 11.8685 10.6196 10.9799 13.4023C10.7373 14.162 10.3944 14.8723 9.99722 15.5404C9.1547 16.9577 8.67422 18.6813 8.71095 20.5365C8.80037 25.0617 12.0122 28.7538 15.9509 28.8586C20.1285 28.9699 23.5454 25.1127 23.5454 20.3388C23.5454 18.5138 23.0451 16.8233 22.1946 15.4369Z" fill="white"/>
<path fill-rule="evenodd" clip-rule="evenodd" d="M16.0429 8.66895V8.68362L12.8779 10.2611L16.0429 12.8537V12.8391L19.2081 10.2463L16.0429 8.66895Z" fill="#FFAA00"/>
<path fill-rule="evenodd" clip-rule="evenodd" d="M14.8887 7.42824C14.8887 7.85678 14.5402 8.20428 14.1104 8.20428C13.6805 8.20428 13.332 7.85678 13.332 7.42824C13.332 6.99984 13.6805 6.65234 14.1104 6.65234C14.5402 6.65234 14.8887 6.99984 14.8887 7.42824Z" fill="#333333"/>
<path fill-rule="evenodd" clip-rule="evenodd" d="M18.7727 7.42824C18.7727 7.85678 18.4243 8.20428 17.9944 8.20428C17.5645 8.20428 17.2161 7.85678 17.2161 7.42824C17.2161 6.99984 17.5645 6.65234 17.9944 6.65234C18.4243 6.65234 18.7727 6.99984 18.7727 7.42824Z" fill="#333333"/>
<path fill-rule="evenodd" clip-rule="evenodd" d="M9.26433 12.354C9.26433 12.354 8.84622 13.4497 7.19945 15.2081C5.99867 16.4902 4.63811 18.1049 4.11362 20.7193C2.98643 26.3375 10.5863 29.4256 11.8697 27.5488C14.2502 24.0678 8.07967 22.5321 9.15556 17.5718C9.71495 14.9929 9.26433 12.354 9.26433 12.354Z" fill="#6A788A"/>
<path fill-rule="evenodd" clip-rule="evenodd" d="M22.7358 11.5498C22.7358 11.5498 23.1537 12.6455 24.8005 14.404C26.0013 15.6861 27.3618 17.3007 27.8865 19.9152C29.0135 25.5333 21.4137 28.6214 20.1303 26.7448C17.7497 23.2638 23.9204 21.728 22.8444 16.7676C22.285 14.1888 22.7358 11.5498 22.7358 11.5498Z" fill="#6A788A"/>
<path fill-rule="evenodd" clip-rule="evenodd" d="M19.2387 31.984C18.1951 31.8574 17.4651 30.9021 17.5385 29.8564C17.5563 29.6048 17.6082 29.3221 17.7143 29.015C18.0358 28.0841 20.7303 24.6425 22.1555 22.8598C22.5212 22.4021 23.2528 22.5482 23.4135 23.111L23.5924 23.7379C23.7651 24.342 24.3434 24.7388 24.9708 24.6837L25.5174 24.6358C26.0125 24.5924 26.4023 25.0493 26.2798 25.5295L25.9514 26.8178C25.8294 27.2952 25.9868 27.8003 26.3586 28.1251L27.0299 28.7118C27.4528 29.0813 27.3087 29.7694 26.7725 29.9381C24.6744 30.5982 20.5382 31.8829 19.8287 31.9783C19.6157 32.0068 19.4191 32.006 19.2387 31.984Z" fill="#FFAA00"/>
<path fill-rule="evenodd" clip-rule="evenodd" d="M12.4051 31.984C13.4488 31.8574 14.1789 30.9021 14.1053 29.8564C14.0876 29.6048 14.0358 29.3221 13.9295 29.015C13.6081 28.0841 10.9136 24.6425 9.48847 22.8598C9.12264 22.4021 8.39113 22.5482 8.23037 23.111L8.05138 23.7379C7.87884 24.342 7.30053 24.7388 6.67302 24.6837L6.12638 24.6358C5.63133 24.5924 5.24167 25.0493 5.36404 25.5295L5.69258 26.8178C5.81438 27.2952 5.65698 27.8003 5.28541 28.1251L4.61389 28.7118C4.19101 29.0813 4.33524 29.7694 4.8715 29.9381C6.9696 30.5982 11.1058 31.8829 11.8153 31.9783C12.0281 32.0068 12.2247 32.006 12.4051 31.984Z" fill="#FFAA00"/>
</svg>
