<svg width="17" height="17" viewBox="0 0 17 17" fill="none" xmlns="http://www.w3.org/2000/svg">
<path fill-rule="evenodd" clip-rule="evenodd" d="M8.8944 4.2302C9.58913 3.7995 10.2585 3.48146 10.8647 3.27939C10.8702 3.27756 10.8757 3.27575 10.8812 3.27394C11.2124 3.56106 11.5386 3.86475 11.8578 4.18402C12.177 4.50333 12.4807 4.82975 12.7677 5.16111C12.7659 5.16656 12.7641 5.17203 12.7623 5.17752C12.5603 5.78401 12.2423 6.45356 11.8118 7.14852C11.4074 6.6261 10.9506 6.10542 10.4438 5.59846C9.93707 5.09155 9.4166 4.63462 8.8944 4.2302ZM4.92393 2.16566C3.66782 1.85954 2.86498 2.07354 2.4693 2.46935C2.07361 2.86516 1.85968 3.66826 2.16571 4.92478C1.62962 5.5807 1.15198 6.25528 0.740837 6.93488C0.624832 6.6626 0.522164 6.39259 0.433362 6.12597C-0.170325 4.31353 -0.221004 2.33163 1.05531 1.05491C2.33162 -0.221814 4.31289 -0.17112 6.12476 0.432761C6.39127 0.521587 6.66118 0.624281 6.93336 0.740315C6.25398 1.15159 5.57963 1.6294 4.92393 2.16566ZM3.27369 10.884C3.27551 10.8784 3.27735 10.8729 3.2792 10.8674C3.48119 10.2609 3.79909 9.59143 4.22961 8.89653C4.6339 9.41889 5.09067 9.93952 5.59741 10.4464C7.23961 12.0891 9.02581 13.2068 10.5486 13.7144C12.1347 14.243 13.1195 14.0281 13.5719 13.5755C13.9676 13.1797 14.1815 12.3767 13.8756 11.1203C14.4117 10.4644 14.8893 9.78983 15.3005 9.11023C15.4165 9.38243 15.5191 9.65237 15.6079 9.91891C16.2116 11.7314 16.2622 13.7133 14.9859 14.99C13.7096 16.2667 11.7283 16.216 9.91648 15.6121C8.04127 14.9871 5.9976 13.6756 4.18342 11.8609C3.86428 11.5416 3.5607 11.2153 3.27369 10.884Z" fill="#81CA72"/>
<path fill-rule="evenodd" clip-rule="evenodd" d="M5.59717 5.59846C7.23936 3.95574 9.02557 2.83804 10.5483 2.33051C12.1344 1.80188 13.1192 2.01675 13.5717 2.46935C14.0241 2.92194 14.239 3.90706 13.7105 5.49367C13.2031 7.01693 12.0858 8.8037 10.4436 10.4464C9.93673 10.9534 9.41616 11.4104 8.89385 11.8149C9.58863 12.2457 10.258 12.5637 10.8643 12.7658C10.8698 12.7676 10.8752 12.7694 10.8806 12.7712C11.2119 12.484 11.5383 12.1802 11.8576 11.8609C13.6717 10.0461 14.9828 8.00178 15.6076 6.12597C16.2113 4.31353 16.262 2.33163 14.9857 1.05491C13.7094 -0.221814 11.7281 -0.17112 9.91624 0.432761C8.04103 1.05775 5.99736 2.36927 4.18318 4.18402C2.369 5.99878 1.05791 8.0431 0.433118 9.91891C-0.17057 11.7314 -0.221248 13.7133 1.05507 14.99C2.33138 16.2667 4.31265 16.216 6.12451 15.6121C6.39089 15.5233 6.66067 15.4207 6.9327 15.3047C6.25332 14.8934 5.57896 14.4156 4.92326 13.8793C3.66739 14.1853 2.86469 13.9713 2.46905 13.5755C2.0166 13.1229 1.8018 12.1378 2.33027 10.5512C2.83763 9.02796 3.95497 7.24118 5.59717 5.59846Z" fill="#50AD3A"/>
<circle r="1.50034" transform="matrix(1 0 0 -1 7.9996 8.00015)" fill="#8C75FF"/>
</svg>
