<svg width="32" height="32" viewBox="0 0 32 32" fill="none" xmlns="http://www.w3.org/2000/svg">
<rect width="32" height="32" fill="#B9BDC2"/>
<path fill-rule="evenodd" clip-rule="evenodd" d="M10 10C8.89543 10 8 10.8983 8 12.0063V19.9937C8 21.1017 8.89543 22 10 22H22C23.1046 22 24 21.1017 24 19.9937V12.0063C24 10.8983 23.1046 10 22 10H10ZM10 19.9937V12.0063L22 12.0063V19.9937L10 19.9937ZM11.9949 14.0044C11.4426 14.0044 10.9949 14.4521 10.9949 15.0044C10.9949 15.5567 11.4426 16.0044 11.9949 16.0044H12.9652C13.5175 16.0044 13.9652 15.5567 13.9652 15.0044C13.9652 14.4521 13.5175 14.0044 12.9652 14.0044H11.9949ZM11.9972 17.007C11.4449 17.0057 10.9961 17.4524 10.9948 18.0046C10.9935 18.5569 11.4401 19.0057 11.9924 19.007L19.9993 19.0261C20.5516 19.0274 21.0004 18.5808 21.0017 18.0285C21.003 17.4762 20.5563 17.0274 20.0041 17.0261L11.9972 17.007ZM15 15.0044C15 14.4521 15.4477 14.0044 16 14.0044H20.0017C20.554 14.0044 21.0017 14.4521 21.0017 15.0044C21.0017 15.5567 20.554 16.0044 20.0017 16.0044H16C15.4477 16.0044 15 15.5567 15 15.0044Z" fill="#35414C"/>
</svg>
