<svg width="32" height="32" viewBox="0 0 32 32" fill="none" xmlns="http://www.w3.org/2000/svg">
<path d="M10 12C11.104 12 12 11.104 12 10C12 8.974 11.228 8.128 10.234 8.014L10 8L6.73 8C9.014 5.528 12.404 4 16 4C22.628 4 28 9.372 28 16C28 22.628 22.628 28 16 28C10.08 28 5.07 23.686 4.15 17.904C3.976 16.814 2.95 16.07 1.86 16.244C0.770001 16.418 0.0260008 17.444 0.200001 18.534C1.428 26.25 8.108 32 16 32C24.836 32 32 24.836 32 16C32 7.164 24.836 0 16 0C11.386 0 7.026 1.912 3.998 5.068L4 2C4 0.974 3.228 0.128 2.234 0.014L2 0C0.974 0 0.128 0.772 0.0139999 1.766L0 2L0 10C0 11.026 0.772001 11.872 1.766 11.986L2 12L10 12Z" fill="#A6A6A6"/>
<rect x="8.92896" y="20.2429" width="16" height="4" rx="2" transform="rotate(-45 8.92896 20.2429)" fill="#F4512A"/>
</svg>
