<svg width="16" height="16" viewBox="0 0 16 16" data-path-count="2" xmlns="http://www.w3.org/2000/svg">
<path data-path-style="onLight" fill-rule="evenodd" clip-rule="evenodd" d="M0 5C0 3.34315 1.34315 2 3 2H13C14.6569 2 16 3.34315 16 5V11C16 12.6569 14.6569 14 13 14H3C1.34315 14 0 12.6569 0 11V5ZM3 4C2.44772 4 2 4.44772 2 5V11C2 11.5523 2.44772 12 3 12H13C13.5523 12 14 11.5523 14 11V5C14 4.44772 13.5523 4 13 4H3ZM3.10003 5.20003C3.26571 4.97912 3.57912 4.93434 3.80003 5.10003L5.80003 6.60003C5.92593 6.69446 6.00003 6.84265 6.00003 7.00003C6.00003 7.15741 5.92593 7.3056 5.80003 7.40003L3.80003 8.90003C3.57912 9.06571 3.26571 9.02094 3.10003 8.80003C2.93434 8.57912 2.97912 8.26571 3.20003 8.10003L4.6667 7.00003L3.20003 5.90003C2.97912 5.73434 2.93434 5.42094 3.10003 5.20003ZM6.5 9C6.22386 9 6 9.22386 6 9.5C6 9.77614 6.22386 10 6.5 10H9.5C9.77614 10 10 9.77614 10 9.5C10 9.22386 9.77614 9 9.5 9H6.5Z" />
<path data-path-style="onDark" fill-rule="evenodd" clip-rule="evenodd" d="M0 5C0 3.34315 1.34315 2 3 2H13C14.6569 2 16 3.34315 16 5V11C16 12.6569 14.6569 14 13 14H3C1.34315 14 0 12.6569 0 11V5ZM3.10003 5.2C3.26571 4.97908 3.57912 4.93431 3.80003 5.1L5.80003 6.6C5.92593 6.69443 6.00003 6.84262 6.00003 7C6.00003 7.15738 5.92593 7.30557 5.80003 7.4L3.80003 8.9C3.57912 9.06568 3.26571 9.02091 3.10003 8.8C2.93434 8.57908 2.97912 8.26568 3.20003 8.1L4.6667 7L3.20003 5.9C2.97912 5.73431 2.93434 5.42091 3.10003 5.2ZM6.5 9C6.22386 9 6 9.22386 6 9.5C6 9.77614 6.22386 10 6.5 10H9.5C9.77614 10 10 9.77614 10 9.5C10 9.22386 9.77614 9 9.5 9H6.5Z" />
</svg>
