<svg width="16" height="16" viewBox="0 0 16 16" data-path-count="2" xmlns="http://www.w3.org/2000/svg">
<path data-path-style="onLight" fill-rule="evenodd" clip-rule="evenodd" d="M4 0.5C4 0.223858 4.22386 0 4.5 0C4.77614 0 5 0.223858 5 0.5V2L5.17627 2.00509C6.1369 2.06075 6.97626 2.56841 7.48456 3.31851C8.11908 3.11177 8.79649 3 9.50001 3C13.0899 3 16 5.91015 16 9.5C16 13.0899 13.0899 16 9.50001 16C5.91016 16 3.00001 13.0899 3.00001 9.5C3.00001 8.79657 3.11175 8.11924 3.31845 7.48479C2.52282 6.9453 2 6.03371 2 5H0.5C0.223858 5 0 4.77614 0 4.5C0 4.22386 0.223858 4 0.5 4L2.17067 4.00009C2.47184 3.14793 3.14708 2.47248 3.9991 2.17102L4 0.5ZM4.73262 7.98825C4.72964 7.99768 4.72668 8.00712 4.72375 8.01657C5.44606 8.1246 6.00001 8.74761 6.00001 9.5C6.00001 10.2524 5.44606 10.8754 4.72308 10.9813C5.03782 11.9974 5.66784 12.8749 6.50001 13.498C6.5011 12.3943 7.39611 11.5 8.50001 11.5C9.60458 11.5 10.5 12.3954 10.5 13.5C10.5 13.8402 10.4151 14.1606 10.2649 14.4419C11.0797 14.3168 11.8297 13.995 12.4649 13.5265L5.4738 6.5354C5.15276 6.97097 4.90065 7.46062 4.73359 7.98833C4.73327 7.9883 4.73294 7.98828 4.73262 7.98825ZM6.53517 5.47355L13.5265 12.4649C13.995 11.8297 14.3168 11.0797 14.4411 10.2652C14.1606 10.4151 13.8402 10.5 13.5 10.5C12.3954 10.5 11.5 9.60457 11.5 8.5C11.5 7.39543 12.3954 6.5 13.5 6.5L13.4375 6.41804C12.8175 5.62702 11.9642 5.02753 10.9834 4.72374C10.8754 5.44605 10.2524 6 9.50001 6C8.76905 6 8.1602 5.47715 8.02706 4.78504L8.01872 4.72307C7.86299 4.7713 7.71052 4.82694 7.56172 4.88958C7.45079 4.93627 7.34191 4.98684 7.23523 5.04114C6.98946 5.16623 6.75541 5.31106 6.53517 5.47355Z" />
<path data-path-style="onDark" fill-rule="evenodd" clip-rule="evenodd" d="M4.83122 5.89365C3.9973 6.95583 3.5 8.29484 3.5 9.75C3.5 11.8368 4.52277 13.6848 6.09439 14.82C6.39012 13.7695 7.3552 13 8.5 13C9.88071 13 11 14.1193 11 15.5C11 15.6292 10.9902 15.7561 10.9713 15.8801C11.9515 15.6864 12.8494 15.2631 13.6067 14.6686L4.83122 5.89365ZM9.75 3.5C8.29484 3.5 6.95583 3.9973 5.89365 4.83122L14.668 13.6074C15.2631 12.8498 15.6869 11.9511 15.881 10.9699C15.7564 10.9902 15.6293 11 15.5 11C14.1193 11 13 9.88071 13 8.5C13 7.3552 13.7695 6.39012 14.8194 6.09375C13.6848 4.52277 11.8368 3.5 9.75 3.5ZM5.5 9C6.32843 9 7 9.67157 7 10.5C7 11.3284 6.32843 12 5.5 12C4.67157 12 4 11.3284 4 10.5C4 9.67157 4.67157 9 5.5 9ZM10 4.5C10.6904 4.5 11.25 5.05964 11.25 5.75C11.25 6.44036 10.6904 7 10 7C9.30964 7 8.75 6.44036 8.75 5.75C8.75 5.05964 9.30964 4.5 10 4.5ZM4.5 0C4.22386 0 4 0.223858 4 0.5L4.00009 2.17067C3.1476 2.47195 2.47195 3.1476 2.17067 4.00009L0.5 4C0.223858 4 0 4.22386 0 4.5C0 4.77614 0.223858 5 0.5 5H2C2 5.66807 2.21837 6.28514 2.58764 6.78372C3.37376 4.88886 4.88907 3.37361 6.78343 2.58806C6.28597 2.21867 5.66852 2 5 2V0.5C5 0.223858 4.77614 0 4.5 0Z"  />
</svg>
