<svg width="32" height="32" viewBox="0 0 32 32" fill="none" xmlns="http://www.w3.org/2000/svg">
<rect width="32" height="32" fill="#FAB6D7"/>
<path fill-rule="evenodd" clip-rule="evenodd" d="M18 10C18 10.1281 17.988 10.2534 17.9649 10.3749C19.8264 11.1149 21.1797 12.8766 21.3118 14.9903L21.4973 17.9574C21.499 17.9851 21.5095 18.0115 21.5273 18.0328L22.6331 19.3598C23.1759 20.0111 22.7127 21 21.8649 21H10.135C9.28713 21 8.82397 20.0111 9.36675 19.3598L10.4726 18.0328C10.4903 18.0115 10.5009 17.9851 10.5026 17.9574L10.688 14.9903C10.8201 12.8766 12.1735 11.1148 14.0351 10.3748C14.012 10.2534 14 10.1281 14 10C14 8.89543 14.8954 8 16 8C17.1046 8 18 8.89543 18 10ZM19.7741 19C19.6155 18.7201 19.5214 18.4065 19.5012 18.0821L19.3157 15.115C19.2063 13.3641 17.7543 12 15.9999 12C14.2456 12 12.7936 13.3641 12.6841 15.115L12.4987 18.0821C12.4784 18.4065 12.3844 18.7201 12.2257 19H19.7741ZM16 24C17.1046 24 18 23.1046 18 22H14C14 23.1046 14.8954 24 16 24Z" fill="#A32751"/>
</svg>
