<svg width="16" height="16" viewBox="0 0 16 16" data-path-count="1" xmlns="http://www.w3.org/2000/svg">
<path data-path-style="onLight" fill-rule="evenodd" clip-rule="evenodd" d="M7.29293 2.53557L2.53557 7.29293C2.14504 7.68346 2.14505 8.31662 2.53557 8.70714L7.29293 13.4645C7.68346 13.855 8.31662 13.855 8.70714 13.4645L13.4645 8.70714C13.855 8.31662 13.855 7.68345 13.4645 7.29293L8.70714 2.53557C8.31662 2.14504 7.68345 2.14505 7.29293 2.53557ZM1.12136 5.87872C-0.0502161 7.05029 -0.0502188 8.94978 1.12135 10.1214L5.87872 14.8787C7.05029 16.0503 8.94978 16.0503 10.1214 14.8787L14.8787 10.1214C16.0503 8.94978 16.0503 7.05029 14.8787 5.87872L10.1214 1.12136C8.94978 -0.0502161 7.05029 -0.0502188 5.87872 1.12135L1.12136 5.87872Z" />
</svg>
