<svg width="16" height="16" viewBox="0 0 16 16" data-path-count="1" xmlns="http://www.w3.org/2000/svg">
<path data-path-style="onLight" d="M9.4 13.95L10 14.75L9.4 13.95ZM10.3872 7.97201L9.58078 7.38065L10.3872 7.97201ZM3.46011 2H12.5399V0H3.46011V2ZM12.9431 2.79568L9.58078 7.38065L11.1936 8.56338L14.5559 3.97841L12.9431 2.79568ZM9 9.15474V12.75H11V9.15474H9ZM8.8 13.15L7.8 13.9L9 15.5L10 14.75L8.8 13.15ZM7 13.5V9.15474H5V13.5H7ZM6.41922 7.38065L3.0569 2.79568L1.44409 3.97841L4.80641 8.56338L6.41922 7.38065ZM7 9.15474C7 8.51666 6.79655 7.8952 6.41922 7.38065L4.80641 8.56338C4.93218 8.73489 5 8.94205 5 9.15474H7ZM7.8 13.9C7.47038 14.1472 7 13.912 7 13.5H5C5 15.5601 7.35191 16.7361 9 15.5L7.8 13.9ZM9 12.75C9 12.9074 8.9259 13.0556 8.8 13.15L10 14.75C10.6295 14.2779 11 13.5369 11 12.75H9ZM9.58078 7.38065C9.20345 7.8952 9 8.51666 9 9.15474H11C11 8.94205 11.0678 8.73489 11.1936 8.56338L9.58078 7.38065ZM12.5399 2C12.9494 2 13.1853 2.46542 12.9431 2.79568L14.5559 3.97841C15.7669 2.32709 14.5876 0 12.5399 0V2ZM3.46011 0C1.41236 0 0.233129 2.32709 1.44409 3.97841L3.0569 2.79568C2.81471 2.46542 3.05056 2 3.46011 2V0Z" />
</svg>
