<svg width="16" height="16" viewBox="0 0 16 16" data-path-count="1" xmlns="http://www.w3.org/2000/svg">
<path data-path-style="onLight" fill-rule="evenodd" clip-rule="evenodd" d="M7.55276 0.105573C7.83429 -0.0351909 8.16566 -0.0351909 8.44719 0.105573L12.7641 2.26404L10.5281 3.38207L7.99998 2.11803L5.47189 3.38207L3.23582 2.26404L7.55276 0.105573ZM5.91675 12.8404C5.41821 13.3209 5.1071 13.9565 5.02266 14.6294L0.552761 12.3944C0.213977 12.225 -2.51525e-05 11.8788 -2.51525e-05 11.5V7.35432L1.99997 8.35432V10.882L5.91675 12.8404ZM1.44719 3.60577C0.95321 3.35878 0.352537 3.559 0.105548 4.05298C-0.141442 4.54696 0.0587828 5.14763 0.552761 5.39462L7.55276 8.89462C7.83429 9.03539 8.16566 9.03539 8.44719 8.89462L14 6.11823V10.8822L7.55276 14.1058C7.05878 14.3528 6.85856 14.9534 7.10555 15.4474C7.35254 15.9414 7.95321 16.1416 8.44719 15.8946L15.4472 12.3946C15.786 12.2252 16 11.879 16 11.5002V4.5002C16 4.15362 15.8205 3.83175 15.5257 3.64954C15.2309 3.46734 14.8628 3.45077 14.5528 3.60577L7.99998 6.88216L1.44719 3.60577Z" />
</svg>
