<svg width="32" height="32" viewBox="0 0 32 32" data-path-count="1" xmlns="http://www.w3.org/2000/svg">
<path fill-rule="evenodd" clip-rule="evenodd" data-path-style="onLight" d="M19.8243 24.0669C17.8408 25.2926 15.503 26 13 26C5.8203 26 0 20.1797 0 13C0 5.8203 5.8203 0 13 0C20.1797 0 26 5.8203 26 13C26 15.503 25.2926 17.8407 24.0669 19.8242L30.655 26.4123C31.8266 27.5839 31.8266 29.4834 30.655 30.6549C29.4834 31.8265 27.5839 31.8265 26.4124 30.6549L19.8243 24.0669ZM13 22C17.9706 22 22 17.9706 22 13C22 8.02942 17.9706 3.99999 13 3.99999C8.02944 3.99999 4 8.02942 4 13C4 17.9706 8.02944 22 13 22ZM11.0053 10.2062C11.0053 10.9349 10.4 11.5235 9.65081 11.5235C8.90161 11.5235 8.29632 10.9349 8.29632 10.2062C8.29632 9.4776 8.90161 8.88893 9.65081 8.88893C10.4 8.88893 11.0053 9.4776 11.0053 10.2062ZM15.0688 10.2062C15.0688 9.4776 15.6741 8.88893 16.4233 8.88893C17.1725 8.88893 17.7778 9.4776 17.7778 10.2062C17.7778 10.9349 17.1725 11.5235 16.4233 11.5235C15.6741 11.5235 15.0688 10.9349 15.0688 10.2062ZM8.64341 16.1588C9.73547 14.8868 11.3355 14.1582 13.0371 14.1582C14.7386 14.1582 16.3386 14.8868 17.4307 16.1588C17.7863 16.5787 17.7312 17.2003 17.2995 17.5502C16.8466 17.9125 16.2117 17.8219 15.8688 17.4226C15.1662 16.5993 14.1334 16.13 13.0371 16.13C11.9408 16.13 10.908 16.6034 10.2053 17.4226C9.84552 17.8425 9.20637 17.896 8.77462 17.5502C8.34288 17.2003 8.28362 16.5787 8.64341 16.1588Z"/>
</svg>
