<svg width="32" height="32" viewBox="0 0 32 32" fill="none" xmlns="http://www.w3.org/2000/svg">
<rect width="32" height="32" fill="#91F4F9"/>
<path d="M13.5 16.5C15.0856 16.5 16.4249 17.5543 16.8551 19.0002L23 19C23.5523 19 24 19.4477 24 20C24 20.5523 23.5523 21 23 21L16.8548 21.0008C16.4243 22.4462 15.0852 23.5 13.5 23.5C11.9148 23.5 10.5757 22.4462 10.1452 21.0008L9 21C8.44772 21 8 20.5523 8 20C8 19.4477 8.44772 19 9 19L10.1449 19.0002C10.5751 17.5543 11.9144 16.5 13.5 16.5ZM13.5 18.5C12.6716 18.5 12 19.1716 12 20C12 20.8284 12.6716 21.5 13.5 21.5C14.3284 21.5 15 20.8284 15 20C15 19.1716 14.3284 18.5 13.5 18.5ZM18.5 8.5C20.0856 8.5 21.4249 9.55434 21.8551 11.0002L23 11C23.5523 11 24 11.4477 24 12C24 12.5523 23.5523 13 23 13L21.8548 13.0008C21.4243 14.4462 20.0852 15.5 18.5 15.5C16.9148 15.5 15.5757 14.4462 15.1452 13.0008L9 13C8.44772 13 8 12.5523 8 12C8 11.4477 8.44772 11 9 11L15.1449 11.0002C15.5751 9.55434 16.9144 8.5 18.5 8.5ZM18.5 10.5C17.6716 10.5 17 11.1716 17 12C17 12.8284 17.6716 13.5 18.5 13.5C19.3284 13.5 20 12.8284 20 12C20 11.1716 19.3284 10.5 18.5 10.5Z" fill="#00848C"/>
</svg>
