<svg width="16" height="16" viewBox="0 0 16 16" data-path-count="1" xmlns="http://www.w3.org/2000/svg">
<path data-path-style="onLight" fill-rule="evenodd" clip-rule="evenodd" d="M5.59717 5.59846C7.23936 3.95574 9.02557 2.83804 10.5483 2.33051C12.1344 1.80188 13.1192 2.01675 13.5717 2.46935C14.0241 2.92194 14.239 3.90706 13.7105 5.49367C13.2031 7.01693 12.0858 8.8037 10.4436 10.4464C9.93673 10.9534 9.41616 11.4104 8.89385 11.8149C9.58863 12.2457 10.258 12.5637 10.8643 12.7658L10.8806 12.7712C11.2119 12.484 11.5383 12.1802 11.8576 11.8609C13.6717 10.0461 14.9828 8.00178 15.6076 6.12597C16.2113 4.31353 16.262 2.33163 14.9857 1.05491C13.7094 -0.221814 11.7281 -0.17112 9.91624 0.432761C8.04103 1.05775 5.99736 2.36927 4.18318 4.18402C2.369 5.99878 1.05791 8.0431 0.433118 9.91891C-0.17057 11.7314 -0.221248 13.7133 1.05507 14.99C2.33138 16.2667 4.31265 16.216 6.12451 15.6121C6.39089 15.5233 6.66067 15.4207 6.9327 15.3047C6.25332 14.8934 5.57896 14.4156 4.92326 13.8793C3.66739 14.1853 2.86469 13.9713 2.46905 13.5755C2.0166 13.1229 1.8018 12.1378 2.33027 10.5512C2.83763 9.02796 3.95497 7.24118 5.59717 5.59846ZM8.89442 4.2302C9.58916 3.7995 10.2585 3.48146 10.8648 3.27939L10.8812 3.27394C11.2124 3.56106 11.5387 3.86475 11.8578 4.18402C12.177 4.50333 12.4807 4.82975 12.7677 5.16111L12.7623 5.17752C12.5603 5.78401 12.2423 6.45356 11.8118 7.14852C11.4075 6.6261 10.9506 6.10542 10.4439 5.59846C9.9371 5.09155 9.41663 4.63462 8.89442 4.2302ZM4.92396 2.16566C3.66784 1.85954 2.86501 2.07354 2.46932 2.46935C2.07364 2.86516 1.85971 3.66826 2.16574 4.92478C1.62965 5.5807 1.152 6.25528 0.740863 6.93488C0.624858 6.6626 0.522191 6.39259 0.433388 6.12597C-0.170299 4.31353 -0.220977 2.33163 1.05534 1.05491C2.33165 -0.221814 4.31292 -0.17112 6.12478 0.432761C6.39129 0.521587 6.66121 0.624281 6.93338 0.740315C6.25401 1.15159 5.57965 1.6294 4.92396 2.16566ZM3.27372 10.884L3.27922 10.8674C3.48122 10.2609 3.79912 9.59143 4.22964 8.89653C4.63393 9.41889 5.0907 9.93952 5.59744 10.4464C7.23963 12.0891 9.02584 13.2068 10.5486 13.7144C12.1347 14.243 13.1195 14.0281 13.572 13.5755C13.9676 13.1797 14.1816 12.3767 13.8756 11.1203C14.4117 10.4644 14.8894 9.78983 15.3005 9.11023C15.4165 9.38243 15.5191 9.65237 15.6079 9.91891C16.2116 11.7314 16.2623 13.7133 14.986 14.99C13.7096 16.2667 11.7284 16.216 9.91651 15.6121C8.0413 14.9871 5.99763 13.6756 4.18345 11.8609C3.8643 11.5416 3.56073 11.2153 3.27372 10.884ZM7.9996 6.49982C8.82822 6.49982 9.49994 7.17154 9.49994 8.00015C9.49994 8.82876 8.82822 9.50049 7.9996 9.50049C7.17099 9.50049 6.49927 8.82876 6.49927 8.00015C6.49927 7.17154 7.17099 6.49982 7.9996 6.49982Z" />
</svg>
