<svg width="16" height="16" viewBox="0 0 16 16" data-path-count="1" xmlns="http://www.w3.org/2000/svg">
<path data-path-style="onLight" fill-rule="evenodd" clip-rule="evenodd" d="M7.4309 0.000244141C6.32633 0.000244141 5.4309 0.895675 5.4309 2.00024C5.4309 3.10481 6.32633 4.00024 7.4309 4.00024C8.03091 4.00024 8.62505 4.11843 9.1794 4.34804C9.73374 4.57766 10.2374 4.91421 10.6617 5.33848C11.086 5.76276 11.4225 6.26645 11.6521 6.82079C11.8818 7.37513 11.9999 7.96927 11.9999 8.56928C11.9999 9.67385 12.8954 10.5693 13.9999 10.5693C15.1045 10.5693 15.9999 9.67385 15.9999 8.56928C15.9999 7.44398 15.7783 6.3297 15.3477 5.29005C14.917 4.25041 14.2858 3.30577 13.4901 2.51006C12.6944 1.71435 11.7498 1.08316 10.7101 0.652523C9.67048 0.221889 8.5562 0.000244141 7.4309 0.000244141ZM3.65726 4.6694C4.05416 4.28535 4.06458 3.65227 3.68053 3.25538C3.29648 2.85848 2.6634 2.84807 2.26651 3.23211C1.55212 3.92337 0.983783 4.75101 0.595171 5.66597C0.206558 6.58093 0.00558359 7.5646 0.00415803 8.55867C0.00273252 9.55274 0.200885 10.537 0.586872 11.4531C0.972858 12.3691 1.53882 13.1984 2.25122 13.8917C2.96362 14.585 3.80795 15.1282 4.73417 15.4892C5.66039 15.8501 6.64965 16.0215 7.64331 15.9931C8.63698 15.9646 9.61482 15.737 10.5189 15.3237C11.423 14.9104 12.2349 14.3198 12.9065 13.5869C13.2796 13.1797 13.252 12.5471 12.8448 12.174C12.4376 11.8009 11.805 11.8285 11.4319 12.2357C10.9412 12.7712 10.3479 13.2028 9.68732 13.5048C9.02671 13.8068 8.31219 13.9731 7.58612 13.9939C6.86004 14.0147 6.13719 13.8894 5.46039 13.6257C4.7836 13.3619 4.16665 12.965 3.64609 12.4584C3.12554 11.9518 2.71199 11.3459 2.42995 10.6765C2.14791 10.0071 2.00311 9.28791 2.00416 8.56154C2.0052 7.83517 2.15205 7.1164 2.43601 6.44783C2.71997 5.77926 3.13526 5.1745 3.65726 4.6694Z" />
</svg>
