<svg xmlns="http://www.w3.org/2000/svg" width="28" height="88" viewBox="0 0 28 88">
  <g fill="none">
    <path fill="#000" fill-opacity=".4" d="M20.5873908,70.5485225 L27.5777366,77.5388683 C28.1407545,78.1018862 28.1407545,79.0147186 27.5777366,79.5777366 C27.0147186,80.1407545 26.1018862,80.1407545 25.5388683,79.5777366 L18.5485225,72.5873908 C16.6017072,74.0996006 14.1560034,75 11.5,75 C5.14872538,75 -1.86517468e-13,69.8512746 -1.86517468e-13,63.5 C-1.86517468e-13,57.1487254 5.14872538,52 11.5,52 C17.8512746,52 23,57.1487254 23,63.5 C23,66.1560034 22.0996006,68.6017072 20.5873908,70.5485225 Z M11.5,72 C16.1944204,72 20,68.1944204 20,63.5 C20,58.8055796 16.1944204,55 11.5,55 C6.80557963,55 3,58.8055796 3,63.5 C3,68.1944204 6.80557963,72 11.5,72 Z"/>
    <path fill="#198CFF" d="M20.5873908,26.5485225 L27.5777366,33.5388683 C28.1407545,34.1018862 28.1407545,35.0147186 27.5777366,35.5777366 C27.0147186,36.1407545 26.1018862,36.1407545 25.5388683,35.5777366 L18.5485225,28.5873908 C16.6017072,30.0996006 14.1560034,31 11.5,31 C5.14872538,31 -1.86517468e-13,25.8512746 -1.86517468e-13,19.5 C-1.86517468e-13,13.1487254 5.14872538,8 11.5,8 C17.8512746,8 23,13.1487254 23,19.5 C23,22.1560034 22.0996006,24.6017072 20.5873908,26.5485225 Z M11.5,28 C16.1944204,28 20,24.1944204 20,19.5 C20,14.8055796 16.1944204,11 11.5,11 C6.80557963,11 3,14.8055796 3,19.5 C3,24.1944204 6.80557963,28 11.5,28 Z"/>
  </g>
</svg>
