<svg width="16" height="16" viewBox="0 0 16 16" data-path-count="1" xmlns="http://www.w3.org/2000/svg">
<path data-path-style="onLight" fill-rule="evenodd" clip-rule="evenodd" d="M5.27358 4.66619C6.19052 3.6421 7.51962 3 9.00001 3C11.7614 3 14 5.23858 14 8C14 10.7614 11.7614 13 9.00001 13C7.51962 13 6.19052 12.3579 5.27358 11.3338C4.90517 10.9224 4.27297 10.8875 3.86152 11.2559C3.45006 11.6243 3.41516 12.2565 3.78357 12.6679C5.06386 14.0978 6.92724 15 9.00001 15C12.866 15 16 11.866 16 8C16 4.13401 12.866 1 9.00001 1C6.92724 1 5.06386 1.90218 3.78357 3.33207C3.41516 3.74353 3.45006 4.37573 3.86152 4.74414C4.27297 5.11254 4.90517 5.07764 5.27358 4.66619ZM8.29289 5.29289C8.68342 4.90237 9.31658 4.90237 9.70711 5.29289L11.7071 7.29289C11.8852 7.47097 11.9821 7.69951 11.9977 7.93248C12.0022 7.99775 12.0002 8.06364 11.9917 8.12918C11.9673 8.31746 11.8893 8.50013 11.7578 8.65254C11.7399 8.67329 11.7213 8.69325 11.7018 8.71239L9.70711 10.7071C9.31658 11.0976 8.68342 11.0976 8.29289 10.7071C7.90237 10.3166 7.90237 9.68342 8.29289 9.29289L8.58579 9H1C0.447715 9 0 8.55228 0 8C0 7.44772 0.447715 7 1 7H8.58579L8.29289 6.70711C7.90237 6.31658 7.90237 5.68342 8.29289 5.29289Z" />
</svg>
