<svg width="32" height="32" viewBox="0 0 32 32" fill="none" xmlns="http://www.w3.org/2000/svg">
<rect width="32" height="32" fill="#6AE4A9"/>
<path fill-rule="evenodd" clip-rule="evenodd" d="M16.6378 21.6751C16.3823 21.7926 16.1733 21.8749 16.0321 21.925H15.9679C15.8267 21.8749 15.6177 21.7926 15.3622 21.6751C14.825 21.4281 14.1332 21.0487 13.4587 20.5286C12.0996 19.4807 11 18.0282 11 16.025V11.8867C11.5888 11.7844 12.3065 11.6304 13.0376 11.4264C13.9419 11.174 15.0682 10.792 16.0109 10.2253C16.9609 10.7805 18.0758 11.1655 18.994 11.4247C19.7142 11.6281 20.4182 11.7824 21 11.8852V16.025C21 18.0282 19.9004 19.4807 18.5413 20.5286C17.8668 21.0487 17.175 21.4281 16.6378 21.6751ZM15.4 8.225C14 9.325 10.9 9.925 9.9 10.025C9.4 10.125 9 10.525 9 11.025V16.025C9 21.725 15.4 23.925 15.7 23.925L15.7 23.925C15.85 23.975 15.925 24 16 24C16.075 24 16.15 23.975 16.3 23.925L16.3 23.925C16.6 23.925 23 21.725 23 16.025V11.025C23 10.525 22.6 10.125 22.1 10.025C21.1 9.925 18.1 9.325 16.6 8.225C16.2 7.925 15.8 7.925 15.4 8.225ZM19.3219 14.2766C19.6022 13.9377 19.5454 13.4433 19.195 13.1722C18.8446 12.9011 18.3333 12.9561 18.053 13.2949L15.4375 16.1429C15.4375 16.1429 14.625 15.75 14.387 15.5873C14.0206 15.3368 13.5553 15.2804 13.238 15.5873C12.9207 15.8941 12.9207 16.3916 13.238 16.6985L14.863 18.2699C15.0264 18.4279 15.2517 18.5112 15.4824 18.4988C15.7132 18.4864 15.9276 18.3796 16.0719 18.2051L19.3219 14.2766Z" fill="#1C673E"/>
</svg>
