<svg width="16" height="16" viewBox="0 0 16 16" data-path-count="2" xmlns="http://www.w3.org/2000/svg">
<path data-path-style="onLight" fill-rule="evenodd" clip-rule="evenodd" d="M1 2.5C1 1.11929 2.11929 0 3.5 0H5.37868C6.04172 0 6.67761 0.263392 7.14645 0.732233L7.4447 1.03049C6.53341 1.13118 5.69592 1.47677 4.99951 2H3.5C3.22386 2 3 2.22386 3 2.5V6V10.5V12.95C1.85888 12.7184 1 11.7095 1 10.5V2.5ZM5 5.5C5 4.11929 6.11929 3 7.5 3H9.37868C10.0417 3 10.6776 3.26339 11.1464 3.73223L14.2678 6.85355C14.7366 7.3224 15 7.95828 15 8.62132V13.5C15 14.8807 13.8807 16 12.5 16H7.5C6.11929 16 5 14.8807 5 13.5V5.5ZM7.5 5C7.22386 5 7 5.22386 7 5.5V13.5C7 13.7761 7.22386 14 7.5 14H12.5C12.7761 14 13 13.7761 13 13.5V9H10C9.44772 9 9 8.55228 9 8V5H7.5Z" />
<path data-path-style="onDark" fill-rule="evenodd" clip-rule="evenodd" d="M1 2.5C1 1.11929 2.11929 0 3.5 0H5.37868C6.04172 0 6.67761 0.263392 7.14645 0.732233L7.41493 1.00071C4.70292 1.04621 3 3.26704 3 6V12.95C1.85888 12.7184 1 11.7095 1 10.5V2.5ZM5 5.5C5 4.11929 6.11929 3 7.5 3H9.37868C10.0417 3 10.6776 3.26339 11.1464 3.73223L14.2678 6.85355C14.7366 7.3224 15 7.95828 15 8.62132V13.5C15 14.8807 13.8807 16 12.5 16H7.5C6.11929 16 5 14.8807 5 13.5V5.5ZM9 4C9.55228 4 10 4.44772 10 5V7C10 7.55228 10.4477 8 11 8H13C13.5523 8 14 8.44772 14 9C14 9.55228 13.5523 10 13 10H11C9.34315 10 8 8.65685 8 7V5C8 4.44772 8.44772 4 9 4Z" />
</svg>
