<svg width="32" height="32" viewBox="0 0 32 32" fill="none" xmlns="http://www.w3.org/2000/svg">
<path fill-rule="evenodd" clip-rule="evenodd" d="M26 2C28 2 30.0001 4 30.0001 6V26C30.0001 28 28 30 26 30L19.0409 29.9976L18.1599 24.9282C21.6046 24.6021 24.1139 23.1433 25.6061 20.5294C25.8735 20.0611 25.7434 19.4443 25.3157 19.1516C24.888 18.859 24.3246 19.0013 24.0573 19.4696C22.8725 21.5449 20.8205 22.7138 17.8164 22.9529L17.2545 19.7279L10.8313 18.9995L16.7578 2.00244L26 2ZM23.6767 8.00141H22.3233C22.1448 8.00141 22 8.15988 22 8.35537V12.6466C22 12.8421 22.1448 13.0005 22.3233 13.0005H23.6767C23.8552 13.0005 24 12.8421 24 12.6466V8.35537C24 8.15988 23.8552 8.00141 23.6767 8.00141Z" fill="#85BEFF"/>
<path fill-rule="evenodd" clip-rule="evenodd" d="M17 2.00293C15.7394 5.42163 13.9729 10.8632 13.4293 15.7594C13.3075 16.8557 14.0207 17.8525 15.0221 17.9858C15.0952 17.9955 15.1688 18.0004 15.2425 18.0004H18C18.0253 19.755 17.9949 21.3959 18.1555 22.9232C17.6681 22.9735 17.1536 22.9994 16.6123 22.9994C12.9451 22.9994 10.5042 21.8117 9.16739 19.47C8.90007 19.0017 8.33663 18.8594 7.90892 19.152C7.4812 19.4447 7.35118 20.0615 7.6185 20.5298C9.32584 23.5205 12.3645 24.999 16.6123 24.999C17.239 24.999 17.8395 24.9668 18.4132 24.9024C18.7068 26.8031 19.4606 28.5001 20 29.998L6 30.0002C4 30.0002 2 28.0002 2 26.0002V6.00024C2 4.00024 4 2.00293 6 2.00301L17 2.00293ZM9.67668 8.00182H8.30608C8.12752 8.00182 7.98277 8.1603 7.98277 8.35578V12.647C7.98277 12.8425 8.12752 13.001 8.30608 13.001H9.67668C9.85525 13.001 10 12.8425 10 12.647V8.35578C10 8.1603 9.85525 8.00182 9.67668 8.00182Z" fill="#248AFF"/>
</svg>
