<svg width="32" height="32" viewBox="0 0 32 32" data-path-count="1" xmlns="http://www.w3.org/2000/svg">
<path data-path-style="onLight" fill-rule="evenodd" clip-rule="evenodd" d="M27.9297 0.640693L27.0344 2.43122C28.1604 2.93338 29.0666 3.83959 29.5688 4.96561L31.3593 4.07035C30.6618 2.55879 29.4412 1.33821 27.9297 0.640693ZM32 9H30V13.5H32V9ZM23 2H18.5V0H23V2ZM0.640693 4.07035C1.33821 2.55879 2.55879 1.33821 4.07035 0.640693L4.96561 2.43122C3.83959 2.93338 2.93338 3.83959 2.43122 4.96561L0.640693 4.07035ZM2 9H0V13.5H2V9ZM9 2V0H13.5V2H9ZM2 18.5H0V23H2V18.5ZM4.07035 31.3593C2.55879 30.6618 1.33821 29.4412 0.640692 27.9297L2.43122 27.0344C2.93338 28.1604 3.83959 29.0666 4.96561 29.5688L4.07035 31.3593ZM13.5 32H9V30H13.5V32ZM23 30V32H18.5V30H23ZM27.0344 29.5688L27.9297 31.3593C29.4412 30.6618 30.6618 29.4412 31.3593 27.9297L29.5688 27.0344C29.0666 28.1604 28.1604 29.0666 27.0344 29.5688ZM32 18.5V23H30V18.5H32ZM16.7207 18.0186H14.6113V17.9131C14.6113 16.0059 15.2178 15.0215 16.2988 14.4238C17.1953 13.9316 17.7402 13.2461 17.7402 12.3936C17.7402 11.4268 16.9932 10.7588 15.9912 10.7588C14.9717 10.7588 14.2334 11.4531 14.1895 12.5078H11.9307C11.9922 10.1699 13.7148 8.88672 16 8.88672C18.373 8.88672 20.0781 10.1787 20.0869 12.3584C20.0781 13.7471 19.3926 14.7402 18.1885 15.4521C17.0898 16.1201 16.7207 16.6562 16.7207 17.9131V18.0186ZM17.002 20.8486C17.002 21.5605 16.4043 22.1406 15.666 22.1406C14.9277 22.1406 14.3301 21.5605 14.3301 20.8486C14.3301 20.1367 14.9277 19.5566 15.666 19.5566C16.4043 19.5566 17.002 20.1367 17.002 20.8486Z" />
</svg>
