<svg width="32" height="32" viewBox="0 0 32 32" fill="none" xmlns="http://www.w3.org/2000/svg">
<path fill-rule="evenodd" clip-rule="evenodd" d="M21.8454 7.73694C22.7526 7.73694 26.0309 7.81947 28.1753 10.9142C27.9897 11.0587 24.732 12.8949 24.732 17.0006C24.732 21.746 28.8763 23.4378 29 23.479C28.9794 23.5822 28.3402 25.7692 26.8144 28.0181C25.4536 29.9781 24.0103 31.9587 21.8454 31.9587C19.6598 31.9587 19.1031 30.6796 16.6082 30.6796C14.1546 30.6796 13.2887 32 11.3093 32C9.30928 32 7.92784 30.1638 6.34021 27.9355C4.48454 25.2946 3 21.2095 3 17.3308C3 11.1206 7.04124 7.81947 11.0206 7.81947C13.1237 7.81947 14.8763 9.20181 16.2165 9.20181C17.4742 9.20181 19.433 7.73694 21.8454 7.73694ZM20.7113 5.1167C19.6392 6.41651 17.8247 7.3862 16.3814 7.3862C16.2165 7.3862 16.0515 7.36557 15.9485 7.34494C15.9278 7.26241 15.8866 7.01483 15.8866 6.76725C15.8866 5.1167 16.732 3.46615 17.6392 2.43456C18.7938 1.07286 20.732 0.0618956 22.3402 0C22.3814 0.185687 22.4021 0.412637 22.4021 0.639587C22.4021 2.29014 21.701 3.92005 20.7113 5.1167Z" fill="#A7AFB7"/>
</svg>
