<svg width="16" height="16" viewBox="0 0 16 16" data-path-count="1" xmlns="http://www.w3.org/2000/svg">
<path data-path-style="onLight" fill-rule="evenodd" clip-rule="evenodd" d="M7.9547 -0.0268555L8.18191 0.0253701C8.27143 0.0459484 8.40603 0.0792625 8.53629 0.140365C8.61236 0.17605 8.71132 0.232045 8.80993 0.320862C8.91527 0.415727 8.97721 0.509776 9.00597 0.556365L11.1373 4.00901L15.0924 4.95516C15.4097 5.03106 15.6675 5.22992 15.825 5.48648C15.9825 5.74304 16.0432 6.0629 15.9673 6.38018C15.9231 6.56481 15.8351 6.73609 15.7108 6.87954L14.9551 6.22455L15.7108 6.87954L13.0765 9.91858L13.3985 13.9374C13.4245 14.2626 13.3152 14.5692 13.12 14.7984C12.9248 15.0276 12.6395 15.1843 12.3143 15.2104C12.1284 15.2253 11.9415 15.196 11.7691 15.1249L12.1503 14.2004L11.7691 15.1249L7.99934 13.5702L4.23072 15.1248C3.92915 15.2492 3.60374 15.2391 3.32577 15.1235L3.70979 14.2002L3.32577 15.1235C3.0478 15.0079 2.8112 14.7843 2.6868 14.4827C2.61568 14.3103 2.58635 14.1236 2.6012 13.9377L2.92216 9.91858L0.288769 6.87937C0.07514 6.63282 -0.0184793 6.321 0.00300309 6.02072C0.0244856 5.72044 0.161541 5.42513 0.408091 5.2115C0.551489 5.08725 0.722683 4.99933 0.907212 4.95518L4.8614 4.00901L6.99386 0.55615C7.16528 0.278589 7.43485 0.0960406 7.72783 0.0267798L7.9547 -0.0268555ZM7.99968 2.73373L9.65223 5.41081L9.86906 5.76206L10.2705 5.8581L13.3176 6.58701L11.2906 8.92546L11.0159 9.24232L11.0494 9.66031L11.2983 12.7673L8.38055 11.564L7.99924 11.4067L7.61794 11.564L4.70103 12.7673L4.94917 9.66006L4.98253 9.24232L4.70811 8.9256L2.68179 6.58701L5.72812 5.85808L6.12941 5.76206L6.34623 5.411L7.99968 2.73373Z" />
</svg>
