<svg width="16" height="16" data-path-count="1" viewBox="0 0 16 16" xmlns="http://www.w3.org/2000/svg">
<path data-path-style="onLight" d="M4 3C3.44772 3 3 3.44772 3 4V12C3 12.5523 3.44772 13 4 13H12C12.5523 13 13 12.5523 13 12V11C13 10.4477 13.4477 10 14 10C14.5523 10 15 10.4477 15 11V12C15 13.6569 13.6569 15 12 15H4C2.34315 15 1 13.6569 1 12V4C1 2.34315 2.34315 1 4 1H5C5.55228 1 6 1.44772 6 2C6 2.55228 5.55228 3 5 3H4ZM8 2C8 1.44772 8.44772 1 9 1H14C14.5523 1 15 1.44772 15 2V7C15 7.55228 14.5523 8 14 8C13.4477 8 13 7.55228 13 7L12.6768 4.73744L7.70711 9.70711C7.31658 10.0976 6.68342 10.0976 6.29289 9.70711C5.90237 9.31658 5.90237 8.68342 6.29289 8.29289L11.2626 3.32322L9 3C8.44772 3 8 2.55228 8 2Z" />
</svg>
