<svg width="32" height="32" viewBox="0 0 32 32" fill="none" xmlns="http://www.w3.org/2000/svg">
<rect x="1" y="1" width="30" height="30" rx="5" fill="#81CA72"/>
<mask id="mask0_18952:191232" style="mask-type:alpha" maskUnits="userSpaceOnUse" x="0" y="0" width="32" height="32">
<rect width="32" height="32" rx="6" fill="#C4C4C4"/>
</mask>
<g mask="url(#mask0_18952:191232)">
<circle r="18.75" transform="matrix(1 0 0.00878081 0.999961 16.1712 29.4992)" fill="white" stroke="#157901" stroke-width="1.5" stroke-miterlimit="10" stroke-linecap="round" stroke-linejoin="round"/>
<circle r="13.7202" transform="matrix(0.722531 -0.691338 0.697656 0.716433 16.0001 29.7017)" fill="#81CA72"/>
<path d="M16 11V14" stroke="#157901" stroke-width="1.5" stroke-miterlimit="10" stroke-linecap="round" stroke-linejoin="round"/>
<path d="M-2.14941 29.4331L0.378845 29.4331" stroke="#157901" stroke-width="1.5" stroke-miterlimit="10" stroke-linecap="round" stroke-linejoin="round"/>
<path d="M31.658 29.4331L34.1862 29.4331" stroke="#157901" stroke-width="1.5" stroke-miterlimit="10" stroke-linecap="round" stroke-linejoin="round"/>
<path d="M27.8247 19.0701L29.946 16.9487" stroke="#157901" stroke-width="1.5" stroke-miterlimit="10" stroke-linecap="round" stroke-linejoin="round"/>
<path d="M4.40381 19.0701L2.28249 16.9487" stroke="#157901" stroke-width="1.5" stroke-miterlimit="10" stroke-linecap="round" stroke-linejoin="round"/>
<path d="M11.2721 34.7279L24 22" stroke="#157901" stroke-width="1.5" stroke-miterlimit="10" stroke-linecap="round" stroke-linejoin="round"/>
<circle cx="16" cy="30.5355" r="2.5" transform="rotate(45 16 30.5355)" fill="#F3FFF6" stroke="#157901" stroke-width="1.5" stroke-miterlimit="10" stroke-linecap="round" stroke-linejoin="round"/>
<rect x="0.75" y="0.75" width="30.5" height="30.5" rx="5.25" stroke="#157901" stroke-width="1.5"/>
<path d="M19.5 11V9.5C19.5 7.567 17.933 6 16 6V6C14.067 6 12.5 7.567 12.5 9.5V11" stroke="#157901" stroke-width="1.5" stroke-miterlimit="10" stroke-linecap="round" stroke-linejoin="round"/>
</g>
</svg>
