<svg width="16" height="16" viewBox="0 0 16 16" data-path-count="2" xmlns="http://www.w3.org/2000/svg">
<path data-path-style="onLight" fill-rule="evenodd" clip-rule="evenodd" d="M1 8C1 11.866 4.13401 15 8 15C8 15.35 8.05993 15.686 8.17008 15.9982C8.11353 15.9994 8.05683 16 8 16C3.58172 16 0 12.4183 0 8C0 3.58172 3.58172 0 8 0C12.4183 0 16 3.58172 16 8C16 8.11589 15.9975 8.2312 15.9927 8.34589C15.7043 8.02094 15.3637 7.74329 14.9842 7.52604C14.7405 3.88108 11.7067 1 8 1C4.13401 1 1 4.13401 1 8ZM13 7C13.3218 7 13.6346 7.03799 13.9344 7.10973C13.5043 4.21822 11.0112 2 8 2C4.68629 2 2 4.68629 2 8C2 11.3137 4.68629 14 8 14V13C8 12.648 8.06062 12.3102 8.17199 11.9964C8.11496 11.9988 8.05762 12 8 12C5.79086 12 4 10.2091 4 8C4 5.79086 5.79086 4 8 4C9.91761 4 11.5201 5.34939 11.9096 7.15043C12.2562 7.05243 12.622 7 13 7ZM8 5.5C7.44772 5.5 7 5.94772 7 6.5V9.5C7 10.0523 7.44772 10.5 8 10.5C8.55229 10.5 9 10.0523 9 9.5V6.5C9 5.94772 8.55229 5.5 8 5.5ZM11 11C11 9.89543 11.8954 9 13 9C14.1046 9 15 9.89543 15 11V12C15.5523 12 16 12.4477 16 13V15C16 15.5523 15.5523 16 15 16H11C10.4477 16 10 15.5523 10 15V13C10 12.4477 10.4477 12 11 12V11ZM14 11V12H12V11C12 10.4477 12.4477 10 13 10C13.5523 10 14 10.4477 14 11Z" />
<path data-path-style="onDark" fill-rule="evenodd" clip-rule="evenodd" d="M8 4C9.91761 4 11.5201 5.34939 11.9096 7.15043C10.3051 7.60401 9.11034 9.03366 9.00723 10.7574C8.63314 11.0901 8.34285 11.515 8.17199 11.9964C8.11496 11.9988 8.05762 12 8 12C5.79086 12 4 10.2091 4 8C4 5.79086 5.79086 4 8 4ZM2 8C2 11.3137 4.68629 14 8 14V15C8 15.35 8.05993 15.686 8.17008 15.9982C8.11353 15.9994 8.05683 16 8 16C3.58172 16 0 12.4183 0 8C0 3.58172 3.58172 0 8 0C12.4183 0 16 3.58172 16 8C16 8.11589 15.9975 8.2312 15.9927 8.34589C15.4579 7.74337 14.744 7.30348 13.9344 7.10973C13.5043 4.21822 11.0112 2 8 2C4.68629 2 2 4.68629 2 8ZM7 6.5C7 5.94772 7.44772 5.5 8 5.5C8.55228 5.5 9 5.94772 9 6.5V9.5C9 10.0523 8.55228 10.5 8 10.5C7.44772 10.5 7 10.0523 7 9.5V6.5ZM11 11C11 9.89543 11.8954 9 13 9C14.1046 9 15 9.89543 15 11V12C15.5523 12 16 12.4477 16 13V15C16 15.5523 15.5523 16 15 16H11C10.4477 16 10 15.5523 10 15V13C10 12.4477 10.4477 12 11 12V11ZM14 11V12H12V11C12 10.4477 12.4477 10 13 10C13.5523 10 14 10.4477 14 11Z" />
</svg>
