<svg width="32" height="32" viewBox="0 0 32 32" fill="none" xmlns="http://www.w3.org/2000/svg">
<rect width="32" height="32" fill="#6AE4A9"/>
<path fill-rule="evenodd" clip-rule="evenodd" d="M20 13C20 15.2091 18.2091 17 16 17C13.7909 17 12 15.2091 12 13C12 10.7909 13.7909 9 16 9C18.2091 9 20 10.7909 20 13ZM14 13C14 14.1046 14.8954 15 16 15C17.1046 15 18 14.1046 18 13C18 11.8954 17.1046 11 16 11C14.8954 11 14 11.8954 14 13ZM11.902 22.4851C11.5864 21.2228 12.5412 20 13.8423 20H18.1576C19.4588 20 20.4135 21.2228 20.0979 22.4851L20.0298 22.7575C19.8959 23.2933 20.2216 23.8362 20.7574 23.9701C21.2932 24.1041 21.8362 23.7783 21.9701 23.2425L22.0382 22.9701C22.6694 20.4456 20.7599 18 18.1576 18H13.8423C11.24 18 9.33059 20.4456 9.96173 22.9701L10.0298 23.2425C10.1638 23.7783 10.7067 24.1041 11.2425 23.9701C11.7783 23.8362 12.1041 23.2933 11.9701 22.7575L11.902 22.4851Z" fill="#1C673E"/>
</svg>
