<svg width="16" height="16" viewBox="0 0 16 16" data-path-count="2" xmlns="http://www.w3.org/2000/svg">
<path data-path-style="onLight" fill-rule="evenodd" clip-rule="evenodd" d="M11 8C11 9.65685 9.65685 11 8 11C6.34315 11 5 9.65685 5 8C5 6.34315 6.34315 5 8 5C9.65685 5 11 6.34315 11 8ZM9 8C9 8.55228 8.55228 9 8 9C7.44772 9 7 8.55228 7 8C7 7.44772 7.44772 7 8 7C8.55228 7 9 7.44772 9 8Z M6.99995 0C5.89538 0 4.99995 0.89543 4.99995 2V2.23244C4.83059 2.32069 4.66565 2.41615 4.50554 2.5184L4.3038 2.40193C3.34722 1.84965 2.12404 2.1774 1.57175 3.13398L0.571754 4.86603C0.0194693 5.82262 0.34722 7.0458 1.3038 7.59808L1.50612 7.71489C1.50202 7.80946 1.49996 7.90452 1.49996 8C1.49996 8.0955 1.50202 8.19057 1.50612 8.28517L1.3038 8.40198C0.347215 8.95426 0.0194654 10.1774 0.57175 11.134L1.57175 12.8661C2.12404 13.8227 3.34722 14.1504 4.3038 13.5981L4.50558 13.4816C4.66568 13.5839 4.83061 13.6793 4.99995 13.7676V14C4.99995 15.1046 5.89538 16 6.99995 16H8.99995C10.1045 16 11 15.1046 11 14V13.7676C11.1693 13.6793 11.3343 13.5839 11.4944 13.4816L11.6961 13.5981C12.6527 14.1504 13.8759 13.8226 14.4282 12.866L15.4282 11.134C15.9804 10.1774 15.6527 8.95421 14.6961 8.40193L14.4938 8.28513C14.4979 8.19054 14.5 8.09549 14.5 8C14.5 7.90453 14.4979 7.80949 14.4938 7.71493L14.6961 7.59813C15.6527 7.04584 15.9804 5.82266 15.4282 4.86608L14.4282 3.13403C13.8759 2.17744 12.6527 1.84969 11.6961 2.40198L11.4944 2.51842C11.3343 2.41616 11.1693 2.32069 11 2.23244V2C11 0.895432 10.1045 0 8.99995 0H6.99995ZM6.99995 2H8.99995L8.99995 2.87494C8.99995 3.28683 9.25251 3.65659 9.63618 3.80643C10.0631 3.97317 10.459 4.20358 10.8118 4.48641C11.1334 4.74421 11.5803 4.77825 11.9372 4.57216L12.6961 4.13403L13.6961 5.86608L12.9377 6.30392C12.5814 6.50968 12.3874 6.91274 12.449 7.31962C12.4825 7.54096 12.5 7.76812 12.5 8C12.5 8.23189 12.4825 8.45907 12.449 8.68042C12.3874 9.0873 12.5813 9.49037 12.9377 9.69613L13.6961 10.134L12.6961 11.866L11.9372 11.4279C11.5802 11.2218 11.1334 11.2558 10.8118 11.5136C10.4589 11.7964 10.0631 12.0268 9.63618 12.1936C9.25251 12.3434 8.99995 12.7132 8.99995 13.1251V14H6.99995V13.1251C6.99995 12.7132 6.7474 12.3434 6.36373 12.1936C5.93679 12.0268 5.541 11.7964 5.18817 11.5136C4.86655 11.2559 4.41971 11.2218 4.06275 11.4279L3.3038 11.8661L2.3038 10.134L3.0622 9.69617C3.41858 9.49041 3.61253 9.08734 3.55093 8.68046C3.51742 8.45909 3.49996 8.2319 3.49996 8C3.49996 7.76811 3.51741 7.54094 3.55092 7.31959C3.61252 6.91271 3.41857 6.50964 3.06219 6.30388L2.3038 5.86603L3.3038 4.13398L4.06271 4.57213C4.41967 4.77822 4.86651 4.74418 5.18813 4.48639C5.54098 4.20357 5.93678 3.97317 6.36373 3.80643C6.7474 3.65659 6.99995 3.28683 6.99995 2.87494V2Z" />
<path data-path-style="onDark" d="M8.00823 10C9.1128 10 10.0082 9.10457 10.0082 8C10.0082 6.89543 9.1128 6 8.00823 6C6.90367 6 6.00823 6.89543 6.00823 8C6.00823 9.10457 6.90367 10 8.00823 10Z M6.00833 1C6.00833 0.447715 6.45605 0 7.00833 0H9.00833C9.56062 0 10.0083 0.447715 10.0083 1V1.81353C10.8913 2.09879 11.6917 2.56784 12.3643 3.17558L13.2252 2.67856C13.7035 2.40242 14.3151 2.5663 14.5912 3.04459L15.5912 4.77664C15.8673 5.25493 15.7035 5.86652 15.2252 6.14267L14.3655 6.639C14.459 7.0779 14.5082 7.53321 14.5082 8C14.5082 8.46677 14.459 8.92206 14.3655 9.36094L15.2278 9.85878C15.7061 10.1349 15.87 10.7465 15.5938 11.2248L14.5938 12.9569C14.3177 13.4351 13.7061 13.599 13.2278 13.3229L12.3644 12.8244C11.6917 13.4321 10.8913 13.9012 10.0083 14.1865V15C10.0083 15.5523 9.56062 16 9.00833 16H7.00833C6.45605 16 6.00833 15.5523 6.00833 15V14.1865C5.12521 13.9013 4.32473 13.4322 3.652 12.8243L2.76018 13.3392C2.28188 13.6153 1.67029 13.4515 1.39415 12.9732L0.394151 11.2411C0.118009 10.7628 0.281884 10.1512 0.760177 9.87511L1.6509 9.36085C1.55742 8.92199 1.50822 8.46674 1.50822 8C1.50822 7.53322 1.55742 7.07793 1.65093 6.63903L0.792061 6.14317C0.313768 5.86703 0.149893 5.25544 0.426035 4.77714L1.42604 3.04509C1.70218 2.5668 2.31377 2.40292 2.79206 2.67907L3.65209 3.1756C4.32481 2.5678 5.12525 2.09872 6.00833 1.81346V1ZM8.00822 12C10.2174 12 12.0082 10.2091 12.0082 8C12.0082 5.79086 10.2174 4 8.00822 4C5.79908 4 4.00822 5.79086 4.00822 8C4.00822 10.2091 5.79908 12 8.00822 12Z" />
</svg>
