<svg width="32" height="32" viewBox="0 0 32 32" fill="none" xmlns="http://www.w3.org/2000/svg">
<rect width="32" height="32" fill="#66CBFF"/>
<path fill-rule="evenodd" clip-rule="evenodd" d="M19 16C19 17.6569 17.6569 19 16 19C14.3431 19 13 17.6569 13 16C13 14.3431 14.3431 13 16 13C17.6569 13 19 14.3431 19 16ZM17 16C17 16.5523 16.5523 17 16 17C15.4477 17 15 16.5523 15 16C15 15.4477 15.4477 15 16 15C16.5523 15 17 15.4477 17 16Z" fill="#034EA6"/>
<path fill-rule="evenodd" clip-rule="evenodd" d="M15 8C13.8954 8 13 8.89543 13 10V10.2324C12.8306 10.3207 12.6657 10.4161 12.5055 10.5184L12.3038 10.4019C11.3472 9.84965 10.124 10.1774 9.57175 11.134L8.57175 12.866C8.01947 13.8226 8.34722 15.0458 9.3038 15.5981L9.50612 15.7149C9.50202 15.8095 9.49996 15.9045 9.49996 16C9.49996 16.0955 9.50202 16.1906 9.50612 16.2852L9.3038 16.402C8.34722 16.9543 8.01947 18.1774 8.57175 19.134L9.57175 20.8661C10.124 21.8227 11.3472 22.1504 12.3038 21.5981L12.5056 21.4816C12.6657 21.5839 12.8306 21.6793 13 21.7676V22C13 23.1046 13.8954 24 15 24H17C18.1045 24 19 23.1046 19 22V21.7676C19.1693 21.6793 19.3343 21.5839 19.4944 21.4816L19.6961 21.5981C20.6527 22.1504 21.8759 21.8226 22.4282 20.866L23.4282 19.134C23.9804 18.1774 23.6527 16.9542 22.6961 16.4019L22.4938 16.2851C22.4979 16.1905 22.5 16.0955 22.5 16C22.5 15.9045 22.4979 15.8095 22.4938 15.7149L22.6961 15.5981C23.6527 15.0458 23.9804 13.8227 23.4282 12.8661L22.4282 11.134C21.8759 10.1774 20.6527 9.84969 19.6961 10.402L19.4944 10.5184C19.3343 10.4162 19.1693 10.3207 19 10.2324V10C19 8.89543 18.1045 8 17 8H15ZM15 10H17L17 10.8749C17 11.2868 17.2525 11.6566 17.6362 11.8064C18.0631 11.9732 18.459 12.2036 18.8118 12.4864C19.1334 12.7442 19.5803 12.7783 19.9372 12.5722L20.6961 12.134L21.6961 13.8661L20.9377 14.3039C20.5814 14.5097 20.3874 14.9127 20.449 15.3196C20.4825 15.541 20.5 15.7681 20.5 16C20.5 16.2319 20.4825 16.4591 20.449 16.6804C20.3874 17.0873 20.5813 17.4904 20.9377 17.6961L21.6961 18.134L20.6961 19.866L19.9372 19.4279C19.5802 19.2218 19.1334 19.2558 18.8118 19.5136C18.4589 19.7964 18.0631 20.0268 17.6362 20.1936C17.2525 20.3434 17 20.7132 17 21.1251V22H15V21.1251C15 20.7132 14.7474 20.3434 14.3637 20.1936C13.9368 20.0268 13.541 19.7964 13.1882 19.5136C12.8665 19.2559 12.4197 19.2218 12.0627 19.4279L11.3038 19.8661L10.3038 18.134L11.0622 17.6962C11.4186 17.4904 11.6125 17.0873 11.5509 16.6805C11.5174 16.4591 11.5 16.2319 11.5 16C11.5 15.7681 11.5174 15.5409 11.5509 15.3196C11.6125 14.9127 11.4186 14.5096 11.0622 14.3039L10.3038 13.866L11.3038 12.134L12.0627 12.5721C12.4197 12.7782 12.8665 12.7442 13.1881 12.4864C13.541 12.2036 13.9368 11.9732 14.3637 11.8064C14.7474 11.6566 15 11.2868 15 10.8749V10Z" fill="#034EA6"/>
</svg>
