<svg width="32" height="32" viewBox="0 0 32 32" fill="none" xmlns="http://www.w3.org/2000/svg">
<rect x="1" y="1" width="30" height="30" rx="5" fill="#FFD480"/>
<mask id="mask0_18952:191265" style="mask-type:alpha" maskUnits="userSpaceOnUse" x="0" y="0" width="32" height="32">
<rect width="32" height="32" rx="6" fill="#C4C4C4"/>
</mask>
<g mask="url(#mask0_18952:191265)">
<rect x="-1.84009" y="14.1709" width="21.1438" height="21.1438" rx="5" fill="white"/>
<path d="M-1.61182 18.5312C-1.61182 16.184 0.290972 14.2812 2.63818 14.2812H11.8423H14.8441C17.1913 14.2812 19.0941 16.184 19.0941 18.5313V21.5141V30.7372C19.0941 33.0844 17.1913 34.9872 14.8441 34.9872H2.63818C0.290968 34.9872 -1.61182 33.0844 -1.61182 30.7372V18.5312Z" stroke="#EB7100" stroke-width="1.5"/>
<path d="M17.7937 14.7629L24.1922 8.36443" stroke="#EB7100" stroke-width="1.5" stroke-miterlimit="10" stroke-linecap="round" stroke-linejoin="round"/>
<path d="M3.05859 29.8779L10.3387 22.5979" stroke="#EB7100" stroke-width="1.5" stroke-miterlimit="10" stroke-linecap="round" stroke-linejoin="round"/>
</g>
<rect x="0.75" y="0.75" width="30.5" height="30.5" rx="5.25" stroke="#EB7100" stroke-width="1.5"/>
<path d="M18.2966 7.47949H25.1124V14.3506" stroke="#EB7100" stroke-width="1.5" stroke-miterlimit="10" stroke-linecap="round" stroke-linejoin="round"/>
</svg>
