<svg width="16" height="16" viewBox="0 0 16 16" data-path-count="1" xmlns="http://www.w3.org/2000/svg">
<path data-path-style="onLight" fill-rule="evenodd" clip-rule="evenodd" d="M2 8C2 4.68629 4.68629 2 8 2C11.3137 2 14 4.68629 14 8C14 11.3137 11.3137 14 8 14C4.68629 14 2 11.3137 2 8ZM8 0C3.58172 0 0 3.58172 0 8C0 12.4183 3.58172 16 8 16C12.4183 16 16 12.4183 16 8C16 3.58172 12.4183 0 8 0ZM5.5 7C4.94772 7 4.5 7.44772 4.5 8C4.5 8.55229 4.94772 9 5.5 9H10.5C11.0523 9 11.5 8.55229 11.5 8C11.5 7.44772 11.0523 7 10.5 7H5.5Z" />
</svg>
