<svg width="16" height="16" viewBox="0 0 16 16" data-path-count="1" xmlns="http://www.w3.org/2000/svg">
<path data-path-style="onLight" d="M8 0C12.4183 0 16 3.58172 16 8C16 12.4183 12.4183 16 8 16C3.58172 16 0 12.4183 0 8C0 3.58172 3.58172 0 8 0ZM8 2C4.68629 2 2 4.68629 2 8C2 11.3137 4.68629 14 8 14C11.3137 14 14 11.3137 14 8C14 4.68629 11.3137 2 8 2ZM8 4C8.55229 4 9 4.44772 9 5V8.584L9.29289 8.29289C9.65338 7.93241 10.2206 7.90468 10.6129 8.2097L10.7071 8.29289C11.0676 8.65338 11.0953 9.22061 10.7903 9.6129L10.7071 9.70711L8.70711 11.7071C8.34662 12.0676 7.77939 12.0953 7.3871 11.7903L7.29289 11.7071L5.29289 9.70711C4.90237 9.31658 4.90237 8.68342 5.29289 8.29289C5.65338 7.93241 6.22061 7.90468 6.6129 8.2097L6.70711 8.29289L7 8.585V5C7 4.44772 7.44772 4 8 4Z" />
</svg>
