<svg width="32" height="32" viewBox="0 0 32 32" data-path-count="2" xmlns="http://www.w3.org/2000/svg">
<path fill-rule="evenodd" clip-rule="evenodd" data-path-style="onLight" d="M5.41421 2.58579C4.63316 1.80474 3.36684 1.80474 2.58579 2.58579C1.80474 3.36684 1.80474 4.63317 2.58579 5.41421L26.5858 29.4142C27.3668 30.1953 28.6332 30.1953 29.4142 29.4142C30.1953 28.6332 30.1953 27.3668 29.4142 26.5858L5.41421 2.58579ZM0 19C0 15.7644 1.70741 12.9276 4.27039 11.3415L7.24477 14.3158C5.35019 15.0261 4 16.8572 4 19C4 21.7614 6.23858 24 9 24H16.9289L20.9289 28H20H9C4.02944 28 0 23.9706 0 19ZM28 19C28 19.578 27.9018 20.1333 27.7211 20.65L30.7124 23.6414C31.5298 22.2862 32 20.698 32 19C32 15.0764 29.4892 11.7392 25.9867 10.5074C25.731 5.76595 21.8053 2 17 2C14.7874 2 12.7612 2.79845 11.194 4.12294L14.0406 6.96958C14.8696 6.36021 15.8932 6 17 6C19.6683 6 21.8507 8.09217 21.9926 10.7229L22.1366 13.3936L24.6597 14.2809C26.6109 14.9671 28 16.8265 28 19Z" />
<path fill-rule="evenodd" clip-rule="evenodd" data-path-style="onDark" d="M5.41421 2.58579C4.63316 1.80474 3.36684 1.80474 2.58579 2.58579C1.80474 3.36684 1.80474 4.63317 2.58579 5.41421L26.5858 29.4142C27.3668 30.1953 28.6332 30.1953 29.4142 29.4142C30.1953 28.6332 30.1953 27.3668 29.4142 26.5858L5.41421 2.58579ZM0 19C0 15.7644 1.70741 12.9276 4.27039 11.3415L20.9289 28H9C4.02944 28 0 23.9706 0 19ZM32 19C32 20.698 31.5298 22.2862 30.7124 23.6414L11.194 4.12294C12.7612 2.79845 14.7874 2 17 2C21.8053 2 25.731 5.76595 25.9867 10.5074C29.4892 11.7392 32 15.0764 32 19Z" />
</svg>
