<svg width="16" height="16" viewBox="0 0 16 16" data-path-count="1" xmlns="http://www.w3.org/2000/svg">
<path data-path-style="onLight" fill-rule="evenodd" clip-rule="evenodd" d="M13 9C13.5523 9 14 8.55228 14 8V3C14 2.44772 13.5523 2 13 2H8C7.44772 2 7 2.44772 7 3H5C5 1.34315 6.34315 0 8 0H13C14.6569 0 16 1.34315 16 3V8C16 9.65685 14.6569 11 13 11V9ZM3 7C2.44772 7 2 7.44772 2 8V13C2 13.5523 2.44772 14 3 14H8C8.55228 14 9 13.5523 9 13C9 12.4477 9.44771 12 10 12C10.5523 12 11 12.4477 11 13C11 14.6569 9.65685 16 8 16H3C1.34315 16 0 14.6569 0 13V8C0 6.34315 1.34315 5 3 5C3.55228 5 4 5.44772 4 6C4 6.55228 3.55228 7 3 7ZM7 5C6.44772 5 6 5.44772 6 6C6 6.55228 6.44772 7 7 7H7.58579L4.29289 10.2929C3.90237 10.6834 3.90237 11.3166 4.29289 11.7071C4.68342 12.0976 5.31658 12.0976 5.70711 11.7071L9 8.41421V9C9 9.55228 9.44772 10 10 10C10.5523 10 11 9.55228 11 9V6C11 5.44772 10.5523 5 10 5H7Z" />
</svg>
