<svg width="16" height="16" viewBox="0 0 16 16" data-path-count="1" xmlns="http://www.w3.org/2000/svg">
<path data-path-style="onLight" fill-rule="evenodd" clip-rule="evenodd" d="M8.53033 2.21967C8.23744 1.92678 7.76256 1.92678 7.46967 2.21967L4.46967 5.21967C4.17678 5.51256 4.17678 5.98744 4.46967 6.28033C4.76256 6.57322 5.23744 6.57322 5.53033 6.28033L8 4.25L10.4697 6.28033C10.7626 6.57322 11.2374 6.57322 11.5303 6.28033C11.8232 5.98744 11.8232 5.51256 11.5303 5.21967L8.53033 2.21967ZM11.5303 10.7803L8.53033 13.7803C8.23744 14.0732 7.76256 14.0732 7.46967 13.7803L4.46967 10.7803C4.17678 10.4874 4.17678 10.0126 4.46967 9.71967C4.76256 9.42678 5.23744 9.42678 5.53033 9.71967L8 11.75L10.4697 9.71967C10.7626 9.42678 11.2374 9.42678 11.5303 9.71967C11.8232 10.0126 11.8232 10.4874 11.5303 10.7803Z"/>
</svg>
