<svg width="16" height="16" viewBox="0 0 16 16" data-path-count="2" xmlns="http://www.w3.org/2000/svg">
<path data-path-style="onLight" fill-rule="evenodd" clip-rule="evenodd" d="M2.70711 14.7071L14.7071 2.70711C15.0976 2.31658 15.0976 1.68342 14.7071 1.29289C14.3166 0.902369 13.6834 0.902369 13.2929 1.29289L1.29289 13.2929C0.902369 13.6834 0.902369 14.3166 1.29289 14.7071C1.68342 15.0976 2.31658 15.0976 2.70711 14.7071ZM8 2C8.54116 2 9.06871 2.05855 9.58252 2.17484L7.75149 4.00587C5.73201 4.10173 3.89716 5.37261 2.22723 7.92412L2.178 8L2.42137 8.36565C2.55585 8.56169 2.6914 8.74957 2.82801 8.92935L1.40358 10.3538C0.967183 9.80167 0.546766 9.18826 0.142507 8.5145C-0.0475024 8.19781 -0.0475024 7.80219 0.142507 7.4855C2.30741 3.87734 4.93568 2 8 2ZM13.7728 8.07588C12.1028 10.6274 10.268 11.8983 8.24851 11.9941L6.41748 13.8252C6.93129 13.9415 7.45884 14 8 14C11.0643 14 13.6926 12.1227 15.8575 8.5145C16.0475 8.19781 16.0475 7.80219 15.8575 7.4855C15.4532 6.81174 15.0328 6.19833 14.5964 5.64622L13.172 7.07065C13.3086 7.25043 13.4441 7.43831 13.5786 7.63435L13.821 8L13.7728 8.07588Z" />
<path data-path-style="onDark" fill-rule="evenodd" clip-rule="evenodd" d="M2.70711 14.7071L14.7071 2.70711C15.0976 2.31658 15.0976 1.68342 14.7071 1.29289C14.3166 0.902369 13.6834 0.902369 13.2929 1.29289L1.29289 13.2929C0.902369 13.6834 0.902369 14.3166 1.29289 14.7071C1.68342 15.0976 2.31658 15.0976 2.70711 14.7071ZM8 2C8.54116 2 9.06871 2.05855 9.58252 2.17484L1.40358 10.3538C0.967183 9.80167 0.546767 9.18826 0.142507 8.5145C-0.0475023 8.19781 -0.0475023 7.80219 0.142507 7.4855C2.30741 3.87734 4.93568 2 8 2ZM8 14C7.45884 14 6.93129 13.9415 6.41748 13.8252L14.5964 5.64622C15.0328 6.19833 15.4532 6.81174 15.8575 7.4855C16.0475 7.80219 16.0475 8.19781 15.8575 8.5145C13.6926 12.1227 11.0643 14 8 14Z" />
</svg>
