<svg width="32" height="32" viewBox="0 0 32 32" fill="none" xmlns="http://www.w3.org/2000/svg">
<rect width="32" height="32" fill="#CDA5DC"/>
<path fill-rule="evenodd" clip-rule="evenodd" d="M10 16C10 12.6863 12.6863 10 16 10C19.3137 10 22 12.6863 22 16C22 19.3137 19.3137 22 16 22C12.6863 22 10 19.3137 10 16ZM16 8C11.5817 8 8 11.5817 8 16C8 17.4556 8.38877 18.8205 9.06814 19.9963L9.06865 20C9.08214 20.0945 9.08916 20.6425 9.06865 20.8271C9.02941 21.1802 8.87115 21.7147 8.29292 22.2929C8.00692 22.5789 7.92137 23.009 8.07615 23.3827C8.23093 23.7564 8.59557 24 9.00003 24C10.1728 24 11.075 23.7056 11.6972 23.3944C11.919 23.2836 12.1042 23.1711 12.253 23.0701C13.3708 23.6637 14.6461 24 16 24C20.4183 24 24 20.4183 24 16C24 11.5817 20.4183 8 16 8ZM17 19C17 19.5523 16.5523 20 16 20C15.4477 20 15 19.5523 15 19C15 18.4477 15.4477 18 16 18C16.5523 18 17 18.4477 17 19ZM16.8739 16.8118C16.7754 17.2322 16.52 17.4721 16.0705 17.5115C15.5101 17.5605 15.115 17.2127 15.0665 16.6582L15.0635 16.6232C15.0078 15.9869 15.3149 15.5307 15.9195 15.1131C16.6725 14.5767 16.8548 14.3079 16.8109 13.8059C16.7695 13.3331 16.361 13.0335 15.8357 13.0795C15.3687 13.1204 15.0724 13.3639 14.9287 13.8058C14.7927 14.2001 14.4768 14.4218 14.0682 14.4575C13.5195 14.5055 13.1397 14.1976 13.0995 13.6718C13.0776 13.4208 13.116 13.188 13.2192 12.9555C13.546 12.1858 14.4768 11.5986 15.8018 11.4826C17.5705 11.3279 18.8127 12.1485 18.9368 13.5669C19.0119 14.425 18.6612 15.0556 17.8466 15.6268C17.0873 16.1579 16.9539 16.3813 16.8739 16.8118Z" fill="#502160"/>
</svg>
