<svg width="16" height="16" viewBox="0 0 16 16" data-path-count="1" xmlns="http://www.w3.org/2000/svg">
<path data-path-style="onLight" fill-rule="evenodd" clip-rule="evenodd" d="M4.03877 7.06983L2.08817 14.8999C2.14222 15.4359 3.22174 15.776 5.32673 15.9203L6.19911 15.4839V11.6129C6.19911 10.6152 7.00789 9.80646 8.00557 9.80646C9.00324 9.80646 9.81202 10.6152 9.81202 11.6129V15.4839L10.6677 15.9117L10.6679 15.9123C13.9387 15.6581 13.9328 14.9369 13.9229 14.8999L11.9723 7.06967C11.9712 7.06977 11.9701 7.06989 11.9691 7.07C11.9691 7.06524 11.969 7.0605 11.9688 7.05578C11.9582 7.01564 11.9524 6.97499 11.9512 6.93461C11.7871 6.31868 10.4934 5.99998 8.07006 5.99998C5.47507 5.99998 4.13239 6.36544 4.042 7.07C4.04092 7.06994 4.03985 7.06988 4.03877 7.06983ZM13.7395 5.31241C13.8661 5.21522 13.941 5.0609 13.941 4.89664V2.90566C13.941 2.70703 13.8318 2.52603 13.6601 2.4402L12.5456 1.88293C12.4826 1.85142 12.4136 1.83507 12.3437 1.83507C12.0857 1.83507 11.8765 2.05333 11.8765 2.32258C11.8765 2.40349 11.8543 2.48272 11.8126 2.5509C11.6917 2.74828 11.4404 2.80606 11.2513 2.67996L10.5565 2.21673C10.4142 2.1219 10.3281 1.95793 10.3281 1.78179V1.03226C10.3281 0.462158 9.88523 0 9.33889 0H6.67222C6.12587 0 5.68297 0.462158 5.68297 1.03226V1.78179C5.68297 1.95793 5.59689 2.1219 5.45465 2.21673L4.75981 2.67996C4.69447 2.72352 4.61854 2.74667 4.541 2.74667C4.31654 2.74667 4.13458 2.5568 4.13458 2.32258C4.13458 2.24966 4.11891 2.17767 4.08871 2.11192C3.97721 1.8691 3.69819 1.76658 3.4655 1.88293L2.35096 2.4402C2.1793 2.52603 2.07007 2.70703 2.07007 2.90566V4.89664C2.07007 5.06129 2.14534 5.21595 2.27251 5.3131L2.276 5.31C2.21087 5.26115 3.43169 4.24242 8.07072 4.24298C12.7097 4.24359 13.7992 5.26188 13.7351 5.31L13.7395 5.31241Z" />
</svg>
