<svg width="16" height="16" viewBox="0 0 16 16" data-path-count="1" xmlns="http://www.w3.org/2000/svg">
<path data-path-style="onLight" d="M5.5 8.5C7.08557 8.5 8.42489 9.55433 8.85511 11.0002L15 11C15.5523 11 16 11.4477 16 12C16 12.5523 15.5523 13 15 13L8.85481 13.0008C8.42427 14.4462 7.0852 15.5 5.5 15.5C3.9148 15.5 2.57573 14.4462 2.14519 13.0008L1 13C0.447715 13 0 12.5523 0 12C0 11.4477 0.447715 11 1 11L2.14489 11.0002C2.57511 9.55433 3.91443 8.5 5.5 8.5ZM5.5 10.5C4.67157 10.5 4 11.1716 4 12C4 12.8284 4.67157 13.5 5.5 13.5C6.32843 13.5 7 12.8284 7 12C7 11.1716 6.32843 10.5 5.5 10.5ZM10.5 0.5C12.0856 0.5 13.4249 1.55434 13.8551 3.00016L15 3C15.5523 3 16 3.44772 16 4C16 4.55228 15.5523 5 15 5L13.8548 5.00084C13.4243 6.44615 12.0852 7.5 10.5 7.5C8.9148 7.5 7.57573 6.44615 7.14519 5.00084L1 5C0.447715 5 0 4.55228 0 4C0 3.44772 0.447715 3 1 3L7.14489 3.00016C7.57511 1.55434 8.91443 0.5 10.5 0.5ZM10.5 2.5C9.67157 2.5 9 3.17157 9 4C9 4.82843 9.67157 5.5 10.5 5.5C11.3284 5.5 12 4.82843 12 4C12 3.17157 11.3284 2.5 10.5 2.5Z" />
</svg>
