<svg width="16" height="16" viewBox="0 0 16 16" data-path-count="2" xmlns="http://www.w3.org/2000/svg">
<path data-path-style="onLight" d="M2 8C2 4.68629 4.68629 2 8 2C11.3137 2 14 4.68629 14 8C14 11.3137 11.3137 14 8 14C4.68629 14 2 11.3137 2 8ZM8 0C3.58172 0 0 3.58172 0 8C0 9.45563 0.388767 10.8205 1.06814 11.9963L1.06865 12C1.08214 12.0945 1.08916 12.6425 1.06865 12.8271C1.02941 13.1802 0.871153 13.7147 0.292922 14.2929C0.00692445 14.5789 -0.0786313 15.009 0.0761497 15.3827C0.230931 15.7564 0.595567 16 1.00003 16C2.17279 16 3.07496 15.7056 3.69724 15.3944C3.91901 15.2836 4.10422 15.1711 4.25302 15.0701C5.3708 15.6637 6.64613 16 8 16C12.4183 16 16 12.4183 16 8C16 3.58172 12.4183 0 8 0ZM9 11C9 11.5523 8.55229 12 8 12C7.44772 12 7 11.5523 7 11C7 10.4477 7.44772 10 8 10C8.55229 10 9 10.4477 9 11ZM8.87391 8.81181C8.7754 9.23215 8.51996 9.47213 8.0705 9.51145C7.51014 9.56048 7.11505 9.21273 7.06654 8.65821L7.06347 8.62318C7.00781 7.98694 7.31492 7.5307 7.9195 7.11314C8.67248 6.57672 8.85482 6.30785 8.8109 5.80587C8.76954 5.33306 8.36102 5.03354 7.83568 5.0795C7.36872 5.12036 7.07241 5.36391 6.92874 5.80584C6.79266 6.20006 6.4768 6.4218 6.0682 6.45754C5.51952 6.50555 5.13967 6.19764 5.09955 5.67179C5.07759 5.4208 5.11604 5.18804 5.21922 4.95551C5.54596 4.18582 6.47683 3.59855 7.80185 3.48263C9.57048 3.32789 10.8127 4.14852 10.9368 5.56693C11.0119 6.42499 10.6612 7.0556 9.8466 7.62683C9.08726 8.15792 8.95388 8.38133 8.87391 8.81181Z" />
<path data-path-style="onDark" fill-rule="evenodd" clip-rule="evenodd" d="M8 0C3.58172 0 0 3.58172 0 8C0 9.45563 0.388767 10.8205 1.06814 11.9963L1.06865 12C1.08214 12.0945 1.08916 12.6425 1.06865 12.8271C1.02941 13.1802 0.871153 13.7147 0.292922 14.2929C0.00692445 14.5789 -0.0786313 15.009 0.0761497 15.3827C0.230931 15.7564 0.595567 16 1.00003 16C2.17279 16 3.07496 15.7056 3.69724 15.3944C3.91901 15.2836 4.10422 15.1711 4.25302 15.0701C5.3708 15.6637 6.64613 16 8 16C12.4183 16 16 12.4183 16 8C16 3.58172 12.4183 0 8 0ZM9 11C9 11.5523 8.55229 12 8 12C7.44772 12 7 11.5523 7 11C7 10.4477 7.44772 10 8 10C8.55229 10 9 10.4477 9 11ZM8.87391 8.81181C8.7754 9.23215 8.51996 9.47213 8.0705 9.51145C7.51014 9.56048 7.11505 9.21273 7.06654 8.65821L7.06347 8.62318C7.00781 7.98694 7.31492 7.5307 7.9195 7.11314C8.67248 6.57672 8.85482 6.30785 8.8109 5.80587C8.76954 5.33306 8.36102 5.03354 7.83568 5.0795C7.36872 5.12036 7.07241 5.36391 6.92874 5.80584C6.79266 6.20006 6.4768 6.4218 6.0682 6.45754C5.51952 6.50555 5.13967 6.19764 5.09955 5.67179C5.07759 5.4208 5.11604 5.18804 5.21922 4.95551C5.54596 4.18582 6.47683 3.59855 7.80185 3.48263C9.57048 3.32789 10.8127 4.14852 10.9368 5.56693C11.0119 6.42499 10.6612 7.0556 9.8466 7.62683C9.08726 8.15792 8.95388 8.38133 8.87391 8.81181Z" />
</svg>
