<svg width="16" height="16" viewBox="0 0 16 16" data-path-count="1" xmlns="http://www.w3.org/2000/svg">
<path data-path-style="onLight" fill-rule="evenodd" clip-rule="evenodd" d="M3.91421 0.585786L0.585786 3.91421C0.210713 4.28929 0 4.79799 0 5.32843V10.6716C0 11.202 0.210714 11.7107 0.585786 12.0858L3.91421 15.4142C4.28929 15.7893 4.79799 16 5.32843 16H10.6716C11.202 16 11.7107 15.7893 12.0858 15.4142L15.4142 12.0858C15.7893 11.7107 16 11.202 16 10.6716V5.32843C16 4.79799 15.7893 4.28929 15.4142 3.91421L12.0858 0.585786C11.7107 0.210713 11.202 0 10.6716 0H5.32843C4.79799 0 4.28929 0.210714 3.91421 0.585786ZM5.14286 7C4.51167 7 4 7.44772 4 8C4 8.55229 4.51167 9 5.14286 9H10.8571C11.4883 9 12 8.55229 12 8C12 7.44772 11.4883 7 10.8571 7H5.14286Z" />
</svg>
