<svg width="16" height="16" viewBox="0 0 16 16" fill="none" xmlns="http://www.w3.org/2000/svg">
<path fill-rule="evenodd" clip-rule="evenodd" d="M4 6.5C5.38071 6.5 6.5 5.38071 6.5 4C6.5 2.61929 5.38071 1.5 4 1.5C2.61929 1.5 1.5 2.61929 1.5 4C1.5 5.38071 2.61929 6.5 4 6.5Z" fill="#F9D86A"/>
<path fill-rule="evenodd" clip-rule="evenodd" d="M2.5 10.5C3.88071 10.5 5 9.38071 5 8C5 6.61929 3.88071 5.5 2.5 5.5C1.11929 5.5 0 6.61929 0 8C0 9.38071 1.11929 10.5 2.5 10.5Z" fill="#96D488"/>
<path fill-rule="evenodd" clip-rule="evenodd" d="M4 14.5C5.38071 14.5 6.5 13.3807 6.5 12C6.5 10.6193 5.38071 9.5 4 9.5C2.61929 9.5 1.5 10.6193 1.5 12C1.5 13.3807 2.61929 14.5 4 14.5Z" fill="#66B289"/>
<path fill-rule="evenodd" clip-rule="evenodd" d="M8 16C9.38071 16 10.5 14.8807 10.5 13.5C10.5 12.1193 9.38071 11 8 11C6.61929 11 5.5 12.1193 5.5 13.5C5.5 14.8807 6.61929 16 8 16Z" fill="#42A1FF"/>
<path fill-rule="evenodd" clip-rule="evenodd" d="M12 14.5C13.3807 14.5 14.5 13.3807 14.5 12C14.5 10.6193 13.3807 9.5 12 9.5C10.6193 9.5 9.5 10.6193 9.5 12C9.5 13.3807 10.6193 14.5 12 14.5Z" fill="#2D83D9"/>
<path fill-rule="evenodd" clip-rule="evenodd" d="M13.5 10.5C14.8807 10.5 16 9.38071 16 8C16 6.61929 14.8807 5.5 13.5 5.5C12.1193 5.5 11 6.61929 11 8C11 9.38071 12.1193 10.5 13.5 10.5Z" fill="#A395DB"/>
<path fill-rule="evenodd" clip-rule="evenodd" d="M12 6.5C13.3807 6.5 14.5 5.38071 14.5 4C14.5 2.61929 13.3807 1.5 12 1.5C10.6193 1.5 9.5 2.61929 9.5 4C9.5 5.38071 10.6193 6.5 12 6.5Z" fill="#F69A81"/>
<path fill-rule="evenodd" clip-rule="evenodd" d="M10.5 2.5C10.5 3.88071 9.38067 5 7.99996 5C7.41746 5 6.88149 4.80078 6.45646 4.46676C6.48502 4.31554 6.49996 4.15952 6.49996 4C6.49996 3.20179 6.12587 2.49095 5.54346 2.03324C5.76208 0.875599 6.77877 0 7.99996 0C9.38067 0 10.5 1.11929 10.5 2.5Z" fill="#F06A41"/>
</svg>