<svg width="24" height="24" viewBox="0 0 24 24" fill="none" xmlns="http://www.w3.org/2000/svg">
<path d="M7.5 9C8.328 9 9 8.328 9 7.5C9 6.7305 8.421 6.096 7.6755 6.0105L7.5 6H5.0475C6.7605 4.146 9.303 3 12 3C16.971 3 21 7.029 21 12C21 16.971 16.971 21 12 21C7.56 21 3.8025 17.7645 3.1125 13.428C2.982 12.6105 2.2125 12.0525 1.395 12.183C0.5775 12.3135 0.0195006 13.083 0.150001 13.9005C1.071 19.6875 6.081 24 12 24C18.627 24 24 18.627 24 12C24 5.373 18.627 0 12 0C8.5395 0 5.2695 1.434 2.9985 3.801L3 1.5C3 0.7305 2.421 0.096 1.6755 0.0105L1.5 0C0.7305 0 0.096 0.579 0.0105 1.3245L0 1.5L0 7.5C0 8.2695 0.579001 8.904 1.3245 8.9895L1.5 9L7.5 9Z" fill="#A6A6A6"/>
<rect x="6.69678" y="15.1821" width="12" height="3" rx="1.5" transform="rotate(-45 6.69678 15.1821)" fill="#F4512A"/>
</svg>
