<svg width="32" height="32" viewBox="0 0 32 32" fill="none" xmlns="http://www.w3.org/2000/svg">
<rect x="1" y="1" width="30" height="30" rx="5" fill="#BBADFF"/>
<mask id="mask0_18952:191250" style="mask-type:alpha" maskUnits="userSpaceOnUse" x="0" y="0" width="32" height="32">
<rect width="32" height="32" rx="6" fill="#C4C4C4"/>
</mask>
<g mask="url(#mask0_18952:191250)">
<path fill-rule="evenodd" clip-rule="evenodd" d="M24.4442 21.3972C26.9184 17.5998 26.53 12.4803 23.2253 9.08659C19.3722 5.12984 13.0138 5.01749 9.02341 8.83564C5.03298 12.6538 4.92161 18.9566 8.77466 22.9134C11.971 26.1958 16.8916 26.8325 20.7541 24.7744L29.3661 33.6182C29.9729 34.2413 30.9743 34.259 31.6027 33.6577L32.9396 32.3785C33.568 31.7772 33.5856 30.7846 32.9788 30.1615L24.4442 21.3972Z" fill="white"/>
<path d="M24.4442 21.3972L23.8114 20.992C23.6215 21.2834 23.6592 21.6661 23.9023 21.9157L24.4442 21.3972ZM20.7541 24.7744L21.296 24.2559C21.0616 24.0152 20.6945 23.9583 20.3973 24.1166L20.7541 24.7744ZM31.6027 33.6577L31.0795 33.1204L31.6027 33.6577ZM32.9396 32.3785L33.4628 32.9158L32.9396 32.3785ZM32.9788 30.1615L33.5207 29.643L32.9788 30.1615ZM22.6834 9.60509C25.7396 12.7435 26.1 17.4794 23.8114 20.992L25.077 21.8025C27.7368 17.7202 27.3204 12.217 23.7672 8.56809L22.6834 9.60509ZM9.54665 9.37297C13.2378 5.84117 19.1193 5.9451 22.6834 9.60509L23.7672 8.56809C19.6252 4.31458 12.7899 4.1938 8.50017 8.29832L9.54665 9.37297ZM9.31655 22.3948C5.75248 18.7349 5.8555 12.9048 9.54665 9.37297L8.50017 8.29832C4.21045 12.4028 4.09073 19.1784 8.23276 23.4319L9.31655 22.3948ZM20.3973 24.1166C16.8241 26.0206 12.2725 25.4303 9.31655 22.3948L8.23276 23.4319C11.6696 26.9612 16.9591 27.6444 21.1109 25.4321L20.3973 24.1166ZM29.908 33.0997L21.296 24.2559L20.2122 25.2929L28.8242 34.1367L29.908 33.0997ZM31.0795 33.1204C30.7503 33.4353 30.2258 33.426 29.908 33.0997L28.8242 34.1367C29.72 35.0566 31.1982 35.0827 32.126 34.195L31.0795 33.1204ZM32.4164 31.8412L31.0795 33.1204L32.126 34.195L33.4628 32.9158L32.4164 31.8412ZM32.4369 30.68C32.7547 31.0064 32.7455 31.5263 32.4164 31.8412L33.4628 32.9158C34.3906 32.0282 34.4165 30.5629 33.5207 29.643L32.4369 30.68ZM23.9023 21.9157L32.4369 30.68L33.5207 29.643L24.9861 20.8787L23.9023 21.9157Z" fill="#6851D6"/>
<circle r="7" transform="matrix(0.722531 -0.691338 0.697656 0.716433 15.9999 15.9999)" fill="#BBADFF"/>
<path fill-rule="evenodd" clip-rule="evenodd" d="M15.8678 9.65479C16.328 9.65479 16.7011 10.0066 16.7011 10.4405V16.345L19.7959 19.3188C20.1182 19.6285 20.1132 20.126 19.7847 20.4299C19.4562 20.7338 18.9286 20.7291 18.6063 20.4194L15.0344 16.9872V10.4405C15.0344 10.0066 15.4075 9.65479 15.8678 9.65479Z" fill="#6851D6"/>
</g>
<rect x="0.75" y="0.75" width="30.5" height="30.5" rx="5.25" stroke="#6851D6" stroke-width="1.5"/>
</svg>
