<svg width="32" height="32" viewBox="0 0 32 32" fill="none" xmlns="http://www.w3.org/2000/svg">
<rect x="1" y="1" width="30" height="30" rx="5" fill="#BBADFF"/>
<mask id="mask0_18952:191315" style="mask-type:alpha" maskUnits="userSpaceOnUse" x="0" y="0" width="32" height="32">
<rect width="32" height="32" rx="6" fill="#C4C4C4"/>
</mask>
<g mask="url(#mask0_18952:191315)">
<path d="M17.5583 10.6948H18.3083V9.94475V9.5C18.3083 7.42893 19.9872 5.75 22.0583 5.75C24.1294 5.75 25.8083 7.42893 25.8083 9.5V9.94475V10.6948H26.5583H30C31.2426 10.6948 32.25 11.7021 32.25 12.9448V29.9448C32.25 31.1874 31.2426 32.1948 30 32.1948H25.75V29.9448C25.75 27.8737 24.0711 26.1948 22 26.1948C19.9289 26.1948 18.25 27.8737 18.25 29.9448V32.1948H13C11.7574 32.1948 10.75 31.1874 10.75 29.9448V25.9448C10.75 25.2544 11.3096 24.6948 12 24.6948H13.5C15.2949 24.6948 16.75 23.2397 16.75 21.4448C16.75 19.6499 15.2949 18.1948 13.5 18.1948H12C11.3096 18.1948 10.75 17.6351 10.75 16.9448V12.9448C10.75 11.7021 11.7574 10.6948 13 10.6948H17.5583Z" fill="white" stroke="#6851D6" stroke-width="1.5"/>
</g>
<rect x="0.75" y="0.75" width="30.5" height="30.5" rx="5.25" stroke="#6851D6" stroke-width="1.5"/>
</svg>
