<svg width="32" height="32" viewBox="0 0 32 32" fill="none" xmlns="http://www.w3.org/2000/svg">
<rect width="32" height="32" fill="#91F4F9"/>
<path fill-rule="evenodd" clip-rule="evenodd" d="M22 16C22 19.3137 19.3137 22 16 22C12.6863 22 10 19.3137 10 16C10 12.6863 12.6863 10 16 10C19.3137 10 22 12.6863 22 16ZM24 16C24 20.4183 20.4183 24 16 24C11.5817 24 8 20.4183 8 16C8 11.5817 11.5817 8 16 8C20.4183 8 24 11.5817 24 16ZM19.7123 12.2878C19.9219 12.4974 19.9884 12.8107 19.882 13.0874L18.1142 17.6836C18.038 17.8816 17.8815 18.0382 17.6834 18.1143L13.0872 19.8821C12.8106 19.9885 12.4973 19.922 12.2877 19.7124C12.0781 19.5028 12.0116 19.1895 12.118 18.9129L13.8858 14.3167C13.962 14.1186 14.1185 13.9621 14.3165 13.8859L18.9127 12.1181C19.1894 12.0117 19.5027 12.0782 19.7123 12.2878ZM16.9999 16C16.9999 16.5523 16.5522 17 15.9999 17C15.4477 17 14.9999 16.5523 14.9999 16C14.9999 15.4477 15.4477 15 15.9999 15C16.5522 15 16.9999 15.4477 16.9999 16Z" fill="#00848C"/>
</svg>
