<svg width="16" height="16" viewBox="0 0 16 16" data-path-count="1" xmlns="http://www.w3.org/2000/svg">
<path data-path-style="onLight" d="M15 10C15.5128 10 15.9355 10.386 15.9933 10.8834L16 11V13C16 14.5977 14.7511 15.9037 13.1763 15.9949L13 16H11C10.4477 16 10 15.5523 10 15C10 14.4872 10.386 14.0645 10.8834 14.0067L11 14H13C13.5128 14 13.9355 13.614 13.9933 13.1166L14 13V11C14 10.4477 14.4477 10 15 10ZM1 10C1.55228 10 2 10.4477 2 11V13L2.00673 13.1166C2.06449 13.614 2.48716 14 3 14H5L5.11662 14.0067C5.61396 14.0645 6 14.4872 6 15C6 15.5523 5.55228 16 5 16H3L2.82373 15.9949C1.24892 15.9037 0 14.5977 0 13V11L0.00672773 10.8834C0.0644928 10.386 0.487164 10 1 10ZM12 10V12H10V11H11V10H12ZM10 8.5V9H11V10H10V11H9V12H8.5V10H9V9H8.5V8.5H10ZM7 8.5C7.27614 8.5 7.5 8.72386 7.5 9V11.5C7.5 11.7761 7.27614 12 7 12H4.5C4.22386 12 4 11.7761 4 11.5V9C4 8.72386 4.22386 8.5 4.5 8.5H7ZM6.5 9.5H5V11H6.5V9.5ZM12 8.5V9H11V8.5H12ZM11.5 4C11.7761 4 12 4.22386 12 4.5V7C12 7.27614 11.7761 7.5 11.5 7.5H9C8.72386 7.5 8.5 7.27614 8.5 7V4.5C8.5 4.22386 8.72386 4 9 4H11.5ZM7 4C7.27614 4 7.5 4.22386 7.5 4.5V7C7.5 7.27614 7.27614 7.5 7 7.5H4.5C4.22386 7.5 4 7.27614 4 7V4.5C4 4.22386 4.22386 4 4.5 4H7ZM11 5H9.5V6.5H11V5ZM6.5 5H5V6.5H6.5V5ZM13 0L13.1763 0.00509262C14.7511 0.096339 16 1.40232 16 3V5L15.9933 5.11662C15.9355 5.61396 15.5128 6 15 6C14.4477 6 14 5.55228 14 5V3L13.9933 2.88338C13.9355 2.38604 13.5128 2 13 2H11L10.8834 1.99327C10.386 1.93551 10 1.51284 10 1C10 0.447715 10.4477 0 11 0H13ZM5 0C5.55228 0 6 0.447715 6 1C6 1.51284 5.61396 1.93551 5.11662 1.99327L5 2H3C2.48716 2 2.06449 2.38604 2.00673 2.88338L2 3V5C2 5.55228 1.55228 6 1 6C0.487164 6 0.0644928 5.61396 0.00672773 5.11662L0 5V3C0 1.40232 1.24892 0.096339 2.82373 0.00509262L3 0H5Z" />
</svg>
