<svg width="16" height="16" viewBox="0 0 16 16" data-path-count="1" xmlns="http://www.w3.org/2000/svg">
<path data-path-style="onLight" fill-rule="evenodd" clip-rule="evenodd" d="M14.1516 1.73739C12.6872 0.272946 10.3129 0.272917 8.8484 1.73733L8.79291 1.79281C8.40238 2.18333 8.40236 2.81649 8.79288 3.20703C9.18339 3.59756 9.81656 3.59757 10.2071 3.20706L10.2626 3.15157C10.946 2.46818 12.054 2.46819 12.7374 3.1516L12.8484 3.26255C13.5318 3.94597 13.5318 5.05401 12.8484 5.73743L9.73744 8.8483C9.05402 9.53171 7.94599 9.53171 7.26258 8.8483L7.20711 8.79283C6.81658 8.4023 6.18342 8.4023 5.79289 8.79283C5.40237 9.18335 5.40237 9.81652 5.79289 10.207L5.84836 10.2625C7.31282 11.727 9.68718 11.727 11.1516 10.2625L14.2626 7.15165C15.727 5.68719 15.7271 3.31281 14.2626 1.84833L14.1516 1.73739ZM6.26246 7.15167C6.94588 6.46825 8.05393 6.46824 8.73735 7.15166L8.79279 7.20711C9.18331 7.59763 9.81648 7.59763 10.207 7.20711C10.5975 6.81658 10.5975 6.18342 10.207 5.79289L10.1516 5.73745C8.68709 4.27297 6.3127 4.27299 4.84824 5.73747L1.61202 8.97373C0.216034 10.3697 0.14148 12.609 1.44152 14.0948L1.51456 14.1782C2.83606 15.6885 5.11235 15.8907 6.67939 14.637L7.12461 14.2809C7.55586 13.9358 7.62577 13.3065 7.28075 12.8753C6.93573 12.444 6.30644 12.3741 5.87518 12.7191L5.42996 13.0753C4.69868 13.6604 3.63641 13.566 3.01971 12.8612L2.94667 12.7777C2.33999 12.0844 2.37478 11.0394 3.02624 10.3879L6.26246 7.15167Z" />
</svg>
