<svg width="16" height="16" viewBox="0 0 16 16" data-path-count="1" xmlns="http://www.w3.org/2000/svg">
<path data-path-style="onLight" d="M6 13.7929V12L9 9L10.9245 14.2924C10.973 14.4257 11.0707 14.5354 11.1976 14.5988C11.5663 14.7831 12 14.5151 12 14.1029V6L14.4142 3.58579C14.7893 3.21071 15 2.70201 15 2.17157V1.5C15 1.22386 14.7761 1 14.5 1H13.8284C13.298 1 12.7893 1.21071 12.4142 1.58579L10 4H1.8971C1.48494 4 1.21687 4.43375 1.4012 4.80239C1.46464 4.92928 1.57431 5.02702 1.70763 5.0755L7 7L4 10H2.20711C2.0745 10 1.94732 10.0527 1.85355 10.1464L1.33031 10.6697C1.18912 10.8109 1.26226 11.0525 1.45806 11.0916L2.85809 11.3716C3.18137 11.4363 3.35468 11.7906 3.20724 12.0855L3.15811 12.1838C3.06369 12.3726 3.1007 12.6007 3.25 12.75C3.3993 12.8993 3.62738 12.9363 3.81623 12.8419L3.91449 12.7928C4.20937 12.6453 4.56373 12.8186 4.62838 13.1419L4.90839 14.5419C4.94755 14.7377 5.18912 14.8109 5.33031 14.6697L5.85355 14.1464C5.94732 14.0527 6 13.9255 6 13.7929Z" />
</svg>
