<svg width="16" height="16" viewBox="0 0 16 16" data-path-count="1" xmlns="http://www.w3.org/2000/svg">
<path data-path-style="onLight" fill-rule="evenodd" clip-rule="evenodd" d="M16 8C16 12.4183 12.4183 16 8 16C3.58172 16 0 12.4183 0 8C0 3.58172 3.58172 0 8 0C12.4183 0 16 3.58172 16 8ZM11.7809 6.12469C12.1259 5.69343 12.056 5.06414 11.6247 4.71913C11.1934 4.37412 10.5641 4.44404 10.2191 4.8753L7 8.5C7 8.5 6 8 5.70711 7.79289C5.25617 7.47403 4.68342 7.40237 4.29289 7.79289C3.90237 8.18342 3.90237 8.81658 4.29289 9.20711L6.29289 11.2071C6.49403 11.4082 6.77129 11.5142 7.0553 11.4985C7.33931 11.4827 7.60318 11.3468 7.78087 11.1247L11.7809 6.12469Z" />
</svg>
