<svg width="16" height="16" viewBox="0 0 16 16" data-path-count="1" xmlns="http://www.w3.org/2000/svg">
<path data-path-theme="onLight" d="M9 1C9 0.447715 8.55228 0 8 0C7.44772 0 7 0.447715 7 1V4C7 4.55228 7.44772 5 8 5C8.55228 5 9 4.55228 9 4V1Z"/>
<path data-path-theme="onLight" opacity="0.8" d="M5.89996 4.49996C6.29996 4.89996 6.29996 5.49996 5.89996 5.89996C5.49996 6.29996 4.89996 6.29996 4.49996 5.89996L2.29996 3.79996C1.99996 3.39996 1.89996 2.69996 2.29996 2.29996C2.69996 1.99996 3.39996 1.89996 3.79996 2.29996L5.89996 4.49996Z"/>
<path data-path-theme="onLight" opacity="0.6" d="M4 7C4.6 7 5 7.4 5 8C5 8.6 4.6 9 4 9H1C0.4 9 0 8.6 0 8C0 7.4 0.4 7 1 7H4Z"/>
<path data-path-theme="onLight" opacity="0.4" d="M4.49996 10.1C4.89996 9.70005 5.49996 9.70005 5.89996 10.1C6.29996 10.5 6.29996 11.1 5.89996 11.5L3.79996 13.7C3.39996 14 2.69996 14.1 2.29996 13.7C1.99996 13.3 1.89996 12.6 2.29996 12.2L4.49996 10.1Z"/>
<path data-path-theme="onLight" opacity="0.2" d="M9 12C9 11.4477 8.55228 11 8 11C7.44772 11 7 11.4477 7 12V15C7 15.5523 7.44772 16 8 16C8.55228 16 9 15.5523 9 15V12Z"/>
<path data-path-theme="onLight" opacity="0.2" d="M13.7 12.2C14 12.6 14.1 13.3 13.7 13.7C13.3 14 12.6 14.1 12.2 13.7L10.1 11.5C9.70005 11.1 9.70005 10.5 10.1 10.1C10.5 9.70005 11.1 9.70005 11.5 10.1L13.7 12.2Z"/>
<path data-path-theme="onLight" opacity="0.2" d="M15 7C15.6 7 16 7.4 16 8C16 8.6 15.6 9 15 9H12C11.4 9 11 8.6 11 8C11 7.4 11.4 7 12 7H15Z"/>
<path data-path-theme="onLight" opacity="0.2" d="M12.2 2.29996C12.6 1.99996 13.3 1.89996 13.7 2.29996C14 2.69996 14.1 3.39996 13.7 3.79996L11.5 5.89996C11.1 6.29996 10.5 6.29996 10.1 5.89996C9.70005 5.49996 9.70005 4.89996 10.1 4.49996L12.2 2.29996Z"/>
</svg>
