<svg width="16" height="16" viewBox="0 0 16 16" data-path-count="2" xmlns="http://www.w3.org/2000/svg">
<path data-path-style="onLight" fill-rule="evenodd" clip-rule="evenodd" d="M8 2C4.68629 2 2 4.68629 2 8C2 11.3137 4.68629 14 8 14C11.3137 14 14 11.3137 14 8C14 4.68629 11.3137 2 8 2ZM0 8C0 3.58172 3.58172 0 8 0C12.4183 0 16 3.58172 16 8C16 12.4183 12.4183 16 8 16C6.64613 16 5.3708 15.6637 4.25302 15.0701C4.10422 15.1711 3.91901 15.2836 3.69724 15.3944C3.07496 15.7056 2.17279 16 1.00003 16C0.595567 16 0.230931 15.7564 0.0761497 15.3827C-0.0786313 15.009 0.00692445 14.5789 0.292922 14.2929C0.871153 13.7147 1.02941 13.1802 1.06865 12.8271C1.08916 12.6425 1.08214 12.0945 1.06865 12L1.06814 11.9963C0.388767 10.8205 0 9.45563 0 8ZM8.44847 4.27872C8.36424 4.10805 8.19042 4 8.0001 4C7.80978 4 7.63596 4.10805 7.55173 4.27872L6.63944 6.12722L4.5995 6.42364C4.41116 6.451 4.25469 6.58293 4.19587 6.76393C4.13706 6.94494 4.18611 7.14364 4.3224 7.27648L5.79851 8.71534L5.45005 10.747C5.41787 10.9346 5.49499 11.1242 5.64896 11.2361C5.80293 11.3479 6.00706 11.3627 6.17552 11.2741L8.0001 10.3149L9.82468 11.2741C9.99314 11.3627 10.1973 11.3479 10.3512 11.2361C10.5052 11.1242 10.5823 10.9346 10.5502 10.747L10.2017 8.71534L11.6778 7.27648C11.8141 7.14364 11.8631 6.94494 11.8043 6.76393C11.7455 6.58293 11.589 6.451 11.4007 6.42364L9.36076 6.12722L8.44847 4.27872Z" />
<path data-path-style="onDark" fill-rule="evenodd" clip-rule="evenodd" d="M0 8C0 3.58172 3.58172 0 8 0C12.4183 0 16 3.58172 16 8C16 12.4183 12.4183 16 8 16C6.64613 16 5.3708 15.6637 4.25302 15.0701C4.10422 15.1711 3.91901 15.2836 3.69724 15.3944C3.07496 15.7056 2.17279 16 1.00003 16C0.595567 16 0.230931 15.7564 0.0761497 15.3827C-0.0786313 15.009 0.00692445 14.5789 0.292922 14.2929C0.871153 13.7147 1.02941 13.1802 1.06865 12.8271C1.08916 12.6425 1.08214 12.0945 1.06865 12L1.06814 11.9963C0.388767 10.8205 0 9.45563 0 8ZM8.44847 4.27872C8.36424 4.10805 8.19042 4 8.0001 4C7.80978 4 7.63596 4.10805 7.55173 4.27872L6.63944 6.12722L4.5995 6.42364C4.41116 6.451 4.25469 6.58293 4.19587 6.76393C4.13706 6.94494 4.18611 7.14364 4.3224 7.27648L5.79851 8.71534L5.45005 10.747C5.41787 10.9346 5.49499 11.1242 5.64896 11.2361C5.80293 11.3479 6.00706 11.3627 6.17552 11.2741L8.0001 10.3149L9.82468 11.2741C9.99314 11.3627 10.1973 11.3479 10.3512 11.2361C10.5052 11.1242 10.5823 10.9346 10.5502 10.747L10.2017 8.71534L11.6778 7.27648C11.8141 7.14364 11.8631 6.94494 11.8043 6.76393C11.7455 6.58293 11.589 6.451 11.4007 6.42364L9.36076 6.12722L8.44847 4.27872Z" />
</svg>