<svg width="24" height="24" viewBox="0 0 24 24" fill="none" xmlns="http://www.w3.org/2000/svg">
<path d="M9.5 5H14.5C16.433 5 18 6.567 18 8.5V15.5C18 17.433 16.433 19 14.5 19H9.5C7.567 19 6 17.433 6 15.5V8.5C6 6.567 7.567 5 9.5 5Z" stroke="#0572EC" stroke-width="2"/>
<path fill-rule="evenodd" clip-rule="evenodd" d="M7.77133 0.683772C7.90745 0.27543 8.28959 0 8.72002 0H15.2785C15.7089 0 16.0911 0.27543 16.2272 0.683772L16.5887 1.7684C16.7851 2.35748 16.9119 2.96663 16.9673 3.58349C16.2251 3.21019 15.3867 3 14.4993 3H9.49926C8.61181 3 7.77345 3.21019 7.03125 3.58349C7.08658 2.96663 7.21343 2.35748 7.40979 1.7684L7.77133 0.683772ZM7.03125 20.4165C7.08658 21.0334 7.21343 21.6425 7.40979 22.2316L7.77133 23.3162C7.90745 23.7246 8.28959 24 8.72002 24H15.2785C15.7089 24 16.0911 23.7246 16.2272 23.3162L16.5887 22.2316C16.7851 21.6425 16.9119 21.0334 16.9673 20.4165C16.2251 20.7898 15.3867 21 14.4993 21H9.49926C8.61181 21 7.77345 20.7898 7.03125 20.4165Z" fill="#0572EC"/>
</svg>
