<svg width="16" height="16" viewBox="0 0 16 16" data-path-count="1" xmlns="http://www.w3.org/2000/svg">
<path data-path-style="onLight" d="M1 1C1 0.447715 1.44772 0 2 0C2.55228 0 3 0.447715 3 1L3.26368 2.84576C4.50946 1.70056 6.17279 1 8 1C11.866 1 15 4.13401 15 8C15 11.866 11.866 15 8 15C4.95059 15 2.35905 13.0507 1.39857 10.3332C1.21453 9.81253 1.48745 9.24121 2.00817 9.05716C2.52888 8.87311 3.1002 9.14604 3.28425 9.66675C3.97112 11.6101 5.82453 13 8 13C10.7614 13 13 10.7614 13 8C13 5.23858 10.7614 3 8 3C6.54405 3 5.233 3.62172 4.3182 4.61689L7 5C7.55228 5 8 5.44772 8 6C8 6.55228 7.55228 7 7 7H2C1.44772 7 1 6.55228 1 6V1Z" />
</svg>
