<svg width="16" height="16" viewBox="0 0 16 16" data-path-count="1" xmlns="http://www.w3.org/2000/svg">
<path data-path-style="onLight" fill-rule="evenodd" clip-rule="evenodd" d="M7.29289 0.292896C7.65338 -0.0675915 8.22061 -0.0953213 8.6129 0.209707L8.70711 0.292896L10.7071 2.29292C11.0976 2.68345 11.0976 3.31662 10.7071 3.70715C10.3466 4.06764 9.77939 4.09537 9.3871 3.79034L9.29289 3.70715L9 3.41443V10C9 10.5523 8.55228 11 8 11C7.44772 11 7 10.5523 7 10V3.41443L6.70711 3.70715C6.34662 4.06764 5.77939 4.09537 5.3871 3.79034L5.29289 3.70715C4.93241 3.34666 4.90468 2.77942 5.2097 2.38713L5.29289 2.29292L7.29289 0.292896ZM4 8C4 7.44772 4.44772 7 5 7V5C3.34315 5 2 6.34315 2 8V13C2 14.6569 3.34315 16 5 16H11C12.6569 16 14 14.6569 14 13V8C14 6.34315 12.6569 5 11 5V7C11.5523 7 12 7.44772 12 8V13C12 13.5523 11.5523 14 11 14H5C4.44772 14 4 13.5523 4 13V8Z" />
</svg>
