<svg width="32" height="32" viewBox="0 0 32 32" fill="none" xmlns="http://www.w3.org/2000/svg">
<rect width="32" height="32" fill="#B9BDC2"/>
<path fill-rule="evenodd" clip-rule="evenodd" d="M17.8319 21.7152C19.6642 21.1284 21.1132 19.6848 21.7075 17.8558C21.4257 18.0279 21.1072 18.1818 20.7626 18.3175C20.1938 18.5415 19.5329 18.7242 18.8076 18.8564C18.6753 19.5818 18.4927 20.2427 18.2687 20.8116C18.1396 21.1394 17.994 21.4437 17.8319 21.7152ZM16.1697 21.9976C16.1133 21.9992 16.0567 22 16 22C15.9433 22 15.8868 21.9992 15.8305 21.9977C15.6968 21.955 15.5433 21.8582 15.3733 21.6756C15.1254 21.4093 14.8792 20.9968 14.6619 20.4451C14.4971 20.0266 14.3546 19.5424 14.2413 19.0071C14.8041 19.0674 15.3938 19.0993 16 19.0993C16.6062 19.0993 17.196 19.0674 17.7589 19.0071C17.6456 19.5423 17.5031 20.0266 17.3382 20.4451C17.121 20.9968 16.8748 21.4093 16.6269 21.6756C16.4568 21.8582 16.3034 21.955 16.1697 21.9976ZM18.9582 17.8077C19.4935 17.6944 19.9777 17.5519 20.3962 17.3871C20.9478 17.1698 21.3604 16.9236 21.6266 16.6757C21.8922 16.4285 21.9763 16.2163 21.9763 16.0489C21.9763 15.8815 21.8922 15.6694 21.6266 15.4221C21.3604 15.1742 20.9478 14.928 20.3962 14.7108C19.9777 14.5459 19.4935 14.4034 18.9582 14.2902C19.0186 14.853 19.0505 15.4427 19.0505 16.0489C19.0505 16.6551 19.0186 17.2448 18.9582 17.8077ZM17.9312 14.1178C18.0083 14.7227 18.0505 15.3716 18.0505 16.0489C18.0505 16.7262 18.0083 17.3752 17.9312 17.9801C17.3263 18.0571 16.6773 18.0993 16 18.0993C15.3227 18.0993 14.6738 18.0571 14.0689 17.9801C13.9919 17.3752 13.9497 16.7262 13.9497 16.0489C13.9497 15.3716 13.9919 14.7226 14.0689 14.1177C14.6738 14.0407 15.3227 13.9985 16 13.9985C16.6773 13.9985 17.3263 14.0407 17.9312 14.1178ZM18.8076 13.2414C19.5329 13.3737 20.1938 13.5563 20.7626 13.7803C21.1228 13.9221 21.4544 14.0838 21.7455 14.2654C21.1692 12.354 19.6652 10.8449 17.757 10.2613C17.9494 10.5623 18.12 10.9087 18.2687 11.2863C18.4927 11.8551 18.6753 12.5161 18.8076 13.2414ZM14.2432 10.2613C12.3349 10.8448 10.8308 12.354 10.2546 14.2654C10.5456 14.0838 10.8772 13.9221 11.2373 13.7803C11.8062 13.5563 12.4672 13.3736 13.1926 13.2414C13.3248 12.516 13.5075 11.8551 13.7315 11.2863C13.8802 10.9086 14.0508 10.5623 14.2432 10.2613ZM14.2413 13.0907C14.3546 12.5555 14.4971 12.0712 14.6619 11.6527C14.8792 11.1011 15.1254 10.6885 15.3733 10.4223C15.6205 10.1567 15.8327 10.0726 16.0001 10.0726C16.1675 10.0726 16.3796 10.1567 16.6269 10.4223C16.8748 10.6885 17.121 11.1011 17.3382 11.6527C17.5031 12.0712 17.6456 12.5555 17.7589 13.0908C17.196 13.0304 16.6062 12.9985 16 12.9985C15.3938 12.9985 14.8041 13.0304 14.2413 13.0907ZM13.0419 14.2901C12.5066 14.4034 12.0223 14.5459 11.6038 14.7108C11.0521 14.928 10.6396 15.1742 10.3733 15.4221C10.1078 15.6694 10.0237 15.8815 10.0237 16.0489C10.0237 16.2163 10.1078 16.4285 10.3733 16.6757C10.6396 16.9236 11.0521 17.1698 11.6038 17.3871C12.0223 17.5519 12.5066 17.6944 13.0419 17.8077C12.9816 17.2449 12.9497 16.6551 12.9497 16.0489C12.9497 15.4427 12.9816 14.853 13.0419 14.2901ZM13.1926 18.8564C12.4672 18.7242 11.8062 18.5415 11.2373 18.3175C10.8928 18.1818 10.5743 18.028 10.2925 17.8559C10.8869 19.6849 12.3359 21.1285 14.1683 21.7153C14.0062 21.4438 13.8606 21.1395 13.7315 20.8116C13.5075 20.2427 13.3248 19.5818 13.1926 18.8564ZM16 24C20.4183 24 24 20.4183 24 16C24 11.5817 20.4183 8 16 8C11.5817 8 8 11.5817 8 16C8 20.4183 11.5817 24 16 24Z" fill="#35414C"/>
</svg>
