<svg width="16" height="16" viewBox="0 0 16 16" data-path-count="1" xmlns="http://www.w3.org/2000/svg">
<path data-path-style="onLight" fill-rule="evenodd" clip-rule="evenodd" d="M5 3C5 1.34315 6.34315 0 8 0C9.65685 0 11 1.34315 11 3V7C11 8.65685 9.65685 10 8 10C6.34315 10 5 8.65685 5 7V3ZM9 13.4236C12.1151 12.9425 14.5 10.2498 14.5 7C14.5 6.44772 14.0523 6 13.5 6C12.9477 6 12.5 6.44772 12.5 7C12.5 9.48528 10.4853 11.5 8 11.5C5.51472 11.5 3.5 9.48528 3.5 7C3.5 6.44772 3.05228 6 2.5 6C1.94772 6 1.5 6.44772 1.5 7C1.5 10.2498 3.88491 12.9425 7 13.4236V15C7 15.5523 7.44772 16 8 16C8.55228 16 9 15.5523 9 15V13.4236Z" />
</svg>
