<svg width="96" height="96" viewBox="0 0 96 96" data-path-count="1" xmlns="http://www.w3.org/2000/svg">
<path data-path-style="onLight" fill-rule="evenodd" clip-rule="evenodd" d="M61.5 1.5L60 0H58.2V2H59.1716L60.0858 2.91421L61.5 1.5ZM17.3326 2.02122L18.4453 3.68315C17.3539 4.41381 16.4138 5.35388 15.6832 6.44525L14.0212 5.33261C14.8973 4.024 16.024 2.89731 17.3326 2.02122ZM12 82H14V84C14 84.6704 14.0657 85.3235 14.1904 85.9538L12.2284 86.3419C12.0786 85.5845 12 84.8014 12 84V82ZM14.0212 90.6674L15.6832 89.5547C16.4138 90.6461 17.3539 91.5862 18.4453 92.3168L17.3326 93.9788C16.024 93.1027 14.8973 91.976 14.0212 90.6674ZM70 96V94H72C72.6704 94 73.3235 93.9343 73.9538 93.8096L74.3419 95.7716C73.5845 95.9214 72.8014 96 72 96H70ZM78.6674 93.9788L77.5547 92.3168C78.6461 91.5862 79.5862 90.6461 80.3168 89.5547L81.9788 90.6674C81.1027 91.976 79.976 93.1027 78.6674 93.9788ZM84 25.875H82V24.8284L81.0858 23.9142L82.5 22.5L84 24V25.875ZM79.5 19.5L76.5 16.5L75.0858 17.9142L78.0858 20.9142L79.5 19.5ZM73.5 13.5L70.5 10.5L69.0858 11.9142L72.0858 14.9142L73.5 13.5ZM67.5 7.5L66.0858 8.91421L63.0858 5.91421L64.5 4.5L67.5 7.5ZM84 29.625H82V33.375H84V29.625ZM84 37.125H82V40.875H84V37.125ZM84 44.625H82V48.375H84V44.625ZM84 52.125H82V55.875H84V52.125ZM84 59.625H82V63.375H84V59.625ZM84 67.125H82V70.875H84V67.125ZM84 74.625H82V78.375H84V74.625ZM84 82.125H82V84C82 84.6704 81.9343 85.3235 81.8096 85.9538L83.7716 86.3419C83.9214 85.5845 84 84.8014 84 84V82.125ZM66 96V94H62V96H66ZM58 96V94H54V96H58ZM50 96V94H46V96H50ZM42 96V94H38V96H42ZM34 96V94H30V96H34ZM26 96V94H24C23.3296 94 22.6765 93.9343 22.0462 93.8096L21.6581 95.7716C22.4155 95.9214 23.1986 96 24 96H26ZM12 78H14V74H12V78ZM12 70H14V66H12V70ZM12 62H14V58H12V62ZM12 54H14V50H12V54ZM12 46H14V42H12V46ZM12 38H14V34H12V38ZM12 30H14V26H12V30ZM12 22H14V18H12V22ZM12 14H14V12C14 11.3296 14.0657 10.6765 14.1904 10.0462L12.2284 9.65806C12.0786 10.4155 12 11.1986 12 12V14ZM21.6581 0.228409C22.4155 0.0785633 23.1986 0 24 0H25.8V2H24C23.3296 2 22.6765 2.06569 22.0462 2.19038L21.6581 0.228409ZM29.4 0V2H33V0H29.4ZM36.6 0V2H40.2V0H36.6ZM43.8 0V2H47.4V0H43.8ZM51 0V2H54.6V0H51ZM56 8.25V6H58V8.25H56ZM56 15V12.75H58V15C58 15.7359 58.0721 16.454 58.2094 17.1479L56.2474 17.536C56.085 16.715 56 15.8669 56 15ZM61.7763 25.8098C60.3591 24.8609 59.1391 23.6409 58.1902 22.2237L59.8522 21.1111C60.6556 22.3111 61.6889 23.3444 62.8889 24.1478L61.7763 25.8098ZM69 28C68.1331 28 67.285 27.915 66.464 27.7526L66.8521 25.7906C67.546 25.9279 68.2641 26 69 26H71.25V28H69ZM78 28H75.75V26H78V28ZM47 46C47 45.4477 47.4477 45 48 45C48.5523 45 49 45.4477 49 46V51H54C54.5523 51 55 51.4477 55 52C55 52.5523 54.5523 53 54 53H49V58C49 58.5523 48.5523 59 48 59C47.4477 59 47 58.5523 47 58V53H42C41.4477 53 41 52.5523 41 52C41 51.4477 41.4477 51 42 51H47V46Z" />
</svg>
