<svg width="16" height="16" viewBox="0 0 16 16" data-path-count="1" xmlns="http://www.w3.org/2000/svg">
<path data-path-style="onLight" fill-rule="evenodd" clip-rule="evenodd" d="M11 5C11 6.65685 9.65685 8 8 8C6.34315 8 5 6.65685 5 5C5 3.34315 6.34315 2 8 2C9.65685 2 11 3.34315 11 5ZM7 5C7 5.55228 7.44772 6 8 6C8.55228 6 9 5.55228 9 5C9 4.44772 8.55228 4 8 4C7.44772 4 7 4.44772 7 5ZM4.97147 12.7466C4.81909 11.8323 5.52415 11 6.45106 11H9.54876C10.4757 11 11.1807 11.8323 11.0284 12.7466L11.0135 12.8356C10.9227 13.3804 11.2907 13.8956 11.8355 13.9864C12.3803 14.0772 12.8955 13.7092 12.9863 13.1644L13.0011 13.0754C13.3567 10.942 11.7115 9 9.54876 9H6.45106C4.28827 9 2.64312 10.942 2.99868 13.0754L3.01352 13.1644C3.10431 13.7092 3.61954 14.0772 4.16431 13.9864C4.70908 13.8956 5.0771 13.3804 4.9863 12.8356L4.97147 12.7466Z" />
</svg>
