<svg width="16" height="16" viewBox="0 0 16 16" data-path-count="1" xmlns="http://www.w3.org/2000/svg">
<path data-path-style="onLight" fill-rule="evenodd" clip-rule="evenodd" d="M8 14C11.3137 14 14 11.3137 14 8C14 4.68629 11.3137 2 8 2C4.68629 2 2 4.68629 2 8C2 11.3137 4.68629 14 8 14ZM16 8C16 12.4183 12.4183 16 8 16C3.58172 16 0 12.4183 0 8C0 3.58172 3.58172 0 8 0C12.4183 0 16 3.58172 16 8ZM11.2071 4.79289C11.5976 5.18342 11.5976 5.81658 11.2071 6.20711L9.41421 8L11.2071 9.79289C11.5976 10.1834 11.5976 10.8166 11.2071 11.2071C10.8166 11.5976 10.1834 11.5976 9.79289 11.2071L8 9.41421L6.20711 11.2071C5.81658 11.5976 5.18342 11.5976 4.79289 11.2071C4.40237 10.8166 4.40237 10.1834 4.79289 9.79289L6.58579 8L4.79289 6.20711C4.40237 5.81658 4.40237 5.18342 4.79289 4.79289C5.18342 4.40237 5.81658 4.40237 6.20711 4.79289L8 6.58579L9.79289 4.79289C10.1834 4.40237 10.8166 4.40237 11.2071 4.79289Z" />
</svg>
