<svg width="16" height="16" viewBox="0 0 16 16" data-path-count="1" xmlns="http://www.w3.org/2000/svg">
<path data-path-style="onLight" fill-rule="evenodd" clip-rule="evenodd" d="M9.12439 8.90387C9.78085 8.3778 10.3018 7.68959 10.6264 6.89995C11.4242 6.6371 12 5.8858 12 5C12 4.1142 11.4242 3.3629 10.6264 3.10005C10.3018 2.31041 9.78085 1.6222 9.12439 1.09613C9.4062 1.0332 9.69924 1 10 1C12.2092 1 14 2.79086 14 5C14 7.20914 12.2092 9 10 9C9.69924 9 9.4062 8.9668 9.12439 8.90387ZM13.0979 14.4851C13.3518 13.4697 12.7837 12.4798 11.8745 12.1315C11.5319 11.284 10.9621 10.5462 10.2361 10H11.1577C13.7599 10 15.6694 12.4456 15.0382 14.9701L14.9701 15.2425C14.8362 15.7783 14.2932 16.1041 13.7574 15.9701C13.2216 15.8362 12.8959 15.2933 13.0298 14.7575L13.0979 14.4851ZM4.8423 12C3.54116 12 2.58644 13.2228 2.90202 14.4851L2.97012 14.7575C3.10406 15.2933 2.7783 15.8362 2.24251 15.9701C1.70671 16.1041 1.16378 15.7783 1.02983 15.2425L0.961732 14.9701C0.330586 12.4456 2.24002 10 4.8423 10H7.15764C9.75993 10 11.6694 12.4456 11.0382 14.9701L10.9701 15.2425C10.8362 15.7783 10.2932 16.1041 9.75744 15.9701C9.22164 15.8362 8.89588 15.2933 9.02983 14.7575L9.09793 14.4851C9.4135 13.2228 8.45879 12 7.15764 12H4.8423ZM10 5C10 7.20914 8.20914 9 6 9C3.79086 9 2 7.20914 2 5C2 2.79086 3.79086 1 6 1C8.20914 1 10 2.79086 10 5ZM4 5C4 6.10457 4.89543 7 6 7C7.10457 7 8 6.10457 8 5C8 3.89543 7.10457 3 6 3C4.89543 3 4 3.89543 4 5Z" />
</svg>
