<svg width="16" height="16" viewBox="0 0 16 16" data-path-count="1" xmlns="http://www.w3.org/2000/svg">
<path data-path-style="onLight" d="M8 0C12.4183 0 16 3.58172 16 8C16 12.4183 12.4183 16 8 16C4.009 16 0.644185 13.0604 0.0817251 9.1469C0.00315639 8.60023 0.382625 8.09338 0.929293 8.01481C1.47596 7.93624 1.98281 8.31571 2.06138 8.86238C2.48283 11.7947 5.00711 14 8 14C11.3137 14 14 11.3137 14 8C14 4.68629 11.3137 2 8 2C6.25844 2 4.64688 2.74746 3.52713 3.99987L4 4C4.51284 4 4.93551 4.38604 4.99327 4.88338L5 5C5 5.51284 4.61396 5.93551 4.11662 5.99327L4 6H1C0.487164 6 0.0644928 5.61396 0.00672773 5.11662L0 5V2C0 1.44772 0.447715 1 1 1C1.51284 1 1.93551 1.38604 1.99327 1.88338L2 2L2.00058 2.70688C3.49438 1.01351 5.66001 0 8 0ZM8 3.5C8.51284 3.5 8.93551 3.88604 8.99327 4.38338L9 4.5V7.585L10.7071 9.29289C11.0676 9.65338 11.0953 10.2206 10.7903 10.6129L10.7071 10.7071C10.3466 11.0676 9.77939 11.0953 9.3871 10.7903L9.29289 10.7071L7.29289 8.70711C7.13661 8.55083 7.0374 8.34815 7.00867 8.13144L7 8V4.5C7 3.94772 7.44772 3.5 8 3.5Z" />
</svg>
