<svg width="16" height="16" viewBox="0 0 16 16" data-path-count="1" xmlns="http://www.w3.org/2000/svg">
<path data-path-style="onLight" fill-rule="evenodd" clip-rule="evenodd" d="M10.8572 10.2859C13.6975 10.2859 16 7.98339 16 5.14308C16 2.30277 13.6975 0.000244141 10.8572 0.000244141C8.01688 0.000244141 5.71436 2.30277 5.71436 5.14308C5.71436 5.58147 5.76921 6.00704 5.87242 6.41332L0 12.2857V14.7361L1.251 16H3.21626V13.7188H5.83932V11.4376H8.27679L9.58659 10.1278C9.99297 10.231 10.4187 10.2859 10.8572 10.2859ZM13.5001 3.75C13.5001 4.44036 12.9404 5 12.2501 5C11.5597 5 11.0001 4.44036 11.0001 3.75C11.0001 3.05964 11.5597 2.5 12.2501 2.5C12.9404 2.5 13.5001 3.05964 13.5001 3.75Z" />
</svg>
