<svg width="16" height="16" viewBox="0 0 16 16" data-path-count="1" xmlns="http://www.w3.org/2000/svg">
<path data-path-style="onLight" d="M7.10352 7.96163L4.70711 6.29297C4.31658 5.90244 3.68342 5.90244 3.29289 6.29297C2.90237 6.68349 2.90237 7.31666 3.29289 7.70718L6.93934 11.3536C7.52513 11.9394 8.47488 11.9394 9.06066 11.3536L12.7071 7.70718C13.0976 7.31666 13.0976 6.68349 12.7071 6.29297C12.3166 5.90244 11.6834 5.90244 11.2929 6.29297L9.10352 7.81747V1.10352C9.10352 0.551231 8.6558 0.103516 8.10352 0.103516C7.55123 0.103516 7.10352 0.551231 7.10352 1.10352L7.10352 7.96163ZM1 11C1.55228 11 2 11.4477 2 12V13C2 13.5523 2.44772 14 3 14H13C13.5523 14 14 13.5523 14 13V12C14 11.4477 14.4477 11 15 11C15.5523 11 16 11.4477 16 12V13C16 14.6569 14.6569 16 13 16H3C1.34315 16 0 14.6569 0 13V12C0 11.4477 0.447715 11 1 11Z" />
</svg>
