<svg width="32" height="32" viewBox="0 0 32 32" fill="none" xmlns="http://www.w3.org/2000/svg">
<rect width="32" height="32" fill="#ABFCCB"/>
<path fill-rule="evenodd" clip-rule="evenodd" d="M17.9838 10.6788C18.0826 10.1354 17.7222 9.61486 17.1788 9.51606C16.6354 9.41726 16.1149 9.77767 16.0161 10.321L14.0161 21.321C13.9173 21.8644 14.2777 22.385 14.821 22.4838C15.3644 22.5826 15.885 22.2222 15.9838 21.6788L17.9838 10.6788ZM12.7071 12.2929C13.0976 12.6834 13.0976 13.3166 12.7071 13.7071L10.4142 16L12.7071 18.2929C13.0976 18.6834 13.0976 19.3166 12.7071 19.7071C12.3166 20.0976 11.6834 20.0976 11.2929 19.7071L8.29289 16.7071C7.90237 16.3166 7.90237 15.6834 8.29289 15.2929L11.2929 12.2929C11.6834 11.9024 12.3166 11.9024 12.7071 12.2929ZM19.2929 12.2929C18.9024 12.6834 18.9024 13.3166 19.2929 13.7071L21.5858 16L19.2929 18.2929C18.9024 18.6834 18.9024 19.3166 19.2929 19.7071C19.6834 20.0976 20.3166 20.0976 20.7071 19.7071L23.7071 16.7071C24.0976 16.3166 24.0976 15.6834 23.7071 15.2929L20.7071 12.2929C20.3166 11.9024 19.6834 11.9024 19.2929 12.2929Z" fill="#1C673E"/>
</svg>
