<svg width="32" height="32" viewBox="0 0 32 32" fill="none" xmlns="http://www.w3.org/2000/svg">
<rect width="32" height="32" fill="#FFD480"/>
<path fill-rule="evenodd" clip-rule="evenodd" d="M11 13C11 10.2386 13.2386 8 16 8C18.7614 8 21 10.2386 21 13V14.05C22.1411 14.2816 23 15.2905 23 16.5V21.5C23 22.8807 21.8807 24 20.5 24H11.5C10.1193 24 9 22.8807 9 21.5V16.5C9 15.2905 9.85888 14.2816 11 14.05V13ZM19 13V14H13V13C13 11.3431 14.3431 10 16 10C17.6569 10 19 11.3431 19 13ZM11.5 16C11.2239 16 11 16.2239 11 16.5V21.5C11 21.7761 11.2239 22 11.5 22H20.5C20.7761 22 21 21.7761 21 21.5V16.5C21 16.2239 20.7761 16 20.5 16H11.5ZM16 17C15.4477 17 15 17.4477 15 18V20C15 20.5523 15.4477 21 16 21C16.5523 21 17 20.5523 17 20V18C17 17.4477 16.5523 17 16 17Z" fill="#CC4E00"/>
</svg>
