<svg width="16" height="16" viewBox="0 0 16 16" data-path-count="2" xmlns="http://www.w3.org/2000/svg">
<path data-path-style="onLight" fill-rule="evenodd" clip-rule="evenodd" d="M14 5V11C14 11.5523 13.5523 12 13 12H3C2.44772 12 2 11.5523 2 11V5C2 4.44772 2.44772 4 3 4H13C13.5523 4 14 4.44772 14 5ZM16 11V5C16 3.34315 14.6569 2 13 2H3C1.34315 2 0 3.34315 0 5V11C0 12.6569 1.34315 14 3 14H13C14.6569 14 16 12.6569 16 11ZM5.27917 8.05126L3.39189 6.3527C3.15388 6.1385 3.06547 5.80359 3.16673 5.49982C3.33457 4.99628 3.93527 4.79018 4.3769 5.0846L7.4453 7.1302C7.7812 7.35413 8.2188 7.35413 8.5547 7.1302L11.6231 5.0846C12.0647 4.79018 12.6654 4.99628 12.8333 5.49982C12.9345 5.80359 12.8461 6.1385 12.6081 6.3527L10.7208 8.05126C10.7688 8.07484 10.8137 8.10657 10.8536 8.14645L12.8536 10.1464C13.0488 10.3417 13.0488 10.6583 12.8536 10.8536C12.6583 11.0488 12.3417 11.0488 12.1464 10.8536L10.1464 8.85355C10.0934 8.80053 10.0548 8.73855 10.0306 8.67249L9.33793 9.29586C8.57732 9.98041 7.42268 9.98041 6.66207 9.29586L5.96943 8.67249C5.94521 8.73855 5.90658 8.80053 5.85355 8.85355L3.85355 10.8536C3.65829 11.0488 3.34171 11.0488 3.14645 10.8536C2.95118 10.6583 2.95118 10.3417 3.14645 10.1464L5.14645 8.14645C5.18632 8.10657 5.23125 8.07484 5.27917 8.05126Z" />
<path data-path-style="onDark" fill-rule="evenodd" clip-rule="evenodd" d="M16 5V11C16 12.6569 14.6569 14 13 14H3C1.34315 14 0 12.6569 0 11V5C0 3.34315 1.34315 2 3 2H13C14.6569 2 16 3.34315 16 5ZM5.18115 8.11482L2.12113 5.52557C1.78677 5.24265 1.76563 4.73437 2.07534 4.42466C2.32346 4.17654 2.71063 4.13404 3.00667 4.32243L7.46312 7.15835C7.79069 7.3668 8.20931 7.3668 8.53687 7.15835L12.9933 4.32243C13.2894 4.13404 13.6765 4.17654 13.9247 4.42466C14.2344 4.73437 14.2132 5.24265 13.8789 5.52557L10.8189 8.11482C10.8308 8.12472 10.8424 8.13526 10.8536 8.14645L13.8536 11.1464C14.0488 11.3417 14.0488 11.6583 13.8536 11.8536C13.6583 12.0488 13.3417 12.0488 13.1464 11.8536L10.1464 8.85355C10.115 8.8221 10.0886 8.7875 10.0673 8.75076L9.29188 9.40687C8.54619 10.0378 7.45381 10.0378 6.70812 9.40687L5.93272 8.75076C5.9114 8.7875 5.88501 8.8221 5.85355 8.85355L2.85355 11.8536C2.65829 12.0488 2.34171 12.0488 2.14645 11.8536C1.95118 11.6583 1.95118 11.3417 2.14645 11.1464L5.14645 8.14645C5.15763 8.13526 5.16921 8.12472 5.18115 8.11482Z" />
</svg>
