<svg width="32" height="32" viewBox="0 0 32 32" fill="none" xmlns="http://www.w3.org/2000/svg">
<rect x="1" y="1" width="30" height="30" rx="5" fill="#85BEFF"/>
<path d="M23.7498 19.4431L28.5001 43.968H3.5L8.04924 19.4431C14.4611 16.7716 21.1879 18.33 23.7498 19.4431Z" fill="white" stroke="#0572EC" stroke-width="1.5" stroke-miterlimit="10" stroke-linecap="round" stroke-linejoin="round"/>
<path fill-rule="evenodd" clip-rule="evenodd" d="M14.3655 26.516C13.5436 25.9809 13.0001 25.0539 13.0001 24C13.0001 22.3431 14.3433 21 16.0001 21C17.657 21 19.0001 22.3431 19.0001 24C19.0001 25.0529 18.4577 25.9791 17.637 26.5145L19.5015 34H16.5015H15.5015H12.5015L14.3655 26.516Z" fill="#0572EC"/>
<path d="M16.0121 6.00229C16.9125 5.97587 18.3257 6.18326 19.1571 6.392C19.5194 6.48295 19.7331 6.81563 19.7331 7.18912V9.46691C19.7331 9.70504 19.9011 9.91014 20.1345 9.95709L21.8728 10.3067C22.1823 10.3689 22.4714 10.1323 22.4714 9.81651V8.41529C22.4714 8.07167 22.8102 7.83072 23.1295 7.95777C24.1001 8.34405 24.8861 8.77659 25.2555 9.11683C25.324 9.17993 25.3634 9.26652 25.3789 9.35836L26.5 16C24.2467 14.4285 20.4011 13.5098 16.0121 13.5088C11.6273 13.5114 7.98382 14.6581 5.5 15.9818L6.65473 9.3568C6.67057 9.26595 6.70984 9.18035 6.77762 9.11781C7.14655 8.77741 7.93314 8.34441 8.9047 7.95777C9.22396 7.83071 9.56278 8.07167 9.56278 8.41528V9.81651C9.56278 10.1322 9.85182 10.3689 10.1614 10.3067L11.8996 9.95709C12.1331 9.91013 12.3011 9.70504 12.3011 9.4669V7.18912C12.3011 6.81562 12.5147 6.48283 12.8769 6.39165C13.7058 6.18301 15.1122 5.97585 16.0121 6.00229Z" fill="white" stroke="#0572EC" stroke-width="1.5" stroke-miterlimit="10" stroke-linecap="round" stroke-linejoin="round"/>
<path d="M27 16.5663L23.9369 19.9999C17.2924 17.5069 10.5193 18.9612 8.07125 19.9999L5.00262 16.5415C12.1209 12.79 21.952 13.3307 27 16.5663Z" fill="#0572EC"/>
<mask id="mask0_18952:191280" style="mask-type:alpha" maskUnits="userSpaceOnUse" x="0" y="0" width="32" height="32">
<rect width="32" height="32" rx="6" fill="#C2EAFF"/>
</mask>
<g mask="url(#mask0_18952:191280)">
</g>
<rect x="0.75" y="0.75" width="30.5" height="30.5" rx="5.25" stroke="#0572EC" stroke-width="1.5"/>
</svg>
