<svg width="16" height="16" viewBox="0 0 16 16" data-path-count="1" xmlns="http://www.w3.org/2000/svg">
<path data-path-style="onLight" d="M8.00024 16C8.55253 16 9.00024 15.5523 9.00024 15V8.7447L10.2929 9.70711C10.6834 10.0976 11.3166 10.0976 11.7071 9.70711C12.0976 9.31658 12.0976 8.68342 11.7071 8.29289L8.70711 5.29289C8.31658 4.90237 7.68342 4.90237 7.29289 5.29289L4.29289 8.29289C3.90237 8.68342 3.90237 9.31658 4.29289 9.70711C4.68342 10.0976 5.31658 10.0976 5.70711 9.70711L7.00024 8.74434V15C7.00024 15.5523 7.44796 16 8.00024 16Z M13 13C13.5523 13 14 12.5523 14 12L14 4C14 3.44771 13.5523 3 13 3L3 3C2.44772 3 2 3.44772 2 4L2 12C2 12.5523 2.44772 13 3 13H4C4.55229 13 5 13.4477 5 14C5 14.5523 4.55229 15 4 15H3C1.34315 15 0 13.6569 0 12V4C0 2.34315 1.34314 1 3 1L13 1C14.6569 1 16 2.34315 16 4L16 12C16 13.6569 14.6569 15 13 15H12C11.4477 15 11 14.5523 11 14C11 13.4477 11.4477 13 12 13H13Z" />
</svg>
