<svg width="16" height="16" viewBox="0 0 16 16" data-path-count="1" xmlns="http://www.w3.org/2000/svg">
<path data-path-style="onLight" fill-rule="evenodd" clip-rule="evenodd" d="M5 5C5 5.552 4.552 6 4 6H1L0.883 5.993C0.386 5.936 0 5.513 0 5V2L0.00699997 1.883C0.064 1.386 0.487 1 1 1L1.117 1.007C1.614 1.064 2 1.487 2 2L1.999 2.534C3.513 0.956 5.693 0 8 0C12.418 0 16 3.582 16 8C16 12.418 12.418 16 8 16C4.054 16 0.714 13.125 0.1 9.267C0.0130004 8.722 0.385 8.209 0.93 8.122C1.475 8.035 1.988 8.407 2.075 8.952C2.535 11.843 5.04 14 8 14C11.314 14 14 11.314 14 8C14 4.686 11.314 2 8 2C6.202 2 4.507 2.764 3.365 4H4L4.117 4.007C4.614 4.064 5 4.487 5 5ZM5.5 7C4.94772 7 4.5 7.44772 4.5 8C4.5 8.55229 4.94772 9 5.5 9H10.5C11.0523 9 11.5 8.55229 11.5 8C11.5 7.44772 11.0523 7 10.5 7H5.5Z" />
</svg>
