<svg width="32" height="32" viewBox="0 0 32 32" fill="none" xmlns="http://www.w3.org/2000/svg">
<rect x="1" y="1" width="30" height="30" rx="5" fill="#FFD480"/>
<mask id="mask0_18952:191205" style="mask-type:alpha" maskUnits="userSpaceOnUse" x="0" y="0" width="32" height="32">
<rect width="32" height="32" rx="6" fill="#C4C4C4"/>
</mask>
<g mask="url(#mask0_18952:191205)">
<path fill-rule="evenodd" clip-rule="evenodd" d="M24.4999 18.4419L7.49991 18.4419L7.49991 22C7.49991 24.2091 9.29077 26 11.4999 26L13.0002 26L12.9995 36.4252C12.9995 37.295 13.7045 38.0063 14.5742 38.014L17.4244 38.0392C18.2941 38.0469 18.9993 37.3481 18.9993 36.4783L18.9999 26L20.4999 26C22.709 26 24.4999 24.2091 24.4999 22L24.4999 18.4419Z" fill="#FFFAEF"/>
<path d="M7.49991 18.4419L7.49332 17.6919C7.08168 17.6919 6.74988 18.0237 6.74988 18.4353L7.49991 18.4419ZM24.4999 18.4419L25.2499 18.4485C25.2499 18.2484 25.17 18.056 25.0279 17.9139C24.8858 17.7718 24.6934 17.6919 24.4933 17.6919L24.4999 18.4419ZM7.49991 22L8.24994 22.0065L7.49991 22ZM13.0002 26L13.7502 26.0066C13.7502 25.8065 13.6703 25.6141 13.5282 25.472C13.3861 25.3299 13.1936 25.25 12.9936 25.25L13.0002 26ZM12.9995 36.4252L12.2495 36.4186L12.9995 36.4252ZM14.5742 38.014L14.5742 38.764L14.5742 38.014ZM17.4244 38.0392L17.4244 38.7892L17.4244 38.7892L17.4244 38.0392ZM18.9993 36.4783L19.7493 36.4849L19.7493 36.4849L18.9993 36.4783ZM18.9999 26L18.9934 25.25C18.5817 25.25 18.2499 25.5817 18.2499 25.9933L18.9999 26ZM24.4999 22L25.2499 22.0066L25.2499 22.0066L24.4999 22ZM7.50649 19.1919L24.5065 19.1919L24.4933 17.6919L7.49332 17.6919L7.50649 19.1919ZM8.24994 22.0065L8.24994 18.4485L6.74988 18.4353L6.74988 21.9934L8.24994 22.0065ZM11.4933 25.25C9.70103 25.25 8.24994 23.799 8.24994 22.0065L6.74988 21.9934C6.74988 24.6192 8.88051 26.7499 11.5065 26.7499L11.4933 25.25ZM12.9936 25.25L11.4933 25.25L11.5065 26.7499L13.0068 26.7499L12.9936 25.25ZM13.7496 36.4319L13.7502 26.0066L12.2501 25.9933L12.2495 36.4186L13.7496 36.4319ZM14.5743 37.2641C14.1189 37.2601 13.7495 36.8876 13.7496 36.4319L12.2495 36.4186C12.2494 37.7024 13.2901 38.7526 14.5742 38.764L14.5743 37.2641ZM17.4245 37.2893L14.5743 37.2641L14.5742 38.764L17.4244 38.7892L17.4245 37.2893ZM18.2493 36.4716C18.2492 36.9274 17.8799 37.2933 17.4245 37.2893L17.4244 38.7892C18.7084 38.8005 19.7493 37.7688 19.7493 36.4849L18.2493 36.4716ZM18.2499 25.9933L18.2493 36.4717L19.7493 36.4849L19.75 26.0066L18.2499 25.9933ZM20.4933 25.25L18.9934 25.25L19.0065 26.7499L20.5065 26.7499L20.4933 25.25ZM23.7499 21.9934C23.7499 23.791 22.2908 25.25 20.4933 25.25L20.5065 26.7499C23.1273 26.7499 25.2499 24.6273 25.2499 22.0066L23.7499 21.9934ZM23.7499 18.4353L23.7499 21.9934L25.2499 22.0066L25.2499 18.4485L23.7499 18.4353Z" fill="#EB7100"/>
<rect x="7" width="18" height="18" fill="#FFAA05"/>
<rect x="0.75" y="0.75" width="30.5" height="30.5" rx="5.25" stroke="#EB7100" stroke-width="1.5"/>
<rect x="7.5" y="12" width="17" height="7" fill="#FFD480" stroke="#EB7100" stroke-width="1.5" stroke-miterlimit="10" stroke-linecap="round" stroke-linejoin="round"/>
<path d="M13 15L13 12" stroke="#EB7100" stroke-width="1.5" stroke-miterlimit="10" stroke-linecap="round" stroke-linejoin="round"/>
</g>
</svg>
