<svg width="16" height="16" viewBox="0 0 16 16" data-path-count="1" xmlns="http://www.w3.org/2000/svg">
<path data-path-style="onLight" fill-rule="evenodd" clip-rule="evenodd" d="M12.5429 3.4571C12.2295 3.14371 11.7237 3.13648 11.4015 3.4408L10.8633 3.94904L12.051 5.13669L12.5592 4.59856C12.8635 4.27634 12.8563 3.7705 12.5429 3.4571ZM10.6772 6.59131L9.4087 5.32284L3.96455 10.4645L5.53547 12.0355L10.6772 6.59131ZM10.0282 1.98677C11.1373 0.939306 12.8784 0.964174 13.9571 2.04289C15.0358 3.12161 15.0607 4.86273 14.0132 5.97181L6.92782 13.474C6.6656 13.7517 6.32936 13.9484 5.95886 14.0411L2.24256 14.9701C1.90178 15.0553 1.54129 14.9555 1.29291 14.7071C1.04453 14.4587 0.944685 14.0982 1.02988 13.7575L1.95896 10.0412C2.05158 9.67066 2.24835 9.33442 2.52599 9.0722L10.0282 1.98677Z" />
</svg>
