<svg width="32" height="32" viewBox="0 0 32 32" data-path-count="1" xmlns="http://www.w3.org/2000/svg">
<path data-path-style="onLight" fill-rule="evenodd" clip-rule="evenodd" d="M0 4C0 2.89543 0.89543 2 2 2H3H29H30C31.1046 2 32 2.89543 32 4V6C32 7.10457 31.1046 8 30 8V27C30 28.6569 28.6569 30 27 30H5C3.34315 30 2 28.6569 2 27V8C0.89543 8 0 7.10457 0 6V4ZM28 27V8H4V27C4 27.5523 4.44772 28 5 28H27C27.5523 28 28 27.5523 28 27ZM12 12C10.8954 12 10 12.8954 10 14C10 15.1046 10.8954 16 12 16H20C21.1046 16 22 15.1046 22 14C22 12.8954 21.1046 12 20 12H12Z" />
</svg>
