<svg width="16" height="16" viewBox="0 0 16 16" data-path-count="1" xmlns="http://www.w3.org/2000/svg">
<path data-path-style="onLight" fill-rule="evenodd" clip-rule="evenodd" d="M5 3C5 2.44772 5.44772 2 6 2H10C10.5523 2 11 2.44772 11 3V4H5V3ZM3 4V3C3 1.34315 4.34315 0 6 0H10C11.6569 0 13 1.34315 13 3V4C14.6569 4 16 5.34315 16 7V13C16 14.6569 14.6569 16 13 16H3C1.34315 16 0 14.6569 0 13V7C0 5.34315 1.34315 4 3 4ZM3 6C2.44772 6 2 6.44772 2 7V13C2 13.5523 2.44772 14 3 14H13C13.5523 14 14 13.5523 14 13V7C14 6.44772 13.5523 6 13 6H3ZM8 7C7.44772 7 7 7.44772 7 8V9H6C5.44772 9 5 9.44772 5 10C5 10.5523 5.44772 11 6 11H7V12C7 12.5523 7.44772 13 8 13C8.55229 13 9 12.5523 9 12V11H10C10.5523 11 11 10.5523 11 10C11 9.44771 10.5523 9 10 9H9V8C9 7.44772 8.55229 7 8 7Z" />
</svg>
