<svg width="16" height="16" viewBox="0 0 16 16" data-path-count="2" xmlns="http://www.w3.org/2000/svg">
<path data-path-style="onLight" fill-rule="evenodd" clip-rule="evenodd" d="M14 8C14 11.3137 11.3137 14 8 14C4.68629 14 2 11.3137 2 8C2 4.68629 4.68629 2 8 2C11.3137 2 14 4.68629 14 8ZM16 8C16 12.4183 12.4183 16 8 16C3.58172 16 0 12.4183 0 8C0 3.58172 3.58172 0 8 0C12.4183 0 16 3.58172 16 8ZM6 4C5.44772 4 5 4.44772 5 5C5 5.55228 5.44772 6 6 6H10C10.5523 6 11 5.55228 11 5C11 4.44772 10.5523 4 10 4H6ZM6 7C5.44772 7 5 7.44772 5 8C5 8.55228 5.44772 9 6 9H10C10.5523 9 11 8.55228 11 8C11 7.44772 10.5523 7 10 7H6ZM5 11C5 10.4477 5.44772 10 6 10H10C10.5523 10 11 10.4477 11 11C11 11.5523 10.5523 12 10 12H6C5.44772 12 5 11.5523 5 11Z" />
<path data-path-style="onDark" fill-rule="evenodd" clip-rule="evenodd" d="M8 16C12.4183 16 16 12.4183 16 8C16 3.58172 12.4183 0 8 0C3.58172 0 0 3.58172 0 8C0 12.4183 3.58172 16 8 16ZM6 4C5.44772 4 5 4.44772 5 5C5 5.55228 5.44772 6 6 6H10C10.5523 6 11 5.55228 11 5C11 4.44772 10.5523 4 10 4H6ZM6 7C5.44772 7 5 7.44772 5 8C5 8.55228 5.44772 9 6 9H10C10.5523 9 11 8.55228 11 8C11 7.44772 10.5523 7 10 7H6ZM5 11C5 10.4477 5.44772 10 6 10H10C10.5523 10 11 10.4477 11 11C11 11.5523 10.5523 12 10 12H6C5.44772 12 5 11.5523 5 11Z" />
</svg>
