<svg width="16" height="16" viewBox="0 0 16 16" data-path-count="1" xmlns="http://www.w3.org/2000/svg">
<path data-path-style="onLight" fill-rule="evenodd" clip-rule="evenodd" d="M3 1C1.34315 1 0 2.34315 0 4V12C0 13.6569 1.34315 15 3 15H13C14.6569 15 16 13.6569 16 12V4C16 2.34315 14.6569 1 13 1H3ZM3 3C2.44772 3 2 3.44772 2 4V12C2 12.5523 2.44772 13 3 13H6V3H3ZM8 3H13C13.5523 3 14 3.44772 14 4V12C14 12.5523 13.5523 13 13 13H8V3ZM3.5 4C3.22386 4 3 4.22386 3 4.5C3 4.77614 3.22386 5 3.5 5H4.5C4.77614 5 5 4.77614 5 4.5C5 4.22386 4.77614 4 4.5 4H3.5ZM3.5 6C3.22386 6 3 6.22386 3 6.5C3 6.77614 3.22386 7 3.5 7H4.5C4.77614 7 5 6.77614 5 6.5C5 6.22386 4.77614 6 4.5 6H3.5ZM3 8.5C3 8.22386 3.22386 8 3.5 8H4.5C4.77614 8 5 8.22386 5 8.5C5 8.77614 4.77614 9 4.5 9H3.5C3.22386 9 3 8.77614 3 8.5Z"/>
</svg>
