<svg width="16" height="16" viewBox="0 0 16 16" data-path-count="2" xmlns="http://www.w3.org/2000/svg">
<path data-path-style="onLight" fill-rule="evenodd" clip-rule="evenodd" d="M5 0C3.89543 0 3 0.895431 3 2V4C1.34315 4 0 5.34315 0 7V11C0 12.6569 1.34315 14 3 14V12C2.44772 12 2 11.5523 2 11V7C2 6.44772 2.44772 6 3 6H5H11H13C13.5523 6 14 6.44772 14 7V11C14 11.5523 13.5523 12 13 12V14C14.6569 14 16 12.6569 16 11V7C16 5.34315 14.6569 4 13 4V2C13 0.895431 12.1046 0 11 0H5ZM11 4V2H5V4H11ZM3 10C3 9.44771 3.44772 9 4 9H12C12.5523 9 13 9.44771 13 10C13 10.5523 12.5523 11 12 11V14C12 15.1046 11.1046 16 10 16H6C4.89543 16 4 15.1046 4 14V11C3.44772 11 3 10.5523 3 10ZM6 11V14H10V11H6Z" />
<path data-path-style="onDark" fill-rule="evenodd" clip-rule="evenodd" d="M3 2C3 0.895431 3.89543 0 5 0H11C12.1046 0 13 0.895431 13 2V4C14.6569 4 16 5.34315 16 7V11C16 12.6569 14.6569 14 13 14V10C13 9.44772 12.5523 9 12 9H4C3.44772 9 3 9.44772 3 10V14C1.34315 14 0 12.6569 0 11V7C0 5.34315 1.34315 4 3 4V2ZM11 2V4H5V2H11ZM11 11H5V15C5 15.5523 5.44772 16 6 16H10C10.5523 16 11 15.5523 11 15V11Z" />
</svg>
