<svg width="16" height="16" viewBox="0 0 16 16" data-path-count="1" xmlns="http://www.w3.org/2000/svg">
<path data-path-style="onLight" d="M5 1V3H3V13H13V11H15V13C15 14.1046 14.1046 15 13 15H3C1.89543 15 1 14.1046 1 13V3C1 1.89543 1.89543 1 3 1H5ZM7.88338 2.99327C7.38604 2.93551 7 2.51284 7 2C7 1.44772 7.44772 1 8 1H13.5C14.5 1 15 1.5 15 2.5V8C15 8.55228 14.5523 9 14 9C13.4477 9 13 8.55228 13 8V4.414L7.70711 9.70711C7.31658 10.0976 6.68342 10.0976 6.29289 9.70711C5.93241 9.34662 5.90468 8.77939 6.2097 8.3871L6.29289 8.29289L11.584 3H8L7.88338 2.99327Z" />
</svg>
