<svg width="32" height="32" viewBox="0 0 32 32" fill="none" xmlns="http://www.w3.org/2000/svg">
<rect width="32" height="32" fill="#FAB6D7"/>
<path fill-rule="evenodd" clip-rule="evenodd" d="M10 14L10 17.0858L13 14.0858L13 14H10ZM9.3405 17.7454L9.34115 17.7448C9.93583 17.2782 10.6853 17 11.4998 17H12.9142L15.1036 14.8106L17.2249 16.932L17.1568 17H17.2929L17.2929 17H11.5C10.6851 17 9.93531 17.2785 9.3405 17.7454ZM8 20.5V10C8 8.89543 8.89543 8 10 8H13C14.1046 8 15 8.89543 15 10V12.0858L16.4853 10.6005C17.2663 9.81945 18.5326 9.81945 19.3137 10.6005L21.435 12.7218C22.2161 13.5029 22.2161 14.7692 21.435 15.5502L19.9853 17H18.0001L18 17H22C23.1046 17 24 17.8954 24 19V22C24 23.1046 23.1046 24 22 24H11.5C9.567 24 8 22.433 8 20.5ZM10 13H13V10L10 10L10 13ZM15.8107 14.1035L17.932 16.2248L20.0208 14.136L17.8995 12.0147L15.8107 14.1035ZM10 20.5C10 19.6716 10.6716 19 11.5 19H14V22H11.5C10.6716 22 10 21.3284 10 20.5ZM18 22H15V19H18V22ZM22 22H19V19H22V22ZM11.5 21C11.7761 21 12 20.7761 12 20.5C12 20.2239 11.7761 20 11.5 20C11.2239 20 11 20.2239 11 20.5C11 20.7761 11.2239 21 11.5 21Z" fill="#A32751"/>
</svg>
