<svg width="16" height="16" viewBox="0 0 16 16" data-path-count="1" xmlns="http://www.w3.org/2000/svg">
<path data-path-style="onLight" fill-rule="evenodd" clip-rule="evenodd" d="M9.00011 1.53287V1C9.00011 0.447715 8.55239 0 8.00011 0C7.44782 0 7.00011 0.447715 7.00011 1V1.53287C7.00011 1.73254 6.77757 1.85164 6.61143 1.74088L5.88878 1.25912C5.72264 1.14836 5.50011 1.26746 5.50011 1.46713V2.08579C5.50011 2.351 5.60546 2.60536 5.793 2.79289L6.70722 3.70711C6.89475 3.89464 7.00011 4.149 7.00011 4.41421V6.26797L5.39471 5.34109C5.16502 5.20848 4.99742 4.99006 4.92878 4.73388L4.59416 3.48504C4.52551 3.22886 4.35791 3.01044 4.12823 2.87784L3.59246 2.56851C3.41953 2.46867 3.20512 2.60184 3.21798 2.8011L3.27387 3.66782C3.28672 3.86708 3.07231 4.00025 2.89939 3.90042L2.43791 3.63398C1.95962 3.35784 1.34803 3.52171 1.07189 4.00001C0.795743 4.4783 0.959619 5.08989 1.43791 5.36603L1.89939 5.63247C2.07231 5.7323 2.06419 5.98457 1.8852 6.07308L1.10665 6.45803C0.927661 6.54653 0.919534 6.7988 1.09246 6.89863L1.62823 7.20796C1.85791 7.34057 2.13087 7.37651 2.38705 7.30786L3.63589 6.97324C3.89207 6.90459 4.16502 6.94053 4.39471 7.07314L6.0001 8.00001L4.39475 8.92686C4.16506 9.05947 3.89211 9.0954 3.63593 9.02676L2.38709 8.69214C2.13091 8.62349 1.85795 8.65943 1.62827 8.79204L1.0925 9.10137C0.919573 9.2012 0.927699 9.45347 1.10669 9.54197L1.88524 9.92692C2.06423 10.0154 2.07235 10.2677 1.89943 10.3675L1.43795 10.634C0.959657 10.9101 0.795782 11.5217 1.07192 12C1.34807 12.4783 1.95966 12.6422 2.43795 12.366L2.89943 12.0996C3.07235 11.9997 3.28676 12.1329 3.27391 12.3322L3.21801 13.1989C3.20516 13.3982 3.41957 13.5313 3.59249 13.4315L4.12827 13.1222C4.35795 12.9896 4.52555 12.7711 4.59419 12.515L4.82161 11.6662C4.9589 11.1539 5.2941 10.717 5.75347 10.4518L7.00011 9.73206V11.5858C7.00011 11.851 6.89475 12.1054 6.70721 12.2929L5.793 13.2071C5.60546 13.3946 5.50011 13.649 5.50011 13.9142V14.5329C5.50011 14.7325 5.72264 14.8516 5.88878 14.7409L6.61143 14.2591C6.77757 14.1484 7.00011 14.2675 7.00011 14.4671V15C7.00011 15.5523 7.44782 16 8.00011 16C8.55239 16 9.00011 15.5523 9.00011 15V14.4671C9.00011 14.2675 9.22264 14.1484 9.38878 14.2591L10.1114 14.7409C10.2776 14.8516 10.5001 14.7325 10.5001 14.5329V13.9142C10.5001 13.649 10.3948 13.3946 10.2072 13.2071L9.58589 12.5858C9.21082 12.2107 9.00011 11.702 9.00011 11.1716V9.73207L10.6055 10.6589C10.8352 10.7915 11.0028 11.01 11.0714 11.2661L11.406 12.515C11.4747 12.7711 11.6423 12.9896 11.8719 13.1222L12.4077 13.4315C12.5806 13.5313 12.7951 13.3982 12.7822 13.1989L12.7263 12.3322C12.7135 12.1329 12.9279 11.9998 13.1008 12.0996L13.5623 12.366C14.0406 12.6422 14.6522 12.4783 14.9283 12C15.2044 11.5217 15.0406 10.9101 14.5623 10.634L14.1008 10.3675C13.9279 10.2677 13.936 10.0154 14.115 9.92694L14.8935 9.54199C15.0725 9.45349 15.0806 9.20121 14.9077 9.10138L14.3719 8.79205C14.1423 8.65944 13.8693 8.6235 13.6131 8.69215L12.7644 8.91957C12.252 9.05685 11.7061 8.98498 11.2468 8.71977L10.0001 8.00001L11.6055 7.07313C11.8352 6.94052 12.1081 6.90458 12.3643 6.97323L13.6132 7.30785C13.8693 7.37649 14.1423 7.34056 14.372 7.20795L14.9078 6.89862C15.0807 6.79879 15.0726 6.54651 14.8936 6.45801L14.115 6.07306C13.936 5.98456 13.9279 5.73229 14.1008 5.63245L14.5623 5.36602C15.0406 5.08988 15.2045 4.47829 14.9283 3.99999C14.6522 3.5217 14.0406 3.35783 13.5623 3.63397L13.1008 3.9004C12.9279 4.00024 12.7135 3.86707 12.7263 3.66781L12.7822 2.80109C12.7951 2.60183 12.5807 2.46866 12.4078 2.5685L11.872 2.87782C11.6423 3.01043 11.4747 3.22885 11.4061 3.48503L11.0714 4.73387C11.0028 4.99005 10.8352 5.20847 10.6055 5.34108L9.00011 6.26795V4.41421C9.00011 4.149 9.10546 3.89464 9.293 3.70711L10.2072 2.79289C10.3948 2.60536 10.5001 2.351 10.5001 2.08579V1.46713C10.5001 1.26746 10.2776 1.14836 10.1114 1.25912L9.38878 1.74088C9.22264 1.85164 9.00011 1.73254 9.00011 1.53287Z" />
</svg>
