<svg width="32" height="32" viewBox="0 0 32 32" fill="none" xmlns="http://www.w3.org/2000/svg">
<path fill-rule="evenodd" clip-rule="evenodd" d="M8 13C10.7614 13 13 10.7614 13 8C13 5.23858 10.7614 3 8 3C5.23858 3 3 5.23858 3 8C3 10.7614 5.23858 13 8 13Z" fill="#F9D86A"/>
<path fill-rule="evenodd" clip-rule="evenodd" d="M5 21C7.76142 21 10 18.7614 10 16C10 13.2386 7.76142 11 5 11C2.23858 11 0 13.2386 0 16C0 18.7614 2.23858 21 5 21Z" fill="#96D488"/>
<path fill-rule="evenodd" clip-rule="evenodd" d="M8 29C10.7614 29 13 26.7614 13 24C13 21.2386 10.7614 19 8 19C5.23858 19 3 21.2386 3 24C3 26.7614 5.23858 29 8 29Z" fill="#66B289"/>
<path fill-rule="evenodd" clip-rule="evenodd" d="M16 32C18.7614 32 21 29.7614 21 27C21 24.2386 18.7614 22 16 22C13.2386 22 11 24.2386 11 27C11 29.7614 13.2386 32 16 32Z" fill="#42A1FF"/>
<path fill-rule="evenodd" clip-rule="evenodd" d="M24 29C26.7614 29 29 26.7614 29 24C29 21.2386 26.7614 19 24 19C21.2386 19 19 21.2386 19 24C19 26.7614 21.2386 29 24 29Z" fill="#2D83D9"/>
<path fill-rule="evenodd" clip-rule="evenodd" d="M27 21C29.7614 21 32 18.7614 32 16C32 13.2386 29.7614 11 27 11C24.2386 11 22 13.2386 22 16C22 18.7614 24.2386 21 27 21Z" fill="#A395DB"/>
<path fill-rule="evenodd" clip-rule="evenodd" d="M24 13C26.7614 13 29 10.7614 29 8C29 5.23858 26.7614 3 24 3C21.2386 3 19 5.23858 19 8C19 10.7614 21.2386 13 24 13Z" fill="#F69A81"/>
<path fill-rule="evenodd" clip-rule="evenodd" d="M20.9999 5C20.9999 7.76142 18.7613 10 15.9999 10C14.8349 10 13.763 9.60156 12.9129 8.93352C12.97 8.63109 12.9999 8.31903 12.9999 8C12.9999 6.40358 12.2517 4.9819 11.0869 4.06648C11.5242 1.7512 13.5575 0 15.9999 0C18.7613 0 20.9999 2.23858 20.9999 5Z" fill="#F06A41"/>
</svg>
