<svg width="32" height="32" viewBox="0 0 32 32" data-path-count="1" xmlns="http://www.w3.org/2000/svg"><path data-path-style="onLight" fill-rule="evenodd" clip-rule="evenodd" d="M12 0C9.79086 0 8 1.79086 8 4V6H6H4H3C2.44772 6 2 6.44772 2 7V9C2 9.55229 2.44771 10 3 10H4V26C4 29.3137 6.68629 32 10 32H22C25.3137 32 28 29.3137 28 26V10H29C29.5523 10 30 9.55229 30 9V7C30 6.44772 29.5523 6 29 6H28H26H24V4C24 1.79086 22.2091 0 20 0H12ZM20 6V4H12V6H20ZM10 10H22H26V26C26 28.2091 24.2091 30 22 30H10C7.79086 30 6 28.2091 6 26V10H10ZM11 15C11 14.4477 11.4477 14 12 14C12.5523 14 13 14.4477 13 15V23C13 23.5523 12.5523 24 12 24C11.4477 24 11 23.5523 11 23V15ZM20 14C19.4477 14 19 14.4477 19 15V23C19 23.5523 19.4477 24 20 24C20.5523 24 21 23.5523 21 23V15C21 14.4477 20.5523 14 20 14Z" />
</svg>
