<svg width="16" height="16" viewBox="0 0 16 16" data-path-count="2" xmlns="http://www.w3.org/2000/svg">
<path data-path-style="onLight" d="M8 2C11.0643 2 13.6926 3.87734 15.8575 7.4855C16.0475 7.80219 16.0475 8.19781 15.8575 8.5145C13.6926 12.1227 11.0643 14 8 14C4.93568 14 2.30741 12.1227 0.142507 8.5145C-0.0475024 8.19781 -0.0475024 7.80219 0.142507 7.4855C2.30741 3.87734 4.93568 2 8 2ZM8 4C5.88226 4 3.9654 5.26834 2.22723 7.92412L2.178 8L2.42137 8.36565C4.04531 10.7328 5.82358 11.911 7.77387 11.9951L8 12C10.1177 12 12.0346 10.7317 13.7728 8.07588L13.821 8L13.5786 7.63435C11.9547 5.26718 10.1764 4.089 8.22613 4.00486L8 4ZM8 5C9.65685 5 11 6.34315 11 8C11 9.65685 9.65685 11 8 11C6.34315 11 5 9.65685 5 8C5 6.34315 6.34315 5 8 5ZM8 7C7.44772 7 7 7.44772 7 8C7 8.55228 7.44772 9 8 9C8.55229 9 9 8.55228 9 8C9 7.44772 8.55229 7 8 7Z" />
<path data-path-style="onDark" fill-rule="evenodd" clip-rule="evenodd" d="M8 2C11.0643 2 13.6926 3.87734 15.8575 7.4855C16.0475 7.80219 16.0475 8.19781 15.8575 8.5145C13.6926 12.1227 11.0643 14 8 14C4.93568 14 2.30741 12.1227 0.142507 8.5145C-0.0475024 8.19781 -0.0475024 7.80219 0.142507 7.4855C2.30741 3.87734 4.93568 2 8 2ZM11 8C11 9.65685 9.65685 11 8 11C6.34315 11 5 9.65685 5 8C5 6.34315 6.34315 5 8 5C9.65685 5 11 6.34315 11 8ZM8 9C8.55229 9 9 8.55228 9 8C9 7.44772 8.55229 7 8 7C7.44772 7 7 7.44772 7 8C7 8.55228 7.44772 9 8 9Z" />
</svg>
