<svg width="16" height="16" viewBox="0 0 16 16" fill="none" xmlns="http://www.w3.org/2000/svg">
<path fill-rule="evenodd" clip-rule="evenodd" d="M8 15.5C12.1421 15.5 15.5 12.1421 15.5 8C15.5 3.85786 12.1421 0.5 8 0.5C3.85786 0.5 0.5 3.85786 0.5 8C0.5 12.1421 3.85786 15.5 8 15.5ZM8.75 3.9397C8.75 3.52548 8.41421 3.1897 8 3.1897C7.58579 3.1897 7.25 3.52548 7.25 3.9397V8.00762V8.32332L7.47578 8.54399L10.4758 11.4761C10.772 11.7656 11.2468 11.7601 11.5364 11.4639C11.8259 11.1677 11.8205 10.6929 11.5242 10.4033L8.75 7.69192V3.9397Z" fill="#EB7100"/>
</svg>
