<svg width="16" height="16" viewBox="0 0 16 16" data-path-count="1" xmlns="http://www.w3.org/2000/svg">
<path data-path-style="onLight" fill-rule="evenodd" clip-rule="evenodd" d="M4 2C3.44772 2 3 2.44772 3 3V4C3 4.55228 2.55228 5 2 5C1.44772 5 1 4.55228 1 4V3C1 1.34315 2.34315 0 4 0H12C13.6569 0 15 1.34315 15 3V13C15 14.6569 13.6569 16 12 16H4C2.34315 16 1 14.6569 1 13V12C1 11.4477 1.44772 11 2 11C2.55228 11 3 11.4477 3 12V13C3 13.5523 3.44772 14 4 14H12C12.5523 14 13 13.5523 13 13V3C13 2.44772 12.5523 2 12 2H4ZM0 8C0 7.44772 0.447715 7 1 7H7.25548L6.29289 5.70711C5.90237 5.31658 5.90237 4.68342 6.29289 4.29289C6.68342 3.90237 7.31658 3.90237 7.70711 4.29289L10.7071 7.29289C11.0976 7.68342 11.0976 8.31658 10.7071 8.70711L7.70711 11.7071C7.31658 12.0976 6.68342 12.0976 6.29289 11.7071C5.90237 11.3166 5.90237 10.6834 6.29289 10.2929L7.25548 9H1C0.447715 9 0 8.55229 0 8Z" />
</svg>
