<svg width="16" height="16" viewBox="0 0 16 16" data-path-count="1" xmlns="http://www.w3.org/2000/svg">
<path data-path-style="onLight" fill-rule="evenodd" clip-rule="evenodd" d="M10 2C10 2.12812 9.98795 2.25343 9.96493 2.37486C11.8264 3.11493 13.1797 4.87665 13.3118 6.99026L13.4973 9.95737C13.499 9.98507 13.5095 10.0115 13.5273 10.0328L14.6331 11.3598C15.1759 12.0111 14.7127 13 13.8649 13H2.13497C1.28713 13 0.823974 12.0111 1.36675 11.3598L2.47258 10.0328C2.49035 10.0115 2.50086 9.98507 2.50259 9.95737L2.68803 6.99026C2.82014 4.8766 4.17347 3.11484 6.03506 2.3748C6.01204 2.2534 6 2.1281 6 2C6 0.895431 6.89543 0 8 0C9.10457 0 10 0.895431 10 2ZM11.7741 11C11.6155 10.7201 11.5214 10.4065 11.5012 10.0821L11.3157 7.11502C11.2063 5.36407 9.75429 4 7.99993 4C6.24556 4 4.79357 5.36407 4.68414 7.11502L4.4987 10.0821C4.47842 10.4065 4.38436 10.7201 4.22571 11H11.7741ZM8 16C9.10457 16 10 15.1046 10 14H6C6 15.1046 6.89543 16 8 16Z" />
</svg>
