<svg width="16" height="16" viewBox="0 0 16 16" data-path-count="1" xmlns="http://www.w3.org/2000/svg">
<path data-path-style="onLight" fill-rule="evenodd" clip-rule="evenodd" d="M2.94579 2C2.3935 2 1.94579 2.44771 1.94579 3V11.5858L1.70711 11.3471C1.31658 10.9566 0.683417 10.9566 0.292893 11.3471C-0.0976311 11.7376 -0.0976311 12.3708 0.292893 12.7613L2.23744 14.7059C2.43339 14.9018 2.69044 14.9994 2.94727 14.9988C3.2041 14.9994 3.46115 14.9018 3.65711 14.7059L5.60165 12.7613C5.99217 12.3708 5.99217 11.7376 5.60165 11.3471C5.21113 10.9566 4.57796 10.9566 4.18744 11.3471L3.94579 11.5888V3C3.94579 2.44772 3.49807 2 2.94579 2ZM8.9458 3C8.39352 3 7.9458 3.44772 7.9458 4C7.9458 4.55228 8.39352 5 8.9458 5H14.9458C15.4981 5 15.9458 4.55228 15.9458 4C15.9458 3.44772 15.4981 3 14.9458 3H8.9458ZM8.9458 7C8.39352 7 7.9458 7.44772 7.9458 8C7.9458 8.55228 8.39352 9 8.9458 9H12.9458C13.4981 9 13.9458 8.55228 13.9458 8C13.9458 7.44772 13.4981 7 12.9458 7H8.9458ZM7.9458 12C7.9458 11.4477 8.39352 11 8.9458 11H10.9458C11.4981 11 11.9458 11.4477 11.9458 12C11.9458 12.5523 11.4981 13 10.9458 13H8.9458C8.39352 13 7.9458 12.5523 7.9458 12Z" />
</svg>
