<svg width="16" height="16" viewBox="0 0 16 16" data-path-count="1" xmlns="http://www.w3.org/2000/svg">
<path data-path-style="onLight" fill-rule="evenodd" clip-rule="evenodd" d="M2.23223 11.6464C1.86218 12.0165 1.62012 12.4906 1.53454 13H1.41421C1.149 13 0.894643 12.8946 0.707107 12.7071L0.292893 12.2929C0.105357 12.1054 0 11.851 0 11.5858V10.4142C0 10.149 0.105357 9.89464 0.292894 9.7071L3.1928 6.8072C3.06742 6.39351 3 5.95463 3 5.5C3 3.01472 5.01472 1 7.5 1C8.39305 1 9.22534 1.26015 9.92523 1.70879C7.37541 2.4005 5.5 4.73124 5.5 7.5C5.5 7.77853 5.51908 8.05318 5.5561 8.32258L2.23223 11.6464ZM11.5 12C13.9853 12 16 9.98528 16 7.5C16 5.01472 13.9853 3 11.5 3C9.01472 3 7 5.01472 7 7.5C7 7.95463 7.06742 8.39351 7.1928 8.8072L3.29289 12.7071C3.10536 12.8946 3 13.149 3 13.4142V14.5858C3 14.851 3.10536 15.1054 3.29289 15.2929L3.70711 15.7071C3.89464 15.8946 4.149 16 4.41421 16H5.5C5.77614 16 6 15.7761 6 15.5V15C6 14.7239 6.22386 14.5 6.5 14.5H7C7.27614 14.5 7.5 14.2761 7.5 14V13.5C7.5 13.2239 7.72386 13 8 13H8.79289C8.9255 13 9.05268 12.9473 9.14645 12.8536L10.1928 11.8072C10.6065 11.9326 11.0454 12 11.5 12ZM13 7C13.5523 7 14 6.55228 14 6C14 5.44772 13.5523 5 13 5C12.4477 5 12 5.44772 12 6C12 6.55228 12.4477 7 13 7Z" />
</svg>
