<svg width="16" height="16" viewBox="0 0 16 16" data-path-count="1" xmlns="http://www.w3.org/2000/svg">
<path data-path-style="onLight" fill-rule="evenodd" clip-rule="evenodd" d="M0 8C0 3.58172 3.58172 0 8 0C12.4183 0 16 3.58172 16 8C16 12.4183 12.4183 16 8 16C3.58172 16 0 12.4183 0 8ZM7 8C7 8.55229 7.44772 9 8 9C8.55229 9 9 8.55229 9 8V5C9 4.44772 8.55229 4 8 4C7.44772 4 7 4.44772 7 5V8ZM7 11C7 10.4477 7.44772 10 8 10C8.55229 10 9 10.4477 9 11C9 11.5523 8.55229 12 8 12C7.44772 12 7 11.5523 7 11Z" />
</svg>
