<svg width="16" height="16" viewBox="0 0 16 16" data-path-count="2" xmlns="http://www.w3.org/2000/svg">
<path data-path-style="onLight" fill-rule="evenodd" clip-rule="evenodd" d="M3 5C3 2.23858 5.23858 0 8 0C10.7614 0 13 2.23858 13 5V6.05001C14.1411 6.28164 15 7.29052 15 8.5V13.5C15 14.8807 13.8807 16 12.5 16H3.5C2.11929 16 1 14.8807 1 13.5V8.5C1 7.29052 1.85888 6.28164 3 6.05001V5ZM11 5V6H5V5C5 3.34315 6.34315 2 8 2C9.65685 2 11 3.34315 11 5ZM3.5 8C3.22386 8 3 8.22386 3 8.5V13.5C3 13.7761 3.22386 14 3.5 14H12.5C12.7761 14 13 13.7761 13 13.5V8.5C13 8.22386 12.7761 8 12.5 8H3.5ZM8 9C7.44772 9 7 9.44771 7 10V12C7 12.5523 7.44772 13 8 13C8.55228 13 9 12.5523 9 12V10C9 9.44771 8.55228 9 8 9Z" />
<path data-path-style="onDark" fill-rule="evenodd" clip-rule="evenodd" d="M8 0C5.23858 0 3 2.23858 3 5V7C1.89543 7 1 7.89543 1 9V14C1 15.1046 1.89543 16 3 16H13C14.1046 16 15 15.1046 15 14V9C15 7.89543 14.1046 7 13 7V5C13 2.23858 10.7614 0 8 0ZM11 7V5C11 3.34315 9.65685 2 8 2C6.34315 2 5 3.34315 5 5V7H11ZM7 10.5C7 9.94772 7.44772 9.5 8 9.5C8.55228 9.5 9 9.94772 9 10.5V12.5C9 13.0523 8.55228 13.5 8 13.5C7.44772 13.5 7 13.0523 7 12.5V10.5Z" />
</svg>
