<svg width="16" height="16" viewBox="0 0 16 16" data-path-count="1" xmlns="http://www.w3.org/2000/svg">
<path data-path-style="onLight" fill-rule="evenodd" clip-rule="evenodd" d="M2 1C2 0.447715 1.55228 0 1 0C0.447715 0 0 0.447715 0 1V14C0 15.1046 0.89543 16 2 16H15C15.5523 16 16 15.5523 16 15C16 14.4477 15.5523 14 15 14H2V1ZM4 8C3.44772 8 3 8.44772 3 9V12C3 12.5523 3.44772 13 4 13H5C5.55228 13 6 12.5523 6 12V9C6 8.44772 5.55228 8 5 8H4ZM8 2C7.44772 2 7 2.44771 7 3V12C7 12.5523 7.44772 13 8 13H9C9.55228 13 10 12.5523 10 12V3C10 2.44772 9.55229 2 9 2H8ZM11 7C11 6.44771 11.4477 6 12 6H13C13.5523 6 14 6.44772 14 7V12C14 12.5523 13.5523 13 13 13H12C11.4477 13 11 12.5523 11 12V7Z" />
</svg>
