<svg width="32" height="32" viewBox="0 0 32 32" fill="none" xmlns="http://www.w3.org/2000/svg">
<rect width="32" height="32" fill="#66CBFF"/>
<path fill-rule="evenodd" clip-rule="evenodd" d="M16 23C19.866 23 23 19.866 23 16C23 12.134 19.866 9 16 9C12.134 9 9 12.134 9 16C9 19.866 12.134 23 16 23ZM16 24C20.4183 24 24 20.4183 24 16C24 11.5817 20.4183 8 16 8C11.5817 8 8 11.5817 8 16C8 20.4183 11.5817 24 16 24ZM16 20C18.2091 20 20 18.2091 20 16C20 13.7909 18.2091 12 16 12C13.7909 12 12 13.7909 12 16C12 18.2091 13.7909 20 16 20ZM16 21.75C19.1756 21.75 21.75 19.1756 21.75 16C21.75 12.8244 19.1756 10.25 16 10.25C12.8244 10.25 10.25 12.8244 10.25 16C10.25 19.1756 12.8244 21.75 16 21.75ZM16 13.5C15.4477 13.5 15 13.9477 15 14.5V17.5C15 18.0523 15.4477 18.5 16 18.5C16.5523 18.5 17 18.0523 17 17.5V14.5C17 13.9477 16.5523 13.5 16 13.5Z" fill="#034EA6"/>
</svg>
