<svg width="16" height="16" viewBox="0 0 16 16" data-path-count="1" xmlns="http://www.w3.org/2000/svg">
<path data-path-style="onLight" fill-rule="evenodd" clip-rule="evenodd" d="M5.00004 10.0854V9C5.00004 7.34315 6.34318 6 8.00004 6C9.65689 6 11 7.34315 11 9V10.0854C11.5826 10.2913 12 10.8469 12 11.5V13.5C12 14.3284 11.3285 15 10.5 15H5.50004C4.67161 15 4.00004 14.3284 4.00004 13.5V11.5C4.00004 10.8469 4.41744 10.2913 5.00004 10.0854ZM7.00004 9C7.00004 8.44772 7.44775 8 8.00004 8C8.55232 8 9.00004 8.44772 9.00004 9V10H7.00004V9Z M7.99991 5C6.6919 5 5.53057 5.62676 4.79911 6.60058C4.46742 7.04217 3.84056 7.13126 3.39897 6.79957C2.95738 6.46788 2.86829 5.84101 3.19998 5.39942C4.29293 3.94434 6.03629 3 7.99991 3C9.96354 3 11.7069 3.94434 12.7998 5.39942C13.1315 5.84101 13.0424 6.46788 12.6009 6.79957C12.1593 7.13126 11.5324 7.04217 11.2007 6.60058C10.4693 5.62676 9.30792 5 7.99991 5Z M8.00005 2C5.78991 2 3.81942 3.02312 2.53492 4.62547C2.18949 5.05639 1.56012 5.12569 1.1292 4.78025C0.698286 4.43481 0.628989 3.80545 0.974427 3.37453C2.62218 1.31903 5.15741 0 8.00005 0C10.8427 0 13.3779 1.31903 15.0257 3.37453C15.3711 3.80545 15.3018 4.43481 14.8709 4.78025C14.44 5.12569 13.8106 5.05639 13.4652 4.62547C12.1807 3.02312 10.2102 2 8.00005 2Z" />
</svg>
