<svg width="24" height="24" viewBox="0 0 24 24" fill="none" xmlns="http://www.w3.org/2000/svg">
<path fill-rule="evenodd" clip-rule="evenodd" d="M6 9.75C8.07107 9.75 9.75 8.07107 9.75 6C9.75 3.92893 8.07107 2.25 6 2.25C3.92893 2.25 2.25 3.92893 2.25 6C2.25 8.07107 3.92893 9.75 6 9.75Z" fill="#F9D86A"/>
<path fill-rule="evenodd" clip-rule="evenodd" d="M3.75 15.75C5.82107 15.75 7.5 14.0711 7.5 12C7.5 9.92893 5.82107 8.25 3.75 8.25C1.67893 8.25 0 9.92893 0 12C0 14.0711 1.67893 15.75 3.75 15.75Z" fill="#96D488"/>
<path fill-rule="evenodd" clip-rule="evenodd" d="M6 21.75C8.07107 21.75 9.75 20.0711 9.75 18C9.75 15.9289 8.07107 14.25 6 14.25C3.92893 14.25 2.25 15.9289 2.25 18C2.25 20.0711 3.92893 21.75 6 21.75Z" fill="#66B289"/>
<path fill-rule="evenodd" clip-rule="evenodd" d="M12 24C14.0711 24 15.75 22.3211 15.75 20.25C15.75 18.1789 14.0711 16.5 12 16.5C9.92893 16.5 8.25 18.1789 8.25 20.25C8.25 22.3211 9.92893 24 12 24Z" fill="#42A1FF"/>
<path fill-rule="evenodd" clip-rule="evenodd" d="M18 21.75C20.0711 21.75 21.75 20.0711 21.75 18C21.75 15.9289 20.0711 14.25 18 14.25C15.9289 14.25 14.25 15.9289 14.25 18C14.25 20.0711 15.9289 21.75 18 21.75Z" fill="#2D83D9"/>
<path fill-rule="evenodd" clip-rule="evenodd" d="M20.25 15.75C22.3211 15.75 24 14.0711 24 12C24 9.92893 22.3211 8.25 20.25 8.25C18.1789 8.25 16.5 9.92893 16.5 12C16.5 14.0711 18.1789 15.75 20.25 15.75Z" fill="#A395DB"/>
<path fill-rule="evenodd" clip-rule="evenodd" d="M18 9.75C20.0711 9.75 21.75 8.07107 21.75 6C21.75 3.92893 20.0711 2.25 18 2.25C15.9289 2.25 14.25 3.92893 14.25 6C14.25 8.07107 15.9289 9.75 18 9.75Z" fill="#F69A81"/>
<path fill-rule="evenodd" clip-rule="evenodd" d="M15.7499 3.75C15.7499 5.82107 14.071 7.5 11.9999 7.5C11.1262 7.5 10.3222 7.20117 9.68469 6.70014C9.72753 6.47332 9.74994 6.23928 9.74994 6C9.74994 4.80268 9.18881 3.73643 8.31519 3.04986C8.64312 1.3134 10.1681 0 11.9999 0C14.071 0 15.7499 1.67893 15.7499 3.75Z" fill="#F06A41"/>
</svg>
