<svg width="16" height="16" viewBox="0 0 16 16" data-path-count="1" xmlns="http://www.w3.org/2000/svg">
<path data-path-style="onLight" d="M15 1C15 0.447715 14.5523 0 14 0C13.4477 0 13 0.447715 13 1L12.7363 2.84576C11.4905 1.70056 9.82721 1 8 1C4.13401 1 1 4.13401 1 8C1 11.866 4.13401 15 8 15C11.0494 15 13.641 13.0507 14.6014 10.3332C14.7855 9.81253 14.5126 9.24121 13.9918 9.05716C13.4711 8.87311 12.8998 9.14604 12.7157 9.66675C12.0289 11.6101 10.1755 13 8 13C5.23858 13 3 10.7614 3 8C3 5.23858 5.23858 3 8 3C9.45595 3 10.767 3.62172 11.6818 4.61689L9 5C8.44772 5 8 5.44772 8 6C8 6.55228 8.44772 7 9 7H14C14.5523 7 15 6.55228 15 6V1Z" />
</svg>
