<svg width="32" height="32" viewBox="0 0 32 32" fill="none" xmlns="http://www.w3.org/2000/svg">
<path fill-rule="evenodd" clip-rule="evenodd" d="M22.0013 18.1399C22.01 18.9279 22.5971 19.4918 23.3994 19.4829C24.0953 19.4752 24.6866 18.8572 24.6771 18.1477C24.6668 17.3859 24.0656 16.7859 23.3249 16.7981C22.5854 16.8104 21.9932 17.4107 22.0013 18.1399ZM8.63924 19.4829C9.38205 19.4829 9.98555 18.8946 9.98922 18.167C9.99299 17.4164 9.3934 16.8033 8.65053 16.7981C7.92112 16.7929 7.30512 17.3988 7.3056 18.121C7.30611 18.8861 7.89053 19.4829 8.63924 19.4829ZM6.12109 6.0278C6.25527 6.08712 6.43906 6.25903 6.54207 6.44127C6.93282 7.1325 7.33305 7.81833 7.72986 8.50606C8.17727 9.28152 8.62671 10.0557 9.06975 10.8338C9.16698 11.0046 9.49904 10.8001 9.60718 10.7552C12.2906 9.64149 15.0789 9.29166 17.9585 9.61146C19.6068 9.79454 21.1905 10.2183 22.7026 10.9017C22.8155 10.9528 22.8614 10.9318 22.9208 10.8283C23.754 9.37718 24.5936 7.92981 25.4259 6.4782C25.5336 6.29037 25.8228 5.86349 26.2212 6.06531C26.6197 6.26712 26.5266 6.72136 26.4115 6.91997C25.5675 8.37735 24.73 9.83849 23.8839 11.2946C23.811 11.42 23.822 11.4799 23.9518 11.5281C23.9864 11.541 24.0176 11.5631 24.0501 11.5816C26.7549 13.1247 28.8214 15.2823 30.2566 18.0441C31.0845 19.6373 31.6177 21.3264 31.8812 23.1023C31.9066 23.2734 31.9462 23.5726 32 24C32 23.9858 -0.00942451 23.9858 2.08165e-06 23.9858C0.00943284 23.9858 -0.00198889 23.8752 0.00959981 23.7635C0.0945217 22.9456 0.242013 22.1388 0.453419 21.3442C1.18757 18.5844 2.54738 16.1802 4.55863 14.1509C5.59385 13.1065 6.75691 12.2271 8.04796 11.5207C8.15485 11.4622 8.17589 11.4196 8.10983 11.3087C7.82876 10.8371 7.5577 10.3596 7.2835 9.88401C6.70582 8.882 6.12741 7.8804 5.55143 6.87743C5.35153 6.52933 5.43364 6.19115 5.80207 6.0278C5.81602 6.0216 5.9869 5.96847 6.12109 6.0278Z" fill="#3DDC84"/>
</svg>
