<svg width="32" height="33" viewBox="0 0 32 33" fill="none" xmlns="http://www.w3.org/2000/svg">
<rect width="28" height="28" transform="translate(2 1.00293)" fill="black" fill-opacity="0.01"/>
<g filter="url(#filter0_d_1309_316590)">
<mask id="path-1-inside-1_1309_316590" fill="white">
<path fill-rule="evenodd" clip-rule="evenodd" d="M21.0009 19.0033C25.9715 19.0033 30.0009 14.9739 30.0009 10.0034C30.0009 5.03284 25.9715 1.00342 21.0009 1.00342C16.0304 1.00342 12.001 5.03284 12.001 10.0034C12.001 10.7701 12.0968 11.5144 12.2773 12.225L2 22.5023V26.7905L4.18925 29.0023H7.62769V25.0112H12.218V21.019H16.4833L18.7761 18.7262C19.4877 18.9072 20.2331 19.0033 21.0009 19.0033ZM25.6277 7.56592C25.6277 8.77404 24.6483 9.75342 23.4402 9.75342C22.2321 9.75342 21.2527 8.77404 21.2527 7.56592C21.2527 6.3578 22.2321 5.37842 23.4402 5.37842C24.6483 5.37842 25.6277 6.3578 25.6277 7.56592Z"/>
</mask>
<path fill-rule="evenodd" clip-rule="evenodd" d="M21.0009 19.0033C25.9715 19.0033 30.0009 14.9739 30.0009 10.0034C30.0009 5.03284 25.9715 1.00342 21.0009 1.00342C16.0304 1.00342 12.001 5.03284 12.001 10.0034C12.001 10.7701 12.0968 11.5144 12.2773 12.225L2 22.5023V26.7905L4.18925 29.0023H7.62769V25.0112H12.218V21.019H16.4833L18.7761 18.7262C19.4877 18.9072 20.2331 19.0033 21.0009 19.0033ZM25.6277 7.56592C25.6277 8.77404 24.6483 9.75342 23.4402 9.75342C22.2321 9.75342 21.2527 8.77404 21.2527 7.56592C21.2527 6.3578 22.2321 5.37842 23.4402 5.37842C24.6483 5.37842 25.6277 6.3578 25.6277 7.56592Z" fill="#FF3300" fill-opacity="0.07" shape-rendering="crispEdges"/>
<path d="M12.2773 12.225L12.8076 12.7553C12.9946 12.5684 13.0693 12.2967 13.0042 12.0404L12.2773 12.225ZM2 22.5023L1.46967 21.9719C1.32902 22.1126 1.25 22.3034 1.25 22.5023H2ZM2 26.7905H1.25C1.25 26.9881 1.32797 27.1777 1.46696 27.3181L2 26.7905ZM4.18925 29.0023L3.6562 29.5299C3.79707 29.6722 3.989 29.7523 4.18925 29.7523V29.0023ZM7.62769 29.0023V29.7523C8.0419 29.7523 8.37769 29.4165 8.37769 29.0023H7.62769ZM7.62769 25.0112V24.2612C7.21347 24.2612 6.87769 24.597 6.87769 25.0112H7.62769ZM12.218 25.0112V25.7612C12.6323 25.7612 12.968 25.4254 12.968 25.0112H12.218ZM12.218 21.019V20.269C11.8038 20.269 11.468 20.6048 11.468 21.019H12.218ZM16.4833 21.019V21.769C16.6822 21.769 16.873 21.69 17.0136 21.5494L16.4833 21.019ZM18.7761 18.7262L18.9609 17.9994C18.7046 17.9342 18.4328 18.0089 18.2458 18.1959L18.7761 18.7262ZM29.2509 10.0034C29.2509 14.5597 25.5573 18.2533 21.0009 18.2533V19.7533C26.3857 19.7533 30.7509 15.3881 30.7509 10.0034H29.2509ZM21.0009 1.75342C25.5573 1.75342 29.2509 5.44705 29.2509 10.0034H30.7509C30.7509 4.61863 26.3857 0.253418 21.0009 0.253418V1.75342ZM12.751 10.0034C12.751 5.44705 16.4446 1.75342 21.0009 1.75342V0.253418C15.6162 0.253418 11.251 4.61863 11.251 10.0034H12.751ZM13.0042 12.0404C12.839 11.3897 12.751 10.7073 12.751 10.0034H11.251C11.251 10.8328 11.3547 11.6391 11.5503 12.4096L13.0042 12.0404ZM2.53033 23.0326L12.8076 12.7553L11.7469 11.6947L1.46967 21.9719L2.53033 23.0326ZM2.75 26.7905V22.5023H1.25V26.7905H2.75ZM4.72229 28.4747L2.53304 26.2629L1.46696 27.3181L3.6562 29.5299L4.72229 28.4747ZM7.62769 28.2523H4.18925V29.7523H7.62769V28.2523ZM8.37769 29.0023V25.0112H6.87769V29.0023H8.37769ZM7.62769 25.7612H12.218V24.2612H7.62769V25.7612ZM12.968 25.0112V21.019H11.468V25.0112H12.968ZM12.218 21.769H16.4833V20.269H12.218V21.769ZM18.2458 18.1959L15.953 20.4887L17.0136 21.5494L19.3064 19.2566L18.2458 18.1959ZM21.0009 18.2533C20.2959 18.2533 19.6126 18.1651 18.9609 17.9994L18.5913 19.4531C19.3627 19.6493 20.1702 19.7533 21.0009 19.7533V18.2533ZM23.4402 10.5034C25.0625 10.5034 26.3777 9.18825 26.3777 7.56592H24.8777C24.8777 8.35983 24.2341 9.00342 23.4402 9.00342V10.5034ZM20.5027 7.56592C20.5027 9.18825 21.8179 10.5034 23.4402 10.5034V9.00342C22.6463 9.00342 22.0027 8.35983 22.0027 7.56592H20.5027ZM23.4402 4.62842C21.8179 4.62842 20.5027 5.94358 20.5027 7.56592H22.0027C22.0027 6.77201 22.6463 6.12842 23.4402 6.12842V4.62842ZM26.3777 7.56592C26.3777 5.94358 25.0625 4.62842 23.4402 4.62842V6.12842C24.2341 6.12842 24.8777 6.77201 24.8777 7.56592H26.3777Z" fill="#BB3B1B" fill-opacity="0.8" mask="url(#path-1-inside-1_1309_316590)"/>
</g>
<mask id="mask0_1309_316590" style="mask-type:alpha" maskUnits="userSpaceOnUse" x="2" y="1" width="29" height="29">
<path fill-rule="evenodd" clip-rule="evenodd" d="M21.0009 19.0033C25.9715 19.0033 30.0009 14.9739 30.0009 10.0034C30.0009 5.03284 25.9715 1.00342 21.0009 1.00342C16.0304 1.00342 12.001 5.03284 12.001 10.0034C12.001 10.7701 12.0968 11.5144 12.2773 12.225L2 22.5023V26.7905L4.18925 29.0023H7.62769V25.0112H12.218V21.019H16.4833L18.7761 18.7262C19.4877 18.9072 20.2331 19.0033 21.0009 19.0033ZM25.6277 7.56592C25.6277 8.77404 24.6483 9.75342 23.4402 9.75342C22.2321 9.75342 21.2527 8.77404 21.2527 7.56592C21.2527 6.3578 22.2321 5.37842 23.4402 5.37842C24.6483 5.37842 25.6277 6.3578 25.6277 7.56592Z" fill="black"/>
</mask>
<g mask="url(#mask0_1309_316590)">
<circle opacity="0.7" cx="20.8311" cy="10.0918" r="6.78125" stroke="#BB3B1B" stroke-opacity="0.5" stroke-width="0.4375"/>
</g>
<defs>
<filter id="filter0_d_1309_316590" x="0.25" y="0.128418" width="31.501" height="31.4988" filterUnits="userSpaceOnUse" color-interpolation-filters="sRGB">
<feFlood flood-opacity="0" result="BackgroundImageFix"/>
<feColorMatrix in="SourceAlpha" type="matrix" values="0 0 0 0 0 0 0 0 0 0 0 0 0 0 0 0 0 0 127 0" result="hardAlpha"/>
<feOffset dy="0.875"/>
<feGaussianBlur stdDeviation="0.875"/>
<feComposite in2="hardAlpha" operator="out"/>
<feColorMatrix type="matrix" values="0 0 0 0 0 0 0 0 0 0 0 0 0 0 0 0 0 0 0.08 0"/>
<feBlend mode="normal" in2="BackgroundImageFix" result="effect1_dropShadow_1309_316590"/>
<feBlend mode="normal" in="SourceGraphic" in2="effect1_dropShadow_1309_316590" result="shape"/>
</filter>
</defs>
</svg>
