<svg width="16" height="16" viewBox="0 0 16 16" data-path-count="1" xmlns="http://www.w3.org/2000/svg">
<path data-path-style="onLight" d="M8.00024 0C8.55253 0 9.00024 0.447715 9.00024 1V7.2553L10.2929 6.29289C10.6834 5.90237 11.3166 5.90237 11.7071 6.29289C12.0976 6.68342 12.0976 7.31658 11.7071 7.70711L8.70711 10.7071C8.31658 11.0976 7.68342 11.0976 7.29289 10.7071L4.29289 7.70711C3.90237 7.31658 3.90237 6.68342 4.29289 6.29289C4.68342 5.90237 5.31658 5.90237 5.70711 6.29289L7.00024 7.25566V1C7.00024 0.447715 7.44796 0 8.00024 0Z" fill="black"/>
<path d="M13 3C13.5523 3 14 3.44772 14 4L14 12C14 12.5523 13.5523 13 13 13L3 13C2.44772 13 2 12.5523 2 12L2 4C2 3.44771 2.44772 3 3 3H4C4.55229 3 5 2.55228 5 2C5 1.44771 4.55229 1 4 0.999999L3 0.999999C1.34315 0.999999 0 2.34315 0 4V12C0 13.6569 1.34314 15 3 15L13 15C14.6569 15 16 13.6569 16 12L16 4C16 2.34315 14.6569 1 13 1L12 1C11.4477 1 11 1.44772 11 2C11 2.55228 11.4477 3 12 3H13Z" />
</svg>
