<svg width="16" height="16" viewBox="0 0 16 16" data-path-count="1" xmlns="http://www.w3.org/2000/svg">
<path data-path-style="onLight" fill-rule="evenodd" clip-rule="evenodd" d="M3 0C1.34315 0 0 1.34315 0 3V10C0 11.1046 0.89543 12 2 12V3C2 2.44772 2.44772 2 3 2H12C12 0.89543 11.1046 0 10 0H3ZM7 4C5.34315 4 4 5.34315 4 7V13C4 14.6569 5.34315 16 7 16H13C14.6569 16 16 14.6569 16 13V7C16 5.34315 14.6569 4 13 4H7ZM6 7C6 6.44772 6.44772 6 7 6H13C13.5523 6 14 6.44772 14 7V13C14 13.5523 13.5523 14 13 14H7C6.44772 14 6 13.5523 6 13V7Z" />
</svg>
