<svg width="16" height="16" viewBox="0 0 16 16" data-path-count="2" xmlns="http://www.w3.org/2000/svg">
<path data-path-style="onLight" fill-rule="evenodd" clip-rule="evenodd" d="M2.45045 10.8452L2.36844 11.7994L2.1948 13.8195L4.21597 13.659L5.2495 13.577L5.66303 13.5441L6.05551 13.6785C6.66273 13.8863 7.31601 14 8 14C11.3137 14 14 11.3137 14 8C14 4.68629 11.3137 2 8 2C4.68629 2 2 4.68629 2 8C2 8.7069 2.1214 9.3811 2.34283 10.0056L2.48754 10.4138L2.45045 10.8452ZM0 16L2.02117 15.8395L2.35308 15.8132L5.40778 15.5707C6.22074 15.849 7.09274 16 8 16C12.4183 16 16 12.4183 16 8C16 3.58172 12.4183 0 8 0C3.58172 0 0 3.58172 0 8C0 8.93775 0.161345 9.83782 0.4578 10.674L0.20215 13.6482L0.173636 13.9799L0 16ZM9.58052 8.9727C9.69533 8.78704 9.81015 8.81794 9.96799 8.87985C10.1259 8.94183 10.9726 9.39057 11.1448 9.48342C11.1785 9.50155 11.2099 9.51791 11.239 9.53308C11.3592 9.59561 11.4403 9.63783 11.4749 9.70012C11.518 9.77748 11.518 10.1489 11.3745 10.5823C11.2309 11.0157 10.5429 11.4112 10.212 11.4644C9.91521 11.5122 9.53977 11.5321 9.1272 11.3909C8.87708 11.3054 8.55626 11.1913 8.14539 11.0001C6.53097 10.2492 5.43994 8.56392 5.23351 8.24504C5.21902 8.22266 5.20889 8.20701 5.20324 8.19888L5.20182 8.19685C5.11058 8.06571 4.5 7.18812 4.5 6.27977C4.5 5.42525 4.88968 4.97732 5.06905 4.77115C5.08134 4.75702 5.09264 4.74403 5.10277 4.73211C5.26065 4.54642 5.44725 4.5 5.56206 4.5C5.67685 4.5 5.79179 4.50114 5.89213 4.50652C5.90452 4.50719 5.9174 4.50711 5.93072 4.50702C6.0311 4.50641 6.15622 4.50563 6.27964 4.82496C6.327 4.94756 6.39625 5.12916 6.46932 5.3208C6.61767 5.70985 6.7818 6.14028 6.81063 6.20248C6.85372 6.29533 6.88241 6.40363 6.825 6.52748C6.81639 6.54605 6.80842 6.56358 6.80081 6.58032C6.75769 6.67516 6.72598 6.74491 6.65278 6.83696C6.62412 6.87302 6.59449 6.91188 6.56487 6.95075C6.50551 7.02863 6.44613 7.10653 6.39443 7.16199C6.3082 7.25448 6.21847 7.35487 6.31894 7.5406C6.41938 7.72633 6.76505 8.33381 7.27703 8.82574C7.8274 9.35457 8.30575 9.57806 8.5482 9.69134C8.59554 9.71346 8.63389 9.73138 8.66202 9.74654C8.83425 9.83946 8.93472 9.8239 9.03516 9.70012C9.13563 9.5763 9.4657 9.15839 9.58052 8.9727Z" />
<path data-path-style="onDark" fill-rule="evenodd" clip-rule="evenodd" d="M8 16C12.4183 16 16 12.4183 16 8C16 3.58172 12.4183 0 8 0C3.58172 0 0 3.58172 0 8C0 8.93776 0.161349 9.83783 0.4578 10.674L0 16L5.40778 15.5707C6.22073 15.849 7.09273 16 8 16ZM5.56206 4C5.32017 4 4.98671 4.09671 4.72184 4.40824L4.68835 4.447C4.49319 4.67129 4 5.23809 4 6.27977C4 6.84083 4.18704 7.36664 4.36704 7.74852C4.54821 8.13288 4.74083 8.40974 4.7913 8.48229L4.79273 8.48434L4.79387 8.48609L4.81178 8.51366L4.81389 8.51692L4.81393 8.51698L4.81401 8.51711C4.82712 8.53736 4.84456 8.5643 4.86561 8.59634C4.9103 8.66439 4.9713 8.75554 5.04758 8.8638C5.1999 9.08 5.41353 9.36502 5.68162 9.67293C6.21258 10.2827 6.98078 11.0099 7.93446 11.4534C8.36798 11.6551 8.70734 11.7758 8.96527 11.8639C9.48371 12.0414 9.94982 12.013 10.2914 11.958C10.557 11.9153 10.8819 11.7608 11.1475 11.5774C11.406 11.399 11.7252 11.1135 11.8491 10.7395C11.9337 10.4839 11.9774 10.2433 11.9931 10.0476C12.0009 9.95025 12.0023 9.85686 11.9963 9.77341C11.9921 9.71678 11.9805 9.5806 11.9118 9.45692C11.8218 9.29516 11.6817 9.2079 11.6129 9.16721C11.5688 9.14116 11.5034 9.10699 11.4485 9.07827L11.4484 9.07827C11.4231 9.06502 11.3999 9.05289 11.3821 9.0433C11.2935 8.99554 11.0366 8.85897 10.7817 8.72646C10.5434 8.60251 10.2609 8.45769 10.1506 8.41437L10.1408 8.41051C10.071 8.38284 9.89454 8.31282 9.69692 8.3372C9.43101 8.36999 9.25949 8.54119 9.15524 8.70975C9.08515 8.8231 8.8982 9.0673 8.76293 9.23936L8.75277 9.23457C8.5032 9.11687 8.10741 8.93022 7.62345 8.46519C7.24782 8.10428 6.96683 7.66492 6.82764 7.42539C6.88209 7.35965 6.94015 7.28359 6.9858 7.2238L6.98582 7.22377L6.98583 7.22376L7.02386 7.17412L7.04422 7.14804C7.15846 7.00436 7.21554 6.87754 7.25905 6.78087C7.26583 6.76579 7.27235 6.7513 7.27864 6.73775C7.42501 6.42197 7.33556 6.14597 7.26434 5.99237C7.26434 5.99237 7.26436 5.99241 7.26423 5.99206C7.26412 5.99177 7.2639 5.99123 7.26347 5.99021L7.26346 5.99018C7.26134 5.98508 7.25578 5.9717 7.24565 5.94636C7.2327 5.91395 7.21582 5.87091 7.19575 5.81926C7.1557 5.71615 7.10454 5.58277 7.04987 5.43972L6.93713 5.14427C6.86376 4.95187 6.79376 4.76829 6.74602 4.6447C6.65849 4.41823 6.52781 4.20262 6.29988 4.08663C6.18686 4.02912 6.08205 4.0133 6.00828 4.00877C5.97538 4.00675 5.94606 4.00692 5.9317 4.00701H5.93169L5.93045 4.00702L5.91587 4.00707C5.80219 4.00108 5.67723 4 5.56206 4Z" />
</svg>
