<svg width="32" height="33" viewBox="0 0 32 33" fill="none" xmlns="http://www.w3.org/2000/svg">
<rect width="28" height="28" transform="translate(2 1.00293)" fill="black" fill-opacity="0.01"/>
<mask id="mask0_1271_318855" style="mask-type:alpha" maskUnits="userSpaceOnUse" x="2" y="1" width="29" height="29">
<path fill-rule="evenodd" clip-rule="evenodd" d="M21.0009 19.0033C25.9715 19.0033 30.0009 14.9739 30.0009 10.0034C30.0009 5.03284 25.9715 1.00342 21.0009 1.00342C16.0304 1.00342 12.001 5.03284 12.001 10.0034C12.001 10.7701 12.0968 11.5144 12.2773 12.225L2 22.5023L2 26.7905L4.18925 29.0023H7.62769V25.0112H12.218V21.019H16.4833L18.7761 18.7262C19.4877 18.9072 20.2331 19.0033 21.0009 19.0033ZM25.2261 7.96753C25.2261 9.17565 24.2467 10.155 23.0386 10.155C21.8305 10.155 20.8511 9.17565 20.8511 7.96753C20.8511 6.75941 21.8305 5.78003 23.0386 5.78003C24.2467 5.78003 25.2261 6.75941 25.2261 7.96753Z" fill="url(#paint0_linear_1271_318855)"/>
</mask>
<g mask="url(#mask0_1271_318855)">
<mask id="path-2-inside-1_1271_318855" fill="white">
<path fill-rule="evenodd" clip-rule="evenodd" d="M21.0014 19.0031C25.972 19.0031 30.0014 14.9737 30.0014 10.0031C30.0014 5.03259 25.972 1.00317 21.0014 1.00317C16.0309 1.00317 12.0015 5.03259 12.0015 10.0031C12.0015 10.7698 12.0973 11.5142 12.2778 12.2248L2.00049 22.502V26.7902L4.18974 29.0021H7.62817V25.011H12.2185V21.0188H16.4838L18.7766 18.726C19.4881 18.9069 20.2336 19.0031 21.0014 19.0031ZM25.2266 7.96729C25.2266 9.17541 24.2472 10.1548 23.0391 10.1548C21.8309 10.1548 20.8516 9.17541 20.8516 7.96729C20.8516 6.75916 21.8309 5.77979 23.0391 5.77979C24.2472 5.77979 25.2266 6.75916 25.2266 7.96729Z"/>
</mask>
<path fill-rule="evenodd" clip-rule="evenodd" d="M21.0014 19.0031C25.972 19.0031 30.0014 14.9737 30.0014 10.0031C30.0014 5.03259 25.972 1.00317 21.0014 1.00317C16.0309 1.00317 12.0015 5.03259 12.0015 10.0031C12.0015 10.7698 12.0973 11.5142 12.2778 12.2248L2.00049 22.502V26.7902L4.18974 29.0021H7.62817V25.011H12.2185V21.0188H16.4838L18.7766 18.726C19.4881 18.9069 20.2336 19.0031 21.0014 19.0031ZM25.2266 7.96729C25.2266 9.17541 24.2472 10.1548 23.0391 10.1548C21.8309 10.1548 20.8516 9.17541 20.8516 7.96729C20.8516 6.75916 21.8309 5.77979 23.0391 5.77979C24.2472 5.77979 25.2266 6.75916 25.2266 7.96729Z" fill="url(#paint1_linear_1271_318855)"/>
<path d="M12.2778 12.2248L12.6313 12.5783L12.8323 12.3773L12.7624 12.1017L12.2778 12.2248ZM2.00049 22.502L1.64693 22.1485L1.50049 22.2949V22.502H2.00049ZM2.00049 26.7902H1.50049V26.9958L1.64513 27.142L2.00049 26.7902ZM4.18974 29.0021L3.83437 29.3538L3.98113 29.5021H4.18974V29.0021ZM7.62817 29.0021V29.5021H8.12817V29.0021H7.62817ZM7.62817 25.011L7.62817 24.511H7.12817L7.12817 25.011H7.62817ZM12.2185 25.011V25.511H12.7185V25.011H12.2185ZM12.2185 21.0188V20.5188H11.7185V21.0188H12.2185ZM16.4838 21.0188V21.5188H16.6909L16.8373 21.3724L16.4838 21.0188ZM18.7766 18.726L18.8998 18.2414L18.6241 18.1713L18.423 18.3724L18.7766 18.726ZM29.5014 10.0031C29.5014 14.6975 25.6958 18.5031 21.0014 18.5031V19.5031C26.2481 19.5031 30.5014 15.2498 30.5014 10.0031H29.5014ZM21.0014 1.50317C25.6958 1.50317 29.5014 5.30874 29.5014 10.0031H30.5014C30.5014 4.75645 26.2481 0.503174 21.0014 0.503174V1.50317ZM12.5015 10.0031C12.5015 5.30874 16.307 1.50317 21.0014 1.50317V0.503174C15.7547 0.503174 11.5015 4.75645 11.5015 10.0031H12.5015ZM12.7624 12.1017C12.5921 11.431 12.5015 10.728 12.5015 10.0031H11.5015C11.5015 10.8117 11.6026 11.5973 11.7931 12.3478L12.7624 12.1017ZM2.35404 22.8556L12.6313 12.5783L11.9242 11.8712L1.64693 22.1485L2.35404 22.8556ZM2.50049 26.7902V22.502H1.50049V26.7902H2.50049ZM4.5451 28.6503L2.35585 26.4385L1.64513 27.142L3.83437 29.3538L4.5451 28.6503ZM7.62817 28.5021H4.18974V29.5021H7.62817V28.5021ZM8.12817 29.0021V25.011H7.12817V29.0021H8.12817ZM7.62817 25.511H12.2185V24.511H7.62817L7.62817 25.511ZM12.7185 25.011V21.0188H11.7185V25.011H12.7185ZM12.2185 21.5188H16.4838V20.5188H12.2185V21.5188ZM18.423 18.3724L16.1302 20.6652L16.8373 21.3724L19.1301 19.0795L18.423 18.3724ZM21.0014 18.5031C20.2755 18.5031 19.5714 18.4122 18.8998 18.2414L18.6534 19.2106C19.4049 19.4017 20.1917 19.5031 21.0014 19.5031V18.5031ZM23.0391 10.6548C24.5233 10.6548 25.7266 9.45155 25.7266 7.96729H24.7266C24.7266 8.89927 23.971 9.65479 23.0391 9.65479V10.6548ZM20.3516 7.96729C20.3516 9.45155 21.5548 10.6548 23.0391 10.6548V9.65479C22.1071 9.65479 21.3516 8.89927 21.3516 7.96729H20.3516ZM23.0391 5.27979C21.5548 5.27979 20.3516 6.48302 20.3516 7.96729H21.3516C21.3516 7.03531 22.1071 6.27979 23.0391 6.27979V5.27979ZM25.7266 7.96729C25.7266 6.48302 24.5233 5.27979 23.0391 5.27979V6.27979C23.971 6.27979 24.7266 7.03531 24.7266 7.96729H25.7266Z" fill="#E44D3E" fill-opacity="0.6" mask="url(#path-2-inside-1_1271_318855)"/>
<g filter="url(#filter0_f_1271_318855)">
<circle cx="20.8311" cy="10.093" r="7" stroke="#EB7100" stroke-width="0.5"/>
</g>
<circle opacity="0.3" cx="20.8311" cy="10.093" r="6.5" stroke="white"/>
<circle opacity="0.7" cx="20.8311" cy="10.093" r="6.75" stroke="#EB7100" stroke-width="0.5"/>
<g filter="url(#filter1_i_1271_318855)">
<path d="M14.5529 15.3634L1.84465 28.0717L0.297852 26.5249L13.0061 13.8166C13.5051 13.3176 14.2559 13.2594 14.6831 13.6865C15.1102 14.1136 15.0519 14.8644 14.5529 15.3634Z" fill="#FFAA05"/>
</g>
</g>
<defs>
<filter id="filter0_f_1271_318855" x="11.8311" y="1.09302" width="18" height="18" filterUnits="userSpaceOnUse" color-interpolation-filters="sRGB">
<feFlood flood-opacity="0" result="BackgroundImageFix"/>
<feBlend mode="normal" in="SourceGraphic" in2="BackgroundImageFix" result="shape"/>
<feGaussianBlur stdDeviation="0.875" result="effect1_foregroundBlur_1271_318855"/>
</filter>
<filter id="filter1_i_1271_318855" x="0.297852" y="13.4006" width="14.6709" height="15.5461" filterUnits="userSpaceOnUse" color-interpolation-filters="sRGB">
<feFlood flood-opacity="0" result="BackgroundImageFix"/>
<feBlend mode="normal" in="SourceGraphic" in2="BackgroundImageFix" result="shape"/>
<feColorMatrix in="SourceAlpha" type="matrix" values="0 0 0 0 0 0 0 0 0 0 0 0 0 0 0 0 0 0 127 0" result="hardAlpha"/>
<feOffset dy="0.875"/>
<feGaussianBlur stdDeviation="0.875"/>
<feComposite in2="hardAlpha" operator="arithmetic" k2="-1" k3="1"/>
<feColorMatrix type="matrix" values="0 0 0 0 0.921569 0 0 0 0 0.443137 0 0 0 0 0 0 0 0 0.7 0"/>
<feBlend mode="normal" in2="shape" result="effect1_innerShadow_1271_318855"/>
</filter>
<linearGradient id="paint0_linear_1271_318855" x1="-22.3519" y1="8.90403" x2="27.5537" y2="11.1251" gradientUnits="userSpaceOnUse">
<stop stop-color="#FFAA05"/>
<stop offset="1" stop-color="#FFD480"/>
</linearGradient>
<linearGradient id="paint1_linear_1271_318855" x1="-22.3514" y1="8.90378" x2="27.5542" y2="11.1249" gradientUnits="userSpaceOnUse">
<stop stop-color="#FFAA05"/>
<stop offset="1" stop-color="#FFD480"/>
</linearGradient>
</defs>
</svg>
