<svg width="16" height="16" viewBox="0 0 16 16" xmlns="http://www.w3.org/2000/svg">
<path fill-rule="evenodd" clip-rule="evenodd" d="M7.6129 0.209707C7.22061 -0.0953213 6.65338 -0.0675915 6.29289 0.292896L4.29289 2.29292L4.2097 2.38713C3.90468 2.77942 3.93241 3.34666 4.29289 3.70715L4.3871 3.79034C4.77939 4.09537 5.34662 4.06764 5.70711 3.70715L6 3.41443V10C6 10.5523 6.44772 11 7 11C7.55228 11 8 10.5523 8 10V3.41443L8.29289 3.70715L8.3871 3.79034C8.77939 4.09537 9.34662 4.06764 9.70711 3.70715C10.0976 3.31662 10.0976 2.68345 9.70711 2.29292L7.70711 0.292896L7.6129 0.209707ZM3 8C3 7.44772 3.44772 7 4 7V5C2.34315 5 1 6.34315 1 8V13C1 14.6569 2.34315 16 4 16H8.25716C7.77896 15.421 7.41701 14.7424 7.20703 14H4C3.44772 14 3 13.5523 3 13V8ZM10.7115 7.29733C11.2722 7.10462 11.8739 7 12.5 7C12.6117 7 12.7227 7.00333 12.8328 7.0099C12.4237 5.83954 11.3099 5 10 5V7C10.2784 7 10.5302 7.11376 10.7115 7.29733ZM16 12.5C16 14.433 14.433 16 12.5 16C10.567 16 9 14.433 9 12.5C9 10.567 10.567 9 12.5 9C14.433 9 16 10.567 16 12.5ZM12.5 10C12.7761 10 13 10.2239 13 10.5V12.2929L13.8536 13.1464C14.0488 13.3417 14.0488 13.6583 13.8536 13.8536C13.6583 14.0488 13.3417 14.0488 13.1464 13.8536L12 12.7071V10.5C12 10.2239 12.2239 10 12.5 10Z" />
</svg>
