<svg width="16" height="16" viewBox="0 0 16 16" data-path-count="1" xmlns="http://www.w3.org/2000/svg">
<path data-path-style="onLight" fill-rule="evenodd" clip-rule="evenodd" d="M12 5C12 7.20914 10.2091 9 8 9C5.79086 9 4 7.20914 4 5C4 2.79086 5.79086 1 8 1C10.2091 1 12 2.79086 12 5ZM6 5C6 6.10457 6.89543 7 8 7C9.10457 7 10 6.10457 10 5C10 3.89543 9.10457 3 8 3C6.89543 3 6 3.89543 6 5ZM3.90202 14.4851C3.58644 13.2228 4.54116 12 5.8423 12H10.1576C11.4588 12 12.4135 13.2228 12.0979 14.4851L12.0298 14.7575C11.8959 15.2933 12.2216 15.8362 12.7574 15.9701C13.2932 16.1041 13.8362 15.7783 13.9701 15.2425L14.0382 14.9701C14.6694 12.4456 12.7599 10 10.1576 10H5.8423C3.24002 10 1.33059 12.4456 1.96173 14.9701L2.02983 15.2425C2.16378 15.7783 2.70671 16.1041 3.24251 15.9701C3.7783 15.8362 4.10406 15.2933 3.97012 14.7575L3.90202 14.4851Z" />
</svg>
