<svg width="16" height="16" viewBox="0 0 16 16" data-path-count="1" xmlns="http://www.w3.org/2000/svg">
<path data-path-style="onLight" fill-rule="evenodd" clip-rule="evenodd" d="M0 2.5C0 1.67157 0.671573 1 1.5 1H2H14H14.5C15.3284 1 16 1.67157 16 2.5C16 3.15311 15.5826 3.70873 15 3.91465V12C15 13.6569 13.6569 15 12 15H4C2.34315 15 1 13.6569 1 12V3.91465C0.417404 3.70873 0 3.15311 0 2.5ZM13 12V4H3V12C3 12.5523 3.44772 13 4 13H12C12.5523 13 13 12.5523 13 12ZM6 6C5.44772 6 5 6.44772 5 7C5 7.55228 5.44772 8 6 8H10C10.5523 8 11 7.55228 11 7C11 6.44772 10.5523 6 10 6H6Z" />
</svg>
