<svg width="32" height="32" viewBox="0 0 32 32" fill="none" xmlns="http://www.w3.org/2000/svg">
<rect width="32" height="32" fill="#CDA5DC"/>
<path d="M15.3538 15.3533L15.8536 14.8536C16.0488 14.6583 16.0488 14.3417 15.8536 14.1464C15.6583 13.9512 15.3417 13.9512 15.1464 14.1464L14.6467 14.6462C14.4509 14.5525 14.2316 14.5 14 14.5C13.7684 14.5 13.5491 14.5525 13.3533 14.6462L12.8536 14.1464C12.6583 13.9512 12.3417 13.9512 12.1464 14.1464C11.9512 14.3417 11.9512 14.6583 12.1464 14.8536L12.6462 15.3533C12.5525 15.5491 12.5 15.7684 12.5 16C12.5 16.2316 12.5525 16.4509 12.6462 16.6467L12.1464 17.1464C11.9512 17.3417 11.9512 17.6583 12.1464 17.8536C12.3417 18.0488 12.6583 18.0488 12.8536 17.8536L13.3533 17.3538C13.5491 17.4475 13.7684 17.5 14 17.5C14.2316 17.5 14.4509 17.4475 14.6467 17.3538L15.1464 17.8536C15.3417 18.0488 15.6583 18.0488 15.8536 17.8536C16.0488 17.6583 16.0488 17.3417 15.8536 17.1464L15.3538 16.6467C15.4475 16.4509 15.5 16.2316 15.5 16C15.5 15.7684 15.4475 15.5491 15.3538 15.3533Z" fill="#502160"/>
<path fill-rule="evenodd" clip-rule="evenodd" d="M14 22C17.3137 22 20 19.3137 20 16C20 12.6863 17.3137 10 14 10C10.6863 10 8 12.6863 8 16C8 19.3137 10.6863 22 14 22ZM14 20C16.2091 20 18 18.2091 18 16C18 13.7909 16.2091 12 14 12C11.7909 12 10 13.7909 10 16C10 18.2091 11.7909 20 14 20Z" fill="#502160"/>
<path d="M19.4979 21.8115C21.0388 20.3533 22.0001 18.2889 22.0001 16C22.0001 13.7111 21.0388 11.6467 19.4979 10.1885C22.0868 10.8538 24.0001 13.2035 24.0001 16C24.0001 18.7965 22.0869 21.1462 19.4979 21.8115Z" fill="#502160"/>
</svg>
