<svg width="16" height="16" viewBox="0 0 16 16" fill="none" xmlns="http://www.w3.org/2000/svg">
<path d="M5 6C5.552 6 6 5.552 6 5C6 4.487 5.614 4.064 5.117 4.007L5 4L3.365 4C4.507 2.764 6.202 2 8 2C11.314 2 14 4.686 14 8C14 11.314 11.314 14 8 14C5.04 14 2.535 11.843 2.075 8.952C1.988 8.407 1.475 8.035 0.93 8.122C0.385 8.209 0.0130004 8.722 0.1 9.267C0.714 13.125 4.054 16 8 16C12.418 16 16 12.418 16 8C16 3.582 12.418 0 8 0C5.693 0 3.513 0.956 1.999 2.534L2 1C2 0.487 1.614 0.064 1.117 0.007L1 0C0.487 0 0.064 0.386 0.00699997 0.883L0 1L0 5C0 5.513 0.386 5.936 0.883 5.993L1 6L5 6Z" fill="#A6A6A6"/>
<rect x="4.46436" y="10.1213" width="8" height="2" rx="1" transform="rotate(-45 4.46436 10.1213)" fill="#F4512A"/>
</svg>
