<svg width="16" height="16" viewBox="0 0 16 16" data-path-count="1" xmlns="http://www.w3.org/2000/svg">
<path data-path-style="onLight" fill-rule="evenodd" clip-rule="evenodd" d="M16 5.5C16 8.53757 13.5376 11 10.5 11C10.0391 11 9.59137 10.9433 9.16351 10.8365L9 11C9 10.4477 8.55228 10 8 10H7V9C7 8.44772 6.55228 8 6 8H5V7L5.16351 6.83649C5.0567 6.40863 5 5.96094 5 5.5C5 2.46243 7.46243 0 10.5 0C13.5376 0 16 2.46243 16 5.5ZM6 12H6.5C6.22386 12 6 12.2239 6 12.5V13.5C6 13.7761 5.77614 14 5.5 14H4.5C4.22386 14 4 14.2239 4 14.5V15.5C4 15.7761 3.77614 16 3.5 16H1.41421C1.149 16 0.894643 15.8946 0.707107 15.7071L0.292893 15.2929C0.105357 15.1054 0 14.851 0 14.5858V12.4142C0 12.149 0.105357 11.8946 0.292893 11.7071L3 9C3 9.55228 3.44772 10 4 10H5V11C5 11.5523 5.44772 12 6 12ZM13 4.5C13 5.32843 12.3284 6 11.5 6C10.6716 6 10 5.32843 10 4.5C10 3.67157 10.6716 3 11.5 3C12.3284 3 13 3.67157 13 4.5ZM2.83203 1.94528C2.52568 1.48576 1.90481 1.36158 1.44528 1.66793C0.985755 1.97429 0.861582 2.59516 1.16793 3.05468L2.16793 4.55468C2.47429 5.01421 3.09516 5.13839 3.55468 4.83203C4.01421 4.52568 4.13839 3.90481 3.83203 3.44528L2.83203 1.94528ZM10.1679 12.4453C10.4743 11.9858 11.0952 11.8616 11.5547 12.1679L13.0547 13.1679C13.5142 13.4743 13.6384 14.0952 13.332 14.5547C13.0257 15.0142 12.4048 15.1384 11.9453 14.832L10.4453 13.832C9.98575 13.5257 9.86158 12.9048 10.1679 12.4453ZM8 13C8.55229 13 9 13.4477 9 14V15C9 15.5523 8.55229 16 8 16C7.44772 16 7 15.5523 7 15V14C7 13.4477 7.44772 13 8 13ZM0 6.99998C0 6.4477 0.447715 5.99998 1 5.99998H2C2.55228 5.99998 3 6.4477 3 6.99998C3 7.55227 2.55228 7.99998 2 7.99998H1C0.447715 7.99998 0 7.55227 0 6.99998Z" />
</svg>
