<svg width="32" height="32" viewBox="0 0 32 32" fill="none" xmlns="http://www.w3.org/2000/svg">
<rect width="32" height="32" fill="black" fill-opacity="0.01"/>
<path d="M14.6113 19.0186H16.7207V18.9131C16.7207 17.6562 17.0898 17.1201 18.1885 16.4521C19.3926 15.7402 20.0781 14.7471 20.0869 13.3584C20.0781 11.1787 18.373 9.88672 16 9.88672C13.7148 9.88672 11.9922 11.1699 11.9307 13.5078H14.1895C14.2334 12.4531 14.9717 11.7588 15.9912 11.7588C16.9932 11.7588 17.7402 12.4268 17.7402 13.3936C17.7402 14.2461 17.1953 14.9316 16.2988 15.4238C15.2178 16.0215 14.6113 17.0059 14.6113 18.9131V19.0186ZM15.666 23.1406C16.4043 23.1406 17.002 22.5605 17.002 21.8486C17.002 21.1367 16.4043 20.5566 15.666 20.5566C14.9277 20.5566 14.3301 21.1367 14.3301 21.8486C14.3301 22.5605 14.9277 23.1406 15.666 23.1406Z" fill="black"/>
<path fill-rule="evenodd" clip-rule="evenodd" d="M13.5 2H18.5858L20.2929 3.70711L21.7071 2.29289L20 0.585786C19.6249 0.210714 19.1162 0 18.5858 0H13.5V2ZM25.7071 6.29289L24.2929 7.70711L26 9.41421V13.5H28V9.41421C28 8.88378 27.7893 8.37507 27.4142 8L25.7071 6.29289ZM26 23V18.5H28V23H26ZM23.4139 31.9831L23.0831 29.9989C24.6739 29.9556 25.9556 28.6739 25.9989 27.0831L27.9831 27.4139C27.7839 29.8452 25.8452 31.7839 23.4139 31.9831ZM18.5 30V32H13.5V30H18.5ZM8.91685 29.9989C7.32607 29.9556 6.04442 28.6739 6.00113 27.0831L4.01688 27.4139C4.21609 29.8452 6.15481 31.7839 8.58615 31.9831L8.91685 29.9989ZM4 23H6V18.5H4V23ZM4 13.5V9H6V13.5H4ZM8.91685 2.00113C7.32607 2.04442 6.04442 3.32607 6.00113 4.91685L4.01688 4.58615C4.21609 2.15481 6.15481 0.216091 8.58615 0.0168827L8.91685 2.00113Z" fill="black"/>
</svg>
