<svg width="16" height="16" viewBox="0 0 16 16" data-path-count="1" xmlns="http://www.w3.org/2000/svg">
<path data-path-style="onLight" fill-rule="evenodd" clip-rule="evenodd" d="M1 8.02512C1 13.7251 7.4 15.9251 7.7 15.9251C7.85 15.9751 7.925 16.0001 8 16.0001C8.075 16.0001 8.15 15.9751 8.3 15.9251C8.6 15.9251 15 13.7251 15 8.02512V3.02512C15 2.52512 14.6 2.12512 14.1 2.02512C13.1 1.92512 10.1 1.32512 8.6 0.225122C8.2 -0.0748779 7.8 -0.0748779 7.4 0.225122C6 1.32512 2.9 1.92512 1.9 2.02512C1.4 2.12512 1 2.52512 1 3.02512V8.02512ZM10.7071 6.73225C11.0976 6.34173 11.0976 5.70856 10.7071 5.31804C10.3166 4.92752 9.68342 4.92752 9.29289 5.31804L8 6.61093L6.70711 5.31804C6.31658 4.92752 5.68342 4.92752 5.29289 5.31804C4.90237 5.70856 4.90237 6.34173 5.29289 6.73225L6.58579 8.02515L5.29289 9.31804C4.90237 9.70856 4.90237 10.3417 5.29289 10.7323C5.68342 11.1228 6.31658 11.1228 6.70711 10.7323L8 9.43936L9.29289 10.7323C9.68342 11.1228 10.3166 11.1228 10.7071 10.7323C11.0976 10.3417 11.0976 9.70856 10.7071 9.31804L9.41421 8.02515L10.7071 6.73225Z" />
</svg>
