<svg width="16" height="16" viewBox="0 0 16 16" data-path-count="1" xmlns="http://www.w3.org/2000/svg">
<path data-path-style="onLight" fill-rule="evenodd" clip-rule="evenodd" d="M7.03695 2.16936C7.14442 1.55872 6.67463 0.999023 6.0546 0.999023C5.57067 0.999023 5.15656 1.34639 5.07237 1.82294L4.68793 3.99902H3.5533C3.06788 3.99902 2.65257 4.34762 2.56843 4.82569C2.46068 5.43789 2.93168 5.99902 3.5533 5.99902H4.33493L3.62893 9.99902H2.4993C2.01388 9.99902 1.59857 10.3476 1.51443 10.8257C1.40668 11.4379 1.87768 11.999 2.4993 11.999H3.27493L2.95268 13.823C2.84431 14.4365 3.31618 14.999 3.93912 14.999C4.42536 14.999 4.84138 14.6498 4.92567 14.1709L5.30793 11.999H9.27493L8.95268 13.823C8.84431 14.4365 9.31618 14.999 9.93912 14.999C10.4254 14.999 10.8414 14.6498 10.9257 14.1709L11.3079 11.999H12.438C12.9232 11.999 13.3384 11.6507 13.4227 11.1728C13.5308 10.5605 13.0598 9.99902 12.438 9.99902H11.6599L12.3639 5.99902H13.497C13.9822 5.99902 14.3974 5.65068 14.4817 5.17284C14.5898 4.56049 14.1188 3.99902 13.497 3.99902H12.7149L13.0369 2.16936C13.1444 1.55872 12.6746 0.999023 12.0546 0.999023C11.5707 0.999023 11.1566 1.34639 11.0724 1.82294L10.6879 3.99902H6.71493L7.03695 2.16936ZM6.36393 5.99902H10.3349L9.62893 9.99902H5.65993L6.36393 5.99902Z" />
</svg>
