<svg width="16" height="16" viewBox="0 0 16 16" data-path-count="1" xmlns="http://www.w3.org/2000/svg">
<path data-path-style="onLight" fill-rule="evenodd" clip-rule="evenodd" d="M3 5C3 2.23858 5.23858 0 8 0C10.7614 0 13 2.23858 13 5V7C14.1046 7 15 7.89543 15 9V14C15 15.1046 14.1046 16 13 16H3C1.89543 16 1 15.1046 1 14V9C1 7.89543 1.89543 7 3 7V5ZM11 5V7H5V5C5 3.34315 6.34315 2 8 2C9.65685 2 11 3.34315 11 5ZM5.5 9C4.11929 9 3 10.1193 3 11.5C3 12.8807 4.11929 14 5.5 14H6.5C6.77614 14 7 13.7761 7 13.5C7 13.2239 6.77614 13 6.5 13H5.5C4.67157 13 4 12.3284 4 11.5C4 10.6716 4.67157 10 5.5 10H6.5C6.77614 10 7 9.77614 7 9.5C7 9.22386 6.77614 9 6.5 9H5.5ZM10.5 9C11.8807 9 13 10.1193 13 11.5C13 12.8807 11.8807 14 10.5 14H9.5C9.22386 14 9 13.7761 9 13.5C9 13.2239 9.22386 13 9.5 13H10.5C11.3284 13 12 12.3284 12 11.5C12 10.6716 11.3284 10 10.5 10H9.5C9.22386 10 9 9.77614 9 9.5C9 9.22386 9.22386 9 9.5 9H10.5ZM6 11.5C6 11.2239 6.22386 11 6.5 11H9.5C9.77614 11 10 11.2239 10 11.5C10 11.7761 9.77614 12 9.5 12H6.5C6.22386 12 6 11.7761 6 11.5Z" />
</svg>
