<svg width="16" height="16" viewBox="0 0 16 16" data-path-count="1" xmlns="http://www.w3.org/2000/svg">
<path data-path-style="onLight" fill-rule="evenodd" clip-rule="evenodd" d="M0.304308 11.6765L5.97878 1.22356C6.8493 -0.380025 9.151 -0.380019 10.0215 1.22357L15.696 11.6766C16.5099 13.1758 15.4245 15 13.7186 15L2.28173 15C0.575833 15 -0.50956 13.1758 0.304308 11.6765ZM7.00037 5C7.00037 4.44772 7.44808 4 8.00037 4C8.55265 4 9.00037 4.44772 9.00037 5V9C9.00037 9.55229 8.55265 10 8.00037 10C7.44808 10 7.00037 9.55229 7.00037 9V5ZM8.00037 11C7.44808 11 7.00037 11.4477 7.00037 12C7.00037 12.5523 7.44808 13 8.00037 13C8.55265 13 9.00037 12.5523 9.00037 12C9.00037 11.4477 8.55265 11 8.00037 11Z" />
</svg>
