<svg width="16" height="16" viewBox="0 0 16 16" data-path-count="1" xmlns="http://www.w3.org/2000/svg">
<path data-path-style="onLight" fill-rule="evenodd" clip-rule="evenodd" d="M8 0.00012207C7.44772 0.00012207 7 0.447837 7 1.00012V2.50012C7 3.05241 7.44772 3.50012 8 3.50012C8.55228 3.50012 9 3.05241 9 2.50012V2.08308C11.8377 2.55916 14 5.02713 14 8.00012C14 11.3138 11.3137 14.0001 8 14.0001C4.68629 14.0001 2 11.3138 2 8.00012C2 7.07807 2.2073 6.20723 2.57689 5.42921C2.81387 4.93036 2.60158 4.33384 2.10272 4.09686C1.60387 3.85988 1.00735 4.07217 0.77037 4.57103C0.276084 5.61153 0 6.77498 0 8.00012C0 12.4184 3.58172 16.0001 8 16.0001C12.4183 16.0001 16 12.4184 16 8.00012C16 3.58184 12.4183 0.00012207 8 0.00012207ZM6.58586 9.4185C7.36691 10.1995 8.63323 10.1995 9.41428 9.4185C10.1953 8.63745 10.1953 7.37112 9.41428 6.59007C8.87503 6.05082 6.26112 4.78319 4.69442 4.05002C4.27794 3.85512 3.85436 4.27828 4.04885 4.69494C4.78074 6.26284 6.04655 8.87919 6.58586 9.4185Z" />
</svg>
