<svg width="32" height="32" viewBox="0 0 32 32" data-path-count="1" xmlns="http://www.w3.org/2000/svg">
<path fill-rule="evenodd" clip-rule="evenodd" data-path-style="onLight" d="M10 10C10 11.104 9.104 12 8 12H2L1.766 11.986C0.772001 11.872 0 11.026 0 10V4L0.0139999 3.766C0.128 2.772 0.974 2 2 2L2.234 2.014C3.228 2.128 4 2.974 4 4L3.998 5.068C7.026 1.912 11.386 0 16 0C24.836 0 32 7.164 32 16C32 24.836 24.836 32 16 32C8.108 32 1.428 26.25 0.200001 18.534C0.0260008 17.444 0.770001 16.418 1.86 16.244C2.95 16.07 3.976 16.814 4.15 17.904C5.07 23.686 10.08 28 16 28C22.628 28 28 22.628 28 16C28 9.372 22.628 4 16 4C12.404 4 9.014 5.528 6.73 8H8L8.234 8.014C9.228 8.128 10 8.974 10 10ZM11 14C9.89543 14 9 14.8954 9 16C9 17.1046 9.89543 18 11 18H21C22.1046 18 23 17.1046 23 16C23 14.8954 22.1046 14 21 14H11Z" />
</svg>
