<svg width="16" height="16" viewBox="0 0 16 16" data-path-count="1" xmlns="http://www.w3.org/2000/svg">
<path data-path-style="onLight" d="M6.85283 0.477702C7.05326 0.804929 7.04876 1.21799 6.84125 1.54077L3.46101 6.79894L6.40057 6.50498C6.95012 6.45003 7.44016 6.85097 7.49511 7.40051C7.55007 7.95006 7.14912 8.4401 6.59958 8.49505L1.59958 8.99505C1.21775 9.03324 0.847751 8.84956 0.647322 8.52233C0.446894 8.1951 0.451391 7.78205 0.658896 7.45926L4.03914 2.2011L1.09958 2.49505C0.550035 2.55001 0.059992 2.14906 0.00503761 1.59952C-0.0499168 1.04998 0.351027 0.559934 0.900571 0.50498L5.90057 0.00497957C6.2824 -0.0332031 6.6524 0.150474 6.85283 0.477702ZM10.5101 5.85861C10.5882 5.31188 11.0947 4.93198 11.6414 5.01009L15.1414 5.51009C15.5164 5.56365 15.8289 5.82447 15.9487 6.18381C16.0685 6.54314 15.975 6.93931 15.7071 7.20714L13.1213 9.79293L14.6414 10.0101C15.1882 10.0882 15.5681 10.5947 15.49 11.1415C15.4119 11.6882 14.9053 12.0681 14.3586 11.99L10.8586 11.49C10.4836 11.4364 10.1711 11.1756 10.0513 10.8163C9.93157 10.4569 10.0251 10.0608 10.2929 9.79293L12.8787 7.20714L11.3586 6.98999C10.8119 6.91188 10.432 6.40535 10.5101 5.85861ZM8.15108 11.8721C8.29693 11.6169 8.28022 11.3 8.10833 11.0615C7.93644 10.823 7.64108 10.7069 7.35281 10.7646L4.85281 11.2646C4.44664 11.3458 4.18323 11.7409 4.26446 12.1471C4.3457 12.5533 4.74082 12.8167 5.14699 12.7355L6.03117 12.5586L4.84872 14.6279C4.70287 14.8832 4.71958 15.2001 4.89147 15.4386C5.06336 15.677 5.35872 15.7931 5.64699 15.7355L8.14699 15.2355C8.55316 15.1542 8.81657 14.7591 8.73534 14.3529C8.6541 13.9468 8.25898 13.6834 7.85281 13.7646L6.96863 13.9414L8.15108 11.8721Z" />
</svg>
