<svg width="184" height="123" viewBox="0 0 184 123" fill="none" xmlns="http://www.w3.org/2000/svg">
<path opacity="0.15" fill-rule="evenodd" clip-rule="evenodd" d="M21.5224 38.6763C25.6682 35.7063 31.1171 34.6669 36.3472 36.3417L85.4891 52.0785L91.199 47.6884L39.6814 31.1908C32.5037 28.8923 24.8739 32.1993 21.5224 38.6763Z" fill="#B9BDC2"/>
<path fill-rule="evenodd" clip-rule="evenodd" d="M18.7982 40.7866C21.5529 32.1844 30.7595 27.4441 39.3618 30.1988L90.8793 46.6964C91.2796 46.8245 91.5756 47.1642 91.6478 47.5782C91.7201 47.9922 91.5566 48.4121 91.2235 48.6682L82.5413 55.3436L82.3781 76.7803C82.3754 77.1396 82.2019 77.4762 81.9109 77.6869C81.6198 77.8976 81.2459 77.9574 80.9037 77.8478L29.3861 61.3502C20.7839 58.5955 16.0435 49.3889 18.7982 40.7866ZM38.6726 32.3509C31.259 29.9768 23.3245 34.0622 20.9504 41.4758C18.5763 48.8894 22.6616 56.8239 30.0753 59.198L80.1301 75.2272L80.2857 54.7752C80.2884 54.4273 80.4511 54.1001 80.7269 53.8881L88.1367 48.1909L38.6726 32.3509Z" fill="black"/>
<path d="M40.4073 45.557C40.7612 48.2844 38.8372 50.7823 36.1098 51.1362C33.3824 51.4901 30.8846 49.5661 30.5306 46.8387C30.1767 44.1114 32.1007 41.6135 34.8281 41.2595C37.5555 40.9056 40.0533 42.8297 40.4073 45.557Z" fill="black"/>
<path d="M57.8211 51.0609C58.1751 53.7883 56.251 56.2862 53.5237 56.6401C50.7963 56.994 48.2984 55.07 47.9445 52.3426C47.5906 49.6153 49.5146 47.1174 52.242 46.7634C54.9693 46.4095 57.4672 48.3336 57.8211 51.0609Z" fill="black"/>
<path d="M75.2096 56.4887C75.5636 59.216 73.6395 61.7139 70.9122 62.0678C68.1848 62.4218 65.6869 60.4977 65.333 57.7704C64.9791 55.043 66.9031 52.5451 69.6305 52.1912C72.3578 51.8373 74.8557 53.7613 75.2096 56.4887Z" fill="black"/>
<path opacity="0.15" fill-rule="evenodd" clip-rule="evenodd" d="M165.687 69.4265C167.32 66.477 167.99 62.9685 167.353 59.3902C165.88 51.1118 157.975 45.595 149.696 47.0681L96.4381 56.5451L92.8195 67.4022L93.065 67.9265L94.5391 63.5037L147.797 54.0266C156.076 52.5535 163.981 58.0704 165.454 66.3488C165.638 67.3845 165.713 68.4144 165.687 69.4265Z" fill="#B9BDC2"/>
<path fill-rule="evenodd" clip-rule="evenodd" d="M167.862 59.9762C169.445 68.8691 163.518 77.3609 154.626 78.9434L101.368 88.4205C100.864 88.51 100.363 88.2503 100.146 87.7871L91.193 68.6653C91.0702 68.403 91.0528 68.1036 91.1444 67.8289L94.763 56.9718C94.8939 56.5789 95.2293 56.2892 95.637 56.2166L148.895 46.7396C157.788 45.1571 166.28 51.0834 167.862 59.9762ZM154.23 76.7185C161.894 75.3547 167.001 68.0362 165.637 60.3721C164.274 52.708 156.955 47.6006 149.291 48.9644L96.6944 58.3238L93.4309 68.1155L101.825 86.0437L154.23 76.7185Z" fill="black"/>
<path d="M114.028 69.7738C114.382 72.5012 112.458 74.9991 109.731 75.353C107.003 75.7069 104.506 73.7829 104.152 71.0555C103.798 68.3282 105.722 65.8303 108.449 65.4763C111.176 65.1224 113.674 67.0465 114.028 69.7738Z" fill="black"/>
<path d="M133.934 66.2055C134.288 68.9328 132.364 71.4307 129.636 71.7846C126.909 72.1386 124.411 70.2145 124.057 67.4872C123.703 64.7598 125.627 62.2619 128.355 61.908C131.082 61.554 133.58 63.4781 133.934 66.2055Z" fill="black"/>
<path d="M152.388 63.0961C152.742 65.8234 150.818 68.3213 148.091 68.6753C145.363 69.0292 142.865 67.1051 142.511 64.3778C142.157 61.6504 144.082 59.1525 146.809 58.7986C149.536 58.4447 152.034 60.3687 152.388 63.0961Z" fill="black"/>
<path d="M89.6061 104.769C89.6359 105.597 90.1835 106.227 90.8293 106.176C91.4751 106.124 91.9745 105.412 91.9447 104.583C91.915 103.755 91.3674 103.125 90.7216 103.176C90.0758 103.228 89.5764 103.94 89.6061 104.769Z" fill="black"/>
<path d="M66.9469 86.2396C63.7185 87.9076 61.3204 89.7126 61.5906 90.2712C61.8608 90.8298 64.6969 89.9304 67.9253 88.2624C71.1537 86.5944 73.5518 84.7894 73.2816 84.2308C73.0114 83.6722 70.1753 84.5716 66.9469 86.2396Z" fill="black"/>
<path d="M74.2187 96.9051C71.6204 101.706 70.0586 105.911 70.7303 106.298C71.402 106.685 74.0527 103.106 76.651 98.3057C79.2492 93.505 80.811 89.2998 80.1394 88.913C79.4677 88.5262 76.8169 92.1044 74.2187 96.9051Z" fill="black"/>
<path d="M88.3787 93.941C88.6536 96.4854 89.3753 98.5075 89.9906 98.4574C90.6059 98.4073 90.8819 96.304 90.6069 93.7595C90.332 91.215 89.6103 89.193 88.995 89.2431C88.3797 89.2932 88.1038 91.3965 88.3787 93.941Z" fill="black"/>
</svg>
