<svg width="100" height="50" viewBox="0 0 100 50" fill="none" xmlns="http://www.w3.org/2000/svg">
<path opacity="0.5" fill-rule="evenodd" clip-rule="evenodd" d="M70.8045 40.5997L70.3194 34.3855L70.3434 34.2534L77.4073 25.8902C78.3179 24.8122 78.9617 23.5254 79.2849 22.139C79.8741 19.6112 79.3455 17.0749 78.0244 15.0795L81.981 9.83207C82.8332 8.70183 84.418 8.49372 85.5207 9.36724C85.8312 9.61324 86.0815 9.93009 86.2516 10.2926L90.005 18.2913L98.1885 21.254C99.5026 21.7297 100.192 23.2073 99.7274 24.5542C99.5925 24.9457 99.3676 25.2982 99.0717 25.5819L92.8026 31.591L92.5895 40.4076C92.5549 41.8356 91.3975 42.9646 90.0043 42.9292C89.6064 42.9191 89.2164 42.8126 88.8662 42.6184L81.212 38.3742L72.8664 40.8947C72.1414 41.1136 71.3969 40.9834 70.8045 40.5997ZM69.8449 27.2046L73.7193 22.6176C74.1174 22.1463 74.399 21.5836 74.5404 20.9771C74.8626 19.5945 74.4208 18.2078 73.4945 17.2842L68.0811 18.0105C67.6795 18.0643 67.2966 18.2165 66.9645 18.454C65.8216 19.2714 65.5417 20.8837 66.3392 22.0552L69.8449 27.2046Z" fill="#FFE3AC"/>
<path opacity="0.5" fill-rule="evenodd" clip-rule="evenodd" d="M27.2367 40.9526C27.1589 40.9371 27.0817 40.9178 27.0053 40.8947L18.6574 38.3744L11.0055 42.6183C9.77979 43.2981 8.24854 42.8307 7.58533 41.5744C7.39594 41.2156 7.29203 40.816 7.28207 40.4083L7.06672 31.5913L0.79948 25.5815C-0.218217 24.6056 -0.271411 22.9689 0.680668 21.9258C0.957305 21.6227 1.30104 21.3923 1.68285 21.254L9.86438 18.2915L13.6202 10.2921C14.2245 9.00495 15.7324 8.46365 16.9882 9.0831C17.3418 9.25754 17.6509 9.51414 17.8908 9.83249L20.9668 13.9138C17.8894 17.1872 17.7043 22.3864 20.6615 25.8889L27.7552 34.2906L27.2367 40.9526ZM29.2207 28.3857L33.532 22.0556C33.7639 21.7151 33.9125 21.3223 33.965 20.9106C34.1458 19.4942 33.1721 18.1957 31.7903 18.0104L24.8057 17.0738C24.7809 17.0948 24.7563 17.116 24.7321 17.1376C23.1522 18.5424 22.9812 20.9956 24.3501 22.617L29.2207 28.3857Z" fill="#FFE3AC"/>
<path fill-rule="evenodd" clip-rule="evenodd" d="M73.7192 22.6177L65.2864 32.6017L66.3171 45.8044C66.484 47.9428 64.9301 49.8153 62.8464 49.9866C62.2511 50.0355 61.653 49.9392 61.101 49.7056L49.0332 44.598L36.9691 49.7054C35.0366 50.5235 32.8238 49.5791 32.0266 47.5959C31.799 47.0296 31.7051 46.416 31.7526 45.8054L32.7801 32.6017L24.35 22.6171C22.9811 20.9958 23.1521 18.5426 24.732 17.1378C25.191 16.7296 25.7391 16.4408 26.3298 16.2957L38.988 13.1873L45.8145 1.84384C46.9129 0.0185914 49.2452 -0.547245 51.0238 0.580015C51.5246 0.897473 51.9465 1.33046 52.2557 1.84455L59.0785 13.1873L71.7397 16.2957C73.7728 16.7948 75.0266 18.8908 74.5403 20.9772C74.3989 21.5837 74.1173 22.1464 73.7192 22.6177Z" fill="#FFD480"/>
</svg>
