<svg width="184" height="108" viewBox="0 0 184 108" fill="none" xmlns="http://www.w3.org/2000/svg">
<g clip-path="url(#clip0_1131_374398)">
<g opacity="0.7">
<path d="M80.9181 46.7135C81.1368 45.4511 82.3375 44.605 83.5999 44.8237L106.773 48.8384C108.035 49.0571 108.882 50.2577 108.663 51.5202C108.444 52.7826 107.243 53.6287 105.981 53.4099L82.8079 49.3953C81.5455 49.1766 80.6994 47.9759 80.9181 46.7135Z" fill="#E6E6E8"/>
<path opacity="0.05" fill-rule="evenodd" clip-rule="evenodd" d="M55.6446 69.3402L54.7525 74.9604C54.125 78.9134 56.8209 82.6265 60.7739 83.254L110.41 91.1328C114.363 91.7602 118.076 89.0644 118.704 85.1114L123.752 53.3083C123.825 52.8479 123.853 52.3907 123.839 51.9413L121.757 64.3321C121.421 66.3363 118.471 66.1064 118.449 64.0743L107.412 74.2891C101.171 80.0652 92.5858 82.5876 84.2121 81.1057L61.6018 77.1042C57.8794 76.4454 55.3184 73.0501 55.6446 69.3402Z" fill="black"/>
<path fill-rule="evenodd" clip-rule="evenodd" d="M73.9743 23.8631C75.8269 12.1919 86.7901 4.23228 98.4614 6.08486C110.133 7.93745 118.092 18.9007 116.24 30.5719L114.009 44.6221L105.512 43.2733L107.743 29.2231C108.85 22.2447 104.091 15.6896 97.1126 14.5819C90.1342 13.4742 83.5791 18.2334 82.4714 25.2118L81.6388 30.4574L73.1417 29.1086L73.9743 23.8631Z" fill="#B9BDC2"/>
<g style="mix-blend-mode:multiply">
<path d="M68.9155 44.4214C68.7029 45.7607 67.4449 46.674 66.1056 46.4615C64.7663 46.2489 63.8529 44.9908 64.0655 43.6516C64.2781 42.3123 65.5361 41.3989 66.8754 41.6115C68.2147 41.8241 69.1281 43.0821 68.9155 44.4214Z" fill="#B9BDC2"/>
</g>
<path d="M76.2383 45.5855C76.0257 46.9248 74.7676 47.8381 73.4283 47.6255C72.0891 47.413 71.1757 46.1549 71.3883 44.8156C71.6009 43.4763 72.8589 42.563 74.1982 42.7755C75.5375 42.9881 76.4508 44.2462 76.2383 45.5855Z" fill="#E6E6E8"/>
<path fill-rule="evenodd" clip-rule="evenodd" d="M67.7354 39.3711L117.371 47.2498C120.195 47.698 122.121 50.3503 121.672 53.1738L116.624 84.9769C116.176 87.8005 113.524 89.7261 110.7 89.2779L61.0642 81.3991C58.2407 80.951 56.315 78.2987 56.7632 75.4751L60.6304 51.1123L102.908 57.9175C103.472 58.0084 104.004 57.6244 104.094 57.0599C104.185 56.4954 103.801 55.9641 103.237 55.8732L60.955 49.0673L61.8114 43.6721C62.2595 40.8485 64.9118 38.9229 67.7354 39.3711ZM58.8175 49.325L59.7664 43.3474C60.3938 39.3945 64.107 36.6986 68.06 37.3261L117.696 45.2048C121.649 45.8323 124.345 49.5455 123.717 53.4984L118.669 85.3015C118.042 89.2545 114.329 91.9504 110.376 91.3229L60.7396 83.4441C56.7866 82.8167 54.0908 79.1035 54.7182 75.1505L58.5861 50.7832L58.5829 50.7827L58.8175 49.325Z" fill="#B9BDC2"/>
<path fill-rule="evenodd" clip-rule="evenodd" d="M66.5154 61.9314C66.6086 61.3449 67.1597 60.9449 67.7463 61.0382L89.4218 64.484C90.0083 64.5773 90.4083 65.1284 90.315 65.7149C90.2218 66.3015 89.6707 66.7014 89.0841 66.6082L67.4086 63.1624C66.822 63.0691 66.4221 62.518 66.5154 61.9314Z" fill="#E6E6E8"/>
<path fill-rule="evenodd" clip-rule="evenodd" d="M65.3095 68.2029C65.4028 67.6163 65.9539 67.2164 66.5405 67.3097L88.216 70.7555C88.8025 70.8487 89.2025 71.3998 89.1092 71.9864C89.016 72.573 88.4648 72.9729 87.8783 72.8797L66.2028 69.4338C65.6162 69.3406 65.2163 68.7895 65.3095 68.2029Z" fill="#E6E6E8"/>
<path d="M43.8457 33.5108C43.0242 33.4797 42.3609 33.9755 42.3642 34.6182C42.3675 35.2608 43.0362 35.8071 43.8578 35.8382C44.6793 35.8693 45.3426 35.3735 45.3393 34.7309C45.336 34.0882 44.6673 33.542 43.8457 33.5108Z" fill="#B9BDC2"/>
<path d="M63.8363 12.447C62.422 9.13094 60.8115 6.62632 60.2391 6.8528C59.6667 7.07927 60.3492 9.95109 61.7634 13.2672C63.1777 16.5833 64.7882 19.0879 65.3606 18.8614C65.933 18.6349 65.2506 15.7631 63.8363 12.447Z" fill="#B9BDC2"/>
<path d="M52.7505 18.8627C48.1907 15.941 44.1442 14.0884 43.7125 14.7246C43.2807 15.3609 46.6271 18.2452 51.187 21.1669C55.7468 24.0885 59.7933 25.9412 60.225 25.305C60.6568 24.6687 57.3103 21.7844 52.7505 18.8627Z" fill="#B9BDC2"/>
<path d="M54.6498 33.0882C52.1122 33.1742 50.0588 33.7404 50.0634 34.3528C50.068 34.9653 52.1289 35.392 54.6664 35.3061C57.204 35.2201 59.2574 34.6539 59.2528 34.0415C59.2482 33.429 57.1874 33.0022 54.6498 33.0882Z" fill="#B9BDC2"/>
<path d="M123.309 95.2385L109.273 96.2429C105.934 96.4818 103.586 93.0203 105.048 90.0071L111.202 77.3483L117.357 64.6894C118.819 61.6762 122.999 61.3771 124.875 64.1514L132.769 75.8049L140.663 87.4585C142.54 90.2328 140.709 93.9933 137.37 94.2323L123.309 95.2385Z" fill="white"/>
<path fill-rule="evenodd" clip-rule="evenodd" d="M123.985 64.7536C122.572 62.6653 119.425 62.8905 118.324 65.1587L106.016 90.4764C104.916 92.7435 106.682 95.3498 109.196 95.1699L137.293 93.1593C139.808 92.9794 141.185 90.1482 139.773 88.0608L123.985 64.7536ZM125.766 63.5486C123.426 60.0885 118.214 60.4613 116.389 64.2189L125.766 63.5486ZM116.389 64.2189L104.081 89.5366C102.256 93.2958 105.187 97.6132 109.35 97.3153L137.446 95.3047C141.609 95.0068 143.895 90.3168 141.554 86.8557L125.766 63.5486" fill="#B9BDC2"/>
<path d="M122.484 83.533C121.328 83.6157 120.325 82.7464 120.242 81.5906L119.678 73.7053C119.595 72.5496 120.464 71.5463 121.62 71.4636C122.776 71.3809 123.779 72.2502 123.862 73.4059L124.426 81.2912C124.508 82.4323 123.639 83.4503 122.484 83.533Z" fill="#B9BDC2"/>
<path d="M122.872 88.9601C124.027 88.8775 124.897 87.8738 124.814 86.7184C124.732 85.563 123.728 84.6934 122.573 84.7761C121.417 84.8588 120.548 85.8624 120.63 87.0178C120.713 88.1732 121.717 89.0428 122.872 88.9601Z" fill="#B9BDC2"/>
</g>    
</g>
<defs>
<clipPath id="clip0_1131_374398">
<rect width="134.4" height="108" fill="white" transform="translate(25)"/>
</clipPath>
</defs>
</svg>
