<svg width="229" height="160" viewBox="0 0 229 160" fill="none" xmlns="http://www.w3.org/2000/svg">
<path d="M92.3621 134.856L178.566 147.27L113.272 127.799L92.3621 134.856Z" fill="#85BEFF"/>
<path opacity="0.8" d="M78.9225 130.355C76.0017 144.714 61.3489 157.446 44.1186 157.472C22.7845 157.505 -5.33258 135.153 0.875195 114.742C6.84194 95.1233 38.6837 92.7005 53.0429 95.6214C67.402 98.5422 81.8434 115.996 78.9225 130.355Z" fill="#E3F1FF"/>
<path opacity="0.8" d="M105.105 152.031C104.287 156.052 100.183 159.618 95.3578 159.626C89.3827 159.635 81.508 153.374 83.2466 147.658C84.9177 142.163 93.8356 141.485 97.8572 142.303C101.879 143.121 105.923 148.009 105.105 152.031Z" fill="#E3F1FF"/>
<path opacity="0.8" d="M144.367 94.9681C120.224 103.894 80.5538 94.5404 81.9502 45.9384C83.816 -18.9982 153.062 -0.512968 185.631 14.2802C232.977 35.7854 240.007 77.3561 213.251 80.7619C186.495 84.1677 168.509 86.0425 144.367 94.9681Z" fill="#E3F1FF"/>
<rect x="16.5165" y="54.0311" width="98.5673" height="98.5673" rx="9.84273" transform="rotate(-16.8092 16.5165 54.0311)" fill="#C2EAFF" stroke="#034EA6" stroke-width="1.66894"/>
<rect x="23.3656" y="57.5721" width="87.9664" height="87.9664" rx="7.70729" transform="rotate(-16.8092 23.3656 57.5721)" fill="white" stroke="#034EA6" stroke-width="1.66894"/>
<rect x="31.5061" y="62.4668" width="74.5308" height="74.5308" rx="16.0189" transform="rotate(-16.9356 31.5061 62.4668)" fill="#C2EAFF"/>
<path fill-rule="evenodd" clip-rule="evenodd" d="M47.5521 115.168L48.6446 118.756C51.2217 127.22 60.1717 131.991 68.6351 129.414L109.285 117.036C117.749 114.459 122.52 105.509 119.943 97.0457L107.565 56.3955C107.347 55.6776 107.082 54.9863 106.776 54.3238L118.062 91.3862C120.639 99.8495 115.867 108.8 107.404 111.377L66.7534 123.755C59.008 126.113 50.8548 122.317 47.5521 115.168Z" fill="#0077FF" fill-opacity="0.24"/>
<path fill-rule="evenodd" clip-rule="evenodd" d="M108.611 59.6539L107.527 56.0633C104.968 47.5943 96.0286 42.8029 87.5596 45.3613L46.8822 57.6497C38.4132 60.2081 33.6218 69.1476 36.1802 77.6166L48.4686 118.294C48.6855 119.012 48.9484 119.704 49.2529 120.367L38.0493 83.2801C35.4908 74.8112 40.2823 65.8717 48.7513 63.3132L89.4287 51.0249C97.1795 48.6834 105.324 52.4981 108.611 59.6539Z" fill="white"/>
<rect x="31.6206" y="62.6035" width="74.5308" height="74.5308" rx="16.0189" transform="rotate(-16.9356 31.6206 62.6035)" stroke="#034EA6" stroke-width="1.88458" stroke-miterlimit="10" stroke-linecap="round" stroke-linejoin="round"/>
<path d="M114.049 80.5413L44.4254 101.237" stroke="#034EA6" stroke-width="1.88458" stroke-miterlimit="10" stroke-linejoin="round"/>
<path d="M111.782 73.2278L42.1583 93.9237" stroke="#034EA6" stroke-width="1.88458" stroke-miterlimit="10" stroke-linejoin="round"/>
<path d="M72.2356 68.3189C85.488 64.2835 99.5085 71.7586 103.544 85.011C107.579 98.2634 100.104 112.284 86.8518 116.319C73.5994 120.355 59.5788 112.88 55.5434 99.6272C51.5081 86.3748 58.9589 72.3616 72.2356 68.3189Z" fill="#C2EAFF"/>
<path d="M71.0683 64.4059C83.9804 60.4742 97.6409 67.7573 101.573 80.6695C105.504 93.5816 98.2213 107.242 85.3092 111.174C72.3971 115.106 58.7365 107.822 54.8048 94.9103C50.873 81.9982 58.1325 68.3449 71.0683 64.4059Z" fill="#C2EAFF"/>
<path d="M70.9303 64.3346C83.8425 60.4029 97.503 67.686 101.435 80.5982C105.366 93.5103 98.0833 107.171 85.1712 111.103C72.2591 115.034 58.5986 107.751 54.6668 94.839C50.7351 81.9269 57.9945 68.2736 70.9303 64.3346Z" fill="white" stroke="#034EA6" stroke-width="1.88458" stroke-miterlimit="10" stroke-linecap="round" stroke-linejoin="round"/>
<path d="M72.9082 70.4477C82.4798 67.5331 92.617 72.9378 95.5316 82.5094C98.4461 92.0809 93.0414 102.218 83.4699 105.133C73.8983 108.047 63.7611 102.643 60.8465 93.071C57.9083 83.5067 63.313 73.3694 72.9082 70.4477Z" stroke="#85BEFF" stroke-width="3.76915" stroke-miterlimit="10" stroke-linecap="round" stroke-linejoin="round"/>
<path d="M77.3846 76.903L72.7646 78.3097C72.196 78.4829 71.8737 79.1247 72.0211 79.7788L72.0427 79.8499L73.5144 84.6831C73.5721 84.8726 73.6937 85.0168 73.8318 85.1301L73.8936 85.163L74.8115 85.712C75.1659 85.9406 75.3267 86.3835 75.1907 86.7874L75.1578 86.8492L74.7016 87.8165C74.6264 87.9948 74.6058 88.1822 74.6399 88.379L74.6615 88.4501L77.5111 97.8084C77.7059 98.4481 78.3148 98.8322 78.8978 98.7065L78.9689 98.6848L83.5888 97.2781C84.1574 97.1049 84.4797 96.4631 84.3323 95.809L84.3107 95.7379L82.9472 91.2601C82.8895 91.0706 82.7607 90.9027 82.6227 90.7894L82.5608 90.7565L81.6429 90.2075C81.2885 89.9789 81.1278 89.5359 81.2637 89.1321L81.2966 89.0703L81.7529 88.103C81.828 87.9247 81.8486 87.7372 81.8146 87.5405L81.7929 87.4694L78.8351 77.7557C78.6403 77.116 77.9769 76.7226 77.3846 76.903Z" fill="#034EA6"/>
<rect x="118.168" y="26.6774" width="88.0624" height="98.5673" rx="13.0459" transform="rotate(15.969 118.168 26.6774)" fill="#DCEDFF" stroke="#85BEFF" stroke-width="1.66894"/>
<rect x="129.011" y="29.8473" width="88.0624" height="98.5673" rx="10.9104" transform="rotate(15.969 129.011 29.8473)" fill="white" stroke="#85BEFF" stroke-width="1.66894"/>
<rect x="131.832" y="35.2246" width="79.6563" height="90.5514" rx="9" transform="rotate(15.969 131.832 35.2246)" stroke="#85BEFF" stroke-width="1.66894" stroke-linecap="round" stroke-linejoin="round" stroke-dasharray="3.34 5"/>
</svg>
