<svg width="184" height="124" viewBox="0 0 184 124" fill="none" xmlns="http://www.w3.org/2000/svg">
<g clip-path="url(#clip0_1131_359943)">
<path opacity="0.4" fill-rule="evenodd" clip-rule="evenodd" d="M47.8907 95.5139L64.2161 63.8965L87.1081 106.784C74.258 105.888 67.2327 106.787 58.3921 108.869L58.8333 109.43C57.8313 109.416 56.7417 109.457 55.576 109.554C53.9676 109.955 52.2812 110.39 50.4773 110.855C46.9903 111.754 43.0641 112.767 38.4132 113.869L38.7458 113.225C31.3147 115.61 23.2293 119.064 15.6766 123.435L38.7586 83.9002L47.8907 95.5139Z" fill="#E6E6E8"/>
<path opacity="0.4" fill-rule="evenodd" clip-rule="evenodd" d="M147.503 103.636L137.88 72.3609L125.688 110.116C133.862 110.116 137.507 111.414 144.157 113.837L144.056 114.146C144.802 114.349 145.497 114.533 146.155 114.708C146.708 114.855 147.234 114.995 147.742 115.132C148.876 115.535 150.099 115.961 151.433 116.409L151.366 116.192C154.244 117.132 157.151 118.388 161.973 121.006L152.168 89.4117L147.503 103.636Z" fill="#E6E6E8"/>
<path d="M91.9548 7.8386C91.9548 7.8386 89.1236 5.02567 83.9098 8.9636C78.696 12.9015 75.8647 12.1136 74.3752 10.8012L77.5412 18.1132C77.5412 18.1132 79.329 20.8876 83.1646 18.6376C87.0001 16.3877 90.8001 18.2253 91.9548 20.2126V7.8386Z" fill="#F4512A"/>
<circle cx="65.8669" cy="59.5025" r="13.4461" transform="rotate(88.1568 65.8669 59.5025)" fill="white"/>
<path d="M138.208 112.621C140.401 108.956 141.543 104.611 141.248 100.026C140.472 87.9972 130.092 78.8746 118.063 79.6501C106.035 80.4256 96.912 90.8055 97.6875 102.834C97.7697 104.11 97.96 105.353 98.2488 106.555C114.147 106.843 128.581 109.971 138.208 112.621Z" fill="white"/>
<path d="M63.3076 108.904C63.5749 107.768 63.5124 106.542 63.0558 105.373C61.8577 102.306 58.4 100.791 55.3328 101.989C52.2657 103.187 50.7505 106.645 51.9487 109.712C52.0757 110.037 52.2282 110.345 52.403 110.634C56.5656 109.392 60.5819 109.011 63.3076 108.904Z" fill="#E6E6E8"/>
<path d="M86.2768 76.8889C88.584 66.314 87.2381 52.6202 86.2768 48.4544C89.5453 45.7625 104.773 50.5169 109.259 51.6385L119.594 108.598C100.367 102.83 73.5361 105.491 62.7209 107.894L64.797 97.0623C72.8082 94.8993 83.9696 87.4637 86.2768 76.8889Z" fill="white"/>
<path d="M91.4166 77.9739C89.1094 67.399 89.4825 54.307 90.4439 50.1411C87.1753 47.4493 78.3582 51.1361 73.8719 52.2577L63.5374 109.218C82.7643 103.45 109.595 106.11 120.41 108.513L118.334 97.6815C110.323 95.5185 93.7238 88.5487 91.4166 77.9739Z" fill="#F8F8F9"/>
<path d="M63.1405 108.599L73.1866 53.952M109.996 53.9512L119.915 108.048" stroke="#E6E6E8" stroke-width="2" stroke-miterlimit="10" stroke-linecap="round" stroke-linejoin="round"/>
<path d="M91.9548 23.9185L91.9548 4.93359" stroke="#B9BDC2" stroke-width="2" stroke-linecap="round" stroke-linejoin="round"/>
<path fill-rule="evenodd" clip-rule="evenodd" d="M95.2047 89.2449C98.2382 87.8691 100.348 84.8141 100.348 81.2662C100.348 76.4302 96.4277 72.5098 91.5917 72.5098C86.7556 72.5098 82.8352 76.4302 82.8352 81.2662C82.8352 84.8142 84.9453 87.8693 87.979 89.2451L83.5643 106.739L92.7128 106.739H99.6194L95.2047 89.2449Z" fill="#B9BDC2"/>
<path d="M166.152 123.437C150.069 113.376 122.486 106.74 91.1574 106.74C59.8291 106.74 32.2453 113.376 16.163 123.437" stroke="#E6E6E8" stroke-width="2" stroke-miterlimit="10" stroke-linecap="round" stroke-linejoin="round"/>
<path d="M109.633 53.9506C105.764 51.7301 99.1282 50.2656 91.5917 50.2656C84.0553 50.2656 77.4196 51.7301 73.5508 53.9506" stroke="#E6E6E8" stroke-width="2.13189" stroke-miterlimit="10" stroke-linecap="round" stroke-linejoin="round"/>
<path d="M91.9395 22.3429C89.3841 22.2773 85.1677 22.8747 83.3378 23.3826C82.9349 23.4945 82.6892 23.8712 82.6892 24.2894V29.8786C82.6892 30.396 82.3176 30.8387 81.808 30.9284L77.1327 31.7516C76.4801 31.8665 75.8819 31.3644 75.8819 30.7018V27.5027C75.8819 26.7876 75.191 26.2754 74.5141 26.5059C71.9754 27.3702 69.9083 28.3549 68.9576 29.123C68.791 29.2576 68.6911 29.4528 68.6505 29.6632L65.8668 44.0991C71.4685 40.6793 81.0286 38.6802 91.9395 38.6781C102.84 38.6836 111.898 41.179 118.072 44.0595L115.205 29.6593C115.164 29.4514 115.064 29.2585 114.899 29.1252C113.95 28.3568 111.881 27.371 109.34 26.5059C108.663 26.2754 107.972 26.7876 107.972 27.5027V30.7018C107.972 31.3644 107.374 31.8664 106.722 31.7516L102.046 30.9284C101.537 30.8387 101.165 30.396 101.165 29.8786V24.2894C101.165 23.8712 100.919 23.4944 100.517 23.3823C98.691 22.8744 94.4943 22.2772 91.9395 22.3429Z" fill="#E6E6E8"/>
<path d="M65.8209 44.045L72.2498 53.9355C72.8203 54.813 73.9429 55.1407 74.9165 54.7567C88.6701 49.3329 102.003 52.0656 108.468 54.7029C109.449 55.103 110.595 54.8131 111.2 53.9435L118.089 44.045C102.946 35.6831 77.1385 36.6346 65.8209 44.045Z" fill="#B9BDC2"/>
<path d="M82.5327 63.7688C83.7081 63.7006 84.6057 62.6923 84.5374 61.5169C84.4691 60.3415 83.4609 59.4439 82.2854 59.5122L82.5327 63.7688ZM71.9875 66.0119C73.0242 65.6663 77.5641 64.0574 82.5327 63.7688L82.2854 59.5122C76.677 59.838 71.6333 61.6355 70.6392 61.9669L71.9875 66.0119Z" fill="#E6E6E8"/>
<path d="M74.8361 85.0088C76.1493 84.8356 77.0736 83.6307 76.9004 82.3175C76.7273 81.0043 75.5224 80.08 74.2092 80.2531L74.8361 85.0088ZM67.4568 85.8494C69.0541 85.8494 70.9408 85.5223 74.8361 85.0088L74.2092 80.2531C69.9541 80.8141 68.6354 81.0526 67.4568 81.0526V85.8494Z" fill="#E6E6E8"/>
<path d="M107.003 98.1112C105.533 98.0391 104.4 96.7889 104.472 95.3189C104.544 93.8489 105.794 92.7158 107.264 92.7879L107.003 98.1112ZM117.416 99.7303C117.135 99.7079 116.813 99.6371 116.676 99.6077C116.469 99.5633 116.201 99.5025 115.914 99.438C115.325 99.3056 114.557 99.135 113.649 98.9585C111.826 98.6041 109.476 98.2326 107.003 98.1112L107.264 92.7879C110.082 92.9262 112.702 93.3449 114.666 93.7267C115.651 93.9183 116.48 94.1023 117.083 94.238C117.393 94.3076 117.62 94.3593 117.794 94.3965C118.037 94.4487 117.982 94.4288 117.839 94.4174L117.416 99.7303Z" fill="#E6E6E8"/>
<path d="M105.332 69.6779C104.158 69.5909 103.277 68.5685 103.364 67.3943C103.451 66.2201 104.473 65.3388 105.647 65.4258L105.332 69.6779ZM112.477 70.8457C111.67 70.6418 108.8 69.9348 105.332 69.6779L105.647 65.4258C109.48 65.7097 112.628 66.4863 113.521 66.7118L112.477 70.8457Z" fill="#E6E6E8"/>
<circle cx="46.4158" cy="41.2123" r="5.40834" transform="rotate(88.1568 46.4158 41.2123)" fill="white"/>
<rect width="35.1781" height="34.2273" transform="translate(148.563 39.1484)" fill="black" fill-opacity="0.01"/>
<path fill-rule="evenodd" clip-rule="evenodd" d="M162.104 41.5196L149.101 65.4167C147.486 68.3845 149.698 71.9578 153.149 71.9578H179.155C182.606 71.9578 184.817 68.3845 183.202 65.4167L170.199 41.5196C168.479 38.3581 163.824 38.358 162.104 41.5196ZM163.862 50.2464C163.862 49.0489 164.833 48.0782 166.03 48.0782H166.274C167.471 48.0782 168.442 49.0489 168.442 50.2464V58.173C168.442 59.3705 167.471 60.3413 166.274 60.3413H166.03C164.833 60.3413 163.862 59.3705 163.862 58.173V50.2464ZM166.03 62.5606C164.833 62.5606 163.862 63.5313 163.862 64.7288V64.8485C163.862 66.046 164.833 67.0167 166.03 67.0167H166.274C167.471 67.0167 168.442 66.046 168.442 64.8485V64.7288C168.442 63.5313 167.471 62.5606 166.274 62.5606H166.03Z" fill="#E6E6E8"/>
<g opacity="0.8">
<path fill-rule="evenodd" clip-rule="evenodd" d="M19.3748 54.4515C24.4487 54.421 28.5382 50.1184 28.5089 44.8415C28.4796 39.5645 24.3425 35.3115 19.2686 35.342C14.1946 35.3725 10.1051 39.675 10.1344 44.9519C10.139 45.7665 10.2414 46.5567 10.43 47.3106L0 58.2839L0.0253004 62.8365L2.27315 65.1712L5.78414 65.1501L5.7604 60.9118L10.4463 60.8836L10.4227 56.6453L14.8084 56.619L17.1173 54.1749C17.8401 54.36 18.5964 54.4561 19.3748 54.4515ZM21.8084 44.6161C23.0417 44.6087 24.0357 43.5629 24.0285 42.2803C24.0214 40.9977 23.0159 39.964 21.7826 39.9714C20.5494 39.9788 19.5554 41.0245 19.5625 42.3071C19.5696 43.5897 20.5752 44.6235 21.8084 44.6161Z" fill="#E6E6E8"/>
<path d="M32.3257 52.8009C32.3141 50.7095 31.5593 48.7934 30.3091 47.2936C30.165 53.0633 25.3825 57.7154 19.4768 57.7509C18.9527 57.7541 18.4361 57.7206 17.9299 57.6529L15.8357 59.7374L12.7712 59.7558L12.7928 63.6463L8.24621 63.6736L8.26783 67.564L4.674 67.5856L4.68368 69.3282L6.86403 71.4706L10.2704 71.4502L10.2488 67.5597L14.7954 67.5324L14.7738 63.6419L18.9987 63.6165L21.2569 61.3688C21.9621 61.5406 22.7004 61.6297 23.4603 61.6252C28.3834 61.5956 32.3526 57.6448 32.3257 52.8009Z" fill="#E6E6E8"/>
</g>
<g opacity="0.5">
<path d="M139.203 1C137.775 1 136.617 2.15771 136.617 3.58582C136.617 5.01392 137.775 6.17163 139.203 6.17163C140.292 6.17163 141.371 6.38621 142.377 6.80312C143.384 7.22003 144.298 7.83111 145.069 8.60146C145.839 9.37181 146.45 10.2863 146.867 11.2929C147.284 12.2994 147.499 13.3781 147.499 14.4676C147.499 15.8957 148.656 17.0534 150.085 17.0534C151.513 17.0534 152.67 15.8957 152.67 14.4676C152.67 12.699 152.322 10.9477 151.645 9.31376C150.968 7.6798 149.976 6.19514 148.726 4.94456C147.475 3.69398 145.99 2.70197 144.357 2.02516C142.723 1.34835 140.971 1 139.203 1Z" fill="#E6E6E8"/>
<path d="M133.228 8.29285C133.827 7.71356 133.842 6.75862 133.263 6.15995C132.684 5.56127 131.729 5.54556 131.13 6.12486C130.013 7.20538 129.125 8.49909 128.517 9.92931C127.91 11.3595 127.596 12.8971 127.594 14.451C127.591 16.0049 127.901 17.5434 128.505 18.9753C129.108 20.4073 129.993 21.7035 131.106 22.7872C132.22 23.871 133.54 24.7201 134.987 25.2843C136.435 25.8486 137.982 26.1164 139.535 26.072C141.088 26.0275 142.617 25.6717 144.03 25.0257C145.443 24.3796 146.712 23.4564 147.762 22.3107C148.325 21.6966 148.283 20.7424 147.669 20.1796C147.055 19.6168 146.1 19.6584 145.538 20.2726C144.761 21.1205 143.821 21.8038 142.775 22.282C141.729 22.7602 140.598 23.0235 139.449 23.0564C138.299 23.0893 137.154 22.8911 136.083 22.4735C135.011 22.0559 134.034 21.4274 133.21 20.6253C132.386 19.8232 131.731 18.8638 131.285 17.8039C130.838 16.7441 130.609 15.6054 130.61 14.4553C130.612 13.3052 130.845 12.1672 131.294 11.1087C131.744 10.0501 132.401 9.09259 133.228 8.29285Z" fill="#E6E6E8"/>
</g>
</g>
<defs>
<clipPath id="clip0_1131_359943">
<rect width="184" height="124" fill="white"/>
</clipPath>
</defs>
</svg>
