<svg width="184" height="124" viewBox="0 0 184 124" fill="none" xmlns="http://www.w3.org/2000/svg">
<g opacity="0.5">
<path d="M55.0551 65.6932C53.9201 57.9365 59.288 50.7283 67.0447 49.5933L109.121 43.4365C116.877 42.3015 124.086 47.6694 125.221 55.4261L129.719 86.1689C130.854 93.9256 125.486 101.134 117.729 102.269L75.6534 108.426C67.8967 109.561 60.6886 104.193 59.5536 96.4359L55.0551 65.6932Z" fill="#333333"/>
<path opacity="0.6" fill-rule="evenodd" clip-rule="evenodd" d="M63.5508 38.7905C61.6798 26.0041 70.5285 14.1219 83.3149 12.251C96.1013 10.38 107.983 19.2287 109.854 32.0151L111.46 42.9887L101.941 44.3816L100.335 33.408C99.2333 25.8791 92.2368 20.6688 84.7079 21.7705C77.1789 22.8721 71.9686 29.8686 73.0703 37.3976L74.676 48.3712L65.1565 49.7641L63.5508 38.7905Z" fill="black"/>
<path fill-rule="evenodd" clip-rule="evenodd" d="M109.695 45.6797L67.6186 51.8365C61.1762 52.7792 56.7179 58.7659 57.6606 65.2082L62.159 95.951C63.1017 102.393 69.0885 106.852 75.5308 105.909L117.607 99.7521C124.049 98.8095 128.507 92.8227 127.565 86.3804L123.066 55.6377C122.124 49.1953 116.137 44.737 109.695 45.6797ZM67.2703 49.4566C59.5136 50.5916 54.1457 57.7998 55.2807 65.5565L59.7792 96.2992C60.9142 104.056 68.1223 109.424 75.879 108.289L117.955 102.132C125.712 100.997 131.08 93.7888 129.945 86.0322L125.446 55.2894C124.311 47.5327 117.103 42.1648 109.346 43.2998L67.2703 49.4566Z" fill="black"/>
<path d="M111.279 73.0641C112.743 83.0707 105.818 92.3696 95.8116 93.8339C85.805 95.2981 76.5061 88.3731 75.0418 78.3666C73.5776 68.36 80.5026 59.0611 90.5091 57.5968C100.516 56.1326 109.815 63.0576 111.279 73.0641Z" fill="white" fill-opacity="0.35"/>
<path opacity="0.5" fill-rule="evenodd" clip-rule="evenodd" d="M55.2769 65.5312C55.2782 65.5405 55.2796 65.5498 55.2809 65.5591L59.7794 96.3018C60.9144 104.059 68.1226 109.426 75.8792 108.291L117.955 102.135C125.712 101 131.08 93.7915 129.945 86.0348L129.075 80.0917C130.192 87.8372 124.828 95.0286 117.081 96.1621L75.0053 102.319C67.2487 103.454 60.0405 98.086 58.9055 90.3293L55.2769 65.5312Z" fill="black"/>
<path fill-rule="evenodd" clip-rule="evenodd" d="M76.7121 86.2543C77.2201 85.8264 77.9787 85.8913 78.4066 86.3993C82.3522 91.0837 88.5546 93.6764 95.055 92.7252C105.048 91.263 111.964 81.9764 110.502 71.9832C110.406 71.326 110.86 70.7153 111.517 70.6191C112.175 70.5229 112.785 70.9777 112.882 71.6349C114.536 82.9426 106.711 93.4505 95.4032 95.1051C88.045 96.1818 81.0265 93.2433 76.567 87.9488C76.1391 87.4408 76.2041 86.6821 76.7121 86.2543Z" fill="black"/>
<path d="M111.155 68.1416L116.4 74.7775L108.031 76.0021L111.155 68.1416Z" fill="black"/>
<path fill-rule="evenodd" clip-rule="evenodd" d="M109.054 65.1754C108.546 65.6033 107.787 65.5384 107.359 65.0304C103.414 60.346 97.2113 57.7533 90.7109 58.7044C80.7176 60.1667 73.8019 69.4533 75.2642 79.4465C75.3604 80.1037 74.9056 80.7144 74.2484 80.8106C73.5912 80.9067 72.9805 80.4519 72.8843 79.7948C71.2297 68.4871 79.055 57.9792 90.3627 56.3246C97.7208 55.2479 104.739 58.1864 109.199 63.4809C109.627 63.9889 109.562 64.7475 109.054 65.1754Z" fill="black"/>
<path d="M74.6109 83.2862L69.3655 76.6503L77.735 75.4256L74.6109 83.2862Z" fill="black"/>
<path fill-rule="evenodd" clip-rule="evenodd" d="M96.0521 77.1846C97.4223 76.0707 98.1881 74.2842 97.9139 72.4099C97.4995 69.5782 94.8681 67.6186 92.0364 68.033C89.2047 68.4473 87.2451 71.0787 87.6594 73.9104C87.9337 75.7846 89.1791 77.2768 90.8111 77.9515L91.6216 83.4908C91.7162 84.1372 92.3169 84.5845 92.9633 84.4899L95.8635 84.0655C96.5099 83.9709 96.9572 83.3703 96.8626 82.7239L96.0521 77.1846Z" fill="black"/>
</g>
</svg>
