<svg width="560" height="180" viewBox="0 0 560 180" fill="none" xmlns="http://www.w3.org/2000/svg">
<path opacity="0.05" d="M177.611 133.951C146.333 144.305 95.9959 130.59 99.925 68.4767C105.175 -14.5129 192.945 12.1877 233.957 32.5481C293.578 62.1466 300.738 115.637 266.359 118.814C231.981 121.992 208.89 123.597 177.611 133.951Z" fill="white"/>
<path opacity="0.05" d="M461.724 127.511C453.847 142.658 435.127 153.145 418.356 148.968C397.59 143.796 378.075 112.243 391.272 91.213C403.957 70.9995 435.783 76.0962 448.728 82.8276C461.672 89.5591 469.601 112.363 461.724 127.511Z" fill="white"/>
<path opacity="0.05" d="M103.518 139.502C100.583 145.147 92.9439 148.711 85.7476 146.663C76.8375 144.126 67.7711 131.434 72.8023 123.655C77.6382 116.178 91.2207 118.973 96.8661 121.908C102.511 124.844 106.454 133.857 103.518 139.502Z" fill="white"/>
<rect x="175.582" y="18.5576" width="208.219" height="142.245" rx="10" fill="#333333"/>
<path d="M175.583 29.1973C175.583 23.6744 180.06 19.1973 185.583 19.1973H373.802C379.325 19.1973 383.802 23.6744 383.802 29.1973V42.7363H175.583V29.1973Z" fill="#6C6C6C"/>
<path d="M175.583 29.1973C175.583 23.6744 180.06 19.1973 185.583 19.1973H373.802C379.325 19.1973 383.802 23.6744 383.802 29.1973V42.7363H175.583V29.1973Z" stroke="black" stroke-width="2.5" stroke-miterlimit="10" stroke-linecap="round" stroke-linejoin="round"/>
<path fill-rule="evenodd" clip-rule="evenodd" d="M383.802 144.504V151.442C383.802 156.965 379.325 161.442 373.802 161.442H185.582C180.06 161.442 175.582 156.965 175.582 151.442V144.504C175.582 150.027 180.06 154.504 185.582 154.504H373.802C379.325 154.504 383.802 150.027 383.802 144.504Z" fill="#262626"/>
<path fill-rule="evenodd" clip-rule="evenodd" d="M175.582 36.1357V29.1976C175.582 23.6748 180.059 19.1976 185.582 19.1976L373.801 19.1976C379.324 19.1976 383.801 23.6748 383.801 29.1976V36.1357C383.801 30.6129 379.324 26.1357 373.801 26.1357L185.582 26.1357C180.059 26.1357 175.582 30.6129 175.582 36.1357Z" fill="white" fill-opacity="0.12"/>
<rect x="175.582" y="19.1973" width="208.219" height="142.245" rx="10" stroke="black" stroke-width="2.5" stroke-miterlimit="10" stroke-linecap="round" stroke-linejoin="round"/>
<circle cx="191.586" cy="31.7258" r="4.4104" fill="black"/>
<circle cx="206.913" cy="31.7258" r="4.4104" fill="black"/>
<path fill-rule="evenodd" clip-rule="evenodd" d="M323.555 99.9429C323.484 124.928 303.172 145.125 278.188 145.053C253.204 144.982 233.009 124.67 233.08 99.6851C233.151 74.7003 253.462 54.504 278.446 54.5752C303.43 54.6464 323.626 74.958 323.555 99.9429Z" fill="#85BEFF"/>
<path d="M255.928 59.6193C255.928 59.6193 252.237 64.8712 255.928 66.6214C259.618 68.3717 256.601 71.0314 253.338 72.082C250.075 73.1327 244.49 72.7487 243.01 79.5698C241.531 86.391 241.588 94.2125 244.563 91.1031C247.539 87.9936 248.064 83.2217 250.596 83.6763C253.128 84.1309 253.342 88.9904 252.631 93.674C251.92 98.3576 261.836 102.306 260.079 105.493C258.322 108.679 254.918 110.822 258.065 113.57C261.212 116.318 261.3 125.309 253.338 127.809C245.376 130.309 250.596 135.497 250.596 135.497C250.596 135.497 265.451 151.45 283.688 140.734C283.688 140.734 282.81 130.581 280.144 129.316C277.478 128.052 275.369 124.041 274.365 119.29C273.362 114.539 270.401 110.177 272.323 109.307C274.246 108.437 276.627 101.288 274.577 100.316C272.528 99.3442 266.245 104.651 265.745 99.8933C265.245 95.1356 267.332 93.6234 268.56 91.4409C269.788 89.2583 273.475 86.2405 278.5 88.8783C283.526 91.5161 287.433 98.5479 290 96.4652C293.754 93.4176 291.651 84.7659 295.615 87.7167C299.002 90.2006 304.627 91.4813 308.814 87.9457C308.821 87.9491 309.703 39.7172 255.928 59.6193Z" fill="#F7F7F7"/>
<path fill-rule="evenodd" clip-rule="evenodd" d="M323.556 99.9429C323.485 124.928 303.173 145.125 278.189 145.053C253.206 144.982 233.01 124.67 233.081 99.6851C233.152 74.7003 253.464 54.504 278.447 54.5752C303.431 54.6464 323.627 74.958 323.556 99.9429Z" stroke="black" stroke-width="2.5" stroke-linecap="round"/>
<path d="M243.6 71.877L313.199 72.0753" stroke="black" stroke-width="2.5" stroke-linecap="round"/>
<path d="M243.441 127.555L313.04 127.753" stroke="black" stroke-width="2.5" stroke-linecap="round"/>
<path d="M278.448 54.5753C278.448 54.5753 254.053 67.0297 253.96 99.745C253.911 116.829 261.558 136.771 278.19 145.054" stroke="black" stroke-width="2.5" stroke-linecap="round"/>
<path d="M278.448 54.5752C278.448 54.5752 302.772 67.1684 302.679 99.8838C302.63 116.968 294.869 136.866 278.191 145.053" stroke="black" stroke-width="2.5" stroke-linecap="round"/>
<path d="M278.448 54.5752L278.191 145.053" stroke="black" stroke-width="2.5" stroke-linecap="round"/>
<path d="M184.237 161.442C197.591 153.48 206.913 135.414 206.913 114.403L130.959 114.403C130.959 135.414 140.281 153.48 153.635 161.442H184.237Z" fill="#6C6C6C"/>
<path fill-rule="evenodd" clip-rule="evenodd" d="M201.482 139.687C197.455 148.721 191.431 155.943 184.237 160.232H153.635C140.281 152.27 130.959 134.204 130.959 113.193L138.077 113.193C138.144 134.85 154.471 152.383 174.603 152.383C185.235 152.383 194.807 147.493 201.482 139.687Z" fill="#333333"/>
<path d="M184.237 161.442C197.591 153.48 206.913 135.414 206.913 114.403L130.959 114.403C130.959 135.414 140.281 153.48 153.635 161.442H184.237Z" stroke="black" stroke-width="2.5" stroke-miterlimit="10" stroke-linecap="round" stroke-linejoin="round"/>
<path d="M130.856 119.977C124.996 118.157 113.546 117.793 114.628 130.896C115.71 143.999 135.252 152.007 144.887 154.373" stroke="black" stroke-width="2.5" stroke-miterlimit="10" stroke-linecap="round" stroke-linejoin="round"/>
<path d="M149.259 104.399C149.259 104.399 142.965 97.2704 151.367 88.2405C158.367 80.7171 152.302 72.6885 151.367 71.9756" stroke="black" stroke-width="2.5" stroke-miterlimit="10" stroke-linecap="round" stroke-linejoin="round"/>
<path d="M160.784 104.399C160.784 104.399 154.49 97.2704 162.891 88.2405C169.891 80.7171 163.826 72.6885 162.891 71.9756" stroke="black" stroke-width="2.5" stroke-miterlimit="10" stroke-linecap="round" stroke-linejoin="round"/>
<path d="M286.912 56.5847C286.868 48.299 293.55 41.5467 301.836 41.503L382.183 41.0798L382.659 131.399L300.308 131.832C293.129 131.87 287.278 126.081 287.24 118.901L286.912 56.5847Z" fill="black"/>
<rect x="292.566" y="32.6797" width="129.619" height="92.9113" rx="15.0029" transform="rotate(-0.301773 292.566 32.6797)" fill="#6C6C6C"/>
<path fill-rule="evenodd" clip-rule="evenodd" d="M292.959 107.755L292.976 110.996C293.02 119.282 299.772 125.964 308.058 125.92L407.67 125.395C415.956 125.352 422.637 118.599 422.594 110.313L422.262 47.4089C422.259 46.7507 422.213 46.1027 422.127 45.4674L422.442 105.131C422.485 113.416 415.804 120.169 407.518 120.212L307.906 120.737C300.278 120.777 293.95 115.118 292.959 107.755Z" fill="black" fill-opacity="0.3"/>
<path fill-rule="evenodd" clip-rule="evenodd" d="M422.391 51.6216L422.381 46.9997C422.362 38.7138 415.631 32.0216 407.345 32.0521L307.732 32.4193C299.446 32.4499 292.744 39.1916 292.762 47.4775L292.9 110.383C292.902 111.344 292.994 112.283 293.169 113.193L293.041 54.9092C293.023 46.6233 299.725 39.8816 308.011 39.851L407.624 39.4838C414.949 39.4568 421.06 44.6841 422.391 51.6216Z" fill="white" fill-opacity="0.12"/>
<rect x="292.688" y="32.8838" width="129.619" height="92.9113" rx="15.0029" transform="rotate(-0.301772 292.688 32.8838)" stroke="black" stroke-width="2.5" stroke-miterlimit="10" stroke-linecap="round" stroke-linejoin="round"/>
<path d="M421.007 83.533L294.687 83.5966" stroke="black" stroke-width="2.5" stroke-miterlimit="10" stroke-linejoin="round"/>
<path d="M420.891 73.988L294.571 74.0516" stroke="black" stroke-width="2.5" stroke-miterlimit="10" stroke-linejoin="round"/>
<path d="M357.575 54.4567C371.127 54.3853 382.176 65.3181 382.247 78.8699C382.319 92.4217 371.386 103.47 357.834 103.542C344.282 103.613 333.234 92.6802 333.162 79.1284C333.091 65.5766 343.999 54.5282 357.575 54.4567Z" fill="#333333"/>
<path d="M357.461 54.3473C371.013 54.2759 382.061 65.2087 382.133 78.7605C382.204 92.3123 371.271 103.361 357.72 103.432C344.168 103.504 333.119 92.5709 333.048 79.019C332.976 65.4672 343.884 54.4188 357.461 54.3473Z" fill="white" stroke="black" stroke-width="2.5" stroke-miterlimit="10" stroke-linecap="round" stroke-linejoin="round"/>
<path d="M357.607 60.7957C367.652 60.7428 375.851 68.8558 375.904 78.9016C375.957 88.9473 367.844 97.1462 357.798 97.1992C347.753 97.2521 339.554 89.1391 339.501 79.0933C339.423 69.0477 347.536 60.8488 357.607 60.7957Z" stroke="#0572EC" stroke-width="4" stroke-miterlimit="10" stroke-linecap="round" stroke-linejoin="round"/>
<path d="M360.058 68.2927L355.209 68.3182C354.612 68.3213 354.118 68.8461 354.071 69.5178L354.072 69.5924L354.098 74.665C354.1 74.8639 354.175 75.0376 354.275 75.1862L354.325 75.2357L355.051 76.0276C355.326 76.3494 355.353 76.8218 355.106 77.1712L355.057 77.2212L354.34 78.0207C354.216 78.1705 354.143 78.345 354.119 78.544L354.119 78.6186L354.171 88.4406C354.175 89.112 354.65 89.6565 355.247 89.7031L355.322 89.7027L360.17 89.6772C360.767 89.674 361.262 89.1492 361.308 88.4776L361.307 88.403L361.283 83.7034C361.282 83.5045 361.206 83.3059 361.106 83.1573L361.056 83.1078L360.33 82.3159C360.055 81.9941 360.028 81.5217 360.275 81.1723L360.324 81.1223L361.041 80.3228C361.165 80.173 361.238 79.9985 361.262 79.7995L361.262 79.7249L361.208 69.5299C361.205 68.8585 360.679 68.2894 360.058 68.2927Z" fill="black"/>
</svg>
