<svg width="184" height="123" viewBox="0 0 184 123" fill="none" xmlns="http://www.w3.org/2000/svg">
<g opacity="0.7">
<path fill-rule="evenodd" clip-rule="evenodd" d="M21.5095 38.6795C25.6478 35.7089 31.0868 34.6693 36.3074 36.3445L85.36 52.0844L91.0594 47.6935L39.6355 31.1926C32.4708 28.8936 24.855 32.2013 21.5095 38.6795Z" fill="#E6E6E8"/>
<path fill-rule="evenodd" clip-rule="evenodd" d="M18.7903 40.7917C21.54 32.1878 30.7298 27.4465 39.3164 30.2017L90.7404 46.7026C91.1399 46.8308 91.4354 47.1705 91.5075 47.5846C91.5796 47.9987 91.4164 48.4186 91.0839 48.6748L82.4175 55.3515L82.2546 76.7925C82.2519 77.1519 82.0787 77.4886 81.7882 77.6993C81.4977 77.9101 81.1244 77.9698 80.7828 77.8602L29.3589 61.3593C20.7723 58.6041 16.0406 49.3956 18.7903 40.7917ZM38.6285 32.3543C31.2283 29.9797 23.3083 34.0659 20.9385 41.481C18.5687 48.8961 22.6467 56.8322 30.0468 59.2067L80.0106 75.2391L80.166 54.783C80.1687 54.4351 80.3311 54.1078 80.6064 53.8957L88.0027 48.1975L38.6285 32.3543Z" fill="#B9BDC2"/>
<path d="M40.36 45.5636C40.7132 48.2915 38.7927 50.7899 36.0703 51.1439C33.3479 51.4979 30.8545 49.5735 30.5013 46.8456C30.148 44.1177 32.0685 41.6193 34.7909 41.2653C37.5133 40.9113 40.0067 42.8357 40.36 45.5636Z" fill="#B9BDC2"/>
<path d="M57.7423 51.0675C58.0956 53.7954 56.175 56.2938 53.4526 56.6478C50.7302 57.0018 48.2369 55.0774 47.8836 52.3495C47.5303 49.6216 49.4508 47.1232 52.1732 46.7692C54.8957 46.4152 57.389 48.3396 57.7423 51.0675Z" fill="#B9BDC2"/>
<path d="M75.0991 56.4972C75.4524 59.2251 73.5319 61.7235 70.8095 62.0775C68.0871 62.4315 65.5937 60.5071 65.2405 57.7792C64.8872 55.0512 66.8077 52.5529 69.5301 52.1989C72.2525 51.8449 74.7459 53.7693 75.0991 56.4972Z" fill="#B9BDC2"/>
<path fill-rule="evenodd" clip-rule="evenodd" d="M165.412 69.4373C167.043 66.4872 167.711 62.9779 167.075 59.399C165.605 51.1189 157.714 45.601 149.45 47.0744L96.2891 56.5533L92.677 67.4126L92.9221 67.937L94.3935 63.5133L147.555 54.0343C155.818 52.5609 163.709 58.0788 165.179 66.359C165.363 67.3948 165.438 68.4249 165.412 69.4373Z" fill="#E6E6E8"/>
<path fill-rule="evenodd" clip-rule="evenodd" d="M167.583 59.9847C169.163 68.8793 163.247 77.3729 154.371 78.9557L101.209 88.4346C100.707 88.5242 100.207 88.2644 99.9904 87.8012L91.0535 68.6755C90.9309 68.4132 90.9135 68.1138 91.0049 67.839L94.6169 56.9797C94.7476 56.5868 95.0824 56.297 95.4893 56.2244L148.651 46.7455C157.527 45.1627 166.004 51.0901 167.583 59.9847ZM153.975 76.7304C161.626 75.3663 166.724 68.0463 165.362 60.3807C164.001 52.7151 156.696 47.6067 149.046 48.9708L96.5448 58.332L93.2872 68.1257L101.666 86.0574L153.975 76.7304Z" fill="#B9BDC2"/>
<path d="M113.847 69.7863C114.2 72.5142 112.28 75.0125 109.558 75.3665C106.835 75.7205 104.342 73.7961 103.989 71.0682C103.635 68.3403 105.556 65.8419 108.278 65.4879C111.001 65.1339 113.494 67.0584 113.847 69.7863Z" fill="#B9BDC2"/>
<path d="M133.717 66.216C134.07 68.9439 132.149 71.4422 129.427 71.7962C126.705 72.1502 124.211 70.2258 123.858 67.4979C123.505 64.77 125.425 62.2716 128.148 61.9176C130.87 61.5636 133.363 63.488 133.717 66.216Z" fill="#B9BDC2"/>
<path d="M152.137 63.1066C152.491 65.8345 150.57 68.3329 147.848 68.6869C145.125 69.0409 142.632 67.1164 142.279 64.3885C141.925 61.6606 143.846 59.1622 146.568 58.8082C149.291 58.4542 151.784 60.3787 152.137 63.1066Z" fill="#B9BDC2"/>
<path d="M89.4695 104.786C89.4991 105.615 90.0458 106.245 90.6904 106.194C91.335 106.143 91.8335 105.43 91.8038 104.601C91.7741 103.773 91.2275 103.143 90.5829 103.194C89.9383 103.245 89.4398 103.958 89.4695 104.786Z" fill="#B9BDC2"/>
<path d="M66.8514 86.2535C63.6289 87.9218 61.2352 89.7272 61.5049 90.2859C61.7745 90.8445 64.6055 89.945 67.828 88.2767C71.0505 86.6083 73.4443 84.803 73.1746 84.2443C72.9049 83.6856 70.0739 84.5852 66.8514 86.2535Z" fill="#B9BDC2"/>
<path d="M74.11 96.9242C71.5165 101.726 69.9575 105.932 70.628 106.319C71.2984 106.706 73.9444 103.127 76.5379 98.325C79.1314 93.5234 80.6904 89.3173 80.0199 88.9304C79.3495 88.5436 76.7035 92.1225 74.11 96.9242Z" fill="#B9BDC2"/>
<path d="M88.2443 93.9575C88.5187 96.5025 89.2391 98.525 89.8533 98.4748C90.4674 98.4247 90.7429 96.321 90.4684 93.776C90.194 91.2311 89.4737 89.2086 88.8595 89.2587C88.2453 89.3088 87.9699 91.4126 88.2443 93.9575Z" fill="#B9BDC2"/>
</g>
</svg>
