<svg width="184" height="124" viewBox="0 0 184 124" fill="none" xmlns="http://www.w3.org/2000/svg">
<path opacity="0.1" fill-rule="evenodd" clip-rule="evenodd" d="M117.107 37.6584L104.114 60.1633C100.517 57.8224 96.2239 56.462 91.6172 56.462C87.0107 56.462 82.7177 57.8223 79.1209 60.1631L66.1277 37.6582C73.5483 33.116 82.2751 30.498 91.6172 30.498C100.959 30.498 109.686 33.1161 117.107 37.6584Z" fill="white"/>
<path opacity="0.2" fill-rule="evenodd" clip-rule="evenodd" d="M104.052 60.1406C108.688 63.1459 112.173 67.7782 113.688 73.2273H140.101C140.022 72.5971 139.93 71.9703 139.827 71.347C137.459 57.0761 128.922 44.893 117.045 37.6367L104.052 60.1406Z" fill="white"/>
<path fill-rule="evenodd" clip-rule="evenodd" d="M43.16 72.8176C43.2264 72.3253 43.3001 71.8351 43.3811 71.347C43.4284 71.0623 43.478 70.7785 43.5302 70.4956C47.7222 47.7375 67.6442 30.498 91.6173 30.498C115.734 30.498 135.751 47.9447 139.778 70.9052C139.804 71.0522 139.829 71.1995 139.853 71.347C139.957 71.9703 140.048 72.5971 140.128 73.2272H113.715C111.025 63.559 102.139 56.462 91.6173 56.462C81.2445 56.462 72.4615 63.3592 69.6376 72.8176H43.16ZM67.9714 70.4956C71.5691 60.9407 80.8067 54.14 91.6173 54.14C102.581 54.14 111.928 61.1352 115.413 70.9052H137.419C133.421 49.2335 114.445 32.8201 91.6173 32.8201C68.9333 32.8201 50.0528 49.027 45.8933 70.4956H67.9714Z" fill="black"/>
<path opacity="0.5" fill-rule="evenodd" clip-rule="evenodd" d="M60.6071 71.877H43.2105C34.34 71.877 27.149 79.0679 27.149 87.9384C27.149 96.8089 34.34 104 43.2105 104H60.6071V71.877Z" fill="white" fill-opacity="0.35"/>
<path fill-rule="evenodd" clip-rule="evenodd" d="M141.174 74.199H42.0614C34.4734 74.199 28.322 80.3503 28.322 87.9384C28.322 95.5264 34.4734 101.678 42.0614 101.678H141.174C148.762 101.678 154.913 95.5264 154.913 87.9384C154.913 80.3503 148.762 74.199 141.174 74.199ZM42.0614 71.877C33.1909 71.877 26 79.0679 26 87.9384C26 96.8089 33.1909 104 42.0614 104H141.174C150.044 104 157.235 96.8089 157.235 87.9384C157.235 79.0679 150.044 71.877 141.174 71.877H42.0614Z" fill="black"/>
<path d="M56.1503 87.9391C56.1503 91.326 53.4046 94.0716 50.0178 94.0716C46.6309 94.0716 43.8853 91.326 43.8853 87.9391C43.8853 84.5523 46.6309 81.8066 50.0178 81.8066C53.4046 81.8066 56.1503 84.5523 56.1503 87.9391Z" fill="black"/>
<path d="M76.9501 87.9391C76.9501 91.326 74.2045 94.0716 70.8176 94.0716C67.4307 94.0716 64.6851 91.326 64.6851 87.9391C64.6851 84.5523 67.4307 81.8066 70.8176 81.8066C74.2045 81.8066 76.9501 84.5523 76.9501 87.9391Z" fill="black"/>
<path d="M97.7501 87.9391C97.7501 91.326 95.0045 94.0716 91.6176 94.0716C88.2307 94.0716 85.4851 91.326 85.4851 87.9391C85.4851 84.5523 88.2307 81.8066 91.6176 81.8066C95.0045 81.8066 97.7501 84.5523 97.7501 87.9391Z" fill="black"/>
<path fill-rule="evenodd" clip-rule="evenodd" d="M109.08 95.2832C108.155 95.2832 107.404 94.5329 107.404 93.6073L107.404 81.808C107.404 80.8824 108.155 80.1321 109.08 80.1321C110.006 80.1321 110.756 80.8824 110.756 81.808L110.756 93.6073C110.756 94.5329 110.006 95.2832 109.08 95.2832Z" fill="black"/>
<path d="M63.2265 59.5922L95.234 82.5228C98.4989 84.8618 98.8853 89.5713 96.0454 92.4112C93.2055 95.2511 88.4961 94.8646 86.1571 91.5998L63.2265 59.5922Z" fill="black"/>
<path fill-rule="evenodd" clip-rule="evenodd" d="M67.5846 23.8074C67.8249 24.3757 67.5591 25.0312 66.9908 25.2716C52.3179 31.4774 40.7545 43.599 35.2916 58.6441C35.081 59.2241 34.4401 59.5235 33.8601 59.3129C33.2801 59.1023 32.9806 58.4614 33.1912 57.8814C38.867 42.25 50.8775 29.6604 66.1203 23.2135C66.6886 22.9732 67.3442 23.239 67.5846 23.8074Z" fill="black"/>
<path d="M74.2741 20.5585C72.7971 20.8667 71.7406 21.6713 71.9145 22.3556C72.0883 23.0399 73.4266 23.3448 74.9037 23.0366C76.3807 22.7284 77.4371 21.9238 77.2633 21.2394C77.0894 20.5551 75.7511 20.2502 74.2741 20.5585Z" fill="black"/>
</svg>
