<svg width="184" height="124" viewBox="0 0 184 124" fill="none" xmlns="http://www.w3.org/2000/svg">
<g opacity="0.7">
<path opacity="0.5" fill-rule="evenodd" clip-rule="evenodd" d="M91.5263 56.5275C81.1678 56.5275 72.3971 63.4151 69.5771 72.8604H43.1363C43.2026 72.3688 43.2762 71.8792 43.3571 71.3918C47.198 48.2459 67.2888 30.5996 91.5263 30.5996C115.764 30.5996 135.854 48.2459 139.695 71.3918C139.799 72.0142 139.89 72.6402 139.97 73.2694H113.593C110.907 63.6147 102.034 56.5275 91.5263 56.5275Z" fill="#B9BDC2"/>
<path opacity="0.4" fill-rule="evenodd" clip-rule="evenodd" d="M116.981 37.7501L104.005 60.2237C100.414 57.886 96.1264 56.5275 91.5261 56.5275C86.926 56.5275 82.639 57.8859 79.0472 60.2234L66.0721 37.7499C73.4823 33.2139 82.1971 30.5996 91.5261 30.5996C100.855 30.5996 109.57 33.214 116.981 37.7501Z" fill="white"/>
<path opacity="0.7" fill-rule="evenodd" clip-rule="evenodd" d="M103.944 60.1992C108.574 63.2003 112.053 67.8262 113.567 73.2677H139.943C139.864 72.6384 139.772 72.0125 139.669 71.3901C137.304 57.1389 128.779 44.9727 116.918 37.7266L103.944 60.1992Z" fill="white"/>
<path opacity="0.5" fill-rule="evenodd" clip-rule="evenodd" d="M60.559 71.9219H43.1866C34.3284 71.9219 27.1474 79.1028 27.1474 87.961C27.1474 96.8192 34.3284 104 43.1866 104H60.559V71.9219Z" fill="#B9BDC2"/>
<path fill-rule="evenodd" clip-rule="evenodd" d="M26.2308 84.3691C26.0791 85.2553 26 86.1662 26 87.0956C26 95.9538 33.1809 103.135 42.0391 103.135H141.014C149.872 103.135 157.053 95.9538 157.053 87.0956C157.053 86.222 156.983 85.3646 156.849 84.5288C155.554 92.0883 148.969 97.8414 141.04 97.8414H42.0656C34.0811 97.8414 27.4594 92.0071 26.2308 84.3691Z" fill="#E6E6E8"/>
<path fill-rule="evenodd" clip-rule="evenodd" d="M141.014 74.3943H42.0392C34.5465 74.3943 28.4724 80.4683 28.4724 87.961C28.4724 95.4537 34.5465 101.528 42.0392 101.528H141.014C148.506 101.528 154.581 95.4537 154.581 87.961C154.581 80.4683 148.506 74.3943 141.014 74.3943ZM42.0392 71.9219C33.181 71.9219 26.0001 79.1028 26.0001 87.961C26.0001 96.8192 33.181 104 42.0392 104H141.014C149.872 104 157.053 96.8192 157.053 87.961C157.053 79.1028 149.872 71.9219 141.014 71.9219H42.0392Z" fill="#B9BDC2"/>
<path d="M56.1084 87.9638C56.1084 91.346 53.3666 94.0878 49.9844 94.0878C46.6022 94.0878 43.8604 91.346 43.8604 87.9638C43.8604 84.5816 46.6022 81.8398 49.9844 81.8398C53.3666 81.8398 56.1084 84.5816 56.1084 87.9638Z" fill="#B9BDC2"/>
<path fill-rule="evenodd" clip-rule="evenodd" d="M49.9844 92.8516C52.6839 92.8516 54.8722 90.6633 54.8722 87.9638C54.8722 85.2644 52.6839 83.076 49.9844 83.076C47.2849 83.076 45.0966 85.2644 45.0966 87.9638C45.0966 90.6633 47.2849 92.8516 49.9844 92.8516ZM49.9844 94.0878C53.3666 94.0878 56.1084 91.346 56.1084 87.9638C56.1084 84.5816 53.3666 81.8398 49.9844 81.8398C46.6022 81.8398 43.8604 84.5816 43.8604 87.9638C43.8604 91.346 46.6022 94.0878 49.9844 94.0878Z" fill="#B9BDC2"/>
<path d="M76.8794 87.9638C76.8794 91.346 74.1376 94.0878 70.7554 94.0878C67.3732 94.0878 64.6314 91.346 64.6314 87.9638C64.6314 84.5816 67.3732 81.8398 70.7554 81.8398C74.1376 81.8398 76.8794 84.5816 76.8794 87.9638Z" fill="#B9BDC2"/>
<path fill-rule="evenodd" clip-rule="evenodd" d="M70.7554 92.8516C73.4549 92.8516 75.6432 90.6633 75.6432 87.9638C75.6432 85.2644 73.4549 83.076 70.7554 83.076C68.0559 83.076 65.8676 85.2644 65.8676 87.9638C65.8676 90.6633 68.0559 92.8516 70.7554 92.8516ZM70.7554 94.0878C74.1376 94.0878 76.8794 91.346 76.8794 87.9638C76.8794 84.5816 74.1376 81.8398 70.7554 81.8398C67.3732 81.8398 64.6314 84.5816 64.6314 87.9638C64.6314 91.346 67.3732 94.0878 70.7554 94.0878Z" fill="#B9BDC2"/>
<path d="M97.6504 87.9638C97.6504 91.346 94.9086 94.0878 91.5265 94.0878C88.1443 94.0878 85.4025 91.346 85.4025 87.9638C85.4025 84.5816 88.1443 81.8398 91.5265 81.8398C94.9086 81.8398 97.6504 84.5816 97.6504 87.9638Z" fill="#F4512A"/>
<path fill-rule="evenodd" clip-rule="evenodd" d="M108.965 95.4746C107.941 95.4746 107.111 94.6444 107.111 93.6203L107.111 81.8375C107.111 80.8134 107.941 79.9832 108.965 79.9832C109.989 79.9832 110.819 80.8134 110.819 81.8375L110.819 93.6203C110.819 94.6444 109.989 95.4746 108.965 95.4746Z" fill="#B9BDC2"/>
<path d="M63.1749 59.6533L95.138 82.5521C98.3983 84.8878 98.7842 89.5907 95.9483 92.4267V92.4267C93.1123 95.2626 88.4094 94.8767 86.0737 91.6164L63.1749 59.6533Z" fill="#B9BDC2"/>
<path fill-rule="evenodd" clip-rule="evenodd" d="M67.6378 23.8722C67.9037 24.501 67.6096 25.2263 66.9808 25.4922C52.359 31.6765 40.8358 43.756 35.392 58.7485C35.159 59.3902 34.4498 59.7216 33.8081 59.4886C33.1664 59.2555 32.835 58.5464 33.0681 57.9047C38.7475 42.2634 50.7653 29.6661 66.0177 23.2152C66.6465 22.9492 67.3719 23.2434 67.6378 23.8722Z" fill="#B9BDC2"/>
<path fill-rule="evenodd" clip-rule="evenodd" d="M89.6606 42.9226C89.7713 43.5963 89.3149 44.2322 88.6412 44.3429C79.4359 45.8554 71.1855 51.1634 66.0058 58.974C65.6284 59.5429 64.8613 59.6983 64.2923 59.321C63.7233 58.9436 63.568 58.1765 63.9453 57.6075C69.5065 49.2217 78.3595 43.5267 88.2404 41.9032C88.9141 41.7925 89.55 42.249 89.6606 42.9226Z" fill="white"/>
<path d="M71.8077 21.1886C70.1212 21.8447 69.0311 22.8937 69.3729 23.5316C69.7147 24.1695 71.359 24.1547 73.0454 23.4986C74.7319 22.8424 75.822 21.7935 75.4802 21.1556C75.1384 20.5177 73.4941 20.5325 71.8077 21.1886Z" fill="#B9BDC2"/>
</g>
</svg>
