<svg width="184" height="108" viewBox="0 0 184 108" fill="none" xmlns="http://www.w3.org/2000/svg">
<g clip-path="url(#clip0_1131_374400)">
<path opacity="0.2" d="M80.9182 46.7135C81.1369 45.4511 82.3376 44.605 83.6 44.8237L106.773 48.8383C108.035 49.057 108.882 50.2577 108.663 51.5201C108.444 52.7825 107.243 53.6286 105.981 53.4099L82.808 49.3953C81.5456 49.1766 80.6995 47.9759 80.9182 46.7135Z" fill="white"/>
<g style="mix-blend-mode:overlay" opacity="0.5">
<path fill-rule="evenodd" clip-rule="evenodd" d="M55.6448 69.3402L54.7527 74.9603C54.1253 78.9133 56.8211 82.6264 60.7741 83.2539L110.41 91.1326C114.363 91.7601 118.076 89.0642 118.703 85.1113L123.752 53.3083C123.825 52.8479 123.853 52.3907 123.839 51.9413L121.757 64.3321C121.42 66.3362 118.471 66.1064 118.449 64.0742L107.412 74.289C101.171 80.0651 92.5859 82.5875 84.2122 81.1055L61.602 77.1041C57.8796 76.4453 55.3186 73.0501 55.6448 69.3402Z" fill="black"/>
</g>
<path fill-rule="evenodd" clip-rule="evenodd" d="M73.9742 23.8649C75.8268 12.1938 86.79 4.23423 98.4611 6.0868C110.132 7.93937 118.092 18.9025 116.239 30.5737L114.009 44.6238L105.512 43.2751L107.742 29.225C108.85 22.2466 104.091 15.6915 97.1124 14.5838C90.134 13.4761 83.5789 18.2353 82.4712 25.2137L81.6386 30.4592L73.1416 29.1104L73.9742 23.8649Z" fill="black"/>
<g style="mix-blend-mode:multiply" opacity="0.6">
<path d="M68.9157 44.4233C68.7031 45.7626 67.4451 46.676 66.1058 46.4634C64.7665 46.2508 63.8532 44.9928 64.0658 43.6535C64.2783 42.3142 65.5364 41.4008 66.8757 41.6134C68.2149 41.826 69.1283 43.0841 68.9157 44.4233Z" fill="black"/>
</g>
<path opacity="0.2" d="M76.2384 45.5854C76.0258 46.9247 74.7677 47.8381 73.4285 47.6255C72.0892 47.4129 71.1758 46.1549 71.3884 44.8156C71.601 43.4763 72.859 42.563 74.1983 42.7755C75.5376 42.9881 76.4509 44.2462 76.2384 45.5854Z" fill="white"/>
<path fill-rule="evenodd" clip-rule="evenodd" d="M67.7357 39.373L117.372 47.2517C120.195 47.6999 122.121 50.3522 121.673 53.1757L116.624 84.9786C116.176 87.8022 113.524 89.7278 110.7 89.2796L61.0646 81.4009C58.241 80.9527 56.3154 78.3004 56.7636 75.4769L60.6307 51.1142L102.908 57.9194C103.472 58.0102 104.004 57.6263 104.095 57.0618C104.185 56.4973 103.802 55.966 103.237 55.8751L60.9553 49.0692L61.8117 43.674C62.2599 40.8504 64.9122 38.9248 67.7357 39.373ZM58.8179 49.3269L59.7667 43.3494C60.3942 39.3964 64.1073 36.7006 68.0603 37.328L117.696 45.2068C121.649 45.8342 124.345 49.5474 123.717 53.5003L118.669 85.3032C118.042 89.2562 114.329 91.952 110.376 91.3246L60.74 83.4458C56.787 82.8184 54.0912 79.1052 54.7186 75.1523L58.5864 50.7851L58.5833 50.7846L58.8179 49.3269Z" fill="black"/>
<path opacity="0.2" fill-rule="evenodd" clip-rule="evenodd" d="M66.5156 61.9334C66.6089 61.3468 67.16 60.9469 67.7465 61.0401L89.4219 64.4859C90.0085 64.5792 90.4084 65.1303 90.3151 65.7169C90.2219 66.3034 89.6708 66.7034 89.0842 66.6101L67.4088 63.1643C66.8223 63.0711 66.4224 62.5199 66.5156 61.9334Z" fill="white"/>
<path opacity="0.2" fill-rule="evenodd" clip-rule="evenodd" d="M65.3097 68.2029C65.4029 67.6163 65.954 67.2164 66.5406 67.3097L88.216 70.7555C88.8025 70.8487 89.2024 71.3998 89.1092 71.9864C89.0159 72.573 88.4648 72.9729 87.8783 72.8796L66.2029 69.4338C65.6163 69.3406 65.2164 68.7895 65.3097 68.2029Z" fill="white"/>
<path d="M43.846 33.5109C43.0244 33.4797 42.3611 33.9755 42.3645 34.6182C42.3678 35.2608 43.0365 35.8071 43.858 35.8382C44.6796 35.8693 45.3429 35.3735 45.3395 34.7309C45.3362 34.0882 44.6675 33.542 43.846 33.5109Z" fill="black"/>
<path d="M63.8364 12.4471C62.4221 9.13099 60.8116 6.62638 60.2392 6.85286C59.6668 7.07933 60.3493 9.95114 61.7636 13.2672C63.1778 16.5833 64.7884 19.0879 65.3608 18.8614C65.9332 18.6349 65.2507 15.7631 63.8364 12.4471Z" fill="black"/>
<path d="M52.7507 18.8628C48.1909 15.9411 44.1444 14.0884 43.7127 14.7247C43.2809 15.361 46.6273 18.2452 51.1871 21.1669C55.7469 24.0886 59.7934 25.9412 60.2251 25.305C60.6569 24.6687 57.3105 21.7844 52.7507 18.8628Z" fill="black"/>
<path d="M54.6501 33.0882C52.1125 33.1742 50.0591 33.7404 50.0637 34.3528C50.0683 34.9653 52.1291 35.392 54.6667 35.3061C57.2043 35.2201 59.2576 34.6539 59.253 34.0415C59.2484 33.429 57.1876 33.0023 54.6501 33.0882Z" fill="black"/>
<path d="M123.309 95.2402L109.273 96.2446C105.934 96.4836 103.585 93.0221 105.048 90.0089L111.202 77.3502L117.356 64.6914C118.819 61.6782 122.999 61.3791 124.875 64.1533L132.769 75.8068L140.663 87.4603C142.54 90.2346 140.708 93.9951 137.369 94.2341L123.309 95.2402Z" fill="black"/>
<path fill-rule="evenodd" clip-rule="evenodd" d="M123.984 64.7556C122.572 62.6673 119.425 62.8925 118.324 65.1606L106.015 90.4782C104.916 92.7453 106.681 95.3516 109.196 95.1717L137.292 93.1611C139.807 92.9812 141.184 90.1501 139.772 88.0626L123.984 64.7556ZM125.766 63.5505C123.425 60.0905 118.213 60.4632 116.389 64.2209L125.766 63.5505ZM116.389 64.2209L104.081 89.5385C102.256 93.2976 105.186 97.615 109.349 97.3171L137.446 95.3065C141.609 95.0086 143.895 90.3186 141.554 86.8575L125.766 63.5505" fill="black"/>
<path opacity="0.5" d="M122.483 83.5368C121.328 83.6195 120.324 82.7502 120.242 81.5945L119.677 73.7092C119.595 72.5535 120.464 71.5502 121.62 71.4675C122.775 71.3848 123.779 72.2541 123.861 73.4098L124.426 81.2951C124.507 82.4362 123.639 83.4541 122.483 83.5368Z" fill="white"/>
<path opacity="0.5" d="M122.872 88.9621C124.027 88.8794 124.897 87.8757 124.814 86.7203C124.731 85.565 123.728 84.6954 122.572 84.778C121.417 84.8607 120.547 85.8644 120.63 87.0197C120.713 88.1751 121.716 89.0447 122.872 88.9621Z" fill="white"/>
</g>
<defs>
<clipPath id="clip0_1131_374400">
<rect width="134.4" height="108" fill="white" transform="translate(25)"/>
</clipPath>
</defs>
</svg>
