<svg width="184" height="109" viewBox="0 0 184 109" fill="none" xmlns="http://www.w3.org/2000/svg">
<mask id="mask0_2011_416543" style="mask-type:alpha" maskUnits="userSpaceOnUse" x="93" y="14" width="53" height="84">
<path d="M117.114 97.0125L93.1863 57.2984L104.551 14.8848L145.265 37.3171L117.114 97.0125Z" fill="#C4C4C4"/>
</mask>
<g mask="url(#mask0_2011_416543)">
<circle cx="93.2835" cy="57.592" r="31.4066" transform="rotate(15 93.2835 57.592)" fill="#333333"/>
</g>
<path opacity="0.15" fill-rule="evenodd" clip-rule="evenodd" d="M121.664 70.0316C122.234 68.7006 122.716 67.313 123.101 65.8739C127.482 49.5252 117.78 32.7207 101.431 28.34C85.0823 23.9594 68.2778 33.6615 63.8971 50.0103C63.8203 50.2968 63.7479 50.5836 63.6797 50.8703C69.5784 37.0803 84.8671 29.3627 99.7768 33.3578C115.839 37.6616 125.485 53.9576 121.664 70.0316Z" fill="#B9BDC2"/>
<path opacity="0.15" fill-rule="evenodd" clip-rule="evenodd" d="M58.1291 43.1553C57.3695 44.888 56.7309 46.6999 56.2262 48.5833C50.833 68.7111 62.7777 89.3999 82.9055 94.7931C102.487 100.04 122.599 88.8773 128.643 69.7346C121.285 86.518 102.58 95.8744 84.3357 90.9859C64.2079 85.5926 52.2632 64.9038 57.6565 44.7761C57.8028 44.2297 57.9605 43.6894 58.1291 43.1553Z" fill="#B9BDC2"/>
<circle cx="93.2836" cy="57.5911" r="38.126" transform="rotate(15 93.2836 57.5911)" stroke="black" stroke-width="2" stroke-linecap="round" stroke-linejoin="round"/>
<circle cx="93.5726" cy="57.6682" r="31.4066" transform="rotate(15 93.5726 57.6682)" stroke="black" stroke-width="2" stroke-linecap="round" stroke-linejoin="round"/>
<path d="M100.482 32.1257L93.6533 57.3687L104.456 76.0801" stroke="black" stroke-width="2" stroke-linecap="round" stroke-linejoin="round"/>
<circle cx="93.2836" cy="57.5919" r="3.79075" transform="rotate(15 93.2836 57.5919)" fill="#333333" stroke="black" stroke-width="2" stroke-linecap="round" stroke-linejoin="round"/>
<path d="M41.7167 57.7488C41.7167 32.1498 59.947 10.8087 84.1331 6" stroke="black" stroke-width="2" stroke-linecap="round" stroke-linejoin="round"/>
<path d="M36 52.3789L41.7166 59.9698L47.4333 52.3789" stroke="black" stroke-width="2" stroke-linecap="round" stroke-linejoin="round"/>
<circle cx="62.9249" cy="79.896" r="12.4644" fill="#414242" stroke="black" stroke-width="2" stroke-linecap="round"/>
<path d="M58.6221 75.5938L67.2277 84.1993" stroke="black" stroke-width="2" stroke-linecap="round"/>
<path d="M67.2277 75.5938L58.6221 84.1993" stroke="black" stroke-width="2" stroke-linecap="round"/>
<rect x="101.023" y="15.5449" width="6.81389" height="4.0807" transform="rotate(15 101.023 15.5449)" fill="black"/>
<rect x="94.1713" y="7.85156" width="24.032" height="5.65725" rx="2.82862" transform="rotate(15 94.1713 7.85156)" stroke="black" stroke-width="2" stroke-linecap="round" stroke-linejoin="round"/>
<rect x="129.365" y="35.8262" width="6.81389" height="4.0807" transform="rotate(63.034 129.365 35.8262)" fill="black"/>
<rect x="133.9" y="29.4727" width="13.9441" height="6.35706" rx="3.17853" transform="rotate(63.034 133.9 29.4727)" stroke="black" stroke-width="2" stroke-linecap="round" stroke-linejoin="round"/>
</svg>
