<svg width="184" height="108" viewBox="0 0 184 108" fill="none" xmlns="http://www.w3.org/2000/svg">
<g clip-path="url(#clip0_1131_374426)">
<g opacity="0.7">
<path opacity="0.4" d="M77.2296 24.0659C77.5559 22.1828 79.3469 20.9207 81.23 21.247L115.797 27.2355C117.68 27.5617 118.942 29.3528 118.616 31.2359C118.29 33.119 116.499 34.3811 114.616 34.0549L80.0486 28.0663C78.1655 27.7401 76.9034 25.949 77.2296 24.0659Z" fill="#B9BDC2"/>
<path opacity="0.5" fill-rule="evenodd" clip-rule="evenodd" d="M39.2545 59.549L37.9079 68.0324C37.1327 72.9164 40.4634 77.5041 45.3474 78.2793L123.056 90.614C127.94 91.3892 132.527 88.0584 133.302 83.1744L141.415 32.0674C141.51 31.4659 141.543 30.8689 141.519 30.2829L138.149 50.345C137.646 53.3345 133.247 52.9916 133.214 49.9603L114.212 67.5463C106.501 74.6828 95.8941 77.7993 85.5482 75.9683L46.62 69.0789C42.0418 68.2687 38.8856 64.1082 39.2545 59.549Z" fill="#E6E6E8"/>
<g style="mix-blend-mode:multiply" opacity="0.6">
<path d="M59.3255 20.6485C59.0084 22.6463 57.1318 24.0087 55.134 23.6916C53.1362 23.3745 51.7737 21.4979 52.0908 19.5001C52.4079 17.5023 54.2845 16.1399 56.2823 16.457C58.2801 16.7741 59.6426 18.6507 59.3255 20.6485Z" fill="#B9BDC2"/>
</g>
<path opacity="0.3" d="M70.2486 22.3829C69.9315 24.3806 68.0549 25.7431 66.0571 25.426C64.0593 25.1089 62.6969 23.2323 63.014 21.2345C63.3311 19.2367 65.2077 17.8743 67.2055 18.1914C69.2033 18.5085 70.5657 20.3851 70.2486 22.3829Z" fill="#B9BDC2"/>
<path fill-rule="evenodd" clip-rule="evenodd" d="M55.8142 12.3001L133.522 24.6348C137.011 25.1885 139.39 28.4654 138.836 31.954L130.724 83.061C130.17 86.5495 126.893 88.9287 123.405 88.3749L45.6967 76.0403C42.2081 75.4865 39.829 72.2096 40.3827 68.721L46.484 30.2829L110.073 40.5185C110.77 40.6308 111.427 40.1564 111.539 39.4589C111.651 38.7615 111.177 38.105 110.479 37.9928L46.8851 27.7563L48.495 17.6141C49.0487 14.1255 52.3256 11.7464 55.8142 12.3001ZM44.2535 28.0165L45.9683 17.213C46.7436 12.329 51.3313 8.99824 56.2152 9.77347L133.923 22.1081C138.807 22.8834 142.138 27.4711 141.363 32.355L133.251 83.462C132.475 88.346 127.888 91.6768 123.004 90.9016L45.2956 78.5669C40.4116 77.7917 37.0809 73.204 37.8561 68.32L43.9583 29.8763L43.9542 29.8757L44.2535 28.0165Z" fill="#B9BDC2"/>
<path opacity="0.4" fill-rule="evenodd" clip-rule="evenodd" d="M56.0172 46.8084C56.1324 46.0837 56.8133 45.5896 57.538 45.7048L89.8709 50.8448C90.5957 50.9601 91.0898 51.641 90.9746 52.3657C90.8593 53.0904 90.1784 53.5845 89.4537 53.4693L57.1208 48.3292C56.3961 48.214 55.902 47.5331 56.0172 46.8084Z" fill="#B9BDC2"/>
<path opacity="0.4" fill-rule="evenodd" clip-rule="evenodd" d="M54.2185 56.1658C54.3337 55.4411 55.0146 54.947 55.7394 55.0622L88.0723 60.2023C88.797 60.3175 89.2911 60.9984 89.1759 61.7231C89.0607 62.4478 88.3798 62.9419 87.655 62.8267L55.3221 57.6867C54.5974 57.5714 54.1033 56.8905 54.2185 56.1658Z" fill="#B9BDC2"/>
<path d="M154.964 70.9473C156.567 85.7671 134.762 99.7876 134.762 99.7876C134.762 99.7876 110.462 90.7554 108.858 75.9356L106.721 56.1763L118.247 54.9292L129.061 47.0957L141.3 52.435L152.826 51.1879L154.964 70.9473Z" fill="white"/>
<path fill-rule="evenodd" clip-rule="evenodd" d="M141.3 52.435L129.061 47.0957L118.247 54.9292L106.721 56.1763L108.858 75.9356C110.462 90.7554 134.762 99.7876 134.762 99.7876C134.762 99.7876 156.567 85.7671 154.964 70.9473L152.826 51.1879L141.3 52.435ZM150.47 54.1158L140.884 55.1529L129.39 50.1386L119.234 57.4952L109.648 58.5325L111.5 75.6498C111.826 78.6562 113.319 81.5147 115.603 84.1885C117.886 86.8619 120.853 89.2215 123.867 91.196C126.87 93.163 129.84 94.6956 132.067 95.738C133.017 96.1829 133.826 96.5359 134.438 96.793C134.98 96.4111 135.695 95.8931 136.528 95.2553C138.48 93.7609 141.053 91.6284 143.566 89.0647C146.088 86.4912 148.482 83.5517 150.141 80.4518C151.8 77.3513 152.647 74.2396 152.322 71.2332L150.47 54.1158Z" fill="#B9BDC2"/>
<path fill-rule="evenodd" clip-rule="evenodd" d="M124.281 66.5677C124.741 65.996 125.577 65.9055 126.149 66.3656L140.944 78.2715C141.515 78.7316 141.606 79.568 141.146 80.1397C140.686 80.7114 139.849 80.8019 139.278 80.3418L124.483 68.4359C123.911 67.9758 123.821 67.1394 124.281 66.5677Z" fill="#B9BDC2"/>
<path fill-rule="evenodd" clip-rule="evenodd" d="M125.927 81.7861C126.499 82.2461 127.336 82.1556 127.796 81.5839L139.702 66.7892C140.162 66.2175 140.071 65.3811 139.499 64.921C138.928 64.461 138.091 64.5515 137.631 65.1232L125.725 79.9179C125.265 80.4896 125.356 81.326 125.927 81.7861Z" fill="#B9BDC2"/>
<path d="M110.936 78.6348C108.514 74.2323 107.038 56.6278 106.708 56.1875C103.278 74.7635 105.791 83.6211 106.948 86.6304L118.505 89.2949C116.817 87.6439 112.873 82.1568 110.936 78.6348Z" fill="#B9BDC2"/>
</g>
</g>
<defs>
<clipPath id="clip0_1131_374426">
<rect width="131.814" height="108" fill="white" transform="translate(26)"/>
</clipPath>
</defs>
</svg>
