<svg width="560" height="180" viewBox="0 0 560 180" fill="none" xmlns="http://www.w3.org/2000/svg">
<path opacity="0.8" d="M200.602 140.331C190.937 158.918 165.785 170.653 142.091 163.908C112.753 155.556 82.9019 113.767 99.4675 88.1539C115.39 63.5356 160.111 72.7368 178.699 82.4027C197.287 92.0686 210.268 121.743 200.602 140.331Z" fill="#DCEDFF"/>
<path opacity="0.8" d="M353.241 151.769C314.984 164.433 253.415 147.658 258.221 71.685C264.642 -29.8221 371.997 2.8362 422.16 27.7396C495.083 63.9425 503.841 129.368 461.792 133.254C419.743 137.141 391.499 139.104 353.241 151.769Z" fill="#DCEDFF"/>
<path opacity="0.8" d="M125.865 48.3062C123.527 52.8028 117.442 55.6416 111.71 54.0098C104.613 51.9894 97.3917 41.8799 101.399 35.6838C105.251 29.7283 116.07 31.9542 120.567 34.2925C125.063 36.6309 128.204 43.8095 125.865 48.3062Z" fill="#DCEDFF"/>
<rect x="132.091" y="57.9461" width="107.514" height="107.514" rx="18.75" transform="rotate(-21.1881 132.091 57.9461)" stroke="#034EA6" stroke-width="2.5"/>
<rect x="143.939" y="63.1748" width="89.1983" height="89.1983" rx="20" transform="rotate(-21.1881 143.939 63.1748)" fill="white"/>
<path fill-rule="evenodd" clip-rule="evenodd" d="M156.79 60.4148C156.101 63.2797 156.246 66.3764 157.392 69.3319L176.992 119.895C179.986 127.62 188.675 131.454 196.4 128.46L245.36 109.481C248.767 108.16 251.417 105.732 253.059 102.767C254.763 109.945 250.952 117.459 243.88 120.201L191.714 140.422C183.989 143.416 175.3 139.582 172.306 131.858L151.463 78.0885C148.924 71.5367 151.297 64.2908 156.79 60.4148Z" fill="#C2EAFF"/>
<rect opacity="0.2" x="142.322" y="62.4611" width="91.6983" height="91.6983" rx="11.2649" transform="rotate(-21.1881 142.322 62.4611)" stroke="#C2EAFF" stroke-width="2.5"/>
<rect x="145.556" y="63.8885" width="86.6983" height="86.6983" rx="13.75" transform="rotate(-21.1881 145.556 63.8885)" stroke="#034EA6" stroke-width="2.5"/>
<path d="M207.665 89.5541C207.41 88.8966 207.533 88.161 207.905 87.5614C209.542 84.9164 209.964 81.5697 208.757 78.455C206.708 73.1693 200.742 70.5533 195.43 72.6121C190.119 74.6709 187.475 80.6248 189.524 85.9105C190.731 89.0251 193.299 91.2127 196.291 92.0632C196.969 92.256 197.556 92.7163 197.811 93.3738L202.206 104.713C202.605 105.742 203.764 106.254 204.794 105.854L210.918 103.48C211.948 103.081 212.46 101.923 212.06 100.893L207.665 89.5541Z" fill="#034EA6"/>
<rect x="253.748" y="2.77441" width="142.241" height="142.241" rx="30.7821" transform="rotate(11.4397 253.748 2.77441)" fill="white"/>
<rect x="253.085" y="3.56934" width="142.241" height="142.241" rx="30.7821" transform="rotate(11.4397 253.085 3.56934)" fill="#C2EAFF"/>
<path fill-rule="evenodd" clip-rule="evenodd" d="M232.27 106.423L230.853 113.428C227.481 130.091 238.255 146.332 254.918 149.704L333.992 165.705C350.655 169.077 366.896 158.303 370.268 141.64L386.269 62.5657C386.554 61.1587 386.738 59.7548 386.826 58.3614L372.242 130.43C368.87 147.093 352.629 157.867 335.966 154.495L256.892 138.494C241.637 135.407 231.317 121.532 232.27 106.423Z" fill="#0077FF" fill-opacity="0.24"/>
<path fill-rule="evenodd" clip-rule="evenodd" d="M385.071 68.9756L386.504 61.9738C389.913 45.3185 379.174 29.0536 362.519 25.6451L283.48 9.4696C266.825 6.06105 250.56 16.7996 247.152 33.4549L230.976 112.494C230.688 113.9 230.501 115.304 230.41 116.697L245.153 44.6603C248.561 28.005 264.826 17.2665 281.482 20.675L360.52 36.8505C375.769 39.9712 386.058 53.8686 385.071 68.9756Z" fill="white"/>
<rect x="253.154" y="3.90332" width="142.241" height="142.241" rx="30.7821" transform="rotate(11.4397 253.154 3.90332)" stroke="#034EA6" stroke-width="2.5" stroke-miterlimit="10" stroke-linecap="round" stroke-linejoin="round"/>
<path d="M376.337 108.997L238.764 81.1582" stroke="#034EA6" stroke-width="2.5" stroke-miterlimit="10" stroke-linejoin="round"/>
<path d="M378.478 93.581L241.312 65.8246" stroke="#034EA6" stroke-width="2.5" stroke-miterlimit="10" stroke-linejoin="round"/>
<path d="M315.994 51.5573C341.242 56.6664 357.575 81.2863 352.466 106.534C347.357 131.782 322.737 148.115 297.489 143.006C272.241 137.897 255.908 113.277 261.017 88.0291C266.126 62.7811 290.7 46.4388 315.994 51.5573Z" fill="#0077FF" fill-opacity="0.24"/>
<path d="M317.758 42.7096C343.006 47.8187 359.339 72.4386 354.23 97.6865C349.121 122.934 324.501 139.267 299.253 134.158C274.005 129.049 257.672 104.429 262.782 79.1813C267.891 53.9334 292.464 37.5912 317.758 42.7096Z" fill="#C2EAFF"/>
<path d="M317.592 42.4655C342.84 47.5746 359.173 72.1944 354.064 97.4424C348.955 122.69 324.335 139.023 299.087 133.914C273.839 128.805 257.506 104.185 262.615 78.9372C267.724 53.6892 292.298 37.347 317.592 42.4655Z" fill="white" stroke="#034EA6" stroke-width="2.5" stroke-miterlimit="10" stroke-linecap="round" stroke-linejoin="round"/>
<path d="M315.369 54.5233C334.085 58.3105 346.205 76.5805 342.418 95.2964C338.631 114.012 320.361 126.133 301.645 122.345C282.929 118.558 270.809 100.288 274.596 81.5722C278.337 62.8469 296.607 50.7266 315.369 54.5233Z" stroke="#85BEFF" stroke-width="4" stroke-miterlimit="10" stroke-linecap="round" stroke-linejoin="round"/>
<path d="M308.401 87.8327C308.305 92.5086 306.74 104.012 301.242 112.616" stroke="#034EA6" stroke-width="2.5" stroke-linecap="round"/>
<path d="M312.316 102.132C313.262 98.5705 314.417 94.9013 314.721 88.0198C314.871 84.641 312.644 81.9555 308.935 81.745C304.038 81.4669 302.503 84.99 302.316 87.164C302.129 89.338 301.84 98.8854 294.962 110.386" stroke="#034EA6" stroke-width="2.5" stroke-linecap="round"/>
<path d="M310.576 107.709C309.901 109.255 308.294 112.738 307.261 114.302" stroke="#034EA6" stroke-width="2.5" stroke-linecap="round"/>
<path d="M314.713 113.764C317.347 108.287 322.56 92.3109 320.624 84.5489C318.908 77.6678 311.637 74.8591 307.289 75.482" stroke="#034EA6" stroke-width="2.5" stroke-linecap="round"/>
<path d="M301.756 77.3672C300.035 78.2115 296.443 81.344 295.847 87.1196C295.101 94.3391 293.075 102.23 289.943 106.748" stroke="#034EA6" stroke-width="2.5" stroke-linecap="round"/>
<path d="M286.768 99.4504C287.59 97.0406 289.183 92.9965 289.758 86.0997C290.399 78.3943 297.084 68.746 309.176 69.3639C320.1 69.9222 324.999 78.1348 325.887 80.819" stroke="#034EA6" stroke-width="2.5" stroke-linecap="round"/>
<path d="M327.244 86.8066C327.14 90.9412 326.113 101.404 322.838 110.18" stroke="#034EA6" stroke-width="2.5" stroke-linecap="round"/>
<path d="M331.941 100.203C334.258 88.7515 334.96 79.5519 325.661 69.8262" stroke="#034EA6" stroke-width="2.5" stroke-linecap="round"/>
<path d="M320.874 66.3904C316.202 63.578 302.907 60.0393 293.035 68.2831C282.735 76.8841 284.608 85.0064 282.471 92.3153" stroke="#034EA6" stroke-width="2.5" stroke-linecap="round"/>
<mask id="mask0_1299_64260" style="mask-type:alpha" maskUnits="userSpaceOnUse" x="263" y="34" width="105" height="72">
<rect x="273.811" y="34.8955" width="96.0196" height="52.2954" transform="rotate(11.4397 273.811 34.8955)" fill="#C4C4C4"/>
</mask>
<g mask="url(#mask0_1299_64260)">
<path d="M308.401 87.8327C308.305 92.5086 306.74 104.012 301.242 112.616" stroke="#85BEFF" stroke-width="2.5" stroke-linecap="round"/>
<path d="M312.316 102.132C313.262 98.5705 314.417 94.9013 314.721 88.0198C314.871 84.641 312.644 81.9555 308.935 81.745C304.038 81.4669 302.503 84.99 302.316 87.164C302.129 89.338 301.84 98.8854 294.962 110.386" stroke="#85BEFF" stroke-width="2.5" stroke-linecap="round"/>
<path d="M314.713 113.764C317.347 108.287 322.56 92.3109 320.624 84.5489C318.908 77.6678 311.637 74.8591 307.289 75.482" stroke="#85BEFF" stroke-width="2.5" stroke-linecap="round"/>
<path d="M301.756 77.3672C300.035 78.2115 296.443 81.344 295.847 87.1196C295.101 94.3391 293.075 102.23 289.943 106.748" stroke="#85BEFF" stroke-width="2.5" stroke-linecap="round"/>
<path d="M286.768 99.4504C287.59 97.0406 289.183 92.9965 289.758 86.0997C290.399 78.3943 297.084 68.746 309.176 69.3639C320.1 69.9222 324.999 78.1348 325.887 80.819" stroke="#85BEFF" stroke-width="2.5" stroke-linecap="round"/>
<path d="M327.244 86.8066C327.14 90.9412 326.113 101.404 322.838 110.18" stroke="#85BEFF" stroke-width="2.5" stroke-linecap="round"/>
<path d="M331.941 100.203C334.258 88.7515 334.96 79.5519 325.661 69.8262" stroke="#85BEFF" stroke-width="2.5" stroke-linecap="round"/>
<path d="M320.874 66.3904C316.202 63.578 302.907 60.0393 293.035 68.2831C282.735 76.8841 284.608 85.0064 282.471 92.3153" stroke="#85BEFF" stroke-width="2.5" stroke-linecap="round"/>
</g>
</svg>
