<svg width="560" height="180" viewBox="0 0 560 180" fill="none" xmlns="http://www.w3.org/2000/svg">
<path opacity="0.8" d="M177.265 133.951C145.987 144.305 95.6499 130.59 99.5791 68.4767C104.829 -14.5129 192.599 12.1877 233.611 32.5481C293.232 62.1466 300.392 115.637 266.013 118.814C231.635 121.992 208.544 123.597 177.265 133.951Z" fill="#DCEDFF"/>
<path opacity="0.8" d="M461.378 127.512C453.501 142.659 434.781 153.146 418.01 148.969C397.244 143.797 377.729 112.244 390.926 91.214C403.611 71.0005 435.437 76.0972 448.382 82.8286C461.326 89.5601 469.255 112.364 461.378 127.512Z" fill="#DCEDFF"/>
<rect x="186.869" y="18.5576" width="208.219" height="142.245" rx="10" fill="#C2EAFF"/>
<path d="M186.869 29.1973C186.869 23.6744 191.346 19.1973 196.869 19.1973H385.088C390.611 19.1973 395.088 23.6744 395.088 29.1973V42.7363H186.869V29.1973Z" fill="#85BEFF"/>
<path d="M186.869 29.1973C186.869 23.6744 191.346 19.1973 196.869 19.1973H385.088C390.611 19.1973 395.088 23.6744 395.088 29.1973V42.7363H186.869V29.1973Z" stroke="#034EA6" stroke-width="2.5" stroke-miterlimit="10" stroke-linecap="round" stroke-linejoin="round"/>
<path fill-rule="evenodd" clip-rule="evenodd" d="M395.088 144.504V151.442C395.088 156.965 390.611 161.442 385.088 161.442H196.869C191.346 161.442 186.869 156.965 186.869 151.442V144.504C186.869 150.027 191.346 154.504 196.869 154.504H385.088C390.611 154.504 395.088 150.027 395.088 144.504Z" fill="#85BEFF"/>
<path fill-rule="evenodd" clip-rule="evenodd" d="M186.869 36.1357V29.1976C186.869 23.6748 191.346 19.1976 196.869 19.1976L385.088 19.1976C390.611 19.1976 395.088 23.6748 395.088 29.1976V36.1357C395.088 30.6129 390.611 26.1357 385.088 26.1357L196.869 26.1357C191.346 26.1357 186.869 30.6129 186.869 36.1357Z" fill="#C2EAFF"/>
<rect x="186.869" y="19.1973" width="208.219" height="142.245" rx="10" stroke="#034EA6" stroke-width="2.5" stroke-miterlimit="10" stroke-linecap="round" stroke-linejoin="round"/>
<circle cx="202.873" cy="31.7249" r="4.4104" fill="#034EA6"/>
<circle cx="218.199" cy="31.7249" r="4.4104" fill="#034EA6"/>
<path fill-rule="evenodd" clip-rule="evenodd" d="M334.842 99.9429C334.77 124.928 314.459 145.125 289.474 145.053C264.491 144.982 244.295 124.67 244.367 99.6851C244.438 74.7003 264.749 54.504 289.732 54.5752C314.716 54.6464 334.913 74.958 334.842 99.9429Z" fill="white"/>
<path d="M267.214 59.6193C267.214 59.6193 263.524 64.8712 267.214 66.6214C270.905 68.3717 267.888 71.0314 264.625 72.082C261.361 73.1327 255.776 72.7487 254.297 79.5698C252.818 86.391 252.874 94.2125 255.85 91.1031C258.826 87.9936 259.351 83.2217 261.882 83.6763C264.414 84.1309 264.629 88.9904 263.918 93.674C263.206 98.3576 273.123 102.306 271.366 105.493C269.608 108.679 266.205 110.822 269.352 113.57C272.499 116.318 272.587 125.309 264.625 127.809C256.663 130.309 261.882 135.497 261.882 135.497C261.882 135.497 276.738 151.45 294.974 140.734C294.974 140.734 294.096 130.581 291.431 129.316C288.765 128.052 286.656 124.041 285.652 119.29C284.648 114.539 281.688 110.177 283.61 109.307C285.533 108.437 287.913 101.288 285.864 100.316C283.814 99.3442 277.532 104.651 277.032 99.8933C276.532 95.1356 278.618 93.6234 279.847 91.4409C281.075 89.2583 284.762 86.2405 289.787 88.8783C294.812 91.5161 298.719 98.5479 301.287 96.4652C305.041 93.4176 302.938 84.7659 306.902 87.7167C310.289 90.2006 315.913 91.4813 320.101 87.9457C320.108 87.9491 320.989 39.7172 267.214 59.6193Z" fill="#C2EAFF"/>
<path fill-rule="evenodd" clip-rule="evenodd" d="M334.843 99.9429C334.772 124.928 314.46 145.125 289.476 145.053C264.492 144.982 244.297 124.67 244.368 99.6851C244.439 74.7003 264.75 54.504 289.734 54.5752C314.718 54.6464 334.914 74.958 334.843 99.9429Z" stroke="#034EA6" stroke-width="2.5" stroke-linecap="round"/>
<path d="M254.887 71.877L324.485 72.0753" stroke="#034EA6" stroke-width="2.5" stroke-linecap="round"/>
<path d="M254.728 127.555L324.327 127.753" stroke="#034EA6" stroke-width="2.5" stroke-linecap="round"/>
<path d="M289.735 54.5753C289.735 54.5753 265.339 67.0297 265.246 99.745C265.198 116.829 272.844 136.771 289.477 145.054" stroke="#034EA6" stroke-width="2.5" stroke-linecap="round"/>
<path d="M289.735 54.5752C289.735 54.5752 314.059 67.1684 313.966 99.8838C313.917 116.968 306.156 136.866 289.477 145.053" stroke="#034EA6" stroke-width="2.5" stroke-linecap="round"/>
<path d="M289.735 54.5752L289.477 145.053" stroke="#034EA6" stroke-width="2.5" stroke-linecap="round"/>
<path d="M195.524 161.442C208.878 153.48 218.2 135.414 218.2 114.403L142.246 114.403C142.246 135.414 151.568 153.48 164.922 161.442H195.524Z" fill="white"/>
<path fill-rule="evenodd" clip-rule="evenodd" d="M212.768 139.687C208.742 148.721 202.718 155.943 195.524 160.232H164.922C151.568 152.27 142.246 134.204 142.246 113.193L149.364 113.193C149.43 134.85 165.758 152.383 185.89 152.383C196.522 152.383 206.093 147.493 212.768 139.687Z" fill="#C2EAFF"/>
<path d="M195.524 161.442C208.878 153.48 218.2 135.414 218.2 114.403L142.246 114.403C142.246 135.414 151.568 153.48 164.922 161.442H195.524Z" stroke="#034EA6" stroke-width="2.5" stroke-miterlimit="10" stroke-linecap="round" stroke-linejoin="round"/>
<path d="M142.143 119.977C136.283 118.157 124.833 117.793 125.915 130.896C126.997 143.999 146.538 152.007 156.174 154.373" stroke="#034EA6" stroke-width="2.5" stroke-miterlimit="10" stroke-linecap="round" stroke-linejoin="round"/>
<path d="M160.546 104.399C160.546 104.399 154.252 97.2704 162.654 88.2405C169.653 80.7171 163.588 72.6885 162.654 71.9756" stroke="white" stroke-width="2.5" stroke-miterlimit="10" stroke-linecap="round" stroke-linejoin="round"/>
<path d="M172.071 104.399C172.071 104.399 165.776 97.2704 174.178 88.2405C181.178 80.7171 175.113 72.6885 174.178 71.9756" stroke="white" stroke-width="2.5" stroke-miterlimit="10" stroke-linecap="round" stroke-linejoin="round"/>
<path d="M298.199 56.5847C298.155 48.299 304.836 41.5467 313.122 41.503L393.47 41.0798L393.946 131.399L311.595 131.832C304.415 131.87 298.565 126.081 298.527 118.901L298.199 56.5847Z" fill="#034EA6"/>
<rect x="303.852" y="32.6797" width="129.619" height="92.9113" rx="15.0029" transform="rotate(-0.301773 303.852 32.6797)" fill="white"/>
<path fill-rule="evenodd" clip-rule="evenodd" d="M304.245 107.755L304.263 110.996C304.306 119.282 311.059 125.964 319.344 125.92L418.957 125.395C427.242 125.352 433.924 118.599 433.88 110.313L433.549 47.4089C433.545 46.7507 433.5 46.1027 433.414 45.4674L433.728 105.131C433.772 113.416 427.09 120.169 418.805 120.212L319.192 120.737C311.565 120.777 305.237 115.118 304.245 107.755Z" fill="#85BEFF"/>
<path fill-rule="evenodd" clip-rule="evenodd" d="M433.677 51.6216L433.667 46.9997C433.649 38.7138 426.917 32.0216 418.631 32.0521L319.019 32.4193C310.733 32.4499 304.031 39.1916 304.049 47.4775L304.187 110.383C304.189 111.344 304.281 112.283 304.456 113.193L304.328 54.9092C304.31 46.6233 311.012 39.8816 319.298 39.851L418.911 39.4838C426.236 39.4568 432.346 44.6841 433.677 51.6216Z" fill="white"/>
<rect x="303.975" y="32.8838" width="129.619" height="92.9113" rx="15.0029" transform="rotate(-0.301772 303.975 32.8838)" stroke="#034EA6" stroke-width="2.5" stroke-miterlimit="10" stroke-linecap="round" stroke-linejoin="round"/>
<path d="M432.294 83.533L305.973 83.5966" stroke="#034EA6" stroke-width="2.5" stroke-miterlimit="10" stroke-linejoin="round"/>
<path d="M432.178 73.988L305.857 74.0516" stroke="#034EA6" stroke-width="2.5" stroke-miterlimit="10" stroke-linejoin="round"/>
<path d="M368.862 54.4567C382.414 54.3853 393.462 65.3181 393.534 78.8699C393.605 92.4217 382.672 103.47 369.121 103.542C355.569 103.613 344.52 92.6802 344.449 79.1284C344.377 65.5766 355.285 54.5282 368.862 54.4567Z" fill="#C2EAFF"/>
<path d="M368.748 54.3473C382.299 54.2759 393.348 65.2087 393.419 78.7605C393.491 92.3123 382.558 103.361 369.006 103.432C355.454 103.504 344.406 92.5709 344.334 79.019C344.263 65.4672 355.171 54.4188 368.748 54.3473Z" fill="white" stroke="#034EA6" stroke-width="2.5" stroke-miterlimit="10" stroke-linecap="round" stroke-linejoin="round"/>
<path d="M368.893 60.7957C378.939 60.7428 387.138 68.8558 387.191 78.9016C387.244 88.9473 379.131 97.1462 369.085 97.1992C359.039 97.2521 350.84 89.1391 350.787 79.0933C350.71 69.0477 358.823 60.8488 368.893 60.7957Z" stroke="#85BEFF" stroke-width="4" stroke-miterlimit="10" stroke-linecap="round" stroke-linejoin="round"/>
<path d="M371.344 68.2927L366.496 68.3182C365.899 68.3213 365.404 68.8461 365.358 69.5178L365.358 69.5924L365.385 74.665C365.386 74.8639 365.462 75.0376 365.562 75.1862L365.612 75.2357L366.337 76.0276C366.612 76.3494 366.64 76.8218 366.393 77.1712L366.343 77.2212L365.627 78.0207C365.503 78.1705 365.429 78.345 365.406 78.544L365.406 78.6186L365.458 88.4406C365.461 89.112 365.937 89.6565 366.534 89.7031L366.608 89.7027L371.457 89.6772C372.054 89.674 372.548 89.1492 372.594 88.4776L372.594 88.403L372.569 83.7034C372.568 83.5045 372.493 83.3059 372.392 83.1573L372.342 83.1078L371.617 82.3159C371.342 81.9941 371.315 81.5217 371.561 81.1723L371.611 81.1223L372.328 80.3228C372.451 80.173 372.525 79.9985 372.549 79.7995L372.548 79.7249L372.495 69.5299C372.491 68.8585 371.966 68.2894 371.344 68.2927Z" fill="#034EA6"/>
<path opacity="0.8" d="M103.173 139.502C100.237 145.147 92.5982 148.711 85.4019 146.663C76.4918 144.126 67.4254 131.434 72.4566 123.655C77.2925 116.178 90.875 118.973 96.5204 121.908C102.166 124.844 106.108 133.857 103.173 139.502Z" fill="#DCEDFF"/>
</svg>
