<svg width="184" height="124" viewBox="0 0 184 124" fill="none" xmlns="http://www.w3.org/2000/svg">
<g clip-path="url(#clip0_1131_374412)">
<g opacity="0.7">
<path d="M53.2542 66.942C51.7769 59.0511 56.9762 51.4567 64.867 49.9794L104.702 42.5218C112.593 41.0445 120.187 46.2437 121.665 54.1346L127.054 82.9199C128.531 90.8107 123.332 98.4051 115.441 99.8824L75.6057 107.34C67.7149 108.817 60.1205 103.618 58.6432 95.7273L53.2542 66.942Z" fill="white"/>
<path fill-rule="evenodd" clip-rule="evenodd" d="M60.2234 39.6706C57.8687 27.0928 66.1561 14.9876 78.7339 12.6329C91.3117 10.2781 103.417 18.5655 105.772 31.1433L107.775 41.8425L98.0905 43.6555L96.0875 32.9563C94.7341 25.727 87.7763 20.9636 80.5469 22.317C73.3175 23.6704 68.5541 30.6282 69.9076 37.8576L71.9106 48.5567L62.2264 50.3697L60.2234 39.6706Z" fill="#B9BDC2"/>
<path fill-rule="evenodd" clip-rule="evenodd" d="M105.371 44.8022L65.5363 52.2599C58.9825 53.4868 54.6643 59.7943 55.8912 66.3481L61.2803 95.1334C62.5072 101.687 68.8147 106.005 75.3685 104.778L115.204 97.3208C121.757 96.0938 126.076 89.7863 124.849 83.2325L119.46 54.4472C118.233 47.8934 111.925 43.5752 105.371 44.8022ZM65.083 49.8388C57.1922 51.3161 51.9929 58.9105 53.4702 66.8013L58.8592 95.5867C60.3365 103.478 67.9309 108.677 75.8217 107.199L115.657 99.7418C123.548 98.2645 128.747 90.6701 127.27 82.7793L121.881 53.9939C120.403 46.1031 112.809 40.9038 104.918 42.3811L65.083 49.8388Z" fill="#B9BDC2"/>
<path d="M108.569 71.383C110.396 81.1392 103.967 90.529 94.211 92.3555C84.4547 94.182 75.065 87.7536 73.2385 77.9973C71.412 68.2411 77.8403 58.8513 87.5966 57.0248C97.3529 55.1983 106.743 61.6267 108.569 71.383Z" fill="#E6E6E8"/>
<path opacity="0.5" fill-rule="evenodd" clip-rule="evenodd" d="M53.4657 66.7773C53.4672 66.7853 53.4687 66.7932 53.4702 66.8011L58.8592 95.5865C60.3364 103.477 67.9308 108.677 75.8217 107.199L115.657 99.7416C123.548 98.2643 128.747 90.6699 127.27 82.7791L126.184 76.9799C127.646 84.8622 122.449 92.4427 114.567 93.9185L74.7315 101.376C66.8407 102.853 59.2463 97.6542 57.769 89.7633L53.4657 66.7773Z" fill="#B9BDC2"/>
<path fill-rule="evenodd" clip-rule="evenodd" d="M75.1499 85.6348C75.6523 85.1763 76.4312 85.2119 76.8898 85.7143C80.9306 90.1417 87.0968 92.4356 93.4164 91.2525C103.132 89.4336 109.533 80.0831 107.714 70.3677C107.589 69.6991 108.03 69.0557 108.698 68.9305C109.367 68.8054 110.01 69.2459 110.136 69.9144C112.205 80.967 104.922 91.6043 93.8697 93.6735C86.6774 95.02 79.662 92.4055 75.0705 87.3747C74.612 86.8723 74.6475 86.0933 75.1499 85.6348Z" fill="#B9BDC2"/>
<path d="M108.256 66.5643L113.659 72.8674L105.499 74.3951L108.256 66.5643Z" fill="#B9BDC2"/>
<path fill-rule="evenodd" clip-rule="evenodd" d="M106.114 63.7695C105.611 64.228 104.832 64.1924 104.374 63.69C100.333 59.2626 94.1669 56.9687 87.8473 58.1518C78.1318 59.9707 71.7304 69.3212 73.5492 79.0366C73.6744 79.7052 73.2339 80.3486 72.5653 80.4738C71.8968 80.599 71.2534 80.1584 71.1282 79.4899C69.059 68.4373 76.3415 57.8 87.3941 55.7308C94.5863 54.3843 101.602 56.9988 106.193 62.0296C106.652 62.532 106.616 63.3109 106.114 63.7695Z" fill="#B9BDC2"/>
<path d="M73.0081 82.84L67.605 76.5369L75.7652 75.0092L73.0081 82.84Z" fill="#B9BDC2"/>
<path opacity="0.4" fill-rule="evenodd" clip-rule="evenodd" d="M93.7972 76.0172C95.0975 74.8712 95.7787 73.0893 95.4366 71.262C94.9197 68.5011 92.2626 66.682 89.5018 67.1989C86.7409 67.7158 84.9218 70.3729 85.4387 73.1337C85.7808 74.9611 87.0605 76.3758 88.6872 76.9738L89.6891 82.325C89.8122 82.9826 90.445 83.4158 91.1026 83.2927L93.8313 82.7819C94.4888 82.6588 94.9221 82.0259 94.799 81.3684L93.7972 76.0172Z" fill="black"/>
</g>
</g>
<defs>
<clipPath id="clip0_1131_374412">
<rect width="184" height="124" fill="white"/>
</clipPath>
</defs>
</svg>
