<svg width="229" height="160" viewBox="0 0 229 160" fill="none" xmlns="http://www.w3.org/2000/svg">
<path opacity="0.05" d="M78.9225 130.355C76.0017 144.714 61.3489 157.446 44.1186 157.472C22.7845 157.505 -5.33258 135.153 0.875195 114.742C6.84194 95.1233 38.6837 92.7005 53.0429 95.6214C67.402 98.5422 81.8434 115.996 78.9225 130.355Z" fill="white"/>
<path opacity="0.05" d="M105.105 152.031C104.287 156.052 100.183 159.618 95.3573 159.626C89.3822 159.635 81.5075 153.374 83.2461 147.658C84.9172 142.163 93.8351 141.485 97.8567 142.303C101.878 143.121 105.923 148.009 105.105 152.031Z" fill="white"/>
<path opacity="0.05" d="M144.366 94.9681C120.224 103.894 80.5533 94.5404 81.9497 45.9384C83.8155 -18.9982 153.062 -0.512968 185.63 14.2802C232.977 35.7854 240.006 77.3561 213.25 80.7619C186.494 84.1677 168.509 86.0425 144.366 94.9681Z" fill="white"/>
<path d="M93.4819 134.358L188.104 147.954L114.392 127.301L93.4819 134.358Z" fill="black"/>
<rect x="17.6363" y="53.5331" width="98.5673" height="98.5673" rx="9.84273" transform="rotate(-16.8092 17.6363 53.5331)" fill="#262626" stroke="black" stroke-width="1.66894"/>
<rect x="24.4854" y="57.0741" width="87.9664" height="87.9664" rx="7.70729" transform="rotate(-16.8092 24.4854 57.0741)" fill="#333333" stroke="black" stroke-width="1.66894"/>
<rect x="32.626" y="61.9688" width="74.5308" height="74.5308" rx="16.0189" transform="rotate(-16.9356 32.626 61.9688)" fill="#6C6C6C"/>
<path fill-rule="evenodd" clip-rule="evenodd" d="M48.6719 114.67L49.7645 118.258C52.3416 126.721 61.2916 131.493 69.7549 128.916L110.405 116.538C118.868 113.961 123.64 105.011 121.063 96.5476L108.685 55.8974C108.466 55.1795 108.202 54.4883 107.896 53.8258L119.181 90.8881C121.759 99.3514 116.987 108.301 108.524 110.879L67.8733 123.257C60.1278 125.615 51.9747 121.819 48.6719 114.67Z" fill="black" fill-opacity="0.3"/>
<path fill-rule="evenodd" clip-rule="evenodd" d="M109.731 59.1558L108.646 55.5652C106.088 47.0962 97.1485 42.3048 88.6795 44.8632L48.0021 57.1516C39.5331 59.71 34.7416 68.6495 37.3001 77.1185L49.5884 117.796C49.8054 118.514 50.0682 119.206 50.3728 119.869L39.1691 82.782C36.6107 74.313 41.4021 65.3735 49.8711 62.8151L90.5485 50.5267C98.2993 48.1853 106.444 52 109.731 59.1558Z" fill="white" fill-opacity="0.35"/>
<rect x="32.7405" y="62.1055" width="74.5308" height="74.5308" rx="16.0189" transform="rotate(-16.9356 32.7405 62.1055)" stroke="black" stroke-width="1.88458" stroke-miterlimit="10" stroke-linecap="round" stroke-linejoin="round"/>
<path d="M115.169 80.0432L45.5453 100.739" stroke="black" stroke-width="1.88458" stroke-miterlimit="10" stroke-linejoin="round"/>
<path d="M112.902 72.7297L43.2782 93.4257" stroke="black" stroke-width="1.88458" stroke-miterlimit="10" stroke-linejoin="round"/>
<path d="M73.3557 67.8218C86.6081 63.7864 100.629 71.2615 104.664 84.5139C108.699 97.7663 101.224 111.787 87.9719 115.822C74.7195 119.858 60.6989 112.383 56.6636 99.1301C52.6282 85.8777 60.079 71.8646 73.3557 67.8218Z" fill="#6C6C6C"/>
<path d="M72.1882 63.9079C85.1003 59.9761 98.7608 67.2593 102.693 80.1714C106.624 93.0835 99.3412 106.744 86.429 110.676C73.5169 114.608 59.8564 107.324 55.9246 94.4123C51.9929 81.5002 59.2523 67.8468 72.1882 63.9079Z" fill="#6C6C6C"/>
<path d="M72.0502 63.8376C84.9623 59.9058 98.6229 67.189 102.555 80.1011C106.486 93.0132 99.2032 106.674 86.2911 110.605C73.379 114.537 59.7185 107.254 55.7867 94.342C51.8549 81.4299 59.1144 67.7765 72.0502 63.8376Z" fill="#F7F7F7" stroke="black" stroke-width="1.88458" stroke-miterlimit="10" stroke-linecap="round" stroke-linejoin="round"/>
<path d="M74.0281 69.9496C83.5997 67.0351 93.7369 72.4398 96.6514 82.0113C99.566 91.5829 94.1613 101.72 84.5897 104.635C75.0182 107.549 64.881 102.145 61.9664 92.573C59.0282 83.0086 64.4329 72.8714 74.0281 69.9496Z" stroke="#248AFF" stroke-width="3.76915" stroke-miterlimit="10" stroke-linecap="round" stroke-linejoin="round"/>
<path d="M78.5047 76.4059L73.8848 77.8127C73.3161 77.9858 72.9938 78.6276 73.1412 79.2817L73.1628 79.3528L74.6346 84.186C74.6923 84.3755 74.8138 84.5197 74.9519 84.633L75.0137 84.666L75.9316 85.2149C76.286 85.4435 76.4468 85.8865 76.3109 86.2903L76.2779 86.3521L75.8217 87.3195C75.7465 87.4977 75.7259 87.6852 75.76 87.8819L75.7816 87.953L78.6312 97.3113C78.826 97.951 79.4349 98.3352 80.0179 98.2094L80.089 98.1878L84.7089 96.781C85.2775 96.6078 85.5999 95.966 85.4525 95.3119L85.4308 95.2408L84.0673 90.7631C84.0096 90.5735 83.8808 90.4056 83.7428 90.2923L83.681 90.2594L82.763 89.7105C82.4086 89.4818 82.2479 89.0389 82.3838 88.635L82.4168 88.5732L82.873 87.6059C82.9481 87.4277 82.9687 87.2402 82.9347 87.0434L82.9131 86.9724L79.9552 77.2586C79.7604 76.619 79.097 76.2255 78.5047 76.4059Z" fill="black"/>
<rect x="119.288" y="26.1793" width="88.0624" height="98.5673" rx="13.0459" transform="rotate(15.969 119.288 26.1793)" fill="#333333" stroke="black" stroke-width="1.66894"/>
<rect x="130.131" y="29.3502" width="88.0624" height="98.5673" rx="10.9104" transform="rotate(15.969 130.131 29.3502)" fill="#434343" stroke="black" stroke-width="1.66894"/>
<rect x="132.952" y="34.7275" width="79.6563" height="90.5514" rx="9" transform="rotate(15.969 132.952 34.7275)" stroke="black" stroke-width="1.66894" stroke-linecap="round" stroke-linejoin="round" stroke-dasharray="3.34 5"/>
</svg>
