<svg width="560" height="180" viewBox="0 0 560 180" fill="none" xmlns="http://www.w3.org/2000/svg">
<path opacity="0.05" d="M200.602 140.331C190.937 158.918 165.785 170.653 142.091 163.908C112.753 155.556 82.9019 113.767 99.4675 88.1539C115.39 63.5356 160.111 72.7368 178.699 82.4027C197.287 92.0686 210.268 121.743 200.602 140.331Z" fill="white"/>
<path opacity="0.05" d="M353.241 151.769C314.984 164.433 253.415 147.658 258.221 71.685C264.642 -29.8221 371.997 2.8362 422.16 27.7396C495.083 63.9425 503.841 129.368 461.792 133.254C419.743 137.141 391.499 139.104 353.241 151.769Z" fill="white"/>
<path opacity="0.05" d="M125.865 48.3062C123.527 52.8028 117.442 55.6416 111.71 54.0098C104.613 51.9894 97.3917 41.8799 101.399 35.6838C105.251 29.7283 116.07 31.9542 120.567 34.2925C125.063 36.6309 128.204 43.8095 125.865 48.3062Z" fill="white"/>
<rect x="131.745" y="57.9461" width="107.514" height="107.514" rx="18.75" transform="rotate(-21.1881 131.745 57.9461)" stroke="black" stroke-width="2.5"/>
<rect x="143.593" y="63.1748" width="89.1983" height="89.1983" rx="20" transform="rotate(-21.1881 143.593 63.1748)" fill="#434343"/>
<path fill-rule="evenodd" clip-rule="evenodd" d="M154.6 61.9527C154.2 64.4819 154.442 67.1475 155.434 69.7072L175.035 120.271C178.029 127.995 186.718 131.829 194.442 128.835L243.403 109.856C247.648 108.211 250.718 104.845 252.126 100.864C255.069 108.571 251.234 117.216 243.534 120.201L191.368 140.422C183.643 143.417 174.954 139.582 171.96 131.858L151.117 78.0888C148.883 72.3249 150.451 66.0239 154.6 61.9527Z" fill="#333333"/>
<rect opacity="0.2" x="141.976" y="62.4611" width="91.6983" height="91.6983" rx="11.2649" transform="rotate(-21.1881 141.976 62.4611)" stroke="#5533FF" stroke-opacity="0.08" stroke-width="2.5"/>
<rect x="145.21" y="63.8885" width="86.6983" height="86.6983" rx="13.75" transform="rotate(-21.1881 145.21 63.8885)" stroke="black" stroke-width="2.5"/>
<path d="M207.319 89.5541C207.064 88.8966 207.188 88.161 207.559 87.5614C209.196 84.9164 209.618 81.5697 208.411 78.455C206.362 73.1693 200.396 70.5533 195.084 72.6121C189.773 74.6709 187.129 80.6248 189.178 85.9105C190.385 89.0251 192.953 91.2127 195.945 92.0632C196.623 92.256 197.21 92.7163 197.465 93.3738L201.86 104.713C202.259 105.742 203.418 106.254 204.448 105.854L210.572 103.48C211.602 103.081 212.114 101.923 211.714 100.893L207.319 89.5541Z" fill="black"/>
<rect x="253.402" y="2.77441" width="142.241" height="142.241" rx="30.7821" transform="rotate(11.4397 253.402 2.77441)" fill="white"/>
<rect x="252.739" y="3.56934" width="142.241" height="142.241" rx="30.7821" transform="rotate(11.4397 252.739 3.56934)" fill="#6C6C6C"/>
<path fill-rule="evenodd" clip-rule="evenodd" d="M231.925 106.423L230.507 113.428C227.135 130.091 237.91 146.332 254.572 149.704L333.646 165.705C350.309 169.077 366.55 158.303 369.922 141.64L385.923 62.5657C386.208 61.1587 386.392 59.7548 386.48 58.3614L371.896 130.43C368.524 147.093 352.283 157.867 335.621 154.495L256.546 138.494C241.291 135.407 230.971 121.532 231.925 106.423Z" fill="#333333"/>
<path fill-rule="evenodd" clip-rule="evenodd" d="M384.725 68.9756L386.158 61.9738C389.567 45.3185 378.828 29.0536 362.173 25.6451L283.134 9.4696C266.479 6.06105 250.214 16.7996 246.806 33.4549L230.63 112.494C230.342 113.9 230.155 115.304 230.064 116.697L244.807 44.6603C248.215 28.005 264.48 17.2665 281.136 20.675L360.174 36.8505C375.423 39.9712 385.712 53.8686 384.725 68.9756Z" fill="white" fill-opacity="0.12"/>
<rect x="252.808" y="3.90332" width="142.241" height="142.241" rx="30.7821" transform="rotate(11.4397 252.808 3.90332)" stroke="black" stroke-width="2.5" stroke-miterlimit="10" stroke-linecap="round" stroke-linejoin="round"/>
<path d="M375.991 108.997L238.418 81.1582" stroke="black" stroke-width="2.5" stroke-miterlimit="10" stroke-linejoin="round"/>
<path d="M378.132 93.581L240.966 65.8246" stroke="black" stroke-width="2.5" stroke-miterlimit="10" stroke-linejoin="round"/>
<path d="M315.648 51.5573C340.896 56.6664 357.229 81.2863 352.12 106.534C347.011 131.782 322.391 148.115 297.143 143.006C271.895 137.897 255.562 113.277 260.671 88.0291C265.78 62.7811 290.354 46.4388 315.648 51.5573Z" fill="black"/>
<path d="M317.413 42.7096C342.66 47.8187 358.993 72.4386 353.884 97.6865C348.775 122.934 324.155 139.267 298.907 134.158C273.659 129.049 257.327 104.429 262.436 79.1813C267.545 53.9334 292.118 37.5912 317.413 42.7096Z" fill="#6C6C6C"/>
<path d="M317.246 42.4655C342.494 47.5746 358.827 72.1944 353.718 97.4424C348.609 122.69 323.989 139.023 298.741 133.914C273.493 128.805 257.16 104.185 262.269 78.9372C267.378 53.6892 291.952 37.347 317.246 42.4655Z" fill="white" stroke="black" stroke-width="2.5" stroke-miterlimit="10" stroke-linecap="round" stroke-linejoin="round"/>
<path d="M315.023 54.5233C333.739 58.3105 345.859 76.5805 342.072 95.2964C338.285 114.012 320.015 126.133 301.299 122.345C282.583 118.558 270.463 100.288 274.25 81.5722C277.991 62.8469 296.261 50.7266 315.023 54.5233Z" stroke="#85BEFF" stroke-width="4" stroke-miterlimit="10" stroke-linecap="round" stroke-linejoin="round"/>
<path d="M308.055 87.8327C307.959 92.5086 306.394 104.012 300.896 112.616" stroke="#0572EC" stroke-width="2.5" stroke-linecap="round"/>
<path d="M311.97 102.132C312.916 98.5705 314.071 94.9013 314.375 88.0198C314.525 84.641 312.298 81.9555 308.589 81.745C303.692 81.4669 302.157 84.99 301.97 87.164C301.783 89.338 301.494 98.8854 294.616 110.386" stroke="#0572EC" stroke-width="2.5" stroke-linecap="round"/>
<path d="M310.23 107.709C309.556 109.255 307.948 112.738 306.915 114.302" stroke="#0572EC" stroke-width="2.5" stroke-linecap="round"/>
<path d="M314.367 113.764C317.001 108.287 322.214 92.3109 320.278 84.5489C318.562 77.6678 311.291 74.8591 306.943 75.482" stroke="#0572EC" stroke-width="2.5" stroke-linecap="round"/>
<path d="M301.41 77.3672C299.689 78.2115 296.097 81.344 295.501 87.1196C294.755 94.3391 292.729 102.23 289.597 106.748" stroke="#0572EC" stroke-width="2.5" stroke-linecap="round"/>
<path d="M286.422 99.4504C287.244 97.0406 288.837 92.9965 289.412 86.0997C290.054 78.3943 296.738 68.746 308.83 69.3639C319.754 69.9222 324.653 78.1348 325.541 80.819" stroke="#0572EC" stroke-width="2.5" stroke-linecap="round"/>
<path d="M326.898 86.8066C326.794 90.9412 325.767 101.404 322.492 110.18" stroke="#0572EC" stroke-width="2.5" stroke-linecap="round"/>
<path d="M331.595 100.203C333.913 88.7515 334.614 79.5519 325.315 69.8262" stroke="#0572EC" stroke-width="2.5" stroke-linecap="round"/>
<path d="M320.528 66.3904C315.856 63.578 302.561 60.0393 292.689 68.2831C282.389 76.8841 284.262 85.0064 282.125 92.3153" stroke="#0572EC" stroke-width="2.5" stroke-linecap="round"/>
<mask id="mask0_1299_64196" style="mask-type:alpha" maskUnits="userSpaceOnUse" x="263" y="34" width="105" height="72">
<rect x="273.465" y="34.8955" width="96.0196" height="52.2954" transform="rotate(11.4397 273.465 34.8955)" fill="#C4C4C4"/>
</mask>
<g mask="url(#mask0_1299_64196)">
<path d="M308.055 87.8327C307.959 92.5086 306.394 104.012 300.896 112.616" stroke="#333333" stroke-width="2.5" stroke-linecap="round"/>
<path d="M311.97 102.132C312.916 98.5705 314.071 94.9013 314.375 88.0198C314.525 84.641 312.298 81.9555 308.589 81.745C303.692 81.4669 302.157 84.99 301.97 87.164C301.783 89.338 301.494 98.8854 294.616 110.386" stroke="#333333" stroke-width="2.5" stroke-linecap="round"/>
<path d="M314.367 113.764C317.001 108.287 322.214 92.3109 320.278 84.5489C318.562 77.6678 311.291 74.8591 306.943 75.482" stroke="#333333" stroke-width="2.5" stroke-linecap="round"/>
<path d="M301.41 77.3672C299.689 78.2115 296.097 81.344 295.501 87.1196C294.755 94.3391 292.729 102.23 289.597 106.748" stroke="#333333" stroke-width="2.5" stroke-linecap="round"/>
<path d="M286.422 99.4504C287.244 97.0406 288.837 92.9965 289.412 86.0997C290.054 78.3943 296.738 68.746 308.83 69.3639C319.754 69.9222 324.653 78.1348 325.541 80.819" stroke="#333333" stroke-width="2.5" stroke-linecap="round"/>
<path d="M326.898 86.8066C326.794 90.9412 325.767 101.404 322.492 110.18" stroke="#333333" stroke-width="2.5" stroke-linecap="round"/>
<path d="M331.595 100.203C333.913 88.7515 334.614 79.5519 325.315 69.8262" stroke="#333333" stroke-width="2.5" stroke-linecap="round"/>
<path d="M320.528 66.3904C315.856 63.578 302.561 60.0393 292.689 68.2831C282.389 76.8841 284.262 85.0064 282.125 92.3153" stroke="#333333" stroke-width="2.5" stroke-linecap="round"/>
</g>
</svg>
