<svg width="64" height="64" viewBox="0 0 64 64" fill="none" xmlns="http://www.w3.org/2000/svg">
<g opacity="0.5">
<rect width="64" height="64" fill="black" fill-opacity="0.01"/>
<path fill-rule="evenodd" clip-rule="evenodd" d="M32 17.7778C36.9092 17.7778 40.8889 13.7981 40.8889 8.88889C40.8889 3.97969 36.9092 0 32 0C27.0908 0 23.1111 3.97969 23.1111 8.88889C23.1111 13.7981 27.0908 17.7778 32 17.7778ZM32 64C36.9092 64 40.8889 60.0203 40.8889 55.1111C40.8889 50.2019 36.9092 46.2222 32 46.2222C27.0908 46.2222 23.1111 50.2019 23.1111 55.1111C23.1111 60.0203 27.0908 64 32 64ZM8.88889 40.8889C13.7981 40.8889 17.7778 36.9092 17.7778 32C17.7778 27.0908 13.7981 23.1111 8.88889 23.1111C3.97969 23.1111 0 27.0908 0 32C0 36.9092 3.97969 40.8889 8.88889 40.8889ZM55.1111 40.8889C60.0203 40.8889 64 36.9092 64 32C64 27.0908 60.0203 23.1111 55.1111 23.1111C50.2019 23.1111 46.2222 27.0908 46.2222 32C46.2222 36.9092 50.2019 40.8889 55.1111 40.8889ZM32 42.6667C37.891 42.6667 42.6667 37.891 42.6667 32C42.6667 26.109 37.891 21.3333 32 21.3333C26.109 21.3333 21.3333 26.109 21.3333 32C21.3333 37.891 26.109 42.6667 32 42.6667Z" fill="#8173CB"/>
<path fill-rule="evenodd" clip-rule="evenodd" d="M20.7059 13.1764C20.7059 17.3348 17.3348 20.7058 13.1764 20.7058C9.01807 20.7058 5.64703 17.3348 5.64703 13.1764C5.64703 9.01801 9.01807 5.64697 13.1764 5.64697C17.3348 5.64697 20.7059 9.01801 20.7059 13.1764ZM58.3529 13.1764C58.3529 17.3348 54.9819 20.7058 50.8235 20.7058C46.6651 20.7058 43.2941 17.3348 43.2941 13.1764C43.2941 9.01801 46.6651 5.64697 50.8235 5.64697C54.9819 5.64697 58.3529 9.01801 58.3529 13.1764ZM50.8235 58.3529C54.9819 58.3529 58.3529 54.9818 58.3529 50.8234C58.3529 46.6651 54.9819 43.294 50.8235 43.294C46.6651 43.294 43.2941 46.6651 43.2941 50.8234C43.2941 54.9818 46.6651 58.3529 50.8235 58.3529ZM20.7059 50.8234C20.7059 54.9818 17.3348 58.3529 13.1764 58.3529C9.01807 58.3529 5.64703 54.9818 5.64703 50.8234C5.64703 46.6651 9.01807 43.294 13.1764 43.294C17.3348 43.294 20.7059 46.6651 20.7059 50.8234Z" fill="#B9B1E2"/>
</g>
</svg>
