<svg width="184" height="108" viewBox="0 0 184 108" fill="none" xmlns="http://www.w3.org/2000/svg">
<g opacity="0.7" clip-path="url(#clip0_1131_374405)">
<path d="M93.4249 42.2044C93.2164 38.0004 102.82 43.4174 102.82 43.4174C105.351 45.1183 100.747 49.5276 100.558 51.8583C100.558 51.8583 96.5236 52.1023 94.7117 55.5676C92.8997 59.0329 90.9936 65.4126 88.8276 77.35C87.6307 83.947 93.3025 85.0268 95.9348 79.2544C93.5993 90.5548 85.3367 97.3489 84.6998 98.3312L52.8358 70.8394C53.284 71.2251 67.7834 83.6104 78.6035 80.9592C89.5944 78.2661 93.787 49.5029 93.4249 42.2044Z" fill="#E6E6E8"/>
<path fill-rule="evenodd" clip-rule="evenodd" d="M100.452 10.9644L97.5113 14.2944C89.4723 23.3984 86.8251 35.8397 90.0699 47.1845C90.8842 50.0315 88.4816 52.9275 85.5332 52.6528C73.7844 51.5581 62.0457 56.4568 54.5823 66.0383L51.8524 69.5429L84.7195 96.8109L87.6599 93.4809C95.6988 84.3769 98.346 71.9356 95.1012 60.5908C94.2869 57.7438 96.6895 54.8478 99.638 55.1225C111.387 56.2172 123.125 51.3185 130.589 41.737L133.319 38.2324L100.452 10.9644ZM100.272 8.64984L96.2619 13.1913C87.841 22.7279 85.0687 35.7598 88.4675 47.6428C88.9593 49.3623 87.4686 51.1592 85.6878 50.9933C73.3815 49.8467 61.0855 54.9772 53.2674 65.0141L49.5444 69.7937L84.8991 99.1255L88.9092 94.584C97.3302 85.0474 100.102 72.0155 96.7036 60.1325C96.2118 58.413 97.7026 56.6161 99.4833 56.782C111.79 57.9286 124.086 52.7981 131.904 42.7612L135.627 37.9816L100.272 8.64984Z" fill="#B9BDC2"/>
<path opacity="0.8" fill-rule="evenodd" clip-rule="evenodd" d="M120.198 33.9535C120.363 33.2261 119.916 32.4674 119.189 32.302C118.461 32.1366 117.703 32.5834 117.537 33.3108C117.372 34.0382 117.819 34.7969 118.546 34.9623C119.273 35.1277 120.005 34.6758 120.198 33.9535ZM123.115 44.3946L119.019 37.6647C117.244 37.6947 115.688 36.5581 115.193 34.8631C114.698 33.1681 115.41 31.3356 116.905 30.4098C118.427 29.489 120.357 29.6848 121.643 30.9109C122.929 32.1371 123.21 34.0726 122.355 35.6251L123.082 36.8302L124.049 38.558L124.93 40.4383L124.635 41.7032L125.9 41.9982L126.341 42.784L125.808 45.0154L123.115 44.3946Z" fill="#B9BDC2"/>
<g opacity="0.8">
<path d="M78.2776 59.4451L67.5875 59.8735C65.9251 59.9401 64.6241 61.3307 64.6815 62.9794L65.0507 73.5816C65.1081 75.2303 66.5023 76.5128 68.1647 76.4462L78.8548 76.0178C80.5172 75.9512 81.8182 74.5606 81.7608 72.9119L81.3916 62.3098C81.3342 60.6611 79.94 59.3785 78.2776 59.4451Z" fill="white"/>
<path fill-rule="evenodd" clip-rule="evenodd" d="M67.6165 60.707C66.4073 60.7554 65.4729 61.7645 65.5141 62.9467L65.8833 73.5488C65.9245 74.7309 66.9265 75.6624 68.1356 75.614L78.8257 75.1856C80.0349 75.1371 80.9693 74.128 80.9281 72.9459L80.5589 62.3438C80.5178 61.1616 79.5158 60.2301 78.3066 60.2786L67.6165 60.707ZM63.8488 63.0134C63.7751 60.8981 65.4429 59.1261 67.5585 59.0413L78.2486 58.6129C80.3642 58.5282 82.1506 60.1617 82.2242 62.277L82.5935 72.8792C82.6671 74.9945 80.9993 76.7665 78.8838 76.8512L68.1936 77.2796C66.078 77.3644 64.2917 75.7308 64.218 73.6155L63.8488 63.0134Z" fill="#B9BDC2"/>
<path fill-rule="evenodd" clip-rule="evenodd" d="M74.5722 68.2244C75.2698 67.7051 75.5942 66.7867 75.3125 65.9215C74.9584 64.8341 73.7811 64.2425 72.6828 64.6001C71.5846 64.9577 70.9813 66.1291 71.3353 67.2165C71.4904 67.6926 71.8033 68.0737 72.1982 68.3217L72.3064 71.4263L74.6804 71.3312L74.5722 68.2244Z" fill="#B9BDC2"/>
</g>
<g opacity="0.8">
<path d="M114.524 48.9351L99.5424 51.7336L97.5661 52.0949C96.8255 52.228 96.1195 51.8191 95.8292 51.158C95.7962 51.0516 95.7588 50.9637 95.7304 50.8388L94.1388 42.3272C93.9727 41.4803 94.5479 40.6576 95.3903 40.5101L112.367 37.3549C113.214 37.1888 114.037 37.764 114.184 38.6064L115.776 47.118C115.924 47.9604 115.367 48.7876 114.524 48.9351Z" fill="white"/>
<path fill-rule="evenodd" clip-rule="evenodd" d="M113.364 38.7506C113.296 38.3626 112.911 38.0979 112.528 38.1731L112.52 38.1747L95.5341 41.3314C95.1461 41.3994 94.8814 41.7838 94.9566 42.1673L94.958 42.1745L96.546 50.667C96.5512 50.688 96.5579 50.7101 96.5684 50.7413C96.5731 50.7553 96.577 50.7668 96.5819 50.7812C96.585 50.79 96.5884 50.7998 96.5925 50.812C96.597 50.8251 96.6019 50.8397 96.6071 50.8553C96.7581 51.1618 97.0871 51.3342 97.4175 51.2753C97.4179 51.2752 97.4183 51.2752 97.4186 51.2751L99.3894 50.9148L99.3926 50.9143L114.381 48.1147C114.75 48.05 115.025 47.6727 114.956 47.266L113.364 38.7506ZM115.004 38.4579C114.775 37.1653 113.519 36.2829 112.211 36.5367L95.2419 39.6905C93.9489 39.9196 93.0662 41.1766 93.3203 42.484L94.9142 51.0082L94.9178 51.0238C94.9495 51.1636 95.0121 51.3441 95.029 51.3927C95.0313 51.3994 95.0327 51.4036 95.0331 51.4048L95.0471 51.45L95.0662 51.4935C95.5033 52.4889 96.5746 53.1203 97.7136 52.9155L97.716 52.915L99.6923 52.5538L99.6955 52.5532L114.673 49.7555C115.985 49.5229 116.82 48.2497 116.597 46.9747L115.004 38.4579Z" fill="#B9BDC2"/>
<path d="M114.384 39.1361L94.1254 42.916L94.6018 45.4694L114.86 41.6895L114.384 39.1361Z" fill="#B9BDC2"/>
</g>
<path fill-rule="evenodd" clip-rule="evenodd" d="M83.8396 98.4072L49.7063 70.3391C49.156 69.8866 48.343 69.9659 47.8904 70.5162C47.4379 71.0665 47.5172 71.8795 48.0675 72.3321L82.2008 100.4C82.7511 100.853 83.5641 100.773 84.0166 100.223C84.4692 99.6727 84.3899 98.8597 83.8396 98.4072ZM50.7649 69.0518C49.5036 68.0146 47.6403 68.1963 46.6031 69.4576C45.5659 70.7189 45.7476 72.5822 47.0089 73.6194L81.1422 101.687C82.4035 102.725 84.2668 102.543 85.304 101.282C86.3412 100.02 86.1595 98.157 84.8982 97.1198L50.7649 69.0518Z" fill="#B9BDC2"/>
<path fill-rule="evenodd" clip-rule="evenodd" d="M136.764 34.8388L102.63 6.77077C102.08 6.31822 101.267 6.3975 100.814 6.94783C100.362 7.49817 100.441 8.31116 100.992 8.76371L135.125 36.8318C135.675 37.2843 136.488 37.205 136.941 36.6547C137.393 36.1044 137.314 35.2914 136.764 34.8388ZM103.689 5.48345C102.428 4.44627 100.564 4.62796 99.5272 5.88926C98.49 7.15056 98.6717 9.01385 99.933 10.051L134.066 38.1191C135.328 39.1563 137.191 38.9746 138.228 37.7133C139.265 36.452 139.084 34.5887 137.822 33.5515L103.689 5.48345Z" fill="#B9BDC2"/>
</g>
<defs>
<clipPath id="clip0_1131_374405">
<rect width="124.444" height="100" fill="white" transform="translate(30 4)"/>
</clipPath>
</defs>
</svg>
