<svg width="184" height="124" viewBox="0 0 184 124" fill="none" xmlns="http://www.w3.org/2000/svg">
<g opacity="0.7">
<path fill-rule="evenodd" clip-rule="evenodd" d="M59.8131 94.0077C56.95 90.8621 55.1885 86.7612 54.9918 82.3656C54.4817 83.5967 54.0973 84.9022 53.8569 86.2692L53.675 87.3039C51.9021 97.3876 58.6394 106.999 68.7232 108.772L97.1038 113.762C107.188 115.535 116.799 108.798 118.572 98.7138L118.754 97.6791C118.994 96.3121 119.078 94.9538 119.019 93.6225C115.766 101.473 107.402 106.3 98.6852 104.767L81.9168 101.819C77.8054 104.915 72.1392 105.63 67.2126 103.191C63.37 101.288 60.7809 97.8644 59.8131 94.0077Z" fill="#F8F8F9"/>
<path fill-rule="evenodd" clip-rule="evenodd" d="M69.708 60.5566C71.7996 48.6599 83.1394 40.7112 95.0362 42.8029C106.933 44.8945 114.882 56.2343 112.79 68.1311L110.921 78.7623L103.521 77.4613L105.39 66.8301C106.764 59.02 101.545 51.5754 93.7353 50.2023C85.9251 48.8291 78.4806 54.0474 77.1074 61.8575L75.2383 72.4887L67.8389 71.1878L69.708 60.5566Z" fill="#B9BDC2"/>
<path fill-rule="evenodd" clip-rule="evenodd" d="M103.535 77.9181L75.0287 72.9063C65.8764 71.2971 57.1524 77.4121 55.5433 86.5645L55.3614 87.5992C53.7523 96.7516 59.8673 105.475 69.0197 107.085L97.5257 112.096C106.678 113.706 115.402 107.591 117.011 98.4382L117.193 97.4035C118.802 88.2511 112.687 79.5272 103.535 77.9181ZM75.3252 71.2199C65.2415 69.447 55.6298 76.1843 53.8569 86.268L53.675 87.3027C51.9021 97.3864 58.6394 106.998 68.7232 108.771L97.2292 113.783C107.313 115.556 116.925 108.818 118.698 98.7347L118.879 97.7C120.652 87.6162 113.915 78.0045 103.831 76.2317L75.3252 71.2199Z" fill="#B9BDC2"/>
<path d="M88.5056 92.8915C87.0268 101.303 79.0095 106.922 70.5984 105.443C62.1873 103.965 56.5676 95.9473 58.0464 87.5362C59.5252 79.1252 67.5425 73.5054 75.9536 74.9842C84.3647 76.463 89.9844 84.4804 88.5056 92.8915Z" fill="white"/>
<path fill-rule="evenodd" clip-rule="evenodd" d="M70.8949 103.757C78.3746 105.072 85.5042 100.075 86.8192 92.595C88.1343 85.1153 83.1368 77.9857 75.6571 76.6706C68.1774 75.3556 61.0478 80.353 59.7328 87.8327C58.4177 95.3125 63.4152 102.442 70.8949 103.757ZM70.5984 105.443C79.0095 106.922 87.0268 101.303 88.5056 92.8915C89.9844 84.4804 84.3647 76.463 75.9536 74.9842C67.5425 73.5054 59.5252 79.1252 58.0464 87.5362C56.5676 95.9473 62.1873 103.965 70.5984 105.443Z" fill="#B9BDC2"/>
<path fill-rule="evenodd" clip-rule="evenodd" d="M96.5511 34.1863C85.4489 32.2344 74.6838 36.4122 67.7299 44.3024C66.5296 45.6643 64.4526 45.7953 63.0907 44.595C61.7288 43.3948 61.5978 41.3177 62.7981 39.9559C71.2032 30.4191 84.2386 25.347 97.6894 27.7118C111.14 30.0767 121.664 39.2908 126.312 51.1226C126.976 52.8122 126.144 54.72 124.455 55.3838C122.765 56.0475 120.857 55.2159 120.193 53.5263C116.348 43.7374 107.653 36.1383 96.5511 34.1863Z" fill="#B9BDC2"/>
<path fill-rule="evenodd" clip-rule="evenodd" d="M99.1745 19.2654C82.9572 16.4141 67.2338 22.5189 57.0801 34.0397C55.8799 35.4016 53.8029 35.5326 52.441 34.3323C51.0791 33.1321 50.9481 31.055 52.1484 29.6932C63.7532 16.5258 81.7469 9.52671 100.313 12.7909C118.879 16.0551 133.406 28.7719 139.824 45.1079C140.487 46.7975 139.656 48.7052 137.966 49.369C136.277 50.0328 134.369 49.2012 133.705 47.5116C128.09 33.2184 115.392 22.1166 99.1745 19.2654Z" fill="#B9BDC2"/>
<path fill-rule="evenodd" clip-rule="evenodd" d="M79.1898 87.7901C79.8269 87.3436 79.9813 86.4651 79.5348 85.828C79.0882 85.191 78.2098 85.0365 77.5727 85.4831L73.6209 88.2531L70.8509 84.3013C70.4044 83.6642 69.5259 83.5098 68.8889 83.9563C68.2518 84.4029 68.0974 85.2813 68.5439 85.9184L71.3139 89.8702L67.3621 92.6402C66.725 93.0867 66.5706 93.9652 67.0171 94.6022C67.4637 95.2393 68.3421 95.3938 68.9792 94.9472L72.931 92.1772L75.701 96.129C76.1476 96.7661 77.026 96.9205 77.6631 96.474C78.3001 96.0274 78.4546 95.149 78.008 94.5119L75.238 90.5601L79.1898 87.7901Z" fill="#B9BDC2"/>
</g>
</svg>
