<svg width="345" height="348" viewBox="0 0 345 348" fill="none" xmlns="http://www.w3.org/2000/svg">
<circle cx="165.373" cy="219.603" r="127.765" fill="#F8F8F9"/>
<circle cx="165.373" cy="205.117" r="127.765" fill="white" stroke="#E6E6E8" stroke-width="2.5" stroke-linecap="round" stroke-linejoin="round"/>
<path d="M301.962 135.694L240.237 165.543C236.922 167.146 235.563 171.125 237.202 174.432L254.13 208.587C255.768 211.893 259.784 213.274 263.098 211.671L324.823 181.822C328.138 180.219 329.497 176.24 327.858 172.933L310.931 138.778C309.292 135.472 305.276 134.091 301.962 135.694Z" fill="white" stroke="#E6E6E8" stroke-width="2.5" stroke-linecap="round" stroke-linejoin="round"/>
<path d="M312.836 142.616L239.107 178.27L243.778 187.693L317.507 152.04L312.836 142.616Z" fill="#E6E6E8"/>
<path d="M313.186 165.377L303.262 170.175C301.914 170.827 301.362 172.445 302.028 173.789L304.988 179.762C305.654 181.106 307.287 181.668 308.635 181.016L318.558 176.217C319.906 175.565 320.459 173.947 319.792 172.603L316.832 166.63C316.166 165.286 314.533 164.725 313.186 165.377Z" fill="#E6E6E8"/>
<path d="M202.557 59.4204L155.935 42.9714C148.685 40.4135 140.721 44.1568 138.147 51.3323L121.594 97.4752C119.02 104.651 122.811 112.541 130.061 115.099L176.683 131.548C183.933 134.106 191.897 130.363 194.471 123.187L211.023 77.0444C213.597 69.8689 209.807 61.9783 202.557 59.4204Z" fill="white" stroke="#E6E6E8" stroke-width="2.5" stroke-linecap="round" stroke-linejoin="round"/>
<path fill-rule="evenodd" clip-rule="evenodd" d="M171.631 90.7693C175.513 89.7327 178.476 86.3458 178.746 82.1506C179.087 76.8772 175.045 72.3235 169.719 71.9797C164.393 71.6359 159.799 75.6321 159.459 80.9056C159.309 83.2157 160.001 85.3876 161.274 87.128L156.427 100.639L166.781 104.292L171.631 90.7693Z" fill="#B9BDC2"/>
<path d="M110.613 148.838L64.3542 188.904C63.7429 189.433 62.9463 189.701 62.1389 189.649C61.3314 189.598 60.579 189.232 60.0462 188.63L8.60079 130.116C8.071 129.513 7.80486 128.726 7.86086 127.926C7.91685 127.127 8.29036 126.38 8.89943 125.851L44.8432 94.7245L69.9536 97.9297L110.975 144.549C111.238 144.852 111.436 145.204 111.56 145.584C111.684 145.964 111.731 146.365 111.697 146.764C111.663 147.163 111.55 147.552 111.364 147.908C111.178 148.264 110.923 148.58 110.613 148.838Z" fill="white" stroke="#E6E6E8" stroke-width="2.5" stroke-linecap="round" stroke-linejoin="round"/>
<path d="M44.7844 94.7402L55.2007 106.576C55.742 107.191 56.5083 107.565 57.331 107.619C58.1538 107.672 58.9658 107.399 59.5887 106.86L69.8948 97.9454L44.7844 94.7402Z" fill="#E6E6E8"/>
<path d="M16.4638 120.227L71.3482 182.598" stroke="#E6E6E8" stroke-width="2.5" stroke-linecap="round" stroke-linejoin="round"/>
<circle cx="165.1" cy="204.373" r="108.309" fill="white"/>
<path d="M233.577 156.482C247.435 166.663 266.922 163.683 277.104 149.826C287.286 135.968 284.306 116.48 270.448 106.299C256.59 96.1171 237.103 99.0971 226.921 112.955C216.74 126.812 219.719 146.3 233.577 156.482Z" fill="white" stroke="#E6E6E8" stroke-width="2.5" stroke-miterlimit="10" stroke-linecap="round" stroke-linejoin="round"/>
<path d="M237.878 150.625C248.503 158.431 263.443 156.146 271.249 145.522C279.055 134.898 276.77 119.957 266.146 112.151C255.522 104.346 240.582 106.63 232.776 117.254C224.97 127.878 227.254 142.819 237.878 150.625Z" stroke="#E6E6E8" stroke-width="2.5" stroke-miterlimit="10" stroke-linecap="round" stroke-linejoin="round"/>
<path fill-rule="evenodd" clip-rule="evenodd" d="M254.19 124.974C254.911 123.993 256.168 124.209 257.272 125.02C257.548 125.223 257.916 125.493 258.239 125.825C258.592 126.179 258.648 126.361 258.424 126.858L257.365 129.007L261.837 132.623L265.869 127.134C264.521 125.436 263.636 124.455 262.653 123.544L264.365 121.214L258.448 116.866L256.533 119.472C253.241 118.234 249.873 118.64 247.35 122.074C242.237 129.034 252.838 133.754 250.63 136.759C249.819 137.863 248.479 137.822 247.253 136.921C246.64 136.471 246.194 136.049 245.947 135.679C245.747 135.437 245.684 135.202 245.923 134.811L247.036 132.654L242.601 128.924L238.636 134.32C239.434 135.804 240.681 137.191 242.032 138.373L240.139 140.948L246.057 145.296L248.129 142.476C251.399 143.745 254.811 143.277 257.402 139.751C262.493 132.822 252.207 127.672 254.19 124.974Z" fill="#E6E6E8"/>
<circle cx="165.1" cy="217.04" r="50.4033" fill="#F8F8F9"/>
<rect x="21.2117" y="161.398" width="63.1708" height="45.8614" rx="3" transform="rotate(13.9289 21.2117 161.398)" fill="white" stroke="#E6E6E8" stroke-width="2.5" stroke-miterlimit="10" stroke-linecap="round" stroke-linejoin="round"/>
<path d="M19.854 166.87L43.4202 195.615C44.262 196.642 45.6785 196.993 46.9025 196.479L81.1695 182.077" stroke="#E6E6E8" stroke-width="2.5" stroke-miterlimit="10" stroke-linecap="round" stroke-linejoin="round"/>
<circle cx="165.373" cy="205.664" r="108.309" fill="#F8F8F9" stroke="#E6E6E8" stroke-width="2.5" stroke-linecap="round" stroke-linejoin="round"/>
<circle cx="165.101" cy="205.663" r="100.001" fill="white"/>
<circle cx="165.1" cy="214.379" r="46.127" fill="#F8F8F9"/>
<circle cx="238.597" cy="209.599" r="13.4159" fill="#F8F8F9"/>
<circle cx="234.124" cy="176.563" r="6.24642" fill="#F8F8F9"/>
<path fill-rule="evenodd" clip-rule="evenodd" d="M172.433 282.704C221.513 282.704 261.301 242.916 261.301 193.836C261.301 182.86 259.311 172.349 255.672 162.644C261.892 175.675 265.374 190.264 265.374 205.665C265.374 260.894 220.602 305.666 165.373 305.666C110.144 305.666 65.3716 260.894 65.3716 205.665C65.3716 152.14 107.425 108.436 160.294 105.791C116.957 111.711 83.5657 148.874 83.5657 193.836C83.5657 242.916 123.353 282.704 172.433 282.704Z" fill="#F8F8F9"/>
<circle cx="165.1" cy="205.733" r="100.001" stroke="#E6E6E8" stroke-width="2.5" stroke-linecap="round" stroke-linejoin="round"/>
<path d="M57.0047 220.848V217.74L38.0382 213.047L39.2297 222.143L41.2166 229.4C40.2976 222.785 46.6138 217.486 52.9681 219.542L57.0047 220.848Z" fill="#E6E6E8"/>
<path d="M274.171 209.223V206.115L291.946 198.562L293.327 206.583L291.776 210.795C291.407 208.24 288.988 206.503 286.449 206.969L274.171 209.223Z" fill="#E6E6E8"/>
<path d="M120.621 99.372L121.254 105.487L107.758 112.327L110.056 110.876C115.838 107.226 118.42 100.129 116.335 93.6177L114.608 88.2243L127.035 82.5586L120.621 99.372Z" fill="#E6E6E8"/>
<ellipse rx="2.12425" ry="2.7174" transform="matrix(0.954914 -0.296884 -0.255504 -0.966808 141.03 29.1601)" fill="#E6E6E8"/>
<ellipse rx="1.61307" ry="2.06348" transform="matrix(0.54729 -0.836943 -0.812609 -0.582809 77.0871 57.9161)" fill="#E6E6E8"/>
<ellipse rx="1.61307" ry="2.06348" transform="matrix(0.338117 0.941104 0.954786 -0.297294 257.301 56.3929)" fill="#E6E6E8"/>
<ellipse rx="1.86489" ry="12.8276" transform="matrix(0.835729 -0.549142 -0.570986 -0.82096 113.336 33.945)" fill="#E6E6E8"/>
<ellipse rx="1.60619" ry="9.48965" transform="matrix(0.8217 0.56992 0.548057 -0.836441 220.755 36.9486)" fill="#E6E6E8"/>
<ellipse rx="1.71835" ry="16.4064" transform="matrix(0.995545 0.0942872 0.0680056 -0.997685 177.091 19.774)" fill="#E6E6E8"/>
<ellipse rx="1.53721" ry="7.47751" transform="matrix(0.545357 -0.838204 -0.852291 -0.523068 90.8877 66.2046)" fill="#E6E6E8"/>
<ellipse rx="1.53721" ry="7.47751" transform="matrix(0.340287 0.940322 0.931023 -0.364962 242.37 62.4118)" fill="#E6E6E8"/>
<ellipse rx="2.12425" ry="2.7174" transform="matrix(0.954914 -0.296884 -0.255504 -0.966808 141.03 29.1601)" fill="#E6E6E8"/>
<ellipse rx="1.61307" ry="2.06348" transform="matrix(0.54729 -0.836943 -0.812609 -0.582809 77.0871 57.9161)" fill="#E6E6E8"/>
<ellipse rx="1.61307" ry="2.06348" transform="matrix(0.338117 0.941104 0.954786 -0.297294 257.301 56.3929)" fill="#E6E6E8"/>
<ellipse rx="1.86489" ry="12.8276" transform="matrix(0.835729 -0.549142 -0.570986 -0.82096 113.336 33.945)" fill="#E6E6E8"/>
<ellipse rx="1.60619" ry="9.48965" transform="matrix(0.8217 0.56992 0.548057 -0.836441 220.755 36.9486)" fill="#E6E6E8"/>
<ellipse rx="1.71835" ry="16.4064" transform="matrix(0.995545 0.0942872 0.0680056 -0.997685 177.091 19.774)" fill="#E6E6E8"/>
<ellipse rx="1.53721" ry="7.47751" transform="matrix(0.545357 -0.838204 -0.852291 -0.523068 90.8877 66.2046)" fill="#E6E6E8"/>
<ellipse rx="1.53721" ry="7.47751" transform="matrix(0.340287 0.940322 0.931023 -0.364962 242.37 62.4118)" fill="#E6E6E8"/>
<rect x="97.7596" y="264.549" width="178.954" height="12.2568" rx="6.12841" transform="rotate(-45 97.7596 264.549)" fill="#F8F8F9" stroke="#E6E6E8" stroke-width="2.5" stroke-linecap="round" stroke-linejoin="round"/>
<rect x="106.426" y="138.01" width="178.954" height="12.2568" rx="6.12841" transform="rotate(45 106.426 138.01)" fill="#F8F8F9" stroke="#E6E6E8" stroke-width="2.5" stroke-linecap="round" stroke-linejoin="round"/>
<circle cx="165.363" cy="205.613" r="42.6307" fill="white"/>
<path fill-rule="evenodd" clip-rule="evenodd" d="M211.482 205.121C211.482 179.65 190.834 159.002 165.363 159.002C139.892 159.002 119.243 179.65 119.243 205.121C119.243 230.593 139.892 251.241 165.363 251.241C190.834 251.241 211.482 230.593 211.482 205.121ZM123.567 205.121C123.567 182.038 142.28 163.326 165.363 163.326C188.446 163.326 207.159 182.038 207.159 205.121C207.159 228.205 188.446 246.917 165.363 246.917C142.279 246.917 123.567 228.205 123.567 205.121Z" fill="#E6E6E8"/>
<path fill-rule="evenodd" clip-rule="evenodd" d="M130.773 205.121C130.773 186.018 146.26 170.531 165.363 170.531C184.466 170.531 199.953 186.018 199.953 205.121C199.953 224.225 184.466 239.711 165.363 239.711C146.259 239.711 130.773 224.225 130.773 205.121ZM137.98 205.121C137.98 189.998 150.24 177.737 165.363 177.737C180.486 177.737 192.746 189.998 192.746 205.121C192.746 220.245 180.486 232.504 165.363 232.504C150.24 232.504 137.98 220.245 137.98 205.121Z" fill="#E6E6E8"/>
<path d="M158.877 197.201V187.967C158.877 186.695 159.803 185.664 160.945 185.664H169.781C170.923 185.664 171.848 186.695 171.848 187.967V206.518C171.848 206.926 171.703 207.316 171.445 207.604L170.153 209.043C169.614 209.643 169.614 210.615 170.153 211.215L171.445 212.654C171.703 212.942 171.848 213.332 171.848 213.74V222.274C171.848 223.546 170.923 224.577 169.781 224.577H160.945C159.803 224.577 158.877 223.546 158.877 222.274L158.892 204.401C158.892 203.993 159.037 203.603 159.295 203.315L160.587 201.876C161.126 201.276 161.126 200.304 160.587 199.704L159.295 198.265C159.037 197.977 158.892 197.587 158.877 197.201Z" fill="#B9BDC2"/>
<path d="M100.279 270.573C97.2294 267.555 97.2033 262.637 100.221 259.588L116.559 243.075L127.602 254.002L111.264 270.515C108.246 273.564 103.328 273.59 100.279 270.573Z" fill="white" stroke="#E6E6E8" stroke-width="2.5" stroke-linecap="round" stroke-linejoin="round"/>
<path d="M229.922 140.753C232.972 143.771 232.998 148.689 229.98 151.738L213.641 168.251L202.599 157.324L218.937 140.812C221.955 137.762 226.873 137.736 229.922 140.753Z" fill="white" stroke="#E6E6E8" stroke-width="2.5" stroke-linecap="round" stroke-linejoin="round"/>
<path d="M229.922 270.573C232.972 267.555 232.998 262.637 229.98 259.588L213.642 243.075L202.599 254.002L218.937 270.515C221.955 273.564 226.873 273.59 229.922 270.573Z" fill="white" stroke="#E6E6E8" stroke-width="2.5" stroke-linecap="round" stroke-linejoin="round"/>
<path d="M100.279 140.753C97.2292 143.771 97.2032 148.689 100.22 151.738L116.559 168.251L127.602 157.324L111.263 140.812C108.246 137.762 103.328 137.736 100.279 140.753Z" fill="white" stroke="#E6E6E8" stroke-width="2.5" stroke-linecap="round" stroke-linejoin="round"/>
</svg>
