<svg width="184" height="108" viewBox="0 0 184 108" fill="none" xmlns="http://www.w3.org/2000/svg">
<g clip-path="url(#clip0_1131_374428)">
<path opacity="0.4" d="M77.2294 24.0659C77.5556 22.1828 79.3467 20.9207 81.2298 21.247L115.797 27.2355C117.68 27.5617 118.942 29.3527 118.616 31.2358C118.289 33.1189 116.498 34.381 114.615 34.0548L80.0484 28.0663C78.1653 27.74 76.9032 25.949 77.2294 24.0659Z" fill="black"/>
<g style="mix-blend-mode:overlay" opacity="0.5">
<path fill-rule="evenodd" clip-rule="evenodd" d="M39.2545 59.5489L37.9079 68.0323C37.1326 72.9162 40.4634 77.5039 45.3474 78.2791L123.055 90.6137C127.939 91.389 132.527 88.0582 133.302 83.1742L141.414 32.0675C141.51 31.4659 141.543 30.8689 141.519 30.283L138.148 50.3449C137.646 53.3345 133.246 52.9915 133.213 49.9603L114.211 67.5462C106.5 74.6827 95.8938 77.7991 85.548 75.9681L46.62 69.0788C42.0418 68.2686 38.8855 64.1081 39.2545 59.5489Z" fill="black"/>
</g>
<g style="mix-blend-mode:multiply" opacity="0.6">
<path d="M59.3253 20.6485C59.0082 22.6462 57.1316 24.0087 55.1339 23.6916C53.1361 23.3745 51.7736 21.4979 52.0907 19.5001C52.4078 17.5023 54.2844 16.1399 56.2822 16.457C58.28 16.7741 59.6424 18.6507 59.3253 20.6485Z" fill="black"/>
</g>
<path opacity="0.3" d="M70.2484 22.3828C69.9313 24.3806 68.0547 25.7431 66.057 25.426C64.0592 25.1088 62.6967 23.2323 63.0138 21.2345C63.3309 19.2367 65.2075 17.8743 67.2053 18.1914C69.2031 18.5085 70.5655 20.3851 70.2484 22.3828Z" fill="black"/>
<path fill-rule="evenodd" clip-rule="evenodd" d="M55.8141 12.3001L133.522 24.6347C137.01 25.1884 139.39 28.4653 138.836 31.9539L130.724 83.0606C130.17 86.5491 126.893 88.9283 123.404 88.3745L45.6966 76.0399C42.2081 75.4862 39.829 72.2093 40.3827 68.7207L46.484 30.2828L110.072 40.5184C110.77 40.6306 111.426 40.1562 111.539 39.4588C111.651 38.7613 111.176 38.1049 110.479 37.9926L46.885 27.7562L48.4949 17.614C49.0486 14.1255 52.3256 11.7464 55.8141 12.3001ZM44.2535 28.0164L45.9683 17.213C46.7435 12.329 51.3312 8.99823 56.2152 9.77347L133.923 22.1081C138.807 22.8833 142.138 27.471 141.362 32.3549L133.25 83.4617C132.475 88.3456 127.887 91.6764 123.003 90.9012L45.2956 78.5665C40.4116 77.7913 37.0809 73.2036 37.8561 68.3197L43.9582 29.8762L43.9542 29.8756L44.2535 28.0164Z" fill="black"/>
<path opacity="0.4" fill-rule="evenodd" clip-rule="evenodd" d="M56.0171 46.8084C56.1323 46.0837 56.8132 45.5896 57.5379 45.7048L89.8706 50.8448C90.5954 50.96 91.0895 51.6409 90.9743 52.3657C90.8591 53.0904 90.1782 53.5845 89.4534 53.4693L57.1207 48.3292C56.396 48.214 55.9019 47.5331 56.0171 46.8084Z" fill="black"/>
<path opacity="0.4" fill-rule="evenodd" clip-rule="evenodd" d="M54.2184 56.1658C54.3336 55.4411 55.0145 54.947 55.7393 55.0622L88.072 60.2022C88.7967 60.3175 89.2908 60.9984 89.1756 61.7231C89.0604 62.4478 88.3795 62.9419 87.6548 62.8267L55.322 57.6866C54.5973 57.5714 54.1032 56.8905 54.2184 56.1658Z" fill="black"/>
<path d="M154.963 70.9453C156.567 85.7649 134.761 99.7854 134.761 99.7854C134.761 99.7854 110.461 90.7532 108.858 75.9336L106.72 56.1743L118.247 54.9272L129.06 47.0938L141.299 52.433L152.825 51.186L154.963 70.9453Z" fill="#565656"/>
<path fill-rule="evenodd" clip-rule="evenodd" d="M141.299 52.433L129.06 47.0938L118.247 54.9272L106.72 56.1743L108.858 75.9336C110.461 90.7532 134.761 99.7854 134.761 99.7854C134.761 99.7854 156.567 85.7649 154.963 70.9453L152.825 51.186L141.299 52.433ZM150.469 54.1138L140.883 55.1509L129.389 50.1367L119.234 57.4933L109.648 58.5305L111.5 75.6477C111.825 78.6541 113.318 81.5126 115.602 84.1864C117.886 86.8597 120.853 89.2194 123.867 91.1939C126.87 93.1608 129.84 94.6935 132.066 95.7358C133.016 96.1807 133.826 96.5337 134.437 96.7908C134.98 96.4089 135.695 95.8909 136.528 95.2531C138.48 93.7587 141.053 91.6263 143.566 89.0626C146.088 86.4891 148.481 83.5496 150.14 80.4497C151.799 77.3492 152.647 74.2376 152.321 71.2311L150.469 54.1138Z" fill="black"/>
<path fill-rule="evenodd" clip-rule="evenodd" d="M124.28 66.5658C124.74 65.9941 125.577 65.9036 126.149 66.3636L140.943 78.2695C141.515 78.7295 141.605 79.566 141.145 80.1376C140.685 80.7093 139.849 80.7998 139.277 80.3398L124.483 68.4339C123.911 67.9739 123.82 67.1374 124.28 66.5658Z" fill="black"/>
<path fill-rule="evenodd" clip-rule="evenodd" d="M125.927 81.7841C126.499 82.2442 127.335 82.1537 127.795 81.582L139.701 66.7873C140.161 66.2156 140.071 65.3792 139.499 64.9192C138.927 64.4591 138.091 64.5496 137.631 65.1213L125.725 79.9159C125.265 80.4876 125.355 81.3241 125.927 81.7841Z" fill="black"/>
<path d="M110.935 78.6347C108.514 74.2322 107.038 56.6278 106.708 56.1875C103.277 74.7635 105.791 83.621 106.948 86.6303L118.505 89.2947C116.817 87.6438 112.873 82.1567 110.935 78.6347Z" fill="black"/>
</g>
<defs>
<clipPath id="clip0_1131_374428">
<rect width="131.814" height="108" fill="white" transform="translate(26)"/>
</clipPath>
</defs>
</svg>
