<svg width="345" height="348" viewBox="0 0 345 348" fill="none" xmlns="http://www.w3.org/2000/svg">
<circle cx="165.926" cy="219.603" r="127.765" fill="#262626"/>
<circle cx="166.373" cy="204.445" r="127.765" fill="#262626" stroke="#1C1C1C" stroke-width="2.5" stroke-linecap="round" stroke-linejoin="round"/>
<path d="M302.962 135.022L241.237 164.871C237.922 166.474 236.563 170.454 238.202 173.76L255.13 207.915C256.768 211.221 260.784 212.602 264.098 210.999L325.823 181.15C329.138 179.547 330.497 175.568 328.858 172.262L311.931 138.106C310.292 134.8 306.276 133.419 302.962 135.022Z" fill="#2B2B2B" stroke="#1C1C1C" stroke-width="2.5" stroke-linecap="round" stroke-linejoin="round"/>
<path d="M313.836 141.944L240.107 177.598L244.778 187.021L318.507 151.368L313.836 141.944Z" fill="#1C1C1C"/>
<path d="M314.186 164.705L304.262 169.504C302.914 170.155 302.362 171.773 303.028 173.117L305.988 179.09C306.654 180.434 308.287 180.996 309.635 180.344L319.558 175.545C320.906 174.893 321.459 173.275 320.792 171.931L317.832 165.959C317.166 164.614 315.533 164.053 314.186 164.705Z" fill="#1C1C1C"/>
<path d="M203.557 58.7485L156.935 42.2995C149.685 39.7416 141.721 43.4849 139.147 50.6604L122.594 96.8033C120.02 103.979 123.811 111.869 131.061 114.427L177.683 130.876C184.933 133.434 192.897 129.691 195.471 122.515L212.023 76.3725C214.597 69.197 210.807 61.3065 203.557 58.7485Z" fill="#2B2B2B" stroke="#1C1C1C" stroke-width="2.5" stroke-linecap="round" stroke-linejoin="round"/>
<path fill-rule="evenodd" clip-rule="evenodd" d="M172.631 90.0974C176.513 89.0608 179.476 85.6739 179.746 81.4788C180.087 76.2053 176.045 71.6516 170.719 71.3078C165.393 70.964 160.799 74.9603 160.459 80.2337C160.309 82.5438 161.001 84.7157 162.274 86.4562L157.427 99.9669L167.781 103.62L172.631 90.0974Z" fill="#1C1C1C"/>
<path d="M111.613 148.166L65.3542 188.232C64.7429 188.761 63.9463 189.029 63.1389 188.978C62.3314 188.926 61.579 188.56 61.0462 187.958L9.60079 129.444C9.071 128.841 8.80486 128.054 8.86086 127.254C8.91685 126.455 9.29036 125.708 9.89943 125.179L45.8432 94.0527L70.9536 97.2578L111.975 143.877C112.238 144.18 112.436 144.532 112.56 144.912C112.684 145.292 112.731 145.693 112.697 146.092C112.663 146.491 112.55 146.88 112.364 147.236C112.178 147.592 111.923 147.908 111.613 148.166V148.166Z" fill="#2B2B2B" stroke="#1C1C1C" stroke-width="2.5" stroke-linecap="round" stroke-linejoin="round"/>
<path d="M45.7844 94.0684L56.2007 105.904C56.742 106.519 57.5083 106.894 58.331 106.947C59.1538 107 59.9658 106.727 60.5887 106.188L70.8948 97.2736L45.7844 94.0684Z" fill="#1C1C1C"/>
<path d="M17.4638 119.555L72.3482 181.926" stroke="#1C1C1C" stroke-width="2.5" stroke-linecap="round" stroke-linejoin="round"/>
<circle cx="166.1" cy="203.701" r="108.309" fill="#262626"/>
<path d="M234.577 155.81C248.435 165.991 267.922 163.011 278.104 149.154C288.286 135.296 285.306 115.809 271.448 105.627C257.59 95.4453 238.103 98.4252 227.921 112.283C217.74 126.14 220.719 145.628 234.577 155.81Z" fill="#262626" stroke="#1C1C1C" stroke-width="2.5" stroke-miterlimit="10" stroke-linecap="round" stroke-linejoin="round"/>
<path d="M238.878 149.953C249.503 157.759 264.443 155.474 272.249 144.85C280.055 134.226 277.77 119.286 267.146 111.48C256.522 103.674 241.582 105.958 233.776 116.582C225.97 127.207 228.254 142.147 238.878 149.953Z" stroke="#1C1C1C" stroke-width="2.5" stroke-miterlimit="10" stroke-linecap="round" stroke-linejoin="round"/>
<path fill-rule="evenodd" clip-rule="evenodd" d="M255.19 124.302C255.911 123.321 257.168 123.537 258.272 124.348C258.548 124.551 258.916 124.821 259.239 125.153C259.592 125.507 259.648 125.689 259.424 126.186L258.365 128.335L262.837 131.951L266.869 126.463C265.521 124.764 264.636 123.783 263.653 122.872L265.365 120.542L259.448 116.194L257.533 118.8C254.241 117.562 250.873 117.968 248.35 121.402C243.237 128.362 253.838 133.082 251.63 136.087C250.819 137.191 249.479 137.151 248.253 136.249C247.64 135.799 247.194 135.377 246.947 135.007C246.747 134.765 246.684 134.53 246.923 134.139L248.036 131.982L243.601 128.252L239.636 133.648C240.434 135.132 241.681 136.52 243.032 137.701L241.139 140.277L247.057 144.624L249.129 141.804C252.399 143.073 255.811 142.605 258.402 139.079C263.493 132.15 253.207 127 255.19 124.302Z" fill="#1C1C1C"/>
<rect x="22.2117" y="160.727" width="63.1708" height="45.8614" rx="3" transform="rotate(13.9289 22.2117 160.727)" fill="#262626" stroke="#1C1C1C" stroke-width="2.5" stroke-miterlimit="10" stroke-linecap="round" stroke-linejoin="round"/>
<path d="M20.854 166.198L44.4202 194.943C45.262 195.97 46.6785 196.321 47.9025 195.807L82.1695 181.405" stroke="#1C1C1C" stroke-width="2.5" stroke-miterlimit="10" stroke-linecap="round" stroke-linejoin="round"/>
<circle cx="166.373" cy="204.992" r="108.309" fill="#2B2B2B" stroke="#1C1C1C" stroke-width="2.5" stroke-linecap="round" stroke-linejoin="round"/>
<circle cx="166.101" cy="204.993" r="100.001" fill="#2B2B2B"/>
<circle opacity="0.8" cx="166.1" cy="214.096" r="47.8967" fill="#262626"/>
<circle opacity="0.8" cx="239.597" cy="208.928" r="13.4159" fill="#262626"/>
<circle opacity="0.8" cx="235.124" cy="175.893" r="6.24642" fill="#262626"/>
<path opacity="0.8" fill-rule="evenodd" clip-rule="evenodd" d="M173.007 282.1C222.087 282.1 261.875 242.313 261.875 193.233C261.875 182.257 259.885 171.746 256.246 162.041C262.466 175.072 265.948 189.66 265.948 205.062C265.948 260.291 221.176 305.063 165.947 305.063C110.717 305.063 65.9455 260.291 65.9455 205.062C65.9455 151.536 107.998 107.832 160.867 105.188C117.53 111.107 84.1396 148.271 84.1396 193.233C84.1396 242.313 123.927 282.1 173.007 282.1Z" fill="#262626"/>
<circle cx="166.1" cy="205.062" r="100.001" stroke="#1C1C1C" stroke-width="2.5" stroke-linecap="round" stroke-linejoin="round"/>
<ellipse rx="2.12425" ry="2.7174" transform="matrix(0.954914 -0.296884 -0.255504 -0.966808 140.54 29.1601)" fill="#1C1C1C"/>
<ellipse rx="1.61307" ry="2.06348" transform="matrix(0.54729 -0.836943 -0.812609 -0.582809 76.597 57.9161)" fill="#1C1C1C"/>
<ellipse rx="1.61307" ry="2.06348" transform="matrix(0.338117 0.941104 0.954786 -0.297294 256.811 56.3929)" fill="#1C1C1C"/>
<ellipse rx="1.86489" ry="12.8276" transform="matrix(0.835729 -0.549142 -0.570986 -0.82096 112.846 33.945)" fill="#1C1C1C"/>
<ellipse rx="1.60619" ry="9.48965" transform="matrix(0.8217 0.56992 0.548057 -0.836441 220.265 36.9486)" fill="#1C1C1C"/>
<ellipse rx="1.71835" ry="16.4064" transform="matrix(0.995545 0.0942872 0.0680056 -0.997685 176.601 19.774)" fill="#1C1C1C"/>
<ellipse rx="1.53721" ry="7.47751" transform="matrix(0.545357 -0.838204 -0.852291 -0.523068 90.3976 66.2046)" fill="#1C1C1C"/>
<ellipse rx="1.53721" ry="7.47751" transform="matrix(0.340287 0.940322 0.931023 -0.364962 241.88 62.4118)" fill="#1C1C1C"/>
<path d="M58.0047 220.178V217.07L39.0382 212.377L40.2297 221.473L42.2166 228.73C41.2976 222.115 47.6138 216.817 53.9681 218.872L58.0047 220.178Z" fill="#1C1C1C"/>
<path d="M275.171 208.553V205.445L292.946 197.893L294.327 205.913L292.776 210.125C292.407 207.57 289.988 205.833 287.449 206.299L275.171 208.553Z" fill="#1C1C1C"/>
<path d="M121.621 98.7002L122.254 104.816L108.758 111.655L111.056 110.204C116.838 106.554 119.42 99.4571 117.335 92.9458L115.608 87.5524L128.035 81.8867L121.621 98.7002Z" fill="#1C1C1C"/>
<rect x="98.6058" y="263.33" width="178.954" height="12.2568" rx="6.12841" transform="rotate(-45 98.6058 263.33)" fill="#292929" stroke="#1C1C1C" stroke-width="2.5" stroke-linecap="round" stroke-linejoin="round"/>
<rect x="107.273" y="136.791" width="178.954" height="12.2568" rx="6.12841" transform="rotate(45 107.273 136.791)" fill="#292929" stroke="#1C1C1C" stroke-width="2.5" stroke-linecap="round" stroke-linejoin="round"/>
<circle cx="166.209" cy="204.394" r="42.6307" fill="#2F2F2F"/>
<path fill-rule="evenodd" clip-rule="evenodd" d="M212.329 203.903C212.329 178.432 191.68 157.783 166.209 157.783C140.738 157.783 120.089 178.432 120.089 203.903C120.089 229.375 140.738 250.022 166.209 250.022C191.68 250.022 212.329 229.375 212.329 203.903ZM124.413 203.903C124.413 180.819 143.126 162.107 166.209 162.107C189.292 162.107 208.005 180.819 208.005 203.903C208.005 226.986 189.292 245.699 166.209 245.699C143.125 245.699 124.413 226.986 124.413 203.903Z" fill="#1C1C1C"/>
<path fill-rule="evenodd" clip-rule="evenodd" d="M131.619 203.902C131.619 184.799 147.106 169.312 166.209 169.312C185.312 169.312 200.799 184.799 200.799 203.902C200.799 223.006 185.312 238.492 166.209 238.492C147.106 238.492 131.619 223.006 131.619 203.902ZM138.826 203.902C138.826 188.779 151.086 176.519 166.209 176.519C181.332 176.519 193.593 188.779 193.593 203.902C193.593 219.026 181.332 231.286 166.209 231.286C151.086 231.286 138.826 219.026 138.826 203.902Z" fill="#1C1C1C"/>
<path d="M159.723 195.982V186.748C159.723 185.476 160.649 184.445 161.791 184.445H170.627C171.769 184.445 172.695 185.476 172.695 186.748V205.3C172.695 205.707 172.549 206.097 172.291 206.385L170.999 207.825C170.46 208.424 170.46 209.396 170.999 209.996L172.291 211.435C172.549 211.723 172.695 212.114 172.695 212.521V221.056C172.695 222.328 171.769 223.359 170.627 223.359H161.791C160.649 223.359 159.723 222.328 159.723 221.056L159.738 203.182C159.738 202.775 159.883 202.384 160.141 202.096L161.434 200.657C161.972 200.057 161.972 199.085 161.434 198.486L160.141 197.046C159.883 196.758 159.738 196.368 159.723 195.982Z" fill="#1C1C1C"/>
<path d="M101.125 269.354C98.0755 266.337 98.0495 261.419 101.067 258.369L117.406 241.857L128.448 252.783L112.11 269.296C109.092 272.345 104.174 272.371 101.125 269.354V269.354Z" fill="#2D2D2D" stroke="#1C1C1C" stroke-width="2.5" stroke-linecap="round" stroke-linejoin="round"/>
<path d="M230.768 139.535C233.818 142.552 233.844 147.47 230.826 150.519L214.488 167.032L203.445 156.105L219.783 139.593C222.801 136.543 227.719 136.517 230.768 139.535V139.535Z" fill="#2D2D2D" stroke="#1C1C1C" stroke-width="2.5" stroke-linecap="round" stroke-linejoin="round"/>
<path d="M230.768 269.354C233.818 266.337 233.844 261.419 230.826 258.369L214.488 241.857L203.445 252.783L219.784 269.296C222.801 272.345 227.719 272.371 230.768 269.354V269.354Z" fill="#2D2D2D" stroke="#1C1C1C" stroke-width="2.5" stroke-linecap="round" stroke-linejoin="round"/>
<path d="M101.125 139.535C98.0753 142.552 98.0493 147.47 101.067 150.519L117.405 167.032L128.448 156.105L112.11 139.593C109.092 136.543 104.174 136.517 101.125 139.535V139.535Z" fill="#2D2D2D" stroke="#1C1C1C" stroke-width="2.5" stroke-linecap="round" stroke-linejoin="round"/>
</svg>
