<svg width="184" height="108" viewBox="0 0 184 108" fill="none" xmlns="http://www.w3.org/2000/svg">
<g clip-path="url(#clip0_1131_374407)">
<path opacity="0.4" d="M92.8193 42.3164C92.6107 38.1121 102.215 43.5294 102.215 43.5294C104.746 45.2304 100.142 49.6399 99.9532 51.9708C99.9532 51.9708 95.9182 52.2149 94.1062 55.6803C92.2941 59.1458 90.3878 65.5259 88.2217 77.464C87.0247 84.0614 92.6968 85.1413 95.3293 79.3685C92.9937 90.6696 84.7306 97.4641 84.0937 98.4465L52.2278 70.953C52.676 71.3387 67.1762 83.7248 77.997 81.0734C88.9886 78.3802 93.1814 49.6152 92.8193 42.3164Z" fill="black"/>
<path fill-rule="evenodd" clip-rule="evenodd" d="M99.8463 11.0738L96.9057 14.4041C88.8662 23.5087 86.2188 35.9509 89.4639 47.2964C90.2783 50.1434 87.8756 53.0394 84.9272 52.7647C73.1776 51.6699 61.438 56.5689 53.9742 66.151L51.2441 69.6559L84.1132 96.9256L87.0538 93.5954C95.0933 84.4908 97.7407 72.0485 94.4956 60.703C93.6813 57.856 96.0839 54.96 99.0323 55.2348C110.782 56.3295 122.521 51.4306 129.985 41.8484L132.715 38.3435L99.8463 11.0738ZM99.6667 8.75923L95.6564 13.3009C87.2348 22.8382 84.4624 35.8709 87.8615 47.7547C88.3534 49.4743 86.8626 51.2711 85.0818 51.1052C72.7748 49.9585 60.4779 55.0893 52.6593 65.1268L48.9361 69.9067L84.2928 99.2402L88.3032 94.6985C96.7247 85.1613 99.4971 72.1285 96.098 60.2447C95.6062 58.5252 97.0969 56.7283 98.8777 56.8942C111.185 58.041 123.482 52.9101 131.3 42.8726L135.023 38.0927L99.6667 8.75923Z" fill="black"/>
<path fill-rule="evenodd" clip-rule="evenodd" d="M119.594 34.0651C119.759 33.3377 119.312 32.579 118.585 32.4135C117.857 32.2481 117.099 32.6949 116.933 33.4224C116.768 34.1498 117.214 34.9085 117.942 35.074C118.669 35.2394 119.401 34.7874 119.594 34.0651ZM122.511 44.5069L118.415 37.7765C116.639 37.8065 115.084 36.6698 114.589 34.9748C114.094 33.2797 114.805 31.4471 116.301 30.5212C117.823 29.6004 119.753 29.7961 121.039 31.0224C122.325 32.2486 122.606 34.1842 121.751 35.7368L122.478 36.942L123.445 38.6699L124.326 40.5503L124.031 41.8153L125.296 42.1103L125.738 42.8962L125.204 45.1276L122.511 44.5069Z" fill="black"/>
<path d="M77.671 59.5564L66.9803 59.9848C65.3178 60.0515 64.0166 61.4421 64.0741 63.0909L64.4433 73.6937C64.5007 75.3425 65.895 76.6251 67.5574 76.5585L78.2482 76.1301C79.9107 76.0634 81.2118 74.6728 81.1544 73.024L80.7852 62.4212C80.7278 60.7724 79.3335 59.4898 77.671 59.5564Z" fill="#434343"/>
<path fill-rule="evenodd" clip-rule="evenodd" d="M67.0093 60.8183C65.8 60.8668 64.8655 61.8759 64.9067 63.0582L65.2759 73.6609C65.3171 74.8432 66.3192 75.7747 67.5284 75.7263L78.2192 75.2979C79.4284 75.2494 80.3629 74.2402 80.3217 73.058L79.9525 62.4552C79.9113 61.273 78.9093 60.3414 77.7 60.3899L67.0093 60.8183ZM63.2414 63.1249C63.1677 61.0095 64.8356 59.2374 66.9513 59.1526L77.642 58.7242C79.7577 58.6395 81.5442 60.2731 81.6178 62.3885L81.9871 72.9913C82.0607 75.1067 80.3929 76.8787 78.2772 76.9635L67.5864 77.3919C65.4707 77.4767 63.6843 75.8431 63.6106 73.7277L63.2414 63.1249Z" fill="black"/>
<path fill-rule="evenodd" clip-rule="evenodd" d="M73.9653 68.3359C74.6629 67.8166 74.9874 66.8981 74.7056 66.0329C74.3515 64.9454 73.1741 64.3538 72.0758 64.7114C70.9775 65.069 70.3741 66.2404 70.7282 67.3279C70.8833 67.8041 71.1962 68.1852 71.5912 68.4332L71.6993 71.538L74.0735 71.4428L73.9653 68.3359Z" fill="black"/>
<path d="M113.92 49.0454L98.937 51.8441L96.9606 52.2054C96.2199 52.3386 95.5139 51.9295 95.2236 51.2684C95.1906 51.162 95.1532 51.0742 95.1248 50.9492L93.5331 42.4371C93.367 41.5901 93.9422 40.7675 94.7847 40.6199L111.763 37.4645C112.61 37.2984 113.432 37.8737 113.58 38.7161L115.172 47.2282C115.319 48.0707 114.762 48.8979 113.92 49.0454Z" fill="#434343"/>
<path fill-rule="evenodd" clip-rule="evenodd" d="M112.759 38.8603C112.691 38.4723 112.307 38.2075 111.923 38.2827L111.915 38.2843L94.9285 41.4412C94.5404 41.5092 94.2757 41.8937 94.3509 42.2772L94.3523 42.2844L95.9404 50.7774C95.9456 50.7984 95.9523 50.8205 95.9627 50.8517C95.9674 50.8657 95.9714 50.8772 95.9763 50.8915C95.9793 50.9004 95.9827 50.9102 95.9869 50.9224C95.9914 50.9356 95.9963 50.9501 96.0015 50.9658C96.1525 51.2723 96.4818 51.4448 96.8123 51.3858C96.8126 51.3857 96.812 51.3858 96.8123 51.3858L98.7841 51.0253L98.7872 51.0247L113.776 48.225C114.145 48.1603 114.421 47.783 114.351 47.3762L112.759 38.8603ZM114.4 38.5676C114.171 37.275 112.914 36.3925 111.607 36.6463L94.6362 39.8003C93.3432 40.0295 92.4605 41.2865 92.7146 42.594L94.3086 51.1186L94.3122 51.1342C94.3439 51.274 94.4065 51.4545 94.4233 51.5031C94.4257 51.5098 94.4271 51.514 94.4275 51.5152L94.4415 51.5605L94.4606 51.6039C94.8977 52.5994 95.969 53.2308 97.1081 53.026L97.1104 53.0255L99.0869 52.6642L99.0901 52.6636L114.069 49.8658C115.381 49.6331 116.216 48.3599 115.992 47.0849L114.4 38.5676Z" fill="black"/>
<path d="M113.779 39.2453L93.5197 43.0254L93.9961 45.5789L114.256 41.7988L113.779 39.2453Z" fill="black"/>
<path fill-rule="evenodd" clip-rule="evenodd" d="M83.2334 98.5222L49.098 70.4525C48.5476 69.9999 47.7345 70.0792 47.2819 70.6296C46.8293 71.18 46.9086 71.9931 47.459 72.4457L81.5943 100.515C82.1447 100.968 82.9578 100.889 83.4104 100.338C83.8631 99.7879 83.7838 98.9748 83.2334 98.5222ZM50.1566 69.1652C48.8952 68.128 47.0318 68.3097 45.9946 69.571C44.9573 70.8324 45.1391 72.6958 46.4004 73.7331L80.5358 101.803C81.7971 102.84 83.6605 102.658 84.6978 101.397C85.735 100.136 85.5533 98.2722 84.2919 97.2349L50.1566 69.1652Z" fill="black"/>
<path fill-rule="evenodd" clip-rule="evenodd" d="M136.161 34.9519L102.025 6.88221C101.475 6.4296 100.662 6.50889 100.209 7.0593C99.7566 7.60971 99.8358 8.42281 100.386 8.87542L134.522 36.9451C135.072 37.3977 135.885 37.3185 136.338 36.768C136.79 36.2176 136.711 35.4045 136.161 34.9519ZM103.084 5.59489C101.822 4.55765 99.9591 4.73935 98.9218 6.00072C97.8846 7.2621 98.0663 9.1255 99.3277 10.1627L133.463 38.2325C134.724 39.2697 136.588 39.088 137.625 37.8266C138.662 36.5652 138.481 34.7018 137.219 33.6646L103.084 5.59489Z" fill="black"/>
</g>
<defs>
<clipPath id="clip0_1131_374407">
<rect width="124.444" height="100" fill="white" transform="translate(30 4)"/>
</clipPath>
</defs>
</svg>
