<svg width="47" height="42" viewBox="0 0 47 42" fill="none" xmlns="http://www.w3.org/2000/svg">
<g opacity="0.7">
<path opacity="0.4" fill-rule="evenodd" clip-rule="evenodd" d="M35.5697 25.7653C35.5346 25.8333 35.4987 25.9009 35.462 25.968C35.3043 26.2574 35.225 26.5856 35.2231 26.9206C35.3597 26.5417 35.4754 26.156 35.5697 25.7653ZM37.0546 34.9312C37.6405 37.5588 35.9654 39.8283 34.1989 40.8421C32.1281 42.0307 28.6204 42.1249 26.2041 39.9097C25.0462 38.8482 24.5131 37.6169 24.0598 36.5698C23.567 35.4316 23.1684 34.5111 22.1642 34.2624C18.6416 33.7665 16.1205 31.7207 14.5211 28.2635C12.2731 23.4465 14.0058 17.6232 18.4745 14.5675C16.5933 17.2858 16.0835 20.936 17.3935 24.2865C18.7037 27.6681 21.4942 29.9598 24.6321 30.7348L24.6333 30.7352C25.2591 30.8882 25.7895 31.3387 26.0641 31.9602L27.5486 35.32L27.5247 35.3306C28.6156 37.7996 31.4224 38.952 33.7937 37.9044L34.6113 37.5432C35.7837 37.0253 36.6302 36.0666 37.0546 34.9312Z" fill="#33103F"/>
<path opacity="0.4" fill-rule="evenodd" clip-rule="evenodd" d="M22.5915 11.4042C18.2589 13.6737 15.9769 18.752 17.3083 23.5678C18.2825 27.1395 20.943 29.7338 24.1551 30.8124C25.0391 31.1071 25.7296 31.8074 26.0221 32.7058L27.3491 36.782L37.061 33.6203L35.7391 29.5596C35.4516 28.6767 35.577 27.6936 36.1181 26.935C36.1216 26.9301 36.1251 26.9252 36.1286 26.9203C35.8627 27.0312 35.5903 27.1323 35.3118 27.2233C29.615 29.0837 23.4886 25.9737 21.6282 20.2769C20.6226 17.1977 21.0692 13.9929 22.5915 11.4042Z" fill="#33103F"/>
<path fill-rule="evenodd" clip-rule="evenodd" d="M28.1574 22.6897C27.8125 22.801 27.584 23.0492 27.6469 23.2442L31.4308 34.9711C31.4937 35.166 31.8243 35.2339 32.1691 35.1226C32.5139 35.0113 32.7425 34.7631 32.6796 34.5682L28.8956 22.8412C28.8327 22.6463 28.5022 22.5785 28.1574 22.6897Z" fill="#BBADFF"/>
<path d="M30.6385 20.6569C31.4527 22.1051 30.9388 23.9391 29.4907 24.7533C28.0425 25.5675 26.2085 25.0536 25.3943 23.6055C24.5801 22.1573 25.094 20.3233 26.5421 19.5091C27.9903 18.6949 29.8243 19.2088 30.6385 20.6569Z" fill="#BBADFF"/>
<path d="M17.5979 5.5627C17.3644 5.20161 16.9529 5.06658 16.6788 5.26109C16.4046 5.45561 16.3717 5.90601 16.6052 6.26709C16.8387 6.62818 17.2502 6.76321 17.5243 6.5687C17.7985 6.37419 17.8314 5.92378 17.5979 5.5627Z" fill="#33103F"/>
<path d="M5.80215 15.8463C5.43093 15.7632 5.08755 15.9332 5.03519 16.2259C4.98282 16.5186 5.2413 16.8232 5.61252 16.9063C5.98374 16.9893 6.32712 16.8193 6.37948 16.5266C6.43184 16.2339 6.17336 15.9293 5.80215 15.8463Z" fill="#33103F"/>
<path d="M43.4058 3.35445C43.7425 3.07939 43.8322 2.65071 43.606 2.39696C43.3799 2.14322 42.9235 2.1605 42.5868 2.43556C42.25 2.71061 42.1604 3.1393 42.3865 3.39304C42.6127 3.64679 43.069 3.62951 43.4058 3.35445Z" fill="#33103F"/>
<path d="M12.1512 9.59028C10.346 8.66215 8.76757 8.11956 8.62576 8.37836C8.48396 8.63716 9.83244 9.59935 11.6377 10.5275C13.4429 11.4556 15.0213 11.9982 15.1631 11.7394C15.3049 11.4806 13.9565 10.5184 12.1512 9.59028Z" fill="#33103F"/>
<path d="M32.5414 3.1768C32.9588 1.63519 33.0871 0.322652 32.8282 0.245158C32.5692 0.167664 32.0209 1.35456 31.6036 2.89617C31.1862 4.43778 31.0578 5.75032 31.3168 5.82782C31.5758 5.90531 32.1241 4.71841 32.5414 3.1768Z" fill="#33103F"/>
<path d="M22.6865 1.06905C21.9556 -1.82242 21.116 -4.11086 20.8113 -4.04232C20.5065 -3.97377 20.852 -1.57421 21.5829 1.31726C22.3138 4.20873 23.1534 6.49717 23.4582 6.42863C23.7629 6.36009 23.4175 3.96052 22.6865 1.06905Z" fill="#33103F"/>
<path d="M10.8577 16.6977C9.49443 16.494 8.34933 16.555 8.30007 16.8341C8.25082 17.1131 9.31606 17.5045 10.6794 17.7083C12.0427 17.912 13.1878 17.8509 13.237 17.5719C13.2863 17.2928 12.221 16.9014 10.8577 16.6977Z" fill="#33103F"/>
<path d="M38.9618 7.59215C40.1076 6.51051 40.8612 5.43804 40.6451 5.19673C40.429 4.95542 39.3251 5.63663 38.1794 6.71827C37.0336 7.79992 36.28 8.87238 36.4961 9.1137C36.7122 9.35501 37.8161 8.67379 38.9618 7.59215Z" fill="#33103F"/>
<path fill-rule="evenodd" clip-rule="evenodd" d="M23.4962 10.0249C29.5602 7.73993 36.2569 10.9956 38.2449 17.1021C39.3979 20.6438 38.7053 24.3651 36.6935 27.1794C36.2946 27.7391 36.1931 28.4801 36.4137 29.1583L37.428 32.2644C37.4877 32.447 37.4723 32.6458 37.3853 32.817C37.2982 32.9883 37.1467 33.1179 36.9641 33.1773L27.2521 36.3391C26.8722 36.4627 26.464 36.2553 26.34 35.8755L25.3205 32.7539C25.098 32.0703 24.5753 31.5434 23.9127 31.3225L23.9112 31.322C20.4829 30.1708 17.6382 27.3991 16.5968 23.583C15.051 17.9888 18.0639 12.0683 23.4962 10.0249ZM36.8683 17.5502C35.1349 12.2255 29.295 9.3866 24.0063 11.3797C19.2744 13.1594 16.6454 18.3257 17.9924 23.1984L17.9931 23.2008C18.9005 26.5273 21.3766 28.9438 24.372 29.9497L24.1416 30.6359L24.3705 29.9492C25.4759 30.3177 26.3345 31.192 26.6969 32.3052L27.4916 34.7387L26.8039 34.9625L27.028 35.6508L27.7161 35.4261L27.4916 34.7387L35.827 32.0251L36.0519 32.7138L36.74 32.4891L36.5159 31.8008L35.827 32.0251L35.0375 29.6077C34.6836 28.5205 34.8326 27.2954 35.5154 26.3381C37.2702 23.8833 37.8736 20.638 36.8683 17.5502Z" fill="#33103F"/>
<path d="M26.1884 35.2998L37.2338 31.704C38.1405 34.489 36.6178 37.4816 33.8328 38.3882L32.8726 38.7008C30.0877 39.6075 27.095 38.0848 26.1884 35.2998Z" fill="#33103F"/>
<path opacity="0.1" fill-rule="evenodd" clip-rule="evenodd" d="M27.4659 34.8854L26.1838 35.3027C27.0905 38.0877 30.0831 39.6104 32.8681 38.7038L33.8283 38.3912C35.1815 37.9506 36.2367 37.0176 36.86 35.8552C36.2887 36.4251 35.5783 36.8728 34.7584 37.1397L33.7983 37.4522C31.3057 38.2637 28.6468 37.1292 27.4659 34.8854Z" fill="#35414C"/>
<g style="mix-blend-mode:overlay" opacity="0.25">
<path d="M32.2015 14.2291C34.3767 15.7405 35.1188 18.4357 33.8589 20.2489C32.599 22.0621 29.8143 22.3067 27.639 20.7953C25.4638 19.2839 24.7218 16.5887 25.9817 14.7755C27.2415 12.9623 30.0263 12.7176 32.2015 14.2291Z" fill="white"/>
</g>
</g>
</svg>
