<svg width="184" height="122" viewBox="0 0 184 122" fill="none" xmlns="http://www.w3.org/2000/svg">
<g clip-path="url(#clip0_1131_374421)">
<g style="mix-blend-mode:overlay">
<path fill-rule="evenodd" clip-rule="evenodd" d="M69.6008 57.3362C71.7619 45.0585 83.4786 36.8554 95.7707 39.014C108.063 41.1726 116.276 52.8756 114.114 65.1533L112.183 76.1249L104.538 74.7823L106.469 63.8107C107.888 55.7504 102.496 48.0675 94.4265 46.6504C86.3568 45.2332 78.6649 50.6186 77.2461 58.6788L75.3148 69.6505L67.6695 68.3079L69.6008 57.3362Z" fill="black"/>
<path opacity="0.45" fill-rule="evenodd" clip-rule="evenodd" d="M54.5429 79.4941C53.9421 80.8651 53.4939 82.329 53.2229 83.8684L53.035 84.9362C51.2032 95.3429 58.1644 105.262 68.5832 107.092L97.907 112.242C108.326 114.071 118.257 107.118 120.089 96.7115L120.277 95.6437C120.433 94.7573 120.525 93.8744 120.557 92.9997C117.096 100.897 108.573 105.714 99.6949 104.155L70.3712 99.0059C60.8398 97.3321 54.2021 88.8879 54.5429 79.4941Z" fill="#B9BDC2"/>
<path fill-rule="evenodd" clip-rule="evenodd" d="M104.552 75.251L75.0984 70.0787C65.6418 68.418 56.628 74.7289 54.9654 84.1743L54.7774 85.2421C53.1148 94.6876 59.4331 103.691 68.8896 105.352L98.3429 110.524C107.799 112.185 116.813 105.874 118.476 96.4282L118.664 95.3604C120.326 85.9149 114.008 76.9116 104.552 75.251ZM75.4047 68.3383C64.9859 66.5086 55.0547 73.4617 53.2229 83.8683L53.035 84.9361C51.2032 95.3428 58.1644 105.262 68.5832 107.092L98.0366 112.264C108.455 114.094 118.387 107.141 120.218 96.7342L120.406 95.6664C122.238 85.2597 115.277 75.3402 104.858 73.5106L75.4047 68.3383Z" fill="black"/>
<path d="M89.0231 90.7049C87.4951 99.3854 79.2114 105.185 70.5208 103.659C61.8302 102.133 56.0237 93.8587 57.5516 85.1782C59.0796 76.4978 67.3633 70.6981 76.0539 72.2243C84.7445 73.7504 90.551 82.0245 89.0231 90.7049Z" fill="#B4B4B4"/>
<path fill-rule="evenodd" clip-rule="evenodd" d="M75.9008 73.0962C67.6913 71.6545 59.8662 77.1331 58.4229 85.333C56.9795 93.5328 62.4645 101.349 70.6739 102.79C78.8834 104.232 86.7085 98.7535 88.1518 90.5537C89.5952 82.3538 84.1102 74.5379 75.9008 73.0962ZM56.6804 85.027C58.293 75.8659 67.0354 69.7451 76.2071 71.3558C85.3789 72.9665 91.5068 81.6986 89.8943 90.8597C88.2817 100.021 79.5393 106.141 70.3676 104.531C61.1958 102.92 55.0679 94.188 56.6804 85.027Z" fill="black"/>
<path fill-rule="evenodd" clip-rule="evenodd" d="M97.3359 30.1181C85.8648 28.1036 74.7419 32.4152 67.5569 40.5581C66.3168 41.9636 64.1707 42.0988 62.7636 40.8601C61.3565 39.6214 61.2211 37.4779 62.4613 36.0724C71.1457 26.2302 84.6143 20.9957 98.5121 23.4363C112.41 25.8769 123.283 35.3861 128.086 47.5968C128.772 49.3405 127.912 51.3093 126.167 51.9944C124.421 52.6794 122.45 51.8211 121.764 50.0774C117.791 39.975 108.807 32.1325 97.3359 30.1181Z" fill="black"/>
<path fill-rule="evenodd" clip-rule="evenodd" d="M100.046 14.7222C83.2902 11.7796 67.0443 18.0799 56.5533 29.9697C55.3131 31.3751 53.1671 31.5103 51.7599 30.2716C50.3528 29.0329 50.2174 26.8894 51.4576 25.4839C63.4481 11.8949 82.0397 4.67167 101.223 8.04037C120.405 11.4091 135.416 24.5331 142.046 41.3923C142.732 43.136 141.873 45.1048 140.127 45.7899C138.382 46.4749 136.41 45.6166 135.725 43.8729C129.923 29.122 116.803 17.6648 100.046 14.7222Z" fill="black"/>
<path fill-rule="evenodd" clip-rule="evenodd" d="M79.3977 85.4399C80.056 84.979 80.2155 84.0725 79.7541 83.415C79.2928 82.7575 78.3851 82.5981 77.7269 83.059L73.6438 85.9177L70.7817 81.8394C70.3203 81.1819 69.4127 81.0225 68.7544 81.4833C68.0962 81.9442 67.9366 82.8508 68.398 83.5082L71.2601 87.5866L67.1769 90.4453C66.5187 90.9061 66.3591 91.8127 66.8205 92.4702C67.2819 93.1276 68.1895 93.287 68.8478 92.8262L72.9309 89.9675L75.793 94.0458C76.2544 94.7033 77.162 94.8627 77.8202 94.4018C78.4785 93.941 78.638 93.0344 78.1767 92.377L75.3146 88.2986L79.3977 85.4399Z" fill="#262626"/>
</g>
</g>
<defs>
<clipPath id="clip0_1131_374421">
<rect width="152" height="122" fill="white" transform="translate(16)"/>
</clipPath>
</defs>
</svg>
