<svg width="560" height="180" viewBox="0 0 560 180" fill="none" xmlns="http://www.w3.org/2000/svg">
<path opacity="0.05" d="M162.46 73.1031C153.796 89.7654 133.204 101.301 114.756 96.7059C91.9138 91.0166 70.4478 56.3088 84.9642 33.176C98.9171 10.9413 133.926 16.5476 148.165 23.9521C162.404 31.3567 171.125 56.4408 162.46 73.1031Z" fill="white"/>
<path opacity="0.05" d="M336 157.5C288.142 166.323 218.078 151.564 231.245 73.444C248.837 -30.9316 376.572 14.9172 435.331 46.325C520.751 91.9834 525.134 160.704 473.498 160.013C421.861 159.323 383.858 148.677 336 157.5Z" fill="white"/>
<circle cx="258.087" cy="139.184" r="18.9299" transform="rotate(29.2751 258.087 139.184)" fill="#6C6C6C" stroke="black" stroke-width="2.5" stroke-miterlimit="10" stroke-linecap="round" stroke-linejoin="round"/>
<path d="M264.432 127.867L257.615 140.028L260.91 151.731" stroke="black" stroke-width="3" stroke-miterlimit="10" stroke-linecap="round" stroke-linejoin="round"/>
<rect x="124.005" y="58.5938" width="311.991" height="53.3962" rx="10" fill="#6C6C6C"/>
<path fill-rule="evenodd" clip-rule="evenodd" d="M134.004 58.5938C128.482 58.5938 124.004 63.0709 124.004 68.5937V75.5082C124.004 69.9853 128.482 65.5082 134.004 65.5082H425.995C431.518 65.5082 435.995 69.9853 435.995 75.5082V68.5938C435.995 63.0709 431.518 58.5938 425.995 58.5938H134.004Z" fill="white" fill-opacity="0.12"/>
<rect x="124.005" y="58.5938" width="311.991" height="53.3962" rx="10" stroke="black" stroke-width="2.5" stroke-miterlimit="10" stroke-linecap="round" stroke-linejoin="round"/>
<circle cx="147.292" cy="83.4941" r="9.9327" transform="rotate(-45 147.292 83.4941)" stroke="black" stroke-width="2.5" stroke-miterlimit="10" stroke-linecap="round" stroke-linejoin="round"/>
<path d="M154.121 90.8838L162.719 99.4817" stroke="black" stroke-width="2.5" stroke-miterlimit="10" stroke-linecap="round" stroke-linejoin="round"/>
<rect x="328.789" y="22.4209" width="29.9848" height="22.1459" rx="3" transform="rotate(-14.9602 328.789 22.4209)" fill="#333333" stroke="black" stroke-width="2.5" stroke-miterlimit="10" stroke-linecap="round" stroke-linejoin="round"/>
<rect x="333.165" y="24.9277" width="15.364" height="14.6443" rx="3" transform="rotate(-14.9602 333.165 24.9277)" fill="black"/>
<path d="M365.206 17.1348L368.706 30.2326" stroke="black" stroke-width="2.5" stroke-miterlimit="10" stroke-linecap="round" stroke-linejoin="round"/>
<path d="M464.044 145.285C465.389 138.151 472.263 133.459 479.396 134.804" stroke="black" stroke-width="2.5" stroke-miterlimit="10" stroke-linecap="round" stroke-linejoin="round"/>
<path d="M481.123 122.796C467.88 120.299 455.121 129.01 452.624 142.252L452.464 143.102" stroke="black" stroke-width="2.5" stroke-miterlimit="10" stroke-linecap="round" stroke-linejoin="round"/>
<circle cx="476.815" cy="145.636" r="2.89608" transform="rotate(10.678 476.815 145.636)" fill="black"/>
<circle cx="81.225" cy="57.3332" r="13.381" fill="#6C6C6C" stroke="black" stroke-width="2.5" stroke-miterlimit="10" stroke-linecap="round" stroke-linejoin="round"/>
<circle cx="81.2248" cy="57.3333" r="7.40362" fill="black"/>
<path d="M124.513 134.021L89.8502 139.508L113.76 153.032L124.513 134.021Z" fill="black"/>
<path d="M139.934 132.068L89.2269 138.882L124.723 158.96L139.934 132.068Z" stroke="black" stroke-width="2.5" stroke-miterlimit="10" stroke-linecap="round" stroke-linejoin="round"/>
<path d="M404.743 67.0371C414.823 67.0371 422.998 75.2121 422.998 85.2921C422.998 95.372 414.823 103.547 404.743 103.547C394.663 103.547 386.488 95.372 386.488 85.292C386.488 75.2121 394.644 67.0371 404.743 67.0371Z" fill="white" stroke="black" stroke-width="2.5" stroke-miterlimit="10" stroke-linecap="round" stroke-linejoin="round"/>
<path d="M404.733 72.4648C411.814 72.4648 417.562 78.213 417.562 85.2931C417.562 92.3732 411.814 98.1214 404.733 98.1214C397.653 98.1214 391.905 92.3732 391.905 85.2931C391.888 78.213 397.636 72.4648 404.733 72.4648Z" stroke="#0572EC" stroke-width="2.5" stroke-miterlimit="10" stroke-linecap="round" stroke-linejoin="round"/>
<path d="M406.536 77.3398L402.93 77.3398C402.486 77.3398 402.116 77.7283 402.079 78.2276L402.079 78.2831L402.079 82.0563C402.079 82.2042 402.134 82.3337 402.208 82.4447L402.245 82.4817L402.782 83.0735C402.985 83.314 403.004 83.6654 402.819 83.9243L402.782 83.9613L402.245 84.5532C402.153 84.6642 402.097 84.7936 402.079 84.9416L402.079 84.9971L402.079 92.3029C402.079 92.8023 402.43 93.2092 402.874 93.2462L402.93 93.2462L406.536 93.2462C406.98 93.2462 407.35 92.8578 407.387 92.3584L407.387 92.3029L407.387 88.8072C407.387 88.6593 407.332 88.5113 407.258 88.4003L407.221 88.3633L406.684 87.7715C406.481 87.531 406.462 87.1796 406.647 86.9207L406.684 86.8837L407.221 86.2918C407.313 86.1808 407.369 86.0514 407.387 85.9034L407.387 85.8479L407.387 78.2646C407.387 77.7652 406.999 77.3398 406.536 77.3398Z" fill="black"/>
<rect x="478.594" y="25.1953" width="44.4552" height="27.2181" rx="3" transform="rotate(25.6941 478.594 25.1953)" stroke="black" stroke-width="2.5" stroke-miterlimit="10" stroke-linecap="round" stroke-linejoin="round"/>
<path d="M479.819 47.5762L500.4 57.4785" stroke="black" stroke-width="2.5" stroke-miterlimit="10" stroke-linecap="round" stroke-linejoin="round"/>
<rect x="481.259" y="33.2621" width="32.4385" height="7.81559" transform="rotate(25.6941 481.259 33.2621)" fill="black" stroke="black"/>
<path d="M183.644 72.0107V98.5733" stroke="white" stroke-width="2.5" stroke-miterlimit="10" stroke-linecap="round" stroke-linejoin="round"/>
</svg>
