<svg width="21" height="16" viewBox="0 0 21 16" fill="none" xmlns="http://www.w3.org/2000/svg">
<path fill-rule="evenodd" clip-rule="evenodd" d="M0 1.33333C0 0.597005 0.597005 0 1.33333 0H14.6667C15.403 0 16 0.597005 16 1.33333V6.23633C16.4886 5.68262 17.2034 5.33333 18 5.33333C19.4727 5.33333 20.6667 6.52734 20.6667 8C20.6667 9.47266 19.4727 10.6667 18 10.6667C17.2034 10.6667 16.4886 10.3174 16 9.76367V14.6667C16 15.403 15.403 16 14.6667 16H1.33333C0.597005 16 0 15.403 0 14.6667V10.2445C0 9.33333 1.56055 9.26921 2.00618 9.77083C2.49479 10.3203 3.20703 10.6667 4 10.6667C5.47266 10.6667 6.66667 9.47266 6.66667 8C6.66667 6.52734 5.47266 5.33333 4 5.33333C3.20703 5.33333 2.49479 5.67969 2.00618 6.22917C1.56055 6.73079 0 6.66667 0 5.75553V1.33333Z" fill="black" />
</svg>
