<svg xmlns="http://www.w3.org/2000/svg" width="128" height="128" viewBox="0 0 128 128">
	<path fill="#000" fill-rule="nonzero" d="M64,0 C99.3462646,0 128,28.6537354 128,64 C128,99.347368 99.3462646,128 64,128 C28.6537354,128 0,99.347368 0,64 C0,28.6537354 28.6537354,0 64,0 Z M64,6 C31.9674439,6 6,31.9674439 6,64 C6,96.0332624 31.9670468,122 64,122 C96.0329532,122 122,96.0332624 122,64 C122,31.9674439 96.0325561,6 64,6 Z M64,16 C90.5094385,16 112,37.4905615 112,64 C112,90.5101139 90.5098047,112 64,112 C37.4901953,112 16,90.5101139 16,64 C16,37.4905615 37.4905615,16 64,16 Z M64,26 C43.0134444,26 26,43.0134444 26,64 C26,84.9876112 43.0134444,102 64,102 C84.9865556,102 102,84.9876112 102,64 C102,43.0134444 84.9865556,26 64,26 Z M70.1309298,37 C71.7154735,37 73,38.4308353 73,40.19586 L73,65.9394797 C73,66.5045429 72.7984826,67.0464625 72.4397792,67.4460225 L70.6466103,69.4434351 C69.8996492,70.2754757 69.8996492,71.6244801 70.6466103,72.4565208 L72.4397792,74.4539333 C72.7984826,74.8534933 73,75.395413 73,75.9604762 L73,87.80414 C73,89.5691647 71.7154735,91 70.1309298,91 L57.8690702,91 C56.2845265,91 55,89.5691647 55,87.80414 L55.0196572,63.0007002 C55.0196572,62.435637 55.2211746,61.8937173 55.579878,61.4941573 L57.3730469,59.4967448 C58.1200079,58.6647041 58.1200079,57.3156997 57.3730469,56.4836591 L55.579878,54.4862465 C55.2211746,54.0866865 55.0196572,53.5447669 55,53.0097656 L55,40.19586 C55,38.4308353 56.2845265,37 57.8690702,37 L70.1309298,37 Z" />
</svg>
