<svg xmlns="http://www.w3.org/2000/svg" width="18" height="36" viewBox="0 0 18 36">
  <g fill="none" fill-rule="evenodd">
    <path fill="#FFF" fill-opacity=".75" d="M7.42166101,29.0074474 L15.2227551,19.3708018 C15.5702517,18.9415413 16.1999377,18.8752585 16.6291982,19.2227551 C17.0584587,19.5702517 17.1247415,20.1999377 16.7772449,20.6291982 L8.27724487,31.1291982 C7.90368924,31.5906493 7.21270324,31.6269168 6.79289322,31.2071068 L2.29289322,26.7071068 C1.90236893,26.3165825 1.90236893,25.6834175 2.29289322,25.2928932 C2.68341751,24.9023689 3.31658249,24.9023689 3.70710678,25.2928932 L7.42166101,29.0074474 Z"/>
    <path fill="#198CFF" d="M7.42166101,11.0074474 L15.2227551,1.37080177 C15.5702517,0.941541282 16.1999377,0.875258543 16.6291982,1.22275513 C17.0584587,1.57025172 17.1247415,2.19993774 16.7772449,2.62919823 L8.27724487,13.1291982 C7.90368924,13.5906493 7.21270324,13.6269168 6.79289322,13.2071068 L2.29289322,8.70710678 C1.90236893,8.31658249 1.90236893,7.68341751 2.29289322,7.29289322 C2.68341751,6.90236893 3.31658249,6.90236893 3.70710678,7.29289322 L7.42166101,11.0074474 Z"/>
  </g>
</svg>
