<svg xmlns="http://www.w3.org/2000/svg" width="140" height="140"><defs><filter x="-50%" y="-50%" width="200%" height="200%" filterUnits="objectBoundingBox" id="filter-1"><feOffset dx="0" dy="4" in="SourceAlpha" result="shadowOffsetOuter1"/><feGaussianBlur stdDeviation="3" in="shadowOffsetOuter1" result="shadowBlurOuter1"/><feColorMatrix values="0 0 0 0 0   0 0 0 0 0   0 0 0 0 0  0 0 0 0.07 0" in="shadowBlurOuter1" type="matrix" result="shadowMatrixOuter1"/><feMerge><feMergeNode in="shadowMatrixOuter1"/><feMergeNode in="SourceGraphic"/></feMerge></filter></defs><g fill-rule="evenodd" transform="translate(-.5, -.5)"><path d="M12.5 72.5C12.5 104.5 38.5 130.5 70.5 130.5 102.5 130.5 128.5 104.5 128.5 72.5 128.5 40.5 102.5 14.5 70.5 14.5 38.5 14.5 12.5 40.5 12.5 72.5ZM22.5 72.5C22.5 99 44 120.5 70.5 120.5 97 120.5 118.5 99 118.5 72.5 118.5 46 97 24.5 70.5 24.5 44 24.5 22.5 46 22.5 72.5Z" fill-opacity="0.25" fill="#000" filter="url(#filter-1)"/><path d="M12.5 70.5C12.5 102.5 38.5 128.5 70.5 128.5 102.5 128.5 128.5 102.5 128.5 70.5 128.5 38.5 102.5 12.5 70.5 12.5 38.5 12.5 12.5 38.5 12.5 70.5ZM22.5 70.5C22.5 97 44 118.5 70.5 118.5 97 118.5 118.5 97 118.5 70.5 118.5 44 97 22.5 70.5 22.5 44 22.5 22.5 44 22.5 70.5Z" fill="#FFF"/><path d="M90.9 119.4C108.9 111.7 121.5 93.8 121.5 73 121.5 45.1 98.9 22.5 71 22.5 43.1 22.5 20.5 45.1 20.5 73 20.5 100.7 42.8 123.2 70.4 123.5 77.7 123.4 84.6 121.9 90.9 119.4ZM69.9 123.5C40.9 123.2 17.5 99.6 17.5 70.5 17.5 41.2 41.2 17.5 70.5 17.5 99.8 17.5 123.5 41.2 123.5 70.5 123.5 92.5 110.1 111.4 91 119.4 112.4 110.8 127.5 89.9 127.5 65.5 127.5 62.5 127.3 59.6 126.8 56.7 127.9 61.1 128.5 65.8 128.5 70.5 128.5 102.5 102.5 128.5 70.5 128.5 41.5 128.5 17.4 107.2 13.2 79.3 19.4 104.7 42.2 123.5 69.5 123.5 69.6 123.5 69.8 123.5 69.9 123.5Z" fill-opacity="0.1" fill="#000"/><path d="M70.5 34.5C90.4 34.5 106.5 50.6 106.5 70.5 106.5 90.4 90.4 106.5 70.5 106.5 50.6 106.5 34.5 90.4 34.5 70.5 34.5 50.6 50.6 34.5 70.5 34.5L70.5 34.5Z" fill="#F3F3F3"/><path d="M11.5 70.5C11.5 37.9 37.9 11.5 70.5 11.5 103.1 11.5 129.5 37.9 129.5 70.5 129.5 103.1 103.1 129.5 70.5 129.5 37.9 129.5 11.5 103.1 11.5 70.5ZM12.5 70.5C12.5 102.5 38.5 128.5 70.5 128.5 102.5 128.5 128.5 102.5 128.5 70.5 128.5 38.5 102.5 12.5 70.5 12.5 38.5 12.5 12.5 38.5 12.5 70.5ZM22.5 70.5C22.5 97 44 118.5 70.5 118.5 97 118.5 118.5 97 118.5 70.5 118.5 44 97 22.5 70.5 22.5 44 22.5 22.5 44 22.5 70.5ZM23.5 70.5C23.5 44.5 44.5 23.5 70.5 23.5 96.5 23.5 117.5 44.5 117.5 70.5 117.5 96.5 96.5 117.5 70.5 117.5 44.5 117.5 23.5 96.5 23.5 70.5ZM70.5 33.5C90.9 33.5 107.5 50.1 107.5 70.5 107.5 90.9 90.9 107.5 70.5 107.5 50.1 107.5 33.5 90.9 33.5 70.5 33.5 50.1 50.1 33.5 70.5 33.5ZM70.5 34.5C50.6 34.5 34.5 50.6 34.5 70.5 34.5 90.4 50.6 106.5 70.5 106.5 90.4 106.5 106.5 90.4 106.5 70.5 106.5 50.6 90.4 34.5 70.5 34.5Z" fill-opacity="0.25" fill="#000"/><g transform="translate(52, 52)"><path d="M35.5 18.5C35.5 27.9 27.9 35.5 18.5 35.5 9.1 35.5 1.5 27.9 1.5 18.5 1.5 9.1 9.1 1.5 18.5 1.5 27.9 1.5 35.5 9.1 35.5 18.5Z" fill-opacity="0.05" fill="#000"/><path d="M34.5 18.5L34.5 18.5C34.5 9.7 27.3 2.5 18.5 2.5 9.7 2.5 2.5 9.7 2.5 18.5 2.5 27.3 9.7 34.5 18.5 34.5 27.3 34.5 34.5 27.3 34.5 18.5L34.5 18.5ZM35.5 18.5C35.5 27.9 27.9 35.5 18.5 35.5 9.1 35.5 1.5 27.9 1.5 18.5 1.5 9.1 9.1 1.5 18.5 1.5 27.9 1.5 35.5 9.1 35.5 18.5L35.5 18.5Z" fill-opacity="0.15" fill="#000"/><path d="M35.5 18.5L35.5 18.5C35.5 9.1 27.9 1.5 18.5 1.5 9.1 1.5 1.5 9.1 1.5 18.5 1.5 27.9 9.1 35.5 18.5 35.5 27.9 35.5 35.5 27.9 35.5 18.5L35.5 18.5ZM36.5 18.5L36.5 18.5C36.5 28.4 28.4 36.5 18.5 36.5 8.6 36.5 0.5 28.4 0.5 18.5 0.5 8.6 8.6 0.5 18.5 0.5 28.4 0.5 36.5 8.6 36.5 18.5L36.5 18.5Z" fill="#FFF"/></g></g></svg>
