<svg xmlns="http://www.w3.org/2000/svg" width="30" height="30" viewBox="0 0 30 30">
  <g fill="none" fill-rule="evenodd" stroke="#000">
    <rect width="29" height="29" x=".5" y=".5" stroke-opacity=".25" rx="6"/>
    <path fill="#fff" fill-opacity=".6" stroke-opacity=".6" stroke-width=".5" d="m5.5 7.75c1.24264069 0 2.25-1.00735931 2.25-2.25s-1.00735931-2.25-2.25-2.25-2.25 1.00735931-2.25 2.25 1.00735931 2.25 2.25 2.25zm19 0c1.2426407 0 2.25-1.00735931 2.25-2.25s-1.0073593-2.25-2.25-2.25-2.25 1.00735931-2.25 2.25 1.0073593 2.25 2.25 2.25zm0 19c1.2426407 0 2.25-1.0073593 2.25-2.25s-1.0073593-2.25-2.25-2.25-2.25 1.0073593-2.25 2.25 1.0073593 2.25 2.25 2.25zm-19 0c1.24264069 0 2.25-1.0073593 2.25-2.25s-1.00735931-2.25-2.25-2.25-2.25 1.0073593-2.25 2.25 1.00735931 2.25 2.25 2.25z"/>
  </g>
</svg>
