<svg xmlns="http://www.w3.org/2000/svg" xmlns:xlink="http://www.w3.org/1999/xlink" width="68" height="45" viewBox="0 0 68 45" version="1.1" fill="none" fill-rule="evenodd"><defs><rect id="p1" x="4.4" y="2" width="2" height="37"/><mask id="m2" maskContentUnits="userSpaceOnUse" maskUnits="objectBoundingBox" x="-2" y="-2" width="6" height="41"><rect x="2.4" y="0" width="6" height="41" fill="white"/><use xlink:href="#p1" fill="black"/></mask><circle id="p3" cx="5.4" cy="2" r="2"/><mask id="m4" maskContentUnits="userSpaceOnUse" maskUnits="objectBoundingBox" x="-2" y="-2" width="8" height="8"><rect x="1.4" y="-2" width="8" height="8" fill="white"/><use xlink:href="#p3" fill="black"/></mask><rect id="p5" x="3.4" y="8" width="4" height="2" rx="0.4"/><mask id="m6" maskContentUnits="userSpaceOnUse" maskUnits="objectBoundingBox" x="-2" y="-2" width="8" height="6"><rect x="1.4" y="6" width="8" height="6" fill="white"/><use xlink:href="#p5" fill="black"/></mask><path d="M10.4 41C10.4 39 8.1 37 5.4 37 2.6 37 0.4 39 0.4 41L10.4 41Z" id="p7"/><mask id="m8" maskContentUnits="userSpaceOnUse" maskUnits="objectBoundingBox" x="-2" y="-2" width="14" height="8"><rect x="-1.6" y="35" width="14" height="8" fill="white"/><use xlink:href="#p7" fill="black"/></mask><rect id="p9" x="4.3" y="2" width="2" height="37"/><mask id="m10" maskContentUnits="userSpaceOnUse" maskUnits="objectBoundingBox" x="-2" y="-2" width="6" height="41"><rect x="2.3" y="0" width="6" height="41" fill="white"/><use xlink:href="#p9" fill="black"/></mask><circle id="p11" cx="5.3" cy="2" r="2"/><mask id="m12" maskContentUnits="userSpaceOnUse" maskUnits="objectBoundingBox" x="-2" y="-2" width="8" height="8"><rect x="1.3" y="-2" width="8" height="8" fill="white"/><use xlink:href="#p11" fill="black"/></mask><rect id="p13" x="3.3" y="8" width="4" height="2" rx="0.4"/><mask id="m14" maskContentUnits="userSpaceOnUse" maskUnits="objectBoundingBox" x="-2" y="-2" width="8" height="6"><rect x="1.3" y="6" width="8" height="6" fill="white"/><use xlink:href="#p13" fill="black"/></mask><path d="M10.3 41C10.3 39 8 37 5.3 37 2.5 37 0.3 39 0.3 41L10.3 41Z" id="p15"/><mask id="m16" maskContentUnits="userSpaceOnUse" maskUnits="objectBoundingBox" x="-2" y="-2" width="14" height="8"><rect x="-1.7" y="35" width="14" height="8" fill="white"/><use xlink:href="#p15" fill="black"/></mask><path d="M2.9 4.2C2.9 4.2 7.9 14.1 24.1 14.1 40.3 14.1 43.8 4.2 43.8 4.2" id="p17"/><rect id="p18" x="0.9" y="2.2" width="4" height="4" rx="0.4"/><mask id="m19" maskContentUnits="userSpaceOnUse" maskUnits="objectBoundingBox" x="-1" y="-1" width="6" height="6"><rect x="-0.1" y="1.2" width="6" height="6" fill="white"/><use xlink:href="#p18" fill="black"/></mask><rect id="p20" x="42.8" y="1.2" width="4" height="4" rx="0.4"/><mask id="m21" maskContentUnits="userSpaceOnUse" maskUnits="objectBoundingBox" x="-1" y="-1" width="6" height="6"><rect x="41.8" y="0.2" width="6" height="6" fill="white"/><use xlink:href="#p20" fill="black"/></mask></defs><g transform="translate(1, 2)"><path d="M65 42L3 42" stroke="#EDEFF2" stroke-width="2" stroke-linecap="round"/><g transform="translate(0.617225, 0)" stroke-width="4"><use fill="#D5D6D9" xlink:href="#p1"/><use stroke="#B8BDCC" mask="url(#m2)" xlink:href="#p1"/><use fill="#EDEFF2" xlink:href="#p3"/><use stroke="#B8BDCC" mask="url(#m4)" xlink:href="#p3"/><use fill="#EDEFF2" xlink:href="#p5"/><use stroke="#B8BDCC" mask="url(#m6)" xlink:href="#p5"/><use fill="#EDEFF2" xlink:href="#p7"/><use stroke="#B8BDCC" mask="url(#m8)" stroke-linejoin="round" xlink:href="#p7"/></g><g transform="translate(54.736842, 0)" stroke-width="4"><use fill="#D5D6D9" xlink:href="#p9"/><use stroke="#B8BDCC" mask="url(#m10)" xlink:href="#p9"/><use fill="#EDEFF2" xlink:href="#p11"/><use stroke="#B8BDCC" mask="url(#m12)" xlink:href="#p11"/><use fill="#EDEFF2" xlink:href="#p13"/><use stroke="#B8BDCC" mask="url(#m14)" xlink:href="#p13"/><use fill="#EDEFF2" xlink:href="#p15"/><use stroke="#B8BDCC" mask="url(#m16)" stroke-linejoin="round" xlink:href="#p15"/></g><g transform="translate(9.047847, 6.865385)" stroke-width="2"><g stroke-linecap="round"><use stroke="#D9634C" stroke-width="5" xlink:href="#p17"/><use stroke="#FA937F" xlink:href="#p17"/></g><g transform="translate(2.867378, 4.177412) rotate(-44) translate(-2.867378, -4.177412) "><use fill="#FFEE99" xlink:href="#p18"/><use stroke="#E6C9A1" mask="url(#m19)" xlink:href="#p18"/></g><g transform="translate(44.790700, 3.219648) rotate(-50) translate(-44.790700, -3.219648) "><use fill="#FFEE99" xlink:href="#p20"/><use stroke="#E6C9A1" mask="url(#m21)" xlink:href="#p20"/></g></g></g></svg>
