<svg xmlns="http://www.w3.org/2000/svg" width="16" height="16" viewBox="0 0 16 16">
  <g fill="none">
    <path fill="#999" d="M9.67401101,11.7953314 C9.12310127,11.2444216 10.0837614,11.3775217 10.5670342,10.7852729 L10.6706602,10.6706602 C11.2564466,10.0848737 11.2038908,9.08257044 11.7953314,9.67401101 L15.3241636,13.2028432 C15.8750733,13.753753 15.9144132,14.6206529 15.4311404,15.2129017 L15.3275144,15.3275144 C14.741728,15.9133009 13.7942838,15.9156041 13.2028432,15.3241636 L9.67401101,11.7953314 Z"/>
    <path fill="#B3B3B3" d="M6.5,0 C10.0898509,0 13,2.91014913 13,6.5 C13,10.0898509 10.0898509,13 6.5,13 C2.91014913,13 0,10.0898509 0,6.5 C0,2.91014913 2.91014913,0 6.5,0 Z M6.5,2 C4.01471863,2 2,4.01471863 2,6.5 C2,8.98528137 4.01471863,11 6.5,11 C8.98528137,11 11,8.98528137 11,6.5 C11,4.01471863 8.98528137,2 6.5,2 Z"/>
  </g>
</svg>
