<svg width="214" height="40" viewBox="0 0 214 40" fill="none" xmlns="http://www.w3.org/2000/svg">
<g clip-path="url(#clip0)">
<path fill-rule="evenodd" clip-rule="evenodd" d="M210.97 28.6906L210.969 0H202.24L201.762 3.55463L204.151 4.38843L204.21 4.41067C204.559 4.55279 204.715 4.85038 204.715 5.26612V11.9365L204.597 11.8494C202.971 10.6665 201.051 9.83009 198.592 9.83009C193.771 9.83009 189.385 13.1653 189.385 21.9861C189.385 30.368 192.686 33.6593 197.81 33.6593C200.98 33.6593 203.108 32.4305 204.932 30.6313L205.236 30.6752L205.671 33.1327H213.748V29.6658L211.544 29.3414C211.096 29.2711 210.995 29.1784 210.974 28.7932L210.97 28.6906ZM189.51 9.99682C188.654 9.78392 186.701 9.61694 185.708 9.61694C182.849 9.61694 180.883 11.3592 179.409 13.6376H179.141L178.605 10.0637H170.742L170.256 13.6461L170.275 13.6902L172.663 14.5311L172.722 14.5504C173.122 14.6939 173.244 15.0001 173.244 15.4692L173.243 28.6218C173.237 29.2373 173.134 29.3656 172.529 29.4521L170.519 29.7202V33.3387H185.127V29.7648L180.644 29.403C180.055 29.3558 179.994 29.2177 179.99 28.591L179.989 16.6754L180.115 16.569C180.822 15.9824 182.113 15.1118 183.206 15.1118C183.563 15.1118 183.697 15.2012 183.787 15.6032L184.234 17.9709L189.594 18.1496V10.019L189.51 9.99682ZM92.3445 9.93751C95.1016 9.93751 97.8007 10.4336 99.4266 10.8821L99.5658 10.921L99.6968 10.2581H110.938V13.9459L108.45 14.2124L112.004 26.6976H112.315L116.27 10.8357H122.979L126.8 26.6976H127.066L130.399 14.2124L127.866 13.9459L128.444 10.2581H137.774L137.774 12.745C137.572 13.1437 137.385 13.5508 137.213 13.9659L136.175 14.168C135.577 14.2535 135.307 14.4621 135.129 14.9915L135.108 15.0566L129.643 33.4067H122.623L119.158 18.5223H118.891L115.381 33.4067H107.383L101.785 15.0122C101.615 14.5012 101.404 14.3983 100.917 14.2733L100.852 14.2569L100.46 14.1728L100.485 14.2733V17.6418L95.7513 17.3321L95.3088 15.0294C95.2652 14.6752 95.1761 14.4983 94.8671 14.4097L94.7259 14.3689C94.1278 14.2065 93.1382 14.0554 92.0355 14.0554C89.8232 14.0554 88.5842 14.8967 88.5842 16.3136C88.5842 17.8619 90.3546 18.3797 92.5498 18.8831L94.0319 19.2204L94.2369 19.2691C97.5907 20.0762 101.149 21.44 101.149 26.3642C101.149 31.7663 96.7696 33.9799 91.1504 33.9799C87.2309 33.9799 83.3954 32.9727 82.4601 32.4294L82.3902 32.3861V25.9659L87.1243 26.3201L87.5673 28.8438L87.5811 28.9517C87.6303 29.2751 87.7379 29.4279 88.098 29.5077L88.2018 29.5408L88.3199 29.5754L88.4522 29.6111L88.6044 29.6486C89.2426 29.7991 90.2348 29.9506 91.5048 29.9506C93.8489 29.9506 95.1761 29.2867 95.1761 27.6484C95.1761 25.9063 93.4639 25.3639 91.261 24.967L90.2534 24.7855L89.8242 24.7041C86.3737 24.0322 82.5679 22.816 82.5679 17.6864C82.5679 12.1961 87.257 9.93751 92.3445 9.93751ZM51.5435 9.93751L51.4217 9.93776C47.3878 9.95485 42.0828 10.839 42.0828 16.756L48.2872 17.288L48.2879 17.1756C48.3166 14.8101 49.2619 14.3779 51.0561 14.3271L51.2295 14.3234L51.4993 14.3214C53.8128 14.3214 54.3225 15.3398 54.4241 16.9183L54.4328 17.0753L54.4416 17.3175L54.445 17.4831L54.4473 17.734L54.4474 20.2546L49.2234 20.6195C43.8334 21.0036 41.1592 23.0436 41.1592 27.4269C41.1592 30.1725 42.0399 33.9799 47.5832 33.9799C51.1034 33.9799 53.3036 32.6516 54.9752 31.0133L55.1948 31.0574L55.6354 33.4483H63.7319V32.554L63.7934 32.5813C65.0801 33.1412 68.5624 33.9799 72.1222 33.9799C77.7107 33.9799 82.0664 31.7658 82.0664 26.3642C82.0664 21.1841 78.1499 19.9441 74.674 19.1474L73.6272 18.909C71.392 18.3969 69.5699 17.8886 69.5699 16.3136C69.5699 14.8967 70.8022 14.0554 73.0025 14.0554C74.1905 14.0554 75.2465 14.2328 75.8186 14.4097C76.1259 14.4983 76.2145 14.6752 76.2579 15.0294L76.698 17.3321L81.4062 17.6418V11.2216L81.2747 11.1715C79.946 10.6823 76.6688 9.93751 73.3098 9.93751C68.25 9.93751 63.5865 12.1961 63.5865 17.6864C63.5865 22.5065 66.9289 23.8713 70.1794 24.5758L70.4806 24.6394L70.79 24.7015L71.2164 24.7829L72.4496 25.0073C74.5347 25.4014 76.1259 25.9643 76.1259 27.6484C76.1259 29.2867 74.806 29.9506 72.4747 29.9506C71.2116 29.9506 70.2248 29.7991 69.59 29.6486L69.4387 29.6111L69.3071 29.5754L69.1896 29.5408L69.0864 29.5077C68.6906 29.4195 68.6015 29.2421 68.5586 28.8438L68.118 26.3201L63.4098 25.9659V29.8966L61.6197 29.5964L61.5009 29.5793C61.0836 29.5141 60.9624 29.4289 60.9284 29.0969L60.9211 29.0001L60.9173 28.8944L60.9158 28.7757L60.9157 17.9519L60.9149 17.7673C60.8616 11.7175 58.1646 9.93751 51.5435 9.93751ZM31.2701 1.28226C39.4814 1.28226 41.9659 5.62172 41.9659 10.7133C41.9659 18.3403 37.3994 21.4543 30.0298 21.5158L29.8056 21.5167H26.5658L26.5664 28.7267L26.569 28.8389L26.5746 28.942C26.6028 29.3124 26.7172 29.4019 27.1586 29.47L27.2764 29.4867L33.6225 29.841V33.3387H16.2254L16.2254 33.3285L16.206 33.3387H0.767229V29.8562L4.54935 29.547C5.12446 29.506 5.23915 29.3499 5.25189 28.7918L5.25319 28.666V13.4421C5.25319 12.8106 4.77846 12.9148 1.47201 14.0353L0.251953 10.4201L7.80886 6.09073H11.8949L11.8951 28.7304L11.8966 28.8495L11.9003 28.9563C11.9229 29.3932 12.0337 29.5021 12.5391 29.5426L12.5992 29.547L16.206 29.8562L16.2254 29.8657L16.2254 29.841L19.0213 29.5308C19.6008 29.4485 19.7172 29.3273 19.7302 28.7714L19.7315 28.6455V6.02006C19.7315 5.37829 19.648 5.19076 19.0817 5.13913L19.0213 5.13426L16.2254 4.82458V1.28226H31.2701ZM54.3231 23.6977V27.3402L54.2298 27.4082C53.2214 28.1354 51.7709 28.9199 50.3205 28.9199C48.869 28.9199 47.8132 28.2618 47.8132 26.506C47.8132 24.7505 48.7371 24.0925 51.3315 23.9172L54.3231 23.6977ZM200.513 14.9244C197.327 14.9244 196.057 17.9082 196.03 21.7796L196.03 21.9062C196.03 26.1925 197.248 28.5787 199.991 28.5787C201.428 28.5787 202.989 27.7447 204.154 26.7653L204.256 26.6786V16.2501C203.168 15.4989 201.775 14.9244 200.513 14.9244ZM26.4741 6.1441H29.0699C32.192 6.1441 34.7878 6.88956 34.7878 11.1026C34.7878 15.5389 32.2179 16.5331 29.5977 16.6934L29.3545 16.706L29.1892 16.712L28.9339 16.7178L28.7609 16.7194L26.4741 16.7196V6.1441Z" fill="white"/>
<path fill-rule="evenodd" clip-rule="evenodd" d="M153.802 3.20557C163.717 3.20557 171.754 11.2428 171.754 21.1572C171.754 31.0719 163.717 39.1088 153.802 39.1088C143.888 39.1088 135.851 31.0719 135.851 21.1572C135.851 11.2428 143.888 3.20557 153.802 3.20557ZM151.238 13.4637V28.8508H156.367V13.4637H151.238Z" fill="white"/>
<path fill-rule="evenodd" clip-rule="evenodd" d="M153.802 6.73169C161.769 6.73169 168.228 13.1902 168.228 21.1571C168.228 29.1243 161.769 35.5825 153.802 35.5825C145.835 35.5825 139.377 29.1243 139.377 21.1571C139.377 13.1902 145.835 6.73169 153.802 6.73169ZM151.238 13.4634V28.8505H156.367V13.4634H151.238Z" fill="#1A8CFF"/>
<path opacity="0.5" fill-rule="evenodd" clip-rule="evenodd" d="M153.802 39.75C143.534 39.75 135.209 31.426 135.209 21.1572C135.209 10.8887 143.534 2.56445 153.802 2.56445C164.071 2.56445 172.395 10.8887 172.395 21.1572C172.395 31.426 164.071 39.75 153.802 39.75ZM153.802 3.20558C143.887 3.20558 135.851 11.2439 135.851 21.1572C135.851 31.0707 143.887 39.1088 153.802 39.1088C163.718 39.1088 171.754 31.0707 171.754 21.1572C171.754 11.2439 163.718 3.20558 153.802 3.20558Z" fill="white"/>
<path fill-rule="evenodd" clip-rule="evenodd" d="M169.51 20.8366C169.51 12.1615 162.477 5.12891 153.802 5.12891C145.127 5.12891 138.095 12.1615 138.095 20.8366C138.095 25.6865 140.293 30.023 143.747 32.9044C140.861 30.2127 139.056 26.3765 139.056 22.1188C139.056 13.9749 145.658 7.37286 153.802 7.37286C161.946 7.37286 168.548 13.9749 168.548 22.1188C168.548 26.3765 166.744 30.2127 163.858 32.9044C167.312 30.023 169.51 25.6865 169.51 20.8366ZM171.754 21.1571C171.754 20.8345 171.745 20.5139 171.729 20.1954L171.716 20.4141C171.108 29.7783 163.32 37.1854 153.802 37.1854C144.21 37.1854 136.376 29.6627 135.876 20.1954C135.859 20.5139 135.851 20.8345 135.851 21.1571C135.851 31.0716 143.888 39.1088 153.802 39.1088C163.717 39.1088 171.754 31.0716 171.754 21.1571Z" fill="black" fill-opacity="0.0524476"/>
<path opacity="0.256138" fill-rule="evenodd" clip-rule="evenodd" d="M153.802 6.73169C145.834 6.73169 139.377 13.1913 139.377 21.1571C139.377 29.1231 145.834 35.5825 153.802 35.5825C161.77 35.5825 168.228 29.1231 168.228 21.1571C168.228 13.1913 161.77 6.73169 153.802 6.73169ZM153.802 34.9412C146.189 34.9412 140.018 28.77 140.018 21.157C140.018 13.5442 146.189 7.37268 153.802 7.37268C161.415 7.37268 167.587 13.5442 167.587 21.157C167.587 28.77 161.415 34.9412 153.802 34.9412Z" fill="white"/>
<path fill-rule="evenodd" clip-rule="evenodd" d="M142.583 21.2287C142.583 14.9608 147.606 9.9375 153.874 9.9375C160.022 9.9375 165.022 14.9842 165.022 21.2287C165.022 27.3539 159.999 32.377 153.874 32.377C147.629 32.377 142.583 27.3771 142.583 21.2287ZM164.381 21.2282C164.381 15.3149 159.645 10.5786 153.873 10.5786C147.96 10.5786 143.224 15.3149 143.224 21.2282C143.224 26.9998 147.96 31.7358 153.873 31.7358C159.645 31.7358 164.381 26.9998 164.381 21.2282Z" fill="black" fill-opacity="0.25"/>
<path fill-rule="evenodd" clip-rule="evenodd" d="M153.873 10.5786C159.645 10.5786 164.381 15.3149 164.381 21.2282C164.381 26.9999 159.645 31.7359 153.873 31.7359C147.96 31.7359 143.224 26.9999 143.224 21.2282C143.224 15.3149 147.96 10.5786 153.873 10.5786ZM155.549 13.1431H152.055C151.62 13.1431 151.265 13.5283 151.239 14.0143L151.238 14.0709V17.8302C151.238 17.9737 151.282 18.1121 151.361 18.2222L151.397 18.2675L151.908 18.8474C152.109 19.0747 152.12 19.435 151.944 19.678L151.908 19.7221L151.397 20.302C151.308 20.4035 151.253 20.5366 151.24 20.6782L151.238 20.7393V28.2436C151.238 28.737 151.577 29.1404 152.005 29.1696L152.055 29.1713H155.549C155.984 29.1713 156.34 28.7861 156.365 28.3001L156.367 28.2436V24.4842C156.367 24.3407 156.323 24.2023 156.243 24.0922L156.207 24.0469L155.696 23.467C155.496 23.2397 155.484 22.8794 155.661 22.6364L155.696 22.5923L156.207 22.0125C156.297 21.911 156.352 21.7778 156.364 21.6362L156.367 21.5751V14.0709C156.367 13.5774 156.027 13.174 155.599 13.1448L155.549 13.1431Z" fill="#F7F7F7"/>
<path fill-rule="evenodd" clip-rule="evenodd" d="M151.238 17.0886L151.238 17.8298C151.238 17.9733 151.282 18.1117 151.361 18.2218L151.397 18.2672L151.908 18.847C152.109 19.0743 152.12 19.4346 151.944 19.6776L151.908 19.7217L151.397 20.3016C151.308 20.4031 151.253 20.5362 151.24 20.6778L151.238 20.7389L151.238 25.225C149.889 24.3732 148.994 22.8696 148.994 21.1568C148.994 19.4441 149.889 17.9404 151.238 17.0886ZM158.611 21.1569C158.611 22.8695 157.715 24.3731 156.367 25.2249L156.367 24.4839C156.367 24.3404 156.323 24.202 156.243 24.0919L156.207 24.0466L155.696 23.4667C155.496 23.2394 155.484 22.8791 155.661 22.6361L155.696 22.592L156.207 22.0121C156.297 21.9106 156.352 21.7775 156.364 21.6359L156.367 21.5748L156.367 17.0889C157.715 17.9407 158.611 19.4442 158.611 21.1569Z" fill="black" fill-opacity="0.05"/>
<path fill-rule="evenodd" clip-rule="evenodd" d="M156.367 25.9664C158.084 25.049 159.252 23.2394 159.252 21.1569C159.252 19.0745 158.084 17.2648 156.367 16.3474L156.367 17.0889C157.715 17.9407 158.611 19.4443 158.611 21.1569C158.611 22.8696 157.715 24.3731 156.367 25.2249L156.367 25.9664ZM151.238 17.0889L151.238 16.3474L151.139 16.4013C149.476 17.3345 148.353 19.1146 148.353 21.1571C148.353 23.2397 149.521 25.0494 151.238 25.9668L151.238 25.2253C149.889 24.3735 148.994 22.8699 148.994 21.1571C148.994 19.4443 149.889 17.9407 151.238 17.0889Z" fill="white"/>
<path fill-rule="evenodd" clip-rule="evenodd" d="M151.238 17.8298L151.238 17.0886C149.889 17.9404 148.994 19.4441 148.994 21.1568C148.994 22.8696 149.889 24.3732 151.238 25.225L151.238 24.4419C150.262 23.6792 149.635 22.4912 149.635 21.1568C149.635 19.8217 150.263 18.6332 151.239 17.8708C151.238 17.8572 151.238 17.8435 151.238 17.8298ZM156.367 25.2249C157.715 24.3731 158.611 22.8695 158.611 21.1569C158.611 19.4442 157.715 17.9407 156.367 17.0889L156.367 17.8722C157.343 18.6349 157.97 19.8227 157.97 21.1569C157.97 22.4919 157.342 23.6804 156.365 24.4428C156.366 24.4565 156.367 24.4702 156.367 24.4839L156.367 25.2249Z" fill="black" fill-opacity="0.15"/>
<path fill-rule="evenodd" clip-rule="evenodd" d="M152.015 12.8225H155.59C156.383 12.8225 157.008 13.5164 157.008 14.3523V21.5774C157.008 21.892 156.894 22.196 156.689 22.4242L156.163 23.0073C156.151 23.0209 156.151 23.0591 156.163 23.0727L156.689 23.6557C156.894 23.8839 157.008 24.1879 157.008 24.5026V27.9621C157.008 28.798 156.383 29.4919 155.59 29.4919H152.015C151.222 29.4919 150.597 28.798 150.597 27.9621V20.737C150.597 20.4223 150.71 20.1183 150.916 19.8901L151.441 19.3071C151.454 19.2935 151.454 19.2553 151.441 19.2417L150.916 18.6587C150.71 18.4305 150.597 18.1265 150.597 17.8118V14.3523C150.597 13.5164 151.222 12.8225 152.015 12.8225ZM156.367 14.4018C156.367 13.8902 156.001 13.4755 155.549 13.4755H152.055C151.604 13.4755 151.238 13.8902 151.238 14.4018V17.8349C151.238 17.9987 151.295 18.1558 151.397 18.2716L151.908 18.8506C152.121 19.0918 152.121 19.4828 151.908 19.724L151.397 20.303C151.295 20.4188 151.238 20.5759 151.238 20.7397V27.912C151.238 28.4236 151.604 28.8384 152.055 28.8384H155.549C156.001 28.8384 156.367 28.4236 156.367 27.912V24.4789C156.367 24.3151 156.309 24.158 156.207 24.0422L155.696 23.4632C155.483 23.2221 155.483 22.831 155.696 22.5899L156.207 22.0109C156.309 21.8951 156.367 21.738 156.367 21.5742V14.4018Z" fill="white"/>
<path fill-rule="evenodd" clip-rule="evenodd" d="M156.367 14.3912C156.367 13.8788 156.001 13.4634 155.549 13.4634H152.055C151.604 13.4634 151.238 13.8788 151.238 14.3912V17.8299C151.238 17.9939 151.295 18.1513 151.397 18.2673L151.908 18.8471C152.121 19.0887 152.121 19.4803 151.908 19.7218L151.397 20.3017C151.295 20.4177 151.238 20.575 151.238 20.739V27.9227C151.238 28.4351 151.604 28.8505 152.055 28.8505H155.549C156.001 28.8505 156.367 28.4351 156.367 27.9227V24.484C156.367 24.3199 156.309 24.1626 156.207 24.0466L155.696 23.4667C155.483 23.2252 155.483 22.8336 155.696 22.592L156.207 22.0122C156.309 21.8962 156.367 21.7389 156.367 21.5748V14.3912ZM152.148 14.1174L155.457 14.1217L155.484 14.1236C155.612 14.1406 155.726 14.2741 155.726 14.4531V21.5756L155.724 21.5895C155.722 21.5979 155.719 21.6045 155.716 21.6078L155.181 22.1829L155.138 22.2321C154.748 22.6993 154.762 23.4039 155.181 23.8536L155.716 24.4287L155.721 24.4359C155.724 24.4422 155.726 24.4509 155.726 24.4609V27.869L155.724 27.9067C155.708 28.0789 155.586 28.2004 155.457 28.2004L152.148 28.1961L152.12 28.1943C151.992 28.1773 151.879 28.0438 151.879 27.8647V20.7423L151.88 20.7284C151.882 20.7199 151.885 20.7134 151.888 20.7101L152.423 20.1349L152.467 20.0858C152.856 19.6186 152.842 18.914 152.423 18.4643L151.888 17.8892L151.884 17.8819C151.881 17.8757 151.879 17.8669 151.879 17.8569V14.4488L151.881 14.4112C151.896 14.239 152.018 14.1174 152.148 14.1174Z" fill="black" fill-opacity="0.4"/>
</g>
<defs>
<clipPath id="clip0">
<rect width="213.496" height="40" fill="white" transform="translate(0.251953)"/>
</clipPath>
</defs>
</svg>
