<svg width="581" height="220" viewBox="0 0 581 220" fill="none" xmlns="http://www.w3.org/2000/svg">
<rect width="581" height="180" transform="translate(0 40)" fill="none" />
<g clip-path="url(#clip0)">
<g filter="url(#filter0_i)">
<rect x="230.408" y="166.153" width="79.5188" height="79.5188" rx="17" transform="rotate(-43.5559 230.408 166.153)" fill="white"/>
</g>
<rect x="230.408" y="166.153" width="79.5188" height="79.5188" rx="17" transform="rotate(-43.5559 230.408 166.153)" stroke="#0572EC" stroke-width="1.63574" stroke-miterlimit="10" stroke-linecap="round" stroke-linejoin="round"/>
<path d="M318.799 144.927L265.381 195.02" stroke="#66CBFF" stroke-width="2" stroke-miterlimit="10" stroke-linejoin="round"/>
<path d="M313.143 139.032L259.725 189.125" stroke="#66CBFF" stroke-width="2" stroke-miterlimit="10" stroke-linejoin="round"/>
<path d="M269.154 154.751C279.296 145.108 295.343 145.512 304.986 155.654C314.629 165.796 314.225 181.842 304.082 191.485C293.94 201.129 277.894 200.724 268.251 190.582C258.608 180.44 258.994 164.412 269.154 154.751Z" fill="#66CBFF"/>
<path d="M269.602 149.674C279.484 140.279 295.118 140.673 304.514 150.554C313.909 160.436 313.515 176.07 303.633 185.466C293.752 194.861 278.118 194.467 268.722 184.586C259.326 174.704 259.702 159.087 269.602 149.674Z" fill="white" stroke="#0572EC" stroke-width="2" stroke-miterlimit="10" stroke-linecap="round" stroke-linejoin="round"/>
<path d="M273.999 154.298C281.324 147.333 292.926 147.626 299.89 154.951C306.855 162.276 306.563 173.878 299.238 180.842C291.913 187.807 280.311 187.515 273.346 180.19C266.363 172.882 266.656 161.28 273.999 154.298Z" stroke="#66CBFF" stroke-width="2.5" stroke-miterlimit="10" stroke-linecap="round" stroke-linejoin="round"/>
<path d="M280.964 158.102L277.428 161.464C276.993 161.878 276.993 162.603 277.422 163.127L277.473 163.182L280.99 166.88C281.128 167.025 281.303 167.101 281.479 167.14L281.55 167.142L282.628 167.222C283.051 167.269 283.397 167.596 283.457 168.022L283.455 168.093L283.481 169.173C283.494 169.368 283.56 169.547 283.68 169.709L283.731 169.763L290.541 176.925C291.007 177.415 291.73 177.486 292.2 177.109L292.254 177.057L295.79 173.695C296.225 173.281 296.226 172.556 295.797 172.032L295.745 171.977L292.487 168.551C292.349 168.405 292.156 168.312 291.98 168.272L291.91 168.271L290.832 168.19C290.409 168.144 290.063 167.817 290.003 167.391L290.005 167.32L289.979 166.24C289.966 166.045 289.9 165.866 289.78 165.704L289.728 165.649L282.66 158.216C282.194 157.726 281.417 157.671 280.964 158.102Z" fill="#0572EC"/>
<rect x="80.3848" y="154.48" width="36.1063" height="36.1063" rx="7" transform="rotate(-30.1461 80.3848 154.48)" stroke="#0572EC" stroke-width="1.63574" stroke-miterlimit="10" stroke-linecap="round" stroke-linejoin="round"/>
<path d="M107.939 160.956C108.69 159.544 108.715 157.789 107.853 156.304C106.526 154.02 103.599 153.243 101.314 154.57C99.0296 155.897 98.2531 158.825 99.5799 161.109C100.441 162.592 101.977 163.44 103.574 163.489L106.9 169.215L111.264 166.681L107.939 160.956Z" fill="#0572EC"/>
<rect x="509.258" y="18.8555" width="56.4701" height="56.4701" rx="8" transform="rotate(32.0983 509.258 18.8555)" stroke="#66CBFF" stroke-width="1.63574" stroke-miterlimit="10" stroke-linecap="round" stroke-linejoin="round"/>
<path d="M520.389 61.0543C522.681 61.0633 524.927 59.9233 526.235 57.8381C528.248 54.628 527.278 50.3934 524.068 48.3798C520.858 46.3662 516.623 47.3362 514.61 50.5463C513.303 52.6303 513.253 55.146 514.257 57.2056L509.21 65.2512L515.343 69.098L520.389 61.0543Z" fill="#66CBFF"/>
<path fill-rule="evenodd" clip-rule="evenodd" d="M366.527 116.046C367.969 116.383 369.417 115.513 369.818 114.075C370.155 112.633 369.288 111.122 367.846 110.785C366.404 110.448 364.957 111.318 364.556 112.756C364.156 114.194 365.085 115.709 366.527 116.046ZM344.609 127.049L345.687 122.663L347.206 121.671L349.713 122.259L350.302 119.752L353.558 117.27L356.86 115.109L359.231 113.657C359.178 110.159 361.453 107.05 364.815 106.036C368.174 105.085 371.778 106.499 373.577 109.462C375.377 112.425 374.961 116.34 372.528 118.869C370.096 121.398 366.248 122.003 363.233 120.305L349.871 128.368L344.609 127.049Z" stroke="#66CBFF" stroke-width="1.63574" stroke-miterlimit="10" stroke-linecap="round" stroke-linejoin="round"/>
<path fill-rule="evenodd" clip-rule="evenodd" d="M246.728 49.1847C246.59 46.6625 244.473 44.7081 241.927 44.7408C239.404 44.8788 237.345 47.0201 237.483 49.5423C237.621 52.0645 239.738 54.0189 242.284 53.9863C244.831 53.9536 246.866 51.7069 246.728 49.1847ZM275.23 79.8062L267.533 80.1393L265.181 78.1282L264.945 73.7406L260.558 73.9762L254.937 69.8324L249.819 65.4614L246.308 62.2745C240.606 64.0348 234.426 61.7969 231.157 56.777C227.994 51.7328 228.586 45.1555 232.575 40.7919C236.565 36.4283 243.175 35.2356 248.479 38.0088C253.783 40.7821 256.614 46.7914 255.277 52.5416L274.872 70.5607L275.23 79.8062Z" stroke="#0572EC" stroke-width="1.63574" stroke-miterlimit="10" stroke-linecap="round" stroke-linejoin="round"/>
<path fill-rule="evenodd" clip-rule="evenodd" d="M407.464 192.563C406.085 193.614 404.622 194.345 403.075 194.755C401.528 195.165 399.995 195.267 398.476 195.062C396.958 194.858 395.51 194.358 394.135 193.563C392.759 192.768 391.562 191.702 390.541 190.363C389.32 188.762 388.491 186.981 388.055 185.021C387.619 183.061 387.536 181.112 387.806 179.175C388.077 177.238 388.694 175.388 389.66 173.626C390.625 171.864 391.898 170.381 393.48 169.175C394.939 168.062 396.448 167.296 398.005 166.879C399.562 166.461 401.077 166.356 402.55 166.564C404.023 166.771 405.404 167.258 406.692 168.022C407.981 168.787 409.097 169.788 410.04 171.025C411.044 172.343 411.706 173.642 412.025 174.922C412.343 176.202 412.428 177.396 412.279 178.504C412.129 179.612 411.795 180.603 411.277 181.48C410.759 182.356 410.165 183.049 409.496 183.559C408.523 184.301 407.637 184.632 406.838 184.551C406.039 184.471 405.36 184.211 404.801 183.772L404.608 183.582C404.669 184.755 404.474 185.825 404.026 186.792C403.577 187.759 402.977 188.529 402.227 189.101C401.477 189.673 400.707 190.051 399.918 190.236C399.129 190.421 398.354 190.434 397.593 190.277C396.832 190.12 396.102 189.803 395.402 189.327C394.702 188.85 394.074 188.247 393.517 187.517C392.76 186.524 392.232 185.443 391.935 184.275C391.638 183.107 391.548 181.949 391.667 180.801C391.785 179.652 392.099 178.571 392.609 177.558C393.118 176.544 393.809 175.705 394.681 175.04C395.573 174.36 396.465 173.952 397.356 173.818C398.248 173.683 399.074 173.758 399.836 174.043L399.027 172.351L403.164 169.198L407.007 177.329C407.048 177.426 407.13 177.564 407.251 177.744C407.372 177.924 407.471 178.065 407.549 178.166C407.889 178.612 408.224 178.862 408.553 178.916C408.882 178.969 409.189 178.888 409.473 178.671C409.777 178.439 410.011 178.116 410.176 177.702C410.341 177.288 410.413 176.792 410.39 176.216C410.368 175.64 410.218 175.001 409.939 174.3C409.661 173.598 409.228 172.862 408.641 172.092C407.744 170.916 406.732 169.988 405.605 169.309C404.477 168.629 403.291 168.219 402.046 168.078C400.8 167.938 399.523 168.07 398.213 168.476C396.903 168.881 395.609 169.571 394.332 170.545C392.892 171.642 391.749 172.971 390.902 174.53C390.055 176.09 389.516 177.727 389.285 179.443C389.054 181.158 389.136 182.874 389.532 184.592C389.928 186.31 390.667 187.879 391.749 189.298C392.661 190.495 393.72 191.442 394.927 192.142C396.133 192.841 397.403 193.276 398.735 193.446C400.067 193.617 401.413 193.521 402.772 193.158C404.13 192.796 405.428 192.143 406.665 191.2C407.658 190.442 408.503 189.574 409.199 188.594C409.895 187.615 410.458 186.545 410.887 185.384L412.329 185.824C411.84 187.159 411.19 188.399 410.381 189.545C409.571 190.691 408.599 191.697 407.464 192.563ZM401.48 184.525C402.169 183.999 402.601 183.389 402.777 182.694C402.952 181.999 403.043 181.361 403.049 180.78L401.26 177.046C400.881 176.885 400.424 176.801 399.889 176.793C399.353 176.784 398.791 177.004 398.203 177.452C397.676 177.854 397.276 178.328 397.002 178.873C396.729 179.418 396.57 179.988 396.526 180.583C396.482 181.177 396.544 181.763 396.712 182.34C396.88 182.918 397.141 183.44 397.497 183.906C398.038 184.616 398.665 185.028 399.377 185.142C400.089 185.256 400.79 185.05 401.48 184.525Z" fill="#66CBFF"/>
<path d="M172.016 183.599C170.944 185.53 171.64 187.965 173.571 189.037L185.788 195.822C186.469 196.2 187.246 196.371 188.023 196.314L197.105 195.646L198.793 192.608L198.791 192.607L200.472 189.58L196.238 181.517C195.876 180.827 195.32 180.258 194.639 179.88L182.422 173.096C180.491 172.023 178.055 172.719 176.983 174.651L174.496 179.13L174.497 179.131L172.016 183.599Z" stroke="#66CBFF" stroke-width="1.63574" stroke-miterlimit="10" stroke-linecap="round" stroke-linejoin="round"/>
<circle cx="194.097" cy="189.839" r="2.33923" transform="rotate(119.044 194.097 189.839)" fill="#66CBFF"/>
<rect x="112.227" y="6.38135" width="68.4925" height="41.8568" rx="5" transform="rotate(43.3601 112.227 6.38135)" stroke="#66CBFF" stroke-width="1.63574" stroke-miterlimit="10" stroke-linecap="round" stroke-linejoin="round"/>
<rect x="105.437" y="12.7563" width="69.6052" height="8.7463" transform="rotate(43.3601 105.437 12.7563)" fill="#66CBFF"/>
<rect x="471.933" y="168.399" width="40.3671" height="24.7472" rx="5" transform="rotate(-43.9333 471.933 168.399)" stroke="#66CBFF" stroke-width="1.63574" stroke-miterlimit="10" stroke-linecap="round" stroke-linejoin="round"/>
<rect x="475.746" y="172.866" width="40.8618" height="5.51477" transform="rotate(-43.9333 475.746 172.866)" fill="#66CBFF"/>
<path d="M340.708 70.8432C354.734 80.7194 374.11 77.3556 383.986 63.3299C393.862 49.3043 390.498 29.928 376.473 20.0518C362.447 10.1757 343.071 13.5395 333.195 27.5651C323.319 41.5908 326.682 60.967 340.708 70.8432Z" stroke="#66CBFF" stroke-width="1.63574" stroke-miterlimit="10" stroke-linecap="round" stroke-linejoin="round"/>
<path d="M344.881 64.9175C355.634 72.4892 370.489 69.9103 378.061 59.1573C385.633 48.4043 383.054 33.5492 372.301 25.9774C361.548 18.4057 346.692 20.9846 339.121 31.7376C331.549 42.4906 334.128 57.3457 344.881 64.9175Z" stroke="#66CBFF" stroke-width="1.63574" stroke-miterlimit="10" stroke-linecap="round" stroke-linejoin="round"/>
<path fill-rule="evenodd" clip-rule="evenodd" d="M360.633 39.0055C361.332 38.0124 362.591 38.2025 363.708 38.9892C363.988 39.1858 364.36 39.448 364.689 39.7723C365.048 40.1185 365.107 40.299 364.894 40.799L363.881 42.9634L368.414 46.4803L372.325 40.9254C370.946 39.258 370.044 38.2978 369.045 37.4089L370.706 35.0504L364.717 30.833L362.859 33.4708C359.551 32.3018 356.201 32.7744 353.753 36.2501C348.793 43.2946 359.461 47.7893 357.32 50.8305C356.533 51.9477 355.196 51.9347 353.955 51.0606C353.334 50.6236 352.881 50.2119 352.627 49.8474C352.423 49.6105 352.355 49.3771 352.586 48.9828L353.653 46.8093L349.154 43.1774L345.308 48.6392C346.134 50.1029 347.405 51.4622 348.776 52.6133L346.941 55.2201L352.93 59.4375L354.941 56.5825C358.227 57.7825 361.621 57.2478 364.134 53.679C369.072 46.6656 358.71 41.7364 360.633 39.0055Z" fill="#66CBFF"/>
<rect x="16.0005" y="98.8057" width="56.0876" height="36.1454" rx="3" transform="rotate(-20.3363 16.0005 98.8057)" stroke="#66CBFF" stroke-width="1.63574" stroke-miterlimit="10" stroke-linecap="round" stroke-linejoin="round"/>
<path d="M17.5442 102.972L48.3611 110.188C49.5338 110.463 50.757 110.009 51.4675 109.037L70.1377 83.4794" stroke="#66CBFF" stroke-width="1.63574" stroke-miterlimit="10" stroke-linecap="round" stroke-linejoin="round"/>
<path d="M416.678 120.165L415.96 119.773C415.844 119.986 415.829 120.24 415.918 120.466C416.007 120.692 416.192 120.866 416.423 120.942L416.678 120.165ZM431.204 93.5445L431.459 92.7676C431.084 92.6443 430.675 92.8064 430.486 93.1528L431.204 93.5445ZM450.289 99.8198L451.099 99.9306C451.152 99.5396 450.919 99.1662 450.544 99.0429L450.289 99.8198ZM446.181 129.866L445.925 130.643C446.156 130.719 446.408 130.688 446.614 130.559C446.82 130.431 446.958 130.217 446.991 129.977L446.181 129.866ZM430.486 93.1528L415.96 119.773L417.396 120.557L431.922 93.9363L430.486 93.1528ZM449.478 99.709L445.37 129.755L446.991 129.977L451.099 99.9306L449.478 99.709ZM416.423 120.942L445.925 130.643L446.436 129.089L416.934 119.388L416.423 120.942ZM450.544 99.0429L431.459 92.7676L430.948 94.3215L450.033 100.597L450.544 99.0429Z" fill="#0572EC"/>
<path d="M456.096 89.0336L451.125 87.3991L449.649 91.8885L445.576 90.5492L447.052 86.0599L442.082 84.4254L440.605 88.9147L436.533 87.5755L438.009 83.0861L433.038 81.4517L430.517 89.1186L453.575 96.7005L456.096 89.0336Z" stroke="#0572EC" stroke-width="1.63574" stroke-miterlimit="10" stroke-linecap="round" stroke-linejoin="round"/>
<path d="M454.047 97.1774L450.35 100.232L430.909 93.84L429.747 89.1875L454.047 97.1774Z" fill="#0572EC"/>
<path d="M435.538 119.584C437.053 119.258 438.361 118.16 438.88 116.581C439.658 114.214 438.37 111.665 436.004 110.887C433.637 110.108 431.088 111.396 430.309 113.763C429.79 115.341 430.19 117.002 431.217 118.163L427.86 124.613L431.279 125.737L431.279 125.736L434.412 126.766L435.538 119.584Z" fill="#0572EC"/>
<path d="M192.984 123.925L180.772 100.476C179.752 98.5161 180.513 96.1006 182.473 95.0802L193.696 89.2357C194.684 88.7212 195.841 88.642 196.89 89.0171L205.44 92.075C206.389 92.4145 207.175 93.0998 207.641 93.9939L216.776 111.535C217.796 113.494 217.035 115.91 215.075 116.93L198.379 125.625C196.42 126.645 194.004 125.884 192.984 123.925Z" stroke="#66CBFF" stroke-width="1.63574" stroke-miterlimit="10" stroke-linecap="round" stroke-linejoin="round"/>
<path d="M198.266 95.7976L194.275 88.1333C194.275 88.1333 195.179 87.7402 197.004 88.1907C197.134 88.2227 204.454 90.907 205.72 91.2852C206.985 91.6634 207.973 92.9961 207.973 92.9961L200.964 96.6476C199.984 97.158 198.776 96.7775 198.266 95.7976Z" fill="#66CBFF"/>
</g>
<defs>
<filter id="filter0_i" x="236.624" y="117.576" width="99.9887" height="99.9887" filterUnits="userSpaceOnUse" color-interpolation-filters="sRGB">
<feFlood flood-opacity="0" result="BackgroundImageFix"/>
<feBlend mode="normal" in="SourceGraphic" in2="BackgroundImageFix" result="shape"/>
<feColorMatrix in="SourceAlpha" type="matrix" values="0 0 0 0 0 0 0 0 0 0 0 0 0 0 0 0 0 0 127 0" result="hardAlpha"/>
<feOffset dy="-9"/>
<feComposite in2="hardAlpha" operator="arithmetic" k2="-1" k3="1"/>
<feColorMatrix type="matrix" values="0 0 0 0 0.4 0 0 0 0 0.796078 0 0 0 0 1 0 0 0 1 0"/>
<feBlend mode="normal" in2="shape" result="effect1_innerShadow"/>
</filter>
<clipPath id="clip0">
<rect width="541" height="220" fill="white" transform="translate(16)"/>
</clipPath>
</defs>
</svg>
