<svg xmlns="http://www.w3.org/2000/svg" width="250" height="34" viewBox="0 0 250 34">
    <g fill="#000" fill-rule="evenodd">
        <path fill-opacity=".25" d="M224.754 18.854l2.292 2.292a.5.5 0 0 0 .708 0l2.292-2.292a.5.5 0 0 1 .708 0l.292.292a.5.5 0 0 1 0 .708l-2.939 2.939a1 1 0 0 1-1.414 0l-2.94-2.94a.5.5 0 0 1 0-.707l.293-.292a.5.5 0 0 1 .708 0zm5.292-3.708l-2.292-2.292a.5.5 0 0 0-.708 0l-2.292 2.292a.5.5 0 0 1-.708 0l-.292-.292a.5.5 0 0 1 0-.708l2.939-2.939a1 1 0 0 1 1.414 0l2.94 2.94a.5.5 0 0 1 0 .707l-.293.292a.5.5 0 0 1-.708 0z"/>
        <path fill-opacity=".15" fill-rule="nonzero" d="M134.269 22H24.967C22.1 22 20 19.9 20 17.033v-.066C20 14.1 22.1 12 24.967 12h109.302c2.866 0 4.966 2.1 4.966 4.967v.066c0 2.867-2.1 4.967-4.966 4.967z"/>
        <rect width="16" height="16" x="202" y="9" fill-opacity=".15" rx="6"/>
    </g>
</svg>
