<svg width="64" height="64" viewBox="0 0 64 64" fill="none" xmlns="http://www.w3.org/2000/svg">
<rect width="64" height="64" fill="black" fill-opacity="0.01"/>
<mask id="path-1-outside-1" maskUnits="userSpaceOnUse" x="-6.19095" y="-5.97841" width="74.0023" height="75.4165" fill="black">
<rect fill="white" x="-6.19095" y="-5.97841" width="74.0023" height="75.4165"/>
<path fill-rule="evenodd" clip-rule="evenodd" d="M47.6396 54.9953L45.9076 53.9953L37.8417 49.3384L40.2154 58.1975L40.7331 60.1293L36.8694 61.1646L36.3517 59.2328L33.9779 50.3737L29.321 58.4396L28.321 60.1717L24.8569 58.1717L25.8569 56.4396L32.5138 44.9096L30.0016 35.5339L23.1371 42.3984L23.1372 55.7121L23.1372 57.7121L19.1372 57.7121L19.1372 55.7121L19.1371 46.3984L12.6518 52.8836L11.2376 54.2979L8.4092 51.4694L9.82341 50.0552L16.3087 43.57L6.99504 43.57L4.99504 43.57L4.99503 39.57L6.99503 39.57L20.3087 39.5699L27.1734 32.7052L17.7962 30.1926L6.26623 36.8495L4.53418 37.8495L2.53417 34.3854L4.26622 33.3854L12.3322 28.7285L3.47309 26.3547L1.54123 25.8371L2.57651 21.9734L4.50836 22.491L13.3674 24.8648L8.71055 16.7989L7.71055 15.0669L11.1746 13.0669L12.1746 14.7989L18.8315 26.3289L28.2084 28.8414L25.6957 19.4641L14.1657 12.8072L12.4336 11.8072L14.4336 8.34313L16.1657 9.34313L24.2316 14L21.8579 5.14091L21.3402 3.20906L25.2039 2.17378L25.7216 4.10563L28.0953 12.9647L32.7521 4.89881L33.7521 3.16675L37.2162 5.16674L36.2162 6.89879L29.5594 18.4288L32.0722 27.8065L38.9361 20.9425L38.9361 7.62882L38.9361 5.62881L42.9361 5.62881L42.9361 7.62881L42.9361 16.9425L49.4214 10.4572L50.8356 9.04302L53.664 11.8714L52.2498 13.2857L45.7645 19.771L55.0783 19.771L57.0783 19.771L57.0783 23.771L55.0783 23.771L41.7645 23.771L34.9008 30.6346L44.277 33.147L55.8071 26.4901L57.5391 25.4901L59.5391 28.9542L57.8071 29.9542L49.7411 34.6111L58.6002 36.9849L60.5321 37.5025L59.4968 41.3662L57.5649 40.8486L48.7059 38.4748L53.3627 46.5408L54.3627 48.2728L50.8986 50.2728L49.8986 48.5407L43.2418 37.0107L33.8652 34.4983L36.3775 43.8743L47.9076 50.5312L49.6396 51.5312L47.6396 54.9953Z"/>
</mask>
<path d="M45.9076 53.9953L45.4076 54.8613L45.9076 53.9953ZM47.6396 54.9953L47.1396 55.8613L48.0056 56.3613L48.5056 55.4953L47.6396 54.9953ZM37.8417 49.3384L38.3417 48.4724L36.2509 47.2653L36.8757 49.5972L37.8417 49.3384ZM40.2154 58.1975L41.1814 57.9387L40.2154 58.1975ZM40.7331 60.1293L40.9919 61.0953L41.9578 60.8364L41.699 59.8705L40.7331 60.1293ZM36.8694 61.1646L35.9034 61.4234L36.1623 62.3894L37.1282 62.1305L36.8694 61.1646ZM36.3517 59.2328L35.3858 59.4916L36.3517 59.2328ZM33.9779 50.3737L34.9439 50.1149L34.319 47.7829L33.1119 49.8737L33.9779 50.3737ZM29.321 58.4396L30.1871 58.9396L30.1871 58.9396L29.321 58.4396ZM28.321 60.1717L27.821 61.0377L28.6871 61.5377L29.1871 60.6717L28.321 60.1717ZM24.8569 58.1717L23.9909 57.6717L23.4909 58.5377L24.3569 59.0377L24.8569 58.1717ZM25.8569 56.4396L24.9909 55.9396L25.8569 56.4396ZM32.5138 44.9096L33.3799 45.4096L33.587 45.0509L33.4798 44.6508L32.5138 44.9096ZM30.0016 35.5339L30.9676 35.275L30.5193 33.602L29.2945 34.8268L30.0016 35.5339ZM23.1371 42.3984L22.43 41.6913L22.1371 41.9842L22.1371 42.3984L23.1371 42.3984ZM23.1372 55.7121L24.1372 55.7121L23.1372 55.7121ZM23.1372 57.7121L23.1372 58.7121L24.1372 58.7121L24.1372 57.7121L23.1372 57.7121ZM19.1372 57.7121L18.1372 57.7121L18.1372 58.7121L19.1372 58.7121L19.1372 57.7121ZM19.1372 55.7121L18.1372 55.7121L19.1372 55.7121ZM19.1371 46.3984L20.1371 46.3983L20.1371 43.9841L18.43 45.6912L19.1371 46.3984ZM12.6518 52.8836L11.9447 52.1765L12.6518 52.8836ZM11.2376 54.2979L10.5305 55.005L11.2376 55.7121L11.9447 55.005L11.2376 54.2979ZM8.4092 51.4694L7.70209 50.7623L6.99499 51.4694L7.70209 52.1765L8.4092 51.4694ZM9.82341 50.0552L9.11631 49.3481L9.11631 49.3481L9.82341 50.0552ZM16.3087 43.57L17.0158 44.2771L18.7229 42.5699L16.3087 42.57L16.3087 43.57ZM6.99504 43.57L6.99504 44.57L6.99504 44.57L6.99504 43.57ZM4.99504 43.57L3.99504 43.57L3.99504 44.57L4.99504 44.57L4.99504 43.57ZM4.99503 39.57L4.99502 38.57L3.99502 38.57L3.99503 39.57L4.99503 39.57ZM6.99503 39.57L6.99502 38.57L6.99502 38.57L6.99503 39.57ZM20.3087 39.5699L20.3087 40.5699L20.7229 40.5699L21.0158 40.277L20.3087 39.5699ZM27.1734 32.7052L27.8805 33.4123L29.1053 32.1876L27.4323 31.7393L27.1734 32.7052ZM17.7962 30.1926L18.0551 29.2267L17.655 29.1195L17.2962 29.3266L17.7962 30.1926ZM6.26623 36.8495L6.76623 37.7155L6.76623 37.7155L6.26623 36.8495ZM4.53418 37.8495L3.66816 38.3495L4.16816 39.2155L5.03418 38.7155L4.53418 37.8495ZM2.53417 34.3854L2.03417 33.5194L1.16814 34.0194L1.66815 34.8854L2.53417 34.3854ZM4.26622 33.3854L4.76622 34.2514L4.76622 34.2514L4.26622 33.3854ZM12.3322 28.7285L12.8322 29.5945L14.9229 28.3874L12.591 27.7626L12.3322 28.7285ZM3.47309 26.3547L3.21427 27.3206L3.47309 26.3547ZM1.54123 25.8371L0.575308 25.5782L0.31649 26.5442L1.28242 26.803L1.54123 25.8371ZM2.57651 21.9734L2.83533 21.0074L1.8694 20.7486L1.61058 21.7145L2.57651 21.9734ZM4.50836 22.491L4.76718 21.5251L4.50836 22.491ZM13.3674 24.8648L13.1086 25.8307L15.4405 26.4555L14.2334 24.3648L13.3674 24.8648ZM8.71055 16.7989L7.84453 17.2989L8.71055 16.7989ZM7.71055 15.0669L7.21054 14.2009L6.34452 14.7009L6.84452 15.5669L7.71055 15.0669ZM11.1746 13.0669L12.0407 12.5669L11.5407 11.7009L10.6746 12.2009L11.1746 13.0669ZM12.1746 14.7989L11.3086 15.2989L12.1746 14.7989ZM18.8315 26.3289L17.9655 26.8289L18.1726 27.1876L18.5727 27.2948L18.8315 26.3289ZM28.2084 28.8414L27.9496 29.8073L29.6226 30.2556L29.1743 28.5826L28.2084 28.8414ZM25.6957 19.4641L26.6617 19.2053L26.5545 18.8052L26.1957 18.598L25.6957 19.4641ZM14.1657 12.8072L13.6657 13.6733L14.1657 12.8072ZM12.4336 11.8072L11.5676 11.3072L11.0676 12.1733L11.9336 12.6733L12.4336 11.8072ZM14.4336 8.34313L14.9336 7.4771L14.0676 6.97711L13.5676 7.84313L14.4336 8.34313ZM16.1657 9.34313L15.6657 10.2092L15.6657 10.2092L16.1657 9.34313ZM24.2316 14L23.7316 14.866L25.8224 16.0731L25.1976 13.7412L24.2316 14ZM21.8579 5.14091L22.8238 4.88209L21.8579 5.14091ZM21.3402 3.20906L21.0814 2.24313L20.1155 2.50195L20.3743 3.46788L21.3402 3.20906ZM25.2039 2.17378L26.1699 1.91496L25.911 0.949036L24.9451 1.20786L25.2039 2.17378ZM25.7216 4.10563L26.6875 3.84681L25.7216 4.10563ZM28.0953 12.9647L27.1294 13.2235L27.7543 15.5555L28.9614 13.4647L28.0953 12.9647ZM32.7521 4.89881L31.8861 4.39881L31.8861 4.39881L32.7521 4.89881ZM33.7521 3.16675L34.2521 2.30072L33.3861 1.80073L32.8861 2.66675L33.7521 3.16675ZM37.2162 5.16674L38.0823 5.66674L38.5823 4.80071L37.7162 4.30071L37.2162 5.16674ZM36.2162 6.89879L37.0823 7.39879L37.0823 7.39879L36.2162 6.89879ZM29.5594 18.4288L28.6934 17.9288L28.4863 18.2875L28.5935 18.6876L29.5594 18.4288ZM32.0722 27.8065L31.1063 28.0653L31.5545 29.7383L32.7793 28.5136L32.0722 27.8065ZM38.9361 20.9425L39.6432 21.6496L39.9361 21.3567L39.9361 20.9425L38.9361 20.9425ZM38.9361 7.62882L37.9361 7.62881L37.9361 7.62882L38.9361 7.62882ZM38.9361 5.62881L38.9361 4.62881L37.9361 4.62881L37.9361 5.62881L38.9361 5.62881ZM42.9361 5.62881L43.9361 5.62881L43.9361 4.62881L42.9361 4.62881L42.9361 5.62881ZM42.9361 7.62881L43.9361 7.62881L43.9361 7.62881L42.9361 7.62881ZM42.9361 16.9425L41.9361 16.9425L41.9361 19.3567L43.6432 17.6496L42.9361 16.9425ZM49.4214 10.4572L48.7143 9.75013L48.7143 9.75013L49.4214 10.4572ZM50.8356 9.04302L51.5427 8.33592L50.8356 7.62881L50.1285 8.33592L50.8356 9.04302ZM53.664 11.8714L54.3711 12.5786L55.0782 11.8714L54.3711 11.1643L53.664 11.8714ZM52.2498 13.2857L52.9569 13.9928L52.2498 13.2857ZM45.7645 19.771L45.0574 19.0639L43.3503 20.771L45.7645 20.771L45.7645 19.771ZM55.0783 19.771L55.0783 18.771L55.0783 19.771ZM57.0783 19.771L58.0783 19.771L58.0783 18.771L57.0783 18.771L57.0783 19.771ZM57.0783 23.771L57.0783 24.771L58.0783 24.771L58.0783 23.771L57.0783 23.771ZM55.0783 23.771L55.0783 24.771L55.0783 23.771ZM41.7645 23.771L41.7645 22.771L41.3503 22.771L41.0574 23.0638L41.7645 23.771ZM34.9008 30.6346L34.1937 29.9275L32.969 31.1523L34.642 31.6006L34.9008 30.6346ZM44.277 33.147L44.0182 34.1129L44.4183 34.2201L44.777 34.013L44.277 33.147ZM55.8071 26.4901L55.3071 25.6241L55.8071 26.4901ZM57.5391 25.4901L58.4051 24.9901L57.9051 24.1241L57.0391 24.6241L57.5391 25.4901ZM59.5391 28.9542L60.0391 29.8203L60.9051 29.3203L60.4051 28.4542L59.5391 28.9542ZM57.8071 29.9542L58.3071 30.8203L57.8071 29.9542ZM49.7411 34.6111L49.2411 33.7451L47.1504 34.9522L49.4823 35.577L49.7411 34.6111ZM58.6002 36.9849L58.859 36.0189L58.6002 36.9849ZM60.5321 37.5025L61.498 37.7613L61.7568 36.7954L60.7909 36.5366L60.5321 37.5025ZM59.4968 41.3662L59.238 42.3321L60.2039 42.591L60.4627 41.625L59.4968 41.3662ZM57.5649 40.8486L57.3061 41.8145L57.5649 40.8486ZM48.7059 38.4748L48.9647 37.5089L46.6327 36.884L47.8398 38.9748L48.7059 38.4748ZM53.3627 46.5408L54.2287 46.0408L53.3627 46.5408ZM54.3627 48.2728L54.8627 49.1388L55.7287 48.6388L55.2287 47.7728L54.3627 48.2728ZM50.8986 50.2728L50.0326 50.7728L50.5326 51.6388L51.3986 51.1388L50.8986 50.2728ZM49.8986 48.5407L49.0326 49.0407L49.8986 48.5407ZM43.2418 37.0107L44.1078 36.5107L43.9007 36.152L43.5006 36.0448L43.2418 37.0107ZM33.8652 34.4983L34.1241 33.5323L32.451 33.084L32.8993 34.7571L33.8652 34.4983ZM36.3775 43.8743L35.4116 44.1331L35.5188 44.5332L35.8775 44.7403L36.3775 43.8743ZM47.9076 50.5312L48.4076 49.6651L47.9076 50.5312ZM49.6396 51.5312L50.5056 52.0312L51.0056 51.1651L50.1396 50.6651L49.6396 51.5312ZM45.4076 54.8613L47.1396 55.8613L48.1396 54.1292L46.4076 53.1292L45.4076 54.8613ZM37.3417 50.2044L45.4076 54.8613L46.4076 53.1292L38.3417 48.4724L37.3417 50.2044ZM41.1814 57.9387L38.8076 49.0796L36.8757 49.5972L39.2495 58.4563L41.1814 57.9387ZM41.699 59.8705L41.1814 57.9387L39.2495 58.4563L39.7671 60.3881L41.699 59.8705ZM37.1282 62.1305L40.9919 61.0953L40.4743 59.1634L36.6105 60.1987L37.1282 62.1305ZM35.3858 59.4916L35.9034 61.4234L37.8353 60.9058L37.3177 58.9739L35.3858 59.4916ZM33.012 50.6325L35.3858 59.4916L37.3177 58.9739L34.9439 50.1149L33.012 50.6325ZM30.1871 58.9396L34.844 50.8737L33.1119 49.8737L28.455 57.9396L30.1871 58.9396ZM29.1871 60.6717L30.1871 58.9396L28.455 57.9396L27.455 59.6717L29.1871 60.6717ZM24.3569 59.0377L27.821 61.0377L28.821 59.3056L25.3569 57.3056L24.3569 59.0377ZM24.9909 55.9396L23.9909 57.6717L25.723 58.6717L26.723 56.9396L24.9909 55.9396ZM31.6478 44.4096L24.9909 55.9396L26.723 56.9396L33.3799 45.4096L31.6478 44.4096ZM29.0357 35.7927L31.5479 45.1684L33.4798 44.6508L30.9676 35.275L29.0357 35.7927ZM29.2945 34.8268L22.43 41.6913L23.8442 43.1055L30.7087 36.241L29.2945 34.8268ZM22.1371 42.3984L22.1372 55.7121L24.1372 55.7121L24.1371 42.3984L22.1371 42.3984ZM22.1372 55.7121L22.1372 57.7121L24.1372 57.7121L24.1372 55.7121L22.1372 55.7121ZM23.1372 56.7121L19.1372 56.7121L19.1372 58.7121L23.1372 58.7121L23.1372 56.7121ZM20.1372 57.7121L20.1372 55.7121L18.1372 55.7121L18.1372 57.7121L20.1372 57.7121ZM20.1372 55.7121L20.1371 46.3983L18.1371 46.3984L18.1372 55.7121L20.1372 55.7121ZM18.43 45.6912L11.9447 52.1765L13.3589 53.5908L19.8442 47.1055L18.43 45.6912ZM11.9447 52.1765L10.5305 53.5908L11.9447 55.005L13.3589 53.5908L11.9447 52.1765ZM11.9447 53.5908L9.11631 50.7623L7.70209 52.1765L10.5305 55.005L11.9447 53.5908ZM9.11631 52.1765L10.5305 50.7623L9.11631 49.3481L7.70209 50.7623L9.11631 52.1765ZM10.5305 50.7623L17.0158 44.2771L15.6016 42.8628L9.11631 49.3481L10.5305 50.7623ZM16.3087 42.57L6.99504 42.57L6.99504 44.57L16.3087 44.57L16.3087 42.57ZM6.99504 42.57L4.99504 42.57L4.99504 44.57L6.99504 44.57L6.99504 42.57ZM5.99504 43.57L5.99503 39.57L3.99503 39.57L3.99504 43.57L5.99504 43.57ZM4.99503 40.57L6.99503 40.57L6.99502 38.57L4.99502 38.57L4.99503 40.57ZM6.99503 40.57L20.3087 40.5699L20.3087 38.5699L6.99502 38.57L6.99503 40.57ZM21.0158 40.277L27.8805 33.4123L26.4663 31.9981L19.6016 38.8628L21.0158 40.277ZM17.5374 31.1585L26.9146 33.6711L27.4323 31.7393L18.0551 29.2267L17.5374 31.1585ZM6.76623 37.7155L18.2963 31.0586L17.2962 29.3266L5.76622 35.9835L6.76623 37.7155ZM5.03418 38.7155L6.76623 37.7155L5.76623 35.9835L4.03418 36.9835L5.03418 38.7155ZM1.66815 34.8854L3.66816 38.3495L5.4002 37.3495L3.40019 33.8854L1.66815 34.8854ZM3.76622 32.5194L2.03417 33.5194L3.03417 35.2514L4.76622 34.2514L3.76622 32.5194ZM11.8322 27.8625L3.76622 32.5194L4.76622 34.2514L12.8322 29.5945L11.8322 27.8625ZM3.21427 27.3206L12.0733 29.6944L12.591 27.7626L3.7319 25.3888L3.21427 27.3206ZM1.28242 26.803L3.21427 27.3206L3.7319 25.3888L1.80005 24.8711L1.28242 26.803ZM1.61058 21.7145L0.575308 25.5782L2.50716 26.0959L3.54244 22.2322L1.61058 21.7145ZM4.76718 21.5251L2.83533 21.0074L2.31769 22.9393L4.24954 23.4569L4.76718 21.5251ZM13.6262 23.8988L4.76718 21.5251L4.24954 23.4569L13.1086 25.8307L13.6262 23.8988ZM7.84453 17.2989L12.5014 25.3648L14.2334 24.3648L9.57658 16.2989L7.84453 17.2989ZM6.84452 15.5669L7.84453 17.2989L9.57658 16.2989L8.57657 14.5669L6.84452 15.5669ZM10.6746 12.2009L7.21054 14.2009L8.21055 15.9329L11.6746 13.9329L10.6746 12.2009ZM13.0407 14.2989L12.0407 12.5669L10.3086 13.5669L11.3086 15.2989L13.0407 14.2989ZM19.6975 25.8289L13.0407 14.2989L11.3086 15.2989L17.9655 26.8289L19.6975 25.8289ZM28.4672 27.8755L19.0903 25.363L18.5727 27.2948L27.9496 29.8073L28.4672 27.8755ZM24.7298 19.7229L27.2425 29.1002L29.1743 28.5826L26.6617 19.2053L24.7298 19.7229ZM13.6657 13.6733L25.1957 20.3301L26.1957 18.598L14.6657 11.9412L13.6657 13.6733ZM11.9336 12.6733L13.6657 13.6733L14.6657 11.9412L12.9336 10.9412L11.9336 12.6733ZM13.5676 7.84313L11.5676 11.3072L13.2997 12.3072L15.2996 8.84313L13.5676 7.84313ZM16.6657 8.4771L14.9336 7.4771L13.9336 9.20916L15.6657 10.2092L16.6657 8.4771ZM24.7316 13.134L16.6657 8.4771L15.6657 10.2092L23.7316 14.866L24.7316 13.134ZM20.8919 5.39973L23.2657 14.2588L25.1976 13.7412L22.8238 4.88209L20.8919 5.39973ZM20.3743 3.46788L20.8919 5.39973L22.8238 4.88209L22.3061 2.95024L20.3743 3.46788ZM24.9451 1.20786L21.0814 2.24313L21.599 4.17498L25.4627 3.13971L24.9451 1.20786ZM26.6875 3.84681L26.1699 1.91496L24.238 2.4326L24.7556 4.36445L26.6875 3.84681ZM29.0613 12.7059L26.6875 3.84681L24.7556 4.36445L27.1294 13.2235L29.0613 12.7059ZM31.8861 4.39881L27.2293 12.4647L28.9614 13.4647L33.6182 5.3988L31.8861 4.39881ZM32.8861 2.66675L31.8861 4.39881L33.6182 5.3988L34.6182 3.66675L32.8861 2.66675ZM37.7162 4.30071L34.2521 2.30072L33.2521 4.03278L36.7162 6.03277L37.7162 4.30071ZM37.0823 7.39879L38.0823 5.66674L36.3502 4.66674L35.3502 6.3988L37.0823 7.39879ZM30.4255 18.9288L37.0823 7.39879L35.3502 6.3988L28.6934 17.9288L30.4255 18.9288ZM33.0381 27.5476L30.5254 18.17L28.5935 18.6876L31.1063 28.0653L33.0381 27.5476ZM32.7793 28.5136L39.6432 21.6496L38.229 20.2354L31.3651 27.0993L32.7793 28.5136ZM39.9361 20.9425L39.9361 7.62881L37.9361 7.62882L37.9361 20.9425L39.9361 20.9425ZM39.9361 7.62882L39.9361 5.62881L37.9361 5.62881L37.9361 7.62881L39.9361 7.62882ZM38.9361 6.62881L42.9361 6.62881L42.9361 4.62881L38.9361 4.62881L38.9361 6.62881ZM41.9361 5.62882L41.9361 7.62881L43.9361 7.62881L43.9361 5.62881L41.9361 5.62882ZM41.9361 7.62881L41.9361 16.9425L43.9361 16.9425L43.9361 7.62881L41.9361 7.62881ZM43.6432 17.6496L50.1285 11.1643L48.7143 9.75013L42.229 16.2354L43.6432 17.6496ZM50.1285 11.1643L51.5427 9.75013L50.1285 8.33592L48.7143 9.75013L50.1285 11.1643ZM50.1285 9.75013L52.9569 12.5786L54.3711 11.1643L51.5427 8.33592L50.1285 9.75013ZM52.9569 11.1643L51.5427 12.5786L52.9569 13.9928L54.3711 12.5786L52.9569 11.1643ZM51.5427 12.5786L45.0574 19.0639L46.4716 20.4781L52.9569 13.9928L51.5427 12.5786ZM45.7645 20.771L55.0783 20.771L55.0783 18.771L45.7645 18.771L45.7645 20.771ZM55.0783 20.771L57.0783 20.771L57.0783 18.771L55.0783 18.771L55.0783 20.771ZM56.0783 19.771L56.0783 23.771L58.0783 23.771L58.0783 19.771L56.0783 19.771ZM57.0783 22.771L55.0783 22.771L55.0783 24.771L57.0783 24.771L57.0783 22.771ZM55.0783 22.771L41.7645 22.771L41.7645 24.771L55.0783 24.771L55.0783 22.771ZM41.0574 23.0638L34.1937 29.9275L35.608 31.3418L42.4716 24.4781L41.0574 23.0638ZM44.5359 32.1811L35.1597 29.6687L34.642 31.6006L44.0182 34.1129L44.5359 32.1811ZM55.3071 25.6241L43.777 32.281L44.777 34.013L56.3071 27.3562L55.3071 25.6241ZM57.0391 24.6241L55.3071 25.6241L56.3071 27.3562L58.0391 26.3562L57.0391 24.6241ZM60.4051 28.4542L58.4051 24.9901L56.6731 25.9901L58.6731 29.4542L60.4051 28.4542ZM58.3071 30.8203L60.0391 29.8203L59.0391 28.0882L57.3071 29.0882L58.3071 30.8203ZM50.2412 35.4771L58.3071 30.8203L57.3071 29.0882L49.2411 33.7451L50.2412 35.4771ZM58.859 36.0189L50 33.6452L49.4823 35.577L58.3414 37.9508L58.859 36.0189ZM60.7909 36.5366L58.859 36.0189L58.3414 37.9508L60.2732 38.4684L60.7909 36.5366ZM60.4627 41.625L61.498 37.7613L59.5661 37.2437L58.5309 41.1074L60.4627 41.625ZM57.3061 41.8145L59.238 42.3321L59.7556 40.4003L57.8237 39.8826L57.3061 41.8145ZM48.447 39.4407L57.3061 41.8145L57.8237 39.8826L48.9647 37.5089L48.447 39.4407ZM54.2287 46.0408L49.5719 37.9748L47.8398 38.9748L52.4967 47.0408L54.2287 46.0408ZM55.2287 47.7728L54.2287 46.0408L52.4967 47.0408L53.4967 48.7728L55.2287 47.7728ZM51.3986 51.1388L54.8627 49.1388L53.8627 47.4068L50.3986 49.4068L51.3986 51.1388ZM49.0326 49.0407L50.0326 50.7728L51.7646 49.7728L50.7646 48.0408L49.0326 49.0407ZM42.3757 37.5107L49.0326 49.0407L50.7646 48.0408L44.1078 36.5107L42.3757 37.5107ZM33.6064 35.4642L42.9829 37.9766L43.5006 36.0448L34.1241 33.5323L33.6064 35.4642ZM37.3435 43.6155L34.8312 34.2394L32.8993 34.7571L35.4116 44.1331L37.3435 43.6155ZM48.4076 49.6651L36.8775 43.0083L35.8775 44.7403L47.4076 51.3972L48.4076 49.6651ZM50.1396 50.6651L48.4076 49.6651L47.4076 51.3972L49.1396 52.3972L50.1396 50.6651ZM48.5056 55.4953L50.5056 52.0312L48.7736 51.0312L46.7736 54.4953L48.5056 55.4953Z" fill="#034EA6" mask="url(#path-1-outside-1)"/>
</svg>
