<svg xmlns="http://www.w3.org/2000/svg" width="16" height="16"><g fill="#FFF"><rect x="7" y="0" width="2" height="5" rx="1"/><path d="M5.9 4.5C6.3 4.9 6.3 5.5 5.9 5.9 5.5 6.3 4.9 6.3 4.5 5.9L2.3 3.8C2 3.4 1.9 2.7 2.3 2.3 2.7 2 3.4 1.9 3.8 2.3L5.9 4.5 5.9 4.5Z" opacity="0.8"/><path d="M4 7C4.6 7 5 7.4 5 8 5 8.6 4.6 9 4 9L1 9C0.4 9 0 8.6 0 8 0 7.4 0.4 7 1 7L4 7 4 7Z" opacity="0.6"/><path d="M4.5 10.1C4.9 9.7 5.5 9.7 5.9 10.1 6.3 10.5 6.3 11.1 5.9 11.5L3.8 13.7C3.4 14 2.7 14.1 2.3 13.7 2 13.3 1.9 12.6 2.3 12.2L4.5 10.1 4.5 10.1Z" opacity="0.4"/><rect opacity="0.2" x="7" y="11" width="2" height="5" rx="1"/><path d="M13.7 12.2C14 12.6 14.1 13.3 13.7 13.7 13.3 14 12.6 14.1 12.2 13.7L10.1 11.5C9.7 11.1 9.7 10.5 10.1 10.1 10.5 9.7 11.1 9.7 11.5 10.1L13.7 12.2 13.7 12.2Z" opacity="0.2"/><path d="M15 7C15.6 7 16 7.4 16 8 16 8.6 15.6 9 15 9L12 9C11.4 9 11 8.6 11 8 11 7.4 11.4 7 12 7L15 7 15 7Z" opacity="0.2"/><path d="M12.2 2.3C12.6 2 13.3 1.9 13.7 2.3 14 2.7 14.1 3.4 13.7 3.8L11.5 5.9C11.1 6.3 10.5 6.3 10.1 5.9 9.7 5.5 9.7 4.9 10.1 4.5L12.2 2.3 12.2 2.3Z" opacity="0.2"/></g></svg>
