<svg xmlns="http://www.w3.org/2000/svg" xmlns:xlink="http://www.w3.org/1999/xlink" width="16" height="16" viewBox="0 0 16 16">
  <defs>
    <path id="sidebar-tag-a" d="M7.243,0.999123918 L6.715,3.99912392 L10.688,3.99912392 L11.218,0.999123918 L13.243,0.999123918 L12.715,3.99912392 L14.689,3.99912392 L14.336,5.99912392 L12.364,5.99912392 L11.66,9.99912392 L13.63,9.99912392 L13.277,11.9991239 L11.308,11.9991239 L10.78,14.9991239 L8.745,14.9991239 L9.275,11.9991239 L5.308,11.9991239 L4.78,14.9991239 L2.745,14.9991239 L3.275,11.9991239 L1.308,11.9991239 L1.66,9.99912392 L3.629,9.99912392 L4.335,5.99912392 L2.362,5.99912392 L2.714,3.99912392 L4.688,3.99912392 L5.218,0.999123918 L7.243,0.999123918 Z M10.335,5.99912392 L6.364,5.99912392 L5.66,9.99912392 L9.629,9.99912392 L10.335,5.99912392 Z"/>
  </defs>
  <use fill="#53B53D" fill-rule="evenodd" xlink:href="#sidebar-tag-a"/>
</svg>
