<svg width="24" height="24" viewBox="0 0 24 24" fill="none" xmlns="http://www.w3.org/2000/svg">
<path fill-rule="evenodd" clip-rule="evenodd" d="M0.042426 12.7709C0.162244 13.8377 0.209674 14.8307 0.184107 15.7604C0.173118 15.8019 0.165861 15.8451 0.162734 15.8895C0.135642 16.274 0.428753 16.6076 0.817418 16.6346C1.20608 16.6615 1.54312 16.3717 1.57021 15.9871L1.57068 15.98L1.57822 15.977C1.61713 14.9348 1.56937 13.8254 1.43571 12.6377C1.39205 12.1119 1.38829 11.5777 1.42557 11.0484C1.82821 5.33351 6.85505 1.01023 12.6312 1.41112C13.5153 1.47248 14.3841 1.64179 15.2147 1.91538C15.583 2.03676 15.978 1.8392 16.0997 1.47618C16.2214 1.11316 16.023 0.721678 15.6561 0.600396C14.7144 0.291323 13.7293 0.0986699 12.7286 0.0292134C6.18212 -0.425138 0.485176 4.47445 0.0288497 10.9515C-0.0133072 11.5498 -0.00966421 12.1555 0.042426 12.7709ZM22.5892 14.8374L22.5866 14.8366C22.5635 12.5493 22.3783 11.0209 22.3714 10.964L22.3712 10.9628C22.1077 7.73049 20.3144 4.77662 17.5719 3.03167C17.2469 2.82442 17.1529 2.39574 17.3614 2.07485C17.5709 1.75194 18.0028 1.65763 18.3291 1.86636C21.4362 3.84422 23.4678 7.19165 23.7636 10.822C23.7777 10.93 23.9646 12.4449 23.9927 14.7228C23.9998 14.7713 24.0018 14.8213 23.9983 14.8721L23.9971 14.887C23.9964 14.8945 23.9956 14.9019 23.9947 14.9092L23.9948 14.9218L23.9929 14.9225C23.9413 15.2816 23.617 15.5453 23.2455 15.5196C22.8782 15.4941 22.5963 15.1948 22.5892 14.8374ZM19.5488 19.8542C20.0036 16.291 19.8023 12.9918 19.5317 10.7564C19.4921 10.462 19.432 10.1586 19.3546 9.86371C19.2578 9.49386 19.4816 9.11571 19.8561 9.0195C20.2313 8.92472 20.6129 9.14562 20.7096 9.51616C20.8015 9.86554 20.8723 10.2253 20.9207 10.5834C21.2039 12.9222 21.4132 16.3738 20.9276 20.106L20.9275 20.1066C20.9004 20.4912 20.5634 20.781 20.1747 20.7541C19.7861 20.7271 19.4929 20.3935 19.52 20.009C19.5238 19.9553 19.5336 19.9035 19.5488 19.8542ZM16.5612 20.9554C16.4937 21.3226 16.4203 21.6827 16.3423 22.0349C16.3121 22.1047 16.293 22.1808 16.2874 22.2609C16.2603 22.6454 16.5534 22.979 16.942 23.006C17.2816 23.0296 17.5817 22.8113 17.6702 22.4994C17.6725 22.4958 17.6741 22.4918 17.6751 22.4874C17.7698 22.07 17.8583 21.6414 17.9389 21.2031C18.7773 16.635 18.3638 12.4923 18.1472 10.9248C17.7518 8.02071 15.3094 5.76334 12.3392 5.5572C11.5962 5.50563 10.8595 5.58226 10.1498 5.78504C9.77809 5.89117 9.56438 6.27488 9.6718 6.6427C9.77928 7.00982 10.1679 7.22079 10.5388 7.116C11.0903 6.95847 11.6636 6.89898 12.2419 6.93911C14.5528 7.09949 16.4524 8.8533 16.7601 11.1104C16.9671 12.6141 17.364 16.5827 16.5612 20.9554ZM13.1484 22.9977C13.3191 22.4228 13.4823 21.8178 13.6313 21.1881C13.703 20.8868 13.767 20.5865 13.8233 20.2856C13.8932 19.9106 14.2613 19.657 14.6392 19.7319C15.0189 19.8013 15.2699 20.1624 15.1999 20.5387C15.1393 20.8608 15.0716 21.1839 14.9949 21.5056C14.8339 22.1858 14.6568 22.8384 14.4716 23.4571C14.3962 23.7873 14.0865 24.0227 13.7345 23.9983C13.3459 23.9713 13.0528 23.6377 13.0799 23.2532C13.0863 23.1617 13.1103 23.0755 13.1484 22.9977ZM7.42445 22.5908C7.42014 22.6031 7.41838 22.6147 7.41888 22.6256C7.41364 22.6528 7.40998 22.6805 7.40799 22.7088C7.38089 23.0934 7.67401 23.427 8.06267 23.4539C8.4304 23.4795 8.75192 23.2213 8.80843 22.8678C8.99662 22.3144 9.16963 21.7351 9.31924 21.1339C10.0087 18.3607 10.18 15.2016 9.8147 11.9996C9.80147 11.8786 9.79892 11.7555 9.80773 11.6305C9.88829 10.4869 10.8938 9.62283 12.0489 9.703C13.0287 9.771 13.8217 10.4877 13.9761 11.4441C13.9805 11.4715 14.4153 14.2443 14.1673 17.6154C14.1397 17.9975 14.4293 18.3287 14.8154 18.3568C15.2016 18.3836 15.5362 18.0972 15.5637 17.7165C15.8228 14.1879 15.378 11.3477 15.3591 11.2277C15.1005 9.62873 13.7797 8.43446 12.1462 8.32109C10.2208 8.18746 8.54521 9.62856 8.411 11.5335C8.39659 11.738 8.40034 11.9438 8.42299 12.1502C8.76988 15.1953 8.60967 18.1865 7.95941 20.8021C7.81298 21.3908 7.64243 21.9576 7.45659 22.498C7.44784 22.5197 7.44014 22.5419 7.43357 22.5646L7.42445 22.5908ZM4.91921 21.2877C5.02905 20.9333 5.12497 20.5803 5.20679 20.2288C5.76346 17.8359 5.90701 15.2206 5.63308 12.4548C5.59173 12.1055 5.58542 11.7468 5.61409 11.3398C5.72041 9.83075 6.37603 8.41399 7.46091 7.34919C7.73536 7.07939 8.17728 7.08229 8.45083 7.35332C8.72363 7.62499 8.72149 8.06366 8.44709 8.33276C7.60346 9.16088 7.09353 10.2628 7.01082 11.4367C6.98799 11.7608 6.99224 12.0291 7.02525 12.3077C7.31517 15.235 7.1624 18.0011 6.57082 20.5408C6.47605 20.9479 6.3641 21.3565 6.23516 21.7661C6.15629 22.0918 5.84903 22.3229 5.50017 22.2986C5.11151 22.2717 4.81839 21.9381 4.84549 21.5535C4.85222 21.4579 4.87812 21.3681 4.91921 21.2877ZM10.8715 23.9648C10.8149 23.9609 10.7581 23.95 10.7018 23.9322C10.3348 23.813 10.1343 23.422 10.2539 23.0582C10.4813 22.3706 10.6783 21.6767 10.8393 20.995C11.9557 16.276 11.2192 11.9374 11.211 11.8938C11.1456 11.5171 11.4004 11.1584 11.7811 11.0932C12.1639 11.0295 12.5238 11.2801 12.5906 11.6569C12.6237 11.8439 13.3872 16.3066 12.203 21.3111C12.0323 22.0318 11.8242 22.7644 11.585 23.4894C11.4826 23.7968 11.1837 23.9864 10.8715 23.9648ZM3.2919 19.1625C3.31685 19.167 3.34189 19.1701 3.36703 19.1718C3.71901 19.1963 4.0406 18.9547 4.10398 18.6029C4.68597 15.3925 4.27402 12.8226 4.25956 12.739C4.19676 12.2458 4.18242 11.7421 4.21762 11.2426C4.51286 7.05194 8.19951 3.88127 12.4351 4.17524C14.8214 4.34086 16.957 5.5646 18.2936 7.53137C18.5091 7.84836 18.9438 7.93408 19.2648 7.72029C19.5858 7.50719 19.6709 7.07636 19.4554 6.75936C17.8767 4.43418 15.3531 2.9891 12.5324 2.79333C7.52658 2.4459 3.16983 6.19288 2.82089 11.1456C2.77932 11.7357 2.79641 12.3299 2.87437 12.9366L2.87438 12.9366C2.87897 12.9657 3.26297 15.3951 2.72605 18.3587C2.65747 18.7345 2.91068 19.095 3.2919 19.1625Z" fill="#EE3155"/>
</svg>
