<svg width="32" height="32" viewBox="0 0 32 32" fill="none" xmlns="http://www.w3.org/2000/svg">
<rect x="1" y="1" width="30" height="30" rx="15" fill="#1BA300"/>
<rect width="16" height="16" transform="translate(8 8)" fill="black" fill-opacity="0.01"/>
<path fill-rule="evenodd" clip-rule="evenodd" d="M10 16C10 12.6863 12.6863 10 16 10C19.3137 10 22 12.6863 22 16C22 19.3137 19.3137 22 16 22C12.6863 22 10 19.3137 10 16ZM16 8C11.5817 8 8 11.5817 8 16C8 20.4183 11.5817 24 16 24C20.4183 24 24 20.4183 24 16C24 11.5817 20.4183 8 16 8ZM19.2071 15.2071C19.5976 14.8166 19.5976 14.1834 19.2071 13.7929C18.8166 13.4024 18.1834 13.4024 17.7929 13.7929L15 16.5858L14.2071 15.7929C13.8166 15.4024 13.1834 15.4024 12.7929 15.7929C12.4024 16.1834 12.4024 16.8166 12.7929 17.2071L14.2929 18.7071C14.6834 19.0976 15.3166 19.0976 15.7071 18.7071L19.2071 15.2071Z" fill="white"/>
<rect x="1" y="1" width="30" height="30" rx="15" stroke="#F7F7F7" stroke-width="2"/>
</svg>
