<svg fill="none" height="45" viewBox="0 0 45 45" width="45" xmlns="http://www.w3.org/2000/svg"><path clip-rule="evenodd" d="m22 11c.834 0 1.5.67 1.5 1.495v8.004l8.005.001c.776 0 1.416.595 1.488 1.356l.007.144-.007.145c-.072.765-.71 1.355-1.488 1.355l-8.005-.001v8.006c0 .776-.595 1.416-1.356 1.488l-.144.007-.145-.007c-.765-.072-1.355-.71-1.355-1.488v-8.005l-8.005.001c-.776 0-1.416-.595-1.488-1.356l-.007-.144.007-.145c.072-.765.71-1.355 1.488-1.355l8.005-.001v-8.004c0-.776.595-1.416 1.356-1.488z" fill="#008cff" fill-rule="evenodd"/><rect height="41" rx="6" stroke="#008cff" stroke-dasharray="10 4" stroke-linecap="round" stroke-width="2.5" width="41" x="2" y="2"/></svg>