<svg xmlns="http://www.w3.org/2000/svg" width="44" height="44" viewBox="0 0 44 44">
    <g fill="none" fill-rule="evenodd">
        <path stroke="#008CFF" stroke-dasharray="10 4" stroke-linecap="round" stroke-width="2.5" d="M0 20.75C0 9.29 9.288 0 20.75 0h0C32.21 0 41.5 9.288 41.5 20.75h0c0 11.46-9.288 20.75-20.75 20.75h0C9.29 41.5 0 32.212 0 20.75h0z" transform="translate(1.25 1.25)"/>
        <path fill="#008CFF" d="M20.75 9.75c.834 0 1.5.67 1.5 1.495v8.004l8.005.001c.776 0 1.416.595 1.488 1.356l.007.144-.007.145c-.072.765-.71 1.355-1.488 1.355l-8.005-.001v8.006c0 .776-.595 1.416-1.356 1.488l-.144.007-.145-.007c-.765-.072-1.355-.71-1.355-1.488V22.25l-8.005.001c-.776 0-1.416-.595-1.488-1.356l-.007-.144.007-.145c.072-.765.71-1.355 1.488-1.355l8.005-.001v-8.004c0-.776.595-1.416 1.356-1.488z" transform="translate(1.25 1.25)"/>
    </g>
</svg>
