<svg width="32" height="32" viewBox="0 0 32 32" fill="none" xmlns="http://www.w3.org/2000/svg">
<path fill-rule="evenodd" clip-rule="evenodd" d="M22.1399 31.7543C20.5945 31.905 18.6319 32 16.1399 32C13.7955 32 11.7955 31.9342 10.1399 31.8026L10.1399 18H22.1399V31.7543Z" fill="#212B36"/>
<path fill-rule="evenodd" clip-rule="evenodd" d="M27.8821 8V9.79329C27.8821 10.1256 27.7288 10.4376 27.4702 10.6315L24.3139 12.9987C24.0074 13.2286 23.8556 13.6177 23.9144 14H8.10784C8.16658 13.6177 8.01477 13.2286 7.70834 12.9987L4.55202 10.6315C4.29344 10.4376 4.14014 10.1256 4.14014 9.79329V8H27.8821Z" fill="#637381"/>
<path fill-rule="evenodd" clip-rule="evenodd" d="M8.07755 14.1397L4.17635 29.7997C4.28444 30.8717 6.44348 31.552 10.6535 31.8406L12.3982 30.9678V23.2258C12.3982 21.2305 14.0158 19.6129 16.0111 19.6129C18.0065 19.6129 19.624 21.2305 19.624 23.2258V30.9678L21.3353 31.8234L21.3357 31.8246C27.8774 31.3162 27.8656 29.8739 27.8459 29.7997L23.9446 14.1393C23.9424 14.1395 23.9403 14.1398 23.9382 14.14C23.9381 14.1305 23.9379 14.121 23.9376 14.1116C23.9164 14.0313 23.9048 13.95 23.9024 13.8692C23.5741 12.6374 20.9867 12 16.1401 12C10.9501 12 8.26478 12.7309 8.084 14.14C8.08184 14.1399 8.07969 14.1398 8.07755 14.1397ZM27.479 10.6248C27.7322 10.4304 27.8821 10.1218 27.8821 9.79329V5.81131C27.8821 5.41406 27.6636 5.05206 27.3203 4.8804L25.0912 3.76586C24.9652 3.70285 24.8272 3.67013 24.6874 3.67013C24.1714 3.67013 23.753 4.10667 23.753 4.64516C23.753 4.80699 23.7087 4.96544 23.6252 5.10181C23.3835 5.49656 22.8809 5.61211 22.5026 5.35991L21.1129 4.43346C20.8284 4.2438 20.6563 3.91585 20.6563 3.56358V2.06452C20.6563 0.924315 19.7705 0 18.6778 0H13.3444C12.2517 0 11.3659 0.924315 11.3659 2.06452V3.56358C11.3659 3.91585 11.1938 4.2438 10.9093 4.43346L9.51962 5.35991C9.38893 5.44704 9.23709 5.49333 9.082 5.49333C8.63309 5.49333 8.26917 5.11359 8.26917 4.64516C8.26917 4.49933 8.23782 4.35535 8.17743 4.22383C7.95443 3.73821 7.39638 3.53317 6.93099 3.76586L4.70191 4.8804C4.35859 5.05206 4.14014 5.41406 4.14014 5.81131V9.79329C4.14014 10.1226 4.29068 10.4319 4.54503 10.6262L4.552 10.62C4.42174 10.5223 6.86338 8.48485 16.1414 8.48596C25.4195 8.48718 27.5985 10.5238 27.4702 10.62L27.479 10.6248Z" fill="#919EAB"/>
</svg>
