<svg xmlns="http://www.w3.org/2000/svg" width="16" height="16" viewBox="0 0 16 16">
  <g fill="none" fill-rule="evenodd" transform="translate(2)">
    <path fill="#919EAB" d="M0.0181043174,14.8998507 L1.97194122,7.05683334 C2.02755162,6.84829433 1.95254878,6.62570191 1.78410207,6.49936688 L0.20594346,5.31574792 C0.0766507511,5.21877839 0,5.06279047 0,4.89664321 L0,2.9056552 C0,2.70703166 0.109228314,2.526031 0.280886792,2.44020177 L1.39542682,1.88293175 C1.62812106,1.76658463 1.90714507,1.86910417 2.01864439,2.11191555 C2.04884072,2.17767392 2.06451613,2.24966293 2.06451613,2.32258065 C2.06451613,2.55679711 2.24647484,2.74666707 2.47093229,2.74666707 C2.54847433,2.74666707 2.624398,2.72351961 2.68974239,2.67995669 L3.38457964,2.21673185 C3.52682389,2.12190236 3.61290323,1.9579274 3.61290323,1.78179185 L3.61290323,1.03225806 C3.61290323,0.462157678 4.05580433,0 4.60215054,0 L7.2688172,0 C7.81516341,0 8.25806452,0.462157678 8.25806452,1.03225806 L8.25806452,1.78179185 C8.25806452,1.9579274 8.34414386,2.12190236 8.4863881,2.21673185 L9.18122536,2.67995669 C9.37037481,2.80605632 9.62167535,2.74827757 9.74252083,2.55090423 C9.78426863,2.48271878 9.80645161,2.40349408 9.80645161,2.32258065 C9.80645161,2.05333351 10.015625,1.83506559 10.2736535,1.83506559 C10.343533,1.83506559 10.4125225,1.85142254 10.4755409,1.88293175 L11.5900809,2.44020177 C11.7617394,2.526031 11.8709677,2.70703166 11.8709677,2.9056552 L11.8709677,4.89664321 C11.8709677,5.06279047 11.794317,5.21877839 11.6650243,5.31574792 L10.0868657,6.49936688 C9.91841896,6.62570191 9.84341612,6.84829433 9.89902653,7.05683334 L11.8528634,14.8998507 C11.8648772,14.9449025 11.8709677,16 6,16 C2.08602151,16 0.0920562778,15.6332836 0.0181043174,14.8998507 Z"/>
    <path fill="#212B36" d="M5.93548387,9.80645161 C6.93315955,9.80645161 7.74193548,10.6152275 7.74193548,11.6129032 L7.74193548,15.483871 L8.59757439,15.9116904 L8.59757439,15.9116904 C7.89556181,15.9668922 7.03998876,16 6,16 C4.94642591,16 4.03197438,15.973428 3.25664538,15.9202841 L4.12903226,15.483871 L4.12903226,11.6129032 C4.12903226,10.6152275 4.93780819,9.80645161 5.93548387,9.80645161 Z"/>
    <path fill="#637381" d="M1.97194122,7.05683334 C2.02755162,6.84829433 1.95254878,6.62570191 1.78410207,6.49936688 L0.20594346,5.31574792 C0.140812318,5.26689956 1.36163224,4.24244262 6.00065912,4.2429996 C10.639686,4.2436071 11.7291858,5.26762674 11.6650243,5.31574792 L10.0868657,6.49936688 C9.91841896,6.62570191 9.84341612,6.84829433 9.89902653,7.05683334 C9.89465759,6.35227778 8.59498208,6 6,6 C3.40501792,6 2.06233166,6.35227778 1.97194122,7.05683334 Z"/>
  </g>
</svg>
