<svg width="18" height="18" xmlns="http://www.w3.org/2000/svg"><g fill="#FFF" fill-rule="evenodd"><rect x="5" y="10" width="8" height="6" rx="1"/><path d="M8 10.5H6V9c0-1.758 1.275-3 3-3 1.733 0 3 1.22 3 3v1.5h-2V9c0-.658-.355-1-1-1-.632 0-1 .359-1 1v1.5z" fill-rule="nonzero"/><path d="M4 9c-.798 0-.972-.672-.918-.996A6.002 6.002 0 0 1 14.917 8C14.972 8.326 14.8 9 14 9s-1.042-.67-1.122-.986a4.002 4.002 0 0 0-7.755 0C5.043 8.328 4.798 9 4 9z" fill-rule="nonzero"/><path d="M1 9c-.748.003-.982-.658-.947-.98a9.001 9.001 0 0 1 17.892-.016C17.982 8.33 17.75 9 17 9s-1.024-.666-1.07-.99a7.002 7.002 0 0 0-13.86 0c-.046.324-.322.987-1.07.99z" fill-rule="nonzero"/></g></svg>