<svg width="702" height="191" viewBox="0 0 702 191" fill="none" xmlns="http://www.w3.org/2000/svg">
<path d="M619.954 31.7287C619.954 31.7287 631.201 9.82972 659.782 10.667" stroke="#248AFF" stroke-width="2.88292" stroke-linecap="round" stroke-linejoin="round"/>
<path d="M620.573 53.9345C620.573 53.9345 621.838 35.6899 641.78 24.9908C661.723 14.2923 677.995 24.9738 677.995 24.9738" stroke="#248AFF" stroke-width="2.88292" stroke-linecap="round" stroke-linejoin="round"/>
<path d="M642.09 83.7235C642.09 83.7235 632.358 75.252 630.574 61.0725C628.573 45.1777 639.868 36.7474 646.195 33.3292C653.457 29.4047 665.728 25.4577 677.909 36.8613C690.969 49.0877 685.462 54.557 683.066 56.8317C680.229 59.5248 674.163 62.4408 666.844 53.0062C659.526 43.5729 648.886 49.5938 648.838 57.9268C648.788 66.3544 655.402 70.9425 660.524 73.4817C665.645 76.0199 675.369 78.16 680.348 76.6087" stroke="#248AFF" stroke-width="2.88292" stroke-linecap="round" stroke-linejoin="round"/>
<path d="M657.928 57.5737C657.928 57.5737 663.316 66.2817 672.392 67.816C682.673 69.5528 686.914 64.4624 686.914 64.4624" stroke="#248AFF" stroke-width="2.88292" stroke-linecap="round" stroke-linejoin="round"/>
<path d="M661.84 84.3425C661.84 84.3425 649.144 82.0207 642.611 69.0692C637.069 58.0799 639.83 47.7432 649.79 41.4396C659.751 35.1349 669.01 40.9552 676.543 50.2472" stroke="#248AFF" stroke-width="2.88292" stroke-linecap="round" stroke-linejoin="round"/>
<rect x="231.349" y="56.5834" width="136.38" height="136.38" rx="21.8941" transform="rotate(-16.3565 231.349 56.5834)" fill="white"/>
<path fill-rule="evenodd" clip-rule="evenodd" d="M241.553 55.2216C241.167 58.1532 241.373 61.2111 242.259 64.2307L268.334 153.075C271.739 164.678 283.905 171.323 295.508 167.918L384.352 141.843C388.012 140.769 391.178 138.823 393.692 136.298C392.596 144.631 386.726 151.944 378.143 154.463L289.298 180.538C277.696 183.943 265.53 177.298 262.125 165.696L236.05 76.851C233.719 68.9081 236.098 60.7011 241.553 55.2216Z" fill="#85BEFF"/>
<rect x="231.349" y="55.8433" width="136.38" height="136.38" rx="21.8941" transform="rotate(-16.3565 231.349 55.8433)" stroke="#0572EC" stroke-width="2.57577" stroke-miterlimit="10" stroke-linecap="round" stroke-linejoin="round"/>
<path d="M382.823 92.7579L254.943 129.369" stroke="#85BEFF" stroke-width="2.57577" stroke-miterlimit="10" stroke-linejoin="round"/>
<path d="M378.81 79.3329L250.93 115.944" stroke="#85BEFF" stroke-width="2.57577" stroke-miterlimit="10" stroke-linejoin="round"/>
<path d="M299.822 68.9384C322.88 62.1687 347.069 75.3852 353.836 98.4513C360.604 121.517 347.392 145.715 324.333 152.484C301.275 159.254 277.086 146.037 270.319 122.971C263.552 99.9052 276.721 75.7205 299.822 68.9384Z" fill="#85BEFF"/>
<path d="M304.49 61.5346C326.956 54.9387 350.524 67.8159 357.118 90.2897C363.711 112.764 350.839 136.339 328.372 142.935C305.906 149.531 282.339 136.654 275.745 114.18C269.151 91.7062 281.983 68.1425 304.49 61.5346Z" fill="white" stroke="#85BEFF" stroke-width="2.57577" stroke-miterlimit="10" stroke-linecap="round" stroke-linejoin="round"/>
<path d="M307.576 72.0504C324.229 67.161 341.719 76.7169 346.606 93.3764C351.494 110.036 341.941 127.531 325.288 132.42C308.634 137.31 291.145 127.754 286.257 111.094C281.328 94.447 290.881 76.9519 307.576 72.0504Z" stroke="#0572EC" stroke-width="5.15155" stroke-miterlimit="10" stroke-linecap="round" stroke-linejoin="round"/>
<path d="M315.227 83.3306L307.189 85.6906C306.199 85.9811 305.629 87.0891 305.873 88.2267L305.909 88.3504L308.378 96.7626C308.474 97.0925 308.683 97.3449 308.92 97.5439L309.027 97.6021L310.609 98.5707C311.22 98.9737 311.491 99.7451 311.248 100.443L311.19 100.55L310.382 102.221C310.248 102.529 310.209 102.854 310.265 103.196L310.301 103.319L315.08 119.608C315.407 120.721 316.456 121.398 317.47 121.19L317.593 121.154L325.632 118.794C326.621 118.503 327.191 117.395 326.947 116.258L326.911 116.134L324.624 108.34C324.527 108.011 324.307 107.717 324.07 107.518L323.963 107.46L322.38 106.491C321.77 106.088 321.499 105.317 321.741 104.618L321.8 104.512L322.608 102.841C322.741 102.533 322.78 102.208 322.725 101.866L322.689 101.743L317.728 84.8357C317.402 83.7224 316.258 83.0281 315.227 83.3306Z" fill="#02346E"/>
<circle cx="419.87" cy="130.639" r="53.043" fill="white" stroke="#0572EC" stroke-width="2.57577"/>
<circle cx="419.871" cy="130.284" r="43.7891" fill="#85BEFF"/>
<path d="M450.79 99.3635L409.494 120.063L419.792 130.362L450.79 99.3635Z" fill="#F17BA5"/>
<path d="M450.79 99.3634L430.091 140.66L419.792 130.361L450.79 99.3634Z" fill="#D3376C"/>
<path d="M388.794 161.36L430.091 140.66L419.792 130.362L388.794 161.36Z" fill="#C2EAFF"/>
<path d="M388.794 161.36L409.494 120.063L419.792 130.362L388.794 161.36Z" fill="white"/>
<path d="M367.743 121.776C368.482 107.583 379.321 93.8854 384.681 89.45C358.06 104.507 353.143 143.892 359.611 160.956L373.841 156.705C371.501 150.976 367.004 135.97 367.743 121.776Z" fill="#0572EC"/>
<rect x="66.6401" y="128.86" width="71.301" height="46.5655" rx="4.57279" transform="rotate(-32.8198 66.6401 128.86)" fill="#85BEFF" stroke="#248AFF" stroke-width="3.18894" stroke-miterlimit="10" stroke-linecap="round" stroke-linejoin="round"/>
<rect x="74.6827" y="139.794" width="69.2704" height="6.54128" transform="rotate(-32.8198 74.6827 139.794)" fill="#248AFF" stroke="#248AFF" stroke-width="3.18894"/>
<rect x="556.047" y="78.2878" width="59.2735" height="59.2735" rx="14.5772" transform="rotate(21.8364 556.047 78.2878)" stroke="#248AFF" stroke-width="3.82036" stroke-miterlimit="10" stroke-linecap="round" stroke-linejoin="round"/>
<path d="M575.465 119.534C578.001 119.085 580.255 117.376 581.283 114.809C582.866 110.859 580.947 106.373 576.996 104.79C573.045 103.207 568.559 105.126 566.976 109.077C565.948 111.641 566.397 114.432 567.919 116.507L563.951 126.409L571.499 129.433L575.465 119.534Z" fill="#248AFF"/>
<path opacity="0.3" d="M159.435 44.7925L152.174 21.8008C164.137 18.7315 175.856 25.0866 180.872 35.1687C184.884 43.2345 182.689 53.5502 181.09 57.6998L159.435 44.7925Z" fill="white"/>
<circle cx="159.166" cy="45.1661" r="24.839" transform="rotate(-17.5263 159.166 45.1661)" stroke="#248AFF" stroke-width="3.65739" stroke-miterlimit="10" stroke-linecap="round" stroke-linejoin="round"/>
<path d="M154.645 30.8509L158.688 43.6518C159.107 44.9782 160.035 46.0838 161.269 46.7255L174.595 53.6544" stroke="#248AFF" stroke-width="3.65739" stroke-miterlimit="10" stroke-linecap="round" stroke-linejoin="round"/>
<path opacity="0.3" fill-rule="evenodd" clip-rule="evenodd" d="M42.9792 47.5393L46.3492 48.5709C48.2095 49.1404 49.2575 51.1126 48.6885 52.9733L41.4729 76.5686C40.9039 78.4292 38.9324 79.4772 37.0721 78.9077L3.37157 68.5918C1.5113 68.0224 0.463313 66.0501 1.03231 64.1895L8.24785 40.5942C8.81684 38.7335 10.7884 37.6856 12.6487 38.255L16.0187 39.2866L18.0803 32.5451C20.3543 25.1092 28.2494 20.9128 35.6837 23.1885C43.118 25.4641 47.3147 33.362 45.0407 40.7978L42.9792 47.5393ZM33.622 29.9288C29.9049 28.791 25.9573 30.8892 24.8204 34.6071L22.7588 41.3485L36.2389 45.4748L38.3004 38.7334C39.4374 35.0155 37.3391 31.0666 33.622 29.9288Z" fill="#248AFF"/>
<path opacity="0.3" fill-rule="evenodd" clip-rule="evenodd" d="M509.836 35.3315L512.614 34.2355C514.147 33.6305 515.882 34.3842 516.487 35.9179L524.154 55.3672C524.758 56.9009 524.004 58.6367 522.471 59.2417L494.692 70.2017C493.158 70.8067 491.423 70.053 490.819 68.5192L483.152 49.07C482.547 47.5363 483.301 45.8005 484.835 45.1955L487.613 44.0995L485.422 38.5426C483.006 32.4133 486.025 25.4625 492.153 23.0447C498.281 20.6269 505.229 23.6452 507.645 29.7745L509.836 35.3315ZM494.342 28.601C491.278 29.8099 489.768 33.2853 490.977 36.3499L493.167 41.9068L504.279 37.5228L502.088 31.9659C500.88 28.9013 497.406 27.3921 494.342 28.601Z" fill="#248AFF"/>
</svg>
