<svg width="363" height="146" viewBox="0 0 363 146" fill="none" xmlns="http://www.w3.org/2000/svg">
<path d="M313.126 83.1209C313.126 83.1209 320.012 69.7138 337.51 70.2263" stroke="#248AFF" stroke-width="1.765" stroke-linecap="round" stroke-linejoin="round"/>
<path d="M313.505 96.7158C313.505 96.7158 314.279 85.546 326.489 78.9957C338.698 72.4458 348.661 78.9853 348.661 78.9853" stroke="#248AFF" stroke-width="1.765" stroke-linecap="round" stroke-linejoin="round"/>
<path d="M326.678 114.953C326.678 114.953 320.72 109.767 319.627 101.086C318.402 91.3547 325.318 86.1935 329.191 84.1008C333.637 81.698 341.15 79.2816 348.608 86.2632C356.603 93.7485 353.232 97.097 351.764 98.4896C350.028 100.138 346.314 101.924 341.833 96.1475C337.353 90.3722 330.839 94.0584 330.809 99.16C330.779 104.32 334.828 107.129 337.964 108.683C341.099 110.237 347.052 111.547 350.101 110.598" stroke="#248AFF" stroke-width="1.765" stroke-linecap="round" stroke-linejoin="round"/>
<path d="M336.375 98.9439C336.375 98.9439 339.674 104.275 345.23 105.215C351.524 106.278 354.121 103.161 354.121 103.161" stroke="#248AFF" stroke-width="1.765" stroke-linecap="round" stroke-linejoin="round"/>
<path d="M338.77 115.332C338.77 115.332 330.997 113.911 326.998 105.982C323.605 99.2538 325.295 92.9254 331.393 89.0662C337.491 85.2063 343.16 88.7696 347.771 94.4584" stroke="#248AFF" stroke-width="1.765" stroke-linecap="round" stroke-linejoin="round"/>
<rect x="82.1843" y="41.6058" width="105.895" height="105.895" rx="17" transform="rotate(-16.3565 82.1843 41.6058)" fill="white"/>
<path fill-rule="evenodd" clip-rule="evenodd" d="M90.107 40.5488C89.8077 42.825 89.9673 45.1992 90.6554 47.5437L110.902 116.529C113.546 125.537 122.992 130.697 132.001 128.053L200.986 107.807C203.828 106.973 206.286 105.462 208.238 103.501C207.387 109.972 202.829 115.65 196.165 117.606L127.18 137.852C118.171 140.496 108.725 135.337 106.081 126.328L85.8344 57.3429C84.0244 51.1758 85.8715 44.8035 90.107 40.5488Z" fill="#85BEFF"/>
<rect x="82.1843" y="41.0309" width="105.895" height="105.895" rx="17" transform="rotate(-16.3565 82.1843 41.0309)" stroke="#0572EC" stroke-width="2" stroke-miterlimit="10" stroke-linecap="round" stroke-linejoin="round"/>
<path d="M199.799 69.694L100.504 98.1212" stroke="#85BEFF" stroke-width="2" stroke-miterlimit="10" stroke-linejoin="round"/>
<path d="M196.683 59.2699L97.3882 87.6972" stroke="#85BEFF" stroke-width="2" stroke-miterlimit="10" stroke-linejoin="round"/>
<path d="M135.017 51.1105C152.9 45.8622 171.659 56.1086 176.907 73.991C182.156 91.8735 171.909 110.633 154.027 115.881C136.144 121.129 117.385 110.883 112.137 93.0006C106.889 75.1181 117.102 56.3685 135.017 51.1105Z" fill="#85BEFF"/>
<path d="M138.638 45.3706C156.061 40.257 174.339 50.2403 179.453 67.6636C184.566 85.0869 174.583 103.364 157.16 108.478C139.736 113.592 121.459 103.608 116.345 86.1851C111.232 68.7618 121.183 50.4936 138.638 45.3706Z" fill="white" stroke="#85BEFF" stroke-width="2" stroke-miterlimit="10" stroke-linecap="round" stroke-linejoin="round"/>
<path d="M141.031 53.5231C153.947 49.7325 167.51 57.1409 171.301 70.0565C175.091 82.9721 167.683 96.5356 154.767 100.326C141.852 104.117 128.288 96.7084 124.498 83.7928C120.675 70.8866 128.083 57.3231 141.031 53.5231Z" stroke="#0572EC" stroke-width="4" stroke-miterlimit="10" stroke-linecap="round" stroke-linejoin="round"/>
<path d="M146.965 62.2684L140.731 64.098C139.964 64.3232 139.521 65.1822 139.711 66.0641L139.739 66.16L141.653 72.6818C141.728 72.9375 141.889 73.1332 142.074 73.2875L142.156 73.3326L143.384 74.0835C143.857 74.3959 144.068 74.994 143.879 75.5354L143.834 75.6181L143.207 76.9132C143.104 77.1519 143.073 77.4039 143.117 77.669L143.145 77.7649L146.851 90.3928C147.104 91.256 147.918 91.781 148.704 91.6198L148.8 91.5916L155.034 89.762C155.801 89.5368 156.244 88.6778 156.054 87.7959L156.026 87.6999L154.253 81.6577C154.178 81.402 154.007 81.1744 153.823 81.0201L153.74 80.9749L152.512 80.224C152.039 79.9116 151.829 79.3136 152.017 78.7722L152.062 78.6895L152.689 77.3944C152.793 77.1556 152.823 76.9037 152.78 76.6386L152.751 76.5427L148.905 63.4352C148.651 62.5721 147.764 62.0338 146.965 62.2684Z" fill="#02346E"/>
<circle cx="228.565" cy="99.1072" r="41.1861" fill="white" stroke="#0572EC" stroke-width="2"/>
<circle cx="228.565" cy="98.8314" r="34.0007" fill="#85BEFF"/>
<path d="M252.573 74.8229L220.508 90.8952L228.504 98.8919L252.573 74.8229Z" fill="#F17BA5"/>
<path d="M252.573 74.8229L236.501 106.888L228.504 98.8918L252.573 74.8229Z" fill="#D3376C"/>
<path d="M204.435 122.961L236.501 106.889L228.504 98.8919L204.435 122.961Z" fill="#C2EAFF"/>
<path d="M204.435 122.961L220.508 90.8953L228.504 98.8919L204.435 122.961Z" fill="white"/>
<path d="M188.09 92.2257C188.664 81.2051 197.08 70.5694 201.242 67.1255C180.571 78.8168 176.754 109.398 181.776 122.647L192.825 119.347C191.008 114.898 187.516 103.246 188.09 92.2257Z" fill="#0572EC"/>
<rect x="0.401367" y="92.7672" width="44.7177" height="29.2044" rx="2.86791" transform="rotate(-32.8198 0.401367 92.7672)" fill="#85BEFF" stroke="#248AFF" stroke-width="2" stroke-miterlimit="10" stroke-linecap="round" stroke-linejoin="round"/>
<rect x="5.44537" y="99.6243" width="43.4442" height="4.10248" transform="rotate(-32.8198 5.44537 99.6243)" fill="#248AFF" stroke="#248AFF" stroke-width="2"/>
<rect x="313.788" y="6.06219" width="31.0303" height="31.0303" rx="7.63131" transform="rotate(21.8364 313.788 6.06219)" stroke="#248AFF" stroke-width="2" stroke-miterlimit="10" stroke-linecap="round" stroke-linejoin="round"/>
<path d="M323.954 27.6549C325.282 27.42 326.461 26.5252 327 25.1817C327.828 23.1135 326.823 20.765 324.755 19.9362C322.687 19.1075 320.339 20.1122 319.51 22.1805C318.972 23.5232 319.206 24.984 320.003 26.0704L317.926 31.2541L321.877 32.8374L323.954 27.6549Z" fill="#248AFF"/>
<path opacity="0.3" d="M70.878 16.8385L66.9075 4.26581C73.4496 2.58739 79.8576 6.06257 82.6005 11.5759C84.7948 15.9865 83.5943 21.6276 82.7198 23.8968L70.878 16.8385Z" fill="white"/>
<circle cx="70.7308" cy="17.0428" r="13.5829" transform="rotate(-17.5263 70.7308 17.0428)" stroke="#248AFF" stroke-width="2" stroke-miterlimit="10" stroke-linecap="round" stroke-linejoin="round"/>
<path d="M68.2585 9.2146L70.4692 16.2146C70.6982 16.94 71.206 17.5446 71.8809 17.8955L79.1676 21.6844" stroke="#248AFF" stroke-width="2" stroke-miterlimit="10" stroke-linecap="round" stroke-linejoin="round"/>
<path opacity="0.3" fill-rule="evenodd" clip-rule="evenodd" d="M21.5285 40.4578L23.1257 40.9465C24.0073 41.2162 24.5039 42.1507 24.2342 43.0323L20.8136 54.2125C20.5438 55.0941 19.6094 55.5908 18.7277 55.321L2.75601 50.4344C1.87437 50.1646 1.37776 49.2302 1.6475 48.3486L5.06813 37.1684C5.33788 36.2867 6.27233 35.7901 7.15397 36.0598L8.75114 36.5485L9.72846 33.3542C10.8065 29.8308 14.5484 27.8421 18.0718 28.9201C21.5952 29.9981 23.5838 33.7401 22.5058 37.2635L21.5285 40.4578ZM17.0943 32.1143C15.3326 31.5753 13.4616 32.5697 12.9226 34.3313L11.9453 37.5257L18.334 39.4803L19.3113 36.286C19.8503 34.5243 18.856 32.6533 17.0943 32.1143Z" fill="#248AFF"/>
<path opacity="0.3" fill-rule="evenodd" clip-rule="evenodd" d="M260.203 15.4977L261.942 14.812C262.902 14.4334 263.989 14.9052 264.367 15.8651L269.168 28.0379C269.546 28.9978 269.074 30.0841 268.114 30.4626L250.725 37.3205C249.765 37.6991 248.679 37.2272 248.3 36.2673L243.499 24.0946C243.121 23.1347 243.593 22.0484 244.553 21.6698L246.292 20.984L244.92 17.5061C243.407 13.6699 245.297 9.31994 249.133 7.80709C252.969 6.29425 257.319 8.18365 258.832 12.0198L260.203 15.4977ZM250.504 11.285C248.586 12.0414 247.641 14.2164 248.398 16.1345L249.769 19.6125L256.725 16.8693L255.354 13.3914C254.597 11.4733 252.422 10.5286 250.504 11.285Z" fill="#248AFF"/>
</svg>
